<?xml version="1.0" encoding="UTF-8"?>
<!DOCTYPE svg  PUBLIC '-//W3C//DTD SVG 1.1//EN'  'http://www.w3.org/Graphics/SVG/1.1/DTD/svg11.dtd'>
<svg width="1152pt" height="648pt" version="1.1" viewBox="0 0 1152 648" xmlns="http://www.w3.org/2000/svg" xmlns:xlink="http://www.w3.org/1999/xlink"><defs><style type="text/css">*{stroke-linejoin: round; stroke-linecap: butt}</style></defs><path d="m0 648h1152v-648h-1152z" fill="#fff"/><path d="m55.296 609.12h1085.2v-589.68h-1085.2z" fill="#fff"/><path d="m55.296 609.12v-589.68" clip-path="url(#i)" fill="none" stroke="#b0b0b0" stroke-dasharray="0.8,1.32" stroke-width=".8"/><defs><path id="m" d="m0 0v3.5" stroke="#000" stroke-width=".8"/></defs><use x="55.296" y="609.12" stroke="#000000" stroke-width=".8" xlink:href="#m"/><g transform="translate(42.571 623.72) scale(.1 -.1)"><defs><path id="j" transform="scale(.015625)" d="m1228 531h2203v-531h-2962v531q359 372 979 998 621 627 780 809 303 340 423 576 121 236 121 464 0 372-261 606-261 235-680 235-297 0-627-103-329-103-704-313v638q381 153 712 231 332 78 607 78 725 0 1156-363 431-362 431-968 0-288-108-546-107-257-392-607-78-91-497-524-418-433-1181-1211z"/><path id="g" transform="scale(.015625)" d="m2034 4250q-487 0-733-480-245-479-245-1442 0-959 245-1439 246-480 733-480 491 0 736 480 246 480 246 1439 0 963-246 1442-245 480-736 480zm0 500q785 0 1199-621 414-620 414-1801 0-1178-414-1799-414-620-1199-620-784 0-1198 620-414 621-414 1799 0 1181 414 1801 414 621 1198 621z"/></defs><use xlink:href="#j"/><use x="63.623047" xlink:href="#g"/><use x="127.246094" xlink:href="#g"/><use x="190.869141" xlink:href="#j"/></g><path d="m106.94 609.12v-589.68" clip-path="url(#i)" fill="none" stroke="#b0b0b0" stroke-dasharray="0.8,1.32" stroke-width=".8"/><use x="106.937742" y="609.12" stroke="#000000" stroke-width=".8" xlink:href="#m"/><g transform="translate(94.213 623.72) scale(.1 -.1)"><defs><path id="ab" transform="scale(.015625)" d="m2597 2516q453-97 707-404 255-306 255-756 0-690-475-1069-475-378-1350-378-293 0-604 58t-642 174v609q262-153 574-231 313-78 654-78 593 0 904 234t311 681q0 413-289 645-289 233-804 233h-544v519h569q465 0 712 186t247 536q0 359-255 551-254 193-729 193-260 0-557-57-297-56-653-174v562q360 100 674 150t592 50q719 0 1137-327 419-326 419-882 0-388-222-655t-631-370z"/></defs><use xlink:href="#j"/><use x="63.623047" xlink:href="#g"/><use x="127.246094" xlink:href="#g"/><use x="190.869141" xlink:href="#ab"/></g><path d="m158.58 609.12v-589.68" clip-path="url(#i)" fill="none" stroke="#b0b0b0" stroke-dasharray="0.8,1.32" stroke-width=".8"/><use x="158.579484" y="609.12" stroke="#000000" stroke-width=".8" xlink:href="#m"/><g transform="translate(145.85 623.72) scale(.1 -.1)"><defs><path id="ae" transform="scale(.015625)" d="m2419 4116-1594-2491h1594v2491zm-166 550h794v-3041h666v-525h-666v-1100h-628v1100h-2106v609l1940 2957z"/></defs><use xlink:href="#j"/><use x="63.623047" xlink:href="#g"/><use x="127.246094" xlink:href="#g"/><use x="190.869141" xlink:href="#ae"/></g><path d="m210.36 609.12v-589.68" clip-path="url(#i)" fill="none" stroke="#b0b0b0" stroke-dasharray="0.8,1.32" stroke-width=".8"/><use x="210.36271" y="609.12" stroke="#000000" stroke-width=".8" xlink:href="#m"/><g transform="translate(197.64 623.72) scale(.1 -.1)"><defs><path id="aa" transform="scale(.015625)" d="m691 4666h2478v-532h-1900v-1143q137 47 274 70 138 23 276 23 781 0 1237-428 457-428 457-1159 0-753-469-1171-469-417-1322-417-294 0-599 50-304 50-629 150v635q281-153 581-228t634-75q541 0 856 284 316 284 316 772 0 487-316 771-315 285-856 285-253 0-505-56-251-56-513-175v2344z"/></defs><use xlink:href="#j"/><use x="63.623047" xlink:href="#g"/><use x="127.246094" xlink:href="#g"/><use x="190.869141" xlink:href="#aa"/></g><path d="m262 609.12v-589.68" clip-path="url(#i)" fill="none" stroke="#b0b0b0" stroke-dasharray="0.8,1.32" stroke-width=".8"/><use x="262.004452" y="609.12" stroke="#000000" stroke-width=".8" xlink:href="#m"/><g transform="translate(249.28 623.72) scale(.1 -.1)"><defs><path id="am" transform="scale(.015625)" d="m2113 2584q-425 0-674-291-248-290-248-796 0-503 248-796 249-292 674-292t673 292q248 293 248 796 0 506-248 796-248 291-673 291zm1253 1979v-575q-238 112-480 171-242 60-480 60-625 0-955-422-329-422-376-1275 184 272 462 417 279 145 613 145 703 0 1111-427 408-426 408-1160 0-719-425-1154-425-434-1131-434-810 0-1238 620-428 621-428 1799 0 1106 525 1764t1409 658q238 0 480-47t505-140z"/></defs><use xlink:href="#j"/><use x="63.623047" xlink:href="#g"/><use x="127.246094" xlink:href="#g"/><use x="190.869141" xlink:href="#am"/></g><path d="m313.65 609.12v-589.68" clip-path="url(#i)" fill="none" stroke="#b0b0b0" stroke-dasharray="0.8,1.32" stroke-width=".8"/><use x="313.646193" y="609.12" stroke="#000000" stroke-width=".8" xlink:href="#m"/><g transform="translate(300.92 623.72) scale(.1 -.1)"><defs><path id="as" transform="scale(.015625)" d="m525 4666h3e3v-269l-1694-4397h-659l1594 4134h-2241v532z"/></defs><use xlink:href="#j"/><use x="63.623047" xlink:href="#g"/><use x="127.246094" xlink:href="#g"/><use x="190.869141" xlink:href="#as"/></g><path d="m365.29 609.12v-589.68" clip-path="url(#i)" fill="none" stroke="#b0b0b0" stroke-dasharray="0.8,1.32" stroke-width=".8"/><use x="365.287935" y="609.12" stroke="#000000" stroke-width=".8" xlink:href="#m"/><g transform="translate(352.56 623.72) scale(.1 -.1)"><defs><path id="ar" transform="scale(.015625)" d="m2034 2216q-450 0-708-241-257-241-257-662 0-422 257-663 258-241 708-241t709 242q260 243 260 662 0 421-258 662-257 241-711 241zm-631 268q-406 100-633 378-226 279-226 679 0 559 398 884 399 325 1092 325 697 0 1094-325t397-884q0-400-227-679-226-278-629-378 456-106 710-416 255-309 255-755 0-679-414-1042-414-362-1186-362-771 0-1186 362-414 363-414 1042 0 446 256 755 257 310 713 416zm-231 997q0-362 226-565 227-203 636-203 407 0 636 203 230 203 230 565 0 363-230 566-229 203-636 203-409 0-636-203-226-203-226-566z"/></defs><use xlink:href="#j"/><use x="63.623047" xlink:href="#g"/><use x="127.246094" xlink:href="#g"/><use x="190.869141" xlink:href="#ar"/></g><path d="m417.07 609.12v-589.68" clip-path="url(#i)" fill="none" stroke="#b0b0b0" stroke-dasharray="0.8,1.32" stroke-width=".8"/><use x="417.071161" y="609.12" stroke="#000000" stroke-width=".8" xlink:href="#m"/><g transform="translate(404.35 623.72) scale(.1 -.1)"><defs><path id="aq" transform="scale(.015625)" d="m703 97v575q238-113 481-172 244-59 479-59 625 0 954 420 330 420 377 1277-181-269-460-413-278-144-615-144-700 0-1108 423-408 424-408 1159 0 718 425 1152 425 435 1131 435 810 0 1236-621 427-620 427-1801 0-1103-524-1761-523-658-1407-658-238 0-482 47-243 47-506 141zm1256 1978q425 0 673 290 249 291 249 798 0 503-249 795-248 292-673 292t-673-292-248-795q0-507 248-798 248-290 673-290z"/></defs><use xlink:href="#j"/><use x="63.623047" xlink:href="#g"/><use x="127.246094" xlink:href="#g"/><use x="190.869141" xlink:href="#aq"/></g><path d="m468.71 609.12v-589.68" clip-path="url(#i)" fill="none" stroke="#b0b0b0" stroke-dasharray="0.8,1.32" stroke-width=".8"/><use x="468.712903" y="609.12" stroke="#000000" stroke-width=".8" xlink:href="#m"/><g transform="translate(455.99 623.72) scale(.1 -.1)"><defs><path id="r" transform="scale(.015625)" d="m794 531h1031v3560l-1122-225v575l1116 225h631v-4135h1031v-531h-2687v531z"/></defs><use xlink:href="#j"/><use x="63.623047" xlink:href="#g"/><use x="127.246094" xlink:href="#r"/><use x="190.869141" xlink:href="#g"/></g><path d="m520.35 609.12v-589.68" clip-path="url(#i)" fill="none" stroke="#b0b0b0" stroke-dasharray="0.8,1.32" stroke-width=".8"/><use x="520.354645" y="609.12" stroke="#000000" stroke-width=".8" xlink:href="#m"/><g transform="translate(507.63 623.72) scale(.1 -.1)"><use xlink:href="#j"/><use x="63.623047" xlink:href="#g"/><use x="127.246094" xlink:href="#r"/><use x="190.869141" xlink:href="#r"/></g><path d="m572 609.12v-589.68" clip-path="url(#i)" fill="none" stroke="#b0b0b0" stroke-dasharray="0.8,1.32" stroke-width=".8"/><use x="571.996387" y="609.12" stroke="#000000" stroke-width=".8" xlink:href="#m"/><g transform="translate(559.27 623.72) scale(.1 -.1)"><use xlink:href="#j"/><use x="63.623047" xlink:href="#g"/><use x="127.246094" xlink:href="#r"/><use x="190.869141" xlink:href="#j"/></g><path d="m623.78 609.12v-589.68" clip-path="url(#i)" fill="none" stroke="#b0b0b0" stroke-dasharray="0.8,1.32" stroke-width=".8"/><use x="623.779613" y="609.12" stroke="#000000" stroke-width=".8" xlink:href="#m"/><g transform="translate(611.05 623.72) scale(.1 -.1)"><use xlink:href="#j"/><use x="63.623047" xlink:href="#g"/><use x="127.246094" xlink:href="#r"/><use x="190.869141" xlink:href="#ab"/></g><path d="m675.42 609.12v-589.68" clip-path="url(#i)" fill="none" stroke="#b0b0b0" stroke-dasharray="0.8,1.32" stroke-width=".8"/><use x="675.421355" y="609.12" stroke="#000000" stroke-width=".8" xlink:href="#m"/><g transform="translate(662.7 623.72) scale(.1 -.1)"><use xlink:href="#j"/><use x="63.623047" xlink:href="#g"/><use x="127.246094" xlink:href="#r"/><use x="190.869141" xlink:href="#ae"/></g><path d="m727.06 609.12v-589.68" clip-path="url(#i)" fill="none" stroke="#b0b0b0" stroke-dasharray="0.8,1.32" stroke-width=".8"/><use x="727.063097" y="609.12" stroke="#000000" stroke-width=".8" xlink:href="#m"/><g transform="translate(714.34 623.72) scale(.1 -.1)"><use xlink:href="#j"/><use x="63.623047" xlink:href="#g"/><use x="127.246094" xlink:href="#r"/><use x="190.869141" xlink:href="#aa"/></g><path d="m778.7 609.12v-589.68" clip-path="url(#i)" fill="none" stroke="#b0b0b0" stroke-dasharray="0.8,1.32" stroke-width=".8"/><use x="778.704839" y="609.12" stroke="#000000" stroke-width=".8" xlink:href="#m"/><g transform="translate(765.98 623.72) scale(.1 -.1)"><use xlink:href="#j"/><use x="63.623047" xlink:href="#g"/><use x="127.246094" xlink:href="#r"/><use x="190.869141" xlink:href="#am"/></g><path d="m830.49 609.12v-589.68" clip-path="url(#i)" fill="none" stroke="#b0b0b0" stroke-dasharray="0.8,1.32" stroke-width=".8"/><use x="830.488065" y="609.12" stroke="#000000" stroke-width=".8" xlink:href="#m"/><g transform="translate(817.76 623.72) scale(.1 -.1)"><use xlink:href="#j"/><use x="63.623047" xlink:href="#g"/><use x="127.246094" xlink:href="#r"/><use x="190.869141" xlink:href="#as"/></g><path d="m882.13 609.12v-589.68" clip-path="url(#i)" fill="none" stroke="#b0b0b0" stroke-dasharray="0.8,1.32" stroke-width=".8"/><use x="882.129807" y="609.12" stroke="#000000" stroke-width=".8" xlink:href="#m"/><g transform="translate(869.4 623.72) scale(.1 -.1)"><use xlink:href="#j"/><use x="63.623047" xlink:href="#g"/><use x="127.246094" xlink:href="#r"/><use x="190.869141" xlink:href="#ar"/></g><path d="m933.77 609.12v-589.68" clip-path="url(#i)" fill="none" stroke="#b0b0b0" stroke-dasharray="0.8,1.32" stroke-width=".8"/><use x="933.771548" y="609.12" stroke="#000000" stroke-width=".8" xlink:href="#m"/><g transform="translate(921.05 623.72) scale(.1 -.1)"><use xlink:href="#j"/><use x="63.623047" xlink:href="#g"/><use x="127.246094" xlink:href="#r"/><use x="190.869141" xlink:href="#aq"/></g><path d="m985.41 609.12v-589.68" clip-path="url(#i)" fill="none" stroke="#b0b0b0" stroke-dasharray="0.8,1.32" stroke-width=".8"/><use x="985.41329" y="609.12" stroke="#000000" stroke-width=".8" xlink:href="#m"/><g transform="translate(972.69 623.72) scale(.1 -.1)"><use xlink:href="#j"/><use x="63.623047" xlink:href="#g"/><use x="127.246094" xlink:href="#j"/><use x="190.869141" xlink:href="#g"/></g><path d="m1037.2 609.12v-589.68" clip-path="url(#i)" fill="none" stroke="#b0b0b0" stroke-dasharray="0.8,1.32" stroke-width=".8"/><use x="1037.196516" y="609.12" stroke="#000000" stroke-width=".8" xlink:href="#m"/><g transform="translate(1024.5 623.72) scale(.1 -.1)"><use xlink:href="#j"/><use x="63.623047" xlink:href="#g"/><use x="127.246094" xlink:href="#j"/><use x="190.869141" xlink:href="#r"/></g><path d="m1088.8 609.12v-589.68" clip-path="url(#i)" fill="none" stroke="#b0b0b0" stroke-dasharray="0.8,1.32" stroke-width=".8"/><use x="1088.838258" y="609.12" stroke="#000000" stroke-width=".8" xlink:href="#m"/><g transform="translate(1076.1 623.72) scale(.1 -.1)"><use xlink:href="#j"/><use x="63.623047" xlink:href="#g"/><use x="127.246094" xlink:href="#j"/><use x="190.869141" xlink:href="#j"/></g><path d="m1140.5 609.12v-589.68" clip-path="url(#i)" fill="none" stroke="#b0b0b0" stroke-dasharray="0.8,1.32" stroke-width=".8"/><use x="1140.48" y="609.12" stroke="#000000" stroke-width=".8" xlink:href="#m"/><g transform="translate(1127.8 623.72) scale(.1 -.1)"><use xlink:href="#j"/><use x="63.623047" xlink:href="#g"/><use x="127.246094" xlink:href="#j"/><use x="190.869141" xlink:href="#ab"/></g><g transform="translate(524.97 639.68) scale(.13 -.13)"><defs><path id="ap" transform="scale(.015625)" d="m1459 531h2063v3603h-1516v-662q0-1559-350-2594-72-212-197-347zm-921 0q418 197 537 572 303 963 303 2681v882h2775v-4135h531v-1534h-531v1003h-3306v-1003h-531v1534h222z"/><path id="q" transform="scale(.015625)" d="m2194 1759q-697 0-966-159t-269-544q0-306 202-486 202-179 548-179 479 0 768 339t289 901v128h-572zm1147 238v-1997h-575v531q-197-318-491-470t-719-152q-537 0-855 302-317 302-317 808 0 590 395 890 396 300 1180 300h807v57q0 397-261 614t-733 217q-300 0-585-72-284-72-546-216v532q315 122 612 182 297 61 578 61 760 0 1135-394 375-393 375-1193z"/><path id="l" transform="scale(.015625)" d="m188 3500h3353v-459h-1394v-3041h-566v3041h-1393v459z"/><path id="h" transform="scale(.015625)" d="m1959 3097q-462 0-731-361t-269-989 267-989q268-361 733-361 460 0 728 362 269 363 269 988 0 622-269 986-268 364-728 364zm0 487q750 0 1178-488 429-487 429-1349 0-859-429-1349-428-489-1178-489-753 0-1180 489-426 490-426 1349 0 862 426 1349 427 488 1180 488z"/><path id="p" transform="scale(.015625)" d="m581 3500h572v-1644l1622 1644h706l-1337-1353 1509-2147h-644l-1240 1766-616-625v-1141h-572v3500z"/><path id="u" transform="scale(.015625)" d="m1159 525v-1856h-578v4831h578v-531q182 312 458 463 277 152 661 152 638 0 1036-506 399-506 399-1331t-399-1332q-398-506-1036-506-384 0-661 152-276 152-458 464zm1957 1222q0 634-261 995t-717 361q-457 0-718-361t-261-995 261-995 718-361q456 0 717 361t261 995z"/><path id="n" transform="scale(.015625)" d="m3907 3500h575v-3500h-575v3500zm288 84zm-1414-2546q0 281-205 428-204 147-598 147h-819v-1154h819q394 0 598 148 205 149 205 431zm-2200 2462h578v-1428h844q669 0 1030-255 361-254 361-779t-361-782q-361-256-1030-256h-1422v3500z"/><path id="s" transform="scale(.015625)" d="m3578 3500v-3500h-572v2809l-1687-2809h-738v3500h572v-2803l1685 2803h740z"/><path id="an" transform="scale(.015625)" d="m1181 2491q0-260 200-407 200-146 572-146h775v1103h-775q-372 0-572-144t-200-406zm-818-2491 1068 1534q-362 82-603 296-240 214-240 661 0 506 335 757 336 252 1015 252h1368v-3500h-578v1478h-715l-1032-1478h-618z"/><path id="ba" transform="scale(.015625)" d="m750 794h659v-538l-512-1e3h-403l256 1e3v538z"/><path id="al" transform="scale(.015625)" d="m581 0v3500h2469v-459h-1891v-3041h-578z"/><path id="x" transform="scale(.015625)" d="m1384 459h1669v2582h-1209v-438q0-1287-369-1975l-91-169zm-834 0q284 125 409 391 307 659 307 1988v662h2365v-3041h460v-1343h-460v884h-2837v-884h-460v1343h216z"/></defs><use xlink:href="#ap"/><use x="78.125" xlink:href="#q"/><use x="139.404297" xlink:href="#l"/><use x="197.65625" xlink:href="#q"/><use x="258.935547" xlink:href="#DejaVuSans-20"/><use x="290.722656" xlink:href="#h"/><use x="351.904297" xlink:href="#l"/><use x="410.15625" xlink:href="#p"/><use x="470.556641" xlink:href="#u"/><use x="534.033203" xlink:href="#n"/><use x="612.988281" xlink:href="#l"/><use x="671.240234" xlink:href="#s"/><use x="736.230469" xlink:href="#an"/><use x="796.386719" xlink:href="#ba"/><use x="828.173828" xlink:href="#DejaVuSans-20"/><use x="859.960938" xlink:href="#al"/><use x="912.5" xlink:href="#h"/><use x="973.681641" xlink:href="#x"/><use x="1042.822266" xlink:href="#n"/></g><path d="m55.296 609.12h1085.2" clip-path="url(#i)" fill="none" stroke="#b0b0b0" stroke-dasharray="0.8,1.32" stroke-width=".8"/><defs><path id="y" d="m0 0h-3.5" stroke="#000" stroke-width=".8"/></defs><use x="55.296" y="609.12" stroke="#000000" stroke-width=".8" xlink:href="#y"/><g transform="translate(41.934 612.92) scale(.1 -.1)"><use xlink:href="#g"/></g><path d="m55.296 513.73h1085.2" clip-path="url(#i)" fill="none" stroke="#b0b0b0" stroke-dasharray="0.8,1.32" stroke-width=".8"/><use x="55.296" y="513.733394" stroke="#000000" stroke-width=".8" xlink:href="#y"/><g transform="translate(22.846 517.53) scale(.1 -.1)"><use xlink:href="#aa"/><use x="63.623047" xlink:href="#g"/><use x="127.246094" xlink:href="#g"/><use x="190.869141" xlink:href="#g"/></g><path d="m55.296 418.35h1085.2" clip-path="url(#i)" fill="none" stroke="#b0b0b0" stroke-dasharray="0.8,1.32" stroke-width=".8"/><use x="55.296" y="418.346787" stroke="#000000" stroke-width=".8" xlink:href="#y"/><g transform="translate(16.484 422.15) scale(.1 -.1)"><use xlink:href="#r"/><use x="63.623047" xlink:href="#g"/><use x="127.246094" xlink:href="#g"/><use x="190.869141" xlink:href="#g"/><use x="254.492188" xlink:href="#g"/></g><path d="m55.296 322.96h1085.2" clip-path="url(#i)" fill="none" stroke="#b0b0b0" stroke-dasharray="0.8,1.32" stroke-width=".8"/><use x="55.296" y="322.960181" stroke="#000000" stroke-width=".8" xlink:href="#y"/><g transform="translate(16.484 326.76) scale(.1 -.1)"><use xlink:href="#r"/><use x="63.623047" xlink:href="#aa"/><use x="127.246094" xlink:href="#g"/><use x="190.869141" xlink:href="#g"/><use x="254.492188" xlink:href="#g"/></g><path d="m55.296 227.57h1085.2" clip-path="url(#i)" fill="none" stroke="#b0b0b0" stroke-dasharray="0.8,1.32" stroke-width=".8"/><use x="55.296" y="227.573575" stroke="#000000" stroke-width=".8" xlink:href="#y"/><g transform="translate(16.484 231.37) scale(.1 -.1)"><use xlink:href="#j"/><use x="63.623047" xlink:href="#g"/><use x="127.246094" xlink:href="#g"/><use x="190.869141" xlink:href="#g"/><use x="254.492188" xlink:href="#g"/></g><path d="m55.296 132.19h1085.2" clip-path="url(#i)" fill="none" stroke="#b0b0b0" stroke-dasharray="0.8,1.32" stroke-width=".8"/><use x="55.296" y="132.186969" stroke="#000000" stroke-width=".8" xlink:href="#y"/><g transform="translate(16.484 135.99) scale(.1 -.1)"><use xlink:href="#j"/><use x="63.623047" xlink:href="#aa"/><use x="127.246094" xlink:href="#g"/><use x="190.869141" xlink:href="#g"/><use x="254.492188" xlink:href="#g"/></g><path d="m55.296 36.8h1085.2" clip-path="url(#i)" fill="none" stroke="#b0b0b0" stroke-dasharray="0.8,1.32" stroke-width=".8"/><use x="55.296" y="36.800362" stroke="#000000" stroke-width=".8" xlink:href="#y"/><g transform="translate(16.484 40.6) scale(.1 -.1)"><use xlink:href="#ab"/><use x="63.623047" xlink:href="#g"/><use x="127.246094" xlink:href="#g"/><use x="190.869141" xlink:href="#g"/><use x="254.492188" xlink:href="#g"/></g><g transform="translate(9.7799 466.15) rotate(-90) scale(.13 -.13)"><defs><path id="ax" transform="scale(.015625)" d="m4122 4306v-665q-319 297-680 443-361 147-767 147-800 0-1225-489t-425-1414q0-922 425-1411t1225-489q406 0 767 147t680 444v-660q-331-225-702-338-370-112-782-112-1060 0-1670 648-609 649-609 1771 0 1125 609 1773 610 649 1670 649 418 0 788-111 371-111 696-333z"/><path id="ad" transform="scale(.015625)" d="m1156 1613v-1154h819q394 0 600 148 206 149 206 431 0 281-206 428t-600 147h-819zm0 1428v-969h757q325 0 531 129 206 130 206 362 0 231-206 354-206 124-531 124h-757zm-575 459h1369q616 0 947-225t331-641q0-321-169-511-168-189-500-235 397-75 616-313 219-237 219-594 0-468-361-725-361-256-1030-256h-1422v3500z"/><path id="av" transform="scale(.015625)" d="m2059-325q-243-625-475-815-231-191-618-191h-460v481h338q237 0 368 113 132 112 291 531l103 262-1415 3444h609l1094-2737 1094 2737h609l-1538-3825z"/><path id="ac" transform="scale(.015625)" d="m3603 3500v-3500h-578v3041h-1866v-3041h-578v3500h3022z"/><path id="o" transform="scale(.015625)" d="m581 3500h578v-1428h1866v1428h578v-3500h-578v1613h-1866v-1613h-578v3500z"/><path id="k" transform="scale(.015625)" d="m3597 1894v-281h-2644q38-594 358-905t892-311q331 0 642 81t618 244v-544q-310-131-635-200t-659-69q-838 0-1327 487-489 488-489 1320 0 859 464 1363 464 505 1252 505 706 0 1117-455 411-454 411-1235zm-575 169q-6 471-264 752-258 282-683 282-481 0-770-272t-333-766l2050 4z"/><path id="w" transform="scale(.015625)" d="m238 0v478q568 88 743 481 213 554 213 1969v572h2365v-3500h-575v3041h-1215v-347q0-1350-275-1956-294-647-1256-738z"/><path id="au" transform="scale(.015625)" d="m2625 0v1472h-1072q-478 0-797 297-287 269-287 844v887h575v-834q0-366 162-550 166-185 491-185h928v1569h575v-3500h-575z"/><path id="t" transform="scale(.015625)" d="m3122 3366v-538q-244 135-489 202t-495 67q-560 0-870-355-309-354-309-995t309-996q310-354 870-354 250 0 495 67t489 202v-532q-241-112-499-168-257-57-548-57-791 0-1257 497-465 497-465 1341 0 856 470 1346 471 491 1290 491 265 0 518-55 253-54 491-163z"/><path id="ag" transform="scale(.015625)" d="m3513 3500-1266-1703 1331-1797h-678l-1019 1375-1018-1375h-679l1360 1831-1244 1669h678l928-1247 928 1247h679z"/><path id="ah" transform="scale(.015625)" d="m1991 3584q750 0 1178-488 428-487 428-1349 0-859-428-1349-428-489-1178-489-753 0-1169 475t-438 1363l-18 716q-16 371-16 500 0 500 181 868 285 578 777 828t1317 257q381 3 550 56l159-456q-153-63-293-66l-782-53q-393-28-631-166-622-365-681-843l-22-175q406 371 1066 371zm0-487q-463 0-732-361-268-361-268-989t267-989 733-361q459 0 728 362 269 363 269 988 0 622-269 986t-728 364z"/><path id="aj" transform="scale(.015625)" d="m2753 2072q669 0 1030-255 361-254 361-779t-361-782q-361-256-1030-256h-1425v3041h-1134v459h1712v-1428h847zm-25-459h-822v-1154h822q394 0 598 148 205 149 205 431 0 281-205 428-204 147-598 147z"/></defs><use xlink:href="#ax"/><use x="69.824219" xlink:href="#h"/><use x="131.005859" xlink:href="#ad"/><use x="189.941406" xlink:href="#h"/><use x="251.123047" xlink:href="#p"/><use x="311.523438" xlink:href="#av"/><use x="370.703125" xlink:href="#ac"/><use x="436.083984" xlink:href="#o"/><use x="501.464844" xlink:href="#h"/><use x="562.646484" xlink:href="#k"/><use x="624.169922" xlink:href="#DejaVuSans-20"/><use x="655.957031" xlink:href="#p"/><use x="716.357422" xlink:href="#h"/><use x="777.539062" xlink:href="#w"/><use x="841.455078" xlink:href="#s"/><use x="906.445312" xlink:href="#au"/><use x="965.527344" xlink:href="#k"/><use x="1027.050781" xlink:href="#t"/><use x="1082.03125" xlink:href="#l"/><use x="1140.283203" xlink:href="#ad"/><use x="1199.21875" xlink:href="#h"/><use x="1260.400391" xlink:href="#DejaVuSans-20"/><use x="1292.1875" xlink:href="#h"/><use x="1353.369141" xlink:href="#l"/><use x="1411.621094" xlink:href="#p"/><use x="1472.021484" xlink:href="#u"/><use x="1535.498047" xlink:href="#n"/><use x="1614.453125" xlink:href="#l"/><use x="1672.705078" xlink:href="#n"/><use x="1751.660156" xlink:href="#ag"/><use x="1810.839844" xlink:href="#DejaVuSans-20"/><use x="1842.626953" xlink:href="#h"/><use x="1903.808594" xlink:href="#ah"/><use x="1965.478516" xlink:href="#aj"/><use x="2036.132812" xlink:href="#k"/><use x="2097.65625" xlink:href="#p"/><use x="2158.056641" xlink:href="#l"/><use x="2216.308594" xlink:href="#h"/><use x="2277.490234" xlink:href="#ad"/></g><path d="m1134 24.133-2.1223 1.24-4.386 8.871-4.2445 7.8408-4.386 4.4641-4.386 3.0142-4.2445 2.5945-4.386 3.5484-4.2445 4.3115-4.386 4.6549-3.9616 5.5133-4.386 5.7804-4.386 2.9188-4.2445 6.9441-4.386 7.6119-4.2445 6.8297-4.386 4.7693-4.386 2.3847-4.2445 3.2813-4.386 4.7312-4.2445 5.8758-4.386 3.7964-3.9616 5.0555-4.386 4.8075-8.6305 10.111-8.6305 12.782-4.386 4.8647-4.386 2.8998-4.2445 2.3084-4.386 4.3878-4.2445 5.4752-4.386 3.0714-4.103 3.6628-4.386 6.9632-4.386 3.8536-4.2445 4.1398-4.386 7.0014-4.2445 5.0936-8.772 6.4291-4.2445 2.5945-4.386 3.6438-4.2445 3.7582-4.386 2.2702-3.9616 2.7471-4.386 5.3226-4.386 2.7281-4.2445 4.197-4.386 3.0333-4.2445 3.8536-4.386 2.6517-4.386 1.5643-4.2445 2.4991-4.386 2.3274-8.6305 5.8949-3.9616 2.8425-4.386 3.4721-4.386 3.7392-4.2445 4.5595-4.386 5.3226-4.2445 4.4641-4.386 2.7281-4.386 1.6216-8.6305 3.7201-4.2445 2.4228-4.386 4.5595-3.9616 2.3656-4.386 3.6247-4.386 2.1557-4.2445 3.5484-4.386 4.1016-4.2445 3.2622-4.386 2.5373-4.386 1.8696-4.2445 1.965-4.386 2.4037-4.2445 3.0714-4.386 4.4069-4.103 3.4148-4.386 3.3195-4.386 3.7201-4.2445 2.8425-4.386 2.6899-4.2445 2.3656-4.386 1.488-4.386 1.2019-4.2445 1.5453-4.386 2.6327-4.2445 2.8425-4.386 3.0905-3.9616 2.4991-4.386 2.957-4.386 2.0794-4.2445 2.8425-4.386 3.1096-4.2445 2.1748-4.386 2.4991-4.386 1.4308-4.2445 1.8123-4.386 2.4419-4.2445 4.5213-4.386 1.736-8.3476 3.6247-4.386 1.6597-4.2445 1.9077-4.386 2.5754-4.2445 2.2893-4.386 1.3163-13.017 3.3385-12.592 4.3115-4.386 2.3656-4.386 1.7742-4.2445 1.9077-4.386 2.6136-4.2445 1.3163-4.386 1.1828-4.386 0.32432-8.6305 2.1557-4.2445 1.5262-4.386 2.1367-4.103 1.8696-4.386 2.232-4.386 1.1256-4.2445 1.4308-4.386 2.1748-4.2445 1.736-4.386 0.85848-8.6305 1.5453-4.386 0.97294-12.592 4.941-4.386 2.1748-4.386 1.8505-4.2445 2.3656-4.386 1.984-4.2445 2.2893-4.386 0.49601-4.386 0.78217-4.2445 1.1637-13.017 4.2352-3.9616 1.5834-4.386 1.1065-51.642 14.918-51.783 15.395-51.642 12.438-51.642 12.248-51.642 12.095-51.783 10.321-51.642 8.4894-51.642 9.4051v0" clip-path="url(#i)" fill="none" stroke="#1f77b4" stroke-linecap="square"/><defs><path id="f" d="m0 0.5c0.1326 0 0.25979-0.052683 0.35355-0.14645 0.093764-0.093763 0.14645-0.22095 0.14645-0.35355s-0.052683-0.25979-0.14645-0.35355c-0.093763-0.093764-0.22095-0.14645-0.35355-0.14645s-0.25979 0.052683-0.35355 0.14645c-0.093764 0.093763-0.14645 0.22095-0.14645 0.35355s0.052683 0.25979 0.14645 0.35355c0.093763 0.093764 0.22095 0.14645 0.35355 0.14645z" stroke="#1f77b4"/></defs><g clip-path="url(#i)" fill="#1f77b4" stroke="#1f77b4"><use x="1133.971726" y="24.133021" xlink:href="#f"/><use x="1131.849462" y="25.373047" xlink:href="#f"/><use x="1127.463451" y="34.244001" xlink:href="#f"/><use x="1123.218925" y="42.08478" xlink:href="#f"/><use x="1118.832914" y="46.548874" xlink:href="#f"/><use x="1114.446903" y="49.56309" xlink:href="#f"/><use x="1110.202376" y="52.157606" xlink:href="#f"/><use x="1105.816365" y="55.705988" xlink:href="#f"/><use x="1101.571838" y="60.017462" xlink:href="#f"/><use x="1097.185827" y="64.672329" xlink:href="#f"/><use x="1093.224269" y="70.185675" xlink:href="#f"/><use x="1088.838258" y="75.966103" xlink:href="#f"/><use x="1084.452247" y="78.884933" xlink:href="#f"/><use x="1080.20772" y="85.829078" xlink:href="#f"/><use x="1075.82171" y="93.440929" xlink:href="#f"/><use x="1071.577183" y="100.27061" xlink:href="#f"/><use x="1067.191172" y="105.03994" xlink:href="#f"/><use x="1062.805161" y="107.424606" xlink:href="#f"/><use x="1058.560634" y="110.705905" xlink:href="#f"/><use x="1054.174623" y="115.437081" xlink:href="#f"/><use x="1049.930096" y="121.312896" xlink:href="#f"/><use x="1045.544086" y="125.109282" xlink:href="#f"/><use x="1041.582527" y="130.164773" xlink:href="#f"/><use x="1037.196516" y="134.972258" xlink:href="#f"/><use x="1032.810505" y="140.065902" xlink:href="#f"/><use x="1028.565979" y="145.083238" xlink:href="#f"/><use x="1024.179968" y="151.55045" xlink:href="#f"/><use x="1019.935441" y="157.865043" xlink:href="#f"/><use x="1015.54943" y="162.72976" xlink:href="#f"/><use x="1011.163419" y="165.629513" xlink:href="#f"/><use x="1006.918892" y="167.937869" xlink:href="#f"/><use x="1002.532881" y="172.325653" xlink:href="#f"/><use x="998.288355" y="177.800844" xlink:href="#f"/><use x="993.902344" y="180.872292" xlink:href="#f"/><use x="989.799301" y="184.535138" xlink:href="#f"/><use x="985.41329" y="191.49836" xlink:href="#f"/><use x="981.027279" y="195.351979" xlink:href="#f"/><use x="976.782753" y="199.491758" xlink:href="#f"/><use x="972.396742" y="206.493135" xlink:href="#f"/><use x="968.152215" y="211.58678" xlink:href="#f"/><use x="963.766204" y="214.734538" xlink:href="#f"/><use x="959.380193" y="218.015837" xlink:href="#f"/><use x="955.135666" y="220.610353" xlink:href="#f"/><use x="950.749655" y="224.254121" xlink:href="#f"/><use x="946.505129" y="228.012353" xlink:href="#f"/><use x="942.119118" y="230.282555" xlink:href="#f"/><use x="938.157559" y="233.029689" xlink:href="#f"/><use x="933.771548" y="238.352261" xlink:href="#f"/><use x="929.385537" y="241.080318" xlink:href="#f"/><use x="925.141011" y="245.277329" xlink:href="#f"/><use x="920.755" y="248.310623" xlink:href="#f"/><use x="916.510473" y="252.164242" xlink:href="#f"/><use x="912.124462" y="254.81599" xlink:href="#f"/><use x="907.738451" y="256.38033" xlink:href="#f"/><use x="903.493924" y="258.879459" xlink:href="#f"/><use x="899.107913" y="261.206892" xlink:href="#f"/><use x="894.863387" y="264.106645" xlink:href="#f"/><use x="890.477376" y="267.101785" xlink:href="#f"/><use x="886.515817" y="269.944305" xlink:href="#f"/><use x="882.129807" y="273.416378" xlink:href="#f"/><use x="877.743796" y="277.155533" xlink:href="#f"/><use x="873.499269" y="281.715013" xlink:href="#f"/><use x="869.113258" y="287.037585" xlink:href="#f"/><use x="864.868731" y="291.501678" xlink:href="#f"/><use x="860.48272" y="294.229735" xlink:href="#f"/><use x="856.096709" y="295.851308" xlink:href="#f"/><use x="851.852183" y="297.720885" xlink:href="#f"/><use x="847.466172" y="299.571385" xlink:href="#f"/><use x="843.221645" y="301.994205" xlink:href="#f"/><use x="838.835634" y="306.553685" xlink:href="#f"/><use x="834.874076" y="308.919273" xlink:href="#f"/><use x="830.488065" y="312.543964" xlink:href="#f"/><use x="826.102054" y="314.699701" xlink:href="#f"/><use x="821.857527" y="318.248083" xlink:href="#f"/><use x="817.471516" y="322.349707" xlink:href="#f"/><use x="813.226989" y="325.611929" xlink:href="#f"/><use x="808.840978" y="328.149213" xlink:href="#f"/><use x="804.454967" y="330.01879" xlink:href="#f"/><use x="800.210441" y="331.983754" xlink:href="#f"/><use x="795.82443" y="334.387497" xlink:href="#f"/><use x="791.579903" y="337.458945" xlink:href="#f"/><use x="787.193892" y="341.865807" xlink:href="#f"/><use x="783.09085" y="345.280647" xlink:href="#f"/><use x="778.704839" y="348.600101" xlink:href="#f"/><use x="774.318828" y="352.320179" xlink:href="#f"/><use x="770.074301" y="355.162699" xlink:href="#f"/><use x="765.68829" y="357.852602" xlink:href="#f"/><use x="761.443763" y="360.21819" xlink:href="#f"/><use x="757.057752" y="361.706221" xlink:href="#f"/><use x="752.671741" y="362.908092" xlink:href="#f"/><use x="748.427215" y="364.453355" xlink:href="#f"/><use x="744.041204" y="367.086025" xlink:href="#f"/><use x="739.796677" y="369.928546" xlink:href="#f"/><use x="735.410666" y="373.019072" xlink:href="#f"/><use x="731.449108" y="375.518201" xlink:href="#f"/><use x="727.063097" y="378.475186" xlink:href="#f"/><use x="722.677086" y="380.554614" xlink:href="#f"/><use x="718.432559" y="383.397135" xlink:href="#f"/><use x="714.046548" y="386.506738" xlink:href="#f"/><use x="709.802021" y="388.681553" xlink:href="#f"/><use x="705.41601" y="391.180682" xlink:href="#f"/><use x="701.029999" y="392.611481" xlink:href="#f"/><use x="696.785473" y="394.423827" xlink:href="#f"/><use x="692.399462" y="396.865724" xlink:href="#f"/><use x="688.154935" y="401.387049" xlink:href="#f"/><use x="683.768924" y="403.123085" xlink:href="#f"/><use x="679.807366" y="404.878199" xlink:href="#f"/><use x="675.421355" y="406.747776" xlink:href="#f"/><use x="671.035344" y="408.407503" xlink:href="#f"/><use x="666.790817" y="410.315235" xlink:href="#f"/><use x="662.404806" y="412.890674" xlink:href="#f"/><use x="658.16028" y="415.179952" xlink:href="#f"/><use x="653.774269" y="416.496287" xlink:href="#f"/><use x="649.388258" y="417.602772" xlink:href="#f"/><use x="645.143731" y="418.594793" xlink:href="#f"/><use x="640.75772" y="419.834819" xlink:href="#f"/><use x="636.513193" y="421.284695" xlink:href="#f"/><use x="632.127182" y="422.791803" xlink:href="#f"/><use x="628.165624" y="424.146293" xlink:href="#f"/><use x="623.779613" y="426.511881" xlink:href="#f"/><use x="619.393602" y="428.286072" xlink:href="#f"/><use x="615.149075" y="430.193804" xlink:href="#f"/><use x="610.763064" y="432.807397" xlink:href="#f"/><use x="606.518538" y="434.123732" xlink:href="#f"/><use x="602.132527" y="435.306526" xlink:href="#f"/><use x="597.746516" y="435.630841" xlink:href="#f"/><use x="593.501989" y="436.661016" xlink:href="#f"/><use x="589.115978" y="437.786578" xlink:href="#f"/><use x="584.871451" y="439.312764" xlink:href="#f"/><use x="580.48544" y="441.449423" xlink:href="#f"/><use x="576.382398" y="443.319001" xlink:href="#f"/><use x="571.996387" y="445.551048" xlink:href="#f"/><use x="567.610376" y="446.67661" xlink:href="#f"/><use x="563.365849" y="448.107409" xlink:href="#f"/><use x="558.979838" y="450.282223" xlink:href="#f"/><use x="554.735312" y="452.018259" xlink:href="#f"/><use x="550.349301" y="452.876739" xlink:href="#f"/><use x="545.96329" y="453.620754" xlink:href="#f"/><use x="541.718763" y="454.422002" xlink:href="#f"/><use x="537.332752" y="455.394945" xlink:href="#f"/><use x="533.088225" y="457.092827" xlink:href="#f"/><use x="528.702214" y="458.962404" xlink:href="#f"/><use x="524.740656" y="460.335972" xlink:href="#f"/><use x="520.354645" y="462.510786" xlink:href="#f"/><use x="515.968634" y="464.361286" xlink:href="#f"/><use x="511.724107" y="466.726874" xlink:href="#f"/><use x="507.338096" y="468.710916" xlink:href="#f"/><use x="503.09357" y="471.000194" xlink:href="#f"/><use x="498.707559" y="471.496204" xlink:href="#f"/><use x="494.321548" y="472.278375" xlink:href="#f"/><use x="490.077021" y="473.442091" xlink:href="#f"/><use x="485.69101" y="474.853813" xlink:href="#f"/><use x="481.446483" y="476.265535" xlink:href="#f"/><use x="477.060472" y="477.677257" xlink:href="#f"/><use x="473.098914" y="479.260674" xlink:href="#f"/><use x="468.712903" y="480.367159" xlink:href="#f"/><use x="417.071161" y="495.285624" xlink:href="#f"/><use x="365.287935" y="510.681022" xlink:href="#f"/><use x="313.646193" y="523.119436" xlink:href="#f"/><use x="262.004452" y="535.367076" xlink:href="#f"/><use x="210.36271" y="547.462098" xlink:href="#f"/><use x="158.579484" y="557.782929" xlink:href="#f"/><use x="106.937742" y="566.272336" xlink:href="#f"/><use x="55.296" y="575.677456" xlink:href="#f"/></g><path d="m1134 26.384-2.1223 1.24-4.386 8.871-4.2445 7.8408-4.386 4.4641-4.386 3.0142-4.2445 2.5945-4.386 3.5484-4.2445 4.3115-4.386 4.6549-3.9616 5.5133-4.386 5.7804-4.386 2.9188-4.2445 6.9441-4.386 7.6119-4.2445 6.8297-4.386 4.7503-4.386 2.3847-4.2445 3.2622-4.386 4.7312-4.2445 5.8567-4.386 3.7964-3.9616 5.0555-4.386 4.8075-8.6305 10.111-8.6305 12.782-4.386 4.8647-4.386 2.8998-4.2445 2.2893-4.386 4.3878-4.2445 5.4561-4.386 3.0714-4.103 3.6628-4.386 6.9632-4.386 3.8345-4.2445 4.1398-4.386 7.0014-4.2445 5.0936-8.772 6.4291-4.2445 2.5754-4.386 3.6438-4.2445 3.7582-4.386 2.2702-3.9616 2.7471-4.386 5.3226-4.386 2.7281-4.2445 4.197-4.386 3.0333-4.2445 3.8536-4.386 2.6517-4.386 1.5643-4.2445 2.4991-4.386 2.3274-8.6305 5.8949-3.9616 2.8425-4.386 3.4721-4.386 3.7201-4.2445 4.5595-4.386 5.3226-4.2445 4.4641-4.386 2.7281-4.386 1.6216-8.6305 3.7201-4.2445 2.4228-4.386 4.5595-3.9616 2.3656-4.386 3.6247-4.386 2.1557-4.2445 3.5484-4.386 4.1016-4.2445 3.2622-4.386 2.5373-4.386 1.8696-4.2445 1.965-4.386 2.3847-4.2445 3.0714-4.386 4.4069-4.103 3.4148-4.386 3.3195-4.386 3.6819-4.2445 2.8425-4.386 2.6899-4.2445 2.3656-4.386 1.488-4.386 1.2019-4.2445 1.5453-4.386 2.6327-4.2445 2.8234-4.386 3.0905-3.9616 2.4801-4.386 2.9379-4.386 2.0794-4.2445 2.8425-4.386 3.0905-4.2445 2.1748-4.386 2.4991-4.386 1.4308-4.2445 1.8123-4.386 2.4419-4.2445 4.5213-4.386 1.736-8.3476 3.6247-4.386 1.6597-4.2445 1.9077-4.386 2.5564-4.2445 2.2893-4.386 1.3163-13.017 3.3385-12.592 4.2924-4.386 2.3656-4.386 1.7742-4.2445 1.8887-4.386 2.6136-4.2445 1.3163-4.386 1.1828-4.386 0.30524-8.6305 2.1557-4.2445 1.5262-4.386 2.1367-4.103 1.8696-4.386 2.232-4.386 1.1256-4.2445 1.4308-4.386 2.1748-4.2445 1.717-4.386 0.85848-8.6305 1.5262-4.386 0.97294-12.592 4.941-4.386 2.1748-4.386 1.8505-4.2445 2.3656-4.386 1.984-4.2445 2.2893-4.386 0.49601-4.386 0.78217-4.2445 1.1446-13.017 4.2161-3.9616 1.5834-4.386 1.1065-51.642 14.88-51.783 15.319-51.642 12.4-51.642 12.171-51.642 12.038-51.783 10.245-51.642 8.4131-51.642 9.3288v0" clip-path="url(#i)" fill="none" stroke="#ff7f0e" stroke-linecap="square"/><defs><path id="a" d="m0 0.5c0.1326 0 0.25979-0.052683 0.35355-0.14645 0.093764-0.093763 0.14645-0.22095 0.14645-0.35355s-0.052683-0.25979-0.14645-0.35355c-0.093763-0.093764-0.22095-0.14645-0.35355-0.14645s-0.25979 0.052683-0.35355 0.14645c-0.093764 0.093763-0.14645 0.22095-0.14645 0.35355s0.052683 0.25979 0.14645 0.35355c0.093763 0.093764 0.22095 0.14645 0.35355 0.14645z" stroke="#ff7f0e"/></defs><g clip-path="url(#i)" fill="#ff7f0e" stroke="#ff7f0e"><use x="1133.971726" y="26.384145" xlink:href="#a"/><use x="1131.849462" y="27.624171" xlink:href="#a"/><use x="1127.463451" y="36.495125" xlink:href="#a"/><use x="1123.218925" y="44.335904" xlink:href="#a"/><use x="1118.832914" y="48.799997" xlink:href="#a"/><use x="1114.446903" y="51.814214" xlink:href="#a"/><use x="1110.202376" y="54.40873" xlink:href="#a"/><use x="1105.816365" y="57.957112" xlink:href="#a"/><use x="1101.571838" y="62.268586" xlink:href="#a"/><use x="1097.185827" y="66.923453" xlink:href="#a"/><use x="1093.224269" y="72.436798" xlink:href="#a"/><use x="1088.838258" y="78.217227" xlink:href="#a"/><use x="1084.452247" y="81.136057" xlink:href="#a"/><use x="1080.20772" y="88.080202" xlink:href="#a"/><use x="1075.82171" y="95.692053" xlink:href="#a"/><use x="1071.577183" y="102.521734" xlink:href="#a"/><use x="1067.191172" y="107.271987" xlink:href="#a"/><use x="1062.805161" y="109.656652" xlink:href="#a"/><use x="1058.560634" y="112.918874" xlink:href="#a"/><use x="1054.174623" y="117.65005" xlink:href="#a"/><use x="1049.930096" y="123.506787" xlink:href="#a"/><use x="1045.544086" y="127.303174" xlink:href="#a"/><use x="1041.582527" y="132.358665" xlink:href="#a"/><use x="1037.196516" y="137.166149" xlink:href="#a"/><use x="1032.810505" y="142.259794" xlink:href="#a"/><use x="1028.565979" y="147.27713" xlink:href="#a"/><use x="1024.179968" y="153.744342" xlink:href="#a"/><use x="1019.935441" y="160.058935" xlink:href="#a"/><use x="1015.54943" y="164.923652" xlink:href="#a"/><use x="1011.163419" y="167.823405" xlink:href="#a"/><use x="1006.918892" y="170.112683" xlink:href="#a"/><use x="1002.532881" y="174.500467" xlink:href="#a"/><use x="998.288355" y="179.956581" xlink:href="#a"/><use x="993.902344" y="183.02803" xlink:href="#a"/><use x="989.799301" y="186.690875" xlink:href="#a"/><use x="985.41329" y="193.654098" xlink:href="#a"/><use x="981.027279" y="197.488639" xlink:href="#a"/><use x="976.782753" y="201.628418" xlink:href="#a"/><use x="972.396742" y="208.629795" xlink:href="#a"/><use x="968.152215" y="213.72344" xlink:href="#a"/><use x="963.766204" y="216.871198" xlink:href="#a"/><use x="959.380193" y="220.152497" xlink:href="#a"/><use x="955.135666" y="222.727935" xlink:href="#a"/><use x="950.749655" y="226.371704" xlink:href="#a"/><use x="946.505129" y="230.129936" xlink:href="#a"/><use x="942.119118" y="232.400137" xlink:href="#a"/><use x="938.157559" y="235.147271" xlink:href="#a"/><use x="933.771548" y="240.469844" xlink:href="#a"/><use x="929.385537" y="243.197901" xlink:href="#a"/><use x="925.141011" y="247.394912" xlink:href="#a"/><use x="920.755" y="250.428206" xlink:href="#a"/><use x="916.510473" y="254.281825" xlink:href="#a"/><use x="912.124462" y="256.933572" xlink:href="#a"/><use x="907.738451" y="258.497913" xlink:href="#a"/><use x="903.493924" y="260.997042" xlink:href="#a"/><use x="899.107913" y="263.324475" xlink:href="#a"/><use x="894.863387" y="266.224228" xlink:href="#a"/><use x="890.477376" y="269.219367" xlink:href="#a"/><use x="886.515817" y="272.061888" xlink:href="#a"/><use x="882.129807" y="275.533961" xlink:href="#a"/><use x="877.743796" y="279.254038" xlink:href="#a"/><use x="873.499269" y="283.813518" xlink:href="#a"/><use x="869.113258" y="289.136091" xlink:href="#a"/><use x="864.868731" y="293.600184" xlink:href="#a"/><use x="860.48272" y="296.328241" xlink:href="#a"/><use x="856.096709" y="297.949813" xlink:href="#a"/><use x="851.852183" y="299.81939" xlink:href="#a"/><use x="847.466172" y="301.669891" xlink:href="#a"/><use x="843.221645" y="304.09271" xlink:href="#a"/><use x="838.835634" y="308.65219" xlink:href="#a"/><use x="834.874076" y="311.017778" xlink:href="#a"/><use x="830.488065" y="314.642469" xlink:href="#a"/><use x="826.102054" y="316.798206" xlink:href="#a"/><use x="821.857527" y="320.346588" xlink:href="#a"/><use x="817.471516" y="324.448212" xlink:href="#a"/><use x="813.226989" y="327.710434" xlink:href="#a"/><use x="808.840978" y="330.247718" xlink:href="#a"/><use x="804.454967" y="332.117295" xlink:href="#a"/><use x="800.210441" y="334.082259" xlink:href="#a"/><use x="795.82443" y="336.466925" xlink:href="#a"/><use x="791.579903" y="339.538373" xlink:href="#a"/><use x="787.193892" y="343.945235" xlink:href="#a"/><use x="783.09085" y="347.360075" xlink:href="#a"/><use x="778.704839" y="350.679529" xlink:href="#a"/><use x="774.318828" y="354.361452" xlink:href="#a"/><use x="770.074301" y="357.203973" xlink:href="#a"/><use x="765.68829" y="359.893875" xlink:href="#a"/><use x="761.443763" y="362.259463" xlink:href="#a"/><use x="757.057752" y="363.747494" xlink:href="#a"/><use x="752.671741" y="364.949365" xlink:href="#a"/><use x="748.427215" y="366.494628" xlink:href="#a"/><use x="744.041204" y="369.127299" xlink:href="#a"/><use x="739.796677" y="371.950742" xlink:href="#a"/><use x="735.410666" y="375.041268" xlink:href="#a"/><use x="731.449108" y="377.52132" xlink:href="#a"/><use x="727.063097" y="380.459227" xlink:href="#a"/><use x="722.677086" y="382.538655" xlink:href="#a"/><use x="718.432559" y="385.381176" xlink:href="#a"/><use x="714.046548" y="388.471702" xlink:href="#a"/><use x="709.802021" y="390.646517" xlink:href="#a"/><use x="705.41601" y="393.145646" xlink:href="#a"/><use x="701.029999" y="394.576445" xlink:href="#a"/><use x="696.785473" y="396.388791" xlink:href="#a"/><use x="692.399462" y="398.830688" xlink:href="#a"/><use x="688.154935" y="403.352013" xlink:href="#a"/><use x="683.768924" y="405.088049" xlink:href="#a"/><use x="679.807366" y="406.843163" xlink:href="#a"/><use x="675.421355" y="408.71274" xlink:href="#a"/><use x="671.035344" y="410.372467" xlink:href="#a"/><use x="666.790817" y="412.280199" xlink:href="#a"/><use x="662.404806" y="414.83656" xlink:href="#a"/><use x="658.16028" y="417.125839" xlink:href="#a"/><use x="653.774269" y="418.442174" xlink:href="#a"/><use x="649.388258" y="419.548659" xlink:href="#a"/><use x="645.143731" y="420.540679" xlink:href="#a"/><use x="640.75772" y="421.780705" xlink:href="#a"/><use x="636.513193" y="423.230582" xlink:href="#a"/><use x="632.127182" y="424.73769" xlink:href="#a"/><use x="628.165624" y="426.073103" xlink:href="#a"/><use x="623.779613" y="428.43869" xlink:href="#a"/><use x="619.393602" y="430.212881" xlink:href="#a"/><use x="615.149075" y="432.101536" xlink:href="#a"/><use x="610.763064" y="434.715129" xlink:href="#a"/><use x="606.518538" y="436.031464" xlink:href="#a"/><use x="602.132527" y="437.214258" xlink:href="#a"/><use x="597.746516" y="437.519495" xlink:href="#a"/><use x="593.501989" y="438.549671" xlink:href="#a"/><use x="589.115978" y="439.675233" xlink:href="#a"/><use x="584.871451" y="441.201418" xlink:href="#a"/><use x="580.48544" y="443.338078" xlink:href="#a"/><use x="576.382398" y="445.207656" xlink:href="#a"/><use x="571.996387" y="447.439702" xlink:href="#a"/><use x="567.610376" y="448.565264" xlink:href="#a"/><use x="563.365849" y="449.996063" xlink:href="#a"/><use x="558.979838" y="452.170878" xlink:href="#a"/><use x="554.735312" y="453.887837" xlink:href="#a"/><use x="550.349301" y="454.746316" xlink:href="#a"/><use x="545.96329" y="455.471255" xlink:href="#a"/><use x="541.718763" y="456.272502" xlink:href="#a"/><use x="537.332752" y="457.245445" xlink:href="#a"/><use x="533.088225" y="458.943327" xlink:href="#a"/><use x="528.702214" y="460.812905" xlink:href="#a"/><use x="524.740656" y="462.186472" xlink:href="#a"/><use x="520.354645" y="464.361286" xlink:href="#a"/><use x="515.968634" y="466.211786" xlink:href="#a"/><use x="511.724107" y="468.577374" xlink:href="#a"/><use x="507.338096" y="470.561416" xlink:href="#a"/><use x="503.09357" y="472.850694" xlink:href="#a"/><use x="498.707559" y="473.346705" xlink:href="#a"/><use x="494.321548" y="474.128875" xlink:href="#a"/><use x="490.077021" y="475.273514" xlink:href="#a"/><use x="485.69101" y="476.666159" xlink:href="#a"/><use x="481.446483" y="478.07788" xlink:href="#a"/><use x="477.060472" y="479.489602" xlink:href="#a"/><use x="473.098914" y="481.07302" xlink:href="#a"/><use x="468.712903" y="482.179504" xlink:href="#a"/><use x="417.071161" y="497.059815" xlink:href="#a"/><use x="365.287935" y="512.378904" xlink:href="#a"/><use x="313.646193" y="524.779163" xlink:href="#a"/><use x="262.004452" y="536.950494" xlink:href="#a"/><use x="210.36271" y="548.988283" xlink:href="#a"/><use x="158.579484" y="559.232805" xlink:href="#a"/><use x="106.937742" y="567.645904" xlink:href="#a"/><use x="55.296" y="576.974714" xlink:href="#a"/></g><path d="m1134 412.76-2.1223 0.095387-4.386 0.99202-4.2445 1.1446-4.386 0.82032-8.6305 1.1256-4.386 0.51509-4.2445 0.70586-4.386 0.36247-3.9616 0.62955-4.386 0.91571-4.386 0.32432-4.2445 0.97294-4.386 0.70586-4.2445 0.91571-4.386 1.1828-4.386 0.5914-4.2445 0.85848-4.386 0.62955-4.2445 0.80125-4.386 0.34339-8.3476 1.3545-8.6305 1.9268-4.386 0.95387-4.2445 0.74402-4.386 1.24-4.386 0.85848-8.6305 1.4308-4.2445 0.8394-8.4891 0.93479-4.386 1.469-4.386 0.87756-4.2445 0.68678-4.386 1.2209-4.2445 0.76309-8.772 2.0222-4.2445 0.64863-8.6305 1.5453-4.386 0.30524-3.9616 0.49601-4.386 1.4308-4.386 0.76309-4.2445 0.89663-8.6305 1.2973-4.386 0.62955-4.386 0.47693-4.2445 0.91571-8.6305 1.2973-12.734 2.1176-4.386 0.97294-8.6305 2.0604-4.2445 0.93479-13.017 2.2511-8.6305 1.2209-4.386 0.93479-3.9616 0.5914-4.386 1.0302-4.386 0.85848-8.6305 1.8696-17.261 3.1668-4.386 0.70586-4.2445 0.82032-4.386 1.0874-4.103 0.85848-4.386 1.2591-4.386 1.0874-4.2445 0.72494-4.386 1.0493-13.017 1.8696-12.875 2.0413-4.386 1.0302-3.9616 0.70586-4.386 1.2973-8.6305 1.9077-4.386 0.78217-4.2445 0.61047-4.386 1.1065-4.386 0.61047-8.6305 1.5834-4.2445 0.97294-4.386 0.5914-8.3476 1.2591-8.6305 1.24-8.6305 1.488-13.017 1.6216-16.978 2.1176-4.386 0.99202-8.6305 1.3163-4.386 1.0493-8.6305 1.1065-4.386 0.28616-4.2445 0.66771-8.6305 1.0683-8.4891 1.2782-4.386 0.72494-4.386 0.47693-8.6305 1.3354-4.2445 0.72494-4.386 0.45786-4.386 0.34339-8.6305 1.0874-4.2445 0.80125-4.386 0.64863-3.9616 0.4197-4.386 0.91571-17.261 2.8044-4.386 0.28616-4.386 0.61047-21.223 3.6247-4.386 0.51509-51.642 6.5435-51.783 7.3638-51.642 6.4672-51.642 6.9823-51.642 7.2112-51.783 6.5054-51.642 6.1429-51.642 7.3448v0" clip-path="url(#i)" fill="none" stroke="#2ca02c" stroke-linecap="square" stroke-width="2"/><defs><path id="e" d="m0 1.25c0.3315 0 0.64948-0.13171 0.88388-0.36612 0.23441-0.23441 0.36612-0.55238 0.36612-0.88388s-0.13171-0.64948-0.36612-0.88388c-0.23441-0.23441-0.55238-0.36612-0.88388-0.36612s-0.64948 0.13171-0.88388 0.36612c-0.23441 0.23441-0.36612 0.55238-0.36612 0.88388s0.13171 0.64948 0.36612 0.88388c0.23441 0.23441 0.55238 0.36612 0.88388 0.36612z" stroke="#2ca02c"/></defs><g clip-path="url(#i)" fill="#2ca02c" stroke="#2ca02c"><use x="1133.971726" y="412.757132" xlink:href="#e"/><use x="1131.849462" y="412.852519" xlink:href="#e"/><use x="1127.463451" y="413.84454" xlink:href="#e"/><use x="1123.218925" y="414.989179" xlink:href="#e"/><use x="1118.832914" y="415.809504" xlink:href="#e"/><use x="1114.446903" y="416.419978" xlink:href="#e"/><use x="1110.202376" y="416.935066" xlink:href="#e"/><use x="1105.816365" y="417.450153" xlink:href="#e"/><use x="1101.571838" y="418.156014" xlink:href="#e"/><use x="1097.185827" y="418.518483" xlink:href="#e"/><use x="1093.224269" y="419.148035" xlink:href="#e"/><use x="1088.838258" y="420.063746" xlink:href="#e"/><use x="1084.452247" y="420.388061" xlink:href="#e"/><use x="1080.20772" y="421.361004" xlink:href="#e"/><use x="1075.82171" y="422.066865" xlink:href="#e"/><use x="1071.577183" y="422.982577" xlink:href="#e"/><use x="1067.191172" y="424.16537" xlink:href="#e"/><use x="1062.805161" y="424.756767" xlink:href="#e"/><use x="1058.560634" y="425.615247" xlink:href="#e"/><use x="1054.174623" y="426.244798" xlink:href="#e"/><use x="1049.930096" y="427.046046" xlink:href="#e"/><use x="1045.544086" y="427.389438" xlink:href="#e"/><use x="1041.582527" y="428.038067" xlink:href="#e"/><use x="1037.196516" y="428.743928" xlink:href="#e"/><use x="1032.810505" y="429.755026" xlink:href="#e"/><use x="1028.565979" y="430.670737" xlink:href="#e"/><use x="1024.179968" y="431.624603" xlink:href="#e"/><use x="1019.935441" y="432.368619" xlink:href="#e"/><use x="1015.54943" y="433.608644" xlink:href="#e"/><use x="1011.163419" y="434.467124" xlink:href="#e"/><use x="1006.918892" y="435.153907" xlink:href="#e"/><use x="1002.532881" y="435.897923" xlink:href="#e"/><use x="998.288355" y="436.737325" xlink:href="#e"/><use x="993.902344" y="437.27149" xlink:href="#e"/><use x="989.799301" y="437.672114" xlink:href="#e"/><use x="985.41329" y="439.141068" xlink:href="#e"/><use x="981.027279" y="440.018624" xlink:href="#e"/><use x="976.782753" y="440.705408" xlink:href="#e"/><use x="972.396742" y="441.926357" xlink:href="#e"/><use x="968.152215" y="442.689449" xlink:href="#e"/><use x="963.766204" y="443.68147" xlink:href="#e"/><use x="959.380193" y="444.711645" xlink:href="#e"/><use x="955.135666" y="445.360274" xlink:href="#e"/><use x="950.749655" y="446.161522" xlink:href="#e"/><use x="946.505129" y="446.905537" xlink:href="#e"/><use x="942.119118" y="447.210775" xlink:href="#e"/><use x="938.157559" y="447.706785" xlink:href="#e"/><use x="933.771548" y="449.137584" xlink:href="#e"/><use x="929.385537" y="449.900677" xlink:href="#e"/><use x="925.141011" y="450.797311" xlink:href="#e"/><use x="920.755" y="451.503172" xlink:href="#e"/><use x="916.510473" y="452.094569" xlink:href="#e"/><use x="912.124462" y="452.72412" xlink:href="#e"/><use x="907.738451" y="453.201053" xlink:href="#e"/><use x="903.493924" y="454.116765" xlink:href="#e"/><use x="899.107913" y="454.746316" xlink:href="#e"/><use x="894.863387" y="455.414023" xlink:href="#e"/><use x="890.477376" y="456.119884" xlink:href="#e"/><use x="886.515817" y="456.749435" xlink:href="#e"/><use x="882.129807" y="457.531605" xlink:href="#e"/><use x="877.743796" y="458.504549" xlink:href="#e"/><use x="873.499269" y="459.572879" xlink:href="#e"/><use x="869.113258" y="460.564899" xlink:href="#e"/><use x="864.868731" y="461.499688" xlink:href="#e"/><use x="860.48272" y="462.243704" xlink:href="#e"/><use x="856.096709" y="462.91141" xlink:href="#e"/><use x="851.852183" y="463.750812" xlink:href="#e"/><use x="847.466172" y="464.323132" xlink:href="#e"/><use x="843.221645" y="464.971761" xlink:href="#e"/><use x="838.835634" y="465.906549" xlink:href="#e"/><use x="834.874076" y="466.497946" xlink:href="#e"/><use x="830.488065" y="467.528122" xlink:href="#e"/><use x="826.102054" y="468.386601" xlink:href="#e"/><use x="821.857527" y="469.340467" xlink:href="#e"/><use x="817.471516" y="470.256179" xlink:href="#e"/><use x="813.226989" y="471.038349" xlink:href="#e"/><use x="808.840978" y="471.896828" xlink:href="#e"/><use x="804.454967" y="472.621766" xlink:href="#e"/><use x="800.210441" y="473.423014" xlink:href="#e"/><use x="795.82443" y="474.128875" xlink:href="#e"/><use x="791.579903" y="474.9492" xlink:href="#e"/><use x="787.193892" y="476.036607" xlink:href="#e"/><use x="783.09085" y="476.895086" xlink:href="#e"/><use x="778.704839" y="478.15419" xlink:href="#e"/><use x="774.318828" y="479.241597" xlink:href="#e"/><use x="770.074301" y="479.966535" xlink:href="#e"/><use x="765.68829" y="481.015788" xlink:href="#e"/><use x="761.443763" y="481.607185" xlink:href="#e"/><use x="757.057752" y="482.198582" xlink:href="#e"/><use x="752.671741" y="482.885365" xlink:href="#e"/><use x="748.427215" y="483.553071" xlink:href="#e"/><use x="744.041204" y="484.2017" xlink:href="#e"/><use x="739.796677" y="484.926639" xlink:href="#e"/><use x="735.410666" y="485.956814" xlink:href="#e"/><use x="731.449108" y="486.662675" xlink:href="#e"/><use x="727.063097" y="487.959933" xlink:href="#e"/><use x="722.677086" y="488.971031" xlink:href="#e"/><use x="718.432559" y="489.867665" xlink:href="#e"/><use x="714.046548" y="490.649835" xlink:href="#e"/><use x="709.802021" y="491.260309" xlink:href="#e"/><use x="705.41601" y="492.366794" xlink:href="#e"/><use x="701.029999" y="492.977268" xlink:href="#e"/><use x="696.785473" y="493.702206" xlink:href="#e"/><use x="692.399462" y="494.560686" xlink:href="#e"/><use x="688.154935" y="495.533629" xlink:href="#e"/><use x="683.768924" y="496.125026" xlink:href="#e"/><use x="679.807366" y="496.773655" xlink:href="#e"/><use x="675.421355" y="497.384129" xlink:href="#e"/><use x="671.035344" y="497.994604" xlink:href="#e"/><use x="666.790817" y="498.624155" xlink:href="#e"/><use x="662.404806" y="499.387248" xlink:href="#e"/><use x="658.16028" y="500.112186" xlink:href="#e"/><use x="653.774269" y="500.627274" xlink:href="#e"/><use x="649.388258" y="501.161439" xlink:href="#e"/><use x="645.143731" y="501.733759" xlink:href="#e"/><use x="640.75772" y="502.306078" xlink:href="#e"/><use x="636.513193" y="502.93563" xlink:href="#e"/><use x="632.127182" y="503.412563" xlink:href="#e"/><use x="628.165624" y="503.851341" xlink:href="#e"/><use x="623.779613" y="504.843362" xlink:href="#e"/><use x="619.393602" y="505.530146" xlink:href="#e"/><use x="615.149075" y="506.159697" xlink:href="#e"/><use x="610.763064" y="507.20895" xlink:href="#e"/><use x="606.518538" y="507.743115" xlink:href="#e"/><use x="602.132527" y="508.315434" xlink:href="#e"/><use x="597.746516" y="508.601594" xlink:href="#e"/><use x="593.501989" y="509.269301" xlink:href="#e"/><use x="589.115978" y="509.765311" xlink:href="#e"/><use x="584.871451" y="510.337631" xlink:href="#e"/><use x="580.48544" y="510.948105" xlink:href="#e"/><use x="576.382398" y="511.615811" xlink:href="#e"/><use x="571.996387" y="512.340749" xlink:href="#e"/><use x="567.610376" y="512.817682" xlink:href="#e"/><use x="563.365849" y="513.447234" xlink:href="#e"/><use x="558.979838" y="514.153095" xlink:href="#e"/><use x="554.735312" y="514.878033" xlink:href="#e"/><use x="550.349301" y="515.335889" xlink:href="#e"/><use x="545.96329" y="515.67928" xlink:href="#e"/><use x="541.718763" y="516.213445" xlink:href="#e"/><use x="537.332752" y="516.766688" xlink:href="#e"/><use x="533.088225" y="517.567935" xlink:href="#e"/><use x="528.702214" y="518.216564" xlink:href="#e"/><use x="524.740656" y="518.636265" xlink:href="#e"/><use x="520.354645" y="519.551977" xlink:href="#e"/><use x="515.968634" y="520.276915" xlink:href="#e"/><use x="511.724107" y="520.963698" xlink:href="#e"/><use x="507.338096" y="521.688637" xlink:href="#e"/><use x="503.09357" y="522.356343" xlink:href="#e"/><use x="498.707559" y="522.642503" xlink:href="#e"/><use x="494.321548" y="523.252977" xlink:href="#e"/><use x="490.077021" y="523.958838" xlink:href="#e"/><use x="485.69101" y="524.760085" xlink:href="#e"/><use x="481.446483" y="525.427792" xlink:href="#e"/><use x="477.060472" y="526.076421" xlink:href="#e"/><use x="473.098914" y="526.877668" xlink:href="#e"/><use x="468.712903" y="527.392756" xlink:href="#e"/><use x="417.071161" y="533.936277" xlink:href="#e"/><use x="365.287935" y="541.300123" xlink:href="#e"/><use x="313.646193" y="547.767335" xlink:href="#e"/><use x="262.004452" y="554.749634" xlink:href="#e"/><use x="210.36271" y="561.960862" xlink:href="#e"/><use x="158.579484" y="568.466228" xlink:href="#e"/><use x="106.937742" y="574.609126" xlink:href="#e"/><use x="55.296" y="581.953895" xlink:href="#e"/></g><path d="m1134 565.17-2.1223 0.019077-8.6305 0.4197-8.772 0.19077-21.223 0.55324-4.386 0.26708-8.6305 0.26708-13.017 0.57232-34.381 1.1256-21.647 0.97294-12.875 0.36247-25.892 1.2209-8.6305 0.22893-8.6305 0.36247-13.017 0.28616-21.364 0.76309-13.017 0.28616-4.2445 0.22893-16.978 0.43878-34.664 1.6216-8.6305 0.24801-8.3476 0.248-8.772 0.57232-17.261 0.53416-13.017 0.40062-8.6305 0.32432-8.4891 0.61047-17.261 0.62955-13.017 0.30524-13.017 0.55324-12.734 0.66771-17.261 0.53416-25.609 0.82032-13.017 0.30524-51.642 1.6597-4.386 0.22893-13.017 0.26708-8.6305 0.30524-21.506 0.5914-12.875 0.49601-13.017 0.248-16.978 0.61047-4.386 0.30524-21.647 0.64863-8.6305 0.20985-4.386 0.248-8.6305 0.20985-8.3476 0.34339-51.642 1.5071-51.783 1.8505-103.28 3.1287-103.42 3.6056-51.642 1.6025-51.642 1.8123v0" clip-path="url(#i)" fill="none" stroke="#000" stroke-linecap="square" stroke-width="2"/><defs><path id="c" d="m0 1.25c0.3315 0 0.64948-0.13171 0.88388-0.36612 0.23441-0.23441 0.36612-0.55238 0.36612-0.88388s-0.13171-0.64948-0.36612-0.88388c-0.23441-0.23441-0.55238-0.36612-0.88388-0.36612s-0.64948 0.13171-0.88388 0.36612c-0.23441 0.23441-0.36612 0.55238-0.36612 0.88388s0.13171 0.64948 0.36612 0.88388c0.23441 0.23441 0.55238 0.36612 0.88388 0.36612z" stroke="#000"/></defs><g clip-path="url(#i)" stroke="#000000"><use x="1133.971726" y="565.165852" xlink:href="#c"/><use x="1131.849462" y="565.184929" xlink:href="#c"/><use x="1127.463451" y="565.432934" xlink:href="#c"/><use x="1123.218925" y="565.60463" xlink:href="#c"/><use x="1118.832914" y="565.661862" xlink:href="#c"/><use x="1114.446903" y="565.795403" xlink:href="#c"/><use x="1110.202376" y="565.89079" xlink:href="#c"/><use x="1105.816365" y="565.986177" xlink:href="#c"/><use x="1101.571838" y="566.119718" xlink:href="#c"/><use x="1097.185827" y="566.215104" xlink:href="#c"/><use x="1093.224269" y="566.348646" xlink:href="#c"/><use x="1088.838258" y="566.615728" xlink:href="#c"/><use x="1084.452247" y="566.711115" xlink:href="#c"/><use x="1080.20772" y="566.882811" xlink:href="#c"/><use x="1075.82171" y="567.111739" xlink:href="#c"/><use x="1071.577183" y="567.24528" xlink:href="#c"/><use x="1067.191172" y="567.45513" xlink:href="#c"/><use x="1062.805161" y="567.588672" xlink:href="#c"/><use x="1058.560634" y="567.722213" xlink:href="#c"/><use x="1054.174623" y="567.836677" xlink:href="#c"/><use x="1049.930096" y="568.008373" xlink:href="#c"/><use x="1045.544086" y="568.084682" xlink:href="#c"/><use x="1041.582527" y="568.237301" xlink:href="#c"/><use x="1037.196516" y="568.370842" xlink:href="#c"/><use x="1032.810505" y="568.580692" xlink:href="#c"/><use x="1028.565979" y="568.790543" xlink:href="#c"/><use x="1024.179968" y="568.962239" xlink:href="#c"/><use x="1019.935441" y="569.133935" xlink:href="#c"/><use x="1015.54943" y="569.420094" xlink:href="#c"/><use x="1011.163419" y="569.553636" xlink:href="#c"/><use x="1006.918892" y="569.649022" xlink:href="#c"/><use x="1002.532881" y="569.839796" xlink:href="#c"/><use x="998.288355" y="569.916105" xlink:href="#c"/><use x="993.902344" y="570.125955" xlink:href="#c"/><use x="989.799301" y="570.297651" xlink:href="#c"/><use x="985.41329" y="570.583811" xlink:href="#c"/><use x="981.027279" y="570.73643" xlink:href="#c"/><use x="976.782753" y="570.94628" xlink:href="#c"/><use x="972.396742" y="571.137053" xlink:href="#c"/><use x="968.152215" y="571.23244" xlink:href="#c"/><use x="963.766204" y="571.365981" xlink:href="#c"/><use x="959.380193" y="571.594909" xlink:href="#c"/><use x="955.135666" y="571.72845" xlink:href="#c"/><use x="950.749655" y="571.80476" xlink:href="#c"/><use x="946.505129" y="571.900146" xlink:href="#c"/><use x="942.119118" y="572.01461" xlink:href="#c"/><use x="938.157559" y="572.167229" xlink:href="#c"/><use x="933.771548" y="572.415234" xlink:href="#c"/><use x="929.385537" y="572.548775" xlink:href="#c"/><use x="925.141011" y="572.625084" xlink:href="#c"/><use x="920.755" y="572.777703" xlink:href="#c"/><use x="916.510473" y="572.87309" xlink:href="#c"/><use x="912.124462" y="572.987554" xlink:href="#c"/><use x="907.738451" y="573.063863" xlink:href="#c"/><use x="903.493924" y="573.292791" xlink:href="#c"/><use x="899.107913" y="573.388177" xlink:href="#c"/><use x="894.863387" y="573.483564" xlink:href="#c"/><use x="890.477376" y="573.674337" xlink:href="#c"/><use x="886.515817" y="573.731569" xlink:href="#c"/><use x="882.129807" y="573.94142" xlink:href="#c"/><use x="877.743796" y="574.113115" xlink:href="#c"/><use x="873.499269" y="574.399275" xlink:href="#c"/><use x="869.113258" y="574.590049" xlink:href="#c"/><use x="864.868731" y="574.799899" xlink:href="#c"/><use x="860.48272" y="574.93344" xlink:href="#c"/><use x="856.096709" y="575.124214" xlink:href="#c"/><use x="851.852183" y="575.353141" xlink:href="#c"/><use x="847.466172" y="575.448528" xlink:href="#c"/><use x="843.221645" y="575.601147" xlink:href="#c"/><use x="838.835634" y="575.753765" xlink:href="#c"/><use x="834.874076" y="575.849152" xlink:href="#c"/><use x="830.488065" y="576.173466" xlink:href="#c"/><use x="826.102054" y="576.421471" xlink:href="#c"/><use x="821.857527" y="576.535935" xlink:href="#c"/><use x="817.471516" y="576.707631" xlink:href="#c"/><use x="813.226989" y="576.764863" xlink:href="#c"/><use x="808.840978" y="576.955636" xlink:href="#c"/><use x="804.454967" y="577.127332" xlink:href="#c"/><use x="800.210441" y="577.203642" xlink:href="#c"/><use x="795.82443" y="577.35626" xlink:href="#c"/><use x="791.579903" y="577.508879" xlink:href="#c"/><use x="787.193892" y="577.680575" xlink:href="#c"/><use x="783.09085" y="577.966734" xlink:href="#c"/><use x="778.704839" y="578.291049" xlink:href="#c"/><use x="774.318828" y="578.462745" xlink:href="#c"/><use x="770.074301" y="578.539054" xlink:href="#c"/><use x="765.68829" y="578.825214" xlink:href="#c"/><use x="761.443763" y="578.9206" xlink:href="#c"/><use x="757.057752" y="578.99691" xlink:href="#c"/><use x="752.671741" y="579.130451" xlink:href="#c"/><use x="748.427215" y="579.225838" xlink:href="#c"/><use x="744.041204" y="579.397533" xlink:href="#c"/><use x="739.796677" y="579.550152" xlink:href="#c"/><use x="735.410666" y="579.77908" xlink:href="#c"/><use x="731.449108" y="580.008008" xlink:href="#c"/><use x="727.063097" y="580.27509" xlink:href="#c"/><use x="722.677086" y="580.446786" xlink:href="#c"/><use x="718.432559" y="580.618482" xlink:href="#c"/><use x="714.046548" y="580.713869" xlink:href="#c"/><use x="709.802021" y="580.809255" xlink:href="#c"/><use x="705.41601" y="580.980951" xlink:href="#c"/><use x="701.029999" y="581.13357" xlink:href="#c"/><use x="696.785473" y="581.228956" xlink:href="#c"/><use x="692.399462" y="581.457884" xlink:href="#c"/><use x="688.154935" y="581.591425" xlink:href="#c"/><use x="683.768924" y="581.686812" xlink:href="#c"/><use x="679.807366" y="581.801276" xlink:href="#c"/><use x="675.421355" y="581.877585" xlink:href="#c"/><use x="671.035344" y="581.953895" xlink:href="#c"/><use x="666.790817" y="582.106513" xlink:href="#c"/><use x="662.404806" y="582.240054" xlink:href="#c"/><use x="658.16028" y="582.316364" xlink:href="#c"/><use x="653.774269" y="582.430828" xlink:href="#c"/><use x="649.388258" y="582.564369" xlink:href="#c"/><use x="645.143731" y="582.716987" xlink:href="#c"/><use x="640.75772" y="582.850529" xlink:href="#c"/><use x="636.513193" y="583.003147" xlink:href="#c"/><use x="632.127182" y="583.136688" xlink:href="#c"/><use x="628.165624" y="583.174843" xlink:href="#c"/><use x="623.779613" y="583.441926" xlink:href="#c"/><use x="619.393602" y="583.632699" xlink:href="#c"/><use x="615.149075" y="583.76624" xlink:href="#c"/><use x="610.763064" y="583.995168" xlink:href="#c"/><use x="606.518538" y="584.0524" xlink:href="#c"/><use x="602.132527" y="584.166864" xlink:href="#c"/><use x="597.746516" y="584.26225" xlink:href="#c"/><use x="593.501989" y="584.433946" xlink:href="#c"/><use x="589.115978" y="584.567488" xlink:href="#c"/><use x="584.871451" y="584.662874" xlink:href="#c"/><use x="580.48544" y="584.777338" xlink:href="#c"/><use x="576.382398" y="584.872725" xlink:href="#c"/><use x="571.996387" y="585.044421" xlink:href="#c"/><use x="567.610376" y="585.158885" xlink:href="#c"/><use x="563.365849" y="585.349658" xlink:href="#c"/><use x="558.979838" y="585.559508" xlink:href="#c"/><use x="554.735312" y="585.654895" xlink:href="#c"/><use x="550.349301" y="585.712127" xlink:href="#c"/><use x="545.96329" y="585.788436" xlink:href="#c"/><use x="541.718763" y="585.9029" xlink:href="#c"/><use x="537.332752" y="586.055519" xlink:href="#c"/><use x="533.088225" y="586.18906" xlink:href="#c"/><use x="528.702214" y="586.360756" xlink:href="#c"/><use x="524.740656" y="586.513374" xlink:href="#c"/><use x="520.354645" y="586.818611" xlink:href="#c"/><use x="515.968634" y="586.97123" xlink:href="#c"/><use x="511.724107" y="587.066617" xlink:href="#c"/><use x="507.338096" y="587.352776" xlink:href="#c"/><use x="503.09357" y="587.448163" xlink:href="#c"/><use x="498.707559" y="587.46724" xlink:href="#c"/><use x="494.321548" y="587.54355" xlink:href="#c"/><use x="490.077021" y="587.677091" xlink:href="#c"/><use x="485.69101" y="587.925096" xlink:href="#c"/><use x="481.446483" y="587.982328" xlink:href="#c"/><use x="477.060472" y="588.134947" xlink:href="#c"/><use x="473.098914" y="588.344797" xlink:href="#c"/><use x="468.712903" y="588.478338" xlink:href="#c"/><use x="417.071161" y="589.985447" xlink:href="#c"/><use x="365.287935" y="591.835947" xlink:href="#c"/><use x="313.646193" y="593.400287" xlink:href="#c"/><use x="262.004452" y="594.964628" xlink:href="#c"/><use x="210.36271" y="596.757896" xlink:href="#c"/><use x="158.579484" y="598.570241" xlink:href="#c"/><use x="106.937742" y="600.172736" xlink:href="#c"/><use x="55.296" y="601.985082" xlink:href="#c"/></g><path d="m1134 592.77-62.395 0.076309-17.403 0.057232-34.239 0.057232-69.186 0.076309-16.978 0.057232-38.908 0.076309-43.011 0.095387-47.397 0.095387-30.136 0.095386-68.903 0.20985-38.625 0.076309-8.6305 0.095387-29.995 0.095386-60.555 0.36247-38.908 0.26708-25.609 0.057232-13.017 0.076309-21.364 0.11446-155.07 1.2973-51.642 0.57232-155.07 2.8234-51.642 1.2209v0" clip-path="url(#i)" fill="none" stroke="#d62728" stroke-linecap="square" stroke-width="2"/><defs><path id="d" d="m0 1.25c0.3315 0 0.64948-0.13171 0.88388-0.36612 0.23441-0.23441 0.36612-0.55238 0.36612-0.88388s-0.13171-0.64948-0.36612-0.88388c-0.23441-0.23441-0.55238-0.36612-0.88388-0.36612s-0.64948 0.13171-0.88388 0.36612c-0.23441 0.23441-0.36612 0.55238-0.36612 0.88388s0.13171 0.64948 0.36612 0.88388c0.23441 0.23441 0.55238 0.36612 0.88388 0.36612z" stroke="#d62728"/></defs><g clip-path="url(#i)" fill="#d62728" stroke="#d62728"><use x="1133.971726" y="592.770736" xlink:href="#d"/><use x="1131.849462" y="592.770736" xlink:href="#d"/><use x="1127.463451" y="592.770736" xlink:href="#d"/><use x="1123.218925" y="592.789813" xlink:href="#d"/><use x="1118.832914" y="592.789813" xlink:href="#d"/><use x="1114.446903" y="592.789813" xlink:href="#d"/><use x="1110.202376" y="592.789813" xlink:href="#d"/><use x="1105.816365" y="592.80889" xlink:href="#d"/><use x="1101.571838" y="592.80889" xlink:href="#d"/><use x="1097.185827" y="592.80889" xlink:href="#d"/><use x="1093.224269" y="592.80889" xlink:href="#d"/><use x="1088.838258" y="592.827968" xlink:href="#d"/><use x="1084.452247" y="592.827968" xlink:href="#d"/><use x="1080.20772" y="592.827968" xlink:href="#d"/><use x="1075.82171" y="592.847045" xlink:href="#d"/><use x="1071.577183" y="592.847045" xlink:href="#d"/><use x="1067.191172" y="592.8852" xlink:href="#d"/><use x="1062.805161" y="592.8852" xlink:href="#d"/><use x="1058.560634" y="592.904277" xlink:href="#d"/><use x="1054.174623" y="592.904277" xlink:href="#d"/><use x="1049.930096" y="592.923354" xlink:href="#d"/><use x="1045.544086" y="592.923354" xlink:href="#d"/><use x="1041.582527" y="592.923354" xlink:href="#d"/><use x="1037.196516" y="592.923354" xlink:href="#d"/><use x="1032.810505" y="592.923354" xlink:href="#d"/><use x="1028.565979" y="592.923354" xlink:href="#d"/><use x="1024.179968" y="592.942432" xlink:href="#d"/><use x="1019.935441" y="592.961509" xlink:href="#d"/><use x="1015.54943" y="592.961509" xlink:href="#d"/><use x="1011.163419" y="592.961509" xlink:href="#d"/><use x="1006.918892" y="592.961509" xlink:href="#d"/><use x="1002.532881" y="592.961509" xlink:href="#d"/><use x="998.288355" y="592.961509" xlink:href="#d"/><use x="993.902344" y="592.961509" xlink:href="#d"/><use x="989.799301" y="592.961509" xlink:href="#d"/><use x="985.41329" y="592.980586" xlink:href="#d"/><use x="981.027279" y="592.980586" xlink:href="#d"/><use x="976.782753" y="592.980586" xlink:href="#d"/><use x="972.396742" y="592.980586" xlink:href="#d"/><use x="968.152215" y="592.999664" xlink:href="#d"/><use x="963.766204" y="593.018741" xlink:href="#d"/><use x="959.380193" y="593.018741" xlink:href="#d"/><use x="955.135666" y="593.037818" xlink:href="#d"/><use x="950.749655" y="593.037818" xlink:href="#d"/><use x="946.505129" y="593.075973" xlink:href="#d"/><use x="942.119118" y="593.075973" xlink:href="#d"/><use x="938.157559" y="593.075973" xlink:href="#d"/><use x="933.771548" y="593.09505" xlink:href="#d"/><use x="929.385537" y="593.114127" xlink:href="#d"/><use x="925.141011" y="593.114127" xlink:href="#d"/><use x="920.755" y="593.114127" xlink:href="#d"/><use x="916.510473" y="593.114127" xlink:href="#d"/><use x="912.124462" y="593.114127" xlink:href="#d"/><use x="907.738451" y="593.133205" xlink:href="#d"/><use x="903.493924" y="593.133205" xlink:href="#d"/><use x="899.107913" y="593.152282" xlink:href="#d"/><use x="894.863387" y="593.171359" xlink:href="#d"/><use x="890.477376" y="593.171359" xlink:href="#d"/><use x="886.515817" y="593.171359" xlink:href="#d"/><use x="882.129807" y="593.190437" xlink:href="#d"/><use x="877.743796" y="593.209514" xlink:href="#d"/><use x="873.499269" y="593.247669" xlink:href="#d"/><use x="869.113258" y="593.247669" xlink:href="#d"/><use x="864.868731" y="593.247669" xlink:href="#d"/><use x="860.48272" y="593.247669" xlink:href="#d"/><use x="856.096709" y="593.247669" xlink:href="#d"/><use x="851.852183" y="593.266746" xlink:href="#d"/><use x="847.466172" y="593.285823" xlink:href="#d"/><use x="843.221645" y="593.285823" xlink:href="#d"/><use x="838.835634" y="593.304901" xlink:href="#d"/><use x="834.874076" y="593.304901" xlink:href="#d"/><use x="830.488065" y="593.323978" xlink:href="#d"/><use x="826.102054" y="593.343055" xlink:href="#d"/><use x="821.857527" y="593.343055" xlink:href="#d"/><use x="817.471516" y="593.343055" xlink:href="#d"/><use x="813.226989" y="593.362133" xlink:href="#d"/><use x="808.840978" y="593.362133" xlink:href="#d"/><use x="804.454967" y="593.362133" xlink:href="#d"/><use x="800.210441" y="593.362133" xlink:href="#d"/><use x="795.82443" y="593.362133" xlink:href="#d"/><use x="791.579903" y="593.38121" xlink:href="#d"/><use x="787.193892" y="593.400287" xlink:href="#d"/><use x="783.09085" y="593.419365" xlink:href="#d"/><use x="778.704839" y="593.457519" xlink:href="#d"/><use x="774.318828" y="593.457519" xlink:href="#d"/><use x="770.074301" y="593.476597" xlink:href="#d"/><use x="765.68829" y="593.476597" xlink:href="#d"/><use x="761.443763" y="593.476597" xlink:href="#d"/><use x="757.057752" y="593.476597" xlink:href="#d"/><use x="752.671741" y="593.495674" xlink:href="#d"/><use x="748.427215" y="593.495674" xlink:href="#d"/><use x="744.041204" y="593.495674" xlink:href="#d"/><use x="739.796677" y="593.514751" xlink:href="#d"/><use x="735.410666" y="593.571983" xlink:href="#d"/><use x="731.449108" y="593.571983" xlink:href="#d"/><use x="727.063097" y="593.59106" xlink:href="#d"/><use x="722.677086" y="593.610138" xlink:href="#d"/><use x="718.432559" y="593.66737" xlink:href="#d"/><use x="714.046548" y="593.66737" xlink:href="#d"/><use x="709.802021" y="593.66737" xlink:href="#d"/><use x="705.41601" y="593.66737" xlink:href="#d"/><use x="701.029999" y="593.66737" xlink:href="#d"/><use x="696.785473" y="593.686447" xlink:href="#d"/><use x="692.399462" y="593.705524" xlink:href="#d"/><use x="688.154935" y="593.705524" xlink:href="#d"/><use x="683.768924" y="593.705524" xlink:href="#d"/><use x="679.807366" y="593.705524" xlink:href="#d"/><use x="675.421355" y="593.724602" xlink:href="#d"/><use x="671.035344" y="593.724602" xlink:href="#d"/><use x="666.790817" y="593.743679" xlink:href="#d"/><use x="662.404806" y="593.819988" xlink:href="#d"/><use x="658.16028" y="593.839066" xlink:href="#d"/><use x="653.774269" y="593.839066" xlink:href="#d"/><use x="649.388258" y="593.87722" xlink:href="#d"/><use x="645.143731" y="593.934452" xlink:href="#d"/><use x="640.75772" y="593.934452" xlink:href="#d"/><use x="636.513193" y="593.934452" xlink:href="#d"/><use x="632.127182" y="593.934452" xlink:href="#d"/><use x="628.165624" y="593.934452" xlink:href="#d"/><use x="623.779613" y="593.95353" xlink:href="#d"/><use x="619.393602" y="593.95353" xlink:href="#d"/><use x="615.149075" y="593.991684" xlink:href="#d"/><use x="610.763064" y="594.010762" xlink:href="#d"/><use x="606.518538" y="594.029839" xlink:href="#d"/><use x="602.132527" y="594.048916" xlink:href="#d"/><use x="597.746516" y="594.067994" xlink:href="#d"/><use x="593.501989" y="594.125225" xlink:href="#d"/><use x="589.115978" y="594.182457" xlink:href="#d"/><use x="584.871451" y="594.201535" xlink:href="#d"/><use x="580.48544" y="594.239689" xlink:href="#d"/><use x="576.382398" y="594.239689" xlink:href="#d"/><use x="571.996387" y="594.258767" xlink:href="#d"/><use x="567.610376" y="594.296921" xlink:href="#d"/><use x="563.365849" y="594.335076" xlink:href="#d"/><use x="558.979838" y="594.354153" xlink:href="#d"/><use x="554.735312" y="594.373231" xlink:href="#d"/><use x="550.349301" y="594.430463" xlink:href="#d"/><use x="545.96329" y="594.430463" xlink:href="#d"/><use x="541.718763" y="594.44954" xlink:href="#d"/><use x="537.332752" y="594.468617" xlink:href="#d"/><use x="533.088225" y="594.525849" xlink:href="#d"/><use x="528.702214" y="594.564004" xlink:href="#d"/><use x="524.740656" y="594.564004" xlink:href="#d"/><use x="520.354645" y="594.583081" xlink:href="#d"/><use x="515.968634" y="594.583081" xlink:href="#d"/><use x="511.724107" y="594.583081" xlink:href="#d"/><use x="507.338096" y="594.583081" xlink:href="#d"/><use x="503.09357" y="594.621236" xlink:href="#d"/><use x="498.707559" y="594.678468" xlink:href="#d"/><use x="494.321548" y="594.697545" xlink:href="#d"/><use x="490.077021" y="594.697545" xlink:href="#d"/><use x="485.69101" y="594.716622" xlink:href="#d"/><use x="481.446483" y="594.7357" xlink:href="#d"/><use x="477.060472" y="594.754777" xlink:href="#d"/><use x="473.098914" y="594.773854" xlink:href="#d"/><use x="468.712903" y="594.812009" xlink:href="#d"/><use x="417.071161" y="595.23171" xlink:href="#d"/><use x="365.287935" y="595.613257" xlink:href="#d"/><use x="313.646193" y="596.109267" xlink:href="#d"/><use x="262.004452" y="596.681587" xlink:href="#d"/><use x="210.36271" y="597.616375" xlink:href="#d"/><use x="158.579484" y="598.532087" xlink:href="#d"/><use x="106.937742" y="599.50503" xlink:href="#d"/><use x="55.296" y="600.725979" xlink:href="#d"/></g><path d="m1134 606.2-346.78 0.095386-25.75 0.019078-198.08 0.095386-26.033 0.019078-120.26 0.095386-206.71 0.36247-103.42 0.4197-51.642 0.19077v0" clip-path="url(#i)" fill="none" stroke="#9467bd" stroke-linecap="square" stroke-width="2"/><defs><path id="b" d="m0 1.25c0.3315 0 0.64948-0.13171 0.88388-0.36612 0.23441-0.23441 0.36612-0.55238 0.36612-0.88388s-0.13171-0.64948-0.36612-0.88388c-0.23441-0.23441-0.55238-0.36612-0.88388-0.36612s-0.64948 0.13171-0.88388 0.36612c-0.23441 0.23441-0.36612 0.55238-0.36612 0.88388s0.13171 0.64948 0.36612 0.88388c0.23441 0.23441 0.55238 0.36612 0.88388 0.36612z" stroke="#9467bd"/></defs><g clip-path="url(#i)" fill="#9467bd" stroke="#9467bd"><use x="1133.971726" y="606.20117" xlink:href="#b"/><use x="1131.849462" y="606.20117" xlink:href="#b"/><use x="1127.463451" y="606.20117" xlink:href="#b"/><use x="1123.218925" y="606.220247" xlink:href="#b"/><use x="1118.832914" y="606.220247" xlink:href="#b"/><use x="1114.446903" y="606.220247" xlink:href="#b"/><use x="1110.202376" y="606.220247" xlink:href="#b"/><use x="1105.816365" y="606.220247" xlink:href="#b"/><use x="1101.571838" y="606.220247" xlink:href="#b"/><use x="1097.185827" y="606.220247" xlink:href="#b"/><use x="1093.224269" y="606.220247" xlink:href="#b"/><use x="1088.838258" y="606.239324" xlink:href="#b"/><use x="1084.452247" y="606.239324" xlink:href="#b"/><use x="1080.20772" y="606.239324" xlink:href="#b"/><use x="1075.82171" y="606.239324" xlink:href="#b"/><use x="1071.577183" y="606.239324" xlink:href="#b"/><use x="1067.191172" y="606.239324" xlink:href="#b"/><use x="1062.805161" y="606.239324" xlink:href="#b"/><use x="1058.560634" y="606.239324" xlink:href="#b"/><use x="1054.174623" y="606.239324" xlink:href="#b"/><use x="1049.930096" y="606.258402" xlink:href="#b"/><use x="1045.544086" y="606.258402" xlink:href="#b"/><use x="1041.582527" y="606.258402" xlink:href="#b"/><use x="1037.196516" y="606.258402" xlink:href="#b"/><use x="1032.810505" y="606.258402" xlink:href="#b"/><use x="1028.565979" y="606.258402" xlink:href="#b"/><use x="1024.179968" y="606.258402" xlink:href="#b"/><use x="1019.935441" y="606.277479" xlink:href="#b"/><use x="1015.54943" y="606.277479" xlink:href="#b"/><use x="1011.163419" y="606.277479" xlink:href="#b"/><use x="1006.918892" y="606.277479" xlink:href="#b"/><use x="1002.532881" y="606.277479" xlink:href="#b"/><use x="998.288355" y="606.277479" xlink:href="#b"/><use x="993.902344" y="606.277479" xlink:href="#b"/><use x="989.799301" y="606.277479" xlink:href="#b"/><use x="985.41329" y="606.277479" xlink:href="#b"/><use x="981.027279" y="606.277479" xlink:href="#b"/><use x="976.782753" y="606.277479" xlink:href="#b"/><use x="972.396742" y="606.277479" xlink:href="#b"/><use x="968.152215" y="606.277479" xlink:href="#b"/><use x="963.766204" y="606.277479" xlink:href="#b"/><use x="959.380193" y="606.277479" xlink:href="#b"/><use x="955.135666" y="606.277479" xlink:href="#b"/><use x="950.749655" y="606.277479" xlink:href="#b"/><use x="946.505129" y="606.277479" xlink:href="#b"/><use x="942.119118" y="606.277479" xlink:href="#b"/><use x="938.157559" y="606.277479" xlink:href="#b"/><use x="933.771548" y="606.277479" xlink:href="#b"/><use x="929.385537" y="606.296556" xlink:href="#b"/><use x="925.141011" y="606.296556" xlink:href="#b"/><use x="920.755" y="606.296556" xlink:href="#b"/><use x="916.510473" y="606.296556" xlink:href="#b"/><use x="912.124462" y="606.296556" xlink:href="#b"/><use x="907.738451" y="606.296556" xlink:href="#b"/><use x="903.493924" y="606.296556" xlink:href="#b"/><use x="899.107913" y="606.296556" xlink:href="#b"/><use x="894.863387" y="606.296556" xlink:href="#b"/><use x="890.477376" y="606.296556" xlink:href="#b"/><use x="886.515817" y="606.296556" xlink:href="#b"/><use x="882.129807" y="606.296556" xlink:href="#b"/><use x="877.743796" y="606.296556" xlink:href="#b"/><use x="873.499269" y="606.296556" xlink:href="#b"/><use x="869.113258" y="606.296556" xlink:href="#b"/><use x="864.868731" y="606.296556" xlink:href="#b"/><use x="860.48272" y="606.296556" xlink:href="#b"/><use x="856.096709" y="606.296556" xlink:href="#b"/><use x="851.852183" y="606.296556" xlink:href="#b"/><use x="847.466172" y="606.296556" xlink:href="#b"/><use x="843.221645" y="606.296556" xlink:href="#b"/><use x="838.835634" y="606.296556" xlink:href="#b"/><use x="834.874076" y="606.296556" xlink:href="#b"/><use x="830.488065" y="606.296556" xlink:href="#b"/><use x="826.102054" y="606.296556" xlink:href="#b"/><use x="821.857527" y="606.296556" xlink:href="#b"/><use x="817.471516" y="606.296556" xlink:href="#b"/><use x="813.226989" y="606.296556" xlink:href="#b"/><use x="808.840978" y="606.296556" xlink:href="#b"/><use x="804.454967" y="606.296556" xlink:href="#b"/><use x="800.210441" y="606.296556" xlink:href="#b"/><use x="795.82443" y="606.296556" xlink:href="#b"/><use x="791.579903" y="606.296556" xlink:href="#b"/><use x="787.193892" y="606.296556" xlink:href="#b"/><use x="783.09085" y="606.315634" xlink:href="#b"/><use x="778.704839" y="606.315634" xlink:href="#b"/><use x="774.318828" y="606.315634" xlink:href="#b"/><use x="770.074301" y="606.315634" xlink:href="#b"/><use x="765.68829" y="606.315634" xlink:href="#b"/><use x="761.443763" y="606.315634" xlink:href="#b"/><use x="757.057752" y="606.315634" xlink:href="#b"/><use x="752.671741" y="606.315634" xlink:href="#b"/><use x="748.427215" y="606.315634" xlink:href="#b"/><use x="744.041204" y="606.315634" xlink:href="#b"/><use x="739.796677" y="606.334711" xlink:href="#b"/><use x="735.410666" y="606.334711" xlink:href="#b"/><use x="731.449108" y="606.334711" xlink:href="#b"/><use x="727.063097" y="606.334711" xlink:href="#b"/><use x="722.677086" y="606.334711" xlink:href="#b"/><use x="718.432559" y="606.334711" xlink:href="#b"/><use x="714.046548" y="606.334711" xlink:href="#b"/><use x="709.802021" y="606.334711" xlink:href="#b"/><use x="705.41601" y="606.334711" xlink:href="#b"/><use x="701.029999" y="606.334711" xlink:href="#b"/><use x="696.785473" y="606.334711" xlink:href="#b"/><use x="692.399462" y="606.334711" xlink:href="#b"/><use x="688.154935" y="606.334711" xlink:href="#b"/><use x="683.768924" y="606.334711" xlink:href="#b"/><use x="679.807366" y="606.334711" xlink:href="#b"/><use x="675.421355" y="606.334711" xlink:href="#b"/><use x="671.035344" y="606.334711" xlink:href="#b"/><use x="666.790817" y="606.334711" xlink:href="#b"/><use x="662.404806" y="606.353788" xlink:href="#b"/><use x="658.16028" y="606.353788" xlink:href="#b"/><use x="653.774269" y="606.353788" xlink:href="#b"/><use x="649.388258" y="606.353788" xlink:href="#b"/><use x="645.143731" y="606.372866" xlink:href="#b"/><use x="640.75772" y="606.372866" xlink:href="#b"/><use x="636.513193" y="606.372866" xlink:href="#b"/><use x="632.127182" y="606.372866" xlink:href="#b"/><use x="628.165624" y="606.372866" xlink:href="#b"/><use x="623.779613" y="606.372866" xlink:href="#b"/><use x="619.393602" y="606.372866" xlink:href="#b"/><use x="615.149075" y="606.372866" xlink:href="#b"/><use x="610.763064" y="606.372866" xlink:href="#b"/><use x="606.518538" y="606.372866" xlink:href="#b"/><use x="602.132527" y="606.372866" xlink:href="#b"/><use x="597.746516" y="606.372866" xlink:href="#b"/><use x="593.501989" y="606.372866" xlink:href="#b"/><use x="589.115978" y="606.372866" xlink:href="#b"/><use x="584.871451" y="606.372866" xlink:href="#b"/><use x="580.48544" y="606.372866" xlink:href="#b"/><use x="576.382398" y="606.372866" xlink:href="#b"/><use x="571.996387" y="606.372866" xlink:href="#b"/><use x="567.610376" y="606.372866" xlink:href="#b"/><use x="563.365849" y="606.41102" xlink:href="#b"/><use x="558.979838" y="606.430098" xlink:href="#b"/><use x="554.735312" y="606.430098" xlink:href="#b"/><use x="550.349301" y="606.430098" xlink:href="#b"/><use x="545.96329" y="606.430098" xlink:href="#b"/><use x="541.718763" y="606.430098" xlink:href="#b"/><use x="537.332752" y="606.430098" xlink:href="#b"/><use x="533.088225" y="606.430098" xlink:href="#b"/><use x="528.702214" y="606.430098" xlink:href="#b"/><use x="524.740656" y="606.430098" xlink:href="#b"/><use x="520.354645" y="606.449175" xlink:href="#b"/><use x="515.968634" y="606.449175" xlink:href="#b"/><use x="511.724107" y="606.449175" xlink:href="#b"/><use x="507.338096" y="606.449175" xlink:href="#b"/><use x="503.09357" y="606.449175" xlink:href="#b"/><use x="498.707559" y="606.449175" xlink:href="#b"/><use x="494.321548" y="606.449175" xlink:href="#b"/><use x="490.077021" y="606.449175" xlink:href="#b"/><use x="485.69101" y="606.449175" xlink:href="#b"/><use x="481.446483" y="606.449175" xlink:href="#b"/><use x="477.060472" y="606.468252" xlink:href="#b"/><use x="473.098914" y="606.468252" xlink:href="#b"/><use x="468.712903" y="606.468252" xlink:href="#b"/><use x="417.071161" y="606.525484" xlink:href="#b"/><use x="365.287935" y="606.601794" xlink:href="#b"/><use x="313.646193" y="606.678103" xlink:href="#b"/><use x="262.004452" y="606.735335" xlink:href="#b"/><use x="210.36271" y="606.887953" xlink:href="#b"/><use x="158.579484" y="607.135959" xlink:href="#b"/><use x="106.937742" y="607.307654" xlink:href="#b"/><use x="55.296" y="607.498428" xlink:href="#b"/></g><path d="m55.296 609.12v-589.68" fill="none" stroke="#000" stroke-linecap="square" stroke-width=".8"/><path d="m1140.5 609.12v-589.68" fill="none" stroke="#000" stroke-linecap="square" stroke-width=".8"/><path d="m55.296 609.12h1085.2" fill="none" stroke="#000" stroke-linecap="square" stroke-width=".8"/><path d="m55.296 19.44h1085.2" fill="none" stroke="#000" stroke-linecap="square" stroke-width=".8"/><g transform="translate(102.26 13.44) scale(.14 -.14)"><defs><path id="v" transform="scale(.015625)" d="m581 3500h841l994-2344 997 2344h834v-3500h-578v2950l-966-2278h-575l-969 2278v-2950h-578v3500z"/><path id="aw" transform="scale(.015625)" d="m3578 3500v-3500h-572v2809l-1687-2809h-738v3500h572v-2803l1685 2803h740zm-2476 1333h369q34-234 185-352 152-117 424-117 269 0 419 116t190 353h369q-31-447-278-672t-700-225-700 225-278 672z"/><path id="z" transform="scale(.015625)" d="m2206 1888q388-75 603-304 216-228 216-565 0-541-403-826-403-284-1147-284-250 0-514 44t-545 131v535q222-116 487-174 266-57 556-57 472 0 736 175t264 456q0 275-234 442t-662 167h-463v475h484q363 0 574 139t211 358q0 200-218 344-217 144-588 144-222 0-474-41-251-41-555-131v522q307 75 572 112 266 38 503 38 613 0 967-246 355-245 355-686 0-290-188-492-187-201-537-276z"/><path id="at" transform="scale(.015625)" d="m684 794h660v-794h-660v794z"/><path id="az" transform="scale(.015625)" d="m1259 2228v-1709h1013q509 0 754 211 246 211 246 645 0 438-246 645-245 208-754 208h-1013zm0 1919v-1406h935q462 0 688 173 227 174 227 530 0 353-227 528-226 175-688 175h-935zm-631 519h1613q722 0 1112-300 391-300 391-853 0-429-200-682t-588-315q466-100 724-418 258-317 258-792 0-625-425-966-425-340-1210-340h-1675v4666z"/><path id="ak" transform="scale(.015625)" d="m3603 0h-3022v3500h578v-3041h1866v3041h578v-3041h460v-1343h-460v884z"/><path id="af" transform="scale(.015625)" d="m2781 1038q0 281-205 428-204 147-598 147h-819v-1154h819q394 0 598 148 205 149 205 431zm-2200 2462h578v-1428h844q669 0 1030-255 361-254 361-779t-361-782q-361-256-1030-256h-1422v3500z"/><path id="ay" transform="scale(.015625)" d="m628 4666h631v-1913h2294v1913h631v-4666h-631v2222h-2294v-2222h-631v4666z"/></defs><use xlink:href="#ap"/><use x="78.125" xlink:href="#s"/><use x="143.115234" xlink:href="#o"/><use x="208.496094" xlink:href="#q"/><use x="269.775391" xlink:href="#v"/><use x="345.214844" xlink:href="#s"/><use x="410.205078" xlink:href="#p"/><use x="470.605469" xlink:href="#q"/><use x="531.884766" xlink:href="#DejaVuSans-20"/><use x="563.671875" xlink:href="#h"/><use x="624.853516" xlink:href="#l"/><use x="683.105469" xlink:href="#p"/><use x="743.505859" xlink:href="#u"/><use x="806.982422" xlink:href="#n"/><use x="885.9375" xlink:href="#l"/><use x="944.189453" xlink:href="#s"/><use x="1009.179688" xlink:href="#aw"/><use x="1074.169922" xlink:href="#DejaVuSans-20"/><use x="1105.957031" xlink:href="#h"/><use x="1167.138672" xlink:href="#p"/><use x="1227.539062" xlink:href="#h"/><use x="1288.720703" xlink:href="#w"/><use x="1352.636719" xlink:href="#h"/><use x="1413.818359" xlink:href="#z"/><use x="1466.992188" xlink:href="#k"/><use x="1528.515625" xlink:href="#v"/><use x="1603.955078" xlink:href="#o"/><use x="1669.335938" xlink:href="#n"/><use x="1748.291016" xlink:href="#ag"/><use x="1807.470703" xlink:href="#DejaVuSans-20"/><use x="1839.257812" xlink:href="#h"/><use x="1900.439453" xlink:href="#ah"/><use x="1962.109375" xlink:href="#aj"/><use x="2032.763672" xlink:href="#k"/><use x="2094.287109" xlink:href="#p"/><use x="2154.6875" xlink:href="#l"/><use x="2212.939453" xlink:href="#h"/><use x="2274.121094" xlink:href="#ad"/><use x="2333.056641" xlink:href="#at"/><use x="2364.84375" xlink:href="#DejaVuSans-20"/><use x="2396.630859" xlink:href="#az"/><use x="2465.234375" xlink:href="#t"/><use x="2520.214844" xlink:href="#k"/><use x="2581.738281" xlink:href="#al"/><use x="2634.277344" xlink:href="#h"/><use x="2695.458984" xlink:href="#DejaVuSans-20"/><use x="2727.246094" xlink:href="#ab"/><use x="2790.869141" xlink:href="#g"/><use x="2854.492188" xlink:href="#aa"/><use x="2918.115234" xlink:href="#ae"/><use x="2981.738281" xlink:href="#am"/><use x="3045.361328" xlink:href="#DejaVuSans-20"/><use x="3077.148438" xlink:href="#h"/><use x="3138.330078" xlink:href="#p"/><use x="3198.730469" xlink:href="#h"/><use x="3259.912109" xlink:href="#w"/><use x="3323.828125" xlink:href="#h"/><use x="3385.009766" xlink:href="#z"/><use x="3438.183594" xlink:href="#k"/><use x="3499.707031" xlink:href="#v"/><use x="3575.146484" xlink:href="#o"/><use x="3640.527344" xlink:href="#n"/><use x="3719.482422" xlink:href="#ag"/><use x="3778.662109" xlink:href="#DejaVuSans-20"/><use x="3810.449219" xlink:href="#s"/><use x="3875.439453" xlink:href="#DejaVuSans-20"/><use x="3907.226562" xlink:href="#j"/><use x="3970.849609" xlink:href="#ab"/><use x="4034.472656" xlink:href="#g"/><use x="4098.095703" xlink:href="#ae"/><use x="4161.71875" xlink:href="#DejaVuSans-20"/><use x="4193.505859" xlink:href="#ac"/><use x="4258.886719" xlink:href="#h"/><use x="4320.068359" xlink:href="#l"/><use x="4378.320312" xlink:href="#k"/><use x="4439.84375" xlink:href="#o"/><use x="4505.224609" xlink:href="#ak"/><use x="4573.291016" xlink:href="#s"/><use x="4638.28125" xlink:href="#q"/><use x="4699.560547" xlink:href="#w"/><use x="4763.476562" xlink:href="#af"/><use x="4822.412109" xlink:href="#o"/><use x="4887.792969" xlink:href="#h"/><use x="4948.974609" xlink:href="#DejaVuSans-20"/><use x="4980.761719" xlink:href="#h"/><use x="5041.943359" xlink:href="#ac"/><use x="5107.324219" xlink:href="#q"/><use x="5168.603516" xlink:href="#t"/><use x="5223.583984" xlink:href="#o"/><use x="5288.964844" xlink:href="#n"/><use x="5367.919922" xlink:href="#ag"/><use x="5427.099609" xlink:href="#DejaVuSans-20"/><use x="5458.886719" xlink:href="#q"/><use x="5520.166016" xlink:href="#t"/><use x="5575.146484" xlink:href="#l"/><use x="5633.398438" xlink:href="#k"/><use x="5694.921875" xlink:href="#u"/><use x="5758.398438" xlink:href="#h"/><use x="5819.580078" xlink:href="#s"/><use x="5884.570312" xlink:href="#x"/><use x="5953.710938" xlink:href="#h"/><use x="6014.892578" xlink:href="#ad"/><use x="6073.828125" xlink:href="#at"/><use x="6105.615234" xlink:href="#DejaVuSans-20"/><use x="6137.402344" xlink:href="#ay"/><use x="6212.597656" xlink:href="#h"/><use x="6273.779297" xlink:href="#an"/><use x="6333.935547" xlink:href="#ah"/><use x="6395.605469" xlink:href="#u"/><use x="6459.082031" xlink:href="#af"/><use x="6518.017578" xlink:href="#DejaVuSans-20"/><use x="6549.804688" xlink:href="#j"/><use x="6613.427734" xlink:href="#g"/><use x="6677.050781" xlink:href="#j"/><use x="6740.673828" xlink:href="#j"/><use x="6804.296875" xlink:href="#DejaVuSans-20"/><use x="6836.083984" xlink:href="#al"/><use x="6888.623047" xlink:href="#h"/><use x="6949.804688" xlink:href="#x"/><use x="7018.945312" xlink:href="#q"/></g><path d="m64.396 144.33h336.13q2.6 0 2.6-2.6v-113.19q0-2.6-2.6-2.6h-336.13q-2.6 0-2.6 2.6v113.19q0 2.6 2.6 2.6z" fill="#fff" opacity=".8" stroke="#ccc"/><path d="m66.996 36.468h13 13" fill="none" stroke="#1f77b4" stroke-linecap="square"/><use x="79.996" y="36.467969" fill="#1f77b4" stroke="#1f77b4" xlink:href="#f"/><g transform="translate(103.4 41.018) scale(.13 -.13)"><defs><path id="ai" transform="scale(.015625)" d="m2522 4238q-688 0-1093-513-404-512-404-1397 0-881 404-1394 405-512 1093-512 687 0 1089 512 402 513 402 1394 0 885-402 1397-402 513-1089 513zm0 512q981 0 1568-658 588-658 588-1764 0-1103-588-1761-587-658-1568-658-984 0-1574 656-589 657-589 1763t589 1764q590 658 1574 658z"/></defs><use xlink:href="#ai"/><use x="78.710938" xlink:href="#p"/><use x="139.111328" xlink:href="#h"/><use x="200.292969" xlink:href="#w"/><use x="264.208984" xlink:href="#h"/><use x="325.390625" xlink:href="#z"/><use x="378.564453" xlink:href="#k"/><use x="440.087891" xlink:href="#v"/><use x="515.527344" xlink:href="#o"/><use x="580.908203" xlink:href="#n"/><use x="659.863281" xlink:href="#k"/><use x="721.386719" xlink:href="#DejaVuSans-20"/><use x="753.173828" xlink:href="#h"/><use x="814.355469" xlink:href="#ah"/><use x="876.025391" xlink:href="#aj"/><use x="946.679688" xlink:href="#k"/><use x="1008.203125" xlink:href="#p"/><use x="1068.603516" xlink:href="#l"/><use x="1126.855469" xlink:href="#n"/></g><path d="m66.996 55.55h13 13" fill="none" stroke="#ff7f0e" stroke-linecap="square"/><use x="79.996" y="55.549531" fill="#ff7f0e" stroke="#ff7f0e" xlink:href="#a"/><g transform="translate(103.4 60.1) scale(.13 -.13)"><use xlink:href="#ai"/><use x="78.710938" xlink:href="#p"/><use x="139.111328" xlink:href="#h"/><use x="200.292969" xlink:href="#w"/><use x="264.208984" xlink:href="#h"/><use x="325.390625" xlink:href="#z"/><use x="378.564453" xlink:href="#k"/><use x="440.087891" xlink:href="#v"/><use x="515.527344" xlink:href="#o"/><use x="580.908203" xlink:href="#n"/><use x="659.863281" xlink:href="#k"/><use x="721.386719" xlink:href="#DejaVuSans-20"/><use x="753.173828" xlink:href="#q"/><use x="814.453125" xlink:href="#t"/><use x="869.433594" xlink:href="#l"/><use x="927.685547" xlink:href="#k"/><use x="989.208984" xlink:href="#u"/><use x="1052.685547" xlink:href="#h"/><use x="1113.867188" xlink:href="#s"/><use x="1178.857422" xlink:href="#x"/><use x="1247.998047" xlink:href="#n"/></g><path d="m66.996 74.631h13 13" fill="none" stroke="#2ca02c" stroke-linecap="square" stroke-width="2"/><use x="79.996" y="74.631094" fill="#2ca02c" stroke="#2ca02c" xlink:href="#e"/><g transform="translate(103.4 79.181) scale(.13 -.13)"><use xlink:href="#ai"/><use x="78.710938" xlink:href="#p"/><use x="139.111328" xlink:href="#h"/><use x="200.292969" xlink:href="#w"/><use x="264.208984" xlink:href="#h"/><use x="325.390625" xlink:href="#z"/><use x="378.564453" xlink:href="#k"/><use x="440.087891" xlink:href="#v"/><use x="515.527344" xlink:href="#o"/><use x="580.908203" xlink:href="#n"/><use x="659.863281" xlink:href="#k"/><use x="721.386719" xlink:href="#DejaVuSans-20"/><use x="753.173828" xlink:href="#q"/><use x="814.453125" xlink:href="#t"/><use x="869.433594" xlink:href="#l"/><use x="927.685547" xlink:href="#k"/><use x="989.208984" xlink:href="#u"/><use x="1052.685547" xlink:href="#h"/><use x="1113.867188" xlink:href="#s"/><use x="1178.857422" xlink:href="#x"/><use x="1247.998047" xlink:href="#n"/><use x="1326.953125" xlink:href="#DejaVuSans-20"/><use x="1358.740234" xlink:href="#h"/><use x="1419.921875" xlink:href="#l"/><use x="1478.173828" xlink:href="#DejaVuSans-20"/><use x="1509.960938" xlink:href="#r"/><use x="1573.583984" xlink:href="#ae"/><use x="1637.207031" xlink:href="#g"/><use x="1700.830078" xlink:href="#DejaVuSans-20"/><use x="1732.617188" xlink:href="#v"/></g><path d="m66.996 93.713h13 13" fill="none" stroke="#000" stroke-linecap="square" stroke-width="2"/><use x="79.996" y="93.712656" stroke="#000000" xlink:href="#c"/><g transform="translate(103.4 98.263) scale(.13 -.13)"><defs><path id="ao" transform="scale(.015625)" d="m4184 4666v-4666h-631v4134h-2294v-4134h-631v4666h3556z"/></defs><use xlink:href="#ao"/><use x="75.195312" xlink:href="#h"/><use x="136.376953" xlink:href="#l"/><use x="194.628906" xlink:href="#k"/><use x="256.152344" xlink:href="#o"/><use x="321.533203" xlink:href="#ak"/><use x="389.599609" xlink:href="#s"/><use x="454.589844" xlink:href="#q"/><use x="515.869141" xlink:href="#w"/><use x="579.785156" xlink:href="#af"/><use x="638.720703" xlink:href="#o"/><use x="704.101562" xlink:href="#h"/><use x="765.283203" xlink:href="#DejaVuSans-20"/><use x="797.070312" xlink:href="#h"/><use x="858.251953" xlink:href="#ac"/><use x="923.632812" xlink:href="#q"/><use x="984.912109" xlink:href="#t"/><use x="1039.892578" xlink:href="#o"/><use x="1105.273438" xlink:href="#n"/><use x="1184.228516" xlink:href="#k"/><use x="1245.751953" xlink:href="#DejaVuSans-20"/><use x="1277.539062" xlink:href="#q"/><use x="1338.818359" xlink:href="#t"/><use x="1393.798828" xlink:href="#l"/><use x="1452.050781" xlink:href="#k"/><use x="1513.574219" xlink:href="#u"/><use x="1577.050781" xlink:href="#h"/><use x="1638.232422" xlink:href="#s"/><use x="1703.222656" xlink:href="#x"/><use x="1772.363281" xlink:href="#n"/></g><path d="m66.996 112.79h13 13" fill="none" stroke="#d62728" stroke-linecap="square" stroke-width="2"/><use x="79.996" y="112.794219" fill="#d62728" stroke="#d62728" xlink:href="#d"/><g transform="translate(103.4 117.34) scale(.13 -.13)"><use xlink:href="#ai"/><use x="78.710938" xlink:href="#p"/><use x="139.111328" xlink:href="#h"/><use x="200.292969" xlink:href="#w"/><use x="264.208984" xlink:href="#h"/><use x="325.390625" xlink:href="#z"/><use x="378.564453" xlink:href="#k"/><use x="440.087891" xlink:href="#v"/><use x="515.527344" xlink:href="#o"/><use x="580.908203" xlink:href="#n"/><use x="659.863281" xlink:href="#k"/><use x="721.386719" xlink:href="#DejaVuSans-20"/><use x="753.173828" xlink:href="#q"/><use x="814.453125" xlink:href="#t"/><use x="869.433594" xlink:href="#l"/><use x="927.685547" xlink:href="#k"/><use x="989.208984" xlink:href="#u"/><use x="1052.685547" xlink:href="#h"/><use x="1113.867188" xlink:href="#s"/><use x="1178.857422" xlink:href="#x"/><use x="1247.998047" xlink:href="#n"/><use x="1326.953125" xlink:href="#DejaVuSans-20"/><use x="1358.740234" xlink:href="#h"/><use x="1419.921875" xlink:href="#l"/><use x="1478.173828" xlink:href="#DejaVuSans-20"/><use x="1509.960938" xlink:href="#r"/><use x="1573.583984" xlink:href="#DejaVuSans-20"/><use x="1605.371094" xlink:href="#p"/><use x="1665.771484" xlink:href="#v"/></g><path d="m66.996 131.88h13 13" fill="none" stroke="#9467bd" stroke-linecap="square" stroke-width="2"/><use x="79.996" y="131.875781" fill="#9467bd" stroke="#9467bd" xlink:href="#b"/><g transform="translate(103.4 136.43) scale(.13 -.13)"><use xlink:href="#ao"/><use x="75.195312" xlink:href="#h"/><use x="136.376953" xlink:href="#l"/><use x="194.628906" xlink:href="#k"/><use x="256.152344" xlink:href="#o"/><use x="321.533203" xlink:href="#ak"/><use x="389.599609" xlink:href="#s"/><use x="454.589844" xlink:href="#q"/><use x="515.869141" xlink:href="#w"/><use x="579.785156" xlink:href="#af"/><use x="638.720703" xlink:href="#o"/><use x="704.101562" xlink:href="#h"/><use x="765.283203" xlink:href="#DejaVuSans-20"/><use x="797.070312" xlink:href="#h"/><use x="858.251953" xlink:href="#ac"/><use x="923.632812" xlink:href="#q"/><use x="984.912109" xlink:href="#t"/><use x="1039.892578" xlink:href="#o"/><use x="1105.273438" xlink:href="#n"/><use x="1184.228516" xlink:href="#k"/><use x="1245.751953" xlink:href="#DejaVuSans-20"/><use x="1277.539062" xlink:href="#q"/><use x="1338.818359" xlink:href="#t"/><use x="1393.798828" xlink:href="#l"/><use x="1452.050781" xlink:href="#k"/><use x="1513.574219" xlink:href="#u"/><use x="1577.050781" xlink:href="#h"/><use x="1638.232422" xlink:href="#s"/><use x="1703.222656" xlink:href="#x"/><use x="1772.363281" xlink:href="#n"/><use x="1851.318359" xlink:href="#DejaVuSans-20"/><use x="1883.105469" xlink:href="#h"/><use x="1944.287109" xlink:href="#l"/><use x="2002.539062" xlink:href="#DejaVuSans-20"/><use x="2034.326172" xlink:href="#r"/><use x="2097.949219" xlink:href="#DejaVuSans-20"/><use x="2129.736328" xlink:href="#p"/><use x="2190.136719" xlink:href="#v"/></g><defs><clipPath id="i"><rect x="55.296" y="19.44" width="1085.2" height="589.68"/></clipPath></defs></svg>