<?xml version="1.0" encoding="UTF-8"?>
<!DOCTYPE svg  PUBLIC '-//W3C//DTD SVG 1.1//EN'  'http://www.w3.org/Graphics/SVG/1.1/DTD/svg11.dtd'>
<svg width="1152pt" height="648pt" version="1.1" viewBox="0 0 1152 648" xmlns="http://www.w3.org/2000/svg" xmlns:xlink="http://www.w3.org/1999/xlink"><defs><style type="text/css">*{stroke-linejoin: round; stroke-linecap: butt}</style></defs><path d="m0 648h1152v-648h-1152z" fill="#fff"/><path d="m55.296 609.12h1085.2v-589.68h-1085.2z" fill="#fff"/><path d="m55.296 609.12v-589.68" clip-path="url(#f)" fill="none" stroke="#b0b0b0" stroke-dasharray="0.8,1.32" stroke-width=".8"/><defs><path id="i" d="m0 0v3.5" stroke="#000" stroke-width=".8"/></defs><use x="55.296" y="609.12" stroke="#000000" stroke-width=".8" xlink:href="#i"/><g transform="translate(42.571 623.72) scale(.1 -.1)"><defs><path id="g" transform="scale(.015625)" d="m1228 531h2203v-531h-2962v531q359 372 979 998 621 627 780 809 303 340 423 576 121 236 121 464 0 372-261 606-261 235-680 235-297 0-627-103-329-103-704-313v638q381 153 712 231 332 78 607 78 725 0 1156-363 431-362 431-968 0-288-108-546-107-257-392-607-78-91-497-524-418-433-1181-1211z"/><path id="d" transform="scale(.015625)" d="m2034 4250q-487 0-733-480-245-479-245-1442 0-959 245-1439 246-480 733-480 491 0 736 480 246 480 246 1439 0 963-246 1442-245 480-736 480zm0 500q785 0 1199-621 414-620 414-1801 0-1178-414-1799-414-620-1199-620-784 0-1198 620-414 621-414 1799 0 1181 414 1801 414 621 1198 621z"/></defs><use xlink:href="#g"/><use x="63.623047" xlink:href="#d"/><use x="127.246094" xlink:href="#d"/><use x="190.869141" xlink:href="#g"/></g><path d="m105.94 609.12v-589.68" clip-path="url(#f)" fill="none" stroke="#b0b0b0" stroke-dasharray="0.8,1.32" stroke-width=".8"/><use x="105.940695" y="609.12" stroke="#000000" stroke-width=".8" xlink:href="#i"/><g transform="translate(93.216 623.72) scale(.1 -.1)"><defs><path id="y" transform="scale(.015625)" d="m2597 2516q453-97 707-404 255-306 255-756 0-690-475-1069-475-378-1350-378-293 0-604 58t-642 174v609q262-153 574-231 313-78 654-78 593 0 904 234t311 681q0 413-289 645-289 233-804 233h-544v519h569q465 0 712 186t247 536q0 359-255 551-254 193-729 193-260 0-557-57-297-56-653-174v562q360 100 674 150t592 50q719 0 1137-327 419-326 419-882 0-388-222-655t-631-370z"/></defs><use xlink:href="#g"/><use x="63.623047" xlink:href="#d"/><use x="127.246094" xlink:href="#d"/><use x="190.869141" xlink:href="#y"/></g><path d="m156.59 609.12v-589.68" clip-path="url(#f)" fill="none" stroke="#b0b0b0" stroke-dasharray="0.8,1.32" stroke-width=".8"/><use x="156.58539" y="609.12" stroke="#000000" stroke-width=".8" xlink:href="#i"/><g transform="translate(143.86 623.72) scale(.1 -.1)"><defs><path id="ai" transform="scale(.015625)" d="m2419 4116-1594-2491h1594v2491zm-166 550h794v-3041h666v-525h-666v-1100h-628v1100h-2106v609l1940 2957z"/></defs><use xlink:href="#g"/><use x="63.623047" xlink:href="#d"/><use x="127.246094" xlink:href="#d"/><use x="190.869141" xlink:href="#ai"/></g><path d="m207.37 609.12v-589.68" clip-path="url(#f)" fill="none" stroke="#b0b0b0" stroke-dasharray="0.8,1.32" stroke-width=".8"/><use x="207.368838" y="609.12" stroke="#000000" stroke-width=".8" xlink:href="#i"/><g transform="translate(194.64 623.72) scale(.1 -.1)"><defs><path id="ad" transform="scale(.015625)" d="m691 4666h2478v-532h-1900v-1143q137 47 274 70 138 23 276 23 781 0 1237-428 457-428 457-1159 0-753-469-1171-469-417-1322-417-294 0-599 50-304 50-629 150v635q281-153 581-228t634-75q541 0 856 284 316 284 316 772 0 487-316 771-315 285-856 285-253 0-505-56-251-56-513-175v2344z"/></defs><use xlink:href="#g"/><use x="63.623047" xlink:href="#d"/><use x="127.246094" xlink:href="#d"/><use x="190.869141" xlink:href="#ad"/></g><path d="m258.01 609.12v-589.68" clip-path="url(#f)" fill="none" stroke="#b0b0b0" stroke-dasharray="0.8,1.32" stroke-width=".8"/><use x="258.013533" y="609.12" stroke="#000000" stroke-width=".8" xlink:href="#i"/><g transform="translate(245.29 623.72) scale(.1 -.1)"><defs><path id="ap" transform="scale(.015625)" d="m2113 2584q-425 0-674-291-248-290-248-796 0-503 248-796 249-292 674-292t673 292q248 293 248 796 0 506-248 796-248 291-673 291zm1253 1979v-575q-238 112-480 171-242 60-480 60-625 0-955-422-329-422-376-1275 184 272 462 417 279 145 613 145 703 0 1111-427 408-426 408-1160 0-719-425-1154-425-434-1131-434-810 0-1238 620-428 621-428 1799 0 1106 525 1764t1409 658q238 0 480-47t505-140z"/></defs><use xlink:href="#g"/><use x="63.623047" xlink:href="#d"/><use x="127.246094" xlink:href="#d"/><use x="190.869141" xlink:href="#ap"/></g><path d="m308.66 609.12v-589.68" clip-path="url(#f)" fill="none" stroke="#b0b0b0" stroke-dasharray="0.8,1.32" stroke-width=".8"/><use x="308.658228" y="609.12" stroke="#000000" stroke-width=".8" xlink:href="#i"/><g transform="translate(295.93 623.72) scale(.1 -.1)"><defs><path id="ac" transform="scale(.015625)" d="m525 4666h3e3v-269l-1694-4397h-659l1594 4134h-2241v532z"/></defs><use xlink:href="#g"/><use x="63.623047" xlink:href="#d"/><use x="127.246094" xlink:href="#d"/><use x="190.869141" xlink:href="#ac"/></g><path d="m359.3 609.12v-589.68" clip-path="url(#f)" fill="none" stroke="#b0b0b0" stroke-dasharray="0.8,1.32" stroke-width=".8"/><use x="359.302923" y="609.12" stroke="#000000" stroke-width=".8" xlink:href="#i"/><g transform="translate(346.58 623.72) scale(.1 -.1)"><defs><path id="ao" transform="scale(.015625)" d="m2034 2216q-450 0-708-241-257-241-257-662 0-422 257-663 258-241 708-241t709 242q260 243 260 662 0 421-258 662-257 241-711 241zm-631 268q-406 100-633 378-226 279-226 679 0 559 398 884 399 325 1092 325 697 0 1094-325t397-884q0-400-227-679-226-278-629-378 456-106 710-416 255-309 255-755 0-679-414-1042-414-362-1186-362-771 0-1186 362-414 363-414 1042 0 446 256 755 257 310 713 416zm-231 997q0-362 226-565 227-203 636-203 407 0 636 203 230 203 230 565 0 363-230 566-229 203-636 203-409 0-636-203-226-203-226-566z"/></defs><use xlink:href="#g"/><use x="63.623047" xlink:href="#d"/><use x="127.246094" xlink:href="#d"/><use x="190.869141" xlink:href="#ao"/></g><path d="m410.09 609.12v-589.68" clip-path="url(#f)" fill="none" stroke="#b0b0b0" stroke-dasharray="0.8,1.32" stroke-width=".8"/><use x="410.086371" y="609.12" stroke="#000000" stroke-width=".8" xlink:href="#i"/><g transform="translate(397.36 623.72) scale(.1 -.1)"><defs><path id="an" transform="scale(.015625)" d="m703 97v575q238-113 481-172 244-59 479-59 625 0 954 420 330 420 377 1277-181-269-460-413-278-144-615-144-700 0-1108 423-408 424-408 1159 0 718 425 1152 425 435 1131 435 810 0 1236-621 427-620 427-1801 0-1103-524-1761-523-658-1407-658-238 0-482 47-243 47-506 141zm1256 1978q425 0 673 290 249 291 249 798 0 503-249 795-248 292-673 292t-673-292-248-795q0-507 248-798 248-290 673-290z"/></defs><use xlink:href="#g"/><use x="63.623047" xlink:href="#d"/><use x="127.246094" xlink:href="#d"/><use x="190.869141" xlink:href="#an"/></g><path d="m460.73 609.12v-589.68" clip-path="url(#f)" fill="none" stroke="#b0b0b0" stroke-dasharray="0.8,1.32" stroke-width=".8"/><use x="460.731066" y="609.12" stroke="#000000" stroke-width=".8" xlink:href="#i"/><g transform="translate(448.01 623.72) scale(.1 -.1)"><defs><path id="l" transform="scale(.015625)" d="m794 531h1031v3560l-1122-225v575l1116 225h631v-4135h1031v-531h-2687v531z"/></defs><use xlink:href="#g"/><use x="63.623047" xlink:href="#d"/><use x="127.246094" xlink:href="#l"/><use x="190.869141" xlink:href="#d"/></g><path d="m511.38 609.12v-589.68" clip-path="url(#f)" fill="none" stroke="#b0b0b0" stroke-dasharray="0.8,1.32" stroke-width=".8"/><use x="511.375761" y="609.12" stroke="#000000" stroke-width=".8" xlink:href="#i"/><g transform="translate(498.65 623.72) scale(.1 -.1)"><use xlink:href="#g"/><use x="63.623047" xlink:href="#d"/><use x="127.246094" xlink:href="#l"/><use x="190.869141" xlink:href="#l"/></g><path d="m562.02 609.12v-589.68" clip-path="url(#f)" fill="none" stroke="#b0b0b0" stroke-dasharray="0.8,1.32" stroke-width=".8"/><use x="562.020456" y="609.12" stroke="#000000" stroke-width=".8" xlink:href="#i"/><g transform="translate(549.3 623.72) scale(.1 -.1)"><use xlink:href="#g"/><use x="63.623047" xlink:href="#d"/><use x="127.246094" xlink:href="#l"/><use x="190.869141" xlink:href="#g"/></g><path d="m612.8 609.12v-589.68" clip-path="url(#f)" fill="none" stroke="#b0b0b0" stroke-dasharray="0.8,1.32" stroke-width=".8"/><use x="612.803903" y="609.12" stroke="#000000" stroke-width=".8" xlink:href="#i"/><g transform="translate(600.08 623.72) scale(.1 -.1)"><use xlink:href="#g"/><use x="63.623047" xlink:href="#d"/><use x="127.246094" xlink:href="#l"/><use x="190.869141" xlink:href="#y"/></g><path d="m663.45 609.12v-589.68" clip-path="url(#f)" fill="none" stroke="#b0b0b0" stroke-dasharray="0.8,1.32" stroke-width=".8"/><use x="663.448598" y="609.12" stroke="#000000" stroke-width=".8" xlink:href="#i"/><g transform="translate(650.72 623.72) scale(.1 -.1)"><use xlink:href="#g"/><use x="63.623047" xlink:href="#d"/><use x="127.246094" xlink:href="#l"/><use x="190.869141" xlink:href="#ai"/></g><path d="m714.09 609.12v-589.68" clip-path="url(#f)" fill="none" stroke="#b0b0b0" stroke-dasharray="0.8,1.32" stroke-width=".8"/><use x="714.093293" y="609.12" stroke="#000000" stroke-width=".8" xlink:href="#i"/><g transform="translate(701.37 623.72) scale(.1 -.1)"><use xlink:href="#g"/><use x="63.623047" xlink:href="#d"/><use x="127.246094" xlink:href="#l"/><use x="190.869141" xlink:href="#ad"/></g><path d="m764.74 609.12v-589.68" clip-path="url(#f)" fill="none" stroke="#b0b0b0" stroke-dasharray="0.8,1.32" stroke-width=".8"/><use x="764.737988" y="609.12" stroke="#000000" stroke-width=".8" xlink:href="#i"/><g transform="translate(752.01 623.72) scale(.1 -.1)"><use xlink:href="#g"/><use x="63.623047" xlink:href="#d"/><use x="127.246094" xlink:href="#l"/><use x="190.869141" xlink:href="#ap"/></g><path d="m815.52 609.12v-589.68" clip-path="url(#f)" fill="none" stroke="#b0b0b0" stroke-dasharray="0.8,1.32" stroke-width=".8"/><use x="815.521436" y="609.12" stroke="#000000" stroke-width=".8" xlink:href="#i"/><g transform="translate(802.8 623.72) scale(.1 -.1)"><use xlink:href="#g"/><use x="63.623047" xlink:href="#d"/><use x="127.246094" xlink:href="#l"/><use x="190.869141" xlink:href="#ac"/></g><path d="m866.17 609.12v-589.68" clip-path="url(#f)" fill="none" stroke="#b0b0b0" stroke-dasharray="0.8,1.32" stroke-width=".8"/><use x="866.166131" y="609.12" stroke="#000000" stroke-width=".8" xlink:href="#i"/><g transform="translate(853.44 623.72) scale(.1 -.1)"><use xlink:href="#g"/><use x="63.623047" xlink:href="#d"/><use x="127.246094" xlink:href="#l"/><use x="190.869141" xlink:href="#ao"/></g><path d="m916.81 609.12v-589.68" clip-path="url(#f)" fill="none" stroke="#b0b0b0" stroke-dasharray="0.8,1.32" stroke-width=".8"/><use x="916.810826" y="609.12" stroke="#000000" stroke-width=".8" xlink:href="#i"/><g transform="translate(904.09 623.72) scale(.1 -.1)"><use xlink:href="#g"/><use x="63.623047" xlink:href="#d"/><use x="127.246094" xlink:href="#l"/><use x="190.869141" xlink:href="#an"/></g><path d="m967.46 609.12v-589.68" clip-path="url(#f)" fill="none" stroke="#b0b0b0" stroke-dasharray="0.8,1.32" stroke-width=".8"/><use x="967.455521" y="609.12" stroke="#000000" stroke-width=".8" xlink:href="#i"/><g transform="translate(954.73 623.72) scale(.1 -.1)"><use xlink:href="#g"/><use x="63.623047" xlink:href="#d"/><use x="127.246094" xlink:href="#g"/><use x="190.869141" xlink:href="#d"/></g><path d="m1018.2 609.12v-589.68" clip-path="url(#f)" fill="none" stroke="#b0b0b0" stroke-dasharray="0.8,1.32" stroke-width=".8"/><use x="1018.238969" y="609.12" stroke="#000000" stroke-width=".8" xlink:href="#i"/><g transform="translate(1005.5 623.72) scale(.1 -.1)"><use xlink:href="#g"/><use x="63.623047" xlink:href="#d"/><use x="127.246094" xlink:href="#g"/><use x="190.869141" xlink:href="#l"/></g><path d="m1068.9 609.12v-589.68" clip-path="url(#f)" fill="none" stroke="#b0b0b0" stroke-dasharray="0.8,1.32" stroke-width=".8"/><use x="1068.883664" y="609.12" stroke="#000000" stroke-width=".8" xlink:href="#i"/><g transform="translate(1056.2 623.72) scale(.1 -.1)"><use xlink:href="#g"/><use x="63.623047" xlink:href="#d"/><use x="127.246094" xlink:href="#g"/><use x="190.869141" xlink:href="#g"/></g><path d="m1119.5 609.12v-589.68" clip-path="url(#f)" fill="none" stroke="#b0b0b0" stroke-dasharray="0.8,1.32" stroke-width=".8"/><use x="1119.528359" y="609.12" stroke="#000000" stroke-width=".8" xlink:href="#i"/><g transform="translate(1106.8 623.72) scale(.1 -.1)"><use xlink:href="#g"/><use x="63.623047" xlink:href="#d"/><use x="127.246094" xlink:href="#g"/><use x="190.869141" xlink:href="#y"/></g><g transform="translate(524.97 639.68) scale(.13 -.13)"><defs><path id="am" transform="scale(.015625)" d="m1459 531h2063v3603h-1516v-662q0-1559-350-2594-72-212-197-347zm-921 0q418 197 537 572 303 963 303 2681v882h2775v-4135h531v-1534h-531v1003h-3306v-1003h-531v1534h222z"/><path id="m" transform="scale(.015625)" d="m2194 1759q-697 0-966-159t-269-544q0-306 202-486 202-179 548-179 479 0 768 339t289 901v128h-572zm1147 238v-1997h-575v531q-197-318-491-470t-719-152q-537 0-855 302-317 302-317 808 0 590 395 890 396 300 1180 300h807v57q0 397-261 614t-733 217q-300 0-585-72-284-72-546-216v532q315 122 612 182 297 61 578 61 760 0 1135-394 375-393 375-1193z"/><path id="j" transform="scale(.015625)" d="m188 3500h3353v-459h-1394v-3041h-566v3041h-1393v459z"/><path id="e" transform="scale(.015625)" d="m1959 3097q-462 0-731-361t-269-989 267-989q268-361 733-361 460 0 728 362 269 363 269 988 0 622-269 986-268 364-728 364zm0 487q750 0 1178-488 429-487 429-1349 0-859-429-1349-428-489-1178-489-753 0-1180 489-426 490-426 1349 0 862 426 1349 427 488 1180 488z"/><path id="o" transform="scale(.015625)" d="m581 3500h572v-1644l1622 1644h706l-1337-1353 1509-2147h-644l-1240 1766-616-625v-1141h-572v3500z"/><path id="r" transform="scale(.015625)" d="m1159 525v-1856h-578v4831h578v-531q182 312 458 463 277 152 661 152 638 0 1036-506 399-506 399-1331t-399-1332q-398-506-1036-506-384 0-661 152-276 152-458 464zm1957 1222q0 634-261 995t-717 361q-457 0-718-361t-261-995 261-995 718-361q456 0 717 361t261 995z"/><path id="n" transform="scale(.015625)" d="m3907 3500h575v-3500h-575v3500zm288 84zm-1414-2546q0 281-205 428-204 147-598 147h-819v-1154h819q394 0 598 148 205 149 205 431zm-2200 2462h578v-1428h844q669 0 1030-255 361-254 361-779t-361-782q-361-256-1030-256h-1422v3500z"/><path id="p" transform="scale(.015625)" d="m3578 3500v-3500h-572v2809l-1687-2809h-738v3500h572v-2803l1685 2803h740z"/><path id="ae" transform="scale(.015625)" d="m1181 2491q0-260 200-407 200-146 572-146h775v1103h-775q-372 0-572-144t-200-406zm-818-2491 1068 1534q-362 82-603 296-240 214-240 661 0 506 335 757 336 252 1015 252h1368v-3500h-578v1478h-715l-1032-1478h-618z"/><path id="ba" transform="scale(.015625)" d="m750 794h659v-538l-512-1e3h-403l256 1e3v538z"/><path id="ag" transform="scale(.015625)" d="m581 0v3500h2469v-459h-1891v-3041h-578z"/><path id="v" transform="scale(.015625)" d="m1384 459h1669v2582h-1209v-438q0-1287-369-1975l-91-169zm-834 0q284 125 409 391 307 659 307 1988v662h2365v-3041h460v-1343h-460v884h-2837v-884h-460v1343h216z"/></defs><use xlink:href="#am"/><use x="78.125" xlink:href="#m"/><use x="139.404297" xlink:href="#j"/><use x="197.65625" xlink:href="#m"/><use x="258.935547" xlink:href="#DejaVuSans-20"/><use x="290.722656" xlink:href="#e"/><use x="351.904297" xlink:href="#j"/><use x="410.15625" xlink:href="#o"/><use x="470.556641" xlink:href="#r"/><use x="534.033203" xlink:href="#n"/><use x="612.988281" xlink:href="#j"/><use x="671.240234" xlink:href="#p"/><use x="736.230469" xlink:href="#ae"/><use x="796.386719" xlink:href="#ba"/><use x="828.173828" xlink:href="#DejaVuSans-20"/><use x="859.960938" xlink:href="#ag"/><use x="912.5" xlink:href="#e"/><use x="973.681641" xlink:href="#v"/><use x="1042.822266" xlink:href="#n"/></g><path d="m55.296 609.12h1085.2" clip-path="url(#f)" fill="none" stroke="#b0b0b0" stroke-dasharray="0.8,1.32" stroke-width=".8"/><defs><path id="x" d="m0 0h-3.5" stroke="#000" stroke-width=".8"/></defs><use x="55.296" y="609.12" stroke="#000000" stroke-width=".8" xlink:href="#x"/><g transform="translate(41.934 612.92) scale(.1 -.1)"><use xlink:href="#d"/></g><path d="m55.296 486.78h1085.2" clip-path="url(#f)" fill="none" stroke="#b0b0b0" stroke-dasharray="0.8,1.32" stroke-width=".8"/><use x="55.296" y="486.779751" stroke="#000000" stroke-width=".8" xlink:href="#x"/><g transform="translate(29.208 490.58) scale(.1 -.1)"><use xlink:href="#ad"/><use x="63.623047" xlink:href="#d"/><use x="127.246094" xlink:href="#d"/></g><path d="m55.296 364.44h1085.2" clip-path="url(#f)" fill="none" stroke="#b0b0b0" stroke-dasharray="0.8,1.32" stroke-width=".8"/><use x="55.296" y="364.439502" stroke="#000000" stroke-width=".8" xlink:href="#x"/><g transform="translate(22.846 368.24) scale(.1 -.1)"><use xlink:href="#l"/><use x="63.623047" xlink:href="#d"/><use x="127.246094" xlink:href="#d"/><use x="190.869141" xlink:href="#d"/></g><path d="m55.296 242.1h1085.2" clip-path="url(#f)" fill="none" stroke="#b0b0b0" stroke-dasharray="0.8,1.32" stroke-width=".8"/><use x="55.296" y="242.099253" stroke="#000000" stroke-width=".8" xlink:href="#x"/><g transform="translate(22.846 245.9) scale(.1 -.1)"><use xlink:href="#l"/><use x="63.623047" xlink:href="#ad"/><use x="127.246094" xlink:href="#d"/><use x="190.869141" xlink:href="#d"/></g><path d="m55.296 119.76h1085.2" clip-path="url(#f)" fill="none" stroke="#b0b0b0" stroke-dasharray="0.8,1.32" stroke-width=".8"/><use x="55.296" y="119.759004" stroke="#000000" stroke-width=".8" xlink:href="#x"/><g transform="translate(22.846 123.56) scale(.1 -.1)"><use xlink:href="#g"/><use x="63.623047" xlink:href="#d"/><use x="127.246094" xlink:href="#d"/><use x="190.869141" xlink:href="#d"/></g><g transform="translate(16.142 466.15) rotate(-90) scale(.13 -.13)"><defs><path id="av" transform="scale(.015625)" d="m4122 4306v-665q-319 297-680 443-361 147-767 147-800 0-1225-489t-425-1414q0-922 425-1411t1225-489q406 0 767 147t680 444v-660q-331-225-702-338-370-112-782-112-1060 0-1670 648-609 649-609 1771 0 1125 609 1773 610 649 1670 649 418 0 788-111 371-111 696-333z"/><path id="w" transform="scale(.015625)" d="m1156 1613v-1154h819q394 0 600 148 206 149 206 431 0 281-206 428t-600 147h-819zm0 1428v-969h757q325 0 531 129 206 130 206 362 0 231-206 354-206 124-531 124h-757zm-575 459h1369q616 0 947-225t331-641q0-321-169-511-168-189-500-235 397-75 616-313 219-237 219-594 0-468-361-725-361-256-1030-256h-1422v3500z"/><path id="at" transform="scale(.015625)" d="m2059-325q-243-625-475-815-231-191-618-191h-460v481h338q237 0 368 113 132 112 291 531l103 262-1415 3444h609l1094-2737 1094 2737h609l-1538-3825z"/><path id="t" transform="scale(.015625)" d="m3603 3500v-3500h-578v3041h-1866v-3041h-578v3500h3022z"/><path id="k" transform="scale(.015625)" d="m581 3500h578v-1428h1866v1428h578v-3500h-578v1613h-1866v-1613h-578v3500z"/><path id="h" transform="scale(.015625)" d="m3597 1894v-281h-2644q38-594 358-905t892-311q331 0 642 81t618 244v-544q-310-131-635-200t-659-69q-838 0-1327 487-489 488-489 1320 0 859 464 1363 464 505 1252 505 706 0 1117-455 411-454 411-1235zm-575 169q-6 471-264 752-258 282-683 282-481 0-770-272t-333-766l2050 4z"/><path id="s" transform="scale(.015625)" d="m238 0v478q568 88 743 481 213 554 213 1969v572h2365v-3500h-575v3041h-1215v-347q0-1350-275-1956-294-647-1256-738z"/><path id="as" transform="scale(.015625)" d="m2625 0v1472h-1072q-478 0-797 297-287 269-287 844v887h575v-834q0-366 162-550 166-185 491-185h928v1569h575v-3500h-575z"/><path id="q" transform="scale(.015625)" d="m3122 3366v-538q-244 135-489 202t-495 67q-560 0-870-355-309-354-309-995t309-996q310-354 870-354 250 0 495 67t489 202v-532q-241-112-499-168-257-57-548-57-791 0-1257 497-465 497-465 1341 0 856 470 1346 471 491 1290 491 265 0 518-55 253-54 491-163z"/><path id="aa" transform="scale(.015625)" d="m3513 3500-1266-1703 1331-1797h-678l-1019 1375-1018-1375h-679l1360 1831-1244 1669h678l928-1247 928 1247h679z"/><path id="ah" transform="scale(.015625)" d="m1991 3584q750 0 1178-488 428-487 428-1349 0-859-428-1349-428-489-1178-489-753 0-1169 475t-438 1363l-18 716q-16 371-16 500 0 500 181 868 285 578 777 828t1317 257q381 3 550 56l159-456q-153-63-293-66l-782-53q-393-28-631-166-622-365-681-843l-22-175q406 371 1066 371zm0-487q-463 0-732-361-268-361-268-989t267-989 733-361q459 0 728 362 269 363 269 988 0 622-269 986t-728 364z"/><path id="aj" transform="scale(.015625)" d="m2753 2072q669 0 1030-255 361-254 361-779t-361-782q-361-256-1030-256h-1425v3041h-1134v459h1712v-1428h847zm-25-459h-822v-1154h822q394 0 598 148 205 149 205 431 0 281-205 428-204 147-598 147z"/></defs><use xlink:href="#av"/><use x="69.824219" xlink:href="#e"/><use x="131.005859" xlink:href="#w"/><use x="189.941406" xlink:href="#e"/><use x="251.123047" xlink:href="#o"/><use x="311.523438" xlink:href="#at"/><use x="370.703125" xlink:href="#t"/><use x="436.083984" xlink:href="#k"/><use x="501.464844" xlink:href="#e"/><use x="562.646484" xlink:href="#h"/><use x="624.169922" xlink:href="#DejaVuSans-20"/><use x="655.957031" xlink:href="#o"/><use x="716.357422" xlink:href="#e"/><use x="777.539062" xlink:href="#s"/><use x="841.455078" xlink:href="#p"/><use x="906.445312" xlink:href="#as"/><use x="965.527344" xlink:href="#h"/><use x="1027.050781" xlink:href="#q"/><use x="1082.03125" xlink:href="#j"/><use x="1140.283203" xlink:href="#w"/><use x="1199.21875" xlink:href="#e"/><use x="1260.400391" xlink:href="#DejaVuSans-20"/><use x="1292.1875" xlink:href="#e"/><use x="1353.369141" xlink:href="#j"/><use x="1411.621094" xlink:href="#o"/><use x="1472.021484" xlink:href="#r"/><use x="1535.498047" xlink:href="#n"/><use x="1614.453125" xlink:href="#j"/><use x="1672.705078" xlink:href="#n"/><use x="1751.660156" xlink:href="#aa"/><use x="1810.839844" xlink:href="#DejaVuSans-20"/><use x="1842.626953" xlink:href="#e"/><use x="1903.808594" xlink:href="#ah"/><use x="1965.478516" xlink:href="#aj"/><use x="2036.132812" xlink:href="#h"/><use x="2097.65625" xlink:href="#o"/><use x="2158.056641" xlink:href="#j"/><use x="2216.308594" xlink:href="#e"/><use x="2277.490234" xlink:href="#w"/></g><path d="m1114.5 42.195-3.4688 0.97872-4.3013 3.4255-4.1626 2.2021-4.3013 0.73404-4.3013 1.7128-8.4639 2.4468-4.1626 1.7128-4.3013 1.2234-3.8851 1.7128-4.3013 3.4255-4.3013 1.2234-4.1626 2.2021-4.3013 2.9362-4.1626 1.7128-4.3013 2.6915-8.4639 3.4255-4.3013 1.4681-4.1626 2.2021-4.3013 0.97872-3.8851 1.9574-4.3013 1.7128-8.4639 5.383-8.4639 4.4042-4.3013 3.6702-4.3013 1.7128-4.1626 1.2234-4.3013 2.4468-4.1626 0.97872-4.3013 2.6915-4.0238 2.2021-4.3013 3.6702-4.3013 1.9574-4.1626 2.6915-4.3013 2.4468-4.1626 0.97872-4.3013 1.7128-4.3013 2.9362-4.1626 1.7128-4.3013 0.97872-4.1626 1.2234-4.3013 1.4681-3.8851 1.9574-4.3013 3.1808-4.3013 1.9574-4.1626 0.97872-4.3013 1.9574-4.1626 1.2234-4.3013 1.7128-4.3013 1.2234-4.1626 2.9362-8.4639 2.4468-4.3013 2.4468-3.8851 0.73404-4.3013 2.9362-4.3013 2.2021-4.1626 3.6702-8.4639 4.8936-4.3013 1.7128-4.3013 2.4468-4.1626 2.6915-4.3013 1.2234-8.4639 3.9149-3.8851 1.2234-4.3013 4.1596-4.3013 3.4255-4.1626 1.7128-4.3013 2.2021-4.1626 0.73404-4.3013 2.4468-4.3013 2.2021-4.1626 0.97872-8.4639 3.9149-4.3013 2.2021-4.0238 3.6702-4.3013 4.1596-4.3013 2.2021-4.1626 1.2234-4.3013 3.6702-4.1626 1.2234-4.3013 0.97872-4.3013 1.7128-4.1626 1.2234-4.3013 2.2021-4.1626 1.7128-4.3013 2.9362-3.8851 3.1808-4.3013 3.6702-4.3013 2.2021-4.1626 2.4468-8.4639 2.4468-4.3013 2.2021-4.3013 1.9574-4.1626 1.2234-4.3013 3.1808-4.1626 1.7128-4.3013 1.2234-3.8851 1.4681-8.6027 1.9574-4.1626 1.9574-4.3013 1.7128-4.1626 0.97872-4.3013 1.4681-12.765 5.1383-4.1626 2.2021-4.3013 1.7128-3.8851 0.48936-4.3013 3.4255-4.3013 2.4468-4.1626 1.7128-4.3013 2.9362-4.1626 0.73404-4.3013 1.4681-4.3013 1.2234-4.1626 2.2021-4.3013 1.7128-4.1626 1.2234-4.3013 1.4681-4.0238 1.2234-4.3013 2.2021-4.3013 1.4681-8.4639 5.383-4.1626 1.4681-4.3013 0.73404-4.3013 0.97872-4.1626 1.4681-8.4639 3.9149-8.1864 4.1596-4.3013 3.9149-4.3013 1.9574-4.1626 1.4681-4.3013 3.6702-4.1626 1.2234-4.3013 0.24468-4.3013 0.73404-4.1626 1.7128-4.3013 3.4255-4.1626 0.73404-4.3013 1.9574-3.8851 2.6915-4.3013 1.7128-50.645 19.085-50.783 23.489-101.29 40.617-50.645 22.511-50.783 23.245-50.645 20.798-50.645 23v0" clip-path="url(#f)" fill="none" stroke="#000" stroke-linecap="square" stroke-width="2"/><defs><path id="b" d="m0 1.25c0.3315 0 0.64948-0.13171 0.88388-0.36612 0.23441-0.23441 0.36612-0.55238 0.36612-0.88388s-0.13171-0.64948-0.36612-0.88388c-0.23441-0.23441-0.55238-0.36612-0.88388-0.36612s-0.64948 0.13171-0.88388 0.36612c-0.23441 0.23441-0.36612 0.55238-0.36612 0.88388s0.13171 0.64948 0.36612 0.88388c0.23441 0.23441 0.55238 0.36612 0.88388 0.36612z" stroke="#000"/></defs><g clip-path="url(#f)" stroke="#000000"><use x="1114.533266" y="42.195286" xlink:href="#b"/><use x="1111.064451" y="43.174008" xlink:href="#b"/><use x="1106.763121" y="46.599535" xlink:href="#b"/><use x="1102.600543" y="48.80166" xlink:href="#b"/><use x="1098.299213" y="49.535701" xlink:href="#b"/><use x="1093.997883" y="51.248465" xlink:href="#b"/><use x="1089.835305" y="52.471867" xlink:href="#b"/><use x="1085.533975" y="53.69527" xlink:href="#b"/><use x="1081.371397" y="55.408033" xlink:href="#b"/><use x="1077.070067" y="56.631436" xlink:href="#b"/><use x="1073.184994" y="58.344199" xlink:href="#b"/><use x="1068.883664" y="61.769726" xlink:href="#b"/><use x="1064.582334" y="62.993129" xlink:href="#b"/><use x="1060.419756" y="65.195253" xlink:href="#b"/><use x="1056.118426" y="68.131419" xlink:href="#b"/><use x="1051.955848" y="69.844183" xlink:href="#b"/><use x="1047.654518" y="72.535668" xlink:href="#b"/><use x="1043.353188" y="74.248432" xlink:href="#b"/><use x="1039.19061" y="75.961195" xlink:href="#b"/><use x="1034.88928" y="77.429278" xlink:href="#b"/><use x="1030.726702" y="79.631402" xlink:href="#b"/><use x="1026.425372" y="80.610124" xlink:href="#b"/><use x="1022.540299" y="82.567568" xlink:href="#b"/><use x="1018.238969" y="84.280332" xlink:href="#b"/><use x="1013.937639" y="86.971817" xlink:href="#b"/><use x="1009.775061" y="89.663303" xlink:href="#b"/><use x="1005.473731" y="91.865427" xlink:href="#b"/><use x="1001.311153" y="94.067552" xlink:href="#b"/><use x="997.009823" y="97.737759" xlink:href="#b"/><use x="992.708493" y="99.450523" xlink:href="#b"/><use x="988.545915" y="100.673925" xlink:href="#b"/><use x="984.244585" y="103.12073" xlink:href="#b"/><use x="980.082007" y="104.099452" xlink:href="#b"/><use x="975.780677" y="106.790938" xlink:href="#b"/><use x="971.756852" y="108.993062" xlink:href="#b"/><use x="967.455521" y="112.66327" xlink:href="#b"/><use x="963.154191" y="114.620714" xlink:href="#b"/><use x="958.991613" y="117.312199" xlink:href="#b"/><use x="954.690283" y="119.759004" xlink:href="#b"/><use x="950.527705" y="120.737726" xlink:href="#b"/><use x="946.226375" y="122.45049" xlink:href="#b"/><use x="941.925045" y="125.386656" xlink:href="#b"/><use x="937.762467" y="127.099419" xlink:href="#b"/><use x="933.461137" y="128.078141" xlink:href="#b"/><use x="929.298559" y="129.301544" xlink:href="#b"/><use x="924.997229" y="130.769627" xlink:href="#b"/><use x="921.112157" y="132.727071" xlink:href="#b"/><use x="916.810826" y="135.907917" xlink:href="#b"/><use x="912.509496" y="137.865361" xlink:href="#b"/><use x="908.346918" y="138.844083" xlink:href="#b"/><use x="904.045588" y="140.801527" xlink:href="#b"/><use x="899.88301" y="142.024929" xlink:href="#b"/><use x="895.58168" y="143.737693" xlink:href="#b"/><use x="891.28035" y="144.961095" xlink:href="#b"/><use x="887.117772" y="147.897261" xlink:href="#b"/><use x="882.816442" y="149.120664" xlink:href="#b"/><use x="878.653864" y="150.344066" xlink:href="#b"/><use x="874.352534" y="152.790871" xlink:href="#b"/><use x="870.467461" y="153.524913" xlink:href="#b"/><use x="866.166131" y="156.461079" xlink:href="#b"/><use x="861.864801" y="158.663203" xlink:href="#b"/><use x="857.702223" y="162.333411" xlink:href="#b"/><use x="853.400893" y="164.780216" xlink:href="#b"/><use x="849.238315" y="167.227021" xlink:href="#b"/><use x="844.936985" y="168.939784" xlink:href="#b"/><use x="840.635655" y="171.386589" xlink:href="#b"/><use x="836.473077" y="174.078075" xlink:href="#b"/><use x="832.171747" y="175.301477" xlink:href="#b"/><use x="828.009169" y="177.258921" xlink:href="#b"/><use x="823.707839" y="179.216365" xlink:href="#b"/><use x="819.822766" y="180.439768" xlink:href="#b"/><use x="815.521436" y="184.599336" xlink:href="#b"/><use x="811.220106" y="188.024863" xlink:href="#b"/><use x="807.057528" y="189.737627" xlink:href="#b"/><use x="802.756198" y="191.939751" xlink:href="#b"/><use x="798.59362" y="192.673793" xlink:href="#b"/><use x="794.29229" y="195.120598" xlink:href="#b"/><use x="789.99096" y="197.322722" xlink:href="#b"/><use x="785.828382" y="198.301444" xlink:href="#b"/><use x="781.527052" y="200.258888" xlink:href="#b"/><use x="777.364474" y="202.216332" xlink:href="#b"/><use x="773.063144" y="204.418456" xlink:href="#b"/><use x="769.039319" y="208.088664" xlink:href="#b"/><use x="764.737988" y="212.248232" xlink:href="#b"/><use x="760.436658" y="214.450357" xlink:href="#b"/><use x="756.274081" y="215.673759" xlink:href="#b"/><use x="751.97275" y="219.343967" xlink:href="#b"/><use x="747.810173" y="220.567369" xlink:href="#b"/><use x="743.508842" y="221.546091" xlink:href="#b"/><use x="739.207512" y="223.258855" xlink:href="#b"/><use x="735.044934" y="224.482257" xlink:href="#b"/><use x="730.743604" y="226.684382" xlink:href="#b"/><use x="726.581026" y="228.397145" xlink:href="#b"/><use x="722.279696" y="231.333311" xlink:href="#b"/><use x="718.394624" y="234.514158" xlink:href="#b"/><use x="714.093293" y="238.184365" xlink:href="#b"/><use x="709.791963" y="240.38649" xlink:href="#b"/><use x="705.629386" y="242.833295" xlink:href="#b"/><use x="701.328055" y="244.056697" xlink:href="#b"/><use x="697.165478" y="245.2801" xlink:href="#b"/><use x="692.864147" y="247.482224" xlink:href="#b"/><use x="688.562817" y="249.439668" xlink:href="#b"/><use x="684.400239" y="250.663071" xlink:href="#b"/><use x="680.098909" y="253.843917" xlink:href="#b"/><use x="675.936331" y="255.55668" xlink:href="#b"/><use x="671.635001" y="256.780083" xlink:href="#b"/><use x="667.749929" y="258.248166" xlink:href="#b"/><use x="663.448598" y="259.226888" xlink:href="#b"/><use x="659.147268" y="260.20561" xlink:href="#b"/><use x="654.98469" y="262.163054" xlink:href="#b"/><use x="650.68336" y="263.875817" xlink:href="#b"/><use x="646.520783" y="264.854539" xlink:href="#b"/><use x="642.219452" y="266.322622" xlink:href="#b"/><use x="637.918122" y="268.035386" xlink:href="#b"/><use x="633.755544" y="269.748149" xlink:href="#b"/><use x="629.454214" y="271.460913" xlink:href="#b"/><use x="625.291636" y="273.663037" xlink:href="#b"/><use x="620.990306" y="275.375801" xlink:href="#b"/><use x="617.105234" y="275.865162" xlink:href="#b"/><use x="612.803903" y="279.290689" xlink:href="#b"/><use x="608.502573" y="281.737494" xlink:href="#b"/><use x="604.339995" y="283.450257" xlink:href="#b"/><use x="600.038665" y="286.386423" xlink:href="#b"/><use x="595.876087" y="287.120465" xlink:href="#b"/><use x="591.574757" y="288.588548" xlink:href="#b"/><use x="587.273427" y="289.81195" xlink:href="#b"/><use x="583.110849" y="292.014075" xlink:href="#b"/><use x="578.809519" y="293.726838" xlink:href="#b"/><use x="574.646941" y="294.950241" xlink:href="#b"/><use x="570.345611" y="296.418324" xlink:href="#b"/><use x="566.321786" y="297.641726" xlink:href="#b"/><use x="562.020456" y="299.843851" xlink:href="#b"/><use x="557.719125" y="301.311934" xlink:href="#b"/><use x="553.556548" y="304.003419" xlink:href="#b"/><use x="549.255217" y="306.694905" xlink:href="#b"/><use x="545.09264" y="308.162988" xlink:href="#b"/><use x="540.79131" y="308.897029" xlink:href="#b"/><use x="536.489979" y="309.875751" xlink:href="#b"/><use x="532.327402" y="311.343834" xlink:href="#b"/><use x="528.026071" y="313.301278" xlink:href="#b"/><use x="523.863494" y="315.258722" xlink:href="#b"/><use x="519.562163" y="317.460846" xlink:href="#b"/><use x="515.677091" y="319.41829" xlink:href="#b"/><use x="511.375761" y="323.333178" xlink:href="#b"/><use x="507.07443" y="325.290622" xlink:href="#b"/><use x="502.911853" y="326.758705" xlink:href="#b"/><use x="498.610522" y="330.428913" xlink:href="#b"/><use x="494.447945" y="331.652315" xlink:href="#b"/><use x="490.146614" y="331.896996" xlink:href="#b"/><use x="485.845284" y="332.631037" xlink:href="#b"/><use x="481.682707" y="334.343801" xlink:href="#b"/><use x="477.381376" y="337.769328" xlink:href="#b"/><use x="473.218799" y="338.503369" xlink:href="#b"/><use x="468.917468" y="340.460813" xlink:href="#b"/><use x="465.032396" y="343.152299" xlink:href="#b"/><use x="460.731066" y="344.865062" xlink:href="#b"/><use x="410.086371" y="363.950141" xlink:href="#b"/><use x="359.302923" y="387.439469" xlink:href="#b"/><use x="308.658228" y="407.74795" xlink:href="#b"/><use x="258.013533" y="428.056432" xlink:href="#b"/><use x="207.368838" y="450.567037" xlink:href="#b"/><use x="156.58539" y="473.811685" xlink:href="#b"/><use x="105.940695" y="494.609527" xlink:href="#b"/><use x="55.296" y="517.609494" xlink:href="#b"/></g><path d="m1114.5 399.18h-7.7701l-8.4639 0.48936h-8.4639l-4.3013 0.24468h-12.349l-4.3013 0.24468h-8.4639l-4.3013 0.24468h-4.1626l-4.3013 0.48936h-4.3013l-4.1626 0.24468h-4.3013l-4.1626 0.24468h-20.952l-8.4639 0.48936h-29.554l-4.3013 0.24468h-12.765l-8.4639 0.48936h-4.3013l-4.1626 0.24468h-4.3013l-4.1626 0.48936h-8.1864l-8.6027 0.48936h-16.928l-4.3013 0.24468h-4.1626l-8.4639 0.48936h-8.1864l-8.6027 0.48936-4.1626 0.48936h-17.067l-8.4639 0.48936h-4.1626l-4.3013 0.24468h-3.8851l-8.6027 0.48936h-8.4639l-4.1626 0.24468h-17.067l-12.488 0.73404-4.3013 0.48936h-4.3013l-4.1626 0.24468h-12.765l-4.3013 0.24468h-8.4639l-4.1626 0.24468-4.3013 0.73404h-3.8851l-8.6027 0.48936-4.1626 0.73404h-17.067l-8.4639 0.48936h-12.349l-4.3013 0.24468h-4.3013l-4.1626 0.24468-4.3013 0.97872-4.1626 0.24468h-4.3013l-4.3013 0.48936-4.1626 0.73404h-16.65l-4.3013 0.24468h-4.3013l-4.1626 0.48936-17.067 0.97872-8.4639 1.4681-4.1626 0.24468-4.3013 0.48936h-4.0238l-4.3013 0.24468-8.4639 0.97872-8.4639 0.48936-4.3013 0.73404h-4.3013l-8.4639 0.48936-4.1626 0.73404-4.3013 0.48936h-3.8851l-4.3013 0.24468h-12.765l-4.1626 0.48936-4.3013 0.73404-4.3013 0.24468h-4.1626l-16.65 0.97872-4.3013 0.48936-50.645 5.383-50.783 4.8936-50.645 6.3617-50.645 7.3404-50.645 11.989-50.783 11.745-50.645 12.479-50.645 15.66v0" clip-path="url(#f)" fill="none" stroke="#1f77b4" stroke-linecap="square" stroke-width="2"/><defs><path id="a" d="m0 1.25c0.3315 0 0.64948-0.13171 0.88388-0.36612 0.23441-0.23441 0.36612-0.55238 0.36612-0.88388s-0.13171-0.64948-0.36612-0.88388c-0.23441-0.23441-0.55238-0.36612-0.88388-0.36612s-0.64948 0.13171-0.88388 0.36612c-0.23441 0.23441-0.36612 0.55238-0.36612 0.88388s0.13171 0.64948 0.36612 0.88388c0.23441 0.23441 0.55238 0.36612 0.88388 0.36612z" stroke="#1f77b4"/></defs><g clip-path="url(#f)" fill="#1f77b4" stroke="#1f77b4"><use x="1114.533266" y="399.184133" xlink:href="#a"/><use x="1111.064451" y="399.184133" xlink:href="#a"/><use x="1106.763121" y="399.184133" xlink:href="#a"/><use x="1102.600543" y="399.428813" xlink:href="#a"/><use x="1098.299213" y="399.673494" xlink:href="#a"/><use x="1093.997883" y="399.673494" xlink:href="#a"/><use x="1089.835305" y="399.673494" xlink:href="#a"/><use x="1085.533975" y="399.918174" xlink:href="#a"/><use x="1081.371397" y="399.918174" xlink:href="#a"/><use x="1077.070067" y="399.918174" xlink:href="#a"/><use x="1073.184994" y="399.918174" xlink:href="#a"/><use x="1068.883664" y="400.162855" xlink:href="#a"/><use x="1064.582334" y="400.162855" xlink:href="#a"/><use x="1060.419756" y="400.162855" xlink:href="#a"/><use x="1056.118426" y="400.407535" xlink:href="#a"/><use x="1051.955848" y="400.407535" xlink:href="#a"/><use x="1047.654518" y="400.896896" xlink:href="#a"/><use x="1043.353188" y="400.896896" xlink:href="#a"/><use x="1039.19061" y="401.141577" xlink:href="#a"/><use x="1034.88928" y="401.141577" xlink:href="#a"/><use x="1030.726702" y="401.386257" xlink:href="#a"/><use x="1026.425372" y="401.386257" xlink:href="#a"/><use x="1022.540299" y="401.386257" xlink:href="#a"/><use x="1018.238969" y="401.386257" xlink:href="#a"/><use x="1013.937639" y="401.386257" xlink:href="#a"/><use x="1009.775061" y="401.386257" xlink:href="#a"/><use x="1005.473731" y="401.630938" xlink:href="#a"/><use x="1001.311153" y="401.875618" xlink:href="#a"/><use x="997.009823" y="401.875618" xlink:href="#a"/><use x="992.708493" y="401.875618" xlink:href="#a"/><use x="988.545915" y="401.875618" xlink:href="#a"/><use x="984.244585" y="401.875618" xlink:href="#a"/><use x="980.082007" y="401.875618" xlink:href="#a"/><use x="975.780677" y="401.875618" xlink:href="#a"/><use x="971.756852" y="401.875618" xlink:href="#a"/><use x="967.455521" y="402.120299" xlink:href="#a"/><use x="963.154191" y="402.120299" xlink:href="#a"/><use x="958.991613" y="402.120299" xlink:href="#a"/><use x="954.690283" y="402.120299" xlink:href="#a"/><use x="950.527705" y="402.364979" xlink:href="#a"/><use x="946.226375" y="402.60966" xlink:href="#a"/><use x="941.925045" y="402.60966" xlink:href="#a"/><use x="937.762467" y="402.85434" xlink:href="#a"/><use x="933.461137" y="402.85434" xlink:href="#a"/><use x="929.298559" y="403.343701" xlink:href="#a"/><use x="924.997229" y="403.343701" xlink:href="#a"/><use x="921.112157" y="403.343701" xlink:href="#a"/><use x="916.810826" y="403.588382" xlink:href="#a"/><use x="912.509496" y="403.833062" xlink:href="#a"/><use x="908.346918" y="403.833062" xlink:href="#a"/><use x="904.045588" y="403.833062" xlink:href="#a"/><use x="899.88301" y="403.833062" xlink:href="#a"/><use x="895.58168" y="403.833062" xlink:href="#a"/><use x="891.28035" y="404.077743" xlink:href="#a"/><use x="887.117772" y="404.077743" xlink:href="#a"/><use x="882.816442" y="404.322423" xlink:href="#a"/><use x="878.653864" y="404.567104" xlink:href="#a"/><use x="874.352534" y="404.567104" xlink:href="#a"/><use x="870.467461" y="404.567104" xlink:href="#a"/><use x="866.166131" y="404.811784" xlink:href="#a"/><use x="861.864801" y="405.056465" xlink:href="#a"/><use x="857.702223" y="405.545826" xlink:href="#a"/><use x="853.400893" y="405.545826" xlink:href="#a"/><use x="849.238315" y="405.545826" xlink:href="#a"/><use x="844.936985" y="405.545826" xlink:href="#a"/><use x="840.635655" y="405.545826" xlink:href="#a"/><use x="836.473077" y="405.790506" xlink:href="#a"/><use x="832.171747" y="406.035187" xlink:href="#a"/><use x="828.009169" y="406.035187" xlink:href="#a"/><use x="823.707839" y="406.279867" xlink:href="#a"/><use x="819.822766" y="406.279867" xlink:href="#a"/><use x="815.521436" y="406.524548" xlink:href="#a"/><use x="811.220106" y="406.769228" xlink:href="#a"/><use x="807.057528" y="406.769228" xlink:href="#a"/><use x="802.756198" y="406.769228" xlink:href="#a"/><use x="798.59362" y="407.013909" xlink:href="#a"/><use x="794.29229" y="407.013909" xlink:href="#a"/><use x="789.99096" y="407.013909" xlink:href="#a"/><use x="785.828382" y="407.013909" xlink:href="#a"/><use x="781.527052" y="407.013909" xlink:href="#a"/><use x="777.364474" y="407.258589" xlink:href="#a"/><use x="773.063144" y="407.50327" xlink:href="#a"/><use x="769.039319" y="407.74795" xlink:href="#a"/><use x="764.737988" y="408.237311" xlink:href="#a"/><use x="760.436658" y="408.237311" xlink:href="#a"/><use x="756.274081" y="408.481992" xlink:href="#a"/><use x="751.97275" y="408.481992" xlink:href="#a"/><use x="747.810173" y="408.481992" xlink:href="#a"/><use x="743.508842" y="408.481992" xlink:href="#a"/><use x="739.207512" y="408.726672" xlink:href="#a"/><use x="735.044934" y="408.726672" xlink:href="#a"/><use x="730.743604" y="408.726672" xlink:href="#a"/><use x="726.581026" y="408.971353" xlink:href="#a"/><use x="722.279696" y="409.705394" xlink:href="#a"/><use x="718.394624" y="409.705394" xlink:href="#a"/><use x="714.093293" y="409.950075" xlink:href="#a"/><use x="709.791963" y="410.194755" xlink:href="#a"/><use x="705.629386" y="410.928797" xlink:href="#a"/><use x="701.328055" y="410.928797" xlink:href="#a"/><use x="697.165478" y="410.928797" xlink:href="#a"/><use x="692.864147" y="410.928797" xlink:href="#a"/><use x="688.562817" y="410.928797" xlink:href="#a"/><use x="684.400239" y="411.173477" xlink:href="#a"/><use x="680.098909" y="411.418158" xlink:href="#a"/><use x="675.936331" y="411.418158" xlink:href="#a"/><use x="671.635001" y="411.418158" xlink:href="#a"/><use x="667.749929" y="411.418158" xlink:href="#a"/><use x="663.448598" y="411.662838" xlink:href="#a"/><use x="659.147268" y="411.662838" xlink:href="#a"/><use x="654.98469" y="411.907519" xlink:href="#a"/><use x="650.68336" y="412.886241" xlink:href="#a"/><use x="646.520783" y="413.130921" xlink:href="#a"/><use x="642.219452" y="413.130921" xlink:href="#a"/><use x="637.918122" y="413.620282" xlink:href="#a"/><use x="633.755544" y="414.354324" xlink:href="#a"/><use x="629.454214" y="414.354324" xlink:href="#a"/><use x="625.291636" y="414.354324" xlink:href="#a"/><use x="620.990306" y="414.354324" xlink:href="#a"/><use x="617.105234" y="414.354324" xlink:href="#a"/><use x="612.803903" y="414.599004" xlink:href="#a"/><use x="608.502573" y="414.599004" xlink:href="#a"/><use x="604.339995" y="415.088365" xlink:href="#a"/><use x="600.038665" y="415.333046" xlink:href="#a"/><use x="595.876087" y="415.577726" xlink:href="#a"/><use x="591.574757" y="415.822407" xlink:href="#a"/><use x="587.273427" y="416.067087" xlink:href="#a"/><use x="583.110849" y="416.801129" xlink:href="#a"/><use x="578.809519" y="417.53517" xlink:href="#a"/><use x="574.646941" y="417.779851" xlink:href="#a"/><use x="570.345611" y="418.269212" xlink:href="#a"/><use x="566.321786" y="418.269212" xlink:href="#a"/><use x="562.020456" y="418.513892" xlink:href="#a"/><use x="557.719125" y="419.003253" xlink:href="#a"/><use x="553.556548" y="419.492614" xlink:href="#a"/><use x="549.255217" y="419.737295" xlink:href="#a"/><use x="545.09264" y="419.981975" xlink:href="#a"/><use x="540.79131" y="420.716017" xlink:href="#a"/><use x="536.489979" y="420.716017" xlink:href="#a"/><use x="532.327402" y="420.960697" xlink:href="#a"/><use x="528.026071" y="421.205378" xlink:href="#a"/><use x="523.863494" y="421.939419" xlink:href="#a"/><use x="519.562163" y="422.42878" xlink:href="#a"/><use x="515.677091" y="422.42878" xlink:href="#a"/><use x="511.375761" y="422.673461" xlink:href="#a"/><use x="507.07443" y="422.673461" xlink:href="#a"/><use x="502.911853" y="422.673461" xlink:href="#a"/><use x="498.610522" y="422.673461" xlink:href="#a"/><use x="494.447945" y="423.162822" xlink:href="#a"/><use x="490.146614" y="423.896863" xlink:href="#a"/><use x="485.845284" y="424.141544" xlink:href="#a"/><use x="481.682707" y="424.141544" xlink:href="#a"/><use x="477.381376" y="424.386224" xlink:href="#a"/><use x="473.218799" y="424.630905" xlink:href="#a"/><use x="468.917468" y="424.875585" xlink:href="#a"/><use x="465.032396" y="425.120266" xlink:href="#a"/><use x="460.731066" y="425.609627" xlink:href="#a"/><use x="410.086371" y="430.992598" xlink:href="#a"/><use x="359.302923" y="435.886207" xlink:href="#a"/><use x="308.658228" y="442.2479" xlink:href="#a"/><use x="258.013533" y="449.588315" xlink:href="#a"/><use x="207.368838" y="461.57766" xlink:href="#a"/><use x="156.58539" y="473.322324" xlink:href="#a"/><use x="105.940695" y="485.801029" xlink:href="#a"/><use x="55.296" y="501.460581" xlink:href="#a"/></g><path d="m1114.5 571.93h-7.7701l-4.1626 0.24468h-29.416l-4.3013 0.24468h-33.994l-4.1626 0.24468h-25.253l-4.1626 0.24468h-84.5l-4.3013 0.24468h-139.45l-4.0238 0.24468h-38.296l-4.1626 0.24468h-71.596l-4.3013 0.24468h-12.765l-4.1626 0.24468h-76.036l-4.1626 0.48936-4.3013 0.24468h-33.578l-4.3013 0.24468h-38.157l-4.3013 0.24468h-8.1864l-50.645 0.73404-101.43 1.9574-50.645 0.73404-50.645 1.7128-50.783 3.1808-50.645 2.2021-50.645 2.4468v0" clip-path="url(#f)" fill="none" stroke="#ff7f0e" stroke-linecap="square" stroke-width="2"/><defs><path id="c" d="m0 1.25c0.3315 0 0.64948-0.13171 0.88388-0.36612 0.23441-0.23441 0.36612-0.55238 0.36612-0.88388s-0.13171-0.64948-0.36612-0.88388c-0.23441-0.23441-0.55238-0.36612-0.88388-0.36612s-0.64948 0.13171-0.88388 0.36612c-0.23441 0.23441-0.36612 0.55238-0.36612 0.88388s0.13171 0.64948 0.36612 0.88388c0.23441 0.23441 0.55238 0.36612 0.88388 0.36612z" stroke="#ff7f0e"/></defs><g clip-path="url(#f)" fill="#ff7f0e" stroke="#ff7f0e"><use x="1114.533266" y="571.928564" xlink:href="#c"/><use x="1111.064451" y="571.928564" xlink:href="#c"/><use x="1106.763121" y="571.928564" xlink:href="#c"/><use x="1102.600543" y="572.173245" xlink:href="#c"/><use x="1098.299213" y="572.173245" xlink:href="#c"/><use x="1093.997883" y="572.173245" xlink:href="#c"/><use x="1089.835305" y="572.173245" xlink:href="#c"/><use x="1085.533975" y="572.173245" xlink:href="#c"/><use x="1081.371397" y="572.173245" xlink:href="#c"/><use x="1077.070067" y="572.173245" xlink:href="#c"/><use x="1073.184994" y="572.173245" xlink:href="#c"/><use x="1068.883664" y="572.417925" xlink:href="#c"/><use x="1064.582334" y="572.417925" xlink:href="#c"/><use x="1060.419756" y="572.417925" xlink:href="#c"/><use x="1056.118426" y="572.417925" xlink:href="#c"/><use x="1051.955848" y="572.417925" xlink:href="#c"/><use x="1047.654518" y="572.417925" xlink:href="#c"/><use x="1043.353188" y="572.417925" xlink:href="#c"/><use x="1039.19061" y="572.417925" xlink:href="#c"/><use x="1034.88928" y="572.417925" xlink:href="#c"/><use x="1030.726702" y="572.662606" xlink:href="#c"/><use x="1026.425372" y="572.662606" xlink:href="#c"/><use x="1022.540299" y="572.662606" xlink:href="#c"/><use x="1018.238969" y="572.662606" xlink:href="#c"/><use x="1013.937639" y="572.662606" xlink:href="#c"/><use x="1009.775061" y="572.662606" xlink:href="#c"/><use x="1005.473731" y="572.662606" xlink:href="#c"/><use x="1001.311153" y="572.907286" xlink:href="#c"/><use x="997.009823" y="572.907286" xlink:href="#c"/><use x="992.708493" y="572.907286" xlink:href="#c"/><use x="988.545915" y="572.907286" xlink:href="#c"/><use x="984.244585" y="572.907286" xlink:href="#c"/><use x="980.082007" y="572.907286" xlink:href="#c"/><use x="975.780677" y="572.907286" xlink:href="#c"/><use x="971.756852" y="572.907286" xlink:href="#c"/><use x="967.455521" y="572.907286" xlink:href="#c"/><use x="963.154191" y="572.907286" xlink:href="#c"/><use x="958.991613" y="572.907286" xlink:href="#c"/><use x="954.690283" y="572.907286" xlink:href="#c"/><use x="950.527705" y="572.907286" xlink:href="#c"/><use x="946.226375" y="572.907286" xlink:href="#c"/><use x="941.925045" y="572.907286" xlink:href="#c"/><use x="937.762467" y="572.907286" xlink:href="#c"/><use x="933.461137" y="572.907286" xlink:href="#c"/><use x="929.298559" y="572.907286" xlink:href="#c"/><use x="924.997229" y="572.907286" xlink:href="#c"/><use x="921.112157" y="572.907286" xlink:href="#c"/><use x="916.810826" y="572.907286" xlink:href="#c"/><use x="912.509496" y="573.151967" xlink:href="#c"/><use x="908.346918" y="573.151967" xlink:href="#c"/><use x="904.045588" y="573.151967" xlink:href="#c"/><use x="899.88301" y="573.151967" xlink:href="#c"/><use x="895.58168" y="573.151967" xlink:href="#c"/><use x="891.28035" y="573.151967" xlink:href="#c"/><use x="887.117772" y="573.151967" xlink:href="#c"/><use x="882.816442" y="573.151967" xlink:href="#c"/><use x="878.653864" y="573.151967" xlink:href="#c"/><use x="874.352534" y="573.151967" xlink:href="#c"/><use x="870.467461" y="573.151967" xlink:href="#c"/><use x="866.166131" y="573.151967" xlink:href="#c"/><use x="861.864801" y="573.151967" xlink:href="#c"/><use x="857.702223" y="573.151967" xlink:href="#c"/><use x="853.400893" y="573.151967" xlink:href="#c"/><use x="849.238315" y="573.151967" xlink:href="#c"/><use x="844.936985" y="573.151967" xlink:href="#c"/><use x="840.635655" y="573.151967" xlink:href="#c"/><use x="836.473077" y="573.151967" xlink:href="#c"/><use x="832.171747" y="573.151967" xlink:href="#c"/><use x="828.009169" y="573.151967" xlink:href="#c"/><use x="823.707839" y="573.151967" xlink:href="#c"/><use x="819.822766" y="573.151967" xlink:href="#c"/><use x="815.521436" y="573.151967" xlink:href="#c"/><use x="811.220106" y="573.151967" xlink:href="#c"/><use x="807.057528" y="573.151967" xlink:href="#c"/><use x="802.756198" y="573.151967" xlink:href="#c"/><use x="798.59362" y="573.151967" xlink:href="#c"/><use x="794.29229" y="573.151967" xlink:href="#c"/><use x="789.99096" y="573.151967" xlink:href="#c"/><use x="785.828382" y="573.151967" xlink:href="#c"/><use x="781.527052" y="573.151967" xlink:href="#c"/><use x="777.364474" y="573.151967" xlink:href="#c"/><use x="773.063144" y="573.151967" xlink:href="#c"/><use x="769.039319" y="573.396647" xlink:href="#c"/><use x="764.737988" y="573.396647" xlink:href="#c"/><use x="760.436658" y="573.396647" xlink:href="#c"/><use x="756.274081" y="573.396647" xlink:href="#c"/><use x="751.97275" y="573.396647" xlink:href="#c"/><use x="747.810173" y="573.396647" xlink:href="#c"/><use x="743.508842" y="573.396647" xlink:href="#c"/><use x="739.207512" y="573.396647" xlink:href="#c"/><use x="735.044934" y="573.396647" xlink:href="#c"/><use x="730.743604" y="573.396647" xlink:href="#c"/><use x="726.581026" y="573.641328" xlink:href="#c"/><use x="722.279696" y="573.641328" xlink:href="#c"/><use x="718.394624" y="573.641328" xlink:href="#c"/><use x="714.093293" y="573.641328" xlink:href="#c"/><use x="709.791963" y="573.641328" xlink:href="#c"/><use x="705.629386" y="573.641328" xlink:href="#c"/><use x="701.328055" y="573.641328" xlink:href="#c"/><use x="697.165478" y="573.641328" xlink:href="#c"/><use x="692.864147" y="573.641328" xlink:href="#c"/><use x="688.562817" y="573.641328" xlink:href="#c"/><use x="684.400239" y="573.641328" xlink:href="#c"/><use x="680.098909" y="573.641328" xlink:href="#c"/><use x="675.936331" y="573.641328" xlink:href="#c"/><use x="671.635001" y="573.641328" xlink:href="#c"/><use x="667.749929" y="573.641328" xlink:href="#c"/><use x="663.448598" y="573.641328" xlink:href="#c"/><use x="659.147268" y="573.641328" xlink:href="#c"/><use x="654.98469" y="573.641328" xlink:href="#c"/><use x="650.68336" y="573.886008" xlink:href="#c"/><use x="646.520783" y="573.886008" xlink:href="#c"/><use x="642.219452" y="573.886008" xlink:href="#c"/><use x="637.918122" y="573.886008" xlink:href="#c"/><use x="633.755544" y="574.130689" xlink:href="#c"/><use x="629.454214" y="574.130689" xlink:href="#c"/><use x="625.291636" y="574.130689" xlink:href="#c"/><use x="620.990306" y="574.130689" xlink:href="#c"/><use x="617.105234" y="574.130689" xlink:href="#c"/><use x="612.803903" y="574.130689" xlink:href="#c"/><use x="608.502573" y="574.130689" xlink:href="#c"/><use x="604.339995" y="574.130689" xlink:href="#c"/><use x="600.038665" y="574.130689" xlink:href="#c"/><use x="595.876087" y="574.130689" xlink:href="#c"/><use x="591.574757" y="574.130689" xlink:href="#c"/><use x="587.273427" y="574.130689" xlink:href="#c"/><use x="583.110849" y="574.130689" xlink:href="#c"/><use x="578.809519" y="574.130689" xlink:href="#c"/><use x="574.646941" y="574.130689" xlink:href="#c"/><use x="570.345611" y="574.130689" xlink:href="#c"/><use x="566.321786" y="574.130689" xlink:href="#c"/><use x="562.020456" y="574.130689" xlink:href="#c"/><use x="557.719125" y="574.130689" xlink:href="#c"/><use x="553.556548" y="574.62005" xlink:href="#c"/><use x="549.255217" y="574.86473" xlink:href="#c"/><use x="545.09264" y="574.86473" xlink:href="#c"/><use x="540.79131" y="574.86473" xlink:href="#c"/><use x="536.489979" y="574.86473" xlink:href="#c"/><use x="532.327402" y="574.86473" xlink:href="#c"/><use x="528.026071" y="574.86473" xlink:href="#c"/><use x="523.863494" y="574.86473" xlink:href="#c"/><use x="519.562163" y="574.86473" xlink:href="#c"/><use x="515.677091" y="574.86473" xlink:href="#c"/><use x="511.375761" y="575.109411" xlink:href="#c"/><use x="507.07443" y="575.109411" xlink:href="#c"/><use x="502.911853" y="575.109411" xlink:href="#c"/><use x="498.610522" y="575.109411" xlink:href="#c"/><use x="494.447945" y="575.109411" xlink:href="#c"/><use x="490.146614" y="575.109411" xlink:href="#c"/><use x="485.845284" y="575.109411" xlink:href="#c"/><use x="481.682707" y="575.109411" xlink:href="#c"/><use x="477.381376" y="575.109411" xlink:href="#c"/><use x="473.218799" y="575.109411" xlink:href="#c"/><use x="468.917468" y="575.354091" xlink:href="#c"/><use x="465.032396" y="575.354091" xlink:href="#c"/><use x="460.731066" y="575.354091" xlink:href="#c"/><use x="410.086371" y="576.088133" xlink:href="#c"/><use x="359.302923" y="577.066855" xlink:href="#c"/><use x="308.658228" y="578.045577" xlink:href="#c"/><use x="258.013533" y="578.779618" xlink:href="#c"/><use x="207.368838" y="580.492382" xlink:href="#c"/><use x="156.58539" y="583.673228" xlink:href="#c"/><use x="105.940695" y="585.875353" xlink:href="#c"/><use x="55.296" y="588.322158" xlink:href="#c"/></g><path d="m398.01 609.12v-589.68" clip-path="url(#f)" fill="none" stroke="#f00" stroke-dasharray="5.55,2.4" stroke-width="1.5"/><path d="m663.45 609.12v-589.68" clip-path="url(#f)" fill="none" stroke="#f00" stroke-dasharray="5.55,2.4" stroke-width="1.5"/><path d="m887.26 609.12v-589.68" clip-path="url(#f)" fill="none" stroke="#f00" stroke-dasharray="5.55,2.4" stroke-width="1.5"/><path d="m940.68 609.12v-589.68" clip-path="url(#f)" fill="none" stroke="#f00" stroke-dasharray="5.55,2.4" stroke-width="1.5"/><path d="m1078.5 609.12v-589.68" clip-path="url(#f)" fill="none" stroke="#f00" stroke-dasharray="5.55,2.4" stroke-width="1.5"/><path d="m1113.6 609.12v-589.68" clip-path="url(#f)" fill="none" stroke="#f00" stroke-dasharray="5.55,2.4" stroke-width="1.5"/><path d="m1113.6 609.12v-589.68" clip-path="url(#f)" fill="none" stroke="#f00" stroke-dasharray="5.55,2.4" stroke-width="1.5"/><path d="m55.296 609.12v-589.68" fill="none" stroke="#000" stroke-linecap="square" stroke-width=".8"/><path d="m1140.5 609.12v-589.68" fill="none" stroke="#000" stroke-linecap="square" stroke-width=".8"/><path d="m55.296 609.12h1085.2" fill="none" stroke="#000" stroke-linecap="square" stroke-width=".8"/><path d="m55.296 19.44h1085.2" fill="none" stroke="#000" stroke-linecap="square" stroke-width=".8"/><g transform="translate(102.26 13.44) scale(.14 -.14)"><defs><path id="u" transform="scale(.015625)" d="m581 3500h841l994-2344 997 2344h834v-3500h-578v2950l-966-2278h-575l-969 2278v-2950h-578v3500z"/><path id="ak" transform="scale(.015625)" d="m3578 3500v-3500h-572v2809l-1687-2809h-738v3500h572v-2803l1685 2803h740zm-2476 1333h369q34-234 185-352 152-117 424-117 269 0 419 116t190 353h369q-31-447-278-672t-700-225-700 225-278 672z"/><path id="ab" transform="scale(.015625)" d="m2206 1888q388-75 603-304 216-228 216-565 0-541-403-826-403-284-1147-284-250 0-514 44t-545 131v535q222-116 487-174 266-57 556-57 472 0 736 175t264 456q0 275-234 442t-662 167h-463v475h484q363 0 574 139t211 358q0 200-218 344-217 144-588 144-222 0-474-41-251-41-555-131v522q307 75 572 112 266 38 503 38 613 0 967-246 355-245 355-686 0-290-188-492-187-201-537-276z"/><path id="aq" transform="scale(.015625)" d="m684 794h660v-794h-660v794z"/><path id="az" transform="scale(.015625)" d="m1259 2228v-1709h1013q509 0 754 211 246 211 246 645 0 438-246 645-245 208-754 208h-1013zm0 1919v-1406h935q462 0 688 173 227 174 227 530 0 353-227 528-226 175-688 175h-935zm-631 519h1613q722 0 1112-300 391-300 391-853 0-429-200-682t-588-315q466-100 724-418 258-317 258-792 0-625-425-966-425-340-1210-340h-1675v4666z"/><path id="af" transform="scale(.015625)" d="m3603 0h-3022v3500h578v-3041h1866v3041h578v-3041h460v-1343h-460v884z"/><path id="z" transform="scale(.015625)" d="m2781 1038q0 281-205 428-204 147-598 147h-819v-1154h819q394 0 598 148 205 149 205 431zm-2200 2462h578v-1428h844q669 0 1030-255 361-254 361-779t-361-782q-361-256-1030-256h-1422v3500z"/><path id="ax" transform="scale(.015625)" d="m628 4666h631v-1913h2294v1913h631v-4666h-631v2222h-2294v-2222h-631v4666z"/></defs><use xlink:href="#am"/><use x="78.125" xlink:href="#p"/><use x="143.115234" xlink:href="#k"/><use x="208.496094" xlink:href="#m"/><use x="269.775391" xlink:href="#u"/><use x="345.214844" xlink:href="#p"/><use x="410.205078" xlink:href="#o"/><use x="470.605469" xlink:href="#m"/><use x="531.884766" xlink:href="#DejaVuSans-20"/><use x="563.671875" xlink:href="#e"/><use x="624.853516" xlink:href="#j"/><use x="683.105469" xlink:href="#o"/><use x="743.505859" xlink:href="#r"/><use x="806.982422" xlink:href="#n"/><use x="885.9375" xlink:href="#j"/><use x="944.189453" xlink:href="#p"/><use x="1009.179688" xlink:href="#ak"/><use x="1074.169922" xlink:href="#DejaVuSans-20"/><use x="1105.957031" xlink:href="#e"/><use x="1167.138672" xlink:href="#o"/><use x="1227.539062" xlink:href="#e"/><use x="1288.720703" xlink:href="#s"/><use x="1352.636719" xlink:href="#e"/><use x="1413.818359" xlink:href="#ab"/><use x="1466.992188" xlink:href="#h"/><use x="1528.515625" xlink:href="#u"/><use x="1603.955078" xlink:href="#k"/><use x="1669.335938" xlink:href="#n"/><use x="1748.291016" xlink:href="#aa"/><use x="1807.470703" xlink:href="#DejaVuSans-20"/><use x="1839.257812" xlink:href="#e"/><use x="1900.439453" xlink:href="#ah"/><use x="1962.109375" xlink:href="#aj"/><use x="2032.763672" xlink:href="#h"/><use x="2094.287109" xlink:href="#o"/><use x="2154.6875" xlink:href="#j"/><use x="2212.939453" xlink:href="#e"/><use x="2274.121094" xlink:href="#w"/><use x="2333.056641" xlink:href="#aq"/><use x="2364.84375" xlink:href="#DejaVuSans-20"/><use x="2396.630859" xlink:href="#az"/><use x="2465.234375" xlink:href="#q"/><use x="2520.214844" xlink:href="#h"/><use x="2581.738281" xlink:href="#ag"/><use x="2634.277344" xlink:href="#e"/><use x="2695.458984" xlink:href="#DejaVuSans-20"/><use x="2727.246094" xlink:href="#y"/><use x="2790.869141" xlink:href="#d"/><use x="2854.492188" xlink:href="#ac"/><use x="2918.115234" xlink:href="#l"/><use x="2981.738281" xlink:href="#ai"/><use x="3045.361328" xlink:href="#DejaVuSans-20"/><use x="3077.148438" xlink:href="#e"/><use x="3138.330078" xlink:href="#o"/><use x="3198.730469" xlink:href="#e"/><use x="3259.912109" xlink:href="#s"/><use x="3323.828125" xlink:href="#e"/><use x="3385.009766" xlink:href="#ab"/><use x="3438.183594" xlink:href="#h"/><use x="3499.707031" xlink:href="#u"/><use x="3575.146484" xlink:href="#k"/><use x="3640.527344" xlink:href="#n"/><use x="3719.482422" xlink:href="#aa"/><use x="3778.662109" xlink:href="#DejaVuSans-20"/><use x="3810.449219" xlink:href="#p"/><use x="3875.439453" xlink:href="#DejaVuSans-20"/><use x="3907.226562" xlink:href="#g"/><use x="3970.849609" xlink:href="#y"/><use x="4034.472656" xlink:href="#l"/><use x="4098.095703" xlink:href="#ac"/><use x="4161.71875" xlink:href="#DejaVuSans-20"/><use x="4193.505859" xlink:href="#t"/><use x="4258.886719" xlink:href="#e"/><use x="4320.068359" xlink:href="#j"/><use x="4378.320312" xlink:href="#h"/><use x="4439.84375" xlink:href="#k"/><use x="4505.224609" xlink:href="#af"/><use x="4573.291016" xlink:href="#p"/><use x="4638.28125" xlink:href="#m"/><use x="4699.560547" xlink:href="#s"/><use x="4763.476562" xlink:href="#z"/><use x="4822.412109" xlink:href="#k"/><use x="4887.792969" xlink:href="#e"/><use x="4948.974609" xlink:href="#DejaVuSans-20"/><use x="4980.761719" xlink:href="#e"/><use x="5041.943359" xlink:href="#t"/><use x="5107.324219" xlink:href="#m"/><use x="5168.603516" xlink:href="#q"/><use x="5223.583984" xlink:href="#k"/><use x="5288.964844" xlink:href="#n"/><use x="5367.919922" xlink:href="#aa"/><use x="5427.099609" xlink:href="#DejaVuSans-20"/><use x="5458.886719" xlink:href="#m"/><use x="5520.166016" xlink:href="#q"/><use x="5575.146484" xlink:href="#j"/><use x="5633.398438" xlink:href="#h"/><use x="5694.921875" xlink:href="#r"/><use x="5758.398438" xlink:href="#e"/><use x="5819.580078" xlink:href="#p"/><use x="5884.570312" xlink:href="#v"/><use x="5953.710938" xlink:href="#e"/><use x="6014.892578" xlink:href="#w"/><use x="6073.828125" xlink:href="#aq"/><use x="6105.615234" xlink:href="#DejaVuSans-20"/><use x="6137.402344" xlink:href="#ax"/><use x="6212.597656" xlink:href="#e"/><use x="6273.779297" xlink:href="#ae"/><use x="6333.935547" xlink:href="#ah"/><use x="6395.605469" xlink:href="#r"/><use x="6459.082031" xlink:href="#z"/><use x="6518.017578" xlink:href="#DejaVuSans-20"/><use x="6549.804688" xlink:href="#g"/><use x="6613.427734" xlink:href="#d"/><use x="6677.050781" xlink:href="#g"/><use x="6740.673828" xlink:href="#g"/><use x="6804.296875" xlink:href="#DejaVuSans-20"/><use x="6836.083984" xlink:href="#ag"/><use x="6888.623047" xlink:href="#e"/><use x="6949.804688" xlink:href="#v"/><use x="7018.945312" xlink:href="#m"/></g><path d="m64.396 106.17h378.65q2.6 0 2.6-2.6v-75.026q0-2.6-2.6-2.6h-378.65q-2.6 0-2.6 2.6v75.026q0 2.6 2.6 2.6z" fill="#fff" opacity=".8" stroke="#ccc"/><path d="m66.996 36.468h13 13" fill="none" stroke="#000" stroke-linecap="square" stroke-width="2"/><use x="79.996" y="36.467969" stroke="#000000" xlink:href="#b"/><g transform="translate(103.4 41.018) scale(.13 -.13)"><defs><path id="al" transform="scale(.015625)" d="m4184 4666v-4666h-631v4134h-2294v-4134h-631v4666h3556z"/></defs><use xlink:href="#al"/><use x="75.195312" xlink:href="#e"/><use x="136.376953" xlink:href="#j"/><use x="194.628906" xlink:href="#h"/><use x="256.152344" xlink:href="#k"/><use x="321.533203" xlink:href="#af"/><use x="389.599609" xlink:href="#p"/><use x="454.589844" xlink:href="#m"/><use x="515.869141" xlink:href="#s"/><use x="579.785156" xlink:href="#z"/><use x="638.720703" xlink:href="#k"/><use x="704.101562" xlink:href="#e"/><use x="765.283203" xlink:href="#DejaVuSans-20"/><use x="797.070312" xlink:href="#e"/><use x="858.251953" xlink:href="#t"/><use x="923.632812" xlink:href="#m"/><use x="984.912109" xlink:href="#q"/><use x="1039.892578" xlink:href="#k"/><use x="1105.273438" xlink:href="#n"/><use x="1184.228516" xlink:href="#h"/><use x="1245.751953" xlink:href="#DejaVuSans-20"/><use x="1277.539062" xlink:href="#m"/><use x="1338.818359" xlink:href="#q"/><use x="1393.798828" xlink:href="#j"/><use x="1452.050781" xlink:href="#h"/><use x="1513.574219" xlink:href="#r"/><use x="1577.050781" xlink:href="#e"/><use x="1638.232422" xlink:href="#p"/><use x="1703.222656" xlink:href="#v"/><use x="1772.363281" xlink:href="#n"/></g><path d="m66.996 55.55h13 13" fill="none" stroke="#1f77b4" stroke-linecap="square" stroke-width="2"/><use x="79.996" y="55.549531" fill="#1f77b4" stroke="#1f77b4" xlink:href="#a"/><g transform="translate(103.4 60.1) scale(.13 -.13)"><defs><path id="aw" transform="scale(.015625)" d="m2522 4238q-688 0-1093-513-404-512-404-1397 0-881 404-1394 405-512 1093-512 687 0 1089 512 402 513 402 1394 0 885-402 1397-402 513-1089 513zm0 512q981 0 1568-658 588-658 588-1764 0-1103-588-1761-587-658-1568-658-984 0-1574 656-589 657-589 1763t589 1764q590 658 1574 658z"/></defs><use xlink:href="#aw"/><use x="78.710938" xlink:href="#o"/><use x="139.111328" xlink:href="#e"/><use x="200.292969" xlink:href="#s"/><use x="264.208984" xlink:href="#e"/><use x="325.390625" xlink:href="#ab"/><use x="378.564453" xlink:href="#h"/><use x="440.087891" xlink:href="#u"/><use x="515.527344" xlink:href="#k"/><use x="580.908203" xlink:href="#n"/><use x="659.863281" xlink:href="#h"/><use x="721.386719" xlink:href="#DejaVuSans-20"/><use x="753.173828" xlink:href="#m"/><use x="814.453125" xlink:href="#q"/><use x="869.433594" xlink:href="#j"/><use x="927.685547" xlink:href="#h"/><use x="989.208984" xlink:href="#r"/><use x="1052.685547" xlink:href="#e"/><use x="1113.867188" xlink:href="#p"/><use x="1178.857422" xlink:href="#v"/><use x="1247.998047" xlink:href="#n"/><use x="1326.953125" xlink:href="#DejaVuSans-20"/><use x="1358.740234" xlink:href="#e"/><use x="1419.921875" xlink:href="#j"/><use x="1478.173828" xlink:href="#DejaVuSans-20"/><use x="1509.960938" xlink:href="#l"/><use x="1573.583984" xlink:href="#DejaVuSans-20"/><use x="1605.371094" xlink:href="#o"/><use x="1665.771484" xlink:href="#u"/></g><path d="m66.996 74.631h13 13" fill="none" stroke="#ff7f0e" stroke-linecap="square" stroke-width="2"/><use x="79.996" y="74.631094" fill="#ff7f0e" stroke="#ff7f0e" xlink:href="#c"/><g transform="translate(103.4 79.181) scale(.13 -.13)"><use xlink:href="#al"/><use x="75.195312" xlink:href="#e"/><use x="136.376953" xlink:href="#j"/><use x="194.628906" xlink:href="#h"/><use x="256.152344" xlink:href="#k"/><use x="321.533203" xlink:href="#af"/><use x="389.599609" xlink:href="#p"/><use x="454.589844" xlink:href="#m"/><use x="515.869141" xlink:href="#s"/><use x="579.785156" xlink:href="#z"/><use x="638.720703" xlink:href="#k"/><use x="704.101562" xlink:href="#e"/><use x="765.283203" xlink:href="#DejaVuSans-20"/><use x="797.070312" xlink:href="#e"/><use x="858.251953" xlink:href="#t"/><use x="923.632812" xlink:href="#m"/><use x="984.912109" xlink:href="#q"/><use x="1039.892578" xlink:href="#k"/><use x="1105.273438" xlink:href="#n"/><use x="1184.228516" xlink:href="#h"/><use x="1245.751953" xlink:href="#DejaVuSans-20"/><use x="1277.539062" xlink:href="#m"/><use x="1338.818359" xlink:href="#q"/><use x="1393.798828" xlink:href="#j"/><use x="1452.050781" xlink:href="#h"/><use x="1513.574219" xlink:href="#r"/><use x="1577.050781" xlink:href="#e"/><use x="1638.232422" xlink:href="#p"/><use x="1703.222656" xlink:href="#v"/><use x="1772.363281" xlink:href="#n"/><use x="1851.318359" xlink:href="#DejaVuSans-20"/><use x="1883.105469" xlink:href="#e"/><use x="1944.287109" xlink:href="#j"/><use x="2002.539062" xlink:href="#DejaVuSans-20"/><use x="2034.326172" xlink:href="#l"/><use x="2097.949219" xlink:href="#DejaVuSans-20"/><use x="2129.736328" xlink:href="#o"/><use x="2190.136719" xlink:href="#u"/></g><path d="m66.996 93.713h13 13" fill="none" stroke="#f00" stroke-dasharray="5.55,2.4" stroke-width="1.5"/><g transform="translate(103.4 98.263) scale(.13 -.13)"><defs><path id="au" transform="scale(.015625)" d="m2047 566q-66-157-166-275-247-291-1031-291h-241v531h197q372 0 516 85 87 53 144 184l140 331-1497 3535h679l1159-2738 1166 2738h678l-1744-4100z"/><path id="ar" transform="scale(.015625)" d="m3216 459h1481v3041h578v-3500h-4694v3500h578v-3041h1479v3041h578v-3041z"/><path id="ay" transform="scale(.015625)" d="m1828 4750q769 0 1256-327 488-326 488-882 0-388-222-655t-631-370q453-97 707-404 255-306 255-756 0-718-555-1083-554-364-1298-364-381 0-825 103-444 104-581 191v650q478-278 742-345t652-67q587 0 912 225t325 690q0 413-289 645-289 233-898 233h-638v519h663q559 0 806 186t247 536q0 359-255 551-255 193-873 193-419 0-563-38-144-37-784-278v616q353 125 721 178 369 53 638 53z"/></defs><use xlink:href="#au"/><use x="60.9375" xlink:href="#q"/><use x="115.917969" xlink:href="#t"/><use x="181.298828" xlink:href="#h"/><use x="242.822266" xlink:href="#ar"/><use x="334.326172" xlink:href="#k"/><use x="399.707031" xlink:href="#e"/><use x="460.888672" xlink:href="#DejaVuSans-20"/><use x="492.675781" xlink:href="#t"/><use x="558.056641" xlink:href="#r"/><use x="621.533203" xlink:href="#h"/><use x="683.056641" xlink:href="#v"/><use x="752.197266" xlink:href="#q"/><use x="807.177734" xlink:href="#o"/><use x="867.578125" xlink:href="#m"/><use x="928.857422" xlink:href="#ab"/><use x="982.03125" xlink:href="#m"/><use x="1043.310547" xlink:href="#k"/><use x="1108.691406" xlink:href="#k"/><use x="1174.072266" xlink:href="#n"/><use x="1253.027344" xlink:href="#h"/><use x="1314.550781" xlink:href="#DejaVuSans-20"/><use x="1346.337891" xlink:href="#q"/><use x="1401.318359" xlink:href="#j"/><use x="1459.570312" xlink:href="#e"/><use x="1520.751953" xlink:href="#s"/><use x="1584.667969" xlink:href="#o"/><use x="1645.068359" xlink:href="#k"/><use x="1710.449219" xlink:href="#e"/><use x="1771.630859" xlink:href="#w"/><use x="1830.566406" xlink:href="#h"/><use x="1892.089844" xlink:href="#k"/><use x="1957.470703" xlink:href="#p"/><use x="2022.460938" xlink:href="#ae"/><use x="2082.617188" xlink:href="#DejaVuSans-20"/><use x="2114.404297" xlink:href="#q"/><use x="2169.384766" xlink:href="#DejaVuSans-20"/><use x="2201.171875" xlink:href="#ay"/><use x="2265.283203" xlink:href="#h"/><use x="2326.806641" xlink:href="#u"/><use x="2402.246094" xlink:href="#s"/><use x="2466.162109" xlink:href="#h"/><use x="2527.685547" xlink:href="#ak"/></g><defs><clipPath id="f"><rect x="55.296" y="19.44" width="1085.2" height="589.68"/></clipPath></defs></svg>
