<?xml version="1.0" encoding="UTF-8"?>
<!DOCTYPE svg  PUBLIC '-//W3C//DTD SVG 1.1//EN'  'http://www.w3.org/Graphics/SVG/1.1/DTD/svg11.dtd'>
<svg width="1152pt" height="648pt" version="1.1" viewBox="0 0 1152 648" xmlns="http://www.w3.org/2000/svg" xmlns:xlink="http://www.w3.org/1999/xlink"><defs><style type="text/css">*{stroke-linejoin: round; stroke-linecap: butt}</style></defs><path d="m0 648h1152v-648h-1152z" fill="#fff"/><path d="m55.296 609.12h1085.2v-589.68h-1085.2z" fill="#fff"/><path d="m55.296 609.12v-589.68" clip-path="url(#f)" fill="none" stroke="#b0b0b0" stroke-dasharray="0.8,1.32" stroke-width=".8"/><defs><path id="j" d="m0 0v3.5" stroke="#000" stroke-width=".8"/></defs><use x="55.296" y="609.12" stroke="#000000" stroke-width=".8" xlink:href="#j"/><g transform="translate(42.571 623.72) scale(.1 -.1)"><defs><path id="g" transform="scale(.015625)" d="m1228 531h2203v-531h-2962v531q359 372 979 998 621 627 780 809 303 340 423 576 121 236 121 464 0 372-261 606-261 235-680 235-297 0-627-103-329-103-704-313v638q381 153 712 231 332 78 607 78 725 0 1156-363 431-362 431-968 0-288-108-546-107-257-392-607-78-91-497-524-418-433-1181-1211z"/><path id="d" transform="scale(.015625)" d="m2034 4250q-487 0-733-480-245-479-245-1442 0-959 245-1439 246-480 733-480 491 0 736 480 246 480 246 1439 0 963-246 1442-245 480-736 480zm0 500q785 0 1199-621 414-620 414-1801 0-1178-414-1799-414-620-1199-620-784 0-1198 620-414 621-414 1799 0 1181 414 1801 414 621 1198 621z"/></defs><use xlink:href="#g"/><use x="63.623047" xlink:href="#d"/><use x="127.246094" xlink:href="#d"/><use x="190.869141" xlink:href="#g"/></g><path d="m105.3 609.12v-589.68" clip-path="url(#f)" fill="none" stroke="#b0b0b0" stroke-dasharray="0.8,1.32" stroke-width=".8"/><use x="105.302459" y="609.12" stroke="#000000" stroke-width=".8" xlink:href="#j"/><g transform="translate(92.577 623.72) scale(.1 -.1)"><defs><path id="x" transform="scale(.015625)" d="m2597 2516q453-97 707-404 255-306 255-756 0-690-475-1069-475-378-1350-378-293 0-604 58t-642 174v609q262-153 574-231 313-78 654-78 593 0 904 234t311 681q0 413-289 645-289 233-804 233h-544v519h569q465 0 712 186t247 536q0 359-255 551-254 193-729 193-260 0-557-57-297-56-653-174v562q360 100 674 150t592 50q719 0 1137-327 419-326 419-882 0-388-222-655t-631-370z"/></defs><use xlink:href="#g"/><use x="63.623047" xlink:href="#d"/><use x="127.246094" xlink:href="#d"/><use x="190.869141" xlink:href="#x"/></g><path d="m155.31 609.12v-589.68" clip-path="url(#f)" fill="none" stroke="#b0b0b0" stroke-dasharray="0.8,1.32" stroke-width=".8"/><use x="155.308919" y="609.12" stroke="#000000" stroke-width=".8" xlink:href="#j"/><g transform="translate(142.58 623.72) scale(.1 -.1)"><defs><path id="ai" transform="scale(.015625)" d="m2419 4116-1594-2491h1594v2491zm-166 550h794v-3041h666v-525h-666v-1100h-628v1100h-2106v609l1940 2957z"/></defs><use xlink:href="#g"/><use x="63.623047" xlink:href="#d"/><use x="127.246094" xlink:href="#d"/><use x="190.869141" xlink:href="#ai"/></g><path d="m205.45 609.12v-589.68" clip-path="url(#f)" fill="none" stroke="#b0b0b0" stroke-dasharray="0.8,1.32" stroke-width=".8"/><use x="205.452382" y="609.12" stroke="#000000" stroke-width=".8" xlink:href="#j"/><g transform="translate(192.73 623.72) scale(.1 -.1)"><defs><path id="ad" transform="scale(.015625)" d="m691 4666h2478v-532h-1900v-1143q137 47 274 70 138 23 276 23 781 0 1237-428 457-428 457-1159 0-753-469-1171-469-417-1322-417-294 0-599 50-304 50-629 150v635q281-153 581-228t634-75q541 0 856 284 316 284 316 772 0 487-316 771-315 285-856 285-253 0-505-56-251-56-513-175v2344z"/></defs><use xlink:href="#g"/><use x="63.623047" xlink:href="#d"/><use x="127.246094" xlink:href="#d"/><use x="190.869141" xlink:href="#ad"/></g><path d="m255.46 609.12v-589.68" clip-path="url(#f)" fill="none" stroke="#b0b0b0" stroke-dasharray="0.8,1.32" stroke-width=".8"/><use x="255.458841" y="609.12" stroke="#000000" stroke-width=".8" xlink:href="#j"/><g transform="translate(242.73 623.72) scale(.1 -.1)"><defs><path id="aq" transform="scale(.015625)" d="m2113 2584q-425 0-674-291-248-290-248-796 0-503 248-796 249-292 674-292t673 292q248 293 248 796 0 506-248 796-248 291-673 291zm1253 1979v-575q-238 112-480 171-242 60-480 60-625 0-955-422-329-422-376-1275 184 272 462 417 279 145 613 145 703 0 1111-427 408-426 408-1160 0-719-425-1154-425-434-1131-434-810 0-1238 620-428 621-428 1799 0 1106 525 1764t1409 658q238 0 480-47t505-140z"/></defs><use xlink:href="#g"/><use x="63.623047" xlink:href="#d"/><use x="127.246094" xlink:href="#d"/><use x="190.869141" xlink:href="#aq"/></g><path d="m305.47 609.12v-589.68" clip-path="url(#f)" fill="none" stroke="#b0b0b0" stroke-dasharray="0.8,1.32" stroke-width=".8"/><use x="305.465301" y="609.12" stroke="#000000" stroke-width=".8" xlink:href="#j"/><g transform="translate(292.74 623.72) scale(.1 -.1)"><defs><path id="ah" transform="scale(.015625)" d="m525 4666h3e3v-269l-1694-4397h-659l1594 4134h-2241v532z"/></defs><use xlink:href="#g"/><use x="63.623047" xlink:href="#d"/><use x="127.246094" xlink:href="#d"/><use x="190.869141" xlink:href="#ah"/></g><path d="m355.47 609.12v-589.68" clip-path="url(#f)" fill="none" stroke="#b0b0b0" stroke-dasharray="0.8,1.32" stroke-width=".8"/><use x="355.47176" y="609.12" stroke="#000000" stroke-width=".8" xlink:href="#j"/><g transform="translate(342.75 623.72) scale(.1 -.1)"><defs><path id="ap" transform="scale(.015625)" d="m2034 2216q-450 0-708-241-257-241-257-662 0-422 257-663 258-241 708-241t709 242q260 243 260 662 0 421-258 662-257 241-711 241zm-631 268q-406 100-633 378-226 279-226 679 0 559 398 884 399 325 1092 325 697 0 1094-325t397-884q0-400-227-679-226-278-629-378 456-106 710-416 255-309 255-755 0-679-414-1042-414-362-1186-362-771 0-1186 362-414 363-414 1042 0 446 256 755 257 310 713 416zm-231 997q0-362 226-565 227-203 636-203 407 0 636 203 230 203 230 565 0 363-230 566-229 203-636 203-409 0-636-203-226-203-226-566z"/></defs><use xlink:href="#g"/><use x="63.623047" xlink:href="#d"/><use x="127.246094" xlink:href="#d"/><use x="190.869141" xlink:href="#ap"/></g><path d="m405.62 609.12v-589.68" clip-path="url(#f)" fill="none" stroke="#b0b0b0" stroke-dasharray="0.8,1.32" stroke-width=".8"/><use x="405.615223" y="609.12" stroke="#000000" stroke-width=".8" xlink:href="#j"/><g transform="translate(392.89 623.72) scale(.1 -.1)"><defs><path id="ag" transform="scale(.015625)" d="m703 97v575q238-113 481-172 244-59 479-59 625 0 954 420 330 420 377 1277-181-269-460-413-278-144-615-144-700 0-1108 423-408 424-408 1159 0 718 425 1152 425 435 1131 435 810 0 1236-621 427-620 427-1801 0-1103-524-1761-523-658-1407-658-238 0-482 47-243 47-506 141zm1256 1978q425 0 673 290 249 291 249 798 0 503-249 795-248 292-673 292t-673-292-248-795q0-507 248-798 248-290 673-290z"/></defs><use xlink:href="#g"/><use x="63.623047" xlink:href="#d"/><use x="127.246094" xlink:href="#d"/><use x="190.869141" xlink:href="#ag"/></g><path d="m455.62 609.12v-589.68" clip-path="url(#f)" fill="none" stroke="#b0b0b0" stroke-dasharray="0.8,1.32" stroke-width=".8"/><use x="455.621683" y="609.12" stroke="#000000" stroke-width=".8" xlink:href="#j"/><g transform="translate(442.9 623.72) scale(.1 -.1)"><defs><path id="n" transform="scale(.015625)" d="m794 531h1031v3560l-1122-225v575l1116 225h631v-4135h1031v-531h-2687v531z"/></defs><use xlink:href="#g"/><use x="63.623047" xlink:href="#d"/><use x="127.246094" xlink:href="#n"/><use x="190.869141" xlink:href="#d"/></g><path d="m505.63 609.12v-589.68" clip-path="url(#f)" fill="none" stroke="#b0b0b0" stroke-dasharray="0.8,1.32" stroke-width=".8"/><use x="505.628142" y="609.12" stroke="#000000" stroke-width=".8" xlink:href="#j"/><g transform="translate(492.9 623.72) scale(.1 -.1)"><use xlink:href="#g"/><use x="63.623047" xlink:href="#d"/><use x="127.246094" xlink:href="#n"/><use x="190.869141" xlink:href="#n"/></g><path d="m555.63 609.12v-589.68" clip-path="url(#f)" fill="none" stroke="#b0b0b0" stroke-dasharray="0.8,1.32" stroke-width=".8"/><use x="555.634602" y="609.12" stroke="#000000" stroke-width=".8" xlink:href="#j"/><g transform="translate(542.91 623.72) scale(.1 -.1)"><use xlink:href="#g"/><use x="63.623047" xlink:href="#d"/><use x="127.246094" xlink:href="#n"/><use x="190.869141" xlink:href="#g"/></g><path d="m605.78 609.12v-589.68" clip-path="url(#f)" fill="none" stroke="#b0b0b0" stroke-dasharray="0.8,1.32" stroke-width=".8"/><use x="605.778065" y="609.12" stroke="#000000" stroke-width=".8" xlink:href="#j"/><g transform="translate(593.05 623.72) scale(.1 -.1)"><use xlink:href="#g"/><use x="63.623047" xlink:href="#d"/><use x="127.246094" xlink:href="#n"/><use x="190.869141" xlink:href="#x"/></g><path d="m655.78 609.12v-589.68" clip-path="url(#f)" fill="none" stroke="#b0b0b0" stroke-dasharray="0.8,1.32" stroke-width=".8"/><use x="655.784524" y="609.12" stroke="#000000" stroke-width=".8" xlink:href="#j"/><g transform="translate(643.06 623.72) scale(.1 -.1)"><use xlink:href="#g"/><use x="63.623047" xlink:href="#d"/><use x="127.246094" xlink:href="#n"/><use x="190.869141" xlink:href="#ai"/></g><path d="m705.79 609.12v-589.68" clip-path="url(#f)" fill="none" stroke="#b0b0b0" stroke-dasharray="0.8,1.32" stroke-width=".8"/><use x="705.790984" y="609.12" stroke="#000000" stroke-width=".8" xlink:href="#j"/><g transform="translate(693.07 623.72) scale(.1 -.1)"><use xlink:href="#g"/><use x="63.623047" xlink:href="#d"/><use x="127.246094" xlink:href="#n"/><use x="190.869141" xlink:href="#ad"/></g><path d="m755.8 609.12v-589.68" clip-path="url(#f)" fill="none" stroke="#b0b0b0" stroke-dasharray="0.8,1.32" stroke-width=".8"/><use x="755.797443" y="609.12" stroke="#000000" stroke-width=".8" xlink:href="#j"/><g transform="translate(743.07 623.72) scale(.1 -.1)"><use xlink:href="#g"/><use x="63.623047" xlink:href="#d"/><use x="127.246094" xlink:href="#n"/><use x="190.869141" xlink:href="#aq"/></g><path d="m805.94 609.12v-589.68" clip-path="url(#f)" fill="none" stroke="#b0b0b0" stroke-dasharray="0.8,1.32" stroke-width=".8"/><use x="805.940906" y="609.12" stroke="#000000" stroke-width=".8" xlink:href="#j"/><g transform="translate(793.22 623.72) scale(.1 -.1)"><use xlink:href="#g"/><use x="63.623047" xlink:href="#d"/><use x="127.246094" xlink:href="#n"/><use x="190.869141" xlink:href="#ah"/></g><path d="m855.95 609.12v-589.68" clip-path="url(#f)" fill="none" stroke="#b0b0b0" stroke-dasharray="0.8,1.32" stroke-width=".8"/><use x="855.947366" y="609.12" stroke="#000000" stroke-width=".8" xlink:href="#j"/><g transform="translate(843.22 623.72) scale(.1 -.1)"><use xlink:href="#g"/><use x="63.623047" xlink:href="#d"/><use x="127.246094" xlink:href="#n"/><use x="190.869141" xlink:href="#ap"/></g><path d="m905.95 609.12v-589.68" clip-path="url(#f)" fill="none" stroke="#b0b0b0" stroke-dasharray="0.8,1.32" stroke-width=".8"/><use x="905.953825" y="609.12" stroke="#000000" stroke-width=".8" xlink:href="#j"/><g transform="translate(893.23 623.72) scale(.1 -.1)"><use xlink:href="#g"/><use x="63.623047" xlink:href="#d"/><use x="127.246094" xlink:href="#n"/><use x="190.869141" xlink:href="#ag"/></g><path d="m955.96 609.12v-589.68" clip-path="url(#f)" fill="none" stroke="#b0b0b0" stroke-dasharray="0.8,1.32" stroke-width=".8"/><use x="955.960284" y="609.12" stroke="#000000" stroke-width=".8" xlink:href="#j"/><g transform="translate(943.24 623.72) scale(.1 -.1)"><use xlink:href="#g"/><use x="63.623047" xlink:href="#d"/><use x="127.246094" xlink:href="#g"/><use x="190.869141" xlink:href="#d"/></g><path d="m1006.1 609.12v-589.68" clip-path="url(#f)" fill="none" stroke="#b0b0b0" stroke-dasharray="0.8,1.32" stroke-width=".8"/><use x="1006.103748" y="609.12" stroke="#000000" stroke-width=".8" xlink:href="#j"/><g transform="translate(993.38 623.72) scale(.1 -.1)"><use xlink:href="#g"/><use x="63.623047" xlink:href="#d"/><use x="127.246094" xlink:href="#g"/><use x="190.869141" xlink:href="#n"/></g><path d="m1056.1 609.12v-589.68" clip-path="url(#f)" fill="none" stroke="#b0b0b0" stroke-dasharray="0.8,1.32" stroke-width=".8"/><use x="1056.110207" y="609.12" stroke="#000000" stroke-width=".8" xlink:href="#j"/><g transform="translate(1043.4 623.72) scale(.1 -.1)"><use xlink:href="#g"/><use x="63.623047" xlink:href="#d"/><use x="127.246094" xlink:href="#g"/><use x="190.869141" xlink:href="#g"/></g><path d="m1106.1 609.12v-589.68" clip-path="url(#f)" fill="none" stroke="#b0b0b0" stroke-dasharray="0.8,1.32" stroke-width=".8"/><use x="1106.116666" y="609.12" stroke="#000000" stroke-width=".8" xlink:href="#j"/><g transform="translate(1093.4 623.72) scale(.1 -.1)"><use xlink:href="#g"/><use x="63.623047" xlink:href="#d"/><use x="127.246094" xlink:href="#g"/><use x="190.869141" xlink:href="#x"/></g><defs><path id="i" d="m0 0v2" stroke="#000" stroke-width=".6"/></defs><use x="80.093724" y="609.12" stroke="#000000" stroke-width=".6" xlink:href="#i"/><use x="130.100183" y="609.12" stroke="#000000" stroke-width=".6" xlink:href="#i"/><use x="180.243646" y="609.12" stroke="#000000" stroke-width=".6" xlink:href="#i"/><use x="230.250106" y="609.12" stroke="#000000" stroke-width=".6" xlink:href="#i"/><use x="280.256565" y="609.12" stroke="#000000" stroke-width=".6" xlink:href="#i"/><use x="330.263024" y="609.12" stroke="#000000" stroke-width=".6" xlink:href="#i"/><use x="380.406488" y="609.12" stroke="#000000" stroke-width=".6" xlink:href="#i"/><use x="430.412947" y="609.12" stroke="#000000" stroke-width=".6" xlink:href="#i"/><use x="480.419407" y="609.12" stroke="#000000" stroke-width=".6" xlink:href="#i"/><use x="530.425866" y="609.12" stroke="#000000" stroke-width=".6" xlink:href="#i"/><use x="580.569329" y="609.12" stroke="#000000" stroke-width=".6" xlink:href="#i"/><use x="630.575789" y="609.12" stroke="#000000" stroke-width=".6" xlink:href="#i"/><use x="680.582248" y="609.12" stroke="#000000" stroke-width=".6" xlink:href="#i"/><use x="730.588707" y="609.12" stroke="#000000" stroke-width=".6" xlink:href="#i"/><use x="780.732171" y="609.12" stroke="#000000" stroke-width=".6" xlink:href="#i"/><use x="830.73863" y="609.12" stroke="#000000" stroke-width=".6" xlink:href="#i"/><use x="880.745089" y="609.12" stroke="#000000" stroke-width=".6" xlink:href="#i"/><use x="930.751549" y="609.12" stroke="#000000" stroke-width=".6" xlink:href="#i"/><use x="980.895012" y="609.12" stroke="#000000" stroke-width=".6" xlink:href="#i"/><use x="1030.901471" y="609.12" stroke="#000000" stroke-width=".6" xlink:href="#i"/><use x="1080.907931" y="609.12" stroke="#000000" stroke-width=".6" xlink:href="#i"/><use x="1130.91439" y="609.12" stroke="#000000" stroke-width=".6" xlink:href="#i"/><g transform="translate(524.97 639.68) scale(.13 -.13)"><defs><path id="ao" transform="scale(.015625)" d="m1459 531h2063v3603h-1516v-662q0-1559-350-2594-72-212-197-347zm-921 0q418 197 537 572 303 963 303 2681v882h2775v-4135h531v-1534h-531v1003h-3306v-1003h-531v1534h222z"/><path id="m" transform="scale(.015625)" d="m2194 1759q-697 0-966-159t-269-544q0-306 202-486 202-179 548-179 479 0 768 339t289 901v128h-572zm1147 238v-1997h-575v531q-197-318-491-470t-719-152q-537 0-855 302-317 302-317 808 0 590 395 890 396 300 1180 300h807v57q0 397-261 614t-733 217q-300 0-585-72-284-72-546-216v532q315 122 612 182 297 61 578 61 760 0 1135-394 375-393 375-1193z"/><path id="k" transform="scale(.015625)" d="m188 3500h3353v-459h-1394v-3041h-566v3041h-1393v459z"/><path id="e" transform="scale(.015625)" d="m1959 3097q-462 0-731-361t-269-989 267-989q268-361 733-361 460 0 728 362 269 363 269 988 0 622-269 986-268 364-728 364zm0 487q750 0 1178-488 429-487 429-1349 0-859-429-1349-428-489-1178-489-753 0-1180 489-426 490-426 1349 0 862 426 1349 427 488 1180 488z"/><path id="p" transform="scale(.015625)" d="m581 3500h572v-1644l1622 1644h706l-1337-1353 1509-2147h-644l-1240 1766-616-625v-1141h-572v3500z"/><path id="t" transform="scale(.015625)" d="m1159 525v-1856h-578v4831h578v-531q182 312 458 463 277 152 661 152 638 0 1036-506 399-506 399-1331t-399-1332q-398-506-1036-506-384 0-661 152-276 152-458 464zm1957 1222q0 634-261 995t-717 361q-457 0-718-361t-261-995 261-995 718-361q456 0 717 361t261 995z"/><path id="o" transform="scale(.015625)" d="m3907 3500h575v-3500h-575v3500zm288 84zm-1414-2546q0 281-205 428-204 147-598 147h-819v-1154h819q394 0 598 148 205 149 205 431zm-2200 2462h578v-1428h844q669 0 1030-255 361-254 361-779t-361-782q-361-256-1030-256h-1422v3500z"/><path id="q" transform="scale(.015625)" d="m3578 3500v-3500h-572v2809l-1687-2809h-738v3500h572v-2803l1685 2803h740z"/><path id="aj" transform="scale(.015625)" d="m1181 2491q0-260 200-407 200-146 572-146h775v1103h-775q-372 0-572-144t-200-406zm-818-2491 1068 1534q-362 82-603 296-240 214-240 661 0 506 335 757 336 252 1015 252h1368v-3500h-578v1478h-715l-1032-1478h-618z"/><path id="bc" transform="scale(.015625)" d="m750 794h659v-538l-512-1e3h-403l256 1e3v538z"/><path id="af" transform="scale(.015625)" d="m581 0v3500h2469v-459h-1891v-3041h-578z"/><path id="w" transform="scale(.015625)" d="m1384 459h1669v2582h-1209v-438q0-1287-369-1975l-91-169zm-834 0q284 125 409 391 307 659 307 1988v662h2365v-3041h460v-1343h-460v884h-2837v-884h-460v1343h216z"/></defs><use xlink:href="#ao"/><use x="78.125" xlink:href="#m"/><use x="139.404297" xlink:href="#k"/><use x="197.65625" xlink:href="#m"/><use x="258.935547" xlink:href="#DejaVuSans-20"/><use x="290.722656" xlink:href="#e"/><use x="351.904297" xlink:href="#k"/><use x="410.15625" xlink:href="#p"/><use x="470.556641" xlink:href="#t"/><use x="534.033203" xlink:href="#o"/><use x="612.988281" xlink:href="#k"/><use x="671.240234" xlink:href="#q"/><use x="736.230469" xlink:href="#aj"/><use x="796.386719" xlink:href="#bc"/><use x="828.173828" xlink:href="#DejaVuSans-20"/><use x="859.960938" xlink:href="#af"/><use x="912.5" xlink:href="#e"/><use x="973.681641" xlink:href="#w"/><use x="1042.822266" xlink:href="#o"/></g><path d="m55.296 609.12h1085.2" clip-path="url(#f)" fill="none" stroke="#b0b0b0" stroke-dasharray="0.8,1.32" stroke-width=".8"/><defs><path id="z" d="m0 0h-3.5" stroke="#000" stroke-width=".8"/></defs><use x="55.296" y="609.12" stroke="#000000" stroke-width=".8" xlink:href="#z"/><g transform="translate(41.934 612.92) scale(.1 -.1)"><use xlink:href="#d"/></g><path d="m55.296 486.93h1085.2" clip-path="url(#f)" fill="none" stroke="#b0b0b0" stroke-dasharray="0.8,1.32" stroke-width=".8"/><use x="55.296" y="486.931852" stroke="#000000" stroke-width=".8" xlink:href="#z"/><g transform="translate(29.208 490.73) scale(.1 -.1)"><use xlink:href="#ad"/><use x="63.623047" xlink:href="#d"/><use x="127.246094" xlink:href="#d"/></g><path d="m55.296 364.74h1085.2" clip-path="url(#f)" fill="none" stroke="#b0b0b0" stroke-dasharray="0.8,1.32" stroke-width=".8"/><use x="55.296" y="364.743705" stroke="#000000" stroke-width=".8" xlink:href="#z"/><g transform="translate(22.846 368.54) scale(.1 -.1)"><use xlink:href="#n"/><use x="63.623047" xlink:href="#d"/><use x="127.246094" xlink:href="#d"/><use x="190.869141" xlink:href="#d"/></g><path d="m55.296 242.56h1085.2" clip-path="url(#f)" fill="none" stroke="#b0b0b0" stroke-dasharray="0.8,1.32" stroke-width=".8"/><use x="55.296" y="242.555557" stroke="#000000" stroke-width=".8" xlink:href="#z"/><g transform="translate(22.846 246.35) scale(.1 -.1)"><use xlink:href="#n"/><use x="63.623047" xlink:href="#ad"/><use x="127.246094" xlink:href="#d"/><use x="190.869141" xlink:href="#d"/></g><path d="m55.296 120.37h1085.2" clip-path="url(#f)" fill="none" stroke="#b0b0b0" stroke-dasharray="0.8,1.32" stroke-width=".8"/><use x="55.296" y="120.36741" stroke="#000000" stroke-width=".8" xlink:href="#z"/><g transform="translate(22.846 124.17) scale(.1 -.1)"><use xlink:href="#g"/><use x="63.623047" xlink:href="#d"/><use x="127.246094" xlink:href="#d"/><use x="190.869141" xlink:href="#d"/></g><g transform="translate(16.142 466.15) rotate(-90) scale(.13 -.13)"><defs><path id="ax" transform="scale(.015625)" d="m4122 4306v-665q-319 297-680 443-361 147-767 147-800 0-1225-489t-425-1414q0-922 425-1411t1225-489q406 0 767 147t680 444v-660q-331-225-702-338-370-112-782-112-1060 0-1670 648-609 649-609 1771 0 1125 609 1773 610 649 1670 649 418 0 788-111 371-111 696-333z"/><path id="y" transform="scale(.015625)" d="m1156 1613v-1154h819q394 0 600 148 206 149 206 431 0 281-206 428t-600 147h-819zm0 1428v-969h757q325 0 531 129 206 130 206 362 0 231-206 354-206 124-531 124h-757zm-575 459h1369q616 0 947-225t331-641q0-321-169-511-168-189-500-235 397-75 616-313 219-237 219-594 0-468-361-725-361-256-1030-256h-1422v3500z"/><path id="av" transform="scale(.015625)" d="m2059-325q-243-625-475-815-231-191-618-191h-460v481h338q237 0 368 113 132 112 291 531l103 262-1415 3444h609l1094-2737 1094 2737h609l-1538-3825z"/><path id="u" transform="scale(.015625)" d="m3603 3500v-3500h-578v3041h-1866v-3041h-578v3500h3022z"/><path id="l" transform="scale(.015625)" d="m581 3500h578v-1428h1866v1428h578v-3500h-578v1613h-1866v-1613h-578v3500z"/><path id="h" transform="scale(.015625)" d="m3597 1894v-281h-2644q38-594 358-905t892-311q331 0 642 81t618 244v-544q-310-131-635-200t-659-69q-838 0-1327 487-489 488-489 1320 0 859 464 1363 464 505 1252 505 706 0 1117-455 411-454 411-1235zm-575 169q-6 471-264 752-258 282-683 282-481 0-770-272t-333-766l2050 4z"/><path id="s" transform="scale(.015625)" d="m238 0v478q568 88 743 481 213 554 213 1969v572h2365v-3500h-575v3041h-1215v-347q0-1350-275-1956-294-647-1256-738z"/><path id="au" transform="scale(.015625)" d="m2625 0v1472h-1072q-478 0-797 297-287 269-287 844v887h575v-834q0-366 162-550 166-185 491-185h928v1569h575v-3500h-575z"/><path id="r" transform="scale(.015625)" d="m3122 3366v-538q-244 135-489 202t-495 67q-560 0-870-355-309-354-309-995t309-996q310-354 870-354 250 0 495 67t489 202v-532q-241-112-499-168-257-57-548-57-791 0-1257 497-465 497-465 1341 0 856 470 1346 471 491 1290 491 265 0 518-55 253-54 491-163z"/><path id="ab" transform="scale(.015625)" d="m3513 3500-1266-1703 1331-1797h-678l-1019 1375-1018-1375h-679l1360 1831-1244 1669h678l928-1247 928 1247h679z"/><path id="am" transform="scale(.015625)" d="m1991 3584q750 0 1178-488 428-487 428-1349 0-859-428-1349-428-489-1178-489-753 0-1169 475t-438 1363l-18 716q-16 371-16 500 0 500 181 868 285 578 777 828t1317 257q381 3 550 56l159-456q-153-63-293-66l-782-53q-393-28-631-166-622-365-681-843l-22-175q406 371 1066 371zm0-487q-463 0-732-361-268-361-268-989t267-989 733-361q459 0 728 362 269 363 269 988 0 622-269 986t-728 364z"/><path id="ak" transform="scale(.015625)" d="m2753 2072q669 0 1030-255 361-254 361-779t-361-782q-361-256-1030-256h-1425v3041h-1134v459h1712v-1428h847zm-25-459h-822v-1154h822q394 0 598 148 205 149 205 431 0 281-205 428-204 147-598 147z"/></defs><use xlink:href="#ax"/><use x="69.824219" xlink:href="#e"/><use x="131.005859" xlink:href="#y"/><use x="189.941406" xlink:href="#e"/><use x="251.123047" xlink:href="#p"/><use x="311.523438" xlink:href="#av"/><use x="370.703125" xlink:href="#u"/><use x="436.083984" xlink:href="#l"/><use x="501.464844" xlink:href="#e"/><use x="562.646484" xlink:href="#h"/><use x="624.169922" xlink:href="#DejaVuSans-20"/><use x="655.957031" xlink:href="#p"/><use x="716.357422" xlink:href="#e"/><use x="777.539062" xlink:href="#s"/><use x="841.455078" xlink:href="#q"/><use x="906.445312" xlink:href="#au"/><use x="965.527344" xlink:href="#h"/><use x="1027.050781" xlink:href="#r"/><use x="1082.03125" xlink:href="#k"/><use x="1140.283203" xlink:href="#y"/><use x="1199.21875" xlink:href="#e"/><use x="1260.400391" xlink:href="#DejaVuSans-20"/><use x="1292.1875" xlink:href="#e"/><use x="1353.369141" xlink:href="#k"/><use x="1411.621094" xlink:href="#p"/><use x="1472.021484" xlink:href="#t"/><use x="1535.498047" xlink:href="#o"/><use x="1614.453125" xlink:href="#k"/><use x="1672.705078" xlink:href="#o"/><use x="1751.660156" xlink:href="#ab"/><use x="1810.839844" xlink:href="#DejaVuSans-20"/><use x="1842.626953" xlink:href="#e"/><use x="1903.808594" xlink:href="#am"/><use x="1965.478516" xlink:href="#ak"/><use x="2036.132812" xlink:href="#h"/><use x="2097.65625" xlink:href="#p"/><use x="2158.056641" xlink:href="#k"/><use x="2216.308594" xlink:href="#e"/><use x="2277.490234" xlink:href="#y"/></g><path d="m1130.8 36.546-3.9731 1.7106-4.2471 1.4663-4.1101 1.955-4.2471 2.1994-3.8361 0.9775-4.2471 1.2219-4.2471 1.7106-4.1101 0.9775-4.2471 3.4213-4.1101 2.1994-4.2471 0.73313-4.2471 1.7106-8.3572 2.4438-4.1101 1.7106-4.2471 1.2219-3.8361 1.7106-4.2471 3.4213-4.2471 1.2219-4.1101 2.4438-4.2471 2.9325-4.1101 1.7106-4.2471 2.6881-8.3572 3.4213-4.2471 1.4663-4.1101 2.1994-4.2471 0.9775-3.8361 1.955-4.2471 1.7106-4.2471 2.6881-4.1101 2.4438-4.2471 2.1994-4.1101 1.955-4.2471 3.6656-4.2471 1.4663-4.1101 1.2219-4.2471 2.1994-4.1101 0.73313-4.2471 2.6881-3.9731 2.1994-4.2471 3.4213-4.2471 1.955-4.1101 2.6881-4.2471 2.1994-4.1101 0.9775-4.2471 1.7106-4.2471 2.9325-4.1101 1.7106-4.2471 0.9775-4.1101 1.2219-4.2471 1.4663-3.8361 1.7106-4.2471 3.1769-4.2471 1.955-4.1101 0.9775-4.2471 1.7106-4.1101 1.2219-4.2471 1.4663-4.2471 1.2219-4.1101 2.9325-8.3572 2.4438-4.2471 2.4438-3.8361 0.73313-4.2471 2.9325-4.2471 2.1994-4.1101 3.6656-8.3572 4.8875-4.2471 1.7106-4.2471 2.1994-4.1101 2.4438-4.2471 1.4663-8.3572 3.91-3.8361 0.9775-4.2471 4.1544-4.2471 3.4213-4.1101 1.7106-4.2471 2.1994-4.1101 0.73313-4.2471 2.4438-4.2471 2.1994-4.1101 0.9775-8.3572 3.91-4.2471 2.1994-3.9731 3.4213-4.2471 3.91-4.2471 2.1994-4.1101 1.2219-4.2471 3.6656-4.1101 1.2219-4.2471 0.97751-4.2471 1.7106-4.1101 1.4663-4.2471 2.1994-4.1101 1.4663-4.2471 2.9325-3.8361 3.1769-4.2471 3.91-4.2471 2.1994-4.1101 2.4438-8.3572 2.4438-4.2471 2.1994-4.2471 1.955-4.1101 1.2219-4.2471 3.1769-4.1101 1.7106-4.2471 1.2219-3.8361 1.4663-8.4942 1.955-4.1101 1.955-4.2471 1.7106-4.1101 0.9775-8.4942 2.9325-8.3572 3.4213-4.1101 2.1994-4.2471 1.7106-3.8361 0.48875-4.2471 3.4213-4.2471 2.4438-4.1101 1.7106-4.2471 2.9325-4.1101 0.73313-4.2471 1.4663-4.2471 1.2219-4.1101 2.1994-4.2471 1.7106-4.1101 1.2219-4.2471 1.4663-3.9731 1.2219-4.2471 2.1994-4.2471 1.4663-8.3572 5.3763-4.1101 1.4663-4.2471 0.73313-4.2471 0.9775-4.1101 1.4663-8.3572 3.91-8.0832 4.1544-4.2471 3.91-4.2471 1.955-4.1101 1.4663-4.2471 3.6656-4.1101 1.2219-4.2471 0.24438-4.2471 0.73313-4.1101 1.7106-4.2471 3.4213-4.1101 0.73313-4.2471 1.955-3.8361 2.4438-4.2471 1.7106-50.006 19.061-50.143 23.216-50.006 19.794-50.006 20.039-50.006 22.483-50.143 23.46-50.006 20.528-50.006 22.727v0" clip-path="url(#f)" fill="none" stroke="#000" stroke-linecap="square" stroke-width="2"/><defs><path id="c" d="m0 1.25c0.3315 0 0.64948-0.13171 0.88388-0.36612 0.23441-0.23441 0.36612-0.55238 0.36612-0.88388s-0.13171-0.64948-0.36612-0.88388c-0.23441-0.23441-0.55238-0.36612-0.88388-0.36612s-0.64948 0.13171-0.88388 0.36612c-0.23441 0.23441-0.36612 0.55238-0.36612 0.88388s0.13171 0.64948 0.36612 0.88388c0.23441 0.23441 0.55238 0.36612 0.88388 0.36612z" stroke="#000"/></defs><g clip-path="url(#f)" stroke="#000000"><use x="1130.777386" y="36.546341" xlink:href="#c"/><use x="1126.80427" y="38.256975" xlink:href="#c"/><use x="1122.557146" y="39.723232" xlink:href="#c"/><use x="1118.447026" y="41.678243" xlink:href="#c"/><use x="1114.199902" y="43.87763" xlink:href="#c"/><use x="1110.36379" y="44.855135" xlink:href="#c"/><use x="1106.116666" y="46.077016" xlink:href="#c"/><use x="1101.869543" y="47.78765" xlink:href="#c"/><use x="1097.759423" y="48.765155" xlink:href="#c"/><use x="1093.512299" y="52.186424" xlink:href="#c"/><use x="1089.402179" y="54.38581" xlink:href="#c"/><use x="1085.155055" y="55.118939" xlink:href="#c"/><use x="1080.907931" y="56.829573" xlink:href="#c"/><use x="1076.797811" y="58.051455" xlink:href="#c"/><use x="1072.550687" y="59.273336" xlink:href="#c"/><use x="1068.440567" y="60.98397" xlink:href="#c"/><use x="1064.193443" y="62.205852" xlink:href="#c"/><use x="1060.357331" y="63.916486" xlink:href="#c"/><use x="1056.110207" y="67.337754" xlink:href="#c"/><use x="1051.863083" y="68.559635" xlink:href="#c"/><use x="1047.752963" y="71.003398" xlink:href="#c"/><use x="1043.505839" y="73.935914" xlink:href="#c"/><use x="1039.395719" y="75.646548" xlink:href="#c"/><use x="1035.148595" y="78.334687" xlink:href="#c"/><use x="1030.901471" y="80.045321" xlink:href="#c"/><use x="1026.791351" y="81.755955" xlink:href="#c"/><use x="1022.544228" y="83.222213" xlink:href="#c"/><use x="1018.434108" y="85.4216" xlink:href="#c"/><use x="1014.186984" y="86.399105" xlink:href="#c"/><use x="1010.350872" y="88.354115" xlink:href="#c"/><use x="1006.103748" y="90.064749" xlink:href="#c"/><use x="1001.856624" y="92.752889" xlink:href="#c"/><use x="997.746504" y="95.196651" xlink:href="#c"/><use x="993.49938" y="97.396038" xlink:href="#c"/><use x="989.38926" y="99.351048" xlink:href="#c"/><use x="985.142136" y="103.016693" xlink:href="#c"/><use x="980.895012" y="104.482951" xlink:href="#c"/><use x="976.784892" y="105.704832" xlink:href="#c"/><use x="972.537768" y="107.904219" xlink:href="#c"/><use x="968.427648" y="108.637348" xlink:href="#c"/><use x="964.180524" y="111.325487" xlink:href="#c"/><use x="960.207408" y="113.524874" xlink:href="#c"/><use x="955.960284" y="116.946142" xlink:href="#c"/><use x="951.71316" y="118.901152" xlink:href="#c"/><use x="947.60304" y="121.589291" xlink:href="#c"/><use x="943.355917" y="123.788678" xlink:href="#c"/><use x="939.245797" y="124.766183" xlink:href="#c"/><use x="934.998673" y="126.476817" xlink:href="#c"/><use x="930.751549" y="129.409333" xlink:href="#c"/><use x="926.641429" y="131.119967" xlink:href="#c"/><use x="922.394305" y="132.097472" xlink:href="#c"/><use x="918.284185" y="133.319354" xlink:href="#c"/><use x="914.037061" y="134.785611" xlink:href="#c"/><use x="910.200949" y="136.496245" xlink:href="#c"/><use x="905.953825" y="139.673137" xlink:href="#c"/><use x="901.706701" y="141.628148" xlink:href="#c"/><use x="897.596581" y="142.605653" xlink:href="#c"/><use x="893.349457" y="144.316287" xlink:href="#c"/><use x="889.239337" y="145.538168" xlink:href="#c"/><use x="884.992213" y="147.004426" xlink:href="#c"/><use x="880.745089" y="148.226308" xlink:href="#c"/><use x="876.634969" y="151.158823" xlink:href="#c"/><use x="872.387845" y="152.380705" xlink:href="#c"/><use x="868.277726" y="153.602586" xlink:href="#c"/><use x="864.030602" y="156.046349" xlink:href="#c"/><use x="860.19449" y="156.779478" xlink:href="#c"/><use x="855.947366" y="159.711993" xlink:href="#c"/><use x="851.700242" y="161.91138" xlink:href="#c"/><use x="847.590122" y="165.577024" xlink:href="#c"/><use x="843.342998" y="168.020787" xlink:href="#c"/><use x="839.232878" y="170.46455" xlink:href="#c"/><use x="834.985754" y="172.175184" xlink:href="#c"/><use x="830.73863" y="174.374571" xlink:href="#c"/><use x="826.62851" y="176.818334" xlink:href="#c"/><use x="822.381386" y="178.284592" xlink:href="#c"/><use x="818.271266" y="180.239602" xlink:href="#c"/><use x="814.024142" y="182.194613" xlink:href="#c"/><use x="810.18803" y="183.172118" xlink:href="#c"/><use x="805.940906" y="187.326515" xlink:href="#c"/><use x="801.693782" y="190.747783" xlink:href="#c"/><use x="797.583662" y="192.458417" xlink:href="#c"/><use x="793.336538" y="194.657804" xlink:href="#c"/><use x="789.226419" y="195.390932" xlink:href="#c"/><use x="784.979295" y="197.834695" xlink:href="#c"/><use x="780.732171" y="200.034082" xlink:href="#c"/><use x="776.622051" y="201.011587" xlink:href="#c"/><use x="772.374927" y="202.966598" xlink:href="#c"/><use x="768.264807" y="204.921608" xlink:href="#c"/><use x="764.017683" y="207.120995" xlink:href="#c"/><use x="760.044567" y="210.542263" xlink:href="#c"/><use x="755.797443" y="214.452283" xlink:href="#c"/><use x="751.550319" y="216.65167" xlink:href="#c"/><use x="747.440199" y="217.873552" xlink:href="#c"/><use x="743.193075" y="221.539196" xlink:href="#c"/><use x="739.082955" y="222.761077" xlink:href="#c"/><use x="734.835831" y="223.738583" xlink:href="#c"/><use x="730.588707" y="225.449217" xlink:href="#c"/><use x="726.478587" y="226.915475" xlink:href="#c"/><use x="722.231463" y="229.114861" xlink:href="#c"/><use x="718.121343" y="230.581119" xlink:href="#c"/><use x="713.87422" y="233.513634" xlink:href="#c"/><use x="710.038108" y="236.690526" xlink:href="#c"/><use x="705.790984" y="240.600547" xlink:href="#c"/><use x="701.54386" y="242.799934" xlink:href="#c"/><use x="697.43374" y="245.243697" xlink:href="#c"/><use x="693.186616" y="246.465578" xlink:href="#c"/><use x="689.076496" y="247.68746" xlink:href="#c"/><use x="684.829372" y="249.886846" xlink:href="#c"/><use x="680.582248" y="251.841857" xlink:href="#c"/><use x="676.472128" y="253.063738" xlink:href="#c"/><use x="672.225004" y="256.24063" xlink:href="#c"/><use x="668.114884" y="257.951264" xlink:href="#c"/><use x="663.86776" y="259.173145" xlink:href="#c"/><use x="660.031648" y="260.639403" xlink:href="#c"/><use x="655.784524" y="261.616908" xlink:href="#c"/><use x="651.5374" y="262.594414" xlink:href="#c"/><use x="647.42728" y="264.549424" xlink:href="#c"/><use x="643.180156" y="266.260058" xlink:href="#c"/><use x="639.070036" y="267.237563" xlink:href="#c"/><use x="634.822913" y="268.703821" xlink:href="#c"/><use x="630.575789" y="270.170079" xlink:href="#c"/><use x="626.465669" y="271.880713" xlink:href="#c"/><use x="622.218545" y="273.591347" xlink:href="#c"/><use x="618.108425" y="275.790734" xlink:href="#c"/><use x="613.861301" y="277.501368" xlink:href="#c"/><use x="610.025189" y="277.99012" xlink:href="#c"/><use x="605.778065" y="281.411388" xlink:href="#c"/><use x="601.530941" y="283.855151" xlink:href="#c"/><use x="597.420821" y="285.565785" xlink:href="#c"/><use x="593.173697" y="288.498301" xlink:href="#c"/><use x="589.063577" y="289.23143" xlink:href="#c"/><use x="584.816453" y="290.697688" xlink:href="#c"/><use x="580.569329" y="291.919569" xlink:href="#c"/><use x="576.459209" y="294.118956" xlink:href="#c"/><use x="572.212085" y="295.82959" xlink:href="#c"/><use x="568.101965" y="297.051471" xlink:href="#c"/><use x="563.854841" y="298.517729" xlink:href="#c"/><use x="559.881725" y="299.73961" xlink:href="#c"/><use x="555.634602" y="301.938997" xlink:href="#c"/><use x="551.387478" y="303.405255" xlink:href="#c"/><use x="547.277358" y="306.093394" xlink:href="#c"/><use x="543.030234" y="308.781533" xlink:href="#c"/><use x="538.920114" y="310.247791" xlink:href="#c"/><use x="534.67299" y="310.98092" xlink:href="#c"/><use x="530.425866" y="311.958425" xlink:href="#c"/><use x="526.315746" y="313.424683" xlink:href="#c"/><use x="522.068622" y="315.379693" xlink:href="#c"/><use x="517.958502" y="317.334704" xlink:href="#c"/><use x="513.711378" y="319.53409" xlink:href="#c"/><use x="509.875266" y="321.489101" xlink:href="#c"/><use x="505.628142" y="325.399121" xlink:href="#c"/><use x="501.381018" y="327.354132" xlink:href="#c"/><use x="497.270898" y="328.82039" xlink:href="#c"/><use x="493.023774" y="332.486034" xlink:href="#c"/><use x="488.913654" y="333.707915" xlink:href="#c"/><use x="484.66653" y="333.952292" xlink:href="#c"/><use x="480.419407" y="334.685421" xlink:href="#c"/><use x="476.309287" y="336.396055" xlink:href="#c"/><use x="472.062163" y="339.817323" xlink:href="#c"/><use x="467.952043" y="340.550452" xlink:href="#c"/><use x="463.704919" y="342.505462" xlink:href="#c"/><use x="459.868807" y="344.949225" xlink:href="#c"/><use x="455.621683" y="346.659859" xlink:href="#c"/><use x="405.615223" y="365.72121" xlink:href="#c"/><use x="355.47176" y="388.936958" xlink:href="#c"/><use x="305.465301" y="408.731438" xlink:href="#c"/><use x="255.458841" y="428.770294" xlink:href="#c"/><use x="205.452382" y="451.252913" xlink:href="#c"/><use x="155.308919" y="474.713038" xlink:href="#c"/><use x="105.302459" y="495.240646" xlink:href="#c"/><use x="55.296" y="517.967642" xlink:href="#c"/></g><path d="m1130.8 400.67h-8.2202l-4.1101 0.48875h-24.935l-8.3572 0.48875h-8.3572l-4.2471 0.24438h-12.193l-4.2471 0.24438h-8.3572l-4.2471 0.24438h-4.1101l-4.2471 0.24438h-4.2471l-4.1101 0.24438h-4.2471l-4.1101 0.24438h-20.688l-8.3572 0.48875h-29.182l-4.2471 0.24438h-12.604l-8.3572 0.48875h-4.2471l-4.1101 0.24438h-4.2471l-4.1101 0.73313h-8.0832l-8.4942 0.48875h-16.714l-4.2471 0.24438h-4.1101l-8.3572 0.48875h-8.0832l-8.4942 0.48875-4.1101 0.48875h-16.851l-8.3572 0.48875h-4.1101l-4.2471 0.24438h-3.8361l-8.4942 0.48875h-8.3572l-4.1101 0.24438h-8.4942l-4.1101 0.24438h-4.2471l-8.3572 0.48875h-3.9731l-4.2471 0.48875h-4.2471l-4.1101 0.24438h-12.604l-4.2471 0.24438h-8.3572l-4.1101 0.24438-4.2471 0.73313-12.33 0.73313-4.1101 0.73313h-16.851l-8.3572 0.48875h-12.193l-4.2471 0.24438h-4.2471l-4.1101 0.24438-4.2471 0.9775-4.1101 0.24438h-4.2471l-4.2471 0.48875-4.1101 0.73313h-16.44l-4.2471 0.24438h-4.2471l-4.1101 0.48875-16.851 0.97751-8.3572 1.4663-4.1101 0.24438-4.2471 0.48875h-3.9731l-4.2471 0.24438-8.3572 0.9775-8.3572 0.48875-4.2471 0.73313h-4.2471l-8.3572 0.48875-4.1101 0.9775-4.2471 0.48875h-3.8361l-4.2471 0.24438h-12.604l-4.1101 0.48875-4.2471 0.73313-4.2471 0.24438h-4.1101l-16.44 0.9775-4.2471 0.48875-50.006 5.1319-50.143 4.8875-50.006 6.3538-50.006 7.3313-50.006 11.486-50.143 11.73-50.006 12.219-50.006 15.64v0" clip-path="url(#f)" fill="none" stroke="#9467bd" stroke-linecap="square" stroke-width="2"/><defs><path id="a" d="m0 1.25c0.3315 0 0.64948-0.13171 0.88388-0.36612 0.23441-0.23441 0.36612-0.55238 0.36612-0.88388s-0.13171-0.64948-0.36612-0.88388c-0.23441-0.23441-0.55238-0.36612-0.88388-0.36612s-0.64948 0.13171-0.88388 0.36612c-0.23441 0.23441-0.36612 0.55238-0.36612 0.88388s0.13171 0.64948 0.36612 0.88388c0.23441 0.23441 0.55238 0.36612 0.88388 0.36612z" stroke="#9467bd"/></defs><g clip-path="url(#f)" fill="#9467bd" stroke="#9467bd"><use x="1130.777386" y="400.66702" xlink:href="#a"/><use x="1126.80427" y="400.66702" xlink:href="#a"/><use x="1122.557146" y="400.66702" xlink:href="#a"/><use x="1118.447026" y="401.155773" xlink:href="#a"/><use x="1114.199902" y="401.155773" xlink:href="#a"/><use x="1110.36379" y="401.155773" xlink:href="#a"/><use x="1106.116666" y="401.155773" xlink:href="#a"/><use x="1101.869543" y="401.155773" xlink:href="#a"/><use x="1097.759423" y="401.155773" xlink:href="#a"/><use x="1093.512299" y="401.155773" xlink:href="#a"/><use x="1089.402179" y="401.400149" xlink:href="#a"/><use x="1085.155055" y="401.644525" xlink:href="#a"/><use x="1080.907931" y="401.644525" xlink:href="#a"/><use x="1076.797811" y="401.644525" xlink:href="#a"/><use x="1072.550687" y="401.888902" xlink:href="#a"/><use x="1068.440567" y="401.888902" xlink:href="#a"/><use x="1064.193443" y="401.888902" xlink:href="#a"/><use x="1060.357331" y="401.888902" xlink:href="#a"/><use x="1056.110207" y="402.133278" xlink:href="#a"/><use x="1051.863083" y="402.133278" xlink:href="#a"/><use x="1047.752963" y="402.133278" xlink:href="#a"/><use x="1043.505839" y="402.377654" xlink:href="#a"/><use x="1039.395719" y="402.377654" xlink:href="#a"/><use x="1035.148595" y="402.622031" xlink:href="#a"/><use x="1030.901471" y="402.622031" xlink:href="#a"/><use x="1026.791351" y="402.866407" xlink:href="#a"/><use x="1022.544228" y="402.866407" xlink:href="#a"/><use x="1018.434108" y="403.110783" xlink:href="#a"/><use x="1014.186984" y="403.110783" xlink:href="#a"/><use x="1010.350872" y="403.110783" xlink:href="#a"/><use x="1006.103748" y="403.110783" xlink:href="#a"/><use x="1001.856624" y="403.110783" xlink:href="#a"/><use x="997.746504" y="403.110783" xlink:href="#a"/><use x="993.49938" y="403.35516" xlink:href="#a"/><use x="989.38926" y="403.599536" xlink:href="#a"/><use x="985.142136" y="403.599536" xlink:href="#a"/><use x="980.895012" y="403.599536" xlink:href="#a"/><use x="976.784892" y="403.599536" xlink:href="#a"/><use x="972.537768" y="403.599536" xlink:href="#a"/><use x="968.427648" y="403.599536" xlink:href="#a"/><use x="964.180524" y="403.599536" xlink:href="#a"/><use x="960.207408" y="403.599536" xlink:href="#a"/><use x="955.960284" y="403.843912" xlink:href="#a"/><use x="951.71316" y="403.843912" xlink:href="#a"/><use x="947.60304" y="403.843912" xlink:href="#a"/><use x="943.355917" y="403.843912" xlink:href="#a"/><use x="939.245797" y="404.088288" xlink:href="#a"/><use x="934.998673" y="404.332665" xlink:href="#a"/><use x="930.751549" y="404.332665" xlink:href="#a"/><use x="926.641429" y="404.577041" xlink:href="#a"/><use x="922.394305" y="404.577041" xlink:href="#a"/><use x="918.284185" y="405.31017" xlink:href="#a"/><use x="914.037061" y="405.31017" xlink:href="#a"/><use x="910.200949" y="405.31017" xlink:href="#a"/><use x="905.953825" y="405.554546" xlink:href="#a"/><use x="901.706701" y="405.798923" xlink:href="#a"/><use x="897.596581" y="405.798923" xlink:href="#a"/><use x="893.349457" y="405.798923" xlink:href="#a"/><use x="889.239337" y="405.798923" xlink:href="#a"/><use x="884.992213" y="405.798923" xlink:href="#a"/><use x="880.745089" y="406.043299" xlink:href="#a"/><use x="876.634969" y="406.043299" xlink:href="#a"/><use x="872.387845" y="406.287675" xlink:href="#a"/><use x="868.277726" y="406.532051" xlink:href="#a"/><use x="864.030602" y="406.532051" xlink:href="#a"/><use x="860.19449" y="406.532051" xlink:href="#a"/><use x="855.947366" y="406.776428" xlink:href="#a"/><use x="851.700242" y="407.020804" xlink:href="#a"/><use x="847.590122" y="407.509557" xlink:href="#a"/><use x="843.342998" y="407.509557" xlink:href="#a"/><use x="839.232878" y="407.509557" xlink:href="#a"/><use x="834.985754" y="407.509557" xlink:href="#a"/><use x="830.73863" y="407.509557" xlink:href="#a"/><use x="826.62851" y="407.753933" xlink:href="#a"/><use x="822.381386" y="407.998309" xlink:href="#a"/><use x="818.271266" y="407.998309" xlink:href="#a"/><use x="814.024142" y="408.242685" xlink:href="#a"/><use x="810.18803" y="408.242685" xlink:href="#a"/><use x="805.940906" y="408.487062" xlink:href="#a"/><use x="801.693782" y="408.731438" xlink:href="#a"/><use x="797.583662" y="408.731438" xlink:href="#a"/><use x="793.336538" y="408.731438" xlink:href="#a"/><use x="789.226419" y="408.975814" xlink:href="#a"/><use x="784.979295" y="408.975814" xlink:href="#a"/><use x="780.732171" y="408.975814" xlink:href="#a"/><use x="776.622051" y="409.220191" xlink:href="#a"/><use x="772.374927" y="409.220191" xlink:href="#a"/><use x="768.264807" y="409.464567" xlink:href="#a"/><use x="764.017683" y="409.708943" xlink:href="#a"/><use x="760.044567" y="409.708943" xlink:href="#a"/><use x="755.797443" y="410.197696" xlink:href="#a"/><use x="751.550319" y="410.197696" xlink:href="#a"/><use x="747.440199" y="410.442072" xlink:href="#a"/><use x="743.193075" y="410.442072" xlink:href="#a"/><use x="739.082955" y="410.442072" xlink:href="#a"/><use x="734.835831" y="410.442072" xlink:href="#a"/><use x="730.588707" y="410.686448" xlink:href="#a"/><use x="726.478587" y="410.686448" xlink:href="#a"/><use x="722.231463" y="410.686448" xlink:href="#a"/><use x="718.121343" y="410.930825" xlink:href="#a"/><use x="713.87422" y="411.663954" xlink:href="#a"/><use x="710.038108" y="411.90833" xlink:href="#a"/><use x="705.790984" y="412.152706" xlink:href="#a"/><use x="701.54386" y="412.397082" xlink:href="#a"/><use x="697.43374" y="413.130211" xlink:href="#a"/><use x="693.186616" y="413.130211" xlink:href="#a"/><use x="689.076496" y="413.130211" xlink:href="#a"/><use x="684.829372" y="413.130211" xlink:href="#a"/><use x="680.582248" y="413.130211" xlink:href="#a"/><use x="676.472128" y="413.374588" xlink:href="#a"/><use x="672.225004" y="413.618964" xlink:href="#a"/><use x="668.114884" y="413.618964" xlink:href="#a"/><use x="663.86776" y="413.618964" xlink:href="#a"/><use x="660.031648" y="413.618964" xlink:href="#a"/><use x="655.784524" y="413.86334" xlink:href="#a"/><use x="651.5374" y="413.86334" xlink:href="#a"/><use x="647.42728" y="414.107717" xlink:href="#a"/><use x="643.180156" y="415.085222" xlink:href="#a"/><use x="639.070036" y="415.329598" xlink:href="#a"/><use x="634.822913" y="415.329598" xlink:href="#a"/><use x="630.575789" y="415.818351" xlink:href="#a"/><use x="626.465669" y="416.551479" xlink:href="#a"/><use x="622.218545" y="416.551479" xlink:href="#a"/><use x="618.108425" y="416.551479" xlink:href="#a"/><use x="613.861301" y="416.551479" xlink:href="#a"/><use x="610.025189" y="416.551479" xlink:href="#a"/><use x="605.778065" y="416.795856" xlink:href="#a"/><use x="601.530941" y="416.795856" xlink:href="#a"/><use x="597.420821" y="417.284608" xlink:href="#a"/><use x="593.173697" y="417.528985" xlink:href="#a"/><use x="589.063577" y="417.773361" xlink:href="#a"/><use x="584.816453" y="418.017737" xlink:href="#a"/><use x="580.569329" y="418.262114" xlink:href="#a"/><use x="576.459209" y="418.995242" xlink:href="#a"/><use x="572.212085" y="419.728371" xlink:href="#a"/><use x="568.101965" y="419.972748" xlink:href="#a"/><use x="563.854841" y="420.4615" xlink:href="#a"/><use x="559.881725" y="420.4615" xlink:href="#a"/><use x="555.634602" y="420.705877" xlink:href="#a"/><use x="551.387478" y="421.194629" xlink:href="#a"/><use x="547.277358" y="421.683382" xlink:href="#a"/><use x="543.030234" y="421.927758" xlink:href="#a"/><use x="538.920114" y="422.172134" xlink:href="#a"/><use x="534.67299" y="422.905263" xlink:href="#a"/><use x="530.425866" y="422.905263" xlink:href="#a"/><use x="526.315746" y="423.149639" xlink:href="#a"/><use x="522.068622" y="423.394016" xlink:href="#a"/><use x="517.958502" y="424.371521" xlink:href="#a"/><use x="513.711378" y="424.860274" xlink:href="#a"/><use x="509.875266" y="424.860274" xlink:href="#a"/><use x="505.628142" y="425.10465" xlink:href="#a"/><use x="501.381018" y="425.10465" xlink:href="#a"/><use x="497.270898" y="425.10465" xlink:href="#a"/><use x="493.023774" y="425.10465" xlink:href="#a"/><use x="488.913654" y="425.593402" xlink:href="#a"/><use x="484.66653" y="426.326531" xlink:href="#a"/><use x="480.419407" y="426.570908" xlink:href="#a"/><use x="476.309287" y="426.570908" xlink:href="#a"/><use x="472.062163" y="426.815284" xlink:href="#a"/><use x="467.952043" y="427.05966" xlink:href="#a"/><use x="463.704919" y="427.304036" xlink:href="#a"/><use x="459.868807" y="427.548413" xlink:href="#a"/><use x="455.621683" y="428.037165" xlink:href="#a"/><use x="405.615223" y="433.169068" xlink:href="#a"/><use x="355.47176" y="438.056593" xlink:href="#a"/><use x="305.465301" y="444.410377" xlink:href="#a"/><use x="255.458841" y="451.741666" xlink:href="#a"/><use x="205.452382" y="463.227352" xlink:href="#a"/><use x="155.308919" y="474.957414" xlink:href="#a"/><use x="105.302459" y="487.176229" xlink:href="#a"/><use x="55.296" y="502.816312" xlink:href="#a"/></g><path d="m1130.8 572.22h-37.265l-4.1101 0.24438h-29.045l-4.2471 0.24438h-33.566l-4.1101 0.24438h-24.935l-4.1101 0.24438h-83.435l-4.2471 0.24438h-179.48l-4.1101 0.24438h-70.694l-4.2471 0.24438h-12.604l-4.1101 0.24438h-75.078l-4.1101 0.48875-4.2471 0.24438h-33.155l-4.2471 0.24438h-37.676l-4.2471 0.24438h-8.0832l-50.006 0.73313-100.15 1.955-50.006 0.73313-50.006 1.7106-50.143 3.1769-50.006 2.1994-50.006 2.4438v0" clip-path="url(#f)" fill="none" stroke="#d62728" stroke-linecap="square" stroke-width="2"/><defs><path id="b" d="m0 1.25c0.3315 0 0.64948-0.13171 0.88388-0.36612 0.23441-0.23441 0.36612-0.55238 0.36612-0.88388s-0.13171-0.64948-0.36612-0.88388c-0.23441-0.23441-0.55238-0.36612-0.88388-0.36612s-0.64948 0.13171-0.88388 0.36612c-0.23441 0.23441-0.36612 0.55238-0.36612 0.88388s0.13171 0.64948 0.36612 0.88388c0.23441 0.23441 0.55238 0.36612 0.88388 0.36612z" stroke="#d62728"/></defs><g clip-path="url(#f)" fill="#d62728" stroke="#d62728"><use x="1130.777386" y="572.219179" xlink:href="#b"/><use x="1126.80427" y="572.219179" xlink:href="#b"/><use x="1122.557146" y="572.219179" xlink:href="#b"/><use x="1118.447026" y="572.219179" xlink:href="#b"/><use x="1114.199902" y="572.219179" xlink:href="#b"/><use x="1110.36379" y="572.219179" xlink:href="#b"/><use x="1106.116666" y="572.219179" xlink:href="#b"/><use x="1101.869543" y="572.219179" xlink:href="#b"/><use x="1097.759423" y="572.219179" xlink:href="#b"/><use x="1093.512299" y="572.219179" xlink:href="#b"/><use x="1089.402179" y="572.463556" xlink:href="#b"/><use x="1085.155055" y="572.463556" xlink:href="#b"/><use x="1080.907931" y="572.463556" xlink:href="#b"/><use x="1076.797811" y="572.463556" xlink:href="#b"/><use x="1072.550687" y="572.463556" xlink:href="#b"/><use x="1068.440567" y="572.463556" xlink:href="#b"/><use x="1064.193443" y="572.463556" xlink:href="#b"/><use x="1060.357331" y="572.463556" xlink:href="#b"/><use x="1056.110207" y="572.707932" xlink:href="#b"/><use x="1051.863083" y="572.707932" xlink:href="#b"/><use x="1047.752963" y="572.707932" xlink:href="#b"/><use x="1043.505839" y="572.707932" xlink:href="#b"/><use x="1039.395719" y="572.707932" xlink:href="#b"/><use x="1035.148595" y="572.707932" xlink:href="#b"/><use x="1030.901471" y="572.707932" xlink:href="#b"/><use x="1026.791351" y="572.707932" xlink:href="#b"/><use x="1022.544228" y="572.707932" xlink:href="#b"/><use x="1018.434108" y="572.952308" xlink:href="#b"/><use x="1014.186984" y="572.952308" xlink:href="#b"/><use x="1010.350872" y="572.952308" xlink:href="#b"/><use x="1006.103748" y="572.952308" xlink:href="#b"/><use x="1001.856624" y="572.952308" xlink:href="#b"/><use x="997.746504" y="572.952308" xlink:href="#b"/><use x="993.49938" y="572.952308" xlink:href="#b"/><use x="989.38926" y="573.196685" xlink:href="#b"/><use x="985.142136" y="573.196685" xlink:href="#b"/><use x="980.895012" y="573.196685" xlink:href="#b"/><use x="976.784892" y="573.196685" xlink:href="#b"/><use x="972.537768" y="573.196685" xlink:href="#b"/><use x="968.427648" y="573.196685" xlink:href="#b"/><use x="964.180524" y="573.196685" xlink:href="#b"/><use x="960.207408" y="573.196685" xlink:href="#b"/><use x="955.960284" y="573.196685" xlink:href="#b"/><use x="951.71316" y="573.196685" xlink:href="#b"/><use x="947.60304" y="573.196685" xlink:href="#b"/><use x="943.355917" y="573.196685" xlink:href="#b"/><use x="939.245797" y="573.196685" xlink:href="#b"/><use x="934.998673" y="573.196685" xlink:href="#b"/><use x="930.751549" y="573.196685" xlink:href="#b"/><use x="926.641429" y="573.196685" xlink:href="#b"/><use x="922.394305" y="573.196685" xlink:href="#b"/><use x="918.284185" y="573.196685" xlink:href="#b"/><use x="914.037061" y="573.196685" xlink:href="#b"/><use x="910.200949" y="573.196685" xlink:href="#b"/><use x="905.953825" y="573.196685" xlink:href="#b"/><use x="901.706701" y="573.441061" xlink:href="#b"/><use x="897.596581" y="573.441061" xlink:href="#b"/><use x="893.349457" y="573.441061" xlink:href="#b"/><use x="889.239337" y="573.441061" xlink:href="#b"/><use x="884.992213" y="573.441061" xlink:href="#b"/><use x="880.745089" y="573.441061" xlink:href="#b"/><use x="876.634969" y="573.441061" xlink:href="#b"/><use x="872.387845" y="573.441061" xlink:href="#b"/><use x="868.277726" y="573.441061" xlink:href="#b"/><use x="864.030602" y="573.441061" xlink:href="#b"/><use x="860.19449" y="573.441061" xlink:href="#b"/><use x="855.947366" y="573.441061" xlink:href="#b"/><use x="851.700242" y="573.441061" xlink:href="#b"/><use x="847.590122" y="573.441061" xlink:href="#b"/><use x="843.342998" y="573.441061" xlink:href="#b"/><use x="839.232878" y="573.441061" xlink:href="#b"/><use x="834.985754" y="573.441061" xlink:href="#b"/><use x="830.73863" y="573.441061" xlink:href="#b"/><use x="826.62851" y="573.441061" xlink:href="#b"/><use x="822.381386" y="573.441061" xlink:href="#b"/><use x="818.271266" y="573.441061" xlink:href="#b"/><use x="814.024142" y="573.441061" xlink:href="#b"/><use x="810.18803" y="573.441061" xlink:href="#b"/><use x="805.940906" y="573.441061" xlink:href="#b"/><use x="801.693782" y="573.441061" xlink:href="#b"/><use x="797.583662" y="573.441061" xlink:href="#b"/><use x="793.336538" y="573.441061" xlink:href="#b"/><use x="789.226419" y="573.441061" xlink:href="#b"/><use x="784.979295" y="573.441061" xlink:href="#b"/><use x="780.732171" y="573.441061" xlink:href="#b"/><use x="776.622051" y="573.441061" xlink:href="#b"/><use x="772.374927" y="573.441061" xlink:href="#b"/><use x="768.264807" y="573.441061" xlink:href="#b"/><use x="764.017683" y="573.441061" xlink:href="#b"/><use x="760.044567" y="573.441061" xlink:href="#b"/><use x="755.797443" y="573.441061" xlink:href="#b"/><use x="751.550319" y="573.441061" xlink:href="#b"/><use x="747.440199" y="573.441061" xlink:href="#b"/><use x="743.193075" y="573.441061" xlink:href="#b"/><use x="739.082955" y="573.441061" xlink:href="#b"/><use x="734.835831" y="573.441061" xlink:href="#b"/><use x="730.588707" y="573.441061" xlink:href="#b"/><use x="726.478587" y="573.441061" xlink:href="#b"/><use x="722.231463" y="573.441061" xlink:href="#b"/><use x="718.121343" y="573.685437" xlink:href="#b"/><use x="713.87422" y="573.685437" xlink:href="#b"/><use x="710.038108" y="573.685437" xlink:href="#b"/><use x="705.790984" y="573.685437" xlink:href="#b"/><use x="701.54386" y="573.685437" xlink:href="#b"/><use x="697.43374" y="573.685437" xlink:href="#b"/><use x="693.186616" y="573.685437" xlink:href="#b"/><use x="689.076496" y="573.685437" xlink:href="#b"/><use x="684.829372" y="573.685437" xlink:href="#b"/><use x="680.582248" y="573.685437" xlink:href="#b"/><use x="676.472128" y="573.685437" xlink:href="#b"/><use x="672.225004" y="573.685437" xlink:href="#b"/><use x="668.114884" y="573.685437" xlink:href="#b"/><use x="663.86776" y="573.685437" xlink:href="#b"/><use x="660.031648" y="573.685437" xlink:href="#b"/><use x="655.784524" y="573.685437" xlink:href="#b"/><use x="651.5374" y="573.685437" xlink:href="#b"/><use x="647.42728" y="573.685437" xlink:href="#b"/><use x="643.180156" y="573.929814" xlink:href="#b"/><use x="639.070036" y="573.929814" xlink:href="#b"/><use x="634.822913" y="573.929814" xlink:href="#b"/><use x="630.575789" y="573.929814" xlink:href="#b"/><use x="626.465669" y="574.17419" xlink:href="#b"/><use x="622.218545" y="574.17419" xlink:href="#b"/><use x="618.108425" y="574.17419" xlink:href="#b"/><use x="613.861301" y="574.17419" xlink:href="#b"/><use x="610.025189" y="574.17419" xlink:href="#b"/><use x="605.778065" y="574.17419" xlink:href="#b"/><use x="601.530941" y="574.17419" xlink:href="#b"/><use x="597.420821" y="574.17419" xlink:href="#b"/><use x="593.173697" y="574.17419" xlink:href="#b"/><use x="589.063577" y="574.17419" xlink:href="#b"/><use x="584.816453" y="574.17419" xlink:href="#b"/><use x="580.569329" y="574.17419" xlink:href="#b"/><use x="576.459209" y="574.17419" xlink:href="#b"/><use x="572.212085" y="574.17419" xlink:href="#b"/><use x="568.101965" y="574.17419" xlink:href="#b"/><use x="563.854841" y="574.17419" xlink:href="#b"/><use x="559.881725" y="574.17419" xlink:href="#b"/><use x="555.634602" y="574.17419" xlink:href="#b"/><use x="551.387478" y="574.17419" xlink:href="#b"/><use x="547.277358" y="574.662942" xlink:href="#b"/><use x="543.030234" y="574.907319" xlink:href="#b"/><use x="538.920114" y="574.907319" xlink:href="#b"/><use x="534.67299" y="574.907319" xlink:href="#b"/><use x="530.425866" y="574.907319" xlink:href="#b"/><use x="526.315746" y="574.907319" xlink:href="#b"/><use x="522.068622" y="574.907319" xlink:href="#b"/><use x="517.958502" y="574.907319" xlink:href="#b"/><use x="513.711378" y="574.907319" xlink:href="#b"/><use x="509.875266" y="574.907319" xlink:href="#b"/><use x="505.628142" y="575.151695" xlink:href="#b"/><use x="501.381018" y="575.151695" xlink:href="#b"/><use x="497.270898" y="575.151695" xlink:href="#b"/><use x="493.023774" y="575.151695" xlink:href="#b"/><use x="488.913654" y="575.151695" xlink:href="#b"/><use x="484.66653" y="575.151695" xlink:href="#b"/><use x="480.419407" y="575.151695" xlink:href="#b"/><use x="476.309287" y="575.151695" xlink:href="#b"/><use x="472.062163" y="575.151695" xlink:href="#b"/><use x="467.952043" y="575.151695" xlink:href="#b"/><use x="463.704919" y="575.396071" xlink:href="#b"/><use x="459.868807" y="575.396071" xlink:href="#b"/><use x="455.621683" y="575.396071" xlink:href="#b"/><use x="405.615223" y="576.1292" xlink:href="#b"/><use x="355.47176" y="577.106705" xlink:href="#b"/><use x="305.465301" y="578.084211" xlink:href="#b"/><use x="255.458841" y="578.817339" xlink:href="#b"/><use x="205.452382" y="580.527973" xlink:href="#b"/><use x="155.308919" y="583.704865" xlink:href="#b"/><use x="105.302459" y="585.904252" xlink:href="#b"/><use x="55.296" y="588.348015" xlink:href="#b"/></g><path d="m393.7 609.12v-610.12" clip-path="url(#f)" fill="none" stroke="#008000" stroke-dasharray="5.55,2.4" stroke-width="1.5"/><path d="m655.78 609.12v-610.12" clip-path="url(#f)" fill="none" stroke="#008000" stroke-dasharray="5.55,2.4" stroke-width="1.5"/><path d="m876.77 609.12v-610.12" clip-path="url(#f)" fill="none" stroke="#008000" stroke-dasharray="5.55,2.4" stroke-width="1.5"/><path d="m929.52 609.12v-610.12" clip-path="url(#f)" fill="none" stroke="#008000" stroke-dasharray="5.55,2.4" stroke-width="1.5"/><path d="m1065.6 609.12v-610.12" clip-path="url(#f)" fill="none" stroke="#008000" stroke-dasharray="5.55,2.4" stroke-width="1.5"/><path d="m1100.2 609.12v-610.12" clip-path="url(#f)" fill="none" stroke="#008000" stroke-dasharray="5.55,2.4" stroke-width="1.5"/><path d="m1111.9 609.12v-610.12" clip-path="url(#f)" fill="none" stroke="#008000" stroke-dasharray="5.55,2.4" stroke-width="1.5"/><path d="m1111.9 609.12v-610.12" clip-path="url(#f)" fill="none" stroke="#008000" stroke-dasharray="5.55,2.4" stroke-width="1.5"/><path d="m55.296 609.12v-589.68" fill="none" stroke="#000" stroke-linecap="square" stroke-width=".8"/><path d="m1140.5 609.12v-589.68" fill="none" stroke="#000" stroke-linecap="square" stroke-width=".8"/><path d="m55.296 609.12h1085.2" fill="none" stroke="#000" stroke-linecap="square" stroke-width=".8"/><path d="m55.296 19.44h1085.2" fill="none" stroke="#000" stroke-linecap="square" stroke-width=".8"/><g transform="translate(109.18 13.44) scale(.14 -.14)"><defs><path id="v" transform="scale(.015625)" d="m581 3500h841l994-2344 997 2344h834v-3500h-578v2950l-966-2278h-575l-969 2278v-2950h-578v3500z"/><path id="al" transform="scale(.015625)" d="m3578 3500v-3500h-572v2809l-1687-2809h-738v3500h572v-2803l1685 2803h740zm-2476 1333h369q34-234 185-352 152-117 424-117 269 0 419 116t190 353h369q-31-447-278-672t-700-225-700 225-278 672z"/><path id="ac" transform="scale(.015625)" d="m2206 1888q388-75 603-304 216-228 216-565 0-541-403-826-403-284-1147-284-250 0-514 44t-545 131v535q222-116 487-174 266-57 556-57 472 0 736 175t264 456q0 275-234 442t-662 167h-463v475h484q363 0 574 139t211 358q0 200-218 344-217 144-588 144-222 0-474-41-251-41-555-131v522q307 75 572 112 266 38 503 38 613 0 967-246 355-245 355-686 0-290-188-492-187-201-537-276z"/><path id="ar" transform="scale(.015625)" d="m684 794h660v-794h-660v794z"/><path id="bb" transform="scale(.015625)" d="m1259 2228v-1709h1013q509 0 754 211 246 211 246 645 0 438-246 645-245 208-754 208h-1013zm0 1919v-1406h935q462 0 688 173 227 174 227 530 0 353-227 528-226 175-688 175h-935zm-631 519h1613q722 0 1112-300 391-300 391-853 0-429-200-682t-588-315q466-100 724-418 258-317 258-792 0-625-425-966-425-340-1210-340h-1675v4666z"/><path id="ae" transform="scale(.015625)" d="m3603 0h-3022v3500h578v-3041h1866v3041h578v-3041h460v-1343h-460v884z"/><path id="aa" transform="scale(.015625)" d="m2781 1038q0 281-205 428-204 147-598 147h-819v-1154h819q394 0 598 148 205 149 205 431zm-2200 2462h578v-1428h844q669 0 1030-255 361-254 361-779t-361-782q-361-256-1030-256h-1422v3500z"/><path id="az" transform="scale(.015625)" d="m4159 4666v-4666h-612v3903l-2069-3903h-850v4666h613v-3903l2068 3903h850z"/><path id="as" transform="scale(.015625)" d="m3431 3097q-462 0-731-361t-269-989 267-989q268-361 733-361 460 0 728 362 269 363 269 988 0 622-269 986-268 364-728 364zm-1587-994q59 594 448 1037 389 444 1139 444t1178-488q429-487 429-1349 0-859-429-1349-428-489-1178-489-753 0-1164 472t-439 1247h-650v-1628h-575v3500h575v-1397h666z"/></defs><use xlink:href="#ao"/><use x="78.125" xlink:href="#q"/><use x="143.115234" xlink:href="#l"/><use x="208.496094" xlink:href="#m"/><use x="269.775391" xlink:href="#v"/><use x="345.214844" xlink:href="#q"/><use x="410.205078" xlink:href="#p"/><use x="470.605469" xlink:href="#m"/><use x="531.884766" xlink:href="#DejaVuSans-20"/><use x="563.671875" xlink:href="#e"/><use x="624.853516" xlink:href="#k"/><use x="683.105469" xlink:href="#p"/><use x="743.505859" xlink:href="#t"/><use x="806.982422" xlink:href="#o"/><use x="885.9375" xlink:href="#k"/><use x="944.189453" xlink:href="#q"/><use x="1009.179688" xlink:href="#al"/><use x="1074.169922" xlink:href="#DejaVuSans-20"/><use x="1105.957031" xlink:href="#e"/><use x="1167.138672" xlink:href="#p"/><use x="1227.539062" xlink:href="#e"/><use x="1288.720703" xlink:href="#s"/><use x="1352.636719" xlink:href="#e"/><use x="1413.818359" xlink:href="#ac"/><use x="1466.992188" xlink:href="#h"/><use x="1528.515625" xlink:href="#v"/><use x="1603.955078" xlink:href="#l"/><use x="1669.335938" xlink:href="#o"/><use x="1748.291016" xlink:href="#ab"/><use x="1807.470703" xlink:href="#DejaVuSans-20"/><use x="1839.257812" xlink:href="#e"/><use x="1900.439453" xlink:href="#am"/><use x="1962.109375" xlink:href="#ak"/><use x="2032.763672" xlink:href="#h"/><use x="2094.287109" xlink:href="#p"/><use x="2154.6875" xlink:href="#k"/><use x="2212.939453" xlink:href="#e"/><use x="2274.121094" xlink:href="#y"/><use x="2333.056641" xlink:href="#ar"/><use x="2364.84375" xlink:href="#DejaVuSans-20"/><use x="2396.630859" xlink:href="#bb"/><use x="2465.234375" xlink:href="#r"/><use x="2520.214844" xlink:href="#h"/><use x="2581.738281" xlink:href="#af"/><use x="2634.277344" xlink:href="#e"/><use x="2695.458984" xlink:href="#DejaVuSans-20"/><use x="2727.246094" xlink:href="#x"/><use x="2790.869141" xlink:href="#g"/><use x="2854.492188" xlink:href="#g"/><use x="2918.115234" xlink:href="#ah"/><use x="2981.738281" xlink:href="#ag"/><use x="3045.361328" xlink:href="#DejaVuSans-20"/><use x="3077.148438" xlink:href="#e"/><use x="3138.330078" xlink:href="#p"/><use x="3198.730469" xlink:href="#e"/><use x="3259.912109" xlink:href="#s"/><use x="3323.828125" xlink:href="#e"/><use x="3385.009766" xlink:href="#ac"/><use x="3438.183594" xlink:href="#h"/><use x="3499.707031" xlink:href="#v"/><use x="3575.146484" xlink:href="#l"/><use x="3640.527344" xlink:href="#o"/><use x="3719.482422" xlink:href="#ab"/><use x="3778.662109" xlink:href="#DejaVuSans-20"/><use x="3810.449219" xlink:href="#q"/><use x="3875.439453" xlink:href="#DejaVuSans-20"/><use x="3907.226562" xlink:href="#g"/><use x="3970.849609" xlink:href="#x"/><use x="4034.472656" xlink:href="#ai"/><use x="4098.095703" xlink:href="#x"/><use x="4161.71875" xlink:href="#DejaVuSans-20"/><use x="4193.505859" xlink:href="#u"/><use x="4258.886719" xlink:href="#e"/><use x="4320.068359" xlink:href="#k"/><use x="4378.320312" xlink:href="#h"/><use x="4439.84375" xlink:href="#l"/><use x="4505.224609" xlink:href="#ae"/><use x="4573.291016" xlink:href="#q"/><use x="4638.28125" xlink:href="#m"/><use x="4699.560547" xlink:href="#s"/><use x="4763.476562" xlink:href="#aa"/><use x="4822.412109" xlink:href="#l"/><use x="4887.792969" xlink:href="#e"/><use x="4948.974609" xlink:href="#DejaVuSans-20"/><use x="4980.761719" xlink:href="#e"/><use x="5041.943359" xlink:href="#u"/><use x="5107.324219" xlink:href="#m"/><use x="5168.603516" xlink:href="#r"/><use x="5223.583984" xlink:href="#l"/><use x="5288.964844" xlink:href="#o"/><use x="5367.919922" xlink:href="#ab"/><use x="5427.099609" xlink:href="#DejaVuSans-20"/><use x="5458.886719" xlink:href="#m"/><use x="5520.166016" xlink:href="#r"/><use x="5575.146484" xlink:href="#k"/><use x="5633.398438" xlink:href="#h"/><use x="5694.921875" xlink:href="#t"/><use x="5758.398438" xlink:href="#e"/><use x="5819.580078" xlink:href="#q"/><use x="5884.570312" xlink:href="#w"/><use x="5953.710938" xlink:href="#e"/><use x="6014.892578" xlink:href="#y"/><use x="6073.828125" xlink:href="#ar"/><use x="6105.615234" xlink:href="#DejaVuSans-20"/><use x="6137.402344" xlink:href="#az"/><use x="6212.207031" xlink:href="#as"/><use x="6296.386719" xlink:href="#s"/><use x="6360.302734" xlink:href="#aa"/><use x="6419.238281" xlink:href="#DejaVuSans-20"/><use x="6451.025391" xlink:href="#g"/><use x="6514.648438" xlink:href="#d"/><use x="6578.271484" xlink:href="#g"/><use x="6641.894531" xlink:href="#x"/><use x="6705.517578" xlink:href="#DejaVuSans-20"/><use x="6737.304688" xlink:href="#af"/><use x="6789.84375" xlink:href="#e"/><use x="6851.025391" xlink:href="#w"/><use x="6920.166016" xlink:href="#m"/></g><path d="m64.396 106.17h378.65q2.6 0 2.6-2.6v-75.026q0-2.6-2.6-2.6h-378.65q-2.6 0-2.6 2.6v75.026q0 2.6 2.6 2.6z" fill="#fff" opacity=".8" stroke="#ccc"/><path d="m66.996 36.468h13 13" fill="none" stroke="#000" stroke-linecap="square" stroke-width="2"/><use x="79.996" y="36.467969" stroke="#000000" xlink:href="#c"/><g transform="translate(103.4 41.018) scale(.13 -.13)"><defs><path id="an" transform="scale(.015625)" d="m4184 4666v-4666h-631v4134h-2294v-4134h-631v4666h3556z"/></defs><use xlink:href="#an"/><use x="75.195312" xlink:href="#e"/><use x="136.376953" xlink:href="#k"/><use x="194.628906" xlink:href="#h"/><use x="256.152344" xlink:href="#l"/><use x="321.533203" xlink:href="#ae"/><use x="389.599609" xlink:href="#q"/><use x="454.589844" xlink:href="#m"/><use x="515.869141" xlink:href="#s"/><use x="579.785156" xlink:href="#aa"/><use x="638.720703" xlink:href="#l"/><use x="704.101562" xlink:href="#e"/><use x="765.283203" xlink:href="#DejaVuSans-20"/><use x="797.070312" xlink:href="#e"/><use x="858.251953" xlink:href="#u"/><use x="923.632812" xlink:href="#m"/><use x="984.912109" xlink:href="#r"/><use x="1039.892578" xlink:href="#l"/><use x="1105.273438" xlink:href="#o"/><use x="1184.228516" xlink:href="#h"/><use x="1245.751953" xlink:href="#DejaVuSans-20"/><use x="1277.539062" xlink:href="#m"/><use x="1338.818359" xlink:href="#r"/><use x="1393.798828" xlink:href="#k"/><use x="1452.050781" xlink:href="#h"/><use x="1513.574219" xlink:href="#t"/><use x="1577.050781" xlink:href="#e"/><use x="1638.232422" xlink:href="#q"/><use x="1703.222656" xlink:href="#w"/><use x="1772.363281" xlink:href="#o"/></g><path d="m66.996 55.55h13 13" fill="none" stroke="#9467bd" stroke-linecap="square" stroke-width="2"/><use x="79.996" y="55.549531" fill="#9467bd" stroke="#9467bd" xlink:href="#a"/><g transform="translate(103.4 60.1) scale(.13 -.13)"><defs><path id="ay" transform="scale(.015625)" d="m2522 4238q-688 0-1093-513-404-512-404-1397 0-881 404-1394 405-512 1093-512 687 0 1089 512 402 513 402 1394 0 885-402 1397-402 513-1089 513zm0 512q981 0 1568-658 588-658 588-1764 0-1103-588-1761-587-658-1568-658-984 0-1574 656-589 657-589 1763t589 1764q590 658 1574 658z"/></defs><use xlink:href="#ay"/><use x="78.710938" xlink:href="#p"/><use x="139.111328" xlink:href="#e"/><use x="200.292969" xlink:href="#s"/><use x="264.208984" xlink:href="#e"/><use x="325.390625" xlink:href="#ac"/><use x="378.564453" xlink:href="#h"/><use x="440.087891" xlink:href="#v"/><use x="515.527344" xlink:href="#l"/><use x="580.908203" xlink:href="#o"/><use x="659.863281" xlink:href="#h"/><use x="721.386719" xlink:href="#DejaVuSans-20"/><use x="753.173828" xlink:href="#m"/><use x="814.453125" xlink:href="#r"/><use x="869.433594" xlink:href="#k"/><use x="927.685547" xlink:href="#h"/><use x="989.208984" xlink:href="#t"/><use x="1052.685547" xlink:href="#e"/><use x="1113.867188" xlink:href="#q"/><use x="1178.857422" xlink:href="#w"/><use x="1247.998047" xlink:href="#o"/><use x="1326.953125" xlink:href="#DejaVuSans-20"/><use x="1358.740234" xlink:href="#e"/><use x="1419.921875" xlink:href="#k"/><use x="1478.173828" xlink:href="#DejaVuSans-20"/><use x="1509.960938" xlink:href="#n"/><use x="1573.583984" xlink:href="#DejaVuSans-20"/><use x="1605.371094" xlink:href="#p"/><use x="1665.771484" xlink:href="#v"/></g><path d="m66.996 74.631h13 13" fill="none" stroke="#d62728" stroke-linecap="square" stroke-width="2"/><use x="79.996" y="74.631094" fill="#d62728" stroke="#d62728" xlink:href="#b"/><g transform="translate(103.4 79.181) scale(.13 -.13)"><use xlink:href="#an"/><use x="75.195312" xlink:href="#e"/><use x="136.376953" xlink:href="#k"/><use x="194.628906" xlink:href="#h"/><use x="256.152344" xlink:href="#l"/><use x="321.533203" xlink:href="#ae"/><use x="389.599609" xlink:href="#q"/><use x="454.589844" xlink:href="#m"/><use x="515.869141" xlink:href="#s"/><use x="579.785156" xlink:href="#aa"/><use x="638.720703" xlink:href="#l"/><use x="704.101562" xlink:href="#e"/><use x="765.283203" xlink:href="#DejaVuSans-20"/><use x="797.070312" xlink:href="#e"/><use x="858.251953" xlink:href="#u"/><use x="923.632812" xlink:href="#m"/><use x="984.912109" xlink:href="#r"/><use x="1039.892578" xlink:href="#l"/><use x="1105.273438" xlink:href="#o"/><use x="1184.228516" xlink:href="#h"/><use x="1245.751953" xlink:href="#DejaVuSans-20"/><use x="1277.539062" xlink:href="#m"/><use x="1338.818359" xlink:href="#r"/><use x="1393.798828" xlink:href="#k"/><use x="1452.050781" xlink:href="#h"/><use x="1513.574219" xlink:href="#t"/><use x="1577.050781" xlink:href="#e"/><use x="1638.232422" xlink:href="#q"/><use x="1703.222656" xlink:href="#w"/><use x="1772.363281" xlink:href="#o"/><use x="1851.318359" xlink:href="#DejaVuSans-20"/><use x="1883.105469" xlink:href="#e"/><use x="1944.287109" xlink:href="#k"/><use x="2002.539062" xlink:href="#DejaVuSans-20"/><use x="2034.326172" xlink:href="#n"/><use x="2097.949219" xlink:href="#DejaVuSans-20"/><use x="2129.736328" xlink:href="#p"/><use x="2190.136719" xlink:href="#v"/></g><path d="m66.996 93.713h13 13" fill="none" stroke="#008000" stroke-dasharray="5.55,2.4" stroke-width="1.5"/><g transform="translate(103.4 98.263) scale(.13 -.13)"><defs><path id="aw" transform="scale(.015625)" d="m2047 566q-66-157-166-275-247-291-1031-291h-241v531h197q372 0 516 85 87 53 144 184l140 331-1497 3535h679l1159-2738 1166 2738h678l-1744-4100z"/><path id="at" transform="scale(.015625)" d="m3216 459h1481v3041h578v-3500h-4694v3500h578v-3041h1479v3041h578v-3041z"/><path id="ba" transform="scale(.015625)" d="m1828 4750q769 0 1256-327 488-326 488-882 0-388-222-655t-631-370q453-97 707-404 255-306 255-756 0-718-555-1083-554-364-1298-364-381 0-825 103-444 104-581 191v650q478-278 742-345t652-67q587 0 912 225t325 690q0 413-289 645-289 233-898 233h-638v519h663q559 0 806 186t247 536q0 359-255 551-255 193-873 193-419 0-563-38-144-37-784-278v616q353 125 721 178 369 53 638 53z"/></defs><use xlink:href="#aw"/><use x="60.9375" xlink:href="#r"/><use x="115.917969" xlink:href="#u"/><use x="181.298828" xlink:href="#h"/><use x="242.822266" xlink:href="#at"/><use x="334.326172" xlink:href="#l"/><use x="399.707031" xlink:href="#e"/><use x="460.888672" xlink:href="#DejaVuSans-20"/><use x="492.675781" xlink:href="#u"/><use x="558.056641" xlink:href="#t"/><use x="621.533203" xlink:href="#h"/><use x="683.056641" xlink:href="#w"/><use x="752.197266" xlink:href="#r"/><use x="807.177734" xlink:href="#p"/><use x="867.578125" xlink:href="#m"/><use x="928.857422" xlink:href="#ac"/><use x="982.03125" xlink:href="#m"/><use x="1043.310547" xlink:href="#l"/><use x="1108.691406" xlink:href="#l"/><use x="1174.072266" xlink:href="#o"/><use x="1253.027344" xlink:href="#h"/><use x="1314.550781" xlink:href="#DejaVuSans-20"/><use x="1346.337891" xlink:href="#r"/><use x="1401.318359" xlink:href="#k"/><use x="1459.570312" xlink:href="#e"/><use x="1520.751953" xlink:href="#s"/><use x="1584.667969" xlink:href="#p"/><use x="1645.068359" xlink:href="#l"/><use x="1710.449219" xlink:href="#e"/><use x="1771.630859" xlink:href="#y"/><use x="1830.566406" xlink:href="#h"/><use x="1892.089844" xlink:href="#l"/><use x="1957.470703" xlink:href="#q"/><use x="2022.460938" xlink:href="#aj"/><use x="2082.617188" xlink:href="#DejaVuSans-20"/><use x="2114.404297" xlink:href="#r"/><use x="2169.384766" xlink:href="#DejaVuSans-20"/><use x="2201.171875" xlink:href="#ba"/><use x="2265.283203" xlink:href="#h"/><use x="2326.806641" xlink:href="#v"/><use x="2402.246094" xlink:href="#s"/><use x="2466.162109" xlink:href="#h"/><use x="2527.685547" xlink:href="#al"/></g><defs><clipPath id="f"><rect x="55.296" y="19.44" width="1085.2" height="589.68"/></clipPath></defs></svg>
