<?xml version="1.0" encoding="UTF-8"?>
<!DOCTYPE svg  PUBLIC '-//W3C//DTD SVG 1.1//EN'  'http://www.w3.org/Graphics/SVG/1.1/DTD/svg11.dtd'>
<svg width="1152pt" height="648pt" version="1.1" viewBox="0 0 1152 648" xmlns="http://www.w3.org/2000/svg" xmlns:xlink="http://www.w3.org/1999/xlink"><defs><style type="text/css">*{stroke-linejoin: round; stroke-linecap: butt}</style></defs><path d="m0 648h1152v-648h-1152z" fill="#fff"/><path d="m55.296 609.12h1085.2v-589.68h-1085.2z" fill="#fff"/><path d="m55.296 609.12v-589.68" clip-path="url(#f)" fill="none" stroke="#b0b0b0" stroke-dasharray="0.8,1.32" stroke-width=".8"/><defs><path id="j" d="m0 0v3.5" stroke="#000" stroke-width=".8"/></defs><use x="55.296" y="609.12" stroke="#000000" stroke-width=".8" xlink:href="#j"/><g transform="translate(42.571 623.72) scale(.1 -.1)"><defs><path id="g" transform="scale(.015625)" d="m1228 531h2203v-531h-2962v531q359 372 979 998 621 627 780 809 303 340 423 576 121 236 121 464 0 372-261 606-261 235-680 235-297 0-627-103-329-103-704-313v638q381 153 712 231 332 78 607 78 725 0 1156-363 431-362 431-968 0-288-108-546-107-257-392-607-78-91-497-524-418-433-1181-1211z"/><path id="d" transform="scale(.015625)" d="m2034 4250q-487 0-733-480-245-479-245-1442 0-959 245-1439 246-480 733-480 491 0 736 480 246 480 246 1439 0 963-246 1442-245 480-736 480zm0 500q785 0 1199-621 414-620 414-1801 0-1178-414-1799-414-620-1199-620-784 0-1198 620-414 621-414 1799 0 1181 414 1801 414 621 1198 621z"/></defs><use xlink:href="#g"/><use x="63.623047" xlink:href="#d"/><use x="127.246094" xlink:href="#d"/><use x="190.869141" xlink:href="#g"/></g><path d="m105.6 609.12v-589.68" clip-path="url(#f)" fill="none" stroke="#b0b0b0" stroke-dasharray="0.8,1.32" stroke-width=".8"/><use x="105.601018" y="609.12" stroke="#000000" stroke-width=".8" xlink:href="#j"/><g transform="translate(92.876 623.72) scale(.1 -.1)"><defs><path id="x" transform="scale(.015625)" d="m2597 2516q453-97 707-404 255-306 255-756 0-690-475-1069-475-378-1350-378-293 0-604 58t-642 174v609q262-153 574-231 313-78 654-78 593 0 904 234t311 681q0 413-289 645-289 233-804 233h-544v519h569q465 0 712 186t247 536q0 359-255 551-254 193-729 193-260 0-557-57-297-56-653-174v562q360 100 674 150t592 50q719 0 1137-327 419-326 419-882 0-388-222-655t-631-370z"/></defs><use xlink:href="#g"/><use x="63.623047" xlink:href="#d"/><use x="127.246094" xlink:href="#d"/><use x="190.869141" xlink:href="#x"/></g><path d="m155.91 609.12v-589.68" clip-path="url(#f)" fill="none" stroke="#b0b0b0" stroke-dasharray="0.8,1.32" stroke-width=".8"/><use x="155.906037" y="609.12" stroke="#000000" stroke-width=".8" xlink:href="#j"/><g transform="translate(143.18 623.72) scale(.1 -.1)"><defs><path id="aq" transform="scale(.015625)" d="m2419 4116-1594-2491h1594v2491zm-166 550h794v-3041h666v-525h-666v-1100h-628v1100h-2106v609l1940 2957z"/></defs><use xlink:href="#g"/><use x="63.623047" xlink:href="#d"/><use x="127.246094" xlink:href="#d"/><use x="190.869141" xlink:href="#aq"/></g><path d="m206.35 609.12v-589.68" clip-path="url(#f)" fill="none" stroke="#b0b0b0" stroke-dasharray="0.8,1.32" stroke-width=".8"/><use x="206.348877" y="609.12" stroke="#000000" stroke-width=".8" xlink:href="#j"/><g transform="translate(193.62 623.72) scale(.1 -.1)"><defs><path id="aa" transform="scale(.015625)" d="m691 4666h2478v-532h-1900v-1143q137 47 274 70 138 23 276 23 781 0 1237-428 457-428 457-1159 0-753-469-1171-469-417-1322-417-294 0-599 50-304 50-629 150v635q281-153 581-228t634-75q541 0 856 284 316 284 316 772 0 487-316 771-315 285-856 285-253 0-505-56-251-56-513-175v2344z"/></defs><use xlink:href="#g"/><use x="63.623047" xlink:href="#d"/><use x="127.246094" xlink:href="#d"/><use x="190.869141" xlink:href="#aa"/></g><path d="m256.65 609.12v-589.68" clip-path="url(#f)" fill="none" stroke="#b0b0b0" stroke-dasharray="0.8,1.32" stroke-width=".8"/><use x="256.653896" y="609.12" stroke="#000000" stroke-width=".8" xlink:href="#j"/><g transform="translate(243.93 623.72) scale(.1 -.1)"><defs><path id="ah" transform="scale(.015625)" d="m2113 2584q-425 0-674-291-248-290-248-796 0-503 248-796 249-292 674-292t673 292q248 293 248 796 0 506-248 796-248 291-673 291zm1253 1979v-575q-238 112-480 171-242 60-480 60-625 0-955-422-329-422-376-1275 184 272 462 417 279 145 613 145 703 0 1111-427 408-426 408-1160 0-719-425-1154-425-434-1131-434-810 0-1238 620-428 621-428 1799 0 1106 525 1764t1409 658q238 0 480-47t505-140z"/></defs><use xlink:href="#g"/><use x="63.623047" xlink:href="#d"/><use x="127.246094" xlink:href="#d"/><use x="190.869141" xlink:href="#ah"/></g><path d="m306.96 609.12v-589.68" clip-path="url(#f)" fill="none" stroke="#b0b0b0" stroke-dasharray="0.8,1.32" stroke-width=".8"/><use x="306.958914" y="609.12" stroke="#000000" stroke-width=".8" xlink:href="#j"/><g transform="translate(294.23 623.72) scale(.1 -.1)"><defs><path id="ap" transform="scale(.015625)" d="m525 4666h3e3v-269l-1694-4397h-659l1594 4134h-2241v532z"/></defs><use xlink:href="#g"/><use x="63.623047" xlink:href="#d"/><use x="127.246094" xlink:href="#d"/><use x="190.869141" xlink:href="#ap"/></g><path d="m357.26 609.12v-589.68" clip-path="url(#f)" fill="none" stroke="#b0b0b0" stroke-dasharray="0.8,1.32" stroke-width=".8"/><use x="357.263932" y="609.12" stroke="#000000" stroke-width=".8" xlink:href="#j"/><g transform="translate(344.54 623.72) scale(.1 -.1)"><defs><path id="ao" transform="scale(.015625)" d="m2034 2216q-450 0-708-241-257-241-257-662 0-422 257-663 258-241 708-241t709 242q260 243 260 662 0 421-258 662-257 241-711 241zm-631 268q-406 100-633 378-226 279-226 679 0 559 398 884 399 325 1092 325 697 0 1094-325t397-884q0-400-227-679-226-278-629-378 456-106 710-416 255-309 255-755 0-679-414-1042-414-362-1186-362-771 0-1186 362-414 363-414 1042 0 446 256 755 257 310 713 416zm-231 997q0-362 226-565 227-203 636-203 407 0 636 203 230 203 230 565 0 363-230 566-229 203-636 203-409 0-636-203-226-203-226-566z"/></defs><use xlink:href="#g"/><use x="63.623047" xlink:href="#d"/><use x="127.246094" xlink:href="#d"/><use x="190.869141" xlink:href="#ao"/></g><path d="m407.71 609.12v-589.68" clip-path="url(#f)" fill="none" stroke="#b0b0b0" stroke-dasharray="0.8,1.32" stroke-width=".8"/><use x="407.706773" y="609.12" stroke="#000000" stroke-width=".8" xlink:href="#j"/><g transform="translate(394.98 623.72) scale(.1 -.1)"><defs><path id="an" transform="scale(.015625)" d="m703 97v575q238-113 481-172 244-59 479-59 625 0 954 420 330 420 377 1277-181-269-460-413-278-144-615-144-700 0-1108 423-408 424-408 1159 0 718 425 1152 425 435 1131 435 810 0 1236-621 427-620 427-1801 0-1103-524-1761-523-658-1407-658-238 0-482 47-243 47-506 141zm1256 1978q425 0 673 290 249 291 249 798 0 503-249 795-248 292-673 292t-673-292-248-795q0-507 248-798 248-290 673-290z"/></defs><use xlink:href="#g"/><use x="63.623047" xlink:href="#d"/><use x="127.246094" xlink:href="#d"/><use x="190.869141" xlink:href="#an"/></g><path d="m458.01 609.12v-589.68" clip-path="url(#f)" fill="none" stroke="#b0b0b0" stroke-dasharray="0.8,1.32" stroke-width=".8"/><use x="458.011791" y="609.12" stroke="#000000" stroke-width=".8" xlink:href="#j"/><g transform="translate(445.29 623.72) scale(.1 -.1)"><defs><path id="n" transform="scale(.015625)" d="m794 531h1031v3560l-1122-225v575l1116 225h631v-4135h1031v-531h-2687v531z"/></defs><use xlink:href="#g"/><use x="63.623047" xlink:href="#d"/><use x="127.246094" xlink:href="#n"/><use x="190.869141" xlink:href="#d"/></g><path d="m508.32 609.12v-589.68" clip-path="url(#f)" fill="none" stroke="#b0b0b0" stroke-dasharray="0.8,1.32" stroke-width=".8"/><use x="508.31681" y="609.12" stroke="#000000" stroke-width=".8" xlink:href="#j"/><g transform="translate(495.59 623.72) scale(.1 -.1)"><use xlink:href="#g"/><use x="63.623047" xlink:href="#d"/><use x="127.246094" xlink:href="#n"/><use x="190.869141" xlink:href="#n"/></g><path d="m558.62 609.12v-589.68" clip-path="url(#f)" fill="none" stroke="#b0b0b0" stroke-dasharray="0.8,1.32" stroke-width=".8"/><use x="558.621828" y="609.12" stroke="#000000" stroke-width=".8" xlink:href="#j"/><g transform="translate(545.9 623.72) scale(.1 -.1)"><use xlink:href="#g"/><use x="63.623047" xlink:href="#d"/><use x="127.246094" xlink:href="#n"/><use x="190.869141" xlink:href="#g"/></g><path d="m609.06 609.12v-589.68" clip-path="url(#f)" fill="none" stroke="#b0b0b0" stroke-dasharray="0.8,1.32" stroke-width=".8"/><use x="609.064668" y="609.12" stroke="#000000" stroke-width=".8" xlink:href="#j"/><g transform="translate(596.34 623.72) scale(.1 -.1)"><use xlink:href="#g"/><use x="63.623047" xlink:href="#d"/><use x="127.246094" xlink:href="#n"/><use x="190.869141" xlink:href="#x"/></g><path d="m659.37 609.12v-589.68" clip-path="url(#f)" fill="none" stroke="#b0b0b0" stroke-dasharray="0.8,1.32" stroke-width=".8"/><use x="659.369687" y="609.12" stroke="#000000" stroke-width=".8" xlink:href="#j"/><g transform="translate(646.64 623.72) scale(.1 -.1)"><use xlink:href="#g"/><use x="63.623047" xlink:href="#d"/><use x="127.246094" xlink:href="#n"/><use x="190.869141" xlink:href="#aq"/></g><path d="m709.67 609.12v-589.68" clip-path="url(#f)" fill="none" stroke="#b0b0b0" stroke-dasharray="0.8,1.32" stroke-width=".8"/><use x="709.674705" y="609.12" stroke="#000000" stroke-width=".8" xlink:href="#j"/><g transform="translate(696.95 623.72) scale(.1 -.1)"><use xlink:href="#g"/><use x="63.623047" xlink:href="#d"/><use x="127.246094" xlink:href="#n"/><use x="190.869141" xlink:href="#aa"/></g><path d="m759.98 609.12v-589.68" clip-path="url(#f)" fill="none" stroke="#b0b0b0" stroke-dasharray="0.8,1.32" stroke-width=".8"/><use x="759.979723" y="609.12" stroke="#000000" stroke-width=".8" xlink:href="#j"/><g transform="translate(747.25 623.72) scale(.1 -.1)"><use xlink:href="#g"/><use x="63.623047" xlink:href="#d"/><use x="127.246094" xlink:href="#n"/><use x="190.869141" xlink:href="#ah"/></g><path d="m810.42 609.12v-589.68" clip-path="url(#f)" fill="none" stroke="#b0b0b0" stroke-dasharray="0.8,1.32" stroke-width=".8"/><use x="810.422564" y="609.12" stroke="#000000" stroke-width=".8" xlink:href="#j"/><g transform="translate(797.7 623.72) scale(.1 -.1)"><use xlink:href="#g"/><use x="63.623047" xlink:href="#d"/><use x="127.246094" xlink:href="#n"/><use x="190.869141" xlink:href="#ap"/></g><path d="m860.73 609.12v-589.68" clip-path="url(#f)" fill="none" stroke="#b0b0b0" stroke-dasharray="0.8,1.32" stroke-width=".8"/><use x="860.727582" y="609.12" stroke="#000000" stroke-width=".8" xlink:href="#j"/><g transform="translate(848 623.72) scale(.1 -.1)"><use xlink:href="#g"/><use x="63.623047" xlink:href="#d"/><use x="127.246094" xlink:href="#n"/><use x="190.869141" xlink:href="#ao"/></g><path d="m911.03 609.12v-589.68" clip-path="url(#f)" fill="none" stroke="#b0b0b0" stroke-dasharray="0.8,1.32" stroke-width=".8"/><use x="911.032601" y="609.12" stroke="#000000" stroke-width=".8" xlink:href="#j"/><g transform="translate(898.31 623.72) scale(.1 -.1)"><use xlink:href="#g"/><use x="63.623047" xlink:href="#d"/><use x="127.246094" xlink:href="#n"/><use x="190.869141" xlink:href="#an"/></g><path d="m961.34 609.12v-589.68" clip-path="url(#f)" fill="none" stroke="#b0b0b0" stroke-dasharray="0.8,1.32" stroke-width=".8"/><use x="961.337619" y="609.12" stroke="#000000" stroke-width=".8" xlink:href="#j"/><g transform="translate(948.61 623.72) scale(.1 -.1)"><use xlink:href="#g"/><use x="63.623047" xlink:href="#d"/><use x="127.246094" xlink:href="#g"/><use x="190.869141" xlink:href="#d"/></g><path d="m1011.8 609.12v-589.68" clip-path="url(#f)" fill="none" stroke="#b0b0b0" stroke-dasharray="0.8,1.32" stroke-width=".8"/><use x="1011.780459" y="609.12" stroke="#000000" stroke-width=".8" xlink:href="#j"/><g transform="translate(999.06 623.72) scale(.1 -.1)"><use xlink:href="#g"/><use x="63.623047" xlink:href="#d"/><use x="127.246094" xlink:href="#g"/><use x="190.869141" xlink:href="#n"/></g><path d="m1062.1 609.12v-589.68" clip-path="url(#f)" fill="none" stroke="#b0b0b0" stroke-dasharray="0.8,1.32" stroke-width=".8"/><use x="1062.085478" y="609.12" stroke="#000000" stroke-width=".8" xlink:href="#j"/><g transform="translate(1049.4 623.72) scale(.1 -.1)"><use xlink:href="#g"/><use x="63.623047" xlink:href="#d"/><use x="127.246094" xlink:href="#g"/><use x="190.869141" xlink:href="#g"/></g><path d="m1112.4 609.12v-589.68" clip-path="url(#f)" fill="none" stroke="#b0b0b0" stroke-dasharray="0.8,1.32" stroke-width=".8"/><use x="1112.390496" y="609.12" stroke="#000000" stroke-width=".8" xlink:href="#j"/><g transform="translate(1099.7 623.72) scale(.1 -.1)"><use xlink:href="#g"/><use x="63.623047" xlink:href="#d"/><use x="127.246094" xlink:href="#g"/><use x="190.869141" xlink:href="#x"/></g><defs><path id="i" d="m0 0v2" stroke="#000" stroke-width=".6"/></defs><use x="80.241776" y="609.12" stroke="#000000" stroke-width=".6" xlink:href="#i"/><use x="130.546795" y="609.12" stroke="#000000" stroke-width=".6" xlink:href="#i"/><use x="180.989635" y="609.12" stroke="#000000" stroke-width=".6" xlink:href="#i"/><use x="231.294653" y="609.12" stroke="#000000" stroke-width=".6" xlink:href="#i"/><use x="281.599672" y="609.12" stroke="#000000" stroke-width=".6" xlink:href="#i"/><use x="331.90469" y="609.12" stroke="#000000" stroke-width=".6" xlink:href="#i"/><use x="382.347531" y="609.12" stroke="#000000" stroke-width=".6" xlink:href="#i"/><use x="432.652549" y="609.12" stroke="#000000" stroke-width=".6" xlink:href="#i"/><use x="482.957567" y="609.12" stroke="#000000" stroke-width=".6" xlink:href="#i"/><use x="533.262586" y="609.12" stroke="#000000" stroke-width=".6" xlink:href="#i"/><use x="583.705426" y="609.12" stroke="#000000" stroke-width=".6" xlink:href="#i"/><use x="634.010445" y="609.12" stroke="#000000" stroke-width=".6" xlink:href="#i"/><use x="684.315463" y="609.12" stroke="#000000" stroke-width=".6" xlink:href="#i"/><use x="734.620481" y="609.12" stroke="#000000" stroke-width=".6" xlink:href="#i"/><use x="785.063322" y="609.12" stroke="#000000" stroke-width=".6" xlink:href="#i"/><use x="835.36834" y="609.12" stroke="#000000" stroke-width=".6" xlink:href="#i"/><use x="885.673358" y="609.12" stroke="#000000" stroke-width=".6" xlink:href="#i"/><use x="935.978377" y="609.12" stroke="#000000" stroke-width=".6" xlink:href="#i"/><use x="986.421217" y="609.12" stroke="#000000" stroke-width=".6" xlink:href="#i"/><use x="1036.726236" y="609.12" stroke="#000000" stroke-width=".6" xlink:href="#i"/><use x="1087.031254" y="609.12" stroke="#000000" stroke-width=".6" xlink:href="#i"/><use x="1137.336272" y="609.12" stroke="#000000" stroke-width=".6" xlink:href="#i"/><g transform="translate(524.97 639.68) scale(.13 -.13)"><defs><path id="am" transform="scale(.015625)" d="m1459 531h2063v3603h-1516v-662q0-1559-350-2594-72-212-197-347zm-921 0q418 197 537 572 303 963 303 2681v882h2775v-4135h531v-1534h-531v1003h-3306v-1003h-531v1534h222z"/><path id="m" transform="scale(.015625)" d="m2194 1759q-697 0-966-159t-269-544q0-306 202-486 202-179 548-179 479 0 768 339t289 901v128h-572zm1147 238v-1997h-575v531q-197-318-491-470t-719-152q-537 0-855 302-317 302-317 808 0 590 395 890 396 300 1180 300h807v57q0 397-261 614t-733 217q-300 0-585-72-284-72-546-216v532q315 122 612 182 297 61 578 61 760 0 1135-394 375-393 375-1193z"/><path id="k" transform="scale(.015625)" d="m188 3500h3353v-459h-1394v-3041h-566v3041h-1393v459z"/><path id="e" transform="scale(.015625)" d="m1959 3097q-462 0-731-361t-269-989 267-989q268-361 733-361 460 0 728 362 269 363 269 988 0 622-269 986-268 364-728 364zm0 487q750 0 1178-488 429-487 429-1349 0-859-429-1349-428-489-1178-489-753 0-1180 489-426 490-426 1349 0 862 426 1349 427 488 1180 488z"/><path id="p" transform="scale(.015625)" d="m581 3500h572v-1644l1622 1644h706l-1337-1353 1509-2147h-644l-1240 1766-616-625v-1141h-572v3500z"/><path id="t" transform="scale(.015625)" d="m1159 525v-1856h-578v4831h578v-531q182 312 458 463 277 152 661 152 638 0 1036-506 399-506 399-1331t-399-1332q-398-506-1036-506-384 0-661 152-276 152-458 464zm1957 1222q0 634-261 995t-717 361q-457 0-718-361t-261-995 261-995 718-361q456 0 717 361t261 995z"/><path id="o" transform="scale(.015625)" d="m3907 3500h575v-3500h-575v3500zm288 84zm-1414-2546q0 281-205 428-204 147-598 147h-819v-1154h819q394 0 598 148 205 149 205 431zm-2200 2462h578v-1428h844q669 0 1030-255 361-254 361-779t-361-782q-361-256-1030-256h-1422v3500z"/><path id="q" transform="scale(.015625)" d="m3578 3500v-3500h-572v2809l-1687-2809h-738v3500h572v-2803l1685 2803h740z"/><path id="ai" transform="scale(.015625)" d="m1181 2491q0-260 200-407 200-146 572-146h775v1103h-775q-372 0-572-144t-200-406zm-818-2491 1068 1534q-362 82-603 296-240 214-240 661 0 506 335 757 336 252 1015 252h1368v-3500h-578v1478h-715l-1032-1478h-618z"/><path id="bb" transform="scale(.015625)" d="m750 794h659v-538l-512-1e3h-403l256 1e3v538z"/><path id="ag" transform="scale(.015625)" d="m581 0v3500h2469v-459h-1891v-3041h-578z"/><path id="w" transform="scale(.015625)" d="m1384 459h1669v2582h-1209v-438q0-1287-369-1975l-91-169zm-834 0q284 125 409 391 307 659 307 1988v662h2365v-3041h460v-1343h-460v884h-2837v-884h-460v1343h216z"/></defs><use xlink:href="#am"/><use x="78.125" xlink:href="#m"/><use x="139.404297" xlink:href="#k"/><use x="197.65625" xlink:href="#m"/><use x="258.935547" xlink:href="#DejaVuSans-20"/><use x="290.722656" xlink:href="#e"/><use x="351.904297" xlink:href="#k"/><use x="410.15625" xlink:href="#p"/><use x="470.556641" xlink:href="#t"/><use x="534.033203" xlink:href="#o"/><use x="612.988281" xlink:href="#k"/><use x="671.240234" xlink:href="#q"/><use x="736.230469" xlink:href="#ai"/><use x="796.386719" xlink:href="#bb"/><use x="828.173828" xlink:href="#DejaVuSans-20"/><use x="859.960938" xlink:href="#ag"/><use x="912.5" xlink:href="#e"/><use x="973.681641" xlink:href="#w"/><use x="1042.822266" xlink:href="#o"/></g><path d="m55.296 609.12h1085.2" clip-path="url(#f)" fill="none" stroke="#b0b0b0" stroke-dasharray="0.8,1.32" stroke-width=".8"/><defs><path id="z" d="m0 0h-3.5" stroke="#000" stroke-width=".8"/></defs><use x="55.296" y="609.12" stroke="#000000" stroke-width=".8" xlink:href="#z"/><g transform="translate(41.934 612.92) scale(.1 -.1)"><use xlink:href="#d"/></g><path d="m55.296 486.53h1085.2" clip-path="url(#f)" fill="none" stroke="#b0b0b0" stroke-dasharray="0.8,1.32" stroke-width=".8"/><use x="55.296" y="486.525405" stroke="#000000" stroke-width=".8" xlink:href="#z"/><g transform="translate(29.208 490.32) scale(.1 -.1)"><use xlink:href="#aa"/><use x="63.623047" xlink:href="#d"/><use x="127.246094" xlink:href="#d"/></g><path d="m55.296 363.93h1085.2" clip-path="url(#f)" fill="none" stroke="#b0b0b0" stroke-dasharray="0.8,1.32" stroke-width=".8"/><use x="55.296" y="363.930811" stroke="#000000" stroke-width=".8" xlink:href="#z"/><g transform="translate(22.846 367.73) scale(.1 -.1)"><use xlink:href="#n"/><use x="63.623047" xlink:href="#d"/><use x="127.246094" xlink:href="#d"/><use x="190.869141" xlink:href="#d"/></g><path d="m55.296 241.34h1085.2" clip-path="url(#f)" fill="none" stroke="#b0b0b0" stroke-dasharray="0.8,1.32" stroke-width=".8"/><use x="55.296" y="241.336216" stroke="#000000" stroke-width=".8" xlink:href="#z"/><g transform="translate(22.846 245.14) scale(.1 -.1)"><use xlink:href="#n"/><use x="63.623047" xlink:href="#aa"/><use x="127.246094" xlink:href="#d"/><use x="190.869141" xlink:href="#d"/></g><path d="m55.296 118.74h1085.2" clip-path="url(#f)" fill="none" stroke="#b0b0b0" stroke-dasharray="0.8,1.32" stroke-width=".8"/><use x="55.296" y="118.741622" stroke="#000000" stroke-width=".8" xlink:href="#z"/><g transform="translate(22.846 122.54) scale(.1 -.1)"><use xlink:href="#g"/><use x="63.623047" xlink:href="#d"/><use x="127.246094" xlink:href="#d"/><use x="190.869141" xlink:href="#d"/></g><g transform="translate(16.142 466.15) rotate(-90) scale(.13 -.13)"><defs><path id="aw" transform="scale(.015625)" d="m4122 4306v-665q-319 297-680 443-361 147-767 147-800 0-1225-489t-425-1414q0-922 425-1411t1225-489q406 0 767 147t680 444v-660q-331-225-702-338-370-112-782-112-1060 0-1670 648-609 649-609 1771 0 1125 609 1773 610 649 1670 649 418 0 788-111 371-111 696-333z"/><path id="y" transform="scale(.015625)" d="m1156 1613v-1154h819q394 0 600 148 206 149 206 431 0 281-206 428t-600 147h-819zm0 1428v-969h757q325 0 531 129 206 130 206 362 0 231-206 354-206 124-531 124h-757zm-575 459h1369q616 0 947-225t331-641q0-321-169-511-168-189-500-235 397-75 616-313 219-237 219-594 0-468-361-725-361-256-1030-256h-1422v3500z"/><path id="au" transform="scale(.015625)" d="m2059-325q-243-625-475-815-231-191-618-191h-460v481h338q237 0 368 113 132 112 291 531l103 262-1415 3444h609l1094-2737 1094 2737h609l-1538-3825z"/><path id="u" transform="scale(.015625)" d="m3603 3500v-3500h-578v3041h-1866v-3041h-578v3500h3022z"/><path id="l" transform="scale(.015625)" d="m581 3500h578v-1428h1866v1428h578v-3500h-578v1613h-1866v-1613h-578v3500z"/><path id="h" transform="scale(.015625)" d="m3597 1894v-281h-2644q38-594 358-905t892-311q331 0 642 81t618 244v-544q-310-131-635-200t-659-69q-838 0-1327 487-489 488-489 1320 0 859 464 1363 464 505 1252 505 706 0 1117-455 411-454 411-1235zm-575 169q-6 471-264 752-258 282-683 282-481 0-770-272t-333-766l2050 4z"/><path id="s" transform="scale(.015625)" d="m238 0v478q568 88 743 481 213 554 213 1969v572h2365v-3500h-575v3041h-1215v-347q0-1350-275-1956-294-647-1256-738z"/><path id="at" transform="scale(.015625)" d="m2625 0v1472h-1072q-478 0-797 297-287 269-287 844v887h575v-834q0-366 162-550 166-185 491-185h928v1569h575v-3500h-575z"/><path id="r" transform="scale(.015625)" d="m3122 3366v-538q-244 135-489 202t-495 67q-560 0-870-355-309-354-309-995t309-996q310-354 870-354 250 0 495 67t489 202v-532q-241-112-499-168-257-57-548-57-791 0-1257 497-465 497-465 1341 0 856 470 1346 471 491 1290 491 265 0 518-55 253-54 491-163z"/><path id="ab" transform="scale(.015625)" d="m3513 3500-1266-1703 1331-1797h-678l-1019 1375-1018-1375h-679l1360 1831-1244 1669h678l928-1247 928 1247h679z"/><path id="ak" transform="scale(.015625)" d="m1991 3584q750 0 1178-488 428-487 428-1349 0-859-428-1349-428-489-1178-489-753 0-1169 475t-438 1363l-18 716q-16 371-16 500 0 500 181 868 285 578 777 828t1317 257q381 3 550 56l159-456q-153-63-293-66l-782-53q-393-28-631-166-622-365-681-843l-22-175q406 371 1066 371zm0-487q-463 0-732-361-268-361-268-989t267-989 733-361q459 0 728 362 269 363 269 988 0 622-269 986t-728 364z"/><path id="aj" transform="scale(.015625)" d="m2753 2072q669 0 1030-255 361-254 361-779t-361-782q-361-256-1030-256h-1425v3041h-1134v459h1712v-1428h847zm-25-459h-822v-1154h822q394 0 598 148 205 149 205 431 0 281-205 428-204 147-598 147z"/></defs><use xlink:href="#aw"/><use x="69.824219" xlink:href="#e"/><use x="131.005859" xlink:href="#y"/><use x="189.941406" xlink:href="#e"/><use x="251.123047" xlink:href="#p"/><use x="311.523438" xlink:href="#au"/><use x="370.703125" xlink:href="#u"/><use x="436.083984" xlink:href="#l"/><use x="501.464844" xlink:href="#e"/><use x="562.646484" xlink:href="#h"/><use x="624.169922" xlink:href="#DejaVuSans-20"/><use x="655.957031" xlink:href="#p"/><use x="716.357422" xlink:href="#e"/><use x="777.539062" xlink:href="#s"/><use x="841.455078" xlink:href="#q"/><use x="906.445312" xlink:href="#at"/><use x="965.527344" xlink:href="#h"/><use x="1027.050781" xlink:href="#r"/><use x="1082.03125" xlink:href="#k"/><use x="1140.283203" xlink:href="#y"/><use x="1199.21875" xlink:href="#e"/><use x="1260.400391" xlink:href="#DejaVuSans-20"/><use x="1292.1875" xlink:href="#e"/><use x="1353.369141" xlink:href="#k"/><use x="1411.621094" xlink:href="#p"/><use x="1472.021484" xlink:href="#t"/><use x="1535.498047" xlink:href="#o"/><use x="1614.453125" xlink:href="#k"/><use x="1672.705078" xlink:href="#o"/><use x="1751.660156" xlink:href="#ab"/><use x="1810.839844" xlink:href="#DejaVuSans-20"/><use x="1842.626953" xlink:href="#e"/><use x="1903.808594" xlink:href="#ak"/><use x="1965.478516" xlink:href="#aj"/><use x="2036.132812" xlink:href="#h"/><use x="2097.65625" xlink:href="#p"/><use x="2158.056641" xlink:href="#k"/><use x="2216.308594" xlink:href="#e"/><use x="2277.490234" xlink:href="#y"/></g><path d="m1131.3 36.603-2.343 0.24519-4.1347 1.9615-4.2725 2.2067-3.859 0.98076-4.2725 1.2259-4.2725 1.7163-4.1347 0.98076-4.2725 3.4326-4.1347 2.2067-4.2725 0.73557-4.2725 1.7163-8.4071 2.4519-4.1347 1.7163-4.2725 1.2259-3.859 1.7163-4.2725 3.4326-4.2725 1.2259-4.1347 2.4519-4.2725 2.9423-4.1347 1.7163-4.2725 2.6971-8.4071 3.4326-4.2725 1.4711-4.1347 2.2067-4.2725 0.98076-3.859 1.9615-4.2725 1.7163-4.2725 2.6971-4.1347 2.4519-4.2725 2.2067-4.1347 1.9615-4.2725 3.6778-4.2725 1.4711-4.1347 1.2259-4.2725 2.2067-4.1347 0.73557-4.2725 2.6971-3.9968 2.2067-4.2725 3.6778-4.2725 1.9615-4.1347 2.6971-4.2725 2.4519-4.1347 0.98076-4.2725 1.7163-4.2725 2.9423-4.1347 1.7163-4.2725 0.98076-4.1347 1.2259-4.2725 1.4711-3.859 1.9615-4.2725 3.1875-4.2725 1.9615-4.1347 0.98076-4.2725 1.7163-4.1347 1.2259-4.2725 1.4711-4.2725 1.2259-4.1347 2.9423-8.4071 2.4519-4.2725 2.4519-3.859 0.73557-4.2725 2.9423-4.2725 2.2067-4.1347 3.6778-8.4071 4.9038-4.2725 1.7163-4.2725 2.2067-4.1347 2.4519-4.2725 1.4711-8.4071 3.923-3.859 0.98076-4.2725 4.1682-4.2725 3.4326-4.1347 1.7163-4.2725 2.2067-4.1347 0.73557-4.2725 2.4519-4.2725 2.2067-4.1347 0.98076-8.4071 3.923-4.2725 2.2067-3.9968 3.4326-4.2725 3.923-4.2725 2.2067-4.1347 1.2259-4.2725 3.6778-4.1347 1.2259-4.2725 0.98076-4.2725 1.7163-4.1347 1.4711-4.2725 2.2067-4.1347 1.4711-4.2725 2.9423-3.859 3.1875-4.2725 3.923-4.2725 2.2067-4.1347 2.4519-8.4071 2.4519-4.2725 2.2067-4.2725 1.9615-4.1347 1.2259-4.2725 3.1875-4.1347 1.7163-4.2725 1.2259-3.859 1.4711-8.545 1.9615-4.1347 1.9615-4.2725 1.7163-4.1347 0.98076-8.545 2.9423-8.4071 3.4326-4.1347 2.2067-4.2725 1.7163-3.859 0.49038-4.2725 3.4326-4.2725 2.4519-4.1347 1.7163-4.2725 2.9423-4.1347 0.73557-4.2725 1.4711-4.2725 1.2259-4.1347 2.2067-4.2725 1.7163-4.1347 1.2259-4.2725 1.4711-3.9968 1.2259-4.2725 2.2067-4.2725 1.4711-8.4071 5.3942-4.1347 1.4711-4.2725 0.73557-4.2725 0.98076-4.1347 1.4711-8.4071 3.923-8.1315 4.1682-4.2725 3.923-4.2725 1.9615-4.1347 1.4711-4.2725 3.6778-4.1347 1.2259-4.2725 0.24519-4.2725 0.73557-4.1347 1.7163-4.2725 3.4326-4.1347 0.73557-4.2725 1.9615-3.859 2.4519-4.2725 1.7163-50.305 19.125-50.443 23.293-50.305 19.86-50.305 20.351-50.305 22.557-50.443 23.538-50.305 20.596-50.305 22.803v0" clip-path="url(#f)" fill="none" stroke="#000" stroke-linecap="square" stroke-width="2"/><defs><path id="c" d="m0 1.25c0.3315 0 0.64948-0.13171 0.88388-0.36612 0.23441-0.23441 0.36612-0.55238 0.36612-0.88388s-0.13171-0.64948-0.36612-0.88388c-0.23441-0.23441-0.55238-0.36612-0.88388-0.36612s-0.64948 0.13171-0.88388 0.36612c-0.23441 0.23441-0.36612 0.55238-0.36612 0.88388s0.13171 0.64948 0.36612 0.88388c0.23441 0.23441 0.55238 0.36612 0.88388 0.36612z" stroke="#000"/></defs><g clip-path="url(#f)" stroke="#000000"><use x="1131.272106" y="36.603243" xlink:href="#c"/><use x="1128.929132" y="36.848432" xlink:href="#c"/><use x="1124.794473" y="38.809946" xlink:href="#c"/><use x="1120.521992" y="41.016649" xlink:href="#c"/><use x="1116.662977" y="41.997405" xlink:href="#c"/><use x="1112.390496" y="43.223351" xlink:href="#c"/><use x="1108.118015" y="44.939676" xlink:href="#c"/><use x="1103.983356" y="45.920432" xlink:href="#c"/><use x="1099.710875" y="49.353081" xlink:href="#c"/><use x="1095.576216" y="51.559784" xlink:href="#c"/><use x="1091.303735" y="52.295351" xlink:href="#c"/><use x="1087.031254" y="54.011676" xlink:href="#c"/><use x="1082.896595" y="55.237622" xlink:href="#c"/><use x="1078.624114" y="56.463568" xlink:href="#c"/><use x="1074.489455" y="58.179892" xlink:href="#c"/><use x="1070.216974" y="59.405838" xlink:href="#c"/><use x="1066.357959" y="61.122162" xlink:href="#c"/><use x="1062.085478" y="64.554811" xlink:href="#c"/><use x="1057.812997" y="65.780757" xlink:href="#c"/><use x="1053.678338" y="68.232649" xlink:href="#c"/><use x="1049.405857" y="71.174919" xlink:href="#c"/><use x="1045.271198" y="72.891243" xlink:href="#c"/><use x="1040.998717" y="75.588324" xlink:href="#c"/><use x="1036.726236" y="77.304649" xlink:href="#c"/><use x="1032.591577" y="79.020973" xlink:href="#c"/><use x="1028.319096" y="80.492108" xlink:href="#c"/><use x="1024.184437" y="82.698811" xlink:href="#c"/><use x="1019.911956" y="83.679568" xlink:href="#c"/><use x="1016.05294" y="85.641081" xlink:href="#c"/><use x="1011.780459" y="87.357405" xlink:href="#c"/><use x="1007.507978" y="90.054486" xlink:href="#c"/><use x="1003.373319" y="92.506378" xlink:href="#c"/><use x="999.100838" y="94.713081" xlink:href="#c"/><use x="994.966179" y="96.674595" xlink:href="#c"/><use x="990.693698" y="100.352432" xlink:href="#c"/><use x="986.421217" y="101.823568" xlink:href="#c"/><use x="982.286558" y="103.049514" xlink:href="#c"/><use x="978.014077" y="105.256216" xlink:href="#c"/><use x="973.879418" y="105.991784" xlink:href="#c"/><use x="969.606937" y="108.688865" xlink:href="#c"/><use x="965.6101" y="110.895568" xlink:href="#c"/><use x="961.337619" y="114.573405" xlink:href="#c"/><use x="957.065138" y="116.534919" xlink:href="#c"/><use x="952.930479" y="119.232" xlink:href="#c"/><use x="948.657998" y="121.683892" xlink:href="#c"/><use x="944.523339" y="122.664649" xlink:href="#c"/><use x="940.250858" y="124.380973" xlink:href="#c"/><use x="935.978377" y="127.323243" xlink:href="#c"/><use x="931.843718" y="129.039568" xlink:href="#c"/><use x="927.571237" y="130.020324" xlink:href="#c"/><use x="923.436578" y="131.24627" xlink:href="#c"/><use x="919.164097" y="132.717405" xlink:href="#c"/><use x="915.305082" y="134.678919" xlink:href="#c"/><use x="911.032601" y="137.866378" xlink:href="#c"/><use x="906.76012" y="139.827892" xlink:href="#c"/><use x="902.625461" y="140.808649" xlink:href="#c"/><use x="898.35298" y="142.524973" xlink:href="#c"/><use x="894.218321" y="143.750919" xlink:href="#c"/><use x="889.94584" y="145.222054" xlink:href="#c"/><use x="885.673358" y="146.448" xlink:href="#c"/><use x="881.538699" y="149.39027" xlink:href="#c"/><use x="877.266218" y="150.616216" xlink:href="#c"/><use x="873.131559" y="151.842162" xlink:href="#c"/><use x="868.859078" y="154.294054" xlink:href="#c"/><use x="865.000063" y="155.029622" xlink:href="#c"/><use x="860.727582" y="157.971892" xlink:href="#c"/><use x="856.455101" y="160.178595" xlink:href="#c"/><use x="852.320442" y="163.856432" xlink:href="#c"/><use x="848.047961" y="166.308324" xlink:href="#c"/><use x="843.913302" y="168.760216" xlink:href="#c"/><use x="839.640821" y="170.476541" xlink:href="#c"/><use x="835.36834" y="172.683243" xlink:href="#c"/><use x="831.233681" y="175.135135" xlink:href="#c"/><use x="826.9612" y="176.60627" xlink:href="#c"/><use x="822.826541" y="178.567784" xlink:href="#c"/><use x="818.55406" y="180.529297" xlink:href="#c"/><use x="814.695045" y="181.510054" xlink:href="#c"/><use x="810.422564" y="185.67827" xlink:href="#c"/><use x="806.150083" y="189.110919" xlink:href="#c"/><use x="802.015424" y="190.827243" xlink:href="#c"/><use x="797.742943" y="193.033946" xlink:href="#c"/><use x="793.608284" y="193.769514" xlink:href="#c"/><use x="789.335803" y="196.221405" xlink:href="#c"/><use x="785.063322" y="198.428108" xlink:href="#c"/><use x="780.928663" y="199.408865" xlink:href="#c"/><use x="776.656182" y="201.370378" xlink:href="#c"/><use x="772.521523" y="203.331892" xlink:href="#c"/><use x="768.249042" y="205.538595" xlink:href="#c"/><use x="764.252204" y="208.971243" xlink:href="#c"/><use x="759.979723" y="212.89427" xlink:href="#c"/><use x="755.707242" y="215.100973" xlink:href="#c"/><use x="751.572583" y="216.326919" xlink:href="#c"/><use x="747.300102" y="220.004757" xlink:href="#c"/><use x="743.165443" y="221.230703" xlink:href="#c"/><use x="738.892962" y="222.211459" xlink:href="#c"/><use x="734.620481" y="223.927784" xlink:href="#c"/><use x="730.485822" y="225.398919" xlink:href="#c"/><use x="726.213341" y="227.605622" xlink:href="#c"/><use x="722.078682" y="229.076757" xlink:href="#c"/><use x="717.806201" y="232.019027" xlink:href="#c"/><use x="713.947186" y="235.206486" xlink:href="#c"/><use x="709.674705" y="239.129514" xlink:href="#c"/><use x="705.402224" y="241.336216" xlink:href="#c"/><use x="701.267565" y="243.788108" xlink:href="#c"/><use x="696.995084" y="245.014054" xlink:href="#c"/><use x="692.860425" y="246.24" xlink:href="#c"/><use x="688.587944" y="248.446703" xlink:href="#c"/><use x="684.315463" y="250.408216" xlink:href="#c"/><use x="680.180804" y="251.634162" xlink:href="#c"/><use x="675.908323" y="254.821622" xlink:href="#c"/><use x="671.773664" y="256.537946" xlink:href="#c"/><use x="667.501183" y="257.763892" xlink:href="#c"/><use x="663.642168" y="259.235027" xlink:href="#c"/><use x="659.369687" y="260.215784" xlink:href="#c"/><use x="655.097206" y="261.196541" xlink:href="#c"/><use x="650.962547" y="263.158054" xlink:href="#c"/><use x="646.690066" y="264.874378" xlink:href="#c"/><use x="642.555407" y="265.855135" xlink:href="#c"/><use x="638.282926" y="267.32627" xlink:href="#c"/><use x="634.010445" y="268.797405" xlink:href="#c"/><use x="629.875785" y="270.51373" xlink:href="#c"/><use x="625.603304" y="272.230054" xlink:href="#c"/><use x="621.468645" y="274.436757" xlink:href="#c"/><use x="617.196164" y="276.153081" xlink:href="#c"/><use x="613.337149" y="276.643459" xlink:href="#c"/><use x="609.064668" y="280.076108" xlink:href="#c"/><use x="604.792187" y="282.528" xlink:href="#c"/><use x="600.657528" y="284.244324" xlink:href="#c"/><use x="596.385047" y="287.186595" xlink:href="#c"/><use x="592.250388" y="287.922162" xlink:href="#c"/><use x="587.977907" y="289.393297" xlink:href="#c"/><use x="583.705426" y="290.619243" xlink:href="#c"/><use x="579.570767" y="292.825946" xlink:href="#c"/><use x="575.298286" y="294.54227" xlink:href="#c"/><use x="571.163627" y="295.768216" xlink:href="#c"/><use x="566.891146" y="297.239351" xlink:href="#c"/><use x="562.894309" y="298.465297" xlink:href="#c"/><use x="558.621828" y="300.672" xlink:href="#c"/><use x="554.349347" y="302.143135" xlink:href="#c"/><use x="550.214688" y="304.840216" xlink:href="#c"/><use x="545.942207" y="307.537297" xlink:href="#c"/><use x="541.807548" y="309.008432" xlink:href="#c"/><use x="537.535067" y="309.744" xlink:href="#c"/><use x="533.262586" y="310.724757" xlink:href="#c"/><use x="529.127927" y="312.195892" xlink:href="#c"/><use x="524.855446" y="314.157405" xlink:href="#c"/><use x="520.720787" y="316.118919" xlink:href="#c"/><use x="516.448306" y="318.325622" xlink:href="#c"/><use x="512.589291" y="320.287135" xlink:href="#c"/><use x="508.31681" y="324.210162" xlink:href="#c"/><use x="504.044329" y="326.171676" xlink:href="#c"/><use x="499.909669" y="327.642811" xlink:href="#c"/><use x="495.637188" y="331.320649" xlink:href="#c"/><use x="491.502529" y="332.546595" xlink:href="#c"/><use x="487.230048" y="332.791784" xlink:href="#c"/><use x="482.957567" y="333.527351" xlink:href="#c"/><use x="478.822908" y="335.243676" xlink:href="#c"/><use x="474.550427" y="338.676324" xlink:href="#c"/><use x="470.415768" y="339.411892" xlink:href="#c"/><use x="466.143287" y="341.373405" xlink:href="#c"/><use x="462.284272" y="343.825297" xlink:href="#c"/><use x="458.011791" y="345.541622" xlink:href="#c"/><use x="407.706773" y="364.666378" xlink:href="#c"/><use x="357.263932" y="387.959351" xlink:href="#c"/><use x="306.958914" y="407.819676" xlink:href="#c"/><use x="256.653896" y="428.170378" xlink:href="#c"/><use x="206.348877" y="450.727784" xlink:href="#c"/><use x="155.906037" y="474.265946" xlink:href="#c"/><use x="105.601018" y="494.861838" xlink:href="#c"/><use x="55.296" y="517.664432" xlink:href="#c"/></g><path d="m1131.3 400.22h-2.343l-4.1347 0.49038h-25.084l-8.4071 0.49038h-8.4071l-4.2725 0.24519h-12.266l-4.2725 0.24519h-8.4071l-4.2725 0.24519h-4.1347l-4.2725 0.24519h-4.2725l-4.1347 0.24519h-4.2725l-4.1347 0.24519h-20.811l-8.4071 0.49038h-29.356l-4.2725 0.24519h-12.68l-8.4071 0.49038h-4.2725l-4.1347 0.24519h-4.2725l-4.1347 0.73557h-8.1315l-8.545 0.49038h-16.814l-4.2725 0.24519h-4.1347l-8.4071 0.49038h-8.1315l-8.545 0.49038-4.1347 0.49038h-16.952l-8.4071 0.49038h-4.1347l-4.2725 0.24519h-3.859l-8.545 0.49038h-8.4071l-4.1347 0.24519h-8.545l-4.1347 0.24519h-4.2725l-8.4071 0.49038h-3.9968l-4.2725 0.49038h-4.2725l-4.1347 0.24519h-12.68l-4.2725 0.24519h-8.4071l-4.1347 0.24519-4.2725 0.73557h-3.859l-8.545 0.49038-4.1347 0.73557h-16.952l-8.4071 0.49038h-12.266l-4.2725 0.24519h-4.2725l-4.1347 0.24519-4.2725 0.98076-4.1347 0.24519h-4.2725l-4.2725 0.49038-4.1347 0.73557h-16.539l-4.2725 0.24519h-4.2725l-4.1347 0.49038-16.952 0.98076-8.4071 1.4711-4.1347 0.24519-4.2725 0.49038h-3.9968l-4.2725 0.24519-8.4071 0.98076-8.4071 0.49038-4.2725 0.73557h-4.2725l-8.4071 0.49038-4.1347 0.98076-4.2725 0.49038h-3.859l-4.2725 0.24519h-12.68l-4.1347 0.49038-4.2725 0.73557-4.2725 0.24519h-4.1347l-16.539 0.98076-4.2725 0.49038-50.305 5.149-50.443 4.9038-50.305 6.3749-50.305 7.3557-50.305 11.524-50.443 11.769-50.305 12.259-50.305 15.692v0" clip-path="url(#f)" fill="none" stroke="#9467bd" stroke-linecap="square" stroke-width="2"/><defs><path id="b" d="m0 1.25c0.3315 0 0.64948-0.13171 0.88388-0.36612 0.23441-0.23441 0.36612-0.55238 0.36612-0.88388s-0.13171-0.64948-0.36612-0.88388c-0.23441-0.23441-0.55238-0.36612-0.88388-0.36612s-0.64948 0.13171-0.88388 0.36612c-0.23441 0.23441-0.36612 0.55238-0.36612 0.88388s0.13171 0.64948 0.36612 0.88388c0.23441 0.23441 0.55238 0.36612 0.88388 0.36612z" stroke="#9467bd"/></defs><g clip-path="url(#f)" fill="#9467bd" stroke="#9467bd"><use x="1131.272106" y="400.218811" xlink:href="#b"/><use x="1128.929132" y="400.218811" xlink:href="#b"/><use x="1124.794473" y="400.709189" xlink:href="#b"/><use x="1120.521992" y="400.709189" xlink:href="#b"/><use x="1116.662977" y="400.709189" xlink:href="#b"/><use x="1112.390496" y="400.709189" xlink:href="#b"/><use x="1108.118015" y="400.709189" xlink:href="#b"/><use x="1103.983356" y="400.709189" xlink:href="#b"/><use x="1099.710875" y="400.709189" xlink:href="#b"/><use x="1095.576216" y="400.954378" xlink:href="#b"/><use x="1091.303735" y="401.199568" xlink:href="#b"/><use x="1087.031254" y="401.199568" xlink:href="#b"/><use x="1082.896595" y="401.199568" xlink:href="#b"/><use x="1078.624114" y="401.444757" xlink:href="#b"/><use x="1074.489455" y="401.444757" xlink:href="#b"/><use x="1070.216974" y="401.444757" xlink:href="#b"/><use x="1066.357959" y="401.444757" xlink:href="#b"/><use x="1062.085478" y="401.689946" xlink:href="#b"/><use x="1057.812997" y="401.689946" xlink:href="#b"/><use x="1053.678338" y="401.689946" xlink:href="#b"/><use x="1049.405857" y="401.935135" xlink:href="#b"/><use x="1045.271198" y="401.935135" xlink:href="#b"/><use x="1040.998717" y="402.180324" xlink:href="#b"/><use x="1036.726236" y="402.180324" xlink:href="#b"/><use x="1032.591577" y="402.425514" xlink:href="#b"/><use x="1028.319096" y="402.425514" xlink:href="#b"/><use x="1024.184437" y="402.670703" xlink:href="#b"/><use x="1019.911956" y="402.670703" xlink:href="#b"/><use x="1016.05294" y="402.670703" xlink:href="#b"/><use x="1011.780459" y="402.670703" xlink:href="#b"/><use x="1007.507978" y="402.670703" xlink:href="#b"/><use x="1003.373319" y="402.670703" xlink:href="#b"/><use x="999.100838" y="402.915892" xlink:href="#b"/><use x="994.966179" y="403.161081" xlink:href="#b"/><use x="990.693698" y="403.161081" xlink:href="#b"/><use x="986.421217" y="403.161081" xlink:href="#b"/><use x="982.286558" y="403.161081" xlink:href="#b"/><use x="978.014077" y="403.161081" xlink:href="#b"/><use x="973.879418" y="403.161081" xlink:href="#b"/><use x="969.606937" y="403.161081" xlink:href="#b"/><use x="965.6101" y="403.161081" xlink:href="#b"/><use x="961.337619" y="403.40627" xlink:href="#b"/><use x="957.065138" y="403.40627" xlink:href="#b"/><use x="952.930479" y="403.40627" xlink:href="#b"/><use x="948.657998" y="403.40627" xlink:href="#b"/><use x="944.523339" y="403.651459" xlink:href="#b"/><use x="940.250858" y="403.896649" xlink:href="#b"/><use x="935.978377" y="403.896649" xlink:href="#b"/><use x="931.843718" y="404.141838" xlink:href="#b"/><use x="927.571237" y="404.141838" xlink:href="#b"/><use x="923.436578" y="404.877405" xlink:href="#b"/><use x="919.164097" y="404.877405" xlink:href="#b"/><use x="915.305082" y="404.877405" xlink:href="#b"/><use x="911.032601" y="405.122595" xlink:href="#b"/><use x="906.76012" y="405.367784" xlink:href="#b"/><use x="902.625461" y="405.367784" xlink:href="#b"/><use x="898.35298" y="405.367784" xlink:href="#b"/><use x="894.218321" y="405.367784" xlink:href="#b"/><use x="889.94584" y="405.367784" xlink:href="#b"/><use x="885.673358" y="405.612973" xlink:href="#b"/><use x="881.538699" y="405.612973" xlink:href="#b"/><use x="877.266218" y="405.858162" xlink:href="#b"/><use x="873.131559" y="406.103351" xlink:href="#b"/><use x="868.859078" y="406.103351" xlink:href="#b"/><use x="865.000063" y="406.103351" xlink:href="#b"/><use x="860.727582" y="406.348541" xlink:href="#b"/><use x="856.455101" y="406.59373" xlink:href="#b"/><use x="852.320442" y="407.084108" xlink:href="#b"/><use x="848.047961" y="407.084108" xlink:href="#b"/><use x="843.913302" y="407.084108" xlink:href="#b"/><use x="839.640821" y="407.084108" xlink:href="#b"/><use x="835.36834" y="407.084108" xlink:href="#b"/><use x="831.233681" y="407.329297" xlink:href="#b"/><use x="826.9612" y="407.574486" xlink:href="#b"/><use x="822.826541" y="407.574486" xlink:href="#b"/><use x="818.55406" y="407.819676" xlink:href="#b"/><use x="814.695045" y="407.819676" xlink:href="#b"/><use x="810.422564" y="408.064865" xlink:href="#b"/><use x="806.150083" y="408.310054" xlink:href="#b"/><use x="802.015424" y="408.310054" xlink:href="#b"/><use x="797.742943" y="408.310054" xlink:href="#b"/><use x="793.608284" y="408.555243" xlink:href="#b"/><use x="789.335803" y="408.555243" xlink:href="#b"/><use x="785.063322" y="408.555243" xlink:href="#b"/><use x="780.928663" y="408.800432" xlink:href="#b"/><use x="776.656182" y="408.800432" xlink:href="#b"/><use x="772.521523" y="409.045622" xlink:href="#b"/><use x="768.249042" y="409.290811" xlink:href="#b"/><use x="764.252204" y="409.290811" xlink:href="#b"/><use x="759.979723" y="409.781189" xlink:href="#b"/><use x="755.707242" y="409.781189" xlink:href="#b"/><use x="751.572583" y="410.026378" xlink:href="#b"/><use x="747.300102" y="410.026378" xlink:href="#b"/><use x="743.165443" y="410.026378" xlink:href="#b"/><use x="738.892962" y="410.026378" xlink:href="#b"/><use x="734.620481" y="410.271568" xlink:href="#b"/><use x="730.485822" y="410.271568" xlink:href="#b"/><use x="726.213341" y="410.271568" xlink:href="#b"/><use x="722.078682" y="410.516757" xlink:href="#b"/><use x="717.806201" y="411.252324" xlink:href="#b"/><use x="713.947186" y="411.252324" xlink:href="#b"/><use x="709.674705" y="411.497514" xlink:href="#b"/><use x="705.402224" y="411.742703" xlink:href="#b"/><use x="701.267565" y="412.47827" xlink:href="#b"/><use x="696.995084" y="412.47827" xlink:href="#b"/><use x="692.860425" y="412.47827" xlink:href="#b"/><use x="688.587944" y="412.47827" xlink:href="#b"/><use x="684.315463" y="412.47827" xlink:href="#b"/><use x="680.180804" y="412.723459" xlink:href="#b"/><use x="675.908323" y="412.968649" xlink:href="#b"/><use x="671.773664" y="412.968649" xlink:href="#b"/><use x="667.501183" y="412.968649" xlink:href="#b"/><use x="663.642168" y="412.968649" xlink:href="#b"/><use x="659.369687" y="413.213838" xlink:href="#b"/><use x="655.097206" y="413.213838" xlink:href="#b"/><use x="650.962547" y="413.459027" xlink:href="#b"/><use x="646.690066" y="414.439784" xlink:href="#b"/><use x="642.555407" y="414.684973" xlink:href="#b"/><use x="638.282926" y="414.684973" xlink:href="#b"/><use x="634.010445" y="415.175351" xlink:href="#b"/><use x="629.875785" y="415.910919" xlink:href="#b"/><use x="625.603304" y="415.910919" xlink:href="#b"/><use x="621.468645" y="415.910919" xlink:href="#b"/><use x="617.196164" y="415.910919" xlink:href="#b"/><use x="613.337149" y="415.910919" xlink:href="#b"/><use x="609.064668" y="416.156108" xlink:href="#b"/><use x="604.792187" y="416.156108" xlink:href="#b"/><use x="600.657528" y="416.646486" xlink:href="#b"/><use x="596.385047" y="416.891676" xlink:href="#b"/><use x="592.250388" y="417.136865" xlink:href="#b"/><use x="587.977907" y="417.382054" xlink:href="#b"/><use x="583.705426" y="417.627243" xlink:href="#b"/><use x="579.570767" y="418.362811" xlink:href="#b"/><use x="575.298286" y="419.098378" xlink:href="#b"/><use x="571.163627" y="419.343568" xlink:href="#b"/><use x="566.891146" y="419.833946" xlink:href="#b"/><use x="562.894309" y="419.833946" xlink:href="#b"/><use x="558.621828" y="420.079135" xlink:href="#b"/><use x="554.349347" y="420.569514" xlink:href="#b"/><use x="550.214688" y="421.059892" xlink:href="#b"/><use x="545.942207" y="421.305081" xlink:href="#b"/><use x="541.807548" y="421.55027" xlink:href="#b"/><use x="537.535067" y="422.285838" xlink:href="#b"/><use x="533.262586" y="422.285838" xlink:href="#b"/><use x="529.127927" y="422.531027" xlink:href="#b"/><use x="524.855446" y="422.776216" xlink:href="#b"/><use x="520.720787" y="423.756973" xlink:href="#b"/><use x="516.448306" y="424.247351" xlink:href="#b"/><use x="512.589291" y="424.247351" xlink:href="#b"/><use x="508.31681" y="424.492541" xlink:href="#b"/><use x="504.044329" y="424.492541" xlink:href="#b"/><use x="499.909669" y="424.492541" xlink:href="#b"/><use x="495.637188" y="424.492541" xlink:href="#b"/><use x="491.502529" y="424.982919" xlink:href="#b"/><use x="487.230048" y="425.718486" xlink:href="#b"/><use x="482.957567" y="425.963676" xlink:href="#b"/><use x="478.822908" y="425.963676" xlink:href="#b"/><use x="474.550427" y="426.208865" xlink:href="#b"/><use x="470.415768" y="426.454054" xlink:href="#b"/><use x="466.143287" y="426.699243" xlink:href="#b"/><use x="462.284272" y="426.944432" xlink:href="#b"/><use x="458.011791" y="427.434811" xlink:href="#b"/><use x="407.706773" y="432.583784" xlink:href="#b"/><use x="357.263932" y="437.487568" xlink:href="#b"/><use x="306.958914" y="443.862486" xlink:href="#b"/><use x="256.653896" y="451.218162" xlink:href="#b"/><use x="206.348877" y="462.742054" xlink:href="#b"/><use x="155.906037" y="474.511135" xlink:href="#b"/><use x="105.601018" y="486.770595" xlink:href="#b"/><use x="55.296" y="502.462703" xlink:href="#b"/></g><path d="m1131.3 572.1h-31.561l-4.1347 0.24519h-29.218l-4.2725 0.24519h-33.766l-4.1347 0.24519h-25.084l-4.1347 0.24519h-83.934l-4.2725 0.24519h-180.55l-4.1347 0.24519h-71.116l-4.2725 0.24519h-12.68l-4.1347 0.24519h-75.526l-4.1347 0.49038-4.2725 0.24519h-33.353l-4.2725 0.24519h-37.901l-4.2725 0.24519h-8.1315l-50.305 0.73557-100.75 1.9615-50.305 0.73557-50.305 1.7163-50.443 3.1875-50.305 2.2067-50.305 2.4519v0" clip-path="url(#f)" fill="none" stroke="#d62728" stroke-linecap="square" stroke-width="2"/><defs><path id="a" d="m0 1.25c0.3315 0 0.64948-0.13171 0.88388-0.36612 0.23441-0.23441 0.36612-0.55238 0.36612-0.88388s-0.13171-0.64948-0.36612-0.88388c-0.23441-0.23441-0.55238-0.36612-0.88388-0.36612s-0.64948 0.13171-0.88388 0.36612c-0.23441 0.23441-0.36612 0.55238-0.36612 0.88388s0.13171 0.64948 0.36612 0.88388c0.23441 0.23441 0.55238 0.36612 0.88388 0.36612z" stroke="#d62728"/></defs><g clip-path="url(#f)" fill="#d62728" stroke="#d62728"><use x="1131.272106" y="572.096432" xlink:href="#a"/><use x="1128.929132" y="572.096432" xlink:href="#a"/><use x="1124.794473" y="572.096432" xlink:href="#a"/><use x="1120.521992" y="572.096432" xlink:href="#a"/><use x="1116.662977" y="572.096432" xlink:href="#a"/><use x="1112.390496" y="572.096432" xlink:href="#a"/><use x="1108.118015" y="572.096432" xlink:href="#a"/><use x="1103.983356" y="572.096432" xlink:href="#a"/><use x="1099.710875" y="572.096432" xlink:href="#a"/><use x="1095.576216" y="572.341622" xlink:href="#a"/><use x="1091.303735" y="572.341622" xlink:href="#a"/><use x="1087.031254" y="572.341622" xlink:href="#a"/><use x="1082.896595" y="572.341622" xlink:href="#a"/><use x="1078.624114" y="572.341622" xlink:href="#a"/><use x="1074.489455" y="572.341622" xlink:href="#a"/><use x="1070.216974" y="572.341622" xlink:href="#a"/><use x="1066.357959" y="572.341622" xlink:href="#a"/><use x="1062.085478" y="572.586811" xlink:href="#a"/><use x="1057.812997" y="572.586811" xlink:href="#a"/><use x="1053.678338" y="572.586811" xlink:href="#a"/><use x="1049.405857" y="572.586811" xlink:href="#a"/><use x="1045.271198" y="572.586811" xlink:href="#a"/><use x="1040.998717" y="572.586811" xlink:href="#a"/><use x="1036.726236" y="572.586811" xlink:href="#a"/><use x="1032.591577" y="572.586811" xlink:href="#a"/><use x="1028.319096" y="572.586811" xlink:href="#a"/><use x="1024.184437" y="572.832" xlink:href="#a"/><use x="1019.911956" y="572.832" xlink:href="#a"/><use x="1016.05294" y="572.832" xlink:href="#a"/><use x="1011.780459" y="572.832" xlink:href="#a"/><use x="1007.507978" y="572.832" xlink:href="#a"/><use x="1003.373319" y="572.832" xlink:href="#a"/><use x="999.100838" y="572.832" xlink:href="#a"/><use x="994.966179" y="573.077189" xlink:href="#a"/><use x="990.693698" y="573.077189" xlink:href="#a"/><use x="986.421217" y="573.077189" xlink:href="#a"/><use x="982.286558" y="573.077189" xlink:href="#a"/><use x="978.014077" y="573.077189" xlink:href="#a"/><use x="973.879418" y="573.077189" xlink:href="#a"/><use x="969.606937" y="573.077189" xlink:href="#a"/><use x="965.6101" y="573.077189" xlink:href="#a"/><use x="961.337619" y="573.077189" xlink:href="#a"/><use x="957.065138" y="573.077189" xlink:href="#a"/><use x="952.930479" y="573.077189" xlink:href="#a"/><use x="948.657998" y="573.077189" xlink:href="#a"/><use x="944.523339" y="573.077189" xlink:href="#a"/><use x="940.250858" y="573.077189" xlink:href="#a"/><use x="935.978377" y="573.077189" xlink:href="#a"/><use x="931.843718" y="573.077189" xlink:href="#a"/><use x="927.571237" y="573.077189" xlink:href="#a"/><use x="923.436578" y="573.077189" xlink:href="#a"/><use x="919.164097" y="573.077189" xlink:href="#a"/><use x="915.305082" y="573.077189" xlink:href="#a"/><use x="911.032601" y="573.077189" xlink:href="#a"/><use x="906.76012" y="573.322378" xlink:href="#a"/><use x="902.625461" y="573.322378" xlink:href="#a"/><use x="898.35298" y="573.322378" xlink:href="#a"/><use x="894.218321" y="573.322378" xlink:href="#a"/><use x="889.94584" y="573.322378" xlink:href="#a"/><use x="885.673358" y="573.322378" xlink:href="#a"/><use x="881.538699" y="573.322378" xlink:href="#a"/><use x="877.266218" y="573.322378" xlink:href="#a"/><use x="873.131559" y="573.322378" xlink:href="#a"/><use x="868.859078" y="573.322378" xlink:href="#a"/><use x="865.000063" y="573.322378" xlink:href="#a"/><use x="860.727582" y="573.322378" xlink:href="#a"/><use x="856.455101" y="573.322378" xlink:href="#a"/><use x="852.320442" y="573.322378" xlink:href="#a"/><use x="848.047961" y="573.322378" xlink:href="#a"/><use x="843.913302" y="573.322378" xlink:href="#a"/><use x="839.640821" y="573.322378" xlink:href="#a"/><use x="835.36834" y="573.322378" xlink:href="#a"/><use x="831.233681" y="573.322378" xlink:href="#a"/><use x="826.9612" y="573.322378" xlink:href="#a"/><use x="822.826541" y="573.322378" xlink:href="#a"/><use x="818.55406" y="573.322378" xlink:href="#a"/><use x="814.695045" y="573.322378" xlink:href="#a"/><use x="810.422564" y="573.322378" xlink:href="#a"/><use x="806.150083" y="573.322378" xlink:href="#a"/><use x="802.015424" y="573.322378" xlink:href="#a"/><use x="797.742943" y="573.322378" xlink:href="#a"/><use x="793.608284" y="573.322378" xlink:href="#a"/><use x="789.335803" y="573.322378" xlink:href="#a"/><use x="785.063322" y="573.322378" xlink:href="#a"/><use x="780.928663" y="573.322378" xlink:href="#a"/><use x="776.656182" y="573.322378" xlink:href="#a"/><use x="772.521523" y="573.322378" xlink:href="#a"/><use x="768.249042" y="573.322378" xlink:href="#a"/><use x="764.252204" y="573.322378" xlink:href="#a"/><use x="759.979723" y="573.322378" xlink:href="#a"/><use x="755.707242" y="573.322378" xlink:href="#a"/><use x="751.572583" y="573.322378" xlink:href="#a"/><use x="747.300102" y="573.322378" xlink:href="#a"/><use x="743.165443" y="573.322378" xlink:href="#a"/><use x="738.892962" y="573.322378" xlink:href="#a"/><use x="734.620481" y="573.322378" xlink:href="#a"/><use x="730.485822" y="573.322378" xlink:href="#a"/><use x="726.213341" y="573.322378" xlink:href="#a"/><use x="722.078682" y="573.567568" xlink:href="#a"/><use x="717.806201" y="573.567568" xlink:href="#a"/><use x="713.947186" y="573.567568" xlink:href="#a"/><use x="709.674705" y="573.567568" xlink:href="#a"/><use x="705.402224" y="573.567568" xlink:href="#a"/><use x="701.267565" y="573.567568" xlink:href="#a"/><use x="696.995084" y="573.567568" xlink:href="#a"/><use x="692.860425" y="573.567568" xlink:href="#a"/><use x="688.587944" y="573.567568" xlink:href="#a"/><use x="684.315463" y="573.567568" xlink:href="#a"/><use x="680.180804" y="573.567568" xlink:href="#a"/><use x="675.908323" y="573.567568" xlink:href="#a"/><use x="671.773664" y="573.567568" xlink:href="#a"/><use x="667.501183" y="573.567568" xlink:href="#a"/><use x="663.642168" y="573.567568" xlink:href="#a"/><use x="659.369687" y="573.567568" xlink:href="#a"/><use x="655.097206" y="573.567568" xlink:href="#a"/><use x="650.962547" y="573.567568" xlink:href="#a"/><use x="646.690066" y="573.812757" xlink:href="#a"/><use x="642.555407" y="573.812757" xlink:href="#a"/><use x="638.282926" y="573.812757" xlink:href="#a"/><use x="634.010445" y="573.812757" xlink:href="#a"/><use x="629.875785" y="574.057946" xlink:href="#a"/><use x="625.603304" y="574.057946" xlink:href="#a"/><use x="621.468645" y="574.057946" xlink:href="#a"/><use x="617.196164" y="574.057946" xlink:href="#a"/><use x="613.337149" y="574.057946" xlink:href="#a"/><use x="609.064668" y="574.057946" xlink:href="#a"/><use x="604.792187" y="574.057946" xlink:href="#a"/><use x="600.657528" y="574.057946" xlink:href="#a"/><use x="596.385047" y="574.057946" xlink:href="#a"/><use x="592.250388" y="574.057946" xlink:href="#a"/><use x="587.977907" y="574.057946" xlink:href="#a"/><use x="583.705426" y="574.057946" xlink:href="#a"/><use x="579.570767" y="574.057946" xlink:href="#a"/><use x="575.298286" y="574.057946" xlink:href="#a"/><use x="571.163627" y="574.057946" xlink:href="#a"/><use x="566.891146" y="574.057946" xlink:href="#a"/><use x="562.894309" y="574.057946" xlink:href="#a"/><use x="558.621828" y="574.057946" xlink:href="#a"/><use x="554.349347" y="574.057946" xlink:href="#a"/><use x="550.214688" y="574.548324" xlink:href="#a"/><use x="545.942207" y="574.793514" xlink:href="#a"/><use x="541.807548" y="574.793514" xlink:href="#a"/><use x="537.535067" y="574.793514" xlink:href="#a"/><use x="533.262586" y="574.793514" xlink:href="#a"/><use x="529.127927" y="574.793514" xlink:href="#a"/><use x="524.855446" y="574.793514" xlink:href="#a"/><use x="520.720787" y="574.793514" xlink:href="#a"/><use x="516.448306" y="574.793514" xlink:href="#a"/><use x="512.589291" y="574.793514" xlink:href="#a"/><use x="508.31681" y="575.038703" xlink:href="#a"/><use x="504.044329" y="575.038703" xlink:href="#a"/><use x="499.909669" y="575.038703" xlink:href="#a"/><use x="495.637188" y="575.038703" xlink:href="#a"/><use x="491.502529" y="575.038703" xlink:href="#a"/><use x="487.230048" y="575.038703" xlink:href="#a"/><use x="482.957567" y="575.038703" xlink:href="#a"/><use x="478.822908" y="575.038703" xlink:href="#a"/><use x="474.550427" y="575.038703" xlink:href="#a"/><use x="470.415768" y="575.038703" xlink:href="#a"/><use x="466.143287" y="575.283892" xlink:href="#a"/><use x="462.284272" y="575.283892" xlink:href="#a"/><use x="458.011791" y="575.283892" xlink:href="#a"/><use x="407.706773" y="576.019459" xlink:href="#a"/><use x="357.263932" y="577.000216" xlink:href="#a"/><use x="306.958914" y="577.980973" xlink:href="#a"/><use x="256.653896" y="578.716541" xlink:href="#a"/><use x="206.348877" y="580.432865" xlink:href="#a"/><use x="155.906037" y="583.620324" xlink:href="#a"/><use x="105.601018" y="585.827027" xlink:href="#a"/><use x="55.296" y="588.278919" xlink:href="#a"/></g><path d="m395.72 609.12v-610.12" clip-path="url(#f)" fill="none" stroke="#008000" stroke-dasharray="5.55,2.4" stroke-width="1.5"/><path d="m659.37 609.12v-610.12" clip-path="url(#f)" fill="none" stroke="#008000" stroke-dasharray="5.55,2.4" stroke-width="1.5"/><path d="m881.68 609.12v-610.12" clip-path="url(#f)" fill="none" stroke="#008000" stroke-dasharray="5.55,2.4" stroke-width="1.5"/><path d="m934.74 609.12v-610.12" clip-path="url(#f)" fill="none" stroke="#008000" stroke-dasharray="5.55,2.4" stroke-width="1.5"/><path d="m1071.6 609.12v-610.12" clip-path="url(#f)" fill="none" stroke="#008000" stroke-dasharray="5.55,2.4" stroke-width="1.5"/><path d="m1106.5 609.12v-610.12" clip-path="url(#f)" fill="none" stroke="#008000" stroke-dasharray="5.55,2.4" stroke-width="1.5"/><path d="m1118.2 609.12v-610.12" clip-path="url(#f)" fill="none" stroke="#008000" stroke-dasharray="5.55,2.4" stroke-width="1.5"/><path d="m1118.2 609.12v-610.12" clip-path="url(#f)" fill="none" stroke="#008000" stroke-dasharray="5.55,2.4" stroke-width="1.5"/><path d="m55.296 609.12v-589.68" fill="none" stroke="#000" stroke-linecap="square" stroke-width=".8"/><path d="m1140.5 609.12v-589.68" fill="none" stroke="#000" stroke-linecap="square" stroke-width=".8"/><path d="m55.296 609.12h1085.2" fill="none" stroke="#000" stroke-linecap="square" stroke-width=".8"/><path d="m55.296 19.44h1085.2" fill="none" stroke="#000" stroke-linecap="square" stroke-width=".8"/><g transform="translate(114.03 13.44) scale(.14 -.14)"><defs><path id="v" transform="scale(.015625)" d="m581 3500h841l994-2344 997 2344h834v-3500h-578v2950l-966-2278h-575l-969 2278v-2950h-578v3500z"/><path id="af" transform="scale(.015625)" d="m3578 3500v-3500h-572v2809l-1687-2809h-738v3500h572v-2803l1685 2803h740zm-2476 1333h369q34-234 185-352 152-117 424-117 269 0 419 116t190 353h369q-31-447-278-672t-700-225-700 225-278 672z"/><path id="ac" transform="scale(.015625)" d="m2206 1888q388-75 603-304 216-228 216-565 0-541-403-826-403-284-1147-284-250 0-514 44t-545 131v535q222-116 487-174 266-57 556-57 472 0 736 175t264 456q0 275-234 442t-662 167h-463v475h484q363 0 574 139t211 358q0 200-218 344-217 144-588 144-222 0-474-41-251-41-555-131v522q307 75 572 112 266 38 503 38 613 0 967-246 355-245 355-686 0-290-188-492-187-201-537-276z"/><path id="ar" transform="scale(.015625)" d="m684 794h660v-794h-660v794z"/><path id="ba" transform="scale(.015625)" d="m1259 2228v-1709h1013q509 0 754 211 246 211 246 645 0 438-246 645-245 208-754 208h-1013zm0 1919v-1406h935q462 0 688 173 227 174 227 530 0 353-227 528-226 175-688 175h-935zm-631 519h1613q722 0 1112-300 391-300 391-853 0-429-200-682t-588-315q466-100 724-418 258-317 258-792 0-625-425-966-425-340-1210-340h-1675v4666z"/><path id="ae" transform="scale(.015625)" d="m3603 0h-3022v3500h578v-3041h1866v3041h578v-3041h460v-1343h-460v884z"/><path id="ad" transform="scale(.015625)" d="m2781 1038q0 281-205 428-204 147-598 147h-819v-1154h819q394 0 598 148 205 149 205 431zm-2200 2462h578v-1428h844q669 0 1030-255 361-254 361-779t-361-782q-361-256-1030-256h-1422v3500z"/><path id="ay" transform="scale(.015625)" d="m628 4666h941l1190-3175 1197 3175h941v-4666h-616v4097l-1203-3200h-634l-1203 3200v-4097h-613v4666z"/></defs><use xlink:href="#am"/><use x="78.125" xlink:href="#q"/><use x="143.115234" xlink:href="#l"/><use x="208.496094" xlink:href="#m"/><use x="269.775391" xlink:href="#v"/><use x="345.214844" xlink:href="#q"/><use x="410.205078" xlink:href="#p"/><use x="470.605469" xlink:href="#m"/><use x="531.884766" xlink:href="#DejaVuSans-20"/><use x="563.671875" xlink:href="#e"/><use x="624.853516" xlink:href="#k"/><use x="683.105469" xlink:href="#p"/><use x="743.505859" xlink:href="#t"/><use x="806.982422" xlink:href="#o"/><use x="885.9375" xlink:href="#k"/><use x="944.189453" xlink:href="#q"/><use x="1009.179688" xlink:href="#af"/><use x="1074.169922" xlink:href="#DejaVuSans-20"/><use x="1105.957031" xlink:href="#e"/><use x="1167.138672" xlink:href="#p"/><use x="1227.539062" xlink:href="#e"/><use x="1288.720703" xlink:href="#s"/><use x="1352.636719" xlink:href="#e"/><use x="1413.818359" xlink:href="#ac"/><use x="1466.992188" xlink:href="#h"/><use x="1528.515625" xlink:href="#v"/><use x="1603.955078" xlink:href="#l"/><use x="1669.335938" xlink:href="#o"/><use x="1748.291016" xlink:href="#ab"/><use x="1807.470703" xlink:href="#DejaVuSans-20"/><use x="1839.257812" xlink:href="#e"/><use x="1900.439453" xlink:href="#ak"/><use x="1962.109375" xlink:href="#aj"/><use x="2032.763672" xlink:href="#h"/><use x="2094.287109" xlink:href="#p"/><use x="2154.6875" xlink:href="#k"/><use x="2212.939453" xlink:href="#e"/><use x="2274.121094" xlink:href="#y"/><use x="2333.056641" xlink:href="#ar"/><use x="2364.84375" xlink:href="#DejaVuSans-20"/><use x="2396.630859" xlink:href="#ba"/><use x="2465.234375" xlink:href="#r"/><use x="2520.214844" xlink:href="#h"/><use x="2581.738281" xlink:href="#ag"/><use x="2634.277344" xlink:href="#e"/><use x="2695.458984" xlink:href="#DejaVuSans-20"/><use x="2727.246094" xlink:href="#x"/><use x="2790.869141" xlink:href="#g"/><use x="2854.492188" xlink:href="#d"/><use x="2918.115234" xlink:href="#d"/><use x="2981.738281" xlink:href="#ah"/><use x="3045.361328" xlink:href="#DejaVuSans-20"/><use x="3077.148438" xlink:href="#e"/><use x="3138.330078" xlink:href="#p"/><use x="3198.730469" xlink:href="#e"/><use x="3259.912109" xlink:href="#s"/><use x="3323.828125" xlink:href="#e"/><use x="3385.009766" xlink:href="#ac"/><use x="3438.183594" xlink:href="#h"/><use x="3499.707031" xlink:href="#v"/><use x="3575.146484" xlink:href="#l"/><use x="3640.527344" xlink:href="#o"/><use x="3719.482422" xlink:href="#ab"/><use x="3778.662109" xlink:href="#DejaVuSans-20"/><use x="3810.449219" xlink:href="#q"/><use x="3875.439453" xlink:href="#DejaVuSans-20"/><use x="3907.226562" xlink:href="#g"/><use x="3970.849609" xlink:href="#x"/><use x="4034.472656" xlink:href="#x"/><use x="4098.095703" xlink:href="#aa"/><use x="4161.71875" xlink:href="#DejaVuSans-20"/><use x="4193.505859" xlink:href="#u"/><use x="4258.886719" xlink:href="#e"/><use x="4320.068359" xlink:href="#k"/><use x="4378.320312" xlink:href="#h"/><use x="4439.84375" xlink:href="#l"/><use x="4505.224609" xlink:href="#ae"/><use x="4573.291016" xlink:href="#q"/><use x="4638.28125" xlink:href="#m"/><use x="4699.560547" xlink:href="#s"/><use x="4763.476562" xlink:href="#ad"/><use x="4822.412109" xlink:href="#l"/><use x="4887.792969" xlink:href="#e"/><use x="4948.974609" xlink:href="#DejaVuSans-20"/><use x="4980.761719" xlink:href="#e"/><use x="5041.943359" xlink:href="#u"/><use x="5107.324219" xlink:href="#m"/><use x="5168.603516" xlink:href="#r"/><use x="5223.583984" xlink:href="#l"/><use x="5288.964844" xlink:href="#o"/><use x="5367.919922" xlink:href="#ab"/><use x="5427.099609" xlink:href="#DejaVuSans-20"/><use x="5458.886719" xlink:href="#m"/><use x="5520.166016" xlink:href="#r"/><use x="5575.146484" xlink:href="#k"/><use x="5633.398438" xlink:href="#h"/><use x="5694.921875" xlink:href="#t"/><use x="5758.398438" xlink:href="#e"/><use x="5819.580078" xlink:href="#q"/><use x="5884.570312" xlink:href="#w"/><use x="5953.710938" xlink:href="#e"/><use x="6014.892578" xlink:href="#y"/><use x="6073.828125" xlink:href="#ar"/><use x="6105.615234" xlink:href="#DejaVuSans-20"/><use x="6137.402344" xlink:href="#ay"/><use x="6223.681641" xlink:href="#m"/><use x="6284.960938" xlink:href="#af"/><use x="6349.951172" xlink:href="#DejaVuSans-20"/><use x="6381.738281" xlink:href="#g"/><use x="6445.361328" xlink:href="#d"/><use x="6508.984375" xlink:href="#g"/><use x="6572.607422" xlink:href="#x"/><use x="6636.230469" xlink:href="#DejaVuSans-20"/><use x="6668.017578" xlink:href="#ag"/><use x="6720.556641" xlink:href="#e"/><use x="6781.738281" xlink:href="#w"/><use x="6850.878906" xlink:href="#m"/></g><path d="m64.396 106.17h378.65q2.6 0 2.6-2.6v-75.026q0-2.6-2.6-2.6h-378.65q-2.6 0-2.6 2.6v75.026q0 2.6 2.6 2.6z" fill="#fff" opacity=".8" stroke="#ccc"/><path d="m66.996 36.468h13 13" fill="none" stroke="#000" stroke-linecap="square" stroke-width="2"/><use x="79.996" y="36.467969" stroke="#000000" xlink:href="#c"/><g transform="translate(103.4 41.018) scale(.13 -.13)"><defs><path id="al" transform="scale(.015625)" d="m4184 4666v-4666h-631v4134h-2294v-4134h-631v4666h3556z"/></defs><use xlink:href="#al"/><use x="75.195312" xlink:href="#e"/><use x="136.376953" xlink:href="#k"/><use x="194.628906" xlink:href="#h"/><use x="256.152344" xlink:href="#l"/><use x="321.533203" xlink:href="#ae"/><use x="389.599609" xlink:href="#q"/><use x="454.589844" xlink:href="#m"/><use x="515.869141" xlink:href="#s"/><use x="579.785156" xlink:href="#ad"/><use x="638.720703" xlink:href="#l"/><use x="704.101562" xlink:href="#e"/><use x="765.283203" xlink:href="#DejaVuSans-20"/><use x="797.070312" xlink:href="#e"/><use x="858.251953" xlink:href="#u"/><use x="923.632812" xlink:href="#m"/><use x="984.912109" xlink:href="#r"/><use x="1039.892578" xlink:href="#l"/><use x="1105.273438" xlink:href="#o"/><use x="1184.228516" xlink:href="#h"/><use x="1245.751953" xlink:href="#DejaVuSans-20"/><use x="1277.539062" xlink:href="#m"/><use x="1338.818359" xlink:href="#r"/><use x="1393.798828" xlink:href="#k"/><use x="1452.050781" xlink:href="#h"/><use x="1513.574219" xlink:href="#t"/><use x="1577.050781" xlink:href="#e"/><use x="1638.232422" xlink:href="#q"/><use x="1703.222656" xlink:href="#w"/><use x="1772.363281" xlink:href="#o"/></g><path d="m66.996 55.55h13 13" fill="none" stroke="#9467bd" stroke-linecap="square" stroke-width="2"/><use x="79.996" y="55.549531" fill="#9467bd" stroke="#9467bd" xlink:href="#b"/><g transform="translate(103.4 60.1) scale(.13 -.13)"><defs><path id="ax" transform="scale(.015625)" d="m2522 4238q-688 0-1093-513-404-512-404-1397 0-881 404-1394 405-512 1093-512 687 0 1089 512 402 513 402 1394 0 885-402 1397-402 513-1089 513zm0 512q981 0 1568-658 588-658 588-1764 0-1103-588-1761-587-658-1568-658-984 0-1574 656-589 657-589 1763t589 1764q590 658 1574 658z"/></defs><use xlink:href="#ax"/><use x="78.710938" xlink:href="#p"/><use x="139.111328" xlink:href="#e"/><use x="200.292969" xlink:href="#s"/><use x="264.208984" xlink:href="#e"/><use x="325.390625" xlink:href="#ac"/><use x="378.564453" xlink:href="#h"/><use x="440.087891" xlink:href="#v"/><use x="515.527344" xlink:href="#l"/><use x="580.908203" xlink:href="#o"/><use x="659.863281" xlink:href="#h"/><use x="721.386719" xlink:href="#DejaVuSans-20"/><use x="753.173828" xlink:href="#m"/><use x="814.453125" xlink:href="#r"/><use x="869.433594" xlink:href="#k"/><use x="927.685547" xlink:href="#h"/><use x="989.208984" xlink:href="#t"/><use x="1052.685547" xlink:href="#e"/><use x="1113.867188" xlink:href="#q"/><use x="1178.857422" xlink:href="#w"/><use x="1247.998047" xlink:href="#o"/><use x="1326.953125" xlink:href="#DejaVuSans-20"/><use x="1358.740234" xlink:href="#e"/><use x="1419.921875" xlink:href="#k"/><use x="1478.173828" xlink:href="#DejaVuSans-20"/><use x="1509.960938" xlink:href="#n"/><use x="1573.583984" xlink:href="#DejaVuSans-20"/><use x="1605.371094" xlink:href="#p"/><use x="1665.771484" xlink:href="#v"/></g><path d="m66.996 74.631h13 13" fill="none" stroke="#d62728" stroke-linecap="square" stroke-width="2"/><use x="79.996" y="74.631094" fill="#d62728" stroke="#d62728" xlink:href="#a"/><g transform="translate(103.4 79.181) scale(.13 -.13)"><use xlink:href="#al"/><use x="75.195312" xlink:href="#e"/><use x="136.376953" xlink:href="#k"/><use x="194.628906" xlink:href="#h"/><use x="256.152344" xlink:href="#l"/><use x="321.533203" xlink:href="#ae"/><use x="389.599609" xlink:href="#q"/><use x="454.589844" xlink:href="#m"/><use x="515.869141" xlink:href="#s"/><use x="579.785156" xlink:href="#ad"/><use x="638.720703" xlink:href="#l"/><use x="704.101562" xlink:href="#e"/><use x="765.283203" xlink:href="#DejaVuSans-20"/><use x="797.070312" xlink:href="#e"/><use x="858.251953" xlink:href="#u"/><use x="923.632812" xlink:href="#m"/><use x="984.912109" xlink:href="#r"/><use x="1039.892578" xlink:href="#l"/><use x="1105.273438" xlink:href="#o"/><use x="1184.228516" xlink:href="#h"/><use x="1245.751953" xlink:href="#DejaVuSans-20"/><use x="1277.539062" xlink:href="#m"/><use x="1338.818359" xlink:href="#r"/><use x="1393.798828" xlink:href="#k"/><use x="1452.050781" xlink:href="#h"/><use x="1513.574219" xlink:href="#t"/><use x="1577.050781" xlink:href="#e"/><use x="1638.232422" xlink:href="#q"/><use x="1703.222656" xlink:href="#w"/><use x="1772.363281" xlink:href="#o"/><use x="1851.318359" xlink:href="#DejaVuSans-20"/><use x="1883.105469" xlink:href="#e"/><use x="1944.287109" xlink:href="#k"/><use x="2002.539062" xlink:href="#DejaVuSans-20"/><use x="2034.326172" xlink:href="#n"/><use x="2097.949219" xlink:href="#DejaVuSans-20"/><use x="2129.736328" xlink:href="#p"/><use x="2190.136719" xlink:href="#v"/></g><path d="m66.996 93.713h13 13" fill="none" stroke="#008000" stroke-dasharray="5.55,2.4" stroke-width="1.5"/><g transform="translate(103.4 98.263) scale(.13 -.13)"><defs><path id="av" transform="scale(.015625)" d="m2047 566q-66-157-166-275-247-291-1031-291h-241v531h197q372 0 516 85 87 53 144 184l140 331-1497 3535h679l1159-2738 1166 2738h678l-1744-4100z"/><path id="as" transform="scale(.015625)" d="m3216 459h1481v3041h578v-3500h-4694v3500h578v-3041h1479v3041h578v-3041z"/><path id="az" transform="scale(.015625)" d="m1828 4750q769 0 1256-327 488-326 488-882 0-388-222-655t-631-370q453-97 707-404 255-306 255-756 0-718-555-1083-554-364-1298-364-381 0-825 103-444 104-581 191v650q478-278 742-345t652-67q587 0 912 225t325 690q0 413-289 645-289 233-898 233h-638v519h663q559 0 806 186t247 536q0 359-255 551-255 193-873 193-419 0-563-38-144-37-784-278v616q353 125 721 178 369 53 638 53z"/></defs><use xlink:href="#av"/><use x="60.9375" xlink:href="#r"/><use x="115.917969" xlink:href="#u"/><use x="181.298828" xlink:href="#h"/><use x="242.822266" xlink:href="#as"/><use x="334.326172" xlink:href="#l"/><use x="399.707031" xlink:href="#e"/><use x="460.888672" xlink:href="#DejaVuSans-20"/><use x="492.675781" xlink:href="#u"/><use x="558.056641" xlink:href="#t"/><use x="621.533203" xlink:href="#h"/><use x="683.056641" xlink:href="#w"/><use x="752.197266" xlink:href="#r"/><use x="807.177734" xlink:href="#p"/><use x="867.578125" xlink:href="#m"/><use x="928.857422" xlink:href="#ac"/><use x="982.03125" xlink:href="#m"/><use x="1043.310547" xlink:href="#l"/><use x="1108.691406" xlink:href="#l"/><use x="1174.072266" xlink:href="#o"/><use x="1253.027344" xlink:href="#h"/><use x="1314.550781" xlink:href="#DejaVuSans-20"/><use x="1346.337891" xlink:href="#r"/><use x="1401.318359" xlink:href="#k"/><use x="1459.570312" xlink:href="#e"/><use x="1520.751953" xlink:href="#s"/><use x="1584.667969" xlink:href="#p"/><use x="1645.068359" xlink:href="#l"/><use x="1710.449219" xlink:href="#e"/><use x="1771.630859" xlink:href="#y"/><use x="1830.566406" xlink:href="#h"/><use x="1892.089844" xlink:href="#l"/><use x="1957.470703" xlink:href="#q"/><use x="2022.460938" xlink:href="#ai"/><use x="2082.617188" xlink:href="#DejaVuSans-20"/><use x="2114.404297" xlink:href="#r"/><use x="2169.384766" xlink:href="#DejaVuSans-20"/><use x="2201.171875" xlink:href="#az"/><use x="2265.283203" xlink:href="#h"/><use x="2326.806641" xlink:href="#v"/><use x="2402.246094" xlink:href="#s"/><use x="2466.162109" xlink:href="#h"/><use x="2527.685547" xlink:href="#af"/></g><defs><clipPath id="f"><rect x="55.296" y="19.44" width="1085.2" height="589.68"/></clipPath></defs></svg>
