<?xml version="1.0" encoding="UTF-8"?>
<!DOCTYPE svg  PUBLIC '-//W3C//DTD SVG 1.1//EN'  'http://www.w3.org/Graphics/SVG/1.1/DTD/svg11.dtd'>
<svg width="1152pt" height="648pt" version="1.1" viewBox="0 0 1152 648" xmlns="http://www.w3.org/2000/svg" xmlns:xlink="http://www.w3.org/1999/xlink"><defs><style type="text/css">*{stroke-linejoin: round; stroke-linecap: butt}</style></defs><path d="m0 648h1152v-648h-1152z" fill="#fff"/><path d="m55.296 609.12h1085.2v-589.68h-1085.2z" fill="#fff"/><path d="m82.133 609.12v-589.68" clip-path="url(#d)" fill="none" stroke="#b0b0b0" stroke-dasharray="0.8,1.32" stroke-width=".8"/><defs><path id="e" d="m0 0v3.5" stroke="#000" stroke-width=".8"/></defs><use x="82.133184" y="609.12" stroke="#000000" stroke-width=".8" xlink:href="#e"/><g transform="translate(69.408 623.72) scale(.1 -.1)"><defs><path id="f" transform="scale(.015625)" d="m794 531h1031v3560l-1122-225v575l1116 225h631v-4135h1031v-531h-2687v531z"/><path id="g" transform="scale(.015625)" d="m703 97v575q238-113 481-172 244-59 479-59 625 0 954 420 330 420 377 1277-181-269-460-413-278-144-615-144-700 0-1108 423-408 424-408 1159 0 718 425 1152 425 435 1131 435 810 0 1236-621 427-620 427-1801 0-1103-524-1761-523-658-1407-658-238 0-482 47-243 47-506 141zm1256 1978q425 0 673 290 249 291 249 798 0 503-249 795-248 292-673 292t-673-292-248-795q0-507 248-798 248-290 673-290z"/><path id="an" transform="scale(.015625)" d="m2113 2584q-425 0-674-291-248-290-248-796 0-503 248-796 249-292 674-292t673 292q248 293 248 796 0 506-248 796-248 291-673 291zm1253 1979v-575q-238 112-480 171-242 60-480 60-625 0-955-422-329-422-376-1275 184 272 462 417 279 145 613 145 703 0 1111-427 408-426 408-1160 0-719-425-1154-425-434-1131-434-810 0-1238 620-428 621-428 1799 0 1106 525 1764t1409 658q238 0 480-47t505-140z"/><path id="h" transform="scale(.015625)" d="m691 4666h2478v-532h-1900v-1143q137 47 274 70 138 23 276 23 781 0 1237-428 457-428 457-1159 0-753-469-1171-469-417-1322-417-294 0-599 50-304 50-629 150v635q281-153 581-228t634-75q541 0 856 284 316 284 316 772 0 487-316 771-315 285-856 285-253 0-505-56-251-56-513-175v2344z"/></defs><use xlink:href="#f"/><use x="63.623047" xlink:href="#g"/><use x="127.246094" xlink:href="#an"/><use x="190.869141" xlink:href="#h"/></g><path d="m170.65 609.12v-589.68" clip-path="url(#d)" fill="none" stroke="#b0b0b0" stroke-dasharray="0.8,1.32" stroke-width=".8"/><use x="170.645681" y="609.12" stroke="#000000" stroke-width=".8" xlink:href="#e"/><g transform="translate(157.92 623.72) scale(.1 -.1)"><defs><path id="ai" transform="scale(.015625)" d="m525 4666h3e3v-269l-1694-4397h-659l1594 4134h-2241v532z"/><path id="c" transform="scale(.015625)" d="m2034 4250q-487 0-733-480-245-479-245-1442 0-959 245-1439 246-480 733-480 491 0 736 480 246 480 246 1439 0 963-246 1442-245 480-736 480zm0 500q785 0 1199-621 414-620 414-1801 0-1178-414-1799-414-620-1199-620-784 0-1198 620-414 621-414 1799 0 1181 414 1801 414 621 1198 621z"/></defs><use xlink:href="#f"/><use x="63.623047" xlink:href="#g"/><use x="127.246094" xlink:href="#ai"/><use x="190.869141" xlink:href="#c"/></g><path d="m259.16 609.12v-589.68" clip-path="url(#d)" fill="none" stroke="#b0b0b0" stroke-dasharray="0.8,1.32" stroke-width=".8"/><use x="259.158178" y="609.12" stroke="#000000" stroke-width=".8" xlink:href="#e"/><g transform="translate(246.43 623.72) scale(.1 -.1)"><use xlink:href="#f"/><use x="63.623047" xlink:href="#g"/><use x="127.246094" xlink:href="#ai"/><use x="190.869141" xlink:href="#h"/></g><path d="m347.67 609.12v-589.68" clip-path="url(#d)" fill="none" stroke="#b0b0b0" stroke-dasharray="0.8,1.32" stroke-width=".8"/><use x="347.670674" y="609.12" stroke="#000000" stroke-width=".8" xlink:href="#e"/><g transform="translate(334.95 623.72) scale(.1 -.1)"><defs><path id="ah" transform="scale(.015625)" d="m2034 2216q-450 0-708-241-257-241-257-662 0-422 257-663 258-241 708-241t709 242q260 243 260 662 0 421-258 662-257 241-711 241zm-631 268q-406 100-633 378-226 279-226 679 0 559 398 884 399 325 1092 325 697 0 1094-325t397-884q0-400-227-679-226-278-629-378 456-106 710-416 255-309 255-755 0-679-414-1042-414-362-1186-362-771 0-1186 362-414 363-414 1042 0 446 256 755 257 310 713 416zm-231 997q0-362 226-565 227-203 636-203 407 0 636 203 230 203 230 565 0 363-230 566-229 203-636 203-409 0-636-203-226-203-226-566z"/></defs><use xlink:href="#f"/><use x="63.623047" xlink:href="#g"/><use x="127.246094" xlink:href="#ah"/><use x="190.869141" xlink:href="#c"/></g><path d="m436.23 609.12v-589.68" clip-path="url(#d)" fill="none" stroke="#b0b0b0" stroke-dasharray="0.8,1.32" stroke-width=".8"/><use x="436.231644" y="609.12" stroke="#000000" stroke-width=".8" xlink:href="#e"/><g transform="translate(423.51 623.72) scale(.1 -.1)"><use xlink:href="#f"/><use x="63.623047" xlink:href="#g"/><use x="127.246094" xlink:href="#ah"/><use x="190.869141" xlink:href="#h"/></g><path d="m524.74 609.12v-589.68" clip-path="url(#d)" fill="none" stroke="#b0b0b0" stroke-dasharray="0.8,1.32" stroke-width=".8"/><use x="524.744141" y="609.12" stroke="#000000" stroke-width=".8" xlink:href="#e"/><g transform="translate(512.02 623.72) scale(.1 -.1)"><use xlink:href="#f"/><use x="63.623047" xlink:href="#g"/><use x="127.246094" xlink:href="#g"/><use x="190.869141" xlink:href="#c"/></g><path d="m613.26 609.12v-589.68" clip-path="url(#d)" fill="none" stroke="#b0b0b0" stroke-dasharray="0.8,1.32" stroke-width=".8"/><use x="613.256638" y="609.12" stroke="#000000" stroke-width=".8" xlink:href="#e"/><g transform="translate(600.53 623.72) scale(.1 -.1)"><use xlink:href="#f"/><use x="63.623047" xlink:href="#g"/><use x="127.246094" xlink:href="#g"/><use x="190.869141" xlink:href="#h"/></g><path d="m701.77 609.12v-589.68" clip-path="url(#d)" fill="none" stroke="#b0b0b0" stroke-dasharray="0.8,1.32" stroke-width=".8"/><use x="701.769135" y="609.12" stroke="#000000" stroke-width=".8" xlink:href="#e"/><g transform="translate(689.04 623.72) scale(.1 -.1)"><defs><path id="i" transform="scale(.015625)" d="m1228 531h2203v-531h-2962v531q359 372 979 998 621 627 780 809 303 340 423 576 121 236 121 464 0 372-261 606-261 235-680 235-297 0-627-103-329-103-704-313v638q381 153 712 231 332 78 607 78 725 0 1156-363 431-362 431-968 0-288-108-546-107-257-392-607-78-91-497-524-418-433-1181-1211z"/></defs><use xlink:href="#i"/><use x="63.623047" xlink:href="#c"/><use x="127.246094" xlink:href="#c"/><use x="190.869141" xlink:href="#c"/></g><path d="m790.33 609.12v-589.68" clip-path="url(#d)" fill="none" stroke="#b0b0b0" stroke-dasharray="0.8,1.32" stroke-width=".8"/><use x="790.330105" y="609.12" stroke="#000000" stroke-width=".8" xlink:href="#e"/><g transform="translate(777.61 623.72) scale(.1 -.1)"><use xlink:href="#i"/><use x="63.623047" xlink:href="#c"/><use x="127.246094" xlink:href="#c"/><use x="190.869141" xlink:href="#h"/></g><path d="m878.84 609.12v-589.68" clip-path="url(#d)" fill="none" stroke="#b0b0b0" stroke-dasharray="0.8,1.32" stroke-width=".8"/><use x="878.842602" y="609.12" stroke="#000000" stroke-width=".8" xlink:href="#e"/><g transform="translate(866.12 623.72) scale(.1 -.1)"><use xlink:href="#i"/><use x="63.623047" xlink:href="#c"/><use x="127.246094" xlink:href="#f"/><use x="190.869141" xlink:href="#c"/></g><path d="m967.36 609.12v-589.68" clip-path="url(#d)" fill="none" stroke="#b0b0b0" stroke-dasharray="0.8,1.32" stroke-width=".8"/><use x="967.355098" y="609.12" stroke="#000000" stroke-width=".8" xlink:href="#e"/><g transform="translate(954.63 623.72) scale(.1 -.1)"><use xlink:href="#i"/><use x="63.623047" xlink:href="#c"/><use x="127.246094" xlink:href="#f"/><use x="190.869141" xlink:href="#h"/></g><path d="m1055.9 609.12v-589.68" clip-path="url(#d)" fill="none" stroke="#b0b0b0" stroke-dasharray="0.8,1.32" stroke-width=".8"/><use x="1055.867595" y="609.12" stroke="#000000" stroke-width=".8" xlink:href="#e"/><g transform="translate(1043.1 623.72) scale(.1 -.1)"><use xlink:href="#i"/><use x="63.623047" xlink:href="#c"/><use x="127.246094" xlink:href="#i"/><use x="190.869141" xlink:href="#c"/></g><defs><path id="b" d="m0 0v2" stroke="#000" stroke-width=".6"/></defs><use x="64.391906" y="609.12" stroke="#000000" stroke-width=".6" xlink:href="#b"/><use x="99.825989" y="609.12" stroke="#000000" stroke-width=".6" xlink:href="#b"/><use x="117.518793" y="609.12" stroke="#000000" stroke-width=".6" xlink:href="#b"/><use x="135.211598" y="609.12" stroke="#000000" stroke-width=".6" xlink:href="#b"/><use x="152.952876" y="609.12" stroke="#000000" stroke-width=".6" xlink:href="#b"/><use x="188.338485" y="609.12" stroke="#000000" stroke-width=".6" xlink:href="#b"/><use x="206.03129" y="609.12" stroke="#000000" stroke-width=".6" xlink:href="#b"/><use x="223.772568" y="609.12" stroke="#000000" stroke-width=".6" xlink:href="#b"/><use x="241.465373" y="609.12" stroke="#000000" stroke-width=".6" xlink:href="#b"/><use x="276.850982" y="609.12" stroke="#000000" stroke-width=".6" xlink:href="#b"/><use x="294.59226" y="609.12" stroke="#000000" stroke-width=".6" xlink:href="#b"/><use x="312.285065" y="609.12" stroke="#000000" stroke-width=".6" xlink:href="#b"/><use x="329.97787" y="609.12" stroke="#000000" stroke-width=".6" xlink:href="#b"/><use x="365.411952" y="609.12" stroke="#000000" stroke-width=".6" xlink:href="#b"/><use x="383.104757" y="609.12" stroke="#000000" stroke-width=".6" xlink:href="#b"/><use x="400.797562" y="609.12" stroke="#000000" stroke-width=".6" xlink:href="#b"/><use x="418.490366" y="609.12" stroke="#000000" stroke-width=".6" xlink:href="#b"/><use x="453.924449" y="609.12" stroke="#000000" stroke-width=".6" xlink:href="#b"/><use x="471.617254" y="609.12" stroke="#000000" stroke-width=".6" xlink:href="#b"/><use x="489.310058" y="609.12" stroke="#000000" stroke-width=".6" xlink:href="#b"/><use x="507.051337" y="609.12" stroke="#000000" stroke-width=".6" xlink:href="#b"/><use x="542.436946" y="609.12" stroke="#000000" stroke-width=".6" xlink:href="#b"/><use x="560.129751" y="609.12" stroke="#000000" stroke-width=".6" xlink:href="#b"/><use x="577.871029" y="609.12" stroke="#000000" stroke-width=".6" xlink:href="#b"/><use x="595.563833" y="609.12" stroke="#000000" stroke-width=".6" xlink:href="#b"/><use x="630.949443" y="609.12" stroke="#000000" stroke-width=".6" xlink:href="#b"/><use x="648.690721" y="609.12" stroke="#000000" stroke-width=".6" xlink:href="#b"/><use x="666.383525" y="609.12" stroke="#000000" stroke-width=".6" xlink:href="#b"/><use x="684.07633" y="609.12" stroke="#000000" stroke-width=".6" xlink:href="#b"/><use x="719.510413" y="609.12" stroke="#000000" stroke-width=".6" xlink:href="#b"/><use x="737.203218" y="609.12" stroke="#000000" stroke-width=".6" xlink:href="#b"/><use x="754.896022" y="609.12" stroke="#000000" stroke-width=".6" xlink:href="#b"/><use x="772.588827" y="609.12" stroke="#000000" stroke-width=".6" xlink:href="#b"/><use x="808.02291" y="609.12" stroke="#000000" stroke-width=".6" xlink:href="#b"/><use x="825.715714" y="609.12" stroke="#000000" stroke-width=".6" xlink:href="#b"/><use x="843.408519" y="609.12" stroke="#000000" stroke-width=".6" xlink:href="#b"/><use x="861.149797" y="609.12" stroke="#000000" stroke-width=".6" xlink:href="#b"/><use x="896.535406" y="609.12" stroke="#000000" stroke-width=".6" xlink:href="#b"/><use x="914.228211" y="609.12" stroke="#000000" stroke-width=".6" xlink:href="#b"/><use x="931.969489" y="609.12" stroke="#000000" stroke-width=".6" xlink:href="#b"/><use x="949.662294" y="609.12" stroke="#000000" stroke-width=".6" xlink:href="#b"/><use x="985.047903" y="609.12" stroke="#000000" stroke-width=".6" xlink:href="#b"/><use x="1002.789181" y="609.12" stroke="#000000" stroke-width=".6" xlink:href="#b"/><use x="1020.481986" y="609.12" stroke="#000000" stroke-width=".6" xlink:href="#b"/><use x="1038.174791" y="609.12" stroke="#000000" stroke-width=".6" xlink:href="#b"/><use x="1073.608873" y="609.12" stroke="#000000" stroke-width=".6" xlink:href="#b"/><use x="1091.301678" y="609.12" stroke="#000000" stroke-width=".6" xlink:href="#b"/><use x="1108.994483" y="609.12" stroke="#000000" stroke-width=".6" xlink:href="#b"/><use x="1126.687287" y="609.12" stroke="#000000" stroke-width=".6" xlink:href="#b"/><g transform="translate(552.07 640.44) scale(.14 -.14)"><defs><path id="z" transform="scale(.015625)" d="m1259 2228v-1709h1013q509 0 754 211 246 211 246 645 0 438-246 645-245 208-754 208h-1013zm0 1919v-1406h935q462 0 688 173 227 174 227 530 0 353-227 528-226 175-688 175h-935zm-631 519h1613q722 0 1112-300 391-300 391-853 0-429-200-682t-588-315q466-100 724-418 258-317 258-792 0-625-425-966-425-340-1210-340h-1675v4666z"/><path id="u" transform="scale(.015625)" d="m1159 525v-1856h-578v4831h578v-531q182 312 458 463 277 152 661 152 638 0 1036-506 399-506 399-1331t-399-1332q-398-506-1036-506-384 0-661 152-276 152-458 464zm1957 1222q0 634-261 995t-717 361q-457 0-718-361t-261-995 261-995 718-361q456 0 717 361t261 995z"/><path id="x" transform="scale(.015625)" d="m3597 1894v-281h-2644q38-594 358-905t892-311q331 0 642 81t618 244v-544q-310-131-635-200t-659-69q-838 0-1327 487-489 488-489 1320 0 859 464 1363 464 505 1252 505 706 0 1117-455 411-454 411-1235zm-575 169q-6 471-264 752-258 282-683 282-481 0-770-272t-333-766l2050 4z"/><path id="v" transform="scale(.015625)" d="m581 3500h841l994-2344 997 2344h834v-3500h-578v2950l-966-2278h-575l-969 2278v-2950h-578v3500z"/><path id="s" transform="scale(.015625)" d="m1181 2491q0-260 200-407 200-146 572-146h775v1103h-775q-372 0-572-144t-200-406zm-818-2491 1068 1534q-362 82-603 296-240 214-240 661 0 506 335 757 336 252 1015 252h1368v-3500h-578v1478h-715l-1032-1478h-618z"/><path id="aa" transform="scale(.015625)" d="m750 794h659v-538l-512-1e3h-403l256 1e3v538z"/><path id="ae" transform="scale(.015625)" d="m581 0v3500h2469v-459h-1891v-3041h-578z"/><path id="j" transform="scale(.015625)" d="m1959 3097q-462 0-731-361t-269-989 267-989q268-361 733-361 460 0 728 362 269 363 269 988 0 622-269 986-268 364-728 364zm0 487q750 0 1178-488 429-487 429-1349 0-859-429-1349-428-489-1178-489-753 0-1180 489-426 490-426 1349 0 862 426 1349 427 488 1180 488z"/><path id="q" transform="scale(.015625)" d="m1384 459h1669v2582h-1209v-438q0-1287-369-1975l-91-169zm-834 0q284 125 409 391 307 659 307 1988v662h2365v-3041h460v-1343h-460v884h-2837v-884h-460v1343h216z"/><path id="ab" transform="scale(.015625)" d="m3907 3500h575v-3500h-575v3500zm288 84zm-1414-2546q0 281-205 428-204 147-598 147h-819v-1154h819q394 0 598 148 205 149 205 431zm-2200 2462h578v-1428h844q669 0 1030-255 361-254 361-779t-361-782q-361-256-1030-256h-1422v3500z"/></defs><use xlink:href="#z"/><use x="68.603516" xlink:href="#u"/><use x="132.080078" xlink:href="#x"/><use x="193.603516" xlink:href="#v"/><use x="269.042969" xlink:href="#s"/><use x="329.199219" xlink:href="#aa"/><use x="360.986328" xlink:href="#DejaVuSans-20"/><use x="392.773438" xlink:href="#ae"/><use x="445.3125" xlink:href="#j"/><use x="506.494141" xlink:href="#q"/><use x="575.634766" xlink:href="#ab"/></g><path d="m55.296 606.51h1085.2" clip-path="url(#d)" fill="none" stroke="#b0b0b0" stroke-dasharray="0.8,1.32" stroke-width=".8"/><defs><path id="m" d="m0 0h-3.5" stroke="#000" stroke-width=".8"/></defs><use x="55.296" y="606.510796" stroke="#000000" stroke-width=".8" xlink:href="#m"/><g transform="translate(41.934 610.31) scale(.1 -.1)"><use xlink:href="#c"/></g><path d="m55.296 476.05h1085.2" clip-path="url(#d)" fill="none" stroke="#b0b0b0" stroke-dasharray="0.8,1.32" stroke-width=".8"/><use x="55.296" y="476.050619" stroke="#000000" stroke-width=".8" xlink:href="#m"/><g transform="translate(35.571 479.85) scale(.1 -.1)"><use xlink:href="#h"/><use x="63.623047" xlink:href="#c"/></g><path d="m55.296 345.59h1085.2" clip-path="url(#d)" fill="none" stroke="#b0b0b0" stroke-dasharray="0.8,1.32" stroke-width=".8"/><use x="55.296" y="345.590442" stroke="#000000" stroke-width=".8" xlink:href="#m"/><g transform="translate(29.208 349.39) scale(.1 -.1)"><use xlink:href="#f"/><use x="63.623047" xlink:href="#c"/><use x="127.246094" xlink:href="#c"/></g><path d="m55.296 215.13h1085.2" clip-path="url(#d)" fill="none" stroke="#b0b0b0" stroke-dasharray="0.8,1.32" stroke-width=".8"/><use x="55.296" y="215.130265" stroke="#000000" stroke-width=".8" xlink:href="#m"/><g transform="translate(29.208 218.93) scale(.1 -.1)"><use xlink:href="#f"/><use x="63.623047" xlink:href="#h"/><use x="127.246094" xlink:href="#c"/></g><path d="m55.296 84.67h1085.2" clip-path="url(#d)" fill="none" stroke="#b0b0b0" stroke-dasharray="0.8,1.32" stroke-width=".8"/><use x="55.296" y="84.670088" stroke="#000000" stroke-width=".8" xlink:href="#m"/><g transform="translate(29.208 88.469) scale(.1 -.1)"><use xlink:href="#i"/><use x="63.623047" xlink:href="#c"/><use x="127.246094" xlink:href="#c"/></g><g transform="translate(22.297 452.43) rotate(-90) scale(.14 -.14)"><defs><path id="al" transform="scale(.015625)" d="m4122 4306v-665q-319 297-680 443-361 147-767 147-800 0-1225-489t-425-1414q0-922 425-1411t1225-489q406 0 767 147t680 444v-660q-331-225-702-338-370-112-782-112-1060 0-1670 648-609 649-609 1771 0 1125 609 1773 610 649 1670 649 418 0 788-111 371-111 696-333z"/><path id="t" transform="scale(.015625)" d="m2059-325q-243-625-475-815-231-191-618-191h-460v481h338q237 0 368 113 132 112 291 531l103 262-1415 3444h609l1094-2737 1094 2737h609l-1538-3825z"/><path id="l" transform="scale(.015625)" d="m2194 1759q-697 0-966-159t-269-544q0-306 202-486 202-179 548-179 479 0 768 339t289 901v128h-572zm1147 238v-1997h-575v531q-197-318-491-470t-719-152q-537 0-855 302-317 302-317 808 0 590 395 890 396 300 1180 300h807v57q0 397-261 614t-733 217q-300 0-585-72-284-72-546-216v532q315 122 612 182 297 61 578 61 760 0 1135-394 375-393 375-1193z"/><path id="o" transform="scale(.015625)" d="m581 3500h578v-1428h1866v1428h578v-3500h-578v1613h-1866v-1613h-578v3500z"/><path id="p" transform="scale(.015625)" d="m238 0v478q568 88 743 481 213 554 213 1969v572h2365v-3500h-575v3041h-1215v-347q0-1350-275-1956-294-647-1256-738z"/><path id="w" transform="scale(.015625)" d="m3578 3500v-3500h-572v2809l-1687-2809h-738v3500h572v-2803l1685 2803h740z"/><path id="k" transform="scale(.015625)" d="m188 3500h3353v-459h-1394v-3041h-566v3041h-1393v459z"/><path id="n" transform="scale(.015625)" d="m2781 1038q0 281-205 428-204 147-598 147h-819v-1154h819q394 0 598 148 205 149 205 431zm-2200 2462h578v-1428h844q669 0 1030-255 361-254 361-779t-361-782q-361-256-1030-256h-1422v3500z"/><path id="r" transform="scale(.015625)" d="m3122 3366v-538q-244 135-489 202t-495 67q-560 0-870-355-309-354-309-995t309-996q310-354 870-354 250 0 495 67t489 202v-532q-241-112-499-168-257-57-548-57-791 0-1257 497-465 497-465 1341 0 856 470 1346 471 491 1290 491 265 0 518-55 253-54 491-163z"/><path id="af" transform="scale(.015625)" d="m628 4666h631v-2307l2257 2307h809l-1803-1844 1897-2822h-688l-1618 2403-854-872v-1531h-631v4666z"/><path id="ag" transform="scale(.015625)" d="m1459 531h2063v3603h-1516v-662q0-1559-350-2594-72-212-197-347zm-921 0q418 197 537 572 303 963 303 2681v882h2775v-4135h531v-1534h-531v1003h-3306v-1003h-531v1534h222z"/><path id="ad" transform="scale(.015625)" d="m581 3500h572v-1644l1622 1644h706l-1337-1353 1509-2147h-644l-1240 1766-616-625v-1141h-572v3500z"/></defs><use xlink:href="#al"/><use x="69.824219" xlink:href="#t"/><use x="129.003906" xlink:href="#v"/><use x="204.443359" xlink:href="#v"/><use x="279.882812" xlink:href="#l"/><use x="341.162109" xlink:href="#u"/><use x="404.638672" xlink:href="#o"/><use x="470.019531" xlink:href="#l"/><use x="531.298828" xlink:href="#s"/><use x="591.455078" xlink:href="#DejaVuSans-20"/><use x="623.242188" xlink:href="#q"/><use x="692.382812" xlink:href="#p"/><use x="756.298828" xlink:href="#w"/><use x="821.289062" xlink:href="#k"/><use x="879.541016" xlink:href="#x"/><use x="941.064453" xlink:href="#p"/><use x="1004.980469" xlink:href="#n"/><use x="1063.916016" xlink:href="#o"/><use x="1129.296875" xlink:href="#j"/><use x="1190.478516" xlink:href="#r"/><use x="1245.458984" xlink:href="#k"/><use x="1303.710938" xlink:href="#n"/><use x="1362.646484" xlink:href="#DejaVuSans-20"/><use x="1394.433594" xlink:href="#z"/><use x="1463.037109" xlink:href="#af"/><use x="1534.033203" xlink:href="#ag"/><use x="1612.158203" xlink:href="#aa"/><use x="1643.945312" xlink:href="#DejaVuSans-20"/><use x="1675.732422" xlink:href="#r"/><use x="1730.712891" xlink:href="#t"/><use x="1789.892578" xlink:href="#k"/><use x="1848.144531" xlink:href="#ad"/><use x="1908.544922" xlink:href="#w"/></g><defs><path id="a" d="m0 1.5c0.3978 0 0.77937-0.15805 1.0607-0.43934 0.28129-0.28129 0.43934-0.66286 0.43934-1.0607s-0.15805-0.77937-0.43934-1.0607c-0.28129-0.28129-0.66286-0.43934-1.0607-0.43934s-0.77937 0.15805-1.0607 0.43934c-0.28129 0.28129-0.43934 0.66286-0.43934 1.0607s0.15805 0.77937 0.43934 1.0607c0.28129 0.28129 0.66286 0.43934 1.0607 0.43934z" stroke="#000"/></defs><g clip-path="url(#d)" stroke="#000000"><use x="85.834266" y="606.469122" xlink:href="#a"/><use x="89.588904" y="606.385772" xlink:href="#a"/><use x="89.588904" y="606.302423" xlink:href="#a"/><use x="107.369735" y="606.070493" xlink:href="#a"/><use x="107.369735" y="605.838564" xlink:href="#a"/><use x="109.516098" y="605.747967" xlink:href="#a"/><use x="109.516098" y="605.657369" xlink:href="#a"/><use x="109.567164" y="605.584892" xlink:href="#a"/><use x="109.567164" y="605.512414" xlink:href="#a"/><use x="109.5709" y="605.506978" xlink:href="#a"/><use x="109.5709" y="605.501542" xlink:href="#a"/><use x="112.21617" y="605.423628" xlink:href="#a"/><use x="112.21617" y="605.345715" xlink:href="#a"/><use x="112.219637" y="605.338467" xlink:href="#a"/><use x="112.219637" y="605.331219" xlink:href="#a"/><use x="112.261041" y="605.095666" xlink:href="#a"/><use x="112.261041" y="604.860113" xlink:href="#a"/><use x="115.127841" y="604.582885" xlink:href="#a"/><use x="115.127841" y="604.305657" xlink:href="#a"/><use x="115.175035" y="604.073728" xlink:href="#a"/><use x="115.175035" y="603.841799" xlink:href="#a"/><use x="115.222095" y="603.736706" xlink:href="#a"/><use x="115.222095" y="603.631613" xlink:href="#a"/><use x="153.702026" y="603.53558" xlink:href="#a"/><use x="153.702026" y="603.439546" xlink:href="#a"/><use x="156.088973" y="603.318146" xlink:href="#a"/><use x="156.088973" y="603.196746" xlink:href="#a"/><use x="156.089276" y="603.086217" xlink:href="#a"/><use x="162.701356" y="602.803553" xlink:href="#a"/><use x="162.701356" y="602.520889" xlink:href="#a"/><use x="162.711522" y="602.51183" xlink:href="#a"/><use x="162.711522" y="602.50277" xlink:href="#a"/><use x="168.58455" y="602.069715" xlink:href="#a"/><use x="168.58455" y="601.636659" xlink:href="#a"/><use x="168.617572" y="601.212664" xlink:href="#a"/><use x="168.617572" y="600.788668" xlink:href="#a"/><use x="168.627806" y="600.779608" xlink:href="#a"/><use x="168.627806" y="600.770549" xlink:href="#a"/><use x="190.064746" y="600.248708" xlink:href="#a"/><use x="190.064746" y="599.726867" xlink:href="#a"/><use x="190.100057" y="599.230394" xlink:href="#a"/><use x="190.100057" y="598.73392" xlink:href="#a"/><use x="190.110526" y="598.717613" xlink:href="#a"/><use x="190.110526" y="598.701305" xlink:href="#a"/><use x="197.061314" y="598.701305" xlink:href="#a"/><use x="197.061314" y="598.701305" xlink:href="#a"/><use x="197.061314" y="598.701305" xlink:href="#a"/><use x="198.566953" y="598.641511" xlink:href="#a"/><use x="198.566953" y="598.581717" xlink:href="#a"/><use x="198.593075" y="597.871434" xlink:href="#a"/><use x="198.593075" y="597.16115" xlink:href="#a"/><use x="198.638721" y="596.380201" xlink:href="#a"/><use x="198.638721" y="595.599252" xlink:href="#a"/><use x="198.681236" y="595.0756" xlink:href="#a"/><use x="198.681236" y="594.551947" xlink:href="#a"/><use x="198.692748" y="594.530204" xlink:href="#a"/><use x="198.692748" y="594.50846" xlink:href="#a"/><use x="198.840155" y="594.457726" xlink:href="#a"/><use x="198.840155" y="594.406991" xlink:href="#a"/><use x="198.840155" y="594.356257" xlink:href="#a"/><use x="211.445773" y="593.577119" xlink:href="#a"/><use x="211.445773" y="592.797982" xlink:href="#a"/><use x="211.493775" y="591.997102" xlink:href="#a"/><use x="211.493775" y="591.196221" xlink:href="#a"/><use x="211.53996" y="590.581971" xlink:href="#a"/><use x="211.53996" y="589.967721" xlink:href="#a"/><use x="211.55366" y="589.960473" xlink:href="#a"/><use x="211.55366" y="589.953226" xlink:href="#a"/><use x="211.647375" y="589.828201" xlink:href="#a"/><use x="211.647375" y="589.703177" xlink:href="#a"/><use x="211.647375" y="589.578153" xlink:href="#a"/><use x="222.802965" y="588.799015" xlink:href="#a"/><use x="222.802965" y="588.019878" xlink:href="#a"/><use x="222.850496" y="587.193631" xlink:href="#a"/><use x="222.850496" y="586.367383" xlink:href="#a"/><use x="222.896882" y="585.580998" xlink:href="#a"/><use x="222.896882" y="584.794613" xlink:href="#a"/><use x="222.913646" y="584.781929" xlink:href="#a"/><use x="222.913646" y="584.769246" xlink:href="#a"/><use x="222.942326" y="584.761998" xlink:href="#a"/><use x="222.942326" y="584.75475" xlink:href="#a"/><use x="223.08677" y="584.653281" xlink:href="#a"/><use x="223.08677" y="584.551812" xlink:href="#a"/><use x="223.08677" y="584.450343" xlink:href="#a"/><use x="230.800947" y="584.394173" xlink:href="#a"/><use x="230.800947" y="584.338002" xlink:href="#a"/><use x="230.800947" y="584.281832" xlink:href="#a"/><use x="230.807006" y="584.254653" xlink:href="#a"/><use x="230.807006" y="584.227473" xlink:href="#a"/><use x="230.807006" y="584.200294" xlink:href="#a"/><use x="231.413867" y="583.819785" xlink:href="#a"/><use x="231.413867" y="583.439277" xlink:href="#a"/><use x="231.986527" y="583.252646" xlink:href="#a"/><use x="231.986527" y="583.066015" xlink:href="#a"/><use x="234.326515" y="582.346673" xlink:href="#a"/><use x="234.326515" y="581.62733" xlink:href="#a"/><use x="235.196815" y="581.12542" xlink:href="#a"/><use x="235.196815" y="580.623511" xlink:href="#a"/><use x="236.592278" y="580.32454" xlink:href="#a"/><use x="236.592278" y="580.025569" xlink:href="#a"/><use x="239.562185" y="579.308038" xlink:href="#a"/><use x="239.562185" y="578.590507" xlink:href="#a"/><use x="241.160091" y="577.829489" xlink:href="#a"/><use x="241.160091" y="577.068471" xlink:href="#a"/><use x="241.355197" y="576.680715" xlink:href="#a"/><use x="241.355197" y="576.292958" xlink:href="#a"/><use x="243.095864" y="575.705887" xlink:href="#a"/><use x="243.095864" y="575.118816" xlink:href="#a"/><use x="311.698536" y="574.959365" xlink:href="#a"/><use x="311.698536" y="574.799914" xlink:href="#a"/><use x="322.423991" y="574.540805" xlink:href="#a"/><use x="322.424092" y="574.287133" xlink:href="#a"/><use x="340.961681" y="574.136741" xlink:href="#a"/><use x="340.961681" y="573.98635" xlink:href="#a"/><use x="393.289531" y="573.709122" xlink:href="#a"/><use x="393.289531" y="573.431894" xlink:href="#a"/><use x="405.493594" y="572.978907" xlink:href="#a"/><use x="405.493594" y="572.52592" xlink:href="#a"/><use x="415.543148" y="572.219701" xlink:href="#a"/><use x="415.543148" y="571.913482" xlink:href="#a"/><use x="415.638075" y="571.596392" xlink:href="#a"/><use x="415.638075" y="571.279301" xlink:href="#a"/><use x="420.308962" y="570.762896" xlink:href="#a"/><use x="420.308962" y="570.246491" xlink:href="#a"/><use x="420.402374" y="569.563387" xlink:href="#a"/><use x="420.402374" y="568.880283" xlink:href="#a"/><use x="423.269645" y="568.57044" xlink:href="#a"/><use x="423.269645" y="568.260597" xlink:href="#a"/><use x="423.403587" y="567.466965" xlink:href="#a"/><use x="423.403587" y="566.673332" xlink:href="#a"/><use x="423.976987" y="566.211285" xlink:href="#a"/><use x="423.976987" y="565.749239" xlink:href="#a"/><use x="424.118671" y="565.205655" xlink:href="#a"/><use x="424.118671" y="564.662071" xlink:href="#a"/><use x="424.261903" y="564.3631" xlink:href="#a"/><use x="424.261903" y="564.064128" xlink:href="#a"/><use x="424.499558" y="563.765157" xlink:href="#a"/><use x="424.499558" y="563.466186" xlink:href="#a"/><use x="425.215787" y="563.130976" xlink:href="#a"/><use x="425.215787" y="562.795765" xlink:href="#a"/><use x="428.506022" y="562.408009" xlink:href="#a"/><use x="428.506022" y="562.020252" xlink:href="#a"/><use x="429.172229" y="561.476668" xlink:href="#a"/><use x="429.172229" y="560.933084" xlink:href="#a"/><use x="432.288398" y="560.547139" xlink:href="#a"/><use x="432.288398" y="560.161195" xlink:href="#a"/><use x="433.834667" y="559.483527" xlink:href="#a"/><use x="433.834667" y="558.805858" xlink:href="#a"/><use x="433.927406" y="558.151746" xlink:href="#a"/><use x="433.927406" y="557.497633" xlink:href="#a"/><use x="441.346434" y="557.153363" xlink:href="#a"/><use x="441.346434" y="556.809093" xlink:href="#a"/><use x="446.57113" y="556.265509" xlink:href="#a"/><use x="446.57113" y="555.721925" xlink:href="#a"/><use x="447.986857" y="554.946412" xlink:href="#a"/><use x="447.986857" y="554.170898" xlink:href="#a"/><use x="448.034926" y="553.661741" xlink:href="#a"/><use x="448.034926" y="553.152584" xlink:href="#a"/><use x="452.368687" y="552.547394" xlink:href="#a"/><use x="452.368687" y="551.942204" xlink:href="#a"/><use x="452.462908" y="551.206553" xlink:href="#a"/><use x="452.462908" y="550.470903" xlink:href="#a"/><use x="461.061591" y="550.054155" xlink:href="#a"/><use x="461.061591" y="549.637407" xlink:href="#a"/><use x="461.205462" y="549.093823" xlink:href="#a"/><use x="461.205462" y="548.550239" xlink:href="#a"/><use x="476.504352" y="548.151611" xlink:href="#a"/><use x="476.504352" y="547.752982" xlink:href="#a"/><use x="479.504118" y="547.548232" xlink:href="#a"/><use x="479.504118" y="547.343482" xlink:href="#a"/><use x="479.69515" y="546.990153" xlink:href="#a"/><use x="479.69515" y="546.636823" xlink:href="#a"/><use x="492.043758" y="546.156657" xlink:href="#a"/><use x="492.043758" y="545.676491" xlink:href="#a"/><use x="498.09496" y="545.114788" xlink:href="#a"/><use x="498.09496" y="544.553084" xlink:href="#a"/><use x="503.52486" y="544.096473" xlink:href="#a"/><use x="503.52486" y="543.639863" xlink:href="#a"/><use x="505.956544" y="542.987562" xlink:href="#a"/><use x="505.956544" y="542.335261" xlink:href="#a"/><use x="525.124624" y="542.016358" xlink:href="#a"/><use x="525.124624" y="541.697456" xlink:href="#a"/><use x="525.265264" y="541.382177" xlink:href="#a"/><use x="525.265264" y="541.066898" xlink:href="#a"/><use x="525.980517" y="540.737124" xlink:href="#a"/><use x="525.980517" y="540.40735" xlink:href="#a"/><use x="526.263481" y="539.865577" xlink:href="#a"/><use x="526.263481" y="539.323805" xlink:href="#a"/><use x="526.453099" y="538.916117" xlink:href="#a"/><use x="526.453099" y="538.508429" xlink:href="#a"/><use x="534.319867" y="537.71842" xlink:href="#a"/><use x="534.319867" y="536.928412" xlink:href="#a"/><use x="534.752391" y="536.546091" xlink:href="#a"/><use x="534.752391" y="536.16377" xlink:href="#a"/><use x="539.378575" y="535.864799" xlink:href="#a"/><use x="539.378575" y="535.565827" xlink:href="#a"/><use x="542.762223" y="534.989628" xlink:href="#a"/><use x="542.762223" y="534.413429" xlink:href="#a"/><use x="543.525545" y="533.810051" xlink:href="#a"/><use x="543.525545" y="533.206673" xlink:href="#a"/><use x="543.666959" y="532.518133" xlink:href="#a"/><use x="543.666959" y="531.829593" xlink:href="#a"/><use x="547.128064" y="531.325872" xlink:href="#a"/><use x="547.128064" y="530.82215" xlink:href="#a"/><use x="547.168593" y="530.149918" xlink:href="#a"/><use x="547.168593" y="529.477686" xlink:href="#a"/><use x="548.004288" y="529.089929" xlink:href="#a"/><use x="548.004288" y="528.702173" xlink:href="#a"/><use x="550.914109" y="528.162212" xlink:href="#a"/><use x="550.914109" y="527.622252" xlink:href="#a"/><use x="551.10366" y="527.252615" xlink:href="#a"/><use x="551.10366" y="526.882978" xlink:href="#a"/><use x="551.912998" y="526.237925" xlink:href="#a"/><use x="551.912998" y="525.592872" xlink:href="#a"/><use x="552.105714" y="524.998553" xlink:href="#a"/><use x="552.105714" y="524.404235" xlink:href="#a"/><use x="552.295736" y="523.784549" xlink:href="#a"/><use x="552.295736" y="523.164863" xlink:href="#a"/><use x="552.488586" y="522.423777" xlink:href="#a"/><use x="552.488586" y="521.68269" xlink:href="#a"/><use x="562.59412" y="521.22608" xlink:href="#a"/><use x="562.59412" y="520.769469" xlink:href="#a"/><use x="566.472534" y="520.350909" xlink:href="#a"/><use x="566.472534" y="519.93235" xlink:href="#a"/><use x="566.521949" y="519.319912" xlink:href="#a"/><use x="566.521949" y="518.707473" xlink:href="#a"/><use x="566.619435" y="517.779757" xlink:href="#a"/><use x="566.619435" y="516.85204" xlink:href="#a"/><use x="566.619435" y="515.924323" xlink:href="#a"/><use x="566.667774" y="515.078144" xlink:href="#a"/><use x="566.667774" y="514.231965" xlink:href="#a"/><use x="569.316746" y="514.009095" xlink:href="#a"/><use x="569.316746" y="513.786226" xlink:href="#a"/><use x="572.08155" y="513.358606" xlink:href="#a"/><use x="572.08155" y="512.930987" xlink:href="#a"/><use x="572.271909" y="512.372907" xlink:href="#a"/><use x="572.271909" y="511.814827" xlink:href="#a"/><use x="572.462403" y="511.191518" xlink:href="#a"/><use x="572.462403" y="510.568208" xlink:href="#a"/><use x="572.651685" y="510.182263" xlink:href="#a"/><use x="572.651685" y="509.796319" xlink:href="#a"/><use x="578.668316" y="509.301657" xlink:href="#a"/><use x="578.668316" y="508.806996" xlink:href="#a"/><use x="583.143357" y="508.344949" xlink:href="#a"/><use x="583.143357" y="507.882903" xlink:href="#a"/><use x="586.049743" y="507.388241" xlink:href="#a"/><use x="586.049743" y="506.89358" xlink:href="#a"/><use x="586.380204" y="506.250338" xlink:href="#a"/><use x="586.380204" y="505.607097" xlink:href="#a"/><use x="590.389193" y="505.139615" xlink:href="#a"/><use x="590.389193" y="504.672133" xlink:href="#a"/><use x="590.39431" y="503.896619" xlink:href="#a"/><use x="590.39431" y="503.121106" xlink:href="#a"/><use x="590.578879" y="502.769588" xlink:href="#a"/><use x="590.578879" y="502.418071" xlink:href="#a"/><use x="590.960607" y="502.206073" xlink:href="#a"/><use x="590.960607" y="501.994075" xlink:href="#a"/><use x="592.154097" y="501.925221" xlink:href="#a"/><use x="592.154097" y="501.856367" xlink:href="#a"/><use x="592.488699" y="501.379825" xlink:href="#a"/><use x="592.488699" y="500.903283" xlink:href="#a"/><use x="594.262389" y="500.033549" xlink:href="#a"/><use x="594.262389" y="499.163814" xlink:href="#a"/><use x="594.310425" y="498.440847" xlink:href="#a"/><use x="594.310425" y="497.717881" xlink:href="#a"/><use x="594.323957" y="497.712445" xlink:href="#a"/><use x="594.323957" y="497.707009" xlink:href="#a"/><use x="594.359167" y="496.962299" xlink:href="#a"/><use x="594.359167" y="496.217588" xlink:href="#a"/><use x="594.406665" y="495.456571" xlink:href="#a"/><use x="594.406665" y="494.695553" xlink:href="#a"/><use x="594.455879" y="493.891049" xlink:href="#a"/><use x="594.455879" y="493.086544" xlink:href="#a"/><use x="607.744804" y="492.532088" xlink:href="#a"/><use x="607.744804" y="491.977633" xlink:href="#a"/><use x="607.937722" y="491.32352" xlink:href="#a"/><use x="607.937722" y="490.669407" xlink:href="#a"/><use x="608.099569" y="489.919261" xlink:href="#a"/><use x="608.099569" y="489.169115" xlink:href="#a"/><use x="615.171204" y="488.654522" xlink:href="#a"/><use x="615.171204" y="488.139929" xlink:href="#a"/><use x="619.61541" y="487.460449" xlink:href="#a"/><use x="619.61541" y="486.780969" xlink:href="#a"/><use x="619.854344" y="486.052566" xlink:href="#a"/><use x="619.854344" y="485.324164" xlink:href="#a"/><use x="620.091729" y="484.7534" xlink:href="#a"/><use x="620.091729" y="484.182637" xlink:href="#a"/><use x="620.427408" y="484.144586" xlink:href="#a"/><use x="620.427408" y="484.106535" xlink:href="#a"/><use x="620.620729" y="484.064861" xlink:href="#a"/><use x="620.620729" y="484.023186" xlink:href="#a"/><use x="622.668429" y="483.417996" xlink:href="#a"/><use x="622.668429" y="482.812805" xlink:href="#a"/><use x="622.904165" y="482.472159" xlink:href="#a"/><use x="622.904165" y="482.131513" xlink:href="#a"/><use x="623.000741" y="481.497332" xlink:href="#a"/><use x="623.000741" y="480.86315" xlink:href="#a"/><use x="625.779212" y="480.113004" xlink:href="#a"/><use x="625.779212" y="479.362858" xlink:href="#a"/><use x="627.434782" y="478.790283" xlink:href="#a"/><use x="627.434782" y="478.217708" xlink:href="#a"/><use x="629.825229" y="478.165162" xlink:href="#a"/><use x="629.825229" y="478.112615" xlink:href="#a"/><use x="631.639011" y="477.425887" xlink:href="#a"/><use x="631.639011" y="476.739159" xlink:href="#a"/><use x="631.736261" y="475.978142" xlink:href="#a"/><use x="631.736261" y="475.217124" xlink:href="#a"/><use x="632.81981" y="474.880102" xlink:href="#a"/><use x="632.81981" y="474.54308" xlink:href="#a"/><use x="634.538631" y="473.907086" xlink:href="#a"/><use x="634.538631" y="473.271093" xlink:href="#a"/><use x="635.130782" y="472.577117" xlink:href="#a"/><use x="635.130782" y="471.883142" xlink:href="#a"/><use x="637.781841" y="471.303319" xlink:href="#a"/><use x="637.781841" y="470.723496" xlink:href="#a"/><use x="637.971594" y="470.101998" xlink:href="#a"/><use x="637.971594" y="469.4805" xlink:href="#a"/><use x="638.257487" y="469.009394" xlink:href="#a"/><use x="638.257487" y="468.538288" xlink:href="#a"/><use x="638.593973" y="468.150531" xlink:href="#a"/><use x="638.593973" y="467.762774" xlink:href="#a"/><use x="638.924838" y="467.143088" xlink:href="#a"/><use x="638.924838" y="466.523403" xlink:href="#a"/><use x="647.095844" y="466.440053" xlink:href="#a"/><use x="647.095844" y="466.356704" xlink:href="#a"/><use x="647.268631" y="465.708027" xlink:href="#a"/><use x="647.268631" y="465.05935" xlink:href="#a"/><use x="647.603771" y="464.338195" xlink:href="#a"/><use x="647.603771" y="463.61704" xlink:href="#a"/><use x="650.832607" y="462.875954" xlink:href="#a"/><use x="650.832607" y="462.134867" xlink:href="#a"/><use x="650.878792" y="461.317679" xlink:href="#a"/><use x="650.878792" y="460.500491" xlink:href="#a"/><use x="650.926221" y="459.714106" xlink:href="#a"/><use x="650.926221" y="458.927721" xlink:href="#a"/><use x="650.976479" y="458.21019" xlink:href="#a"/><use x="650.976479" y="457.492659" xlink:href="#a"/><use x="651.023673" y="456.900153" xlink:href="#a"/><use x="651.023673" y="456.307646" xlink:href="#a"/><use x="654.421022" y="455.765874" xlink:href="#a"/><use x="654.421022" y="455.224102" xlink:href="#a"/><use x="660.007249" y="454.843593" xlink:href="#a"/><use x="660.007249" y="454.463084" xlink:href="#a"/><use x="660.714389" y="453.810783" xlink:href="#a"/><use x="660.714389" y="453.158482" xlink:href="#a"/><use x="661.959146" y="452.605838" xlink:href="#a"/><use x="661.959146" y="452.053195" xlink:href="#a"/><use x="662.864489" y="451.33204" xlink:href="#a"/><use x="662.864489" y="450.610885" xlink:href="#a"/><use x="663.530729" y="449.951336" xlink:href="#a"/><use x="663.530729" y="449.291788" xlink:href="#a"/><use x="663.544463" y="449.273668" xlink:href="#a"/><use x="663.544463" y="449.255549" xlink:href="#a"/><use x="663.669417" y="448.581504" xlink:href="#a"/><use x="663.669417" y="447.90746" xlink:href="#a"/><use x="664.589672" y="447.046785" xlink:href="#a"/><use x="664.589672" y="446.186111" xlink:href="#a"/><use x="664.996142" y="445.637091" xlink:href="#a"/><use x="664.996142" y="445.088071" xlink:href="#a"/><use x="666.769562" y="444.751049" xlink:href="#a"/><use x="666.769562" y="444.414027" xlink:href="#a"/><use x="667.056498" y="443.832392" xlink:href="#a"/><use x="667.056498" y="443.250757" xlink:href="#a"/><use x="669.343435" y="443.12392" xlink:href="#a"/><use x="669.343435" y="442.997084" xlink:href="#a"/><use x="670.773569" y="442.272305" xlink:href="#a"/><use x="670.773569" y="441.547527" xlink:href="#a"/><use x="671.011628" y="441.070985" xlink:href="#a"/><use x="671.011628" y="440.594442" xlink:href="#a"/><use x="671.249653" y="439.829801" xlink:href="#a"/><use x="671.249653" y="439.065159" xlink:href="#a"/><use x="671.537194" y="438.353064" xlink:href="#a"/><use x="671.537194" y="437.640969" xlink:href="#a"/><use x="671.77532" y="436.950617" xlink:href="#a"/><use x="671.77532" y="436.260265" xlink:href="#a"/><use x="678.881593" y="436.205907" xlink:href="#a"/><use x="678.881593" y="436.151549" xlink:href="#a"/><use x="681.594894" y="435.488376" xlink:href="#a"/><use x="681.594894" y="434.825204" xlink:href="#a"/><use x="682.90913" y="434.018887" xlink:href="#a"/><use x="682.90913" y="433.212571" xlink:href="#a"/><use x="683.002845" y="432.442493" xlink:href="#a"/><use x="683.002845" y="431.672416" xlink:href="#a"/><use x="683.148299" y="430.909586" xlink:href="#a"/><use x="683.148299" y="430.146757" xlink:href="#a"/><use x="689.175365" y="429.460029" xlink:href="#a"/><use x="689.175365" y="428.773301" xlink:href="#a"/><use x="691.304595" y="427.901754" xlink:href="#a"/><use x="691.304595" y="427.030208" xlink:href="#a"/><use x="693.938857" y="426.365223" xlink:href="#a"/><use x="693.938857" y="425.700239" xlink:href="#a"/><use x="694.178228" y="425.116792" xlink:href="#a"/><use x="694.178228" y="424.533345" xlink:href="#a"/><use x="701.322136" y="423.612876" xlink:href="#a"/><use x="701.322136" y="422.692407" xlink:href="#a"/><use x="701.370979" y="421.779186" xlink:href="#a"/><use x="701.370979" y="420.865965" xlink:href="#a"/><use x="701.420059" y="419.969051" xlink:href="#a"/><use x="701.420059" y="419.072137" xlink:href="#a"/><use x="708.189307" y="418.523117" xlink:href="#a"/><use x="708.189307" y="417.974097" xlink:href="#a"/><use x="708.655897" y="417.236635" xlink:href="#a"/><use x="708.655897" y="416.499173" xlink:href="#a"/><use x="714.090847" y="415.810633" xlink:href="#a"/><use x="714.090847" y="415.122093" xlink:href="#a"/><use x="715.758602" y="414.415434" xlink:href="#a"/><use x="715.758602" y="413.708774" xlink:href="#a"/><use x="715.806638" y="412.929637" xlink:href="#a"/><use x="715.806638" y="412.1505" xlink:href="#a"/><use x="715.855617" y="411.40579" xlink:href="#a"/><use x="715.855617" y="410.66108" xlink:href="#a"/><use x="715.905134" y="409.903686" xlink:href="#a"/><use x="715.905134" y="409.146292" xlink:href="#a"/><use x="718.142082" y="408.318232" xlink:href="#a"/><use x="718.142082" y="407.490173" xlink:href="#a"/><use x="718.236571" y="406.765394" xlink:href="#a"/><use x="718.236571" y="406.040615" xlink:href="#a"/><use x="718.331162" y="405.471664" xlink:href="#a"/><use x="718.331162" y="404.902712" xlink:href="#a"/><use x="721.481127" y="404.069217" xlink:href="#a"/><use x="721.481127" y="403.235721" xlink:href="#a"/><use x="721.497487" y="403.228473" xlink:href="#a"/><use x="721.497487" y="403.221226" xlink:href="#a"/><use x="721.578478" y="402.472892" xlink:href="#a"/><use x="721.578478" y="401.724558" xlink:href="#a"/><use x="721.672968" y="401.126615" xlink:href="#a"/><use x="721.672968" y="400.528673" xlink:href="#a"/><use x="722.865448" y="399.550221" xlink:href="#a"/><use x="722.865448" y="398.57177" xlink:href="#a"/><use x="722.962731" y="397.872358" xlink:href="#a"/><use x="722.962731" y="397.172947" xlink:href="#a"/><use x="722.975927" y="397.13852" xlink:href="#a"/><use x="722.975927" y="397.104093" xlink:href="#a"/><use x="724.914629" y="396.321332" xlink:href="#a"/><use x="724.914629" y="395.538571" xlink:href="#a"/><use x="725.013192" y="394.701451" xlink:href="#a"/><use x="725.013192" y="393.864332" xlink:href="#a"/><use x="727.197627" y="393.780982" xlink:href="#a"/><use x="727.197627" y="393.697633" xlink:href="#a"/><use x="728.968994" y="393.039896" xlink:href="#a"/><use x="728.968994" y="392.382159" xlink:href="#a"/><use x="729.11428" y="391.673688" xlink:href="#a"/><use x="729.11428" y="390.965217" xlink:href="#a"/><use x="729.260777" y="390.416197" xlink:href="#a"/><use x="729.260777" y="389.867177" xlink:href="#a"/><use x="730.542025" y="389.182261" xlink:href="#a"/><use x="730.542025" y="388.497345" xlink:href="#a"/><use x="730.638399" y="387.895779" xlink:href="#a"/><use x="730.638399" y="387.294212" xlink:href="#a"/><use x="733.111925" y="386.739757" xlink:href="#a"/><use x="733.111925" y="386.185301" xlink:href="#a"/><use x="733.440568" y="385.520316" xlink:href="#a"/><use x="733.440568" y="384.855332" xlink:href="#a"/><use x="734.822869" y="384.270073" xlink:href="#a"/><use x="734.822869" y="383.684814" xlink:href="#a"/><use x="735.823879" y="383.349604" xlink:href="#a"/><use x="735.823879" y="383.014394" xlink:href="#a"/><use x="736.172719" y="382.548723" xlink:href="#a"/><use x="736.172719" y="382.083053" xlink:href="#a"/><use x="737.875282" y="381.396325" xlink:href="#a"/><use x="737.875282" y="380.709597" xlink:href="#a"/><use x="738.396943" y="380.024681" xlink:href="#a"/><use x="738.396943" y="379.339765" xlink:href="#a"/><use x="739.650251" y="378.703772" xlink:href="#a"/><use x="739.650251" y="378.067779" xlink:href="#a"/><use x="740.221699" y="377.292265" xlink:href="#a"/><use x="740.221699" y="376.516752" xlink:href="#a"/><use x="740.270307" y="375.715872" xlink:href="#a"/><use x="740.270307" y="374.914991" xlink:href="#a"/><use x="740.322517" y="374.170281" xlink:href="#a"/><use x="740.322517" y="373.425571" xlink:href="#a"/><use x="740.372034" y="372.602947" xlink:href="#a"/><use x="740.372034" y="371.780323" xlink:href="#a"/><use x="740.420002" y="370.974007" xlink:href="#a"/><use x="740.420002" y="370.16769" xlink:href="#a"/><use x="742.079948" y="369.314263" xlink:href="#a"/><use x="742.079948" y="368.460836" xlink:href="#a"/><use x="742.175953" y="367.638212" xlink:href="#a"/><use x="742.175953" y="366.815588" xlink:href="#a"/><use x="742.223719" y="366.107117" xlink:href="#a"/><use x="742.223719" y="365.398646" xlink:href="#a"/><use x="742.32208" y="364.673867" xlink:href="#a"/><use x="742.32208" y="363.949088" xlink:href="#a"/><use x="744.941497" y="363.151832" xlink:href="#a"/><use x="744.941497" y="362.354575" xlink:href="#a"/><use x="745.038208" y="361.800119" xlink:href="#a"/><use x="745.038208" y="361.245664" xlink:href="#a"/><use x="745.135088" y="360.446595" xlink:href="#a"/><use x="745.135088" y="359.647527" xlink:href="#a"/><use x="748.221836" y="359.593168" xlink:href="#a"/><use x="748.221836" y="359.53881" xlink:href="#a"/><use x="748.225067" y="359.020593" xlink:href="#a"/><use x="748.225067" y="358.502376" xlink:href="#a"/><use x="748.701756" y="357.880878" xlink:href="#a"/><use x="748.701756" y="357.259381" xlink:href="#a"/><use x="750.903494" y="356.483867" xlink:href="#a"/><use x="750.903494" y="355.708354" xlink:href="#a"/><use x="750.998791" y="355.037934" xlink:href="#a"/><use x="750.998791" y="354.367513" xlink:href="#a"/><use x="751.095031" y="353.637299" xlink:href="#a"/><use x="751.095031" y="352.907084" xlink:href="#a"/><use x="753.190868" y="352.164186" xlink:href="#a"/><use x="753.190868" y="351.421288" xlink:href="#a"/><use x="753.285358" y="350.741808" xlink:href="#a"/><use x="753.285358" y="350.062327" xlink:href="#a"/><use x="753.383954" y="349.294062" xlink:href="#a"/><use x="753.383954" y="348.525796" xlink:href="#a"/><use x="755.599358" y="347.715856" xlink:href="#a"/><use x="755.599358" y="346.905916" xlink:href="#a"/><use x="759.623394" y="346.199257" xlink:href="#a"/><use x="759.623394" y="345.492597" xlink:href="#a"/><use x="775.345552" y="345.019679" xlink:href="#a"/><use x="775.345552" y="344.546761" xlink:href="#a"/><use x="781.115978" y="344.515958" xlink:href="#a"/><use x="781.115978" y="344.485155" xlink:href="#a"/><use x="781.405068" y="343.840102" xlink:href="#a"/><use x="781.405068" y="343.195049" xlink:href="#a"/><use x="783.024148" y="342.67502" xlink:href="#a"/><use x="783.024148" y="342.154991" xlink:href="#a"/><use x="784.546315" y="341.529869" xlink:href="#a"/><use x="784.546315" y="340.904748" xlink:href="#a"/><use x="791.556921" y="340.27419" xlink:href="#a"/><use x="791.556921" y="339.643633" xlink:href="#a"/><use x="794.511208" y="339.11998" xlink:href="#a"/><use x="794.511208" y="338.596327" xlink:href="#a"/><use x="800.528883" y="337.833498" xlink:href="#a"/><use x="800.528883" y="337.070668" xlink:href="#a"/><use x="800.623911" y="336.277035" xlink:href="#a"/><use x="800.623911" y="335.483403" xlink:href="#a"/><use x="800.721127" y="334.825666" xlink:href="#a"/><use x="800.721127" y="334.167929" xlink:href="#a"/><use x="801.468426" y="333.595354" xlink:href="#a"/><use x="801.468426" y="333.022779" xlink:href="#a"/><use x="805.388075" y="332.430272" xlink:href="#a"/><use x="805.388075" y="331.837765" xlink:href="#a"/><use x="809.667809" y="331.170969" xlink:href="#a"/><use x="809.667809" y="330.504173" xlink:href="#a"/><use x="815.387674" y="329.748591" xlink:href="#a"/><use x="815.387674" y="328.993009" xlink:href="#a"/><use x="817.162543" y="328.164949" xlink:href="#a"/><use x="817.162543" y="327.336889" xlink:href="#a"/><use x="817.257402" y="326.590367" xlink:href="#a"/><use x="817.257402" y="325.843845" xlink:href="#a"/><use x="817.352532" y="325.053836" xlink:href="#a"/><use x="817.352532" y="324.263827" xlink:href="#a"/><use x="818.424165" y="323.597031" xlink:href="#a"/><use x="818.424165" y="322.930235" xlink:href="#a"/><use x="820.353744" y="322.219951" xlink:href="#a"/><use x="820.353744" y="321.509668" xlink:href="#a"/><use x="820.401814" y="320.719659" xlink:href="#a"/><use x="820.401814" y="319.92965" xlink:href="#a"/><use x="820.500612" y="319.190376" xlink:href="#a"/><use x="820.500612" y="318.451102" xlink:href="#a"/><use x="823.824779" y="317.775246" xlink:href="#a"/><use x="823.824779" y="317.099389" xlink:href="#a"/><use x="824.787515" y="316.372799" xlink:href="#a"/><use x="824.787515" y="315.646208" xlink:href="#a"/><use x="824.882745" y="315.091752" xlink:href="#a"/><use x="824.882745" y="314.537296" xlink:href="#a"/><use x="824.979288" y="313.716485" xlink:href="#a"/><use x="824.979288" y="312.895673" xlink:href="#a"/><use x="825.075293" y="312.165458" xlink:href="#a"/><use x="825.075293" y="311.435243" xlink:href="#a"/><use x="827.20055" y="310.567321" xlink:href="#a"/><use x="827.20055" y="309.699398" xlink:href="#a"/><use x="827.391212" y="308.911201" xlink:href="#a"/><use x="827.391212" y="308.123004" xlink:href="#a"/><use x="827.584736" y="307.39279" xlink:href="#a"/><use x="827.584736" y="306.662575" xlink:href="#a"/><use x="828.257372" y="305.966788" xlink:href="#a"/><use x="828.257372" y="305.271" xlink:href="#a"/><use x="832.976126" y="304.638631" xlink:href="#a"/><use x="832.976126" y="304.006261" xlink:href="#a"/><use x="833.306621" y="303.388387" xlink:href="#a"/><use x="833.306621" y="302.770513" xlink:href="#a"/><use x="833.560332" y="302.087409" xlink:href="#a"/><use x="833.560332" y="301.404305" xlink:href="#a"/><use x="833.654048" y="300.607049" xlink:href="#a"/><use x="833.654048" y="299.809792" xlink:href="#a"/><use x="833.74884" y="298.936434" xlink:href="#a"/><use x="833.74884" y="298.063075" xlink:href="#a"/><use x="833.843835" y="297.352792" xlink:href="#a"/><use x="833.843835" y="296.642509" xlink:href="#a"/><use x="835.57676" y="295.803577" xlink:href="#a"/><use x="835.57676" y="294.964646" xlink:href="#a"/><use x="836.509941" y="294.274294" xlink:href="#a"/><use x="836.509941" y="293.583942" xlink:href="#a"/><use x="836.604935" y="292.870035" xlink:href="#a"/><use x="836.604935" y="292.156128" xlink:href="#a"/><use x="836.700132" y="291.556374" xlink:href="#a"/><use x="836.700132" y="290.956619" xlink:href="#a"/><use x="836.842859" y="290.403976" xlink:href="#a"/><use x="836.842859" y="289.851332" xlink:href="#a"/><use x="840.18103" y="289.171852" xlink:href="#a"/><use x="840.18103" y="288.492372" xlink:href="#a"/><use x="840.276832" y="287.771217" xlink:href="#a"/><use x="840.276832" y="287.050062" xlink:href="#a"/><use x="840.37223" y="286.267301" xlink:href="#a"/><use x="840.37223" y="285.48454" xlink:href="#a"/><use x="840.568783" y="284.683659" xlink:href="#a"/><use x="840.568783" y="283.882779" xlink:href="#a"/><use x="840.859355" y="283.127197" xlink:href="#a"/><use x="840.859355" y="282.371615" xlink:href="#a"/><use x="841.393067" y="281.57617" xlink:href="#a"/><use x="841.393067" y="280.780726" xlink:href="#a"/><use x="841.586052" y="279.994341" xlink:href="#a"/><use x="841.586052" y="279.207956" xlink:href="#a"/><use x="842.749684" y="278.450562" xlink:href="#a"/><use x="842.749684" y="277.693168" xlink:href="#a"/><use x="844.834109" y="276.903159" xlink:href="#a"/><use x="844.834109" y="276.11315" xlink:href="#a"/><use x="845.42461" y="275.243416" xlink:href="#a"/><use x="845.42461" y="274.373681" xlink:href="#a"/><use x="845.52186" y="273.628971" xlink:href="#a"/><use x="845.52186" y="272.884261" xlink:href="#a"/><use x="845.616282" y="272.074321" xlink:href="#a"/><use x="845.616282" y="271.264381" xlink:href="#a"/><use x="846.949537" y="270.492491" xlink:href="#a"/><use x="846.949537" y="269.720602" xlink:href="#a"/><use x="847.043454" y="268.934217" xlink:href="#a"/><use x="847.043454" y="268.147832" xlink:href="#a"/><use x="847.138483" y="267.388626" xlink:href="#a"/><use x="847.138483" y="266.62942" xlink:href="#a"/><use x="847.282321" y="265.924573" xlink:href="#a"/><use x="847.282321" y="265.219726" xlink:href="#a"/><use x="847.376272" y="264.556553" xlink:href="#a"/><use x="847.376272" y="263.893381" xlink:href="#a"/><use x="850.906384" y="263.14867" xlink:href="#a"/><use x="850.906384" y="262.40396" xlink:href="#a"/><use x="851.000671" y="261.615763" xlink:href="#a"/><use x="851.000671" y="260.827566" xlink:href="#a"/><use x="851.143668" y="260.102788" xlink:href="#a"/><use x="851.143668" y="259.378009" xlink:href="#a"/><use x="852.704277" y="258.65323" xlink:href="#a"/><use x="852.704277" y="257.928451" xlink:href="#a"/><use x="852.943311" y="257.248971" xlink:href="#a"/><use x="852.943311" y="256.569491" xlink:href="#a"/><use x="856.513515" y="256.487954" xlink:href="#a"/><use x="856.513515" y="256.406416" xlink:href="#a"/><use x="859.053489" y="255.652646" xlink:href="#a"/><use x="859.053489" y="254.898876" xlink:href="#a"/><use x="859.149998" y="254.155978" xlink:href="#a"/><use x="859.149998" y="253.41308" xlink:href="#a"/><use x="859.247147" y="252.652062" xlink:href="#a"/><use x="859.247147" y="251.891044" xlink:href="#a"/><use x="859.344801" y="251.217" xlink:href="#a"/><use x="859.344801" y="250.542956" xlink:href="#a"/><use x="860.713906" y="249.838108" xlink:href="#a"/><use x="860.713906" y="249.133261" xlink:href="#a"/><use x="864.478071" y="248.551626" xlink:href="#a"/><use x="864.478071" y="247.969991" xlink:href="#a"/><use x="864.916991" y="247.297759" xlink:href="#a"/><use x="864.916991" y="246.625527" xlink:href="#a"/><use x="865.013096" y="245.911619" xlink:href="#a"/><use x="865.013096" y="245.197712" xlink:href="#a"/><use x="865.107586" y="244.491053" xlink:href="#a"/><use x="865.107586" y="243.784394" xlink:href="#a"/><use x="867.622617" y="242.979889" xlink:href="#a"/><use x="867.622617" y="242.175385" xlink:href="#a"/><use x="867.671056" y="241.309274" xlink:href="#a"/><use x="867.671056" y="240.443164" xlink:href="#a"/><use x="867.721011" y="239.718385" xlink:href="#a"/><use x="867.721011" y="238.993606" xlink:href="#a"/><use x="867.769855" y="238.114812" xlink:href="#a"/><use x="867.769855" y="237.236018" xlink:href="#a"/><use x="867.815467" y="236.46594" xlink:href="#a"/><use x="867.815467" y="235.695863" xlink:href="#a"/><use x="868.678227" y="235.110604" xlink:href="#a"/><use x="868.678227" y="234.525345" xlink:href="#a"/><use x="868.919449" y="234.485482" xlink:href="#a"/><use x="868.919449" y="234.445619" xlink:href="#a"/><use x="870.780291" y="233.833181" xlink:href="#a"/><use x="870.780291" y="233.220743" xlink:href="#a"/><use x="870.87505" y="232.437982" xlink:href="#a"/><use x="870.87505" y="231.655221" xlink:href="#a"/><use x="870.97065" y="230.997485" xlink:href="#a"/><use x="870.97065" y="230.339748" xlink:href="#a"/><use x="871.06615" y="229.538867" xlink:href="#a"/><use x="871.06615" y="228.737987" xlink:href="#a"/><use x="871.207025" y="228.199838" xlink:href="#a"/><use x="871.207025" y="227.66169" xlink:href="#a"/><use x="872.972738" y="226.936912" xlink:href="#a"/><use x="872.972738" y="226.212133" xlink:href="#a"/><use x="873.070358" y="225.47467" xlink:href="#a"/><use x="873.070358" y="224.737208" xlink:href="#a"/><use x="873.164309" y="223.967131" xlink:href="#a"/><use x="873.164309" y="223.197053" xlink:href="#a"/><use x="876.787261" y="222.474086" xlink:href="#a"/><use x="876.787261" y="221.751119" xlink:href="#a"/><use x="876.884308" y="221.073451" xlink:href="#a"/><use x="876.884308" y="220.395783" xlink:href="#a"/><use x="876.979067" y="219.76885" xlink:href="#a"/><use x="876.979067" y="219.141916" xlink:href="#a"/><use x="879.492954" y="218.504111" xlink:href="#a"/><use x="879.492954" y="217.866305" xlink:href="#a"/><use x="880.882997" y="217.150586" xlink:href="#a"/><use x="880.882997" y="216.434867" xlink:href="#a"/><use x="880.980078" y="215.789814" xlink:href="#a"/><use x="880.980078" y="215.144761" xlink:href="#a"/><use x="881.12533" y="214.51058" xlink:href="#a"/><use x="881.12533" y="213.876398" xlink:href="#a"/><use x="883.604006" y="213.167927" xlink:href="#a"/><use x="883.604006" y="212.459456" xlink:href="#a"/><use x="883.700886" y="211.642268" xlink:href="#a"/><use x="883.700886" y="210.82508" xlink:href="#a"/><use x="883.799179" y="210.112985" xlink:href="#a"/><use x="883.799179" y="209.400889" xlink:href="#a"/><use x="885.458923" y="208.589137" xlink:href="#a"/><use x="885.458923" y="207.777385" xlink:href="#a"/><use x="885.553345" y="206.996436" xlink:href="#a"/><use x="885.553345" y="206.215487" xlink:href="#a"/><use x="885.649888" y="205.4744" xlink:href="#a"/><use x="885.649888" y="204.733314" xlink:href="#a"/><use x="888.884648" y="203.974108" xlink:href="#a"/><use x="888.884648" y="203.214903" xlink:href="#a"/><use x="889.432499" y="202.330673" xlink:href="#a"/><use x="889.432499" y="201.446442" xlink:href="#a"/><use x="889.628648" y="200.625631" xlink:href="#a"/><use x="889.628648" y="199.804819" xlink:href="#a"/><use x="889.866842" y="199.002126" xlink:href="#a"/><use x="889.866842" y="198.199434" xlink:href="#a"/><use x="894.286306" y="197.438416" xlink:href="#a"/><use x="894.286306" y="196.677398" xlink:href="#a"/><use x="897.533454" y="196.014226" xlink:href="#a"/><use x="897.533454" y="195.351053" xlink:href="#a"/><use x="898.791845" y="194.783914" xlink:href="#a"/><use x="898.791845" y="194.216774" xlink:href="#a"/><use x="899.378542" y="193.493808" xlink:href="#a"/><use x="899.378542" y="192.770841" xlink:href="#a"/><use x="899.475287" y="192.080489" xlink:href="#a"/><use x="899.475287" y="191.390137" xlink:href="#a"/><use x="903.287487" y="190.692538" xlink:href="#a"/><use x="903.287487" y="189.994938" xlink:href="#a"/><use x="903.382246" y="189.101648" xlink:href="#a"/><use x="903.382246" y="188.208358" xlink:href="#a"/><use x="903.526959" y="187.449153" xlink:href="#a"/><use x="903.526959" y="186.689947" xlink:href="#a"/><use x="903.620876" y="185.872759" xlink:href="#a"/><use x="903.620876" y="185.055571" xlink:href="#a"/><use x="905.869236" y="184.343476" xlink:href="#a"/><use x="905.869236" y="183.631381" xlink:href="#a"/><use x="906.938176" y="182.910226" xlink:href="#a"/><use x="906.938176" y="182.189071" xlink:href="#a"/><use x="916.486535" y="181.46248" xlink:href="#a"/><use x="916.486535" y="180.735889" xlink:href="#a"/><use x="925.50495" y="180.056409" xlink:href="#a"/><use x="925.50495" y="179.376929" xlink:href="#a"/><use x="925.983188" y="178.45646" xlink:href="#a"/><use x="925.983188" y="177.535991" xlink:href="#a"/><use x="926.271874" y="176.823896" xlink:href="#a"/><use x="926.271874" y="176.111801" xlink:href="#a"/><use x="929.03762" y="175.379774" xlink:href="#a"/><use x="929.03762" y="174.647748" xlink:href="#a"/><use x="937.232897" y="173.915721" xlink:href="#a"/><use x="937.232897" y="173.183695" xlink:href="#a"/><use x="938.296653" y="172.580316" xlink:href="#a"/><use x="938.296653" y="171.976938" xlink:href="#a"/><use x="940.430595" y="171.22498" xlink:href="#a"/><use x="940.430595" y="170.473022" xlink:href="#a"/><use x="941.155206" y="169.804414" xlink:href="#a"/><use x="941.155206" y="169.135805" xlink:href="#a"/><use x="941.494318" y="168.96367" xlink:href="#a"/><use x="941.494318" y="168.791535" xlink:href="#a"/><use x="943.00164" y="167.929049" xlink:href="#a"/><use x="943.00164" y="167.066562" xlink:href="#a"/><use x="943.286354" y="166.368962" xlink:href="#a"/><use x="943.286354" y="165.671363" xlink:href="#a"/><use x="947.12205" y="165.000942" xlink:href="#a"/><use x="947.12205" y="164.330522" xlink:href="#a"/><use x="949.153222" y="163.728956" xlink:href="#a"/><use x="949.153222" y="163.127389" xlink:href="#a"/><use x="949.298373" y="162.304765" xlink:href="#a"/><use x="949.298373" y="161.482142" xlink:href="#a"/><use x="949.445846" y="160.57798" xlink:href="#a"/><use x="949.445846" y="159.673819" xlink:href="#a"/><use x="950.950711" y="158.990715" xlink:href="#a"/><use x="950.950711" y="158.307611" xlink:href="#a"/><use x="955.119292" y="158.124604" xlink:href="#a"/><use x="955.119292" y="157.941597" xlink:href="#a"/><use x="957.882076" y="157.080923" xlink:href="#a"/><use x="957.882076" y="156.220248" xlink:href="#a"/><use x="960.790314" y="155.611434" xlink:href="#a"/><use x="960.790314" y="155.002619" xlink:href="#a"/><use x="963.211461" y="154.317704" xlink:href="#a"/><use x="963.211461" y="153.632788" xlink:href="#a"/><use x="963.598811" y="152.911633" xlink:href="#a"/><use x="963.598811" y="152.190478" xlink:href="#a"/><use x="963.940481" y="151.780978" xlink:href="#a"/><use x="963.940481" y="151.371478" xlink:href="#a"/><use x="969.852827" y="150.635827" xlink:href="#a"/><use x="969.852827" y="149.900177" xlink:href="#a"/><use x="970.044768" y="149.153655" xlink:href="#a"/><use x="970.044768" y="148.407133" xlink:href="#a"/><use x="970.238763" y="147.782011" xlink:href="#a"/><use x="970.238763" y="147.156889" xlink:href="#a"/><use x="978.096341" y="146.528144" xlink:href="#a"/><use x="978.096341" y="145.899398" xlink:href="#a"/><use x="981.921366" y="145.103954" xlink:href="#a"/><use x="981.921366" y="144.308509" xlink:href="#a"/><use x="982.356281" y="143.456894" xlink:href="#a"/><use x="982.356281" y="142.605279" xlink:href="#a"/><use x="984.540211" y="142.237454" xlink:href="#a"/><use x="984.540211" y="141.869628" xlink:href="#a"/><use x="985.752215" y="141.347788" xlink:href="#a"/><use x="985.752215" y="140.825947" xlink:href="#a"/><use x="986.673615" y="140.309542" xlink:href="#a"/><use x="986.673615" y="139.793137" xlink:href="#a"/><use x="996.269437" y="139.133588" xlink:href="#a"/><use x="996.269437" y="138.47404" xlink:href="#a"/><use x="996.899187" y="137.722082" xlink:href="#a"/><use x="996.899187" y="136.970124" xlink:href="#a"/><use x="1003.056458" y="136.254405" xlink:href="#a"/><use x="1003.056458" y="135.538686" xlink:href="#a"/><use x="1003.393753" y="134.886385" xlink:href="#a"/><use x="1003.393753" y="134.234084" xlink:href="#a"/><use x="1006.786826" y="133.509305" xlink:href="#a"/><use x="1006.786826" y="132.784527" xlink:href="#a"/><use x="1007.077801" y="132.003577" xlink:href="#a"/><use x="1007.077801" y="131.222628" xlink:href="#a"/><use x="1009.165559" y="130.755146" xlink:href="#a"/><use x="1009.165559" y="130.287664" xlink:href="#a"/><use x="1009.695232" y="129.983257" xlink:href="#a"/><use x="1009.695232" y="129.67885" xlink:href="#a"/><use x="1013.870007" y="128.812739" xlink:href="#a"/><use x="1013.870007" y="127.946628" xlink:href="#a"/><use x="1016.24056" y="127.185611" xlink:href="#a"/><use x="1016.24056" y="126.424593" xlink:href="#a"/><use x="1016.482557" y="125.712498" xlink:href="#a"/><use x="1016.482557" y="125.000403" xlink:href="#a"/><use x="1016.967123" y="124.253881" xlink:href="#a"/><use x="1016.967123" y="123.507358" xlink:href="#a"/><use x="1021.572133" y="122.695606" xlink:href="#a"/><use x="1021.572133" y="121.883854" xlink:href="#a"/><use x="1022.063802" y="120.938018" xlink:href="#a"/><use x="1022.063802" y="119.992181" xlink:href="#a"/><use x="1022.735866" y="119.338069" xlink:href="#a"/><use x="1022.735866" y="118.683956" xlink:href="#a"/><use x="1024.726273" y="117.99904" xlink:href="#a"/><use x="1024.726273" y="117.314124" xlink:href="#a"/><use x="1027.049228" y="116.594781" xlink:href="#a"/><use x="1027.049228" y="115.875438" xlink:href="#a"/><use x="1028.4559" y="115.125292" xlink:href="#a"/><use x="1028.4559" y="114.375146" xlink:href="#a"/><use x="1031.469029" y="113.47642" xlink:href="#a"/><use x="1031.469029" y="112.577695" xlink:href="#a"/><use x="1037.188457" y="111.691653" xlink:href="#a"/><use x="1037.188457" y="110.805611" xlink:href="#a"/><use x="1042.076734" y="110.071772" xlink:href="#a"/><use x="1042.076734" y="109.337934" xlink:href="#a"/><use x="1042.415442" y="108.593223" xlink:href="#a"/><use x="1042.415442" y="107.848513" xlink:href="#a"/><use x="1042.899773" y="107.132794" xlink:href="#a"/><use x="1042.899773" y="106.417075" xlink:href="#a"/><use x="1045.380165" y="105.737595" xlink:href="#a"/><use x="1045.380165" y="105.058115" xlink:href="#a"/><use x="1049.445504" y="104.333336" xlink:href="#a"/><use x="1049.445504" y="103.608558" xlink:href="#a"/><use x="1051.6737" y="102.833044" xlink:href="#a"/><use x="1051.6737" y="102.057531" xlink:href="#a"/><use x="1051.916135" y="101.316445" xlink:href="#a"/><use x="1051.916135" y="100.575358" xlink:href="#a"/><use x="1052.255382" y="99.772666" xlink:href="#a"/><use x="1052.255382" y="98.969973" xlink:href="#a"/><use x="1053.612672" y="98.236135" xlink:href="#a"/><use x="1053.612672" y="97.502296" xlink:href="#a"/><use x="1053.952894" y="96.786577" xlink:href="#a"/><use x="1053.952894" y="96.070858" xlink:href="#a"/><use x="1054.436518" y="95.407686" xlink:href="#a"/><use x="1054.436518" y="94.744513" xlink:href="#a"/><use x="1056.56945" y="93.921889" xlink:href="#a"/><use x="1056.56945" y="93.099265" xlink:href="#a"/><use x="1056.811716" y="92.327376" xlink:href="#a"/><use x="1056.811716" y="91.555487" xlink:href="#a"/><use x="1057.055127" y="90.863323" xlink:href="#a"/><use x="1057.055127" y="90.171159" xlink:href="#a"/><use x="1064.470553" y="89.498927" xlink:href="#a"/><use x="1064.470553" y="88.826695" xlink:href="#a"/><use x="1064.712247" y="88.163522" xlink:href="#a"/><use x="1064.712247" y="87.50035" xlink:href="#a"/><use x="1065.439315" y="86.842613" xlink:href="#a"/><use x="1065.439315" y="86.184876" xlink:href="#a"/><use x="1065.681716" y="85.581498" xlink:href="#a"/><use x="1065.681716" y="84.978119" xlink:href="#a"/><use x="1071.506102" y="84.925573" xlink:href="#a"/><use x="1071.506102" y="84.873027" xlink:href="#a"/><use x="1071.507819" y="84.182675" xlink:href="#a"/><use x="1071.507819" y="83.492323" xlink:href="#a"/><use x="1074.892006" y="82.720434" xlink:href="#a"/><use x="1074.892006" y="81.948544" xlink:href="#a"/><use x="1075.13747" y="81.359662" xlink:href="#a"/><use x="1075.13747" y="80.770779" xlink:href="#a"/><use x="1076.442583" y="79.978958" xlink:href="#a"/><use x="1076.442583" y="79.187137" xlink:href="#a"/><use x="1076.686028" y="78.420684" xlink:href="#a"/><use x="1076.686028" y="77.65423" xlink:href="#a"/><use x="1077.077047" y="76.904084" xlink:href="#a"/><use x="1077.077047" y="76.153938" xlink:href="#a"/><use x="1080.987776" y="75.300511" xlink:href="#a"/><use x="1080.987776" y="74.447084" xlink:href="#a"/><use x="1081.679835" y="73.646204" xlink:href="#a"/><use x="1081.679835" y="72.845323" xlink:href="#a"/><use x="1081.872753" y="72.129604" xlink:href="#a"/><use x="1081.872753" y="71.413885" xlink:href="#a"/><use x="1082.115457" y="70.667363" xlink:href="#a"/><use x="1082.115457" y="69.920841" xlink:href="#a"/><use x="1082.528356" y="69.18519" xlink:href="#a"/><use x="1082.528356" y="68.44954" xlink:href="#a"/><use x="1084.807517" y="67.806299" xlink:href="#a"/><use x="1084.807517" y="67.163058" xlink:href="#a"/><use x="1085.513478" y="66.240777" xlink:href="#a"/><use x="1085.513478" y="65.318496" xlink:href="#a"/><use x="1085.804992" y="64.468692" xlink:href="#a"/><use x="1085.804992" y="63.618889" xlink:href="#a"/><use x="1085.944993" y="62.821633" xlink:href="#a"/><use x="1085.944993" y="62.024376" xlink:href="#a"/><use x="1088.657553" y="61.326777" xlink:href="#a"/><use x="1088.657553" y="60.629177" xlink:href="#a"/><use x="1089.869961" y="59.90621" xlink:href="#a"/><use x="1089.869961" y="59.183243" xlink:href="#a"/><use x="1091.032516" y="58.511011" xlink:href="#a"/><use x="1091.032516" y="57.838779" xlink:href="#a"/><use x="1092.1981" y="57.001659" xlink:href="#a"/><use x="1092.1981" y="56.16454" xlink:href="#a"/><use x="1094.864644" y="55.40171" xlink:href="#a"/><use x="1094.864644" y="54.638881" xlink:href="#a"/><use x="1095.253105" y="53.872427" xlink:href="#a"/><use x="1095.253105" y="53.105973" xlink:href="#a"/><use x="1096.517723" y="52.323212" xlink:href="#a"/><use x="1096.517723" y="51.540451" xlink:href="#a"/><use x="1097.002558" y="50.650785" xlink:href="#a"/><use x="1097.002558" y="49.761119" xlink:href="#a"/><use x="1101.073923" y="48.924" xlink:href="#a"/><use x="1101.073923" y="48.086881" xlink:href="#a"/><use x="1102.381023" y="47.608527" xlink:href="#a"/><use x="1102.381023" y="47.130173" xlink:href="#a"/><use x="1103.101796" y="46.465188" xlink:href="#a"/><use x="1103.101796" y="45.800204" xlink:href="#a"/><use x="1103.155621" y="44.908726" xlink:href="#a"/><use x="1103.155621" y="44.017248" xlink:href="#a"/><use x="1103.867575" y="43.560637" xlink:href="#a"/><use x="1103.867575" y="43.104027" xlink:href="#a"/><use x="1106.744709" y="42.30677" xlink:href="#a"/><use x="1106.744709" y="41.509513" xlink:href="#a"/><use x="1106.819776" y="40.904323" xlink:href="#a"/><use x="1106.819776" y="40.299133" xlink:href="#a"/><use x="1106.841824" y="39.527243" xlink:href="#a"/><use x="1106.841824" y="38.755354" xlink:href="#a"/><use x="1107.613259" y="37.970781" xlink:href="#a"/><use x="1107.613259" y="37.186208" xlink:href="#a"/><use x="1108.174272" y="37.084739" xlink:href="#a"/><use x="1108.174272" y="36.98327" xlink:href="#a"/><use x="1108.536375" y="36.193261" xlink:href="#a"/><use x="1108.536375" y="35.403252" xlink:href="#a"/><use x="1109.941734" y="34.577004" xlink:href="#a"/><use x="1109.941734" y="33.750757" xlink:href="#a"/></g><path d="m55.296 609.12v-589.68" fill="none" stroke="#000" stroke-linecap="square" stroke-width=".8"/><path d="m1140.5 609.12v-589.68" fill="none" stroke="#000" stroke-linecap="square" stroke-width=".8"/><path d="m55.296 609.12h1085.2" fill="none" stroke="#000" stroke-linecap="square" stroke-width=".8"/><path d="m55.296 19.44h1085.2" fill="none" stroke="#000" stroke-linecap="square" stroke-width=".8"/><g transform="translate(365.1 13.44) scale(.12 -.12)"><defs><path id="am" transform="scale(.015625)" d="m4184 4666v-4666h-631v4134h-2294v-4134h-631v4666h3556z"/><path id="aj" transform="scale(.015625)" d="m684 794h660v-794h-660v794z"/><path id="y" transform="scale(.015625)" d="m1156 1613v-1154h819q394 0 600 148 206 149 206 431 0 281-206 428t-600 147h-819zm0 1428v-969h757q325 0 531 129 206 130 206 362 0 231-206 354-206 124-531 124h-757zm-575 459h1369q616 0 947-225t331-641q0-321-169-511-168-189-500-235 397-75 616-313 219-237 219-594 0-468-361-725-361-256-1030-256h-1422v3500z"/><path id="ac" transform="scale(.015625)" d="m3513 3500-1266-1703 1331-1797h-678l-1019 1375-1018-1375h-679l1360 1831-1244 1669h678l928-1247 928 1247h679z"/><path id="ak" transform="scale(.015625)" d="m1284 3322q0-409 233-620t689-211h982v1656h-982q-456 0-689-208t-233-617zm-859-3322 1275 2041q-312 81-712 345t-400 936q0 644 406 994t1212 350h1613v-4666h-631v1972h-844l-1231-1972h-688z"/><path id="ao" transform="scale(.015625)" d="m2597 2516q453-97 707-404 255-306 255-756 0-690-475-1069-475-378-1350-378-293 0-604 58t-642 174v609q262-153 574-231 313-78 654-78 593 0 904 234t311 681q0 413-289 645-289 233-804 233h-544v519h569q465 0 712 186t247 536q0 359-255 551-254 193-729 193-260 0-557-57-297-56-653-174v562q360 100 674 150t592 50q719 0 1137-327 419-326 419-882 0-388-222-655t-631-370z"/></defs><use xlink:href="#am"/><use x="75.195312" xlink:href="#j"/><use x="136.376953" xlink:href="#p"/><use x="200.292969" xlink:href="#o"/><use x="265.673828" xlink:href="#l"/><use x="326.953125" xlink:href="#s"/><use x="387.109375" xlink:href="#DejaVuSans-20"/><use x="418.896484" xlink:href="#q"/><use x="488.037109" xlink:href="#p"/><use x="551.953125" xlink:href="#w"/><use x="616.943359" xlink:href="#k"/><use x="675.195312" xlink:href="#x"/><use x="736.71875" xlink:href="#p"/><use x="800.634766" xlink:href="#n"/><use x="859.570312" xlink:href="#o"/><use x="924.951172" xlink:href="#j"/><use x="986.132812" xlink:href="#r"/><use x="1041.113281" xlink:href="#k"/><use x="1099.365234" xlink:href="#n"/><use x="1158.300781" xlink:href="#DejaVuSans-20"/><use x="1190.087891" xlink:href="#z"/><use x="1258.691406" xlink:href="#af"/><use x="1329.6875" xlink:href="#ag"/><use x="1407.8125" xlink:href="#aa"/><use x="1439.599609" xlink:href="#DejaVuSans-20"/><use x="1471.386719" xlink:href="#i"/><use x="1535.009766" xlink:href="#f"/><use x="1598.632812" xlink:href="#g"/><use x="1662.255859" xlink:href="#aj"/><use x="1694.042969" xlink:href="#h"/><use x="1757.666016" xlink:href="#DejaVuSans-20"/><use x="1789.453125" xlink:href="#r"/><use x="1844.433594" xlink:href="#t"/><use x="1903.613281" xlink:href="#k"/><use x="1961.865234" xlink:href="#j"/><use x="2023.046875" xlink:href="#ad"/><use x="2083.447266" xlink:href="#DejaVuSans-20"/><use x="2115.234375" xlink:href="#y"/><use x="2174.169922" xlink:href="#DejaVuSans-20"/><use x="2205.957031" xlink:href="#g"/><use x="2269.580078" xlink:href="#h"/><use x="2333.203125" xlink:href="#h"/><use x="2396.826172" xlink:href="#DejaVuSans-20"/><use x="2428.613281" xlink:href="#y"/><use x="2487.548828" xlink:href="#ab"/><use x="2566.503906" xlink:href="#ac"/><use x="2625.683594" xlink:href="#j"/><use x="2686.865234" xlink:href="#q"/><use x="2756.005859" xlink:href="#l"/><use x="2817.285156" xlink:href="#ac"/><use x="2876.464844" xlink:href="#aj"/><use x="2908.251953" xlink:href="#DejaVuSans-20"/><use x="2940.039062" xlink:href="#ak"/><use x="3009.521484" xlink:href="#o"/><use x="3074.902344" xlink:href="#y"/><use x="3133.837891" xlink:href="#l"/><use x="3195.117188" xlink:href="#u"/><use x="3258.59375" xlink:href="#n"/><use x="3317.529297" xlink:href="#DejaVuSans-20"/><use x="3349.316406" xlink:href="#i"/><use x="3412.939453" xlink:href="#c"/><use x="3476.5625" xlink:href="#i"/><use x="3540.185547" xlink:href="#ao"/><use x="3603.808594" xlink:href="#DejaVuSans-20"/><use x="3635.595703" xlink:href="#ae"/><use x="3688.134766" xlink:href="#j"/><use x="3749.316406" xlink:href="#q"/><use x="3818.457031" xlink:href="#l"/></g><defs><clipPath id="d"><rect x="55.296" y="19.44" width="1085.2" height="589.68"/></clipPath></defs></svg>
