<?xml version="1.0" encoding="UTF-8"?>
<!DOCTYPE svg  PUBLIC '-//W3C//DTD SVG 1.1//EN'  'http://www.w3.org/Graphics/SVG/1.1/DTD/svg11.dtd'>
<svg width="1152pt" height="648pt" version="1.1" viewBox="0 0 1152 648" xmlns="http://www.w3.org/2000/svg" xmlns:xlink="http://www.w3.org/1999/xlink"><defs><style type="text/css">*{stroke-linejoin: round; stroke-linecap: butt}</style></defs><path d="m0 648h1152v-648h-1152z" fill="#fff"/><path d="m55.296 609.12h1085.2v-589.68h-1085.2z" fill="#fff"/><path d="m82.133 609.12v-589.68" clip-path="url(#c)" fill="none" stroke="#b0b0b0" stroke-dasharray="0.8,1.32" stroke-width=".8"/><defs><path id="e" d="m0 0v3.5" stroke="#000" stroke-width=".8"/></defs><use x="82.133184" y="609.12" stroke="#000000" stroke-width=".8" xlink:href="#e"/><g transform="translate(69.408 623.72) scale(.1 -.1)"><defs><path id="h" transform="scale(.015625)" d="m794 531h1031v3560l-1122-225v575l1116 225h631v-4135h1031v-531h-2687v531z"/><path id="f" transform="scale(.015625)" d="m703 97v575q238-113 481-172 244-59 479-59 625 0 954 420 330 420 377 1277-181-269-460-413-278-144-615-144-700 0-1108 423-408 424-408 1159 0 718 425 1152 425 435 1131 435 810 0 1236-621 427-620 427-1801 0-1103-524-1761-523-658-1407-658-238 0-482 47-243 47-506 141zm1256 1978q425 0 673 290 249 291 249 798 0 503-249 795-248 292-673 292t-673-292-248-795q0-507 248-798 248-290 673-290z"/><path id="ac" transform="scale(.015625)" d="m2113 2584q-425 0-674-291-248-290-248-796 0-503 248-796 249-292 674-292t673 292q248 293 248 796 0 506-248 796-248 291-673 291zm1253 1979v-575q-238 112-480 171-242 60-480 60-625 0-955-422-329-422-376-1275 184 272 462 417 279 145 613 145 703 0 1111-427 408-426 408-1160 0-719-425-1154-425-434-1131-434-810 0-1238 620-428 621-428 1799 0 1106 525 1764t1409 658q238 0 480-47t505-140z"/><path id="i" transform="scale(.015625)" d="m691 4666h2478v-532h-1900v-1143q137 47 274 70 138 23 276 23 781 0 1237-428 457-428 457-1159 0-753-469-1171-469-417-1322-417-294 0-599 50-304 50-629 150v635q281-153 581-228t634-75q541 0 856 284 316 284 316 772 0 487-316 771-315 285-856 285-253 0-505-56-251-56-513-175v2344z"/></defs><use xlink:href="#h"/><use x="63.623047" xlink:href="#f"/><use x="127.246094" xlink:href="#ac"/><use x="190.869141" xlink:href="#i"/></g><path d="m170.65 609.12v-589.68" clip-path="url(#c)" fill="none" stroke="#b0b0b0" stroke-dasharray="0.8,1.32" stroke-width=".8"/><use x="170.645681" y="609.12" stroke="#000000" stroke-width=".8" xlink:href="#e"/><g transform="translate(157.92 623.72) scale(.1 -.1)"><defs><path id="ab" transform="scale(.015625)" d="m525 4666h3e3v-269l-1694-4397h-659l1594 4134h-2241v532z"/><path id="d" transform="scale(.015625)" d="m2034 4250q-487 0-733-480-245-479-245-1442 0-959 245-1439 246-480 733-480 491 0 736 480 246 480 246 1439 0 963-246 1442-245 480-736 480zm0 500q785 0 1199-621 414-620 414-1801 0-1178-414-1799-414-620-1199-620-784 0-1198 620-414 621-414 1799 0 1181 414 1801 414 621 1198 621z"/></defs><use xlink:href="#h"/><use x="63.623047" xlink:href="#f"/><use x="127.246094" xlink:href="#ab"/><use x="190.869141" xlink:href="#d"/></g><path d="m259.16 609.12v-589.68" clip-path="url(#c)" fill="none" stroke="#b0b0b0" stroke-dasharray="0.8,1.32" stroke-width=".8"/><use x="259.158178" y="609.12" stroke="#000000" stroke-width=".8" xlink:href="#e"/><g transform="translate(246.43 623.72) scale(.1 -.1)"><use xlink:href="#h"/><use x="63.623047" xlink:href="#f"/><use x="127.246094" xlink:href="#ab"/><use x="190.869141" xlink:href="#i"/></g><path d="m347.67 609.12v-589.68" clip-path="url(#c)" fill="none" stroke="#b0b0b0" stroke-dasharray="0.8,1.32" stroke-width=".8"/><use x="347.670674" y="609.12" stroke="#000000" stroke-width=".8" xlink:href="#e"/><g transform="translate(334.95 623.72) scale(.1 -.1)"><defs><path id="y" transform="scale(.015625)" d="m2034 2216q-450 0-708-241-257-241-257-662 0-422 257-663 258-241 708-241t709 242q260 243 260 662 0 421-258 662-257 241-711 241zm-631 268q-406 100-633 378-226 279-226 679 0 559 398 884 399 325 1092 325 697 0 1094-325t397-884q0-400-227-679-226-278-629-378 456-106 710-416 255-309 255-755 0-679-414-1042-414-362-1186-362-771 0-1186 362-414 363-414 1042 0 446 256 755 257 310 713 416zm-231 997q0-362 226-565 227-203 636-203 407 0 636 203 230 203 230 565 0 363-230 566-229 203-636 203-409 0-636-203-226-203-226-566z"/></defs><use xlink:href="#h"/><use x="63.623047" xlink:href="#f"/><use x="127.246094" xlink:href="#y"/><use x="190.869141" xlink:href="#d"/></g><path d="m436.23 609.12v-589.68" clip-path="url(#c)" fill="none" stroke="#b0b0b0" stroke-dasharray="0.8,1.32" stroke-width=".8"/><use x="436.231644" y="609.12" stroke="#000000" stroke-width=".8" xlink:href="#e"/><g transform="translate(423.51 623.72) scale(.1 -.1)"><use xlink:href="#h"/><use x="63.623047" xlink:href="#f"/><use x="127.246094" xlink:href="#y"/><use x="190.869141" xlink:href="#i"/></g><path d="m524.74 609.12v-589.68" clip-path="url(#c)" fill="none" stroke="#b0b0b0" stroke-dasharray="0.8,1.32" stroke-width=".8"/><use x="524.744141" y="609.12" stroke="#000000" stroke-width=".8" xlink:href="#e"/><g transform="translate(512.02 623.72) scale(.1 -.1)"><use xlink:href="#h"/><use x="63.623047" xlink:href="#f"/><use x="127.246094" xlink:href="#f"/><use x="190.869141" xlink:href="#d"/></g><path d="m613.26 609.12v-589.68" clip-path="url(#c)" fill="none" stroke="#b0b0b0" stroke-dasharray="0.8,1.32" stroke-width=".8"/><use x="613.256638" y="609.12" stroke="#000000" stroke-width=".8" xlink:href="#e"/><g transform="translate(600.53 623.72) scale(.1 -.1)"><use xlink:href="#h"/><use x="63.623047" xlink:href="#f"/><use x="127.246094" xlink:href="#f"/><use x="190.869141" xlink:href="#i"/></g><path d="m701.77 609.12v-589.68" clip-path="url(#c)" fill="none" stroke="#b0b0b0" stroke-dasharray="0.8,1.32" stroke-width=".8"/><use x="701.769135" y="609.12" stroke="#000000" stroke-width=".8" xlink:href="#e"/><g transform="translate(689.04 623.72) scale(.1 -.1)"><defs><path id="g" transform="scale(.015625)" d="m1228 531h2203v-531h-2962v531q359 372 979 998 621 627 780 809 303 340 423 576 121 236 121 464 0 372-261 606-261 235-680 235-297 0-627-103-329-103-704-313v638q381 153 712 231 332 78 607 78 725 0 1156-363 431-362 431-968 0-288-108-546-107-257-392-607-78-91-497-524-418-433-1181-1211z"/></defs><use xlink:href="#g"/><use x="63.623047" xlink:href="#d"/><use x="127.246094" xlink:href="#d"/><use x="190.869141" xlink:href="#d"/></g><path d="m790.33 609.12v-589.68" clip-path="url(#c)" fill="none" stroke="#b0b0b0" stroke-dasharray="0.8,1.32" stroke-width=".8"/><use x="790.330105" y="609.12" stroke="#000000" stroke-width=".8" xlink:href="#e"/><g transform="translate(777.61 623.72) scale(.1 -.1)"><use xlink:href="#g"/><use x="63.623047" xlink:href="#d"/><use x="127.246094" xlink:href="#d"/><use x="190.869141" xlink:href="#i"/></g><path d="m878.84 609.12v-589.68" clip-path="url(#c)" fill="none" stroke="#b0b0b0" stroke-dasharray="0.8,1.32" stroke-width=".8"/><use x="878.842602" y="609.12" stroke="#000000" stroke-width=".8" xlink:href="#e"/><g transform="translate(866.12 623.72) scale(.1 -.1)"><use xlink:href="#g"/><use x="63.623047" xlink:href="#d"/><use x="127.246094" xlink:href="#h"/><use x="190.869141" xlink:href="#d"/></g><path d="m967.36 609.12v-589.68" clip-path="url(#c)" fill="none" stroke="#b0b0b0" stroke-dasharray="0.8,1.32" stroke-width=".8"/><use x="967.355098" y="609.12" stroke="#000000" stroke-width=".8" xlink:href="#e"/><g transform="translate(954.63 623.72) scale(.1 -.1)"><use xlink:href="#g"/><use x="63.623047" xlink:href="#d"/><use x="127.246094" xlink:href="#h"/><use x="190.869141" xlink:href="#i"/></g><path d="m1055.9 609.12v-589.68" clip-path="url(#c)" fill="none" stroke="#b0b0b0" stroke-dasharray="0.8,1.32" stroke-width=".8"/><use x="1055.867595" y="609.12" stroke="#000000" stroke-width=".8" xlink:href="#e"/><g transform="translate(1043.1 623.72) scale(.1 -.1)"><use xlink:href="#g"/><use x="63.623047" xlink:href="#d"/><use x="127.246094" xlink:href="#g"/><use x="190.869141" xlink:href="#d"/></g><defs><path id="b" d="m0 0v2" stroke="#000" stroke-width=".6"/></defs><use x="64.391906" y="609.12" stroke="#000000" stroke-width=".6" xlink:href="#b"/><use x="99.825989" y="609.12" stroke="#000000" stroke-width=".6" xlink:href="#b"/><use x="117.518793" y="609.12" stroke="#000000" stroke-width=".6" xlink:href="#b"/><use x="135.211598" y="609.12" stroke="#000000" stroke-width=".6" xlink:href="#b"/><use x="152.952876" y="609.12" stroke="#000000" stroke-width=".6" xlink:href="#b"/><use x="188.338485" y="609.12" stroke="#000000" stroke-width=".6" xlink:href="#b"/><use x="206.03129" y="609.12" stroke="#000000" stroke-width=".6" xlink:href="#b"/><use x="223.772568" y="609.12" stroke="#000000" stroke-width=".6" xlink:href="#b"/><use x="241.465373" y="609.12" stroke="#000000" stroke-width=".6" xlink:href="#b"/><use x="276.850982" y="609.12" stroke="#000000" stroke-width=".6" xlink:href="#b"/><use x="294.59226" y="609.12" stroke="#000000" stroke-width=".6" xlink:href="#b"/><use x="312.285065" y="609.12" stroke="#000000" stroke-width=".6" xlink:href="#b"/><use x="329.97787" y="609.12" stroke="#000000" stroke-width=".6" xlink:href="#b"/><use x="365.411952" y="609.12" stroke="#000000" stroke-width=".6" xlink:href="#b"/><use x="383.104757" y="609.12" stroke="#000000" stroke-width=".6" xlink:href="#b"/><use x="400.797562" y="609.12" stroke="#000000" stroke-width=".6" xlink:href="#b"/><use x="418.490366" y="609.12" stroke="#000000" stroke-width=".6" xlink:href="#b"/><use x="453.924449" y="609.12" stroke="#000000" stroke-width=".6" xlink:href="#b"/><use x="471.617254" y="609.12" stroke="#000000" stroke-width=".6" xlink:href="#b"/><use x="489.310058" y="609.12" stroke="#000000" stroke-width=".6" xlink:href="#b"/><use x="507.051337" y="609.12" stroke="#000000" stroke-width=".6" xlink:href="#b"/><use x="542.436946" y="609.12" stroke="#000000" stroke-width=".6" xlink:href="#b"/><use x="560.129751" y="609.12" stroke="#000000" stroke-width=".6" xlink:href="#b"/><use x="577.871029" y="609.12" stroke="#000000" stroke-width=".6" xlink:href="#b"/><use x="595.563833" y="609.12" stroke="#000000" stroke-width=".6" xlink:href="#b"/><use x="630.949443" y="609.12" stroke="#000000" stroke-width=".6" xlink:href="#b"/><use x="648.690721" y="609.12" stroke="#000000" stroke-width=".6" xlink:href="#b"/><use x="666.383525" y="609.12" stroke="#000000" stroke-width=".6" xlink:href="#b"/><use x="684.07633" y="609.12" stroke="#000000" stroke-width=".6" xlink:href="#b"/><use x="719.510413" y="609.12" stroke="#000000" stroke-width=".6" xlink:href="#b"/><use x="737.203218" y="609.12" stroke="#000000" stroke-width=".6" xlink:href="#b"/><use x="754.896022" y="609.12" stroke="#000000" stroke-width=".6" xlink:href="#b"/><use x="772.588827" y="609.12" stroke="#000000" stroke-width=".6" xlink:href="#b"/><use x="808.02291" y="609.12" stroke="#000000" stroke-width=".6" xlink:href="#b"/><use x="825.715714" y="609.12" stroke="#000000" stroke-width=".6" xlink:href="#b"/><use x="843.408519" y="609.12" stroke="#000000" stroke-width=".6" xlink:href="#b"/><use x="861.149797" y="609.12" stroke="#000000" stroke-width=".6" xlink:href="#b"/><use x="896.535406" y="609.12" stroke="#000000" stroke-width=".6" xlink:href="#b"/><use x="914.228211" y="609.12" stroke="#000000" stroke-width=".6" xlink:href="#b"/><use x="931.969489" y="609.12" stroke="#000000" stroke-width=".6" xlink:href="#b"/><use x="949.662294" y="609.12" stroke="#000000" stroke-width=".6" xlink:href="#b"/><use x="985.047903" y="609.12" stroke="#000000" stroke-width=".6" xlink:href="#b"/><use x="1002.789181" y="609.12" stroke="#000000" stroke-width=".6" xlink:href="#b"/><use x="1020.481986" y="609.12" stroke="#000000" stroke-width=".6" xlink:href="#b"/><use x="1038.174791" y="609.12" stroke="#000000" stroke-width=".6" xlink:href="#b"/><use x="1073.608873" y="609.12" stroke="#000000" stroke-width=".6" xlink:href="#b"/><use x="1091.301678" y="609.12" stroke="#000000" stroke-width=".6" xlink:href="#b"/><use x="1108.994483" y="609.12" stroke="#000000" stroke-width=".6" xlink:href="#b"/><use x="1126.687287" y="609.12" stroke="#000000" stroke-width=".6" xlink:href="#b"/><g transform="translate(552.07 640.44) scale(.14 -.14)"><defs><path id="m" transform="scale(.015625)" d="m1259 2228v-1709h1013q509 0 754 211 246 211 246 645 0 438-246 645-245 208-754 208h-1013zm0 1919v-1406h935q462 0 688 173 227 174 227 530 0 353-227 528-226 175-688 175h-935zm-631 519h1613q722 0 1112-300 391-300 391-853 0-429-200-682t-588-315q466-100 724-418 258-317 258-792 0-625-425-966-425-340-1210-340h-1675v4666z"/><path id="t" transform="scale(.015625)" d="m1159 525v-1856h-578v4831h578v-531q182 312 458 463 277 152 661 152 638 0 1036-506 399-506 399-1331t-399-1332q-398-506-1036-506-384 0-661 152-276 152-458 464zm1957 1222q0 634-261 995t-717 361q-457 0-718-361t-261-995 261-995 718-361q456 0 717 361t261 995z"/><path id="k" transform="scale(.015625)" d="m3597 1894v-281h-2644q38-594 358-905t892-311q331 0 642 81t618 244v-544q-310-131-635-200t-659-69q-838 0-1327 487-489 488-489 1320 0 859 464 1363 464 505 1252 505 706 0 1117-455 411-454 411-1235zm-575 169q-6 471-264 752-258 282-683 282-481 0-770-272t-333-766l2050 4z"/><path id="ag" transform="scale(.015625)" d="m581 3500h841l994-2344 997 2344h834v-3500h-578v2950l-966-2278h-575l-969 2278v-2950h-578v3500z"/><path id="q" transform="scale(.015625)" d="m1181 2491q0-260 200-407 200-146 572-146h775v1103h-775q-372 0-572-144t-200-406zm-818-2491 1068 1534q-362 82-603 296-240 214-240 661 0 506 335 757 336 252 1015 252h1368v-3500h-578v1478h-715l-1032-1478h-618z"/><path id="an" transform="scale(.015625)" d="m750 794h659v-538l-512-1e3h-403l256 1e3v538z"/><path id="w" transform="scale(.015625)" d="m581 0v3500h2469v-459h-1891v-3041h-578z"/><path id="j" transform="scale(.015625)" d="m1959 3097q-462 0-731-361t-269-989 267-989q268-361 733-361 460 0 728 362 269 363 269 988 0 622-269 986-268 364-728 364zm0 487q750 0 1178-488 429-487 429-1349 0-859-429-1349-428-489-1178-489-753 0-1180 489-426 490-426 1349 0 862 426 1349 427 488 1180 488z"/><path id="v" transform="scale(.015625)" d="m1384 459h1669v2582h-1209v-438q0-1287-369-1975l-91-169zm-834 0q284 125 409 391 307 659 307 1988v662h2365v-3041h460v-1343h-460v884h-2837v-884h-460v1343h216z"/><path id="ae" transform="scale(.015625)" d="m3907 3500h575v-3500h-575v3500zm288 84zm-1414-2546q0 281-205 428-204 147-598 147h-819v-1154h819q394 0 598 148 205 149 205 431zm-2200 2462h578v-1428h844q669 0 1030-255 361-254 361-779t-361-782q-361-256-1030-256h-1422v3500z"/></defs><use xlink:href="#m"/><use x="68.603516" xlink:href="#t"/><use x="132.080078" xlink:href="#k"/><use x="193.603516" xlink:href="#ag"/><use x="269.042969" xlink:href="#q"/><use x="329.199219" xlink:href="#an"/><use x="360.986328" xlink:href="#DejaVuSans-20"/><use x="392.773438" xlink:href="#w"/><use x="445.3125" xlink:href="#j"/><use x="506.494141" xlink:href="#v"/><use x="575.634766" xlink:href="#ae"/></g><path d="m55.296 607.32h1085.2" clip-path="url(#c)" fill="none" stroke="#b0b0b0" stroke-dasharray="0.8,1.32" stroke-width=".8"/><defs><path id="l" d="m0 0h-3.5" stroke="#000" stroke-width=".8"/></defs><use x="55.296" y="607.320366" stroke="#000000" stroke-width=".8" xlink:href="#l"/><g transform="translate(41.934 611.12) scale(.1 -.1)"><use xlink:href="#d"/></g><path d="m55.296 487.34h1085.2" clip-path="url(#c)" fill="none" stroke="#b0b0b0" stroke-dasharray="0.8,1.32" stroke-width=".8"/><use x="55.296" y="487.344781" stroke="#000000" stroke-width=".8" xlink:href="#l"/><g transform="translate(29.208 491.14) scale(.1 -.1)"><use xlink:href="#g"/><use x="63.623047" xlink:href="#d"/><use x="127.246094" xlink:href="#d"/></g><path d="m55.296 367.37h1085.2" clip-path="url(#c)" fill="none" stroke="#b0b0b0" stroke-dasharray="0.8,1.32" stroke-width=".8"/><use x="55.296" y="367.369196" stroke="#000000" stroke-width=".8" xlink:href="#l"/><g transform="translate(29.208 371.17) scale(.1 -.1)"><defs><path id="al" transform="scale(.015625)" d="m2419 4116-1594-2491h1594v2491zm-166 550h794v-3041h666v-525h-666v-1100h-628v1100h-2106v609l1940 2957z"/></defs><use xlink:href="#al"/><use x="63.623047" xlink:href="#d"/><use x="127.246094" xlink:href="#d"/></g><path d="m55.296 247.39h1085.2" clip-path="url(#c)" fill="none" stroke="#b0b0b0" stroke-dasharray="0.8,1.32" stroke-width=".8"/><use x="55.296" y="247.393611" stroke="#000000" stroke-width=".8" xlink:href="#l"/><g transform="translate(29.208 251.19) scale(.1 -.1)"><use xlink:href="#ac"/><use x="63.623047" xlink:href="#d"/><use x="127.246094" xlink:href="#d"/></g><path d="m55.296 127.42h1085.2" clip-path="url(#c)" fill="none" stroke="#b0b0b0" stroke-dasharray="0.8,1.32" stroke-width=".8"/><use x="55.296" y="127.418026" stroke="#000000" stroke-width=".8" xlink:href="#l"/><g transform="translate(29.208 131.22) scale(.1 -.1)"><use xlink:href="#y"/><use x="63.623047" xlink:href="#d"/><use x="127.246094" xlink:href="#d"/></g><g transform="translate(22.297 374.8) rotate(-90) scale(.14 -.14)"><defs><path id="x" transform="scale(.015625)" d="m628 4666h631v-2307l2257 2307h809l-1803-1844 1897-2822h-688l-1618 2403-854-872v-1531h-631v4666z"/><path id="u" transform="scale(.015625)" d="m238 0v478q568 88 743 481 213 554 213 1969v572h2365v-3500h-575v3041h-1215v-347q0-1350-275-1956-294-647-1256-738z"/><path id="ai" transform="scale(.015625)" d="m3578 3500v-3500h-572v2809l-1687-2809h-738v3500h572v-2803l1685 2803h740z"/><path id="af" transform="scale(.015625)" d="m2625 0v1472h-1072q-478 0-797 297-287 269-287 844v887h575v-834q0-366 162-550 166-185 491-185h928v1569h575v-3500h-575z"/><path id="s" transform="scale(.015625)" d="m3122 3366v-538q-244 135-489 202t-495 67q-560 0-870-355-309-354-309-995t309-996q310-354 870-354 250 0 495 67t489 202v-532q-241-112-499-168-257-57-548-57-791 0-1257 497-465 497-465 1341 0 856 470 1346 471 491 1290 491 265 0 518-55 253-54 491-163z"/><path id="r" transform="scale(.015625)" d="m188 3500h3353v-459h-1394v-3041h-566v3041h-1393v459z"/><path id="z" transform="scale(.015625)" d="m1156 1613v-1154h819q394 0 600 148 206 149 206 431 0 281-206 428t-600 147h-819zm0 1428v-969h757q325 0 531 129 206 130 206 362 0 231-206 354-206 124-531 124h-757zm-575 459h1369q616 0 947-225t331-641q0-321-169-511-168-189-500-235 397-75 616-313 219-237 219-594 0-468-361-725-361-256-1030-256h-1422v3500z"/><path id="aa" transform="scale(.015625)" d="m1459 531h2063v3603h-1516v-662q0-1559-350-2594-72-212-197-347zm-921 0q418 197 537 572 303 963 303 2681v882h2775v-4135h531v-1534h-531v1003h-3306v-1003h-531v1534h222z"/></defs><use xlink:href="#x"/><use x="70.996094" xlink:href="#j"/><use x="132.177734" xlink:href="#u"/><use x="196.09375" xlink:href="#ai"/><use x="261.083984" xlink:href="#af"/><use x="320.166016" xlink:href="#k"/><use x="381.689453" xlink:href="#s"/><use x="436.669922" xlink:href="#r"/><use x="494.921875" xlink:href="#z"/><use x="553.857422" xlink:href="#j"/><use x="615.039062" xlink:href="#DejaVuSans-20"/><use x="646.826172" xlink:href="#m"/><use x="715.429688" xlink:href="#x"/><use x="786.425781" xlink:href="#aa"/></g><path d="m118.78 607.32v-587.88" clip-path="url(#c)" fill="none" stroke="#f00" stroke-dasharray="5.55,2.4" stroke-width="1.5"/><path d="m122.95 607.32v-587.88" clip-path="url(#c)" fill="none" stroke="#f00" stroke-dasharray="5.55,2.4" stroke-width="1.5"/><path d="m197.02 607.32v-587.88" clip-path="url(#c)" fill="none" stroke="#f00" stroke-dasharray="5.55,2.4" stroke-width="1.5"/><path d="m455.23 607.32v-587.88" clip-path="url(#c)" fill="none" stroke="#f00" stroke-dasharray="5.55,2.4" stroke-width="1.5"/><path d="m756.4 607.32v-587.88" clip-path="url(#c)" fill="none" stroke="#f00" stroke-dasharray="5.55,2.4" stroke-width="1.5"/><defs><path id="a" d="m0 1.5c0.3978 0 0.77937-0.15805 1.0607-0.43934 0.28129-0.28129 0.43934-0.66286 0.43934-1.0607s-0.15805-0.77937-0.43934-1.0607c-0.28129-0.28129-0.66286-0.43934-1.0607-0.43934s-0.77937 0.15805-1.0607 0.43934c-0.28129 0.28129-0.43934 0.66286-0.43934 1.0607s0.15805 0.77937 0.43934 1.0607c0.28129 0.28129 0.66286 0.43934 1.0607 0.43934z" stroke="#a52a2a"/></defs><g clip-path="url(#c)" fill="#a52a2a" stroke="#a52a2a"><use x="85.834266" y="606.720488" xlink:href="#a"/><use x="89.588904" y="606.12061" xlink:href="#a"/><use x="89.588904" y="605.520732" xlink:href="#a"/><use x="107.369735" y="604.920855" xlink:href="#a"/><use x="107.369735" y="604.320977" xlink:href="#a"/><use x="109.516098" y="603.721099" xlink:href="#a"/><use x="109.516098" y="603.121221" xlink:href="#a"/><use x="109.567164" y="602.521343" xlink:href="#a"/><use x="109.567164" y="601.921465" xlink:href="#a"/><use x="109.5709" y="601.321587" xlink:href="#a"/><use x="109.5709" y="600.721709" xlink:href="#a"/><use x="112.21617" y="600.121831" xlink:href="#a"/><use x="112.21617" y="599.521953" xlink:href="#a"/><use x="112.219637" y="598.922075" xlink:href="#a"/><use x="112.219637" y="598.322197" xlink:href="#a"/><use x="112.261041" y="597.722319" xlink:href="#a"/><use x="112.261041" y="597.122442" xlink:href="#a"/><use x="115.127841" y="596.522564" xlink:href="#a"/><use x="115.127841" y="595.922686" xlink:href="#a"/><use x="115.175035" y="595.322808" xlink:href="#a"/><use x="115.175035" y="594.72293" xlink:href="#a"/><use x="115.222095" y="594.123052" xlink:href="#a"/><use x="115.222095" y="593.523174" xlink:href="#a"/><use x="153.702026" y="592.923296" xlink:href="#a"/><use x="153.702026" y="592.323418" xlink:href="#a"/><use x="156.088973" y="591.72354" xlink:href="#a"/><use x="156.088973" y="591.123662" xlink:href="#a"/><use x="156.089276" y="590.523784" xlink:href="#a"/><use x="162.701356" y="589.923906" xlink:href="#a"/><use x="162.701356" y="589.324028" xlink:href="#a"/><use x="162.711522" y="588.724151" xlink:href="#a"/><use x="162.711522" y="588.124273" xlink:href="#a"/><use x="168.58455" y="587.524395" xlink:href="#a"/><use x="168.58455" y="586.924517" xlink:href="#a"/><use x="168.617572" y="586.324639" xlink:href="#a"/><use x="168.617572" y="585.724761" xlink:href="#a"/><use x="168.627806" y="585.124883" xlink:href="#a"/><use x="168.627806" y="584.525005" xlink:href="#a"/><use x="190.064746" y="583.925127" xlink:href="#a"/><use x="190.064746" y="583.325249" xlink:href="#a"/><use x="190.100057" y="582.725371" xlink:href="#a"/><use x="190.100057" y="582.125493" xlink:href="#a"/><use x="190.110526" y="581.525615" xlink:href="#a"/><use x="190.110526" y="580.925738" xlink:href="#a"/><use x="197.061314" y="580.32586" xlink:href="#a"/><use x="197.061314" y="579.725982" xlink:href="#a"/><use x="197.061314" y="579.126104" xlink:href="#a"/><use x="198.566953" y="578.526226" xlink:href="#a"/><use x="198.566953" y="577.926348" xlink:href="#a"/><use x="198.593075" y="577.32647" xlink:href="#a"/><use x="198.593075" y="576.726592" xlink:href="#a"/><use x="198.638721" y="576.126714" xlink:href="#a"/><use x="198.638721" y="575.526836" xlink:href="#a"/><use x="198.681236" y="574.926958" xlink:href="#a"/><use x="198.681236" y="574.32708" xlink:href="#a"/><use x="198.692748" y="573.727202" xlink:href="#a"/><use x="198.692748" y="573.127325" xlink:href="#a"/><use x="198.840155" y="572.527447" xlink:href="#a"/><use x="198.840155" y="571.927569" xlink:href="#a"/><use x="198.840155" y="571.327691" xlink:href="#a"/><use x="211.445773" y="570.727813" xlink:href="#a"/><use x="211.445773" y="570.127935" xlink:href="#a"/><use x="211.493775" y="569.528057" xlink:href="#a"/><use x="211.493775" y="568.928179" xlink:href="#a"/><use x="211.53996" y="568.328301" xlink:href="#a"/><use x="211.53996" y="567.728423" xlink:href="#a"/><use x="211.55366" y="567.128545" xlink:href="#a"/><use x="211.55366" y="566.528667" xlink:href="#a"/><use x="211.647375" y="565.928789" xlink:href="#a"/><use x="211.647375" y="565.328911" xlink:href="#a"/><use x="211.647375" y="564.729034" xlink:href="#a"/><use x="222.802965" y="564.129156" xlink:href="#a"/><use x="222.802965" y="563.529278" xlink:href="#a"/><use x="222.850496" y="562.9294" xlink:href="#a"/><use x="222.850496" y="562.329522" xlink:href="#a"/><use x="222.896882" y="561.729644" xlink:href="#a"/><use x="222.896882" y="561.129766" xlink:href="#a"/><use x="222.913646" y="560.529888" xlink:href="#a"/><use x="222.913646" y="559.93001" xlink:href="#a"/><use x="222.942326" y="559.330132" xlink:href="#a"/><use x="222.942326" y="558.730254" xlink:href="#a"/><use x="223.08677" y="558.130376" xlink:href="#a"/><use x="223.08677" y="557.530498" xlink:href="#a"/><use x="223.08677" y="556.930621" xlink:href="#a"/><use x="230.800947" y="556.330743" xlink:href="#a"/><use x="230.800947" y="555.730865" xlink:href="#a"/><use x="230.800947" y="555.130987" xlink:href="#a"/><use x="230.807006" y="554.531109" xlink:href="#a"/><use x="230.807006" y="553.931231" xlink:href="#a"/><use x="230.807006" y="553.331353" xlink:href="#a"/><use x="231.413867" y="552.731475" xlink:href="#a"/><use x="231.413867" y="552.131597" xlink:href="#a"/><use x="231.986527" y="551.531719" xlink:href="#a"/><use x="231.986527" y="550.931841" xlink:href="#a"/><use x="234.326515" y="550.331963" xlink:href="#a"/><use x="234.326515" y="549.732085" xlink:href="#a"/><use x="235.196815" y="549.132208" xlink:href="#a"/><use x="235.196815" y="548.53233" xlink:href="#a"/><use x="236.592278" y="547.932452" xlink:href="#a"/><use x="236.592278" y="547.332574" xlink:href="#a"/><use x="239.562185" y="546.732696" xlink:href="#a"/><use x="239.562185" y="546.132818" xlink:href="#a"/><use x="241.160091" y="545.53294" xlink:href="#a"/><use x="241.160091" y="544.933062" xlink:href="#a"/><use x="241.355197" y="544.333184" xlink:href="#a"/><use x="241.355197" y="543.733306" xlink:href="#a"/><use x="243.095864" y="543.133428" xlink:href="#a"/><use x="243.095864" y="542.53355" xlink:href="#a"/><use x="311.698536" y="541.933672" xlink:href="#a"/><use x="311.698536" y="541.333795" xlink:href="#a"/><use x="322.423991" y="540.733917" xlink:href="#a"/><use x="322.424092" y="540.134039" xlink:href="#a"/><use x="340.961681" y="539.534161" xlink:href="#a"/><use x="340.961681" y="538.934283" xlink:href="#a"/><use x="393.289531" y="538.334405" xlink:href="#a"/><use x="393.289531" y="537.734527" xlink:href="#a"/><use x="405.493594" y="537.134649" xlink:href="#a"/><use x="405.493594" y="536.534771" xlink:href="#a"/><use x="415.543148" y="535.934893" xlink:href="#a"/><use x="415.543148" y="535.335015" xlink:href="#a"/><use x="415.638075" y="534.735137" xlink:href="#a"/><use x="415.638075" y="534.135259" xlink:href="#a"/><use x="420.308962" y="533.535381" xlink:href="#a"/><use x="420.308962" y="532.935504" xlink:href="#a"/><use x="420.402374" y="532.335626" xlink:href="#a"/><use x="420.402374" y="531.735748" xlink:href="#a"/><use x="423.269645" y="531.13587" xlink:href="#a"/><use x="423.269645" y="530.535992" xlink:href="#a"/><use x="423.403587" y="529.936114" xlink:href="#a"/><use x="423.403587" y="529.336236" xlink:href="#a"/><use x="423.976987" y="528.736358" xlink:href="#a"/><use x="423.976987" y="528.13648" xlink:href="#a"/><use x="424.118671" y="527.536602" xlink:href="#a"/><use x="424.118671" y="526.936724" xlink:href="#a"/><use x="424.261903" y="526.336846" xlink:href="#a"/><use x="424.261903" y="525.736968" xlink:href="#a"/><use x="424.499558" y="525.137091" xlink:href="#a"/><use x="424.499558" y="524.537213" xlink:href="#a"/><use x="425.215787" y="523.937335" xlink:href="#a"/><use x="425.215787" y="523.337457" xlink:href="#a"/><use x="428.506022" y="522.737579" xlink:href="#a"/><use x="428.506022" y="522.137701" xlink:href="#a"/><use x="429.172229" y="521.537823" xlink:href="#a"/><use x="429.172229" y="520.937945" xlink:href="#a"/><use x="432.288398" y="520.338067" xlink:href="#a"/><use x="432.288398" y="519.738189" xlink:href="#a"/><use x="433.834667" y="519.138311" xlink:href="#a"/><use x="433.834667" y="518.538433" xlink:href="#a"/><use x="433.927406" y="517.938555" xlink:href="#a"/><use x="433.927406" y="517.338678" xlink:href="#a"/><use x="441.346434" y="516.7388" xlink:href="#a"/><use x="441.346434" y="516.138922" xlink:href="#a"/><use x="446.57113" y="515.539044" xlink:href="#a"/><use x="446.57113" y="514.939166" xlink:href="#a"/><use x="447.986857" y="514.339288" xlink:href="#a"/><use x="447.986857" y="513.73941" xlink:href="#a"/><use x="448.034926" y="513.139532" xlink:href="#a"/><use x="448.034926" y="512.539654" xlink:href="#a"/><use x="452.368687" y="511.939776" xlink:href="#a"/><use x="452.368687" y="511.339898" xlink:href="#a"/><use x="452.462908" y="510.74002" xlink:href="#a"/><use x="452.462908" y="510.140142" xlink:href="#a"/><use x="461.061591" y="509.540264" xlink:href="#a"/><use x="461.061591" y="508.940387" xlink:href="#a"/><use x="461.205462" y="508.340509" xlink:href="#a"/><use x="461.205462" y="507.740631" xlink:href="#a"/><use x="476.504352" y="507.140753" xlink:href="#a"/><use x="476.504352" y="506.540875" xlink:href="#a"/><use x="479.504118" y="505.940997" xlink:href="#a"/><use x="479.504118" y="505.341119" xlink:href="#a"/><use x="479.69515" y="504.741241" xlink:href="#a"/><use x="479.69515" y="504.141363" xlink:href="#a"/><use x="492.043758" y="503.541485" xlink:href="#a"/><use x="492.043758" y="502.941607" xlink:href="#a"/><use x="498.09496" y="502.341729" xlink:href="#a"/><use x="498.09496" y="501.741851" xlink:href="#a"/><use x="503.52486" y="501.141974" xlink:href="#a"/><use x="503.52486" y="500.542096" xlink:href="#a"/><use x="505.956544" y="499.942218" xlink:href="#a"/><use x="505.956544" y="499.34234" xlink:href="#a"/><use x="525.124624" y="498.742462" xlink:href="#a"/><use x="525.124624" y="498.142584" xlink:href="#a"/><use x="525.265264" y="497.542706" xlink:href="#a"/><use x="525.265264" y="496.942828" xlink:href="#a"/><use x="525.980517" y="496.34295" xlink:href="#a"/><use x="525.980517" y="495.743072" xlink:href="#a"/><use x="526.263481" y="495.143194" xlink:href="#a"/><use x="526.263481" y="494.543316" xlink:href="#a"/><use x="526.453099" y="493.943438" xlink:href="#a"/><use x="526.453099" y="493.343561" xlink:href="#a"/><use x="534.319867" y="492.743683" xlink:href="#a"/><use x="534.319867" y="492.143805" xlink:href="#a"/><use x="534.752391" y="491.543927" xlink:href="#a"/><use x="534.752391" y="490.944049" xlink:href="#a"/><use x="539.378575" y="490.344171" xlink:href="#a"/><use x="539.378575" y="489.744293" xlink:href="#a"/><use x="542.762223" y="489.144415" xlink:href="#a"/><use x="542.762223" y="488.544537" xlink:href="#a"/><use x="543.525545" y="487.944659" xlink:href="#a"/><use x="543.525545" y="487.344781" xlink:href="#a"/><use x="543.666959" y="486.744903" xlink:href="#a"/><use x="543.666959" y="486.145025" xlink:href="#a"/><use x="547.128064" y="485.545148" xlink:href="#a"/><use x="547.128064" y="484.94527" xlink:href="#a"/><use x="547.168593" y="484.345392" xlink:href="#a"/><use x="547.168593" y="483.745514" xlink:href="#a"/><use x="548.004288" y="483.145636" xlink:href="#a"/><use x="548.004288" y="482.545758" xlink:href="#a"/><use x="550.914109" y="481.94588" xlink:href="#a"/><use x="550.914109" y="481.346002" xlink:href="#a"/><use x="551.10366" y="480.746124" xlink:href="#a"/><use x="551.10366" y="480.146246" xlink:href="#a"/><use x="551.912998" y="479.546368" xlink:href="#a"/><use x="551.912998" y="478.94649" xlink:href="#a"/><use x="552.105714" y="478.346612" xlink:href="#a"/><use x="552.105714" y="477.746734" xlink:href="#a"/><use x="552.295736" y="477.146857" xlink:href="#a"/><use x="552.295736" y="476.546979" xlink:href="#a"/><use x="552.488586" y="475.947101" xlink:href="#a"/><use x="552.488586" y="475.347223" xlink:href="#a"/><use x="562.59412" y="474.747345" xlink:href="#a"/><use x="562.59412" y="474.147467" xlink:href="#a"/><use x="566.472534" y="473.547589" xlink:href="#a"/><use x="566.472534" y="472.947711" xlink:href="#a"/><use x="566.521949" y="472.347833" xlink:href="#a"/><use x="566.521949" y="471.747955" xlink:href="#a"/><use x="566.619435" y="471.148077" xlink:href="#a"/><use x="566.619435" y="470.548199" xlink:href="#a"/><use x="566.619435" y="469.948321" xlink:href="#a"/><use x="566.667774" y="469.348444" xlink:href="#a"/><use x="566.667774" y="468.748566" xlink:href="#a"/><use x="569.316746" y="468.148688" xlink:href="#a"/><use x="569.316746" y="467.54881" xlink:href="#a"/><use x="572.08155" y="466.948932" xlink:href="#a"/><use x="572.08155" y="466.349054" xlink:href="#a"/><use x="572.271909" y="465.749176" xlink:href="#a"/><use x="572.271909" y="465.149298" xlink:href="#a"/><use x="572.462403" y="464.54942" xlink:href="#a"/><use x="572.462403" y="463.949542" xlink:href="#a"/><use x="572.651685" y="463.349664" xlink:href="#a"/><use x="572.651685" y="462.749786" xlink:href="#a"/><use x="578.668316" y="462.149908" xlink:href="#a"/><use x="578.668316" y="461.550031" xlink:href="#a"/><use x="583.143357" y="460.950153" xlink:href="#a"/><use x="583.143357" y="460.350275" xlink:href="#a"/><use x="586.049743" y="459.750397" xlink:href="#a"/><use x="586.049743" y="459.150519" xlink:href="#a"/><use x="586.380204" y="458.550641" xlink:href="#a"/><use x="586.380204" y="457.950763" xlink:href="#a"/><use x="590.389193" y="457.350885" xlink:href="#a"/><use x="590.389193" y="456.751007" xlink:href="#a"/><use x="590.39431" y="456.151129" xlink:href="#a"/><use x="590.39431" y="455.551251" xlink:href="#a"/><use x="590.578879" y="454.951373" xlink:href="#a"/><use x="590.578879" y="454.351495" xlink:href="#a"/><use x="590.960607" y="453.751617" xlink:href="#a"/><use x="590.960607" y="453.15174" xlink:href="#a"/><use x="592.154097" y="452.551862" xlink:href="#a"/><use x="592.154097" y="451.951984" xlink:href="#a"/><use x="592.488699" y="451.352106" xlink:href="#a"/><use x="592.488699" y="450.752228" xlink:href="#a"/><use x="594.262389" y="450.15235" xlink:href="#a"/><use x="594.262389" y="449.552472" xlink:href="#a"/><use x="594.310425" y="448.952594" xlink:href="#a"/><use x="594.310425" y="448.352716" xlink:href="#a"/><use x="594.323957" y="447.752838" xlink:href="#a"/><use x="594.323957" y="447.15296" xlink:href="#a"/><use x="594.359167" y="446.553082" xlink:href="#a"/><use x="594.359167" y="445.953204" xlink:href="#a"/><use x="594.406665" y="445.353327" xlink:href="#a"/><use x="594.406665" y="444.753449" xlink:href="#a"/><use x="594.455879" y="444.153571" xlink:href="#a"/><use x="594.455879" y="443.553693" xlink:href="#a"/><use x="607.744804" y="442.953815" xlink:href="#a"/><use x="607.744804" y="442.353937" xlink:href="#a"/><use x="607.937722" y="441.754059" xlink:href="#a"/><use x="607.937722" y="441.154181" xlink:href="#a"/><use x="608.099569" y="440.554303" xlink:href="#a"/><use x="608.099569" y="439.954425" xlink:href="#a"/><use x="615.171204" y="439.354547" xlink:href="#a"/><use x="615.171204" y="438.754669" xlink:href="#a"/><use x="619.61541" y="438.154791" xlink:href="#a"/><use x="619.61541" y="437.554914" xlink:href="#a"/><use x="619.854344" y="436.955036" xlink:href="#a"/><use x="619.854344" y="436.355158" xlink:href="#a"/><use x="620.091729" y="435.75528" xlink:href="#a"/><use x="620.091729" y="435.155402" xlink:href="#a"/><use x="620.427408" y="434.555524" xlink:href="#a"/><use x="620.427408" y="433.955646" xlink:href="#a"/><use x="620.620729" y="433.355768" xlink:href="#a"/><use x="620.620729" y="432.75589" xlink:href="#a"/><use x="622.668429" y="432.156012" xlink:href="#a"/><use x="622.668429" y="431.556134" xlink:href="#a"/><use x="622.904165" y="430.956256" xlink:href="#a"/><use x="622.904165" y="430.356378" xlink:href="#a"/><use x="623.000741" y="429.756501" xlink:href="#a"/><use x="623.000741" y="429.156623" xlink:href="#a"/><use x="625.779212" y="428.556745" xlink:href="#a"/><use x="625.779212" y="427.956867" xlink:href="#a"/><use x="627.434782" y="427.356989" xlink:href="#a"/><use x="627.434782" y="426.757111" xlink:href="#a"/><use x="629.825229" y="426.157233" xlink:href="#a"/><use x="629.825229" y="425.557355" xlink:href="#a"/><use x="631.639011" y="424.957477" xlink:href="#a"/><use x="631.639011" y="424.357599" xlink:href="#a"/><use x="631.736261" y="423.757721" xlink:href="#a"/><use x="631.736261" y="423.157843" xlink:href="#a"/><use x="632.81981" y="422.557965" xlink:href="#a"/><use x="632.81981" y="421.958087" xlink:href="#a"/><use x="634.538631" y="421.35821" xlink:href="#a"/><use x="634.538631" y="420.758332" xlink:href="#a"/><use x="635.130782" y="420.158454" xlink:href="#a"/><use x="635.130782" y="419.558576" xlink:href="#a"/><use x="637.781841" y="418.958698" xlink:href="#a"/><use x="637.781841" y="418.35882" xlink:href="#a"/><use x="637.971594" y="417.758942" xlink:href="#a"/><use x="637.971594" y="417.159064" xlink:href="#a"/><use x="638.257487" y="416.559186" xlink:href="#a"/><use x="638.257487" y="415.959308" xlink:href="#a"/><use x="638.593973" y="415.35943" xlink:href="#a"/><use x="638.593973" y="414.759552" xlink:href="#a"/><use x="638.924838" y="414.159674" xlink:href="#a"/><use x="638.924838" y="413.559797" xlink:href="#a"/><use x="647.095844" y="412.959919" xlink:href="#a"/><use x="647.095844" y="412.360041" xlink:href="#a"/><use x="647.268631" y="411.760163" xlink:href="#a"/><use x="647.268631" y="411.160285" xlink:href="#a"/><use x="647.603771" y="410.560407" xlink:href="#a"/><use x="647.603771" y="409.960529" xlink:href="#a"/><use x="650.832607" y="409.360651" xlink:href="#a"/><use x="650.832607" y="408.760773" xlink:href="#a"/><use x="650.878792" y="408.160895" xlink:href="#a"/><use x="650.878792" y="407.561017" xlink:href="#a"/><use x="650.926221" y="406.961139" xlink:href="#a"/><use x="650.926221" y="406.361261" xlink:href="#a"/><use x="650.976479" y="405.761384" xlink:href="#a"/><use x="650.976479" y="405.161506" xlink:href="#a"/><use x="651.023673" y="404.561628" xlink:href="#a"/><use x="651.023673" y="403.96175" xlink:href="#a"/><use x="654.421022" y="403.361872" xlink:href="#a"/><use x="654.421022" y="402.761994" xlink:href="#a"/><use x="660.007249" y="402.162116" xlink:href="#a"/><use x="660.007249" y="401.562238" xlink:href="#a"/><use x="660.714389" y="400.96236" xlink:href="#a"/><use x="660.714389" y="400.362482" xlink:href="#a"/><use x="661.959146" y="399.762604" xlink:href="#a"/><use x="661.959146" y="399.162726" xlink:href="#a"/><use x="662.864489" y="398.562848" xlink:href="#a"/><use x="662.864489" y="397.96297" xlink:href="#a"/><use x="663.530729" y="397.363093" xlink:href="#a"/><use x="663.530729" y="396.763215" xlink:href="#a"/><use x="663.544463" y="396.163337" xlink:href="#a"/><use x="663.544463" y="395.563459" xlink:href="#a"/><use x="663.669417" y="394.963581" xlink:href="#a"/><use x="663.669417" y="394.363703" xlink:href="#a"/><use x="664.589672" y="393.763825" xlink:href="#a"/><use x="664.589672" y="393.163947" xlink:href="#a"/><use x="664.996142" y="392.564069" xlink:href="#a"/><use x="664.996142" y="391.964191" xlink:href="#a"/><use x="666.769562" y="391.364313" xlink:href="#a"/><use x="666.769562" y="390.764435" xlink:href="#a"/><use x="667.056498" y="390.164557" xlink:href="#a"/><use x="667.056498" y="389.56468" xlink:href="#a"/><use x="669.343435" y="388.964802" xlink:href="#a"/><use x="669.343435" y="388.364924" xlink:href="#a"/><use x="670.773569" y="387.765046" xlink:href="#a"/><use x="670.773569" y="387.165168" xlink:href="#a"/><use x="671.011628" y="386.56529" xlink:href="#a"/><use x="671.011628" y="385.965412" xlink:href="#a"/><use x="671.249653" y="385.365534" xlink:href="#a"/><use x="671.249653" y="384.765656" xlink:href="#a"/><use x="671.537194" y="384.165778" xlink:href="#a"/><use x="671.537194" y="383.5659" xlink:href="#a"/><use x="671.77532" y="382.966022" xlink:href="#a"/><use x="671.77532" y="382.366144" xlink:href="#a"/><use x="678.881593" y="381.766267" xlink:href="#a"/><use x="678.881593" y="381.166389" xlink:href="#a"/><use x="681.594894" y="380.566511" xlink:href="#a"/><use x="681.594894" y="379.966633" xlink:href="#a"/><use x="682.90913" y="379.366755" xlink:href="#a"/><use x="682.90913" y="378.766877" xlink:href="#a"/><use x="683.002845" y="378.166999" xlink:href="#a"/><use x="683.002845" y="377.567121" xlink:href="#a"/><use x="683.148299" y="376.967243" xlink:href="#a"/><use x="683.148299" y="376.367365" xlink:href="#a"/><use x="689.175365" y="375.767487" xlink:href="#a"/><use x="689.175365" y="375.167609" xlink:href="#a"/><use x="691.304595" y="374.567731" xlink:href="#a"/><use x="691.304595" y="373.967854" xlink:href="#a"/><use x="693.938857" y="373.367976" xlink:href="#a"/><use x="693.938857" y="372.768098" xlink:href="#a"/><use x="694.178228" y="372.16822" xlink:href="#a"/><use x="694.178228" y="371.568342" xlink:href="#a"/><use x="701.322136" y="370.968464" xlink:href="#a"/><use x="701.322136" y="370.368586" xlink:href="#a"/><use x="701.370979" y="369.768708" xlink:href="#a"/><use x="701.370979" y="369.16883" xlink:href="#a"/><use x="701.420059" y="368.568952" xlink:href="#a"/><use x="701.420059" y="367.969074" xlink:href="#a"/><use x="708.189307" y="367.369196" xlink:href="#a"/><use x="708.189307" y="366.769318" xlink:href="#a"/><use x="708.655897" y="366.16944" xlink:href="#a"/><use x="708.655897" y="365.569563" xlink:href="#a"/><use x="714.090847" y="364.969685" xlink:href="#a"/><use x="714.090847" y="364.369807" xlink:href="#a"/><use x="715.758602" y="363.769929" xlink:href="#a"/><use x="715.758602" y="363.170051" xlink:href="#a"/><use x="715.806638" y="362.570173" xlink:href="#a"/><use x="715.806638" y="361.970295" xlink:href="#a"/><use x="715.855617" y="361.370417" xlink:href="#a"/><use x="715.855617" y="360.770539" xlink:href="#a"/><use x="715.905134" y="360.170661" xlink:href="#a"/><use x="715.905134" y="359.570783" xlink:href="#a"/><use x="718.142082" y="358.970905" xlink:href="#a"/><use x="718.142082" y="358.371027" xlink:href="#a"/><use x="718.236571" y="357.77115" xlink:href="#a"/><use x="718.236571" y="357.171272" xlink:href="#a"/><use x="718.331162" y="356.571394" xlink:href="#a"/><use x="718.331162" y="355.971516" xlink:href="#a"/><use x="721.481127" y="355.371638" xlink:href="#a"/><use x="721.481127" y="354.77176" xlink:href="#a"/><use x="721.497487" y="354.171882" xlink:href="#a"/><use x="721.497487" y="353.572004" xlink:href="#a"/><use x="721.578478" y="352.972126" xlink:href="#a"/><use x="721.578478" y="352.372248" xlink:href="#a"/><use x="721.672968" y="351.77237" xlink:href="#a"/><use x="721.672968" y="351.172492" xlink:href="#a"/><use x="722.865448" y="350.572614" xlink:href="#a"/><use x="722.865448" y="349.972737" xlink:href="#a"/><use x="722.962731" y="349.372859" xlink:href="#a"/><use x="722.962731" y="348.772981" xlink:href="#a"/><use x="722.975927" y="348.173103" xlink:href="#a"/><use x="722.975927" y="347.573225" xlink:href="#a"/><use x="724.914629" y="346.973347" xlink:href="#a"/><use x="724.914629" y="346.373469" xlink:href="#a"/><use x="725.013192" y="345.773591" xlink:href="#a"/><use x="725.013192" y="345.173713" xlink:href="#a"/><use x="727.197627" y="344.573835" xlink:href="#a"/><use x="727.197627" y="343.973957" xlink:href="#a"/><use x="728.968994" y="343.374079" xlink:href="#a"/><use x="728.968994" y="342.774201" xlink:href="#a"/><use x="729.11428" y="342.174323" xlink:href="#a"/><use x="729.11428" y="341.574446" xlink:href="#a"/><use x="729.260777" y="340.974568" xlink:href="#a"/><use x="729.260777" y="340.37469" xlink:href="#a"/><use x="730.542025" y="339.774812" xlink:href="#a"/><use x="730.542025" y="339.174934" xlink:href="#a"/><use x="730.638399" y="338.575056" xlink:href="#a"/><use x="730.638399" y="337.975178" xlink:href="#a"/><use x="733.111925" y="337.3753" xlink:href="#a"/><use x="733.111925" y="336.775422" xlink:href="#a"/><use x="733.440568" y="336.175544" xlink:href="#a"/><use x="733.440568" y="335.575666" xlink:href="#a"/><use x="734.822869" y="334.975788" xlink:href="#a"/><use x="734.822869" y="334.37591" xlink:href="#a"/><use x="735.823879" y="333.776033" xlink:href="#a"/><use x="735.823879" y="333.176155" xlink:href="#a"/><use x="736.172719" y="332.576277" xlink:href="#a"/><use x="736.172719" y="331.976399" xlink:href="#a"/><use x="737.875282" y="331.376521" xlink:href="#a"/><use x="737.875282" y="330.776643" xlink:href="#a"/><use x="738.396943" y="330.176765" xlink:href="#a"/><use x="738.396943" y="329.576887" xlink:href="#a"/><use x="739.650251" y="328.977009" xlink:href="#a"/><use x="739.650251" y="328.377131" xlink:href="#a"/><use x="740.221699" y="327.777253" xlink:href="#a"/><use x="740.221699" y="327.177375" xlink:href="#a"/><use x="740.270307" y="326.577497" xlink:href="#a"/><use x="740.270307" y="325.97762" xlink:href="#a"/><use x="740.322517" y="325.377742" xlink:href="#a"/><use x="740.322517" y="324.777864" xlink:href="#a"/><use x="740.372034" y="324.177986" xlink:href="#a"/><use x="740.372034" y="323.578108" xlink:href="#a"/><use x="740.420002" y="322.97823" xlink:href="#a"/><use x="740.420002" y="322.378352" xlink:href="#a"/><use x="742.079948" y="321.778474" xlink:href="#a"/><use x="742.079948" y="321.178596" xlink:href="#a"/><use x="742.175953" y="320.578718" xlink:href="#a"/><use x="742.175953" y="319.97884" xlink:href="#a"/><use x="742.223719" y="319.378962" xlink:href="#a"/><use x="742.223719" y="318.779084" xlink:href="#a"/><use x="742.32208" y="318.179207" xlink:href="#a"/><use x="742.32208" y="317.579329" xlink:href="#a"/><use x="744.941497" y="316.979451" xlink:href="#a"/><use x="744.941497" y="316.379573" xlink:href="#a"/><use x="745.038208" y="315.779695" xlink:href="#a"/><use x="745.038208" y="315.179817" xlink:href="#a"/><use x="745.135088" y="314.579939" xlink:href="#a"/><use x="745.135088" y="313.980061" xlink:href="#a"/><use x="748.221836" y="313.380183" xlink:href="#a"/><use x="748.221836" y="312.780305" xlink:href="#a"/><use x="748.225067" y="312.180427" xlink:href="#a"/><use x="748.225067" y="311.580549" xlink:href="#a"/><use x="748.701756" y="310.980671" xlink:href="#a"/><use x="748.701756" y="310.380793" xlink:href="#a"/><use x="750.903494" y="309.780916" xlink:href="#a"/><use x="750.903494" y="309.181038" xlink:href="#a"/><use x="750.998791" y="308.58116" xlink:href="#a"/><use x="750.998791" y="307.981282" xlink:href="#a"/><use x="751.095031" y="307.381404" xlink:href="#a"/><use x="751.095031" y="306.781526" xlink:href="#a"/><use x="753.190868" y="306.181648" xlink:href="#a"/><use x="753.190868" y="305.58177" xlink:href="#a"/><use x="753.285358" y="304.981892" xlink:href="#a"/><use x="753.285358" y="304.382014" xlink:href="#a"/><use x="753.383954" y="303.782136" xlink:href="#a"/><use x="753.383954" y="303.182258" xlink:href="#a"/><use x="755.599358" y="302.58238" xlink:href="#a"/><use x="755.599358" y="301.982503" xlink:href="#a"/><use x="759.623394" y="301.382625" xlink:href="#a"/><use x="759.623394" y="300.782747" xlink:href="#a"/><use x="775.345552" y="300.182869" xlink:href="#a"/><use x="775.345552" y="299.582991" xlink:href="#a"/><use x="781.115978" y="298.983113" xlink:href="#a"/><use x="781.115978" y="298.383235" xlink:href="#a"/><use x="781.405068" y="297.783357" xlink:href="#a"/><use x="781.405068" y="297.183479" xlink:href="#a"/><use x="783.024148" y="296.583601" xlink:href="#a"/><use x="783.024148" y="295.983723" xlink:href="#a"/><use x="784.546315" y="295.383845" xlink:href="#a"/><use x="784.546315" y="294.783967" xlink:href="#a"/><use x="791.556921" y="294.18409" xlink:href="#a"/><use x="791.556921" y="293.584212" xlink:href="#a"/><use x="794.511208" y="292.984334" xlink:href="#a"/><use x="794.511208" y="292.384456" xlink:href="#a"/><use x="800.528883" y="291.784578" xlink:href="#a"/><use x="800.528883" y="291.1847" xlink:href="#a"/><use x="800.623911" y="290.584822" xlink:href="#a"/><use x="800.623911" y="289.984944" xlink:href="#a"/><use x="800.721127" y="289.385066" xlink:href="#a"/><use x="800.721127" y="288.785188" xlink:href="#a"/><use x="801.468426" y="288.18531" xlink:href="#a"/><use x="801.468426" y="287.585432" xlink:href="#a"/><use x="805.388075" y="286.985554" xlink:href="#a"/><use x="805.388075" y="286.385677" xlink:href="#a"/><use x="809.667809" y="285.785799" xlink:href="#a"/><use x="809.667809" y="285.185921" xlink:href="#a"/><use x="815.387674" y="284.586043" xlink:href="#a"/><use x="815.387674" y="283.986165" xlink:href="#a"/><use x="817.162543" y="283.386287" xlink:href="#a"/><use x="817.162543" y="282.786409" xlink:href="#a"/><use x="817.257402" y="282.186531" xlink:href="#a"/><use x="817.257402" y="281.586653" xlink:href="#a"/><use x="817.352532" y="280.986775" xlink:href="#a"/><use x="817.352532" y="280.386897" xlink:href="#a"/><use x="818.424165" y="279.787019" xlink:href="#a"/><use x="818.424165" y="279.187141" xlink:href="#a"/><use x="820.353744" y="278.587263" xlink:href="#a"/><use x="820.353744" y="277.987386" xlink:href="#a"/><use x="820.401814" y="277.387508" xlink:href="#a"/><use x="820.401814" y="276.78763" xlink:href="#a"/><use x="820.500612" y="276.187752" xlink:href="#a"/><use x="820.500612" y="275.587874" xlink:href="#a"/><use x="823.824779" y="274.987996" xlink:href="#a"/><use x="823.824779" y="274.388118" xlink:href="#a"/><use x="824.787515" y="273.78824" xlink:href="#a"/><use x="824.787515" y="273.188362" xlink:href="#a"/><use x="824.882745" y="272.588484" xlink:href="#a"/><use x="824.882745" y="271.988606" xlink:href="#a"/><use x="824.979288" y="271.388728" xlink:href="#a"/><use x="824.979288" y="270.78885" xlink:href="#a"/><use x="825.075293" y="270.188973" xlink:href="#a"/><use x="825.075293" y="269.589095" xlink:href="#a"/><use x="827.20055" y="268.989217" xlink:href="#a"/><use x="827.20055" y="268.389339" xlink:href="#a"/><use x="827.391212" y="267.789461" xlink:href="#a"/><use x="827.391212" y="267.189583" xlink:href="#a"/><use x="827.584736" y="266.589705" xlink:href="#a"/><use x="827.584736" y="265.989827" xlink:href="#a"/><use x="828.257372" y="265.389949" xlink:href="#a"/><use x="828.257372" y="264.790071" xlink:href="#a"/><use x="832.976126" y="264.190193" xlink:href="#a"/><use x="832.976126" y="263.590315" xlink:href="#a"/><use x="833.306621" y="262.990437" xlink:href="#a"/><use x="833.306621" y="262.39056" xlink:href="#a"/><use x="833.560332" y="261.790682" xlink:href="#a"/><use x="833.560332" y="261.190804" xlink:href="#a"/><use x="833.654048" y="260.590926" xlink:href="#a"/><use x="833.654048" y="259.991048" xlink:href="#a"/><use x="833.74884" y="259.39117" xlink:href="#a"/><use x="833.74884" y="258.791292" xlink:href="#a"/><use x="833.843835" y="258.191414" xlink:href="#a"/><use x="833.843835" y="257.591536" xlink:href="#a"/><use x="835.57676" y="256.991658" xlink:href="#a"/><use x="835.57676" y="256.39178" xlink:href="#a"/><use x="836.509941" y="255.791902" xlink:href="#a"/><use x="836.509941" y="255.192024" xlink:href="#a"/><use x="836.604935" y="254.592146" xlink:href="#a"/><use x="836.604935" y="253.992269" xlink:href="#a"/><use x="836.700132" y="253.392391" xlink:href="#a"/><use x="836.700132" y="252.792513" xlink:href="#a"/><use x="836.842859" y="252.192635" xlink:href="#a"/><use x="836.842859" y="251.592757" xlink:href="#a"/><use x="840.18103" y="250.992879" xlink:href="#a"/><use x="840.18103" y="250.393001" xlink:href="#a"/><use x="840.276832" y="249.793123" xlink:href="#a"/><use x="840.276832" y="249.193245" xlink:href="#a"/><use x="840.37223" y="248.593367" xlink:href="#a"/><use x="840.37223" y="247.993489" xlink:href="#a"/><use x="840.568783" y="247.393611" xlink:href="#a"/><use x="840.568783" y="246.793733" xlink:href="#a"/><use x="840.859355" y="246.193856" xlink:href="#a"/><use x="840.859355" y="245.593978" xlink:href="#a"/><use x="841.393067" y="244.9941" xlink:href="#a"/><use x="841.393067" y="244.394222" xlink:href="#a"/><use x="841.586052" y="243.794344" xlink:href="#a"/><use x="841.586052" y="243.194466" xlink:href="#a"/><use x="842.749684" y="242.594588" xlink:href="#a"/><use x="842.749684" y="241.99471" xlink:href="#a"/><use x="844.834109" y="241.394832" xlink:href="#a"/><use x="844.834109" y="240.794954" xlink:href="#a"/><use x="845.42461" y="240.195076" xlink:href="#a"/><use x="845.42461" y="239.595198" xlink:href="#a"/><use x="845.52186" y="238.99532" xlink:href="#a"/><use x="845.52186" y="238.395443" xlink:href="#a"/><use x="845.616282" y="237.795565" xlink:href="#a"/><use x="845.616282" y="237.195687" xlink:href="#a"/><use x="846.949537" y="236.595809" xlink:href="#a"/><use x="846.949537" y="235.995931" xlink:href="#a"/><use x="847.043454" y="235.396053" xlink:href="#a"/><use x="847.043454" y="234.796175" xlink:href="#a"/><use x="847.138483" y="234.196297" xlink:href="#a"/><use x="847.138483" y="233.596419" xlink:href="#a"/><use x="847.282321" y="232.996541" xlink:href="#a"/><use x="847.282321" y="232.396663" xlink:href="#a"/><use x="847.376272" y="231.796785" xlink:href="#a"/><use x="847.376272" y="231.196907" xlink:href="#a"/><use x="850.906384" y="230.59703" xlink:href="#a"/><use x="850.906384" y="229.997152" xlink:href="#a"/><use x="851.000671" y="229.397274" xlink:href="#a"/><use x="851.000671" y="228.797396" xlink:href="#a"/><use x="851.143668" y="228.197518" xlink:href="#a"/><use x="851.143668" y="227.59764" xlink:href="#a"/><use x="852.704277" y="226.997762" xlink:href="#a"/><use x="852.704277" y="226.397884" xlink:href="#a"/><use x="852.943311" y="225.798006" xlink:href="#a"/><use x="852.943311" y="225.198128" xlink:href="#a"/><use x="856.513515" y="224.59825" xlink:href="#a"/><use x="856.513515" y="223.998372" xlink:href="#a"/><use x="859.053489" y="223.398494" xlink:href="#a"/><use x="859.053489" y="222.798616" xlink:href="#a"/><use x="859.149998" y="222.198739" xlink:href="#a"/><use x="859.149998" y="221.598861" xlink:href="#a"/><use x="859.247147" y="220.998983" xlink:href="#a"/><use x="859.247147" y="220.399105" xlink:href="#a"/><use x="859.344801" y="219.799227" xlink:href="#a"/><use x="859.344801" y="219.199349" xlink:href="#a"/><use x="860.713906" y="218.599471" xlink:href="#a"/><use x="860.713906" y="217.999593" xlink:href="#a"/><use x="864.478071" y="217.399715" xlink:href="#a"/><use x="864.478071" y="216.799837" xlink:href="#a"/><use x="864.916991" y="216.199959" xlink:href="#a"/><use x="864.916991" y="215.600081" xlink:href="#a"/><use x="865.013096" y="215.000203" xlink:href="#a"/><use x="865.013096" y="214.400326" xlink:href="#a"/><use x="865.107586" y="213.800448" xlink:href="#a"/><use x="865.107586" y="213.20057" xlink:href="#a"/><use x="867.622617" y="212.600692" xlink:href="#a"/><use x="867.622617" y="212.000814" xlink:href="#a"/><use x="867.671056" y="211.400936" xlink:href="#a"/><use x="867.671056" y="210.801058" xlink:href="#a"/><use x="867.721011" y="210.20118" xlink:href="#a"/><use x="867.721011" y="209.601302" xlink:href="#a"/><use x="867.769855" y="209.001424" xlink:href="#a"/><use x="867.769855" y="208.401546" xlink:href="#a"/><use x="867.815467" y="207.801668" xlink:href="#a"/><use x="867.815467" y="207.20179" xlink:href="#a"/><use x="868.678227" y="206.601913" xlink:href="#a"/><use x="868.678227" y="206.002035" xlink:href="#a"/><use x="868.919449" y="205.402157" xlink:href="#a"/><use x="868.919449" y="204.802279" xlink:href="#a"/><use x="870.780291" y="204.202401" xlink:href="#a"/><use x="870.780291" y="203.602523" xlink:href="#a"/><use x="870.87505" y="203.002645" xlink:href="#a"/><use x="870.87505" y="202.402767" xlink:href="#a"/><use x="870.97065" y="201.802889" xlink:href="#a"/><use x="870.97065" y="201.203011" xlink:href="#a"/><use x="871.06615" y="200.603133" xlink:href="#a"/><use x="871.06615" y="200.003255" xlink:href="#a"/><use x="871.207025" y="199.403377" xlink:href="#a"/><use x="871.207025" y="198.803499" xlink:href="#a"/><use x="872.972738" y="198.203622" xlink:href="#a"/><use x="872.972738" y="197.603744" xlink:href="#a"/><use x="873.070358" y="197.003866" xlink:href="#a"/><use x="873.070358" y="196.403988" xlink:href="#a"/><use x="873.164309" y="195.80411" xlink:href="#a"/><use x="873.164309" y="195.204232" xlink:href="#a"/><use x="876.787261" y="194.604354" xlink:href="#a"/><use x="876.787261" y="194.004476" xlink:href="#a"/><use x="876.884308" y="193.404598" xlink:href="#a"/><use x="876.884308" y="192.80472" xlink:href="#a"/><use x="876.979067" y="192.204842" xlink:href="#a"/><use x="876.979067" y="191.604964" xlink:href="#a"/><use x="879.492954" y="191.005086" xlink:href="#a"/><use x="879.492954" y="190.405209" xlink:href="#a"/><use x="880.882997" y="189.805331" xlink:href="#a"/><use x="880.882997" y="189.205453" xlink:href="#a"/><use x="880.980078" y="188.605575" xlink:href="#a"/><use x="880.980078" y="188.005697" xlink:href="#a"/><use x="881.12533" y="187.405819" xlink:href="#a"/><use x="881.12533" y="186.805941" xlink:href="#a"/><use x="883.604006" y="186.206063" xlink:href="#a"/><use x="883.604006" y="185.606185" xlink:href="#a"/><use x="883.700886" y="185.006307" xlink:href="#a"/><use x="883.700886" y="184.406429" xlink:href="#a"/><use x="883.799179" y="183.806551" xlink:href="#a"/><use x="883.799179" y="183.206673" xlink:href="#a"/><use x="885.458923" y="182.606796" xlink:href="#a"/><use x="885.458923" y="182.006918" xlink:href="#a"/><use x="885.553345" y="181.40704" xlink:href="#a"/><use x="885.553345" y="180.807162" xlink:href="#a"/><use x="885.649888" y="180.207284" xlink:href="#a"/><use x="885.649888" y="179.607406" xlink:href="#a"/><use x="888.884648" y="179.007528" xlink:href="#a"/><use x="888.884648" y="178.40765" xlink:href="#a"/><use x="889.432499" y="177.807772" xlink:href="#a"/><use x="889.432499" y="177.207894" xlink:href="#a"/><use x="889.628648" y="176.608016" xlink:href="#a"/><use x="889.628648" y="176.008138" xlink:href="#a"/><use x="889.866842" y="175.40826" xlink:href="#a"/><use x="889.866842" y="174.808383" xlink:href="#a"/><use x="894.286306" y="174.208505" xlink:href="#a"/><use x="894.286306" y="173.608627" xlink:href="#a"/><use x="897.533454" y="173.008749" xlink:href="#a"/><use x="897.533454" y="172.408871" xlink:href="#a"/><use x="898.791845" y="171.808993" xlink:href="#a"/><use x="898.791845" y="171.209115" xlink:href="#a"/><use x="899.378542" y="170.609237" xlink:href="#a"/><use x="899.378542" y="170.009359" xlink:href="#a"/><use x="899.475287" y="169.409481" xlink:href="#a"/><use x="899.475287" y="168.809603" xlink:href="#a"/><use x="903.287487" y="168.209725" xlink:href="#a"/><use x="903.287487" y="167.609847" xlink:href="#a"/><use x="903.382246" y="167.009969" xlink:href="#a"/><use x="903.382246" y="166.410092" xlink:href="#a"/><use x="903.526959" y="165.810214" xlink:href="#a"/><use x="903.526959" y="165.210336" xlink:href="#a"/><use x="903.620876" y="164.610458" xlink:href="#a"/><use x="903.620876" y="164.01058" xlink:href="#a"/><use x="905.869236" y="163.410702" xlink:href="#a"/><use x="905.869236" y="162.810824" xlink:href="#a"/><use x="906.938176" y="162.210946" xlink:href="#a"/><use x="906.938176" y="161.611068" xlink:href="#a"/><use x="916.486535" y="161.01119" xlink:href="#a"/><use x="916.486535" y="160.411312" xlink:href="#a"/><use x="925.50495" y="159.811434" xlink:href="#a"/><use x="925.50495" y="159.211556" xlink:href="#a"/><use x="925.983188" y="158.611679" xlink:href="#a"/><use x="925.983188" y="158.011801" xlink:href="#a"/><use x="926.271874" y="157.411923" xlink:href="#a"/><use x="926.271874" y="156.812045" xlink:href="#a"/><use x="929.03762" y="156.212167" xlink:href="#a"/><use x="929.03762" y="155.612289" xlink:href="#a"/><use x="937.232897" y="155.012411" xlink:href="#a"/><use x="937.232897" y="154.412533" xlink:href="#a"/><use x="938.296653" y="153.812655" xlink:href="#a"/><use x="938.296653" y="153.212777" xlink:href="#a"/><use x="940.430595" y="152.612899" xlink:href="#a"/><use x="940.430595" y="152.013021" xlink:href="#a"/><use x="941.155206" y="151.413143" xlink:href="#a"/><use x="941.155206" y="150.813266" xlink:href="#a"/><use x="941.494318" y="150.213388" xlink:href="#a"/><use x="941.494318" y="149.61351" xlink:href="#a"/><use x="943.00164" y="149.013632" xlink:href="#a"/><use x="943.00164" y="148.413754" xlink:href="#a"/><use x="943.286354" y="147.813876" xlink:href="#a"/><use x="943.286354" y="147.213998" xlink:href="#a"/><use x="947.12205" y="146.61412" xlink:href="#a"/><use x="947.12205" y="146.014242" xlink:href="#a"/><use x="949.153222" y="145.414364" xlink:href="#a"/><use x="949.153222" y="144.814486" xlink:href="#a"/><use x="949.298373" y="144.214608" xlink:href="#a"/><use x="949.298373" y="143.61473" xlink:href="#a"/><use x="949.445846" y="143.014852" xlink:href="#a"/><use x="949.445846" y="142.414975" xlink:href="#a"/><use x="950.950711" y="141.815097" xlink:href="#a"/><use x="950.950711" y="141.215219" xlink:href="#a"/><use x="955.119292" y="140.615341" xlink:href="#a"/><use x="955.119292" y="140.015463" xlink:href="#a"/><use x="957.882076" y="139.415585" xlink:href="#a"/><use x="957.882076" y="138.815707" xlink:href="#a"/><use x="960.790314" y="138.215829" xlink:href="#a"/><use x="960.790314" y="137.615951" xlink:href="#a"/><use x="963.211461" y="137.016073" xlink:href="#a"/><use x="963.211461" y="136.416195" xlink:href="#a"/><use x="963.598811" y="135.816317" xlink:href="#a"/><use x="963.598811" y="135.216439" xlink:href="#a"/><use x="963.940481" y="134.616562" xlink:href="#a"/><use x="963.940481" y="134.016684" xlink:href="#a"/><use x="969.852827" y="133.416806" xlink:href="#a"/><use x="969.852827" y="132.816928" xlink:href="#a"/><use x="970.044768" y="132.21705" xlink:href="#a"/><use x="970.044768" y="131.617172" xlink:href="#a"/><use x="970.238763" y="131.017294" xlink:href="#a"/><use x="970.238763" y="130.417416" xlink:href="#a"/><use x="978.096341" y="129.817538" xlink:href="#a"/><use x="978.096341" y="129.21766" xlink:href="#a"/><use x="981.921366" y="128.617782" xlink:href="#a"/><use x="981.921366" y="128.017904" xlink:href="#a"/><use x="982.356281" y="127.418026" xlink:href="#a"/><use x="982.356281" y="126.818149" xlink:href="#a"/><use x="984.540211" y="126.218271" xlink:href="#a"/><use x="984.540211" y="125.618393" xlink:href="#a"/><use x="985.752215" y="125.018515" xlink:href="#a"/><use x="985.752215" y="124.418637" xlink:href="#a"/><use x="986.673615" y="123.818759" xlink:href="#a"/><use x="986.673615" y="123.218881" xlink:href="#a"/><use x="996.269437" y="122.619003" xlink:href="#a"/><use x="996.269437" y="122.019125" xlink:href="#a"/><use x="996.899187" y="121.419247" xlink:href="#a"/><use x="996.899187" y="120.819369" xlink:href="#a"/><use x="1003.056458" y="120.219491" xlink:href="#a"/><use x="1003.056458" y="119.619613" xlink:href="#a"/><use x="1003.393753" y="119.019736" xlink:href="#a"/><use x="1003.393753" y="118.419858" xlink:href="#a"/><use x="1006.786826" y="117.81998" xlink:href="#a"/><use x="1006.786826" y="117.220102" xlink:href="#a"/><use x="1007.077801" y="116.620224" xlink:href="#a"/><use x="1007.077801" y="116.020346" xlink:href="#a"/><use x="1009.165559" y="115.420468" xlink:href="#a"/><use x="1009.165559" y="114.82059" xlink:href="#a"/><use x="1009.695232" y="114.220712" xlink:href="#a"/><use x="1009.695232" y="113.620834" xlink:href="#a"/><use x="1013.870007" y="113.020956" xlink:href="#a"/><use x="1013.870007" y="112.421078" xlink:href="#a"/><use x="1016.24056" y="111.8212" xlink:href="#a"/><use x="1016.24056" y="111.221322" xlink:href="#a"/><use x="1016.482557" y="110.621445" xlink:href="#a"/><use x="1016.482557" y="110.021567" xlink:href="#a"/><use x="1016.967123" y="109.421689" xlink:href="#a"/><use x="1016.967123" y="108.821811" xlink:href="#a"/><use x="1021.572133" y="108.221933" xlink:href="#a"/><use x="1021.572133" y="107.622055" xlink:href="#a"/><use x="1022.063802" y="107.022177" xlink:href="#a"/><use x="1022.063802" y="106.422299" xlink:href="#a"/><use x="1022.735866" y="105.822421" xlink:href="#a"/><use x="1022.735866" y="105.222543" xlink:href="#a"/><use x="1024.726273" y="104.622665" xlink:href="#a"/><use x="1024.726273" y="104.022787" xlink:href="#a"/><use x="1027.049228" y="103.422909" xlink:href="#a"/><use x="1027.049228" y="102.823032" xlink:href="#a"/><use x="1028.4559" y="102.223154" xlink:href="#a"/><use x="1028.4559" y="101.623276" xlink:href="#a"/><use x="1031.469029" y="101.023398" xlink:href="#a"/><use x="1031.469029" y="100.42352" xlink:href="#a"/><use x="1037.188457" y="99.823642" xlink:href="#a"/><use x="1037.188457" y="99.223764" xlink:href="#a"/><use x="1042.076734" y="98.623886" xlink:href="#a"/><use x="1042.076734" y="98.024008" xlink:href="#a"/><use x="1042.415442" y="97.42413" xlink:href="#a"/><use x="1042.415442" y="96.824252" xlink:href="#a"/><use x="1042.899773" y="96.224374" xlink:href="#a"/><use x="1042.899773" y="95.624496" xlink:href="#a"/><use x="1045.380165" y="95.024619" xlink:href="#a"/><use x="1045.380165" y="94.424741" xlink:href="#a"/><use x="1049.445504" y="93.824863" xlink:href="#a"/><use x="1049.445504" y="93.224985" xlink:href="#a"/><use x="1051.6737" y="92.625107" xlink:href="#a"/><use x="1051.6737" y="92.025229" xlink:href="#a"/><use x="1051.916135" y="91.425351" xlink:href="#a"/><use x="1051.916135" y="90.825473" xlink:href="#a"/><use x="1052.255382" y="90.225595" xlink:href="#a"/><use x="1052.255382" y="89.625717" xlink:href="#a"/><use x="1053.612672" y="89.025839" xlink:href="#a"/><use x="1053.612672" y="88.425961" xlink:href="#a"/><use x="1053.952894" y="87.826083" xlink:href="#a"/><use x="1053.952894" y="87.226205" xlink:href="#a"/><use x="1054.436518" y="86.626328" xlink:href="#a"/><use x="1054.436518" y="86.02645" xlink:href="#a"/><use x="1056.56945" y="85.426572" xlink:href="#a"/><use x="1056.56945" y="84.826694" xlink:href="#a"/><use x="1056.811716" y="84.226816" xlink:href="#a"/><use x="1056.811716" y="83.626938" xlink:href="#a"/><use x="1057.055127" y="83.02706" xlink:href="#a"/><use x="1057.055127" y="82.427182" xlink:href="#a"/><use x="1064.470553" y="81.827304" xlink:href="#a"/><use x="1064.470553" y="81.227426" xlink:href="#a"/><use x="1064.712247" y="80.627548" xlink:href="#a"/><use x="1064.712247" y="80.02767" xlink:href="#a"/><use x="1065.439315" y="79.427792" xlink:href="#a"/><use x="1065.439315" y="78.827915" xlink:href="#a"/><use x="1065.681716" y="78.228037" xlink:href="#a"/><use x="1065.681716" y="77.628159" xlink:href="#a"/><use x="1071.506102" y="77.028281" xlink:href="#a"/><use x="1071.506102" y="76.428403" xlink:href="#a"/><use x="1071.507819" y="75.828525" xlink:href="#a"/><use x="1071.507819" y="75.228647" xlink:href="#a"/><use x="1074.892006" y="74.628769" xlink:href="#a"/><use x="1074.892006" y="74.028891" xlink:href="#a"/><use x="1075.13747" y="73.429013" xlink:href="#a"/><use x="1075.13747" y="72.829135" xlink:href="#a"/><use x="1076.442583" y="72.229257" xlink:href="#a"/><use x="1076.442583" y="71.629379" xlink:href="#a"/><use x="1076.686028" y="71.029502" xlink:href="#a"/><use x="1076.686028" y="70.429624" xlink:href="#a"/><use x="1077.077047" y="69.829746" xlink:href="#a"/><use x="1077.077047" y="69.229868" xlink:href="#a"/><use x="1080.987776" y="68.62999" xlink:href="#a"/><use x="1080.987776" y="68.030112" xlink:href="#a"/><use x="1081.679835" y="67.430234" xlink:href="#a"/><use x="1081.679835" y="66.830356" xlink:href="#a"/><use x="1081.872753" y="66.230478" xlink:href="#a"/><use x="1081.872753" y="65.6306" xlink:href="#a"/><use x="1082.115457" y="65.030722" xlink:href="#a"/><use x="1082.115457" y="64.430844" xlink:href="#a"/><use x="1082.528356" y="63.830966" xlink:href="#a"/><use x="1082.528356" y="63.231089" xlink:href="#a"/><use x="1084.807517" y="62.631211" xlink:href="#a"/><use x="1084.807517" y="62.031333" xlink:href="#a"/><use x="1085.513478" y="61.431455" xlink:href="#a"/><use x="1085.513478" y="60.831577" xlink:href="#a"/><use x="1085.804992" y="60.231699" xlink:href="#a"/><use x="1085.804992" y="59.631821" xlink:href="#a"/><use x="1085.944993" y="59.031943" xlink:href="#a"/><use x="1085.944993" y="58.432065" xlink:href="#a"/><use x="1088.657553" y="57.832187" xlink:href="#a"/><use x="1088.657553" y="57.232309" xlink:href="#a"/><use x="1089.869961" y="56.632431" xlink:href="#a"/><use x="1089.869961" y="56.032553" xlink:href="#a"/><use x="1091.032516" y="55.432675" xlink:href="#a"/><use x="1091.032516" y="54.832798" xlink:href="#a"/><use x="1092.1981" y="54.23292" xlink:href="#a"/><use x="1092.1981" y="53.633042" xlink:href="#a"/><use x="1094.864644" y="53.033164" xlink:href="#a"/><use x="1094.864644" y="52.433286" xlink:href="#a"/><use x="1095.253105" y="51.833408" xlink:href="#a"/><use x="1095.253105" y="51.23353" xlink:href="#a"/><use x="1096.517723" y="50.633652" xlink:href="#a"/><use x="1096.517723" y="50.033774" xlink:href="#a"/><use x="1097.002558" y="49.433896" xlink:href="#a"/><use x="1097.002558" y="48.834018" xlink:href="#a"/><use x="1101.073923" y="48.23414" xlink:href="#a"/><use x="1101.073923" y="47.634262" xlink:href="#a"/><use x="1102.381023" y="47.034385" xlink:href="#a"/><use x="1102.381023" y="46.434507" xlink:href="#a"/><use x="1103.101796" y="45.834629" xlink:href="#a"/><use x="1103.101796" y="45.234751" xlink:href="#a"/><use x="1103.155621" y="44.634873" xlink:href="#a"/><use x="1103.155621" y="44.034995" xlink:href="#a"/><use x="1103.867575" y="43.435117" xlink:href="#a"/><use x="1103.867575" y="42.835239" xlink:href="#a"/><use x="1106.744709" y="42.235361" xlink:href="#a"/><use x="1106.744709" y="41.635483" xlink:href="#a"/><use x="1106.819776" y="41.035605" xlink:href="#a"/><use x="1106.819776" y="40.435727" xlink:href="#a"/><use x="1106.841824" y="39.835849" xlink:href="#a"/><use x="1106.841824" y="39.235972" xlink:href="#a"/><use x="1107.613259" y="38.636094" xlink:href="#a"/><use x="1107.613259" y="38.036216" xlink:href="#a"/><use x="1108.174272" y="37.436338" xlink:href="#a"/><use x="1108.174272" y="36.83646" xlink:href="#a"/><use x="1108.536375" y="36.236582" xlink:href="#a"/><use x="1108.536375" y="35.636704" xlink:href="#a"/><use x="1109.941734" y="35.036826" xlink:href="#a"/><use x="1109.941734" y="34.436948" xlink:href="#a"/></g><path d="m55.296 609.12v-589.68" fill="none" stroke="#000" stroke-linecap="square" stroke-width=".8"/><path d="m1140.5 609.12v-589.68" fill="none" stroke="#000" stroke-linecap="square" stroke-width=".8"/><path d="m55.296 609.12h1085.2" fill="none" stroke="#000" stroke-linecap="square" stroke-width=".8"/><path d="m55.296 19.44h1085.2" fill="none" stroke="#000" stroke-linecap="square" stroke-width=".8"/><g transform="translate(389.29 13.44) scale(.12 -.12)"><defs><path id="o" transform="scale(.015625)" d="m581 3500h578v-1428h1866v1428h578v-3500h-578v1613h-1866v-1613h-578v3500z"/><path id="ah" transform="scale(.015625)" d="m581 3500h572v-1644l1622 1644h706l-1337-1353 1509-2147h-644l-1240 1766-616-625v-1141h-572v3500z"/><path id="p" transform="scale(.015625)" d="m2194 1759q-697 0-966-159t-269-544q0-306 202-486 202-179 548-179 479 0 768 339t289 901v128h-572zm1147 238v-1997h-575v531q-197-318-491-470t-719-152q-537 0-855 302-317 302-317 808 0 590 395 890 396 300 1180 300h807v57q0 397-261 614t-733 217q-300 0-585-72-284-72-546-216v532q315 122 612 182 297 61 578 61 760 0 1135-394 375-393 375-1193z"/><path id="aj" transform="scale(.015625)" d="m1991 3584q750 0 1178-488 428-487 428-1349 0-859-428-1349-428-489-1178-489-753 0-1169 475t-438 1363l-18 716q-16 371-16 500 0 500 181 868 285 578 777 828t1317 257q381 3 550 56l159-456q-153-63-293-66l-782-53q-393-28-631-166-622-365-681-843l-22-175q406 371 1066 371zm0-487q-463 0-732-361-268-361-268-989t267-989 733-361q459 0 728 362 269 363 269 988 0 622-269 986t-728 364z"/><path id="n" transform="scale(.015625)" d="m2781 1038q0 281-205 428-204 147-598 147h-819v-1154h819q394 0 598 148 205 149 205 431zm-2200 2462h578v-1428h844q669 0 1030-255 361-254 361-779t-361-782q-361-256-1030-256h-1422v3500z"/><path id="ad" transform="scale(.015625)" d="m684 794h660v-794h-660v794z"/><path id="ak" transform="scale(.015625)" d="m1284 3322q0-409 233-620t689-211h982v1656h-982q-456 0-689-208t-233-617zm-859-3322 1275 2041q-312 81-712 345t-400 936q0 644 406 994t1212 350h1613v-4666h-631v1972h-844l-1231-1972h-688z"/><path id="am" transform="scale(.015625)" d="m2597 2516q453-97 707-404 255-306 255-756 0-690-475-1069-475-378-1350-378-293 0-604 58t-642 174v609q262-153 574-231 313-78 654-78 593 0 904 234t311 681q0 413-289 645-289 233-804 233h-544v519h569q465 0 712 186t247 536q0 359-255 551-254 193-729 193-260 0-557-57-297-56-653-174v562q360 100 674 150t592 50q719 0 1137-327 419-326 419-882 0-388-222-655t-631-370z"/></defs><use xlink:href="#m"/><use x="68.603516" xlink:href="#o"/><use x="133.984375" xlink:href="#k"/><use x="195.507812" xlink:href="#ah"/><use x="255.908203" xlink:href="#j"/><use x="317.089844" xlink:href="#t"/><use x="380.566406" xlink:href="#p"/><use x="441.845703" xlink:href="#aj"/><use x="503.515625" xlink:href="#k"/><use x="565.039062" xlink:href="#u"/><use x="628.955078" xlink:href="#n"/><use x="687.890625" xlink:href="#o"/><use x="753.271484" xlink:href="#p"/><use x="814.550781" xlink:href="#q"/><use x="874.707031" xlink:href="#DejaVuSans-20"/><use x="906.494141" xlink:href="#v"/><use x="975.634766" xlink:href="#k"/><use x="1037.158203" xlink:href="#q"/><use x="1097.314453" xlink:href="#r"/><use x="1155.566406" xlink:href="#k"/><use x="1217.089844" xlink:href="#u"/><use x="1281.005859" xlink:href="#n"/><use x="1339.941406" xlink:href="#o"/><use x="1405.322266" xlink:href="#j"/><use x="1466.503906" xlink:href="#s"/><use x="1521.484375" xlink:href="#r"/><use x="1579.736328" xlink:href="#n"/><use x="1638.671875" xlink:href="#ad"/><use x="1670.458984" xlink:href="#DejaVuSans-20"/><use x="1702.246094" xlink:href="#m"/><use x="1770.849609" xlink:href="#s"/><use x="1825.830078" xlink:href="#k"/><use x="1887.353516" xlink:href="#w"/><use x="1939.892578" xlink:href="#j"/><use x="2001.074219" xlink:href="#DejaVuSans-20"/><use x="2032.861328" xlink:href="#f"/><use x="2096.484375" xlink:href="#i"/><use x="2160.107422" xlink:href="#i"/><use x="2223.730469" xlink:href="#DejaVuSans-20"/><use x="2255.517578" xlink:href="#m"/><use x="2324.121094" xlink:href="#x"/><use x="2395.117188" xlink:href="#aa"/><use x="2473.242188" xlink:href="#ad"/><use x="2505.029297" xlink:href="#DejaVuSans-20"/><use x="2536.816406" xlink:href="#ak"/><use x="2606.298828" xlink:href="#o"/><use x="2671.679688" xlink:href="#z"/><use x="2730.615234" xlink:href="#p"/><use x="2791.894531" xlink:href="#t"/><use x="2855.371094" xlink:href="#n"/><use x="2914.306641" xlink:href="#DejaVuSans-20"/><use x="2946.09375" xlink:href="#g"/><use x="3009.716797" xlink:href="#d"/><use x="3073.339844" xlink:href="#g"/><use x="3136.962891" xlink:href="#am"/><use x="3200.585938" xlink:href="#DejaVuSans-20"/><use x="3232.373047" xlink:href="#w"/><use x="3284.912109" xlink:href="#j"/><use x="3346.09375" xlink:href="#v"/><use x="3415.234375" xlink:href="#p"/></g><defs><clipPath id="c"><rect x="55.296" y="19.44" width="1085.2" height="589.68"/></clipPath></defs></svg>
