<?xml version="1.0" encoding="UTF-8"?>
<!DOCTYPE svg  PUBLIC '-//W3C//DTD SVG 1.1//EN'  'http://www.w3.org/Graphics/SVG/1.1/DTD/svg11.dtd'>
<svg height="648pt" stroke-linejoin="round" viewBox="0 0 1152 648" width="1152pt" xmlns="http://www.w3.org/2000/svg" xmlns:xlink="http://www.w3.org/1999/xlink"><defs stroke-linejoin="round"><clipPath id="a" stroke-linejoin="round"><path d="m55.296 19.44h1085.2v589.68h-1085.2z"/></clipPath><path id="b" d="m0 0v3.5" stroke="#000" stroke-linejoin="round" stroke-width=".8"/><path id="c" d="m12.406 8.2969h16.109v55.625l-17.531-3.5156v8.9844l17.438 3.5156h9.8594v-64.609h16.109v-8.2969h-41.984z" stroke-linejoin="round"/><path id="d" d="m10.984 1.5156v8.9844q3.7188-1.7656 7.5156-2.6875 3.8125-.92188 7.4844-.92188 9.7656 0 14.906 6.5625 5.1562 6.5625 5.8906 19.953-2.8281-4.2031-7.1875-6.4531-4.3438-2.25-9.6094-2.25-10.938 0-17.312 6.6094-6.375 6.625-6.375 18.109 0 11.219 6.6406 18 6.6406 6.7969 17.672 6.7969 12.656 0 19.312-9.7031 6.6719-9.6875 6.6719-28.141 0-17.234-8.1875-27.516-8.1719-10.281-21.984-10.281-3.7188 0-7.5312.73438-3.7969.73438-7.9062 2.2031zm19.625 30.906q6.6406 0 10.516 4.5312 3.8906 4.5469 3.8906 12.469 0 7.8594-3.8906 12.422-3.875 4.5625-10.516 4.5625t-10.516-4.5625-3.875-12.422q0-7.9219 3.875-12.469 3.875-4.5312 10.516-4.5312z" stroke-linejoin="round"/><path id="e" d="m33.016 40.375q-6.6406 0-10.531-4.5469-3.875-4.5312-3.875-12.438 0-7.8594 3.875-12.438 3.8906-4.5625 10.531-4.5625t10.516 4.5625q3.875 4.5781 3.875 12.438 0 7.9062-3.875 12.438-3.875 4.5469-10.516 4.5469zm19.578 30.922v-8.9844q-3.7188 1.75-7.5 2.6719-3.7812.9375-7.5.9375-9.7656 0-14.922-6.5938-5.1406-6.5938-5.875-19.922 2.875 4.25 7.2188 6.5156 4.3594 2.2656 9.5781 2.2656 10.984 0 17.359-6.6719 6.375-6.6562 6.375-18.125 0-11.234-6.6406-18.031-6.6406-6.7812-17.672-6.7812-12.656 0-19.344 9.6875-6.6875 9.7031-6.6875 28.109 0 17.281 8.2031 27.562t22.016 10.281q3.7188 0 7.5-.73438t7.8906-2.1875z" stroke-linejoin="round"/><path id="f" d="m31.781 66.406q-7.6094 0-11.453-7.5-3.8281-7.4844-3.8281-22.531 0-14.984 3.8281-22.484 3.8438-7.5 11.453-7.5 7.6719 0 11.5 7.5 3.8438 7.5 3.8438 22.484 0 15.047-3.8438 22.531-3.8281 7.5-11.5 7.5zm0 7.8125q12.266 0 18.734-9.7031 6.4688-9.6875 6.4688-28.141 0-18.406-6.4688-28.109-6.4688-9.6875-18.734-9.6875-12.25 0-18.719 9.6875-6.4688 9.7031-6.4688 28.109 0 18.453 6.4688 28.141 6.4688 9.7031 18.719 9.7031z" stroke-linejoin="round"/><path id="g" d="m10.797 72.906h38.719v-8.3125h-29.688v-17.859q2.1406.73438 4.2812 1.0938 2.1562.35938 4.3125.35938 12.203 0 19.328-6.6875 7.1406-6.6875 7.1406-18.109 0-11.766-7.3281-18.297-7.3281-6.5156-20.656-6.5156-4.5938 0-9.3594.78125-4.75.78125-9.8281 2.3438v9.9219q4.3906-2.3906 9.0781-3.5625t9.9062-1.1719q8.4531 0 13.375 4.4375 4.9375 4.4375 4.9375 12.062 0 7.6094-4.9375 12.047-4.9219 4.4531-13.375 4.4531-3.9531 0-7.8906-.875-3.9219-.875-8.0156-2.7344z" stroke-linejoin="round"/><path id="h" d="m8.2031 72.906h46.875v-4.2031l-26.469-68.703h-10.297l24.906 64.594h-35.016z" stroke-linejoin="round"/><path id="i" d="m31.781 34.625q-7.0312 0-11.062-3.7656-4.0156-3.7656-4.0156-10.344 0-6.5938 4.0156-10.359 4.0312-3.7656 11.062-3.7656t11.078 3.7812q4.0625 3.7969 4.0625 10.344 0 6.5781-4.0312 10.344-4.0156 3.7656-11.109 3.7656zm-9.8594 4.1875q-6.3438 1.5625-9.8906 5.9062-3.5312 4.3594-3.5312 10.609 0 8.7344 6.2188 13.812 6.2344 5.0781 17.062 5.0781 10.891 0 17.094-5.0781t6.2031-13.812q0-6.25-3.5469-10.609-3.5312-4.3438-9.8281-5.9062 7.125-1.6562 11.094-6.5 3.9844-4.8281 3.9844-11.797 0-10.609-6.4688-16.281-6.4688-5.6562-18.531-5.6562-12.047 0-18.531 5.6562-6.4688 5.6719-6.4688 16.281 0 6.9688 4 11.797 4.0156 4.8438 11.141 6.5zm-3.6094 15.578q0-5.6562 3.5312-8.8281 3.5469-3.1719 9.9375-3.1719 6.3594 0 9.9375 3.1719 3.5938 3.1719 3.5938 8.8281 0 5.6719-3.5938 8.8438-3.5781 3.1719-9.9375 3.1719-6.3906 0-9.9375-3.1719-3.5312-3.1719-3.5312-8.8438z" stroke-linejoin="round"/><path id="j" d="m19.188 8.2969h34.422v-8.2969h-46.281v8.2969q5.6094 5.8125 15.297 15.594 9.7031 9.7969 12.188 12.641 4.7344 5.3125 6.6094 9 1.8906 3.6875 1.8906 7.25 0 5.8125-4.0781 9.4688-4.0781 3.6719-10.625 3.6719-4.6406 0-9.7969-1.6094-5.1406-1.6094-11-4.8906v9.9688q5.9531 2.3906 11.125 3.6094 5.1875 1.2188 9.4844 1.2188 11.328 0 18.062-5.6719 6.7344-5.6562 6.7344-15.125 0-4.5-1.6875-8.5312-1.6719-4.0156-6.125-9.4844-1.2188-1.4219-7.7656-8.1875-6.5312-6.7656-18.453-18.922z" stroke-linejoin="round"/><path id="k" d="m0 0v2" stroke="#000" stroke-linejoin="round" stroke-width=".6"/><path id="l" d="m19.672 34.812v-26.703h15.828q7.9531 0 11.781 3.2969 3.8438 3.2969 3.8438 10.078 0 6.8438-3.8438 10.078-3.8281 3.25-11.781 3.25zm0 29.984v-21.969h14.609q7.2188 0 10.75 2.7031 3.5469 2.7188 3.5469 8.2812 0 5.5156-3.5469 8.25-3.5312 2.7344-10.75 2.7344zm-9.8594 8.1094h25.203q11.281 0 17.375-4.6875 6.1094-4.6875 6.1094-13.328 0-6.7031-3.125-10.656t-9.1875-4.9219q7.2812-1.5625 11.312-6.5312 4.0312-4.9531 4.0312-12.375 0-9.7656-6.6406-15.094-6.6406-5.3125-18.906-5.3125h-26.172z" stroke-linejoin="round"/><path id="m" d="m18.109 8.2031v-29h-9.0312v75.484h9.0312v-8.2969q2.8438 4.875 7.1562 7.2344 4.3281 2.375 10.328 2.375 9.9688 0 16.188-7.9062 6.2344-7.9062 6.2344-20.797t-6.2344-20.812q-6.2188-7.9062-16.188-7.9062-6 0-10.328 2.375-4.3125 2.375-7.1562 7.25zm30.578 19.094q0 9.9062-4.0781 15.547t-11.203 5.6406q-7.1406 0-11.219-5.6406t-4.0781-15.547 4.0781-15.547 11.219-5.6406q7.125 0 11.203 5.6406t4.0781 15.547z" stroke-linejoin="round"/><path id="n" d="m56.203 29.594v-4.3906h-41.312q.59375-9.2812 5.5938-14.141t13.938-4.8594q5.1719 0 10.031 1.2656t9.6562 3.8125v-8.5q-4.8438-2.0469-9.9219-3.125t-10.297-1.0781q-13.094 0-20.734 7.6094-7.6406 7.625-7.6406 20.625 0 13.422 7.25 21.297 7.25 7.8906 19.562 7.8906 11.031 0 17.453-7.1094 6.4219-7.0938 6.4219-19.297zm-8.9844 2.6406q-.09375 7.3594-4.125 11.75-4.0312 4.4062-10.672 4.4062-7.5156 0-12.031-4.25t-5.2031-11.969z" stroke-linejoin="round"/><path id="o" d="m9.0781 54.688h13.141l15.531-36.625 15.578 36.625h13.031v-54.688h-9.0312v46.094l-15.094-35.594h-8.9844l-15.141 35.594v-46.094h-9.0312z" stroke-linejoin="round"/><path id="p" d="m18.453 38.922q0-4.0625 3.125-6.3594 3.125-2.2812 8.9375-2.2812h12.109v17.234h-12.109q-5.8125 0-8.9375-2.25t-3.125-6.3438zm-12.781-38.922 16.688 23.969q-5.6562 1.2812-9.4219 4.625-3.75 3.3438-3.75 10.328 0 7.9062 5.2344 11.828 5.25 3.9375 15.859 3.9375h21.375v-54.688h-9.0312v23.094h-11.172l-16.125-23.094z" stroke-linejoin="round"/><path id="q" d="m11.719 12.406h10.297v-8.4062l-8-15.625h-6.2969l4 15.625z" stroke-linejoin="round"/><path id="r" d="m9.0781 0v54.688h38.578v-7.1719h-29.547v-47.516z" stroke-linejoin="round"/><path id="s" d="m30.609 48.391q-7.2188 0-11.422-5.6406t-4.2031-15.453 4.1719-15.453q4.1875-5.6406 11.453-5.6406 7.1875 0 11.375 5.6562 4.2031 5.6719 4.2031 15.438 0 9.7188-4.2031 15.406-4.1875 5.6875-11.375 5.6875zm0 7.6094q11.719 0 18.406-7.625 6.7031-7.6094 6.7031-21.078 0-13.422-6.7031-21.078-6.6875-7.6406-18.406-7.6406-11.766 0-18.438 7.6406-6.6562 7.6562-6.6562 21.078 0 13.469 6.6562 21.078 6.6719 7.625 18.438 7.625z" stroke-linejoin="round"/><path id="t" d="m21.625 7.1719h26.078v40.344h-18.891v-6.8438q0-20.109-5.7656-30.859zm-13.031 0q4.4375 1.9531 6.3906 6.1094 4.7969 10.297 4.7969 31.062v10.344h36.953v-47.516h7.1875v-20.984h-7.1875v13.812h-44.328v-13.812h-7.1875v20.984z" stroke-linejoin="round"/><path id="u" d="m61.047 54.688h8.9844v-54.688h-8.9844zm-17.594-38.4685q0 4.3906-3.2031 6.6875-3.1875 2.2969-9.3438 2.2969h-12.797v-18.031h12.797q6.1562 0 9.3438 2.3125 3.2031 2.3281 3.2031 6.7344zm-34.375 38.469h9.0312v-22.312h13.188q10.453 0 16.094-3.9844 5.6406-3.9688 5.6406-12.172t-5.6406-12.219q-5.6406-4-16.094-4h-22.219z" stroke-linejoin="round"/><path id="v" d="m0 0h-3.5" stroke="#000" stroke-linejoin="round" stroke-width=".8"/><path id="w" d="m40.578 39.312q7.0781-1.5156 11.047-6.3125 3.9844-4.7812 3.9844-11.812 0-10.781-7.4219-16.703-7.4219-5.9062-21.094-5.9062-4.5781 0-9.4375.90625t-10.031 2.7188v9.5156q4.0938-2.3906 8.9688-3.6094 4.8906-1.2188 10.219-1.2188 9.2656 0 14.125 3.6562t4.8594 10.641q0 6.4531-4.5156 10.078-4.5156 3.6406-12.562 3.6406h-8.5v8.1094h8.8906q7.2656 0 11.125 2.9062t3.8594 8.375q0 5.6094-3.9844 8.6094-3.9688 3.0156-11.391 3.0156-4.0625 0-8.7031-.89062-4.6406-.875-10.203-2.7188v8.7812q5.625 1.5625 10.531 2.3438t9.25.78125q11.234 0 17.766-5.1094 6.5469-5.0938 6.5469-13.781 0-6.0625-3.4688-10.234t-9.8594-5.7812z" stroke-linejoin="round"/><path id="x" d="m9.8125 72.906h9.8594v-36.047l35.266 36.047h12.641l-28.172-28.812 29.641-44.094h-10.75l-25.281 37.547-13.344-13.625v-23.922h-9.8594z" stroke-linejoin="round"/><path id="y" d="m3.7188 0v7.4688q8.875 1.375 11.609 7.5156 3.3281 8.6562 3.3281 30.766v8.9375h36.953v-54.688h-8.9844v47.516h-18.984v-5.4219q0-21.094-4.2969-30.562-4.5938-10.109-19.625-11.531z" stroke-linejoin="round"/><path id="z" d="m55.906 54.688v-54.688h-8.9375v43.891l-26.359-43.891h-11.531v54.688h8.9375v-43.797l26.328 43.797z" stroke-linejoin="round"/><path id="A" d="m41.016 0v23h-16.75q-7.4688 0-12.453 4.6406-4.4844 4.2031-4.4844 13.188v13.859h8.9844v-13.031q0-5.7188 2.5312-8.5938 2.5938-2.8906 7.6719-2.8906h14.5v24.516h8.9844v-54.688z" stroke-linejoin="round"/><path id="B" d="m48.781 52.594v-8.4062q-3.8125 2.1094-7.6406 3.1562t-7.7344 1.0469q-8.75 0-13.594-5.5469-4.8281-5.5312-4.8281-15.547t4.8281-15.562q4.8438-5.5312 13.594-5.5312 3.9062 0 7.7344 1.0469t7.6406 3.1562v-8.3125q-3.7656-1.75-7.7969-2.625-4.0156-.89062-8.5625-.89062-12.359 0-19.641 7.7656-7.2656 7.7656-7.2656 20.953 0 13.375 7.3438 21.031 7.3594 7.6719 20.156 7.6719 4.1406 0 8.0938-.85938 3.9531-.84375 7.6719-2.5469z" stroke-linejoin="round"/><path id="C" d="m2.9375 54.688h52.391v-7.1719h-21.781v-47.516h-8.8438v47.516h-21.766z" stroke-linejoin="round"/><path id="D" d="m18.062 25.203v-18.031h12.797q6.1562 0 9.375 2.3125 3.2188 2.3281 3.2188 6.7344 0 4.3906-3.2188 6.6875t-9.375 2.2969zm0 22.312v-15.141h11.828q5.0781 0 8.2969 2.0156 3.2188 2.0312 3.2188 5.6562 0 3.6094-3.2188 5.5312-3.2188 1.9375-8.2969 1.9375zm-8.9844 7.1719h21.391q9.625 0 14.797-3.5156t5.1719-10.016q0-5.0156-2.6406-7.9844-2.625-2.9531-7.8125-3.6719 6.2031-1.1719 9.625-4.8906 3.4219-3.7031 3.4219-9.2812 0-7.3125-5.6406-11.328-5.6406-4-16.094-4h-22.219z" stroke-linejoin="round"/><path id="E" d="m56.297 54.688v-54.688h-9.0312v47.516h-29.156v-47.516h-9.0312v54.688z" stroke-linejoin="round"/><path id="F" d="m34.281 27.484q-10.891 0-15.094-2.4844t-4.2031-8.5q0-4.7812 3.1562-7.5938 3.1562-2.7969 8.5625-2.7969 7.4844 0 12 5.2969t4.5156 14.078v2zm17.922 3.7188v-31.203h-8.9844v8.2969q-3.0781-4.9688-7.6719-7.3438t-11.234-2.375q-8.3906 0-13.359 4.7188-4.9531 4.7188-4.9531 12.625 0 9.2188 6.1719 13.906 6.1875 4.6875 18.438 4.6875h12.609v.89062q0 6.2031-4.0781 9.5938t-11.453 3.3906q-4.6875 0-9.1406-1.125-4.4375-1.125-8.5312-3.375v8.3125q4.9219 1.9062 9.5625 2.8438 4.6406.95312 9.0312.95312 11.875 0 17.734-6.1562 5.8594-6.1406 5.8594-18.641z" stroke-linejoin="round"/><path id="G" d="m9.0781 54.688h9.0312v-22.312h29.156v22.312h9.0312v-54.688h-9.0312v25.203h-29.156v-25.203h-9.0312z" stroke-linejoin="round"/><path id="H" d="m0 1.5c.3978 0 .77937-.15805 1.0607-.43934.28129-.28129.43934-.66286.43934-1.0607s-.15805-.77937-.43934-1.0607c-.28129-.28129-.66286-.43934-1.0607-.43934s-.77937.15805-1.0607.43934c-.28129.28129-.43934.66286-.43934 1.0607s.15805.77937.43934 1.0607c.28129.28129.66286.43934 1.0607.43934z" stroke="#bf00bf" stroke-linejoin="round"/><path id="I" d="m9.0781 54.688h8.9375v-25.688l25.344 25.688h11.031l-20.891-21.141 23.578-33.547h-10.062l-19.375 27.594-9.625-9.7656v-17.828h-8.9375z" stroke-linejoin="round"/><path id="J" d="m54.891 54.688-19.781-26.609 20.797-28.078h-10.594l-15.922 21.484-15.906-21.484h-10.609l21.25 28.609-19.438 26.078h10.594l14.5-19.484 14.5 19.484z" stroke-linejoin="round"/><path id="K" d="m10.688 12.406h10.312v-12.406h-10.312z" stroke-linejoin="round"/><path id="L" d="m37.797 64.312-24.906-38.922h24.906zm-2.5938 8.5938h12.406v-47.516h10.406v-8.2031h-10.406v-17.188h-9.8125v17.188h-32.906v9.5156z" stroke-linejoin="round"/><path id="M" d="m31.109 56q11.719 0 18.406-7.625 6.6875-7.6094 6.6875-21.078 0-13.422-6.6875-21.078-6.6875-7.6406-18.406-7.6406-11.766 0-18.266 7.4219t-6.8438 21.297l-.28125 11.188q-.25 5.7969-.25 7.8125 0 7.8125 2.8281 13.562 4.4531 9.0312 12.141 12.938t20.578 4.0156q5.9531.046875 8.5938.875l2.4844-7.125q-2.3906-.98438-4.5781-1.0312l-12.219-.82812q-6.1406-.4375-9.8594-2.5938-9.7188-5.7031-10.641-13.172l-.34375-2.7344q6.3438 5.7969 16.656 5.7969zm0-7.6094q-7.2344 0-11.438-5.6406-4.1875-5.6406-4.1875-15.453t4.1719-15.453 11.453-5.6406q7.1719 0 11.375 5.6562 4.2031 5.6719 4.2031 15.438 0 9.7188-4.2031 15.406t-11.375 5.6875z" stroke-linejoin="round"/><path id="N" d="m43.453 16.219q0 4.3906-3.2031 6.6875-3.1875 2.2969-9.3438 2.2969h-12.797v-18.031h12.797q6.1562 0 9.3438 2.3125 3.2031 2.3281 3.2031 6.7344zm-34.375 38.469h9.0312v-22.312h13.188q10.453 0 16.094-3.9844 5.6406-3.9688 5.6406-12.172t-5.6406-12.219q-5.6406-4-16.094-4h-22.219z" stroke-linejoin="round"/></defs><g stroke-linejoin="round"><path d="m0 648h1152v-648h-1152z" fill="#fff"/><path d="m55.296 609.12h1085.2v-589.68h-1085.2z" fill="#fff"/><path clip-path="url(#a)" d="m62.743 609.12v-589.68" fill="none" stroke="#b0b0b0" stroke-dasharray=".8 1.32" stroke-width=".8"/><use stroke="#000" stroke-width=".8" x="62.742675" xlink:href="#b" y="609.12"/><g transform="matrix(.1 0 0 -.1 50.018 623.72)"><use xlink:href="#c"/><use x="63.623047" xlink:href="#d"/><use x="127.246094" xlink:href="#e"/><use x="190.869141" xlink:href="#f"/></g><path clip-path="url(#a)" d="m146.34 609.12v-589.68" fill="none" stroke="#b0b0b0" stroke-dasharray=".8 1.32" stroke-width=".8"/><use stroke="#000" stroke-width=".8" x="146.340109" xlink:href="#b" y="609.12"/><g transform="matrix(.1 0 0 -.1 133.62 623.72)"><use xlink:href="#c"/><use x="63.623047" xlink:href="#d"/><use x="127.246094" xlink:href="#e"/><use x="190.869141" xlink:href="#g"/></g><path clip-path="url(#a)" d="m229.89 609.12v-589.68" fill="none" stroke="#b0b0b0" stroke-dasharray=".8 1.32" stroke-width=".8"/><use stroke="#000" stroke-width=".8" x="229.891787" xlink:href="#b" y="609.12"/><g transform="matrix(.1 0 0 -.1 217.17 623.72)"><use xlink:href="#c"/><use x="63.623047" xlink:href="#d"/><use x="127.246094" xlink:href="#h"/><use x="190.869141" xlink:href="#f"/></g><path clip-path="url(#a)" d="m313.44 609.12v-589.68" fill="none" stroke="#b0b0b0" stroke-dasharray=".8 1.32" stroke-width=".8"/><use stroke="#000" stroke-width=".8" x="313.443464" xlink:href="#b" y="609.12"/><g transform="matrix(.1 0 0 -.1 300.72 623.72)"><use xlink:href="#c"/><use x="63.623047" xlink:href="#d"/><use x="127.246094" xlink:href="#h"/><use x="190.869141" xlink:href="#g"/></g><path clip-path="url(#a)" d="m397 609.12v-589.68" fill="none" stroke="#b0b0b0" stroke-dasharray=".8 1.32" stroke-width=".8"/><use stroke="#000" stroke-width=".8" x="396.995141" xlink:href="#b" y="609.12"/><g transform="matrix(.1 0 0 -.1 384.27 623.72)"><use xlink:href="#c"/><use x="63.623047" xlink:href="#d"/><use x="127.246094" xlink:href="#i"/><use x="190.869141" xlink:href="#f"/></g><path clip-path="url(#a)" d="m480.59 609.12v-589.68" fill="none" stroke="#b0b0b0" stroke-dasharray=".8 1.32" stroke-width=".8"/><use stroke="#000" stroke-width=".8" x="480.592575" xlink:href="#b" y="609.12"/><g transform="matrix(.1 0 0 -.1 467.87 623.72)"><use xlink:href="#c"/><use x="63.623047" xlink:href="#d"/><use x="127.246094" xlink:href="#i"/><use x="190.869141" xlink:href="#g"/></g><path clip-path="url(#a)" d="m564.14 609.12v-589.68" fill="none" stroke="#b0b0b0" stroke-dasharray=".8 1.32" stroke-width=".8"/><use stroke="#000" stroke-width=".8" x="564.144252" xlink:href="#b" y="609.12"/><g transform="matrix(.1 0 0 -.1 551.42 623.72)"><use xlink:href="#c"/><use x="63.623047" xlink:href="#d"/><use x="127.246094" xlink:href="#d"/><use x="190.869141" xlink:href="#f"/></g><path clip-path="url(#a)" d="m647.7 609.12v-589.68" fill="none" stroke="#b0b0b0" stroke-dasharray=".8 1.32" stroke-width=".8"/><use stroke="#000" stroke-width=".8" x="647.695929" xlink:href="#b" y="609.12"/><g transform="matrix(.1 0 0 -.1 634.97 623.72)"><use xlink:href="#c"/><use x="63.623047" xlink:href="#d"/><use x="127.246094" xlink:href="#d"/><use x="190.869141" xlink:href="#g"/></g><path clip-path="url(#a)" d="m731.25 609.12v-589.68" fill="none" stroke="#b0b0b0" stroke-dasharray=".8 1.32" stroke-width=".8"/><use stroke="#000" stroke-width=".8" x="731.247607" xlink:href="#b" y="609.12"/><g transform="matrix(.1 0 0 -.1 718.52 623.72)"><use xlink:href="#j"/><use x="63.623047" xlink:href="#f"/><use x="127.246094" xlink:href="#f"/><use x="190.869141" xlink:href="#f"/></g><path clip-path="url(#a)" d="m814.85 609.12v-589.68" fill="none" stroke="#b0b0b0" stroke-dasharray=".8 1.32" stroke-width=".8"/><use stroke="#000" stroke-width=".8" x="814.84504" xlink:href="#b" y="609.12"/><g transform="matrix(.1 0 0 -.1 802.12 623.72)"><use xlink:href="#j"/><use x="63.623047" xlink:href="#f"/><use x="127.246094" xlink:href="#f"/><use x="190.869141" xlink:href="#g"/></g><path clip-path="url(#a)" d="m898.4 609.12v-589.68" fill="none" stroke="#b0b0b0" stroke-dasharray=".8 1.32" stroke-width=".8"/><use stroke="#000" stroke-width=".8" x="898.396718" xlink:href="#b" y="609.12"/><g transform="matrix(.1 0 0 -.1 885.67 623.72)"><use xlink:href="#j"/><use x="63.623047" xlink:href="#f"/><use x="127.246094" xlink:href="#c"/><use x="190.869141" xlink:href="#f"/></g><path clip-path="url(#a)" d="m981.95 609.12v-589.68" fill="none" stroke="#b0b0b0" stroke-dasharray=".8 1.32" stroke-width=".8"/><use stroke="#000" stroke-width=".8" x="981.948395" xlink:href="#b" y="609.12"/><g transform="matrix(.1 0 0 -.1 969.22 623.72)"><use xlink:href="#j"/><use x="63.623047" xlink:href="#f"/><use x="127.246094" xlink:href="#c"/><use x="190.869141" xlink:href="#g"/></g><path clip-path="url(#a)" d="m1065.5 609.12v-589.68" fill="none" stroke="#b0b0b0" stroke-dasharray=".8 1.32" stroke-width=".8"/><use stroke="#000" stroke-width=".8" x="1065.500072" xlink:href="#b" y="609.12"/><g transform="matrix(.1 0 0 -.1 1052.8 623.72)"><use xlink:href="#j"/><use x="63.623047" xlink:href="#f"/><use x="127.246094" xlink:href="#j"/><use x="190.869141" xlink:href="#f"/></g><g stroke="#000"><use stroke-width=".6" x="79.489616" xlink:href="#k" y="609.12"/><use stroke-width=".6" x="96.1908" xlink:href="#k" y="609.12"/><use stroke-width=".6" x="112.891984" xlink:href="#k" y="609.12"/><use stroke-width=".6" x="129.593169" xlink:href="#k" y="609.12"/><use stroke-width=".6" x="163.041293" xlink:href="#k" y="609.12"/><use stroke-width=".6" x="179.742478" xlink:href="#k" y="609.12"/><use stroke-width=".6" x="196.443662" xlink:href="#k" y="609.12"/><use stroke-width=".6" x="213.190602" xlink:href="#k" y="609.12"/><use stroke-width=".6" x="246.592971" xlink:href="#k" y="609.12"/><use stroke-width=".6" x="263.294155" xlink:href="#k" y="609.12"/><use stroke-width=".6" x="280.041096" xlink:href="#k" y="609.12"/><use stroke-width=".6" x="296.74228" xlink:href="#k" y="609.12"/><use stroke-width=".6" x="330.144648" xlink:href="#k" y="609.12"/><use stroke-width=".6" x="346.891589" xlink:href="#k" y="609.12"/><use stroke-width=".6" x="363.592773" xlink:href="#k" y="609.12"/><use stroke-width=".6" x="380.293957" xlink:href="#k" y="609.12"/><use stroke-width=".6" x="413.742082" xlink:href="#k" y="609.12"/><use stroke-width=".6" x="430.443266" xlink:href="#k" y="609.12"/><use stroke-width=".6" x="447.14445" xlink:href="#k" y="609.12"/><use stroke-width=".6" x="463.845634" xlink:href="#k" y="609.12"/><use stroke-width=".6" x="497.293759" xlink:href="#k" y="609.12"/><use stroke-width=".6" x="513.994943" xlink:href="#k" y="609.12"/><use stroke-width=".6" x="530.696127" xlink:href="#k" y="609.12"/><use stroke-width=".6" x="547.443068" xlink:href="#k" y="609.12"/><use stroke-width=".6" x="580.845436" xlink:href="#k" y="609.12"/><use stroke-width=".6" x="597.54662" xlink:href="#k" y="609.12"/><use stroke-width=".6" x="614.293561" xlink:href="#k" y="609.12"/><use stroke-width=".6" x="630.994745" xlink:href="#k" y="609.12"/><use stroke-width=".6" x="664.397113" xlink:href="#k" y="609.12"/><use stroke-width=".6" x="681.144054" xlink:href="#k" y="609.12"/><use stroke-width=".6" x="697.845238" xlink:href="#k" y="609.12"/><use stroke-width=".6" x="714.546422" xlink:href="#k" y="609.12"/><use stroke-width=".6" x="747.994547" xlink:href="#k" y="609.12"/><use stroke-width=".6" x="764.695731" xlink:href="#k" y="609.12"/><use stroke-width=".6" x="781.396916" xlink:href="#k" y="609.12"/><use stroke-width=".6" x="798.0981" xlink:href="#k" y="609.12"/><use stroke-width=".6" x="831.546225" xlink:href="#k" y="609.12"/><use stroke-width=".6" x="848.247409" xlink:href="#k" y="609.12"/><use stroke-width=".6" x="864.948593" xlink:href="#k" y="609.12"/><use stroke-width=".6" x="881.695534" xlink:href="#k" y="609.12"/><use stroke-width=".6" x="915.097902" xlink:href="#k" y="609.12"/><use stroke-width=".6" x="931.799086" xlink:href="#k" y="609.12"/><use stroke-width=".6" x="948.546027" xlink:href="#k" y="609.12"/><use stroke-width=".6" x="965.247211" xlink:href="#k" y="609.12"/><use stroke-width=".6" x="998.649579" xlink:href="#k" y="609.12"/><use stroke-width=".6" x="1015.39652" xlink:href="#k" y="609.12"/><use stroke-width=".6" x="1032.097704" xlink:href="#k" y="609.12"/><use stroke-width=".6" x="1048.798888" xlink:href="#k" y="609.12"/><use stroke-width=".6" x="1082.247013" xlink:href="#k" y="609.12"/><use stroke-width=".6" x="1098.948197" xlink:href="#k" y="609.12"/><use stroke-width=".6" x="1115.649381" xlink:href="#k" y="609.12"/><use stroke-width=".6" x="1132.350565" xlink:href="#k" y="609.12"/></g><g transform="matrix(.14 0 0 -.14 552.07 640.44)"><use xlink:href="#l"/><use x="68.603516" xlink:href="#m"/><use x="132.080078" xlink:href="#n"/><use x="193.603516" xlink:href="#o"/><use x="269.042969" xlink:href="#p"/><use x="329.199219" xlink:href="#q"/><use x="392.773438" xlink:href="#r"/><use x="445.3125" xlink:href="#s"/><use x="506.494141" xlink:href="#t"/><use x="575.634766" xlink:href="#u"/></g><path clip-path="url(#a)" d="m55.296 609.12h1085.2" fill="none" stroke="#b0b0b0" stroke-dasharray=".8 1.32" stroke-width=".8"/><use stroke="#000" stroke-width=".8" x="55.296" xlink:href="#v" y="609.12"/><use transform="matrix(.1 0 0 -.1 41.934 612.92)" xlink:href="#f"/><path clip-path="url(#a)" d="m55.296 531.33h1085.2" fill="none" stroke="#b0b0b0" stroke-dasharray=".8 1.32" stroke-width=".8"/><use stroke="#000" stroke-width=".8" x="55.296" xlink:href="#v" y="531.325805"/><g transform="matrix(.1 0 0 -.1 35.571 535.13)"><use xlink:href="#g"/><use x="63.623047" xlink:href="#f"/></g><path clip-path="url(#a)" d="m55.296 453.53h1085.2" fill="none" stroke="#b0b0b0" stroke-dasharray=".8 1.32" stroke-width=".8"/><use stroke="#000" stroke-width=".8" x="55.296" xlink:href="#v" y="453.531609"/><g transform="matrix(.1 0 0 -.1 29.208 457.33)"><use xlink:href="#c"/><use x="63.623047" xlink:href="#f"/><use x="127.246094" xlink:href="#f"/></g><path clip-path="url(#a)" d="m55.296 375.74h1085.2" fill="none" stroke="#b0b0b0" stroke-dasharray=".8 1.32" stroke-width=".8"/><use stroke="#000" stroke-width=".8" x="55.296" xlink:href="#v" y="375.737414"/><g transform="matrix(.1 0 0 -.1 29.208 379.54)"><use xlink:href="#c"/><use x="63.623047" xlink:href="#g"/><use x="127.246094" xlink:href="#f"/></g><path clip-path="url(#a)" d="m55.296 297.94h1085.2" fill="none" stroke="#b0b0b0" stroke-dasharray=".8 1.32" stroke-width=".8"/><use stroke="#000" stroke-width=".8" x="55.296" xlink:href="#v" y="297.943219"/><g transform="matrix(.1 0 0 -.1 29.208 301.74)"><use xlink:href="#j"/><use x="63.623047" xlink:href="#f"/><use x="127.246094" xlink:href="#f"/></g><path clip-path="url(#a)" d="m55.296 220.15h1085.2" fill="none" stroke="#b0b0b0" stroke-dasharray=".8 1.32" stroke-width=".8"/><use stroke="#000" stroke-width=".8" x="55.296" xlink:href="#v" y="220.149024"/><g transform="matrix(.1 0 0 -.1 29.208 223.95)"><use xlink:href="#j"/><use x="63.623047" xlink:href="#g"/><use x="127.246094" xlink:href="#f"/></g><path clip-path="url(#a)" d="m55.296 142.35h1085.2" fill="none" stroke="#b0b0b0" stroke-dasharray=".8 1.32" stroke-width=".8"/><use stroke="#000" stroke-width=".8" x="55.296" xlink:href="#v" y="142.354828"/><g transform="matrix(.1 0 0 -.1 29.208 146.15)"><use xlink:href="#w"/><use x="63.623047" xlink:href="#f"/><use x="127.246094" xlink:href="#f"/></g><path clip-path="url(#a)" d="m55.296 64.561h1085.2" fill="none" stroke="#b0b0b0" stroke-dasharray=".8 1.32" stroke-width=".8"/><use stroke="#000" stroke-width=".8" x="55.296" xlink:href="#v" y="64.560633"/><g transform="matrix(.1 0 0 -.1 29.208 68.36)"><use xlink:href="#w"/><use x="63.623047" xlink:href="#g"/><use x="127.246094" xlink:href="#f"/></g><g transform="matrix(0 -.14 -.14 0 22.297 438.33)"><use xlink:href="#x"/><use x="70.996094" xlink:href="#s"/><use x="132.177734" xlink:href="#y"/><use x="196.09375" xlink:href="#z"/><use x="261.083984" xlink:href="#A"/><use x="320.166016" xlink:href="#n"/><use x="381.689453" xlink:href="#B"/><use x="436.669922" xlink:href="#C"/><use x="494.921875" xlink:href="#D"/><use x="553.857422" xlink:href="#s"/><use x="646.826172" xlink:href="#E"/><use x="712.207031" xlink:href="#s"/><use x="773.388672" xlink:href="#y"/><use x="837.304688" xlink:href="#n"/><use x="898.828125" xlink:href="#C"/><use x="957.080078" xlink:href="#s"/><use x="1018.261719" xlink:href="#D"/><use x="1108.984375" xlink:href="#F"/><use x="1170.263672" xlink:href="#B"/><use x="1225.244141" xlink:href="#C"/><use x="1283.496094" xlink:href="#m"/><use x="1346.972656" xlink:href="#s"/><use x="1408.154297" xlink:href="#G"/><use x="1473.535156" xlink:href="#F"/><use x="1534.814453" xlink:href="#D"/><use x="1593.75" xlink:href="#C"/><use x="1652.001953" xlink:href="#s"/><use x="1713.183594" xlink:href="#D"/></g><path clip-path="url(#a)" d="m180.93 609.12v-589.68" fill="none" stroke="#f00" stroke-dasharray="5.55 2.4" stroke-width="1.5"/><path clip-path="url(#a)" d="m184.87 609.12v-589.68" fill="none" stroke="#f00" stroke-dasharray="5.55 2.4" stroke-width="1.5"/><path clip-path="url(#a)" d="m254.78 609.12v-589.68" fill="none" stroke="#f00" stroke-dasharray="5.55 2.4" stroke-width="1.5"/><path clip-path="url(#a)" d="m498.53 609.12v-589.68" fill="none" stroke="#f00" stroke-dasharray="5.55 2.4" stroke-width="1.5"/><path clip-path="url(#a)" d="m782.82 609.12v-589.68" fill="none" stroke="#f00" stroke-dasharray="5.55 2.4" stroke-width="1.5"/><path clip-path="url(#a)" d="m753.35 609.12v-589.68" fill="none" stroke="#008000" stroke-dasharray="5.55 2.4" stroke-width="1.5"/><path clip-path="url(#a)" d="m1072.4 609.12v-589.68" fill="none" stroke="#008000" stroke-dasharray="5.55 2.4" stroke-width="1.5"/><path clip-path="url(#a)" d="m1091 609.12v-589.68" fill="none" stroke="#008000" stroke-dasharray="5.55 2.4" stroke-width="1.5"/><path clip-path="url(#a)" d="m1091.4 609.12v-589.68" fill="none" stroke="#008000" stroke-dasharray="5.55 2.4" stroke-width="1.5"/><path clip-path="url(#a)" d="m1094.1 609.12v-589.68" fill="none" stroke="#008000" stroke-dasharray="5.55 2.4" stroke-width="1.5"/><g clip-path="url(#a)" fill="#bf00bf" stroke="#bf00bf"><use x="84.122701" xlink:href="#H" y="607.564116"/><use x="85.191215" xlink:href="#H" y="606.008232"/><use x="88.71022" xlink:href="#H" y="604.452348"/><use x="89.430252" xlink:href="#H" y="602.896464"/><use x="98.506819" xlink:href="#H" y="601.34058"/><use x="102.758312" xlink:href="#H" y="599.784697"/><use x="105.236354" xlink:href="#H" y="598.228813"/><use x="106.364986" xlink:href="#H" y="596.672929"/><use x="106.409853" xlink:href="#H" y="595.117045"/><use x="108.797239" xlink:href="#H" y="593.561161"/><use x="113.660283" xlink:href="#H" y="592.005277"/><use x="119.04829" xlink:href="#H" y="590.449393"/><use x="120.418893" xlink:href="#H" y="588.893509"/><use x="120.505672" xlink:href="#H" y="587.337625"/><use x="121.023199" xlink:href="#H" y="585.781741"/><use x="122.030608" xlink:href="#H" y="584.225858"/><use x="123.585858" xlink:href="#H" y="582.669974"/><use x="142.648118" xlink:href="#H" y="581.11409"/><use x="149.830962" xlink:href="#H" y="579.558206"/><use x="150.073853" xlink:href="#H" y="578.002322"/><use x="153.369986" xlink:href="#H" y="576.446438"/><use x="154.563631" xlink:href="#H" y="574.890554"/><use x="156.487413" xlink:href="#H" y="573.33467"/><use x="156.982348" xlink:href="#H" y="571.778786"/><use x="158.727043" xlink:href="#H" y="570.222902"/><use x="159.464202" xlink:href="#H" y="568.667018"/><use x="161.797284" xlink:href="#H" y="567.111135"/><use x="162.289391" xlink:href="#H" y="565.555251"/><use x="166.459094" xlink:href="#H" y="563.999367"/><use x="170.068088" xlink:href="#H" y="562.443483"/><use x="172.143693" xlink:href="#H" y="560.887599"/><use x="174.691513" xlink:href="#H" y="559.331715"/><use x="176.99212" xlink:href="#H" y="557.775831"/><use x="177.44848" xlink:href="#H" y="556.219947"/><use x="184.868337" xlink:href="#H" y="554.664063"/><use x="192.99793" xlink:href="#H" y="553.108179"/><use x="194.328369" xlink:href="#H" y="551.552296"/><use x="207.135597" xlink:href="#H" y="549.996412"/><use x="209.467217" xlink:href="#H" y="548.440528"/><use x="210.141238" xlink:href="#H" y="546.884644"/><use x="212.711778" xlink:href="#H" y="545.32876"/><use x="213.799738" xlink:href="#H" y="543.772876"/><use x="213.844669" xlink:href="#H" y="542.216992"/><use x="216.012264" xlink:href="#H" y="540.661108"/><use x="219.491327" xlink:href="#H" y="539.105224"/><use x="222.184711" xlink:href="#H" y="537.54934"/><use x="226.161029" xlink:href="#H" y="535.993456"/><use x="226.20596" xlink:href="#H" y="534.437573"/><use x="226.250922" xlink:href="#H" y="532.881689"/><use x="227.72667" xlink:href="#H" y="531.325805"/><use x="234.504091" xlink:href="#H" y="529.769921"/><use x="236.837268" xlink:href="#H" y="528.214037"/><use x="248.005803" xlink:href="#H" y="526.658153"/><use x="251.717527" xlink:href="#H" y="525.102269"/><use x="253.740385" xlink:href="#H" y="523.546385"/><use x="256.04471" xlink:href="#H" y="521.990501"/><use x="268.178488" xlink:href="#H" y="520.434617"/><use x="278.90776" xlink:href="#H" y="518.878734"/><use x="286.654841" xlink:href="#H" y="517.32285"/><use x="289.579772" xlink:href="#H" y="515.766966"/><use x="292.37309" xlink:href="#H" y="514.211082"/><use x="294.664196" xlink:href="#H" y="512.655198"/><use x="296.124406" xlink:href="#H" y="511.099314"/><use x="305.151688" xlink:href="#H" y="509.54343"/><use x="307.624677" xlink:href="#H" y="507.987546"/><use x="312.089193" xlink:href="#H" y="506.431662"/><use x="313.896677" xlink:href="#H" y="504.875778"/><use x="317.76569" xlink:href="#H" y="503.319894"/><use x="320.015202" xlink:href="#H" y="501.764011"/><use x="322.389528" xlink:href="#H" y="500.208127"/><use x="322.403827" xlink:href="#H" y="498.652243"/><use x="338.724277" xlink:href="#H" y="497.096359"/><use x="341.968552" xlink:href="#H" y="495.540475"/><use x="343.310462" xlink:href="#H" y="493.984591"/><use x="348.615439" xlink:href="#H" y="492.428707"/><use x="359.754297" xlink:href="#H" y="490.872823"/><use x="362.588605" xlink:href="#H" y="489.316939"/><use x="364.028287" xlink:href="#H" y="487.761055"/><use x="366.367661" xlink:href="#H" y="486.205172"/><use x="371.181262" xlink:href="#H" y="484.649288"/><use x="371.721159" xlink:href="#H" y="483.093404"/><use x="374.465415" xlink:href="#H" y="481.53752"/><use x="382.83323" xlink:href="#H" y="479.981636"/><use x="384.857358" xlink:href="#H" y="478.425752"/><use x="401.551044" xlink:href="#H" y="476.869868"/><use x="403.710568" xlink:href="#H" y="475.313984"/><use x="404.160476" xlink:href="#H" y="473.7581"/><use x="406.364867" xlink:href="#H" y="472.202216"/><use x="408.974205" xlink:href="#H" y="470.646332"/><use x="412.167862" xlink:href="#H" y="469.090449"/><use x="416.981273" xlink:href="#H" y="467.534565"/><use x="417.43115" xlink:href="#H" y="465.978681"/><use x="418.386384" xlink:href="#H" y="464.422797"/><use x="419.860638" xlink:href="#H" y="462.866913"/><use x="428.184348" xlink:href="#H" y="461.311029"/><use x="434.134304" xlink:href="#H" y="459.755145"/><use x="436.502148" xlink:href="#H" y="458.199261"/><use x="438.436352" xlink:href="#H" y="456.643377"/><use x="438.570794" xlink:href="#H" y="455.087493"/><use x="441.00006" xlink:href="#H" y="453.531609"/><use x="444.834342" xlink:href="#H" y="451.975726"/><use x="451.435091" xlink:href="#H" y="450.419842"/><use x="452.157029" xlink:href="#H" y="448.863958"/><use x="454.853591" xlink:href="#H" y="447.308074"/><use x="455.26092" xlink:href="#H" y="445.75219"/><use x="458.184263" xlink:href="#H" y="444.196306"/><use x="462.320412" xlink:href="#H" y="442.640422"/><use x="465.380389" xlink:href="#H" y="441.084538"/><use x="465.607488" xlink:href="#H" y="439.528654"/><use x="468.126043" xlink:href="#H" y="437.97277"/><use x="468.264902" xlink:href="#H" y="436.416887"/><use x="472.939136" xlink:href="#H" y="434.861003"/><use x="474.942929" xlink:href="#H" y="433.305119"/><use x="476.587055" xlink:href="#H" y="431.749235"/><use x="478.14507" xlink:href="#H" y="430.193351"/><use x="481.682791" xlink:href="#H" y="428.637467"/><use x="485.240658" xlink:href="#H" y="427.081583"/><use x="486.02243" xlink:href="#H" y="425.525699"/><use x="487.743294" xlink:href="#H" y="423.969815"/><use x="488.255959" xlink:href="#H" y="422.413931"/><use x="490.195756" xlink:href="#H" y="420.858047"/><use x="491.50357" xlink:href="#H" y="419.302164"/><use x="492.467638" xlink:href="#H" y="417.74628"/><use x="493.204733" xlink:href="#H" y="416.190396"/><use x="494.4435" xlink:href="#H" y="414.634512"/><use x="495.693197" xlink:href="#H" y="413.078628"/><use x="497.819802" xlink:href="#H" y="411.522744"/><use x="500.566409" xlink:href="#H" y="409.96686"/><use x="515.637671" xlink:href="#H" y="408.410976"/><use x="523.241571" xlink:href="#H" y="406.855092"/><use x="530.214348" xlink:href="#H" y="405.299208"/><use x="537.952468" xlink:href="#H" y="403.743325"/><use x="541.731841" xlink:href="#H" y="402.187441"/><use x="543.171715" xlink:href="#H" y="400.631557"/><use x="545.825983" xlink:href="#H" y="399.075673"/><use x="546.098013" xlink:href="#H" y="397.519789"/><use x="550.720294" xlink:href="#H" y="395.963905"/><use x="553.106949" xlink:href="#H" y="394.408021"/><use x="557.487832" xlink:href="#H" y="392.852137"/><use x="558.78621" xlink:href="#H" y="391.296253"/><use x="560.74469" xlink:href="#H" y="389.740369"/><use x="562.360473" xlink:href="#H" y="388.184485"/><use x="564.534296" xlink:href="#H" y="386.628602"/><use x="566.032223" xlink:href="#H" y="385.072718"/><use x="566.813073" xlink:href="#H" y="383.516834"/><use x="569.338683" xlink:href="#H" y="381.96095"/><use x="573.862841" xlink:href="#H" y="380.405066"/><use x="576.887071" xlink:href="#H" y="378.849182"/><use x="578.740248" xlink:href="#H" y="377.293298"/><use x="579.485732" xlink:href="#H" y="375.737414"/><use x="579.488401" xlink:href="#H" y="374.18153"/><use x="585.173954" xlink:href="#H" y="372.625646"/><use x="586.220987" xlink:href="#H" y="371.069763"/><use x="587.138567" xlink:href="#H" y="369.513879"/><use x="587.963267" xlink:href="#H" y="367.957995"/><use x="590.620268" xlink:href="#H" y="366.402111"/><use x="592.51183" xlink:href="#H" y="364.846227"/><use x="593.394171" xlink:href="#H" y="363.290343"/><use x="595.853115" xlink:href="#H" y="361.734459"/><use x="598.535854" xlink:href="#H" y="360.178575"/><use x="601.044908" xlink:href="#H" y="358.622691"/><use x="601.369622" xlink:href="#H" y="357.066807"/><use x="603.402838" xlink:href="#H" y="355.510923"/><use x="605.63068" xlink:href="#H" y="353.95504"/><use x="607.075701" xlink:href="#H" y="352.399156"/><use x="607.273598" xlink:href="#H" y="350.843272"/><use x="609.241993" xlink:href="#H" y="349.287388"/><use x="611.077535" xlink:href="#H" y="347.731504"/><use x="612.946408" xlink:href="#H" y="346.17562"/><use x="614.869301" xlink:href="#H" y="344.619736"/><use x="615.35734" xlink:href="#H" y="343.063852"/><use x="618.742412" xlink:href="#H" y="341.507968"/><use x="619.583858" xlink:href="#H" y="339.952084"/><use x="622.142959" xlink:href="#H" y="338.396201"/><use x="622.603226" xlink:href="#H" y="336.840317"/><use x="625.938157" xlink:href="#H" y="335.284433"/><use x="627.591371" xlink:href="#H" y="333.728549"/><use x="629.640062" xlink:href="#H" y="332.172665"/><use x="631.334266" xlink:href="#H" y="330.616781"/><use x="632.527911" xlink:href="#H" y="329.060897"/><use x="633.858128" xlink:href="#H" y="327.505013"/><use x="635.500029" xlink:href="#H" y="325.949129"/><use x="639.300343" xlink:href="#H" y="324.393245"/><use x="639.62887" xlink:href="#H" y="322.837361"/><use x="642.522312" xlink:href="#H" y="321.281478"/><use x="643.462039" xlink:href="#H" y="319.725594"/><use x="643.621107" xlink:href="#H" y="318.16971"/><use x="645.028665" xlink:href="#H" y="316.613826"/><use x="649.216131" xlink:href="#H" y="315.057942"/><use x="650.453976" xlink:href="#H" y="313.502058"/><use x="651.002198" xlink:href="#H" y="311.946174"/><use x="655.832101" xlink:href="#H" y="310.39029"/><use x="656.553054" xlink:href="#H" y="308.834406"/><use x="658.923472" xlink:href="#H" y="307.278522"/><use x="659.118224" xlink:href="#H" y="305.722639"/><use x="661.083346" xlink:href="#H" y="304.166755"/><use x="662.133112" xlink:href="#H" y="302.610871"/><use x="664.873142" xlink:href="#H" y="301.054987"/><use x="666.754662" xlink:href="#H" y="299.499103"/><use x="666.815163" xlink:href="#H" y="297.943219"/><use x="668.119069" xlink:href="#H" y="296.387335"/><use x="670.777309" xlink:href="#H" y="294.831451"/><use x="672.249752" xlink:href="#H" y="293.275567"/><use x="674.900747" xlink:href="#H" y="291.719683"/><use x="676.265059" xlink:href="#H" y="290.163799"/><use x="679.214489" xlink:href="#H" y="288.607916"/><use x="681.665394" xlink:href="#H" y="287.052032"/><use x="683.001298" xlink:href="#H" y="285.496148"/><use x="683.037077" xlink:href="#H" y="283.940264"/><use x="685.436284" xlink:href="#H" y="282.38438"/><use x="687.290922" xlink:href="#H" y="280.828496"/><use x="689.460392" xlink:href="#H" y="279.272612"/><use x="691.057205" xlink:href="#H" y="277.716728"/><use x="691.147002" xlink:href="#H" y="276.160844"/><use x="693.411735" xlink:href="#H" y="274.60496"/><use x="695.915387" xlink:href="#H" y="273.049077"/><use x="698.857223" xlink:href="#H" y="271.493193"/><use x="699.157978" xlink:href="#H" y="269.937309"/><use x="702.730366" xlink:href="#H" y="268.381425"/><use x="704.842386" xlink:href="#H" y="266.825541"/><use x="708.113257" xlink:href="#H" y="265.269657"/><use x="711.654823" xlink:href="#H" y="263.713773"/><use x="713.2816" xlink:href="#H" y="262.157889"/><use x="716.842454" xlink:href="#H" y="260.602005"/><use x="721.247518" xlink:href="#H" y="259.046121"/><use x="723.843637" xlink:href="#H" y="257.490237"/><use x="730.700115" xlink:href="#H" y="255.934354"/><use x="733.157407" xlink:href="#H" y="254.37847"/><use x="735.558298" xlink:href="#H" y="252.822586"/><use x="737.627198" xlink:href="#H" y="251.266702"/><use x="742.756839" xlink:href="#H" y="249.710818"/><use x="744.286891" xlink:href="#H" y="248.154934"/><use x="745.172632" xlink:href="#H" y="246.59905"/><use x="746.582001" xlink:href="#H" y="245.043166"/><use x="749.731807" xlink:href="#H" y="243.487282"/><use x="751.036794" xlink:href="#H" y="241.931398"/><use x="752.971856" xlink:href="#H" y="240.375515"/><use x="753.362599" xlink:href="#H" y="238.819631"/><use x="756.797082" xlink:href="#H" y="237.263747"/><use x="758.147126" xlink:href="#H" y="235.707863"/><use x="761.418378" xlink:href="#H" y="234.151979"/><use x="763.502849" xlink:href="#H" y="232.596095"/><use x="767.417046" xlink:href="#H" y="231.040211"/><use x="769.173657" xlink:href="#H" y="229.484327"/><use x="769.924257" xlink:href="#H" y="227.928443"/><use x="771.828751" xlink:href="#H" y="226.372559"/><use x="777.499496" xlink:href="#H" y="224.816675"/><use x="778.520314" xlink:href="#H" y="223.260792"/><use x="779.659719" xlink:href="#H" y="221.704908"/><use x="782.113103" xlink:href="#H" y="220.149024"/><use x="786.666336" xlink:href="#H" y="218.59314"/><use x="794.530986" xlink:href="#H" y="217.037256"/><use x="794.67709" xlink:href="#H" y="215.481372"/><use x="803.0919" xlink:href="#H" y="213.925488"/><use x="805.996527" xlink:href="#H" y="212.369604"/><use x="810.572797" xlink:href="#H" y="210.81372"/><use x="810.800945" xlink:href="#H" y="209.257836"/><use x="811.236174" xlink:href="#H" y="207.701953"/><use x="819.605196" xlink:href="#H" y="206.146069"/><use x="824.298845" xlink:href="#H" y="204.590185"/><use x="827.344046" xlink:href="#H" y="203.034301"/><use x="827.841841" xlink:href="#H" y="201.478417"/><use x="835.577578" xlink:href="#H" y="199.922533"/><use x="840.000945" xlink:href="#H" y="198.366649"/><use x="843.060191" xlink:href="#H" y="196.810765"/><use x="843.450839" xlink:href="#H" y="195.254881"/><use x="847.244162" xlink:href="#H" y="193.698997"/><use x="852.673445" xlink:href="#H" y="192.143113"/><use x="855.52202" xlink:href="#H" y="190.58723"/><use x="858.311207" xlink:href="#H" y="189.031346"/><use x="861.176273" xlink:href="#H" y="187.475462"/><use x="861.775431" xlink:href="#H" y="185.919578"/><use x="866.679243" xlink:href="#H" y="184.363694"/><use x="868.163888" xlink:href="#H" y="182.80781"/><use x="869.454226" xlink:href="#H" y="181.251926"/><use x="871.89795" xlink:href="#H" y="179.696042"/><use x="877.236483" xlink:href="#H" y="178.140158"/><use x="878.002621" xlink:href="#H" y="176.584274"/><use x="879.546718" xlink:href="#H" y="175.028391"/><use x="885.080987" xlink:href="#H" y="173.472507"/><use x="885.561622" xlink:href="#H" y="171.916623"/><use x="887.67825" xlink:href="#H" y="170.360739"/><use x="888.396153" xlink:href="#H" y="168.804855"/><use x="890.660123" xlink:href="#H" y="167.248971"/><use x="892.684728" xlink:href="#H" y="165.693087"/><use x="894.155138" xlink:href="#H" y="164.137203"/><use x="896.329025" xlink:href="#H" y="162.581319"/><use x="897.889327" xlink:href="#H" y="161.025435"/><use x="900.153075" xlink:href="#H" y="159.469551"/><use x="902.568328" xlink:href="#H" y="157.913668"/><use x="902.717577" xlink:href="#H" y="156.357784"/><use x="904.517308" xlink:href="#H" y="154.8019"/><use x="905.987717" xlink:href="#H" y="153.246016"/><use x="911.206996" xlink:href="#H" y="151.690132"/><use x="914.356548" xlink:href="#H" y="150.134248"/><use x="917.610483" xlink:href="#H" y="148.578364"/><use x="919.395788" xlink:href="#H" y="147.02248"/><use x="921.29971" xlink:href="#H" y="145.466596"/><use x="922.320211" xlink:href="#H" y="143.910712"/><use x="923.729675" xlink:href="#H" y="142.354828"/><use x="929.610837" xlink:href="#H" y="140.798945"/><use x="931.321056" xlink:href="#H" y="139.243061"/><use x="937.981987" xlink:href="#H" y="137.687177"/><use x="939.460691" xlink:href="#H" y="136.131293"/><use x="940.772477" xlink:href="#H" y="134.575409"/><use x="945.363746" xlink:href="#H" y="133.019525"/><use x="947.97445" xlink:href="#H" y="131.463641"/><use x="952.520597" xlink:href="#H" y="129.907757"/><use x="955.311373" xlink:href="#H" y="128.351873"/><use x="955.931217" xlink:href="#H" y="126.795989"/><use x="960.803031" xlink:href="#H" y="125.240106"/><use x="962.738665" xlink:href="#H" y="123.684222"/><use x="969.085592" xlink:href="#H" y="122.128338"/><use x="972.011476" xlink:href="#H" y="120.572454"/><use x="977.503166" xlink:href="#H" y="119.01657"/><use x="980.203954" xlink:href="#H" y="117.460686"/><use x="985.87527" xlink:href="#H" y="115.904802"/><use x="991.231343" xlink:href="#H" y="114.348918"/><use x="993.121824" xlink:href="#H" y="112.793034"/><use x="997.892783" xlink:href="#H" y="111.23715"/><use x="1002.213706" xlink:href="#H" y="109.681266"/><use x="1007.254883" xlink:href="#H" y="108.125383"/><use x="1011.91806" xlink:href="#H" y="106.569499"/><use x="1012.025937" xlink:href="#H" y="105.013615"/><use x="1013.376236" xlink:href="#H" y="103.457731"/><use x="1020.397755" xlink:href="#H" y="101.901847"/><use x="1024.943808" xlink:href="#H" y="100.345963"/><use x="1027.059291" xlink:href="#H" y="98.790079"/><use x="1031.425367" xlink:href="#H" y="97.234195"/><use x="1035.74629" xlink:href="#H" y="95.678311"/><use x="1039.257097" xlink:href="#H" y="94.122427"/><use x="1045.063364" xlink:href="#H" y="92.566544"/><use x="1047.493901" xlink:href="#H" y="91.01066"/><use x="1047.959984" xlink:href="#H" y="89.454776"/><use x="1051.210423" xlink:href="#H" y="87.898892"/><use x="1052.130037" xlink:href="#H" y="86.343008"/><use x="1057.981616" xlink:href="#H" y="84.787124"/><use x="1061.042515" xlink:href="#H" y="83.23124"/><use x="1070.045393" xlink:href="#H" y="81.675356"/><use x="1072.400495" xlink:href="#H" y="80.119472"/><use x="1078.643199" xlink:href="#H" y="78.563588"/><use x="1080.143064" xlink:href="#H" y="77.007704"/><use x="1086.745847" xlink:href="#H" y="75.451821"/><use x="1087.390476" xlink:href="#H" y="73.895937"/><use x="1088.728127" xlink:href="#H" y="72.340053"/><use x="1089.890982" xlink:href="#H" y="70.784169"/><use x="1091.015929" xlink:href="#H" y="69.228285"/><use x="1091.423481" xlink:href="#H" y="67.672401"/><use x="1094.052297" xlink:href="#H" y="66.116517"/><use x="1094.93861" xlink:href="#H" y="64.560633"/><use x="1095.315912" xlink:href="#H" y="63.004749"/><use x="1095.410412" xlink:href="#H" y="61.448865"/><use x="1096.618515" xlink:href="#H" y="59.892982"/><use x="1097.86459" xlink:href="#H" y="58.337098"/><use x="1098.015905" xlink:href="#H" y="56.781214"/><use x="1102.456049" xlink:href="#H" y="55.22533"/><use x="1103.047168" xlink:href="#H" y="53.669446"/><use x="1103.415732" xlink:href="#H" y="52.113562"/><use x="1104.270969" xlink:href="#H" y="50.557678"/><use x="1106.020303" xlink:href="#H" y="49.001794"/><use x="1106.045692" xlink:href="#H" y="47.44591"/><use x="1108.812445" xlink:href="#H" y="45.890026"/><use x="1111.008702" xlink:href="#H" y="44.334142"/><use x="1111.653299" xlink:href="#H" y="42.778259"/></g><path d="m55.296 609.12v-589.68" fill="none" stroke="#000" stroke-width=".8"/><path d="m1140.5 609.12v-589.68" fill="none" stroke="#000" stroke-width=".8"/><path d="m55.296 609.12h1085.2" fill="none" stroke="#000" stroke-width=".8"/><path d="m55.296 19.44h1085.2" fill="none" stroke="#000" stroke-width=".8"/><g transform="matrix(.12 0 0 -.12 106.38 13.44)"><use xlink:href="#x"/><use x="70.996094" xlink:href="#s"/><use x="132.177734" xlink:href="#y"/><use x="196.09375" xlink:href="#z"/><use x="261.083984" xlink:href="#A"/><use x="320.166016" xlink:href="#n"/><use x="381.689453" xlink:href="#B"/><use x="436.669922" xlink:href="#C"/><use x="494.921875" xlink:href="#D"/><use x="553.857422" xlink:href="#s"/><use x="646.826172" xlink:href="#I"/><use x="707.226562" xlink:href="#s"/><use x="768.408203" xlink:href="#B"/><use x="823.388672" xlink:href="#o"/><use x="898.828125" xlink:href="#z"/><use x="963.818359" xlink:href="#A"/><use x="1022.900391" xlink:href="#n"/><use x="1084.423828" xlink:href="#B"/><use x="1139.404297" xlink:href="#I"/><use x="1199.804688" xlink:href="#z"/><use x="1264.794922" xlink:href="#J"/><use x="1355.761719" xlink:href="#E"/><use x="1421.142578" xlink:href="#s"/><use x="1482.324219" xlink:href="#y"/><use x="1546.240234" xlink:href="#n"/><use x="1607.763672" xlink:href="#C"/><use x="1666.015625" xlink:href="#s"/><use x="1727.197266" xlink:href="#D"/><use x="1786.132812" xlink:href="#K"/><use x="1849.707031" xlink:href="#l"/><use x="1918.310547" xlink:href="#B"/><use x="1973.291016" xlink:href="#n"/><use x="2034.814453" xlink:href="#r"/><use x="2087.353516" xlink:href="#s"/><use x="2180.322266" xlink:href="#w"/><use x="2243.945312" xlink:href="#w"/><use x="2307.568359" xlink:href="#L"/><use x="2402.978516" xlink:href="#s"/><use x="2464.160156" xlink:href="#m"/><use x="2527.636719" xlink:href="#M"/><use x="2589.306641" xlink:href="#z"/><use x="2654.296875" xlink:href="#C"/><use x="2712.548828" xlink:href="#F"/><use x="2773.828125" xlink:href="#y"/><use x="2837.744141" xlink:href="#N"/><use x="2896.679688" xlink:href="#G"/><use x="2962.060547" xlink:href="#u"/><use x="3041.015625" xlink:href="#J"/><use x="3131.982422" xlink:href="#z"/><use x="3228.759766" xlink:href="#w"/><use x="3292.382812" xlink:href="#f"/><use x="3387.792969" xlink:href="#B"/><path d="m32.172-5.0781q-3.7969-9.7656-7.4219-12.734-3.6094-2.9844-9.6562-2.9844h-7.1875v7.5156h5.2812q3.7031 0 5.75 1.7656 2.0625 1.75 4.5469 8.2969l1.6094 4.0938-22.109 53.812h9.5156l17.094-42.766 17.094 42.766h9.5156z" transform="translate(3442.773438)"/><use x="3501.953125" xlink:href="#M"/><use x="3563.623047" xlink:href="#s"/><use x="3624.804688" xlink:href="#m"/><use x="3688.28125" xlink:href="#M"/><use x="3749.951172" xlink:href="#z"/><use x="3814.941406" xlink:href="#C"/><use x="3873.193359" xlink:href="#F"/><use x="3934.472656" xlink:href="#y"/><use x="3998.388672" xlink:href="#N"/><use x="4057.324219" xlink:href="#G"/><use x="4122.705078" xlink:href="#u"/><use x="4201.660156" xlink:href="#J"/><use x="4292.626953" xlink:href="#E"/><use x="4358.007812" xlink:href="#s"/><use x="4419.189453" xlink:href="#y"/><use x="4483.105469" xlink:href="#n"/><use x="4544.628906" xlink:href="#C"/><use x="4602.880859" xlink:href="#s"/><use x="4664.0625" xlink:href="#D"/><use x="4722.998047" xlink:href="#q"/><use x="4786.572266" xlink:href="#e"/><use x="4850.195312" xlink:href="#j"/><use x="4913.818359" xlink:href="#e"/><use x="5009.228516" xlink:href="#F"/><use x="5070.507812" xlink:href="#B"/><use x="5125.488281" xlink:href="#C"/><use x="5183.740234" xlink:href="#m"/><use x="5247.216797" xlink:href="#s"/><use x="5308.398438" xlink:href="#G"/><use x="5373.779297" xlink:href="#F"/><use x="5435.058594" xlink:href="#D"/><use x="5493.994141" xlink:href="#C"/><use x="5552.246094" xlink:href="#s"/><use x="5613.427734" xlink:href="#D"/><use x="5672.363281" xlink:href="#q"/><use x="5735.9375" xlink:href="#d"/><use x="5799.560547" xlink:href="#L"/><use x="5863.183594" xlink:href="#c"/><use x="5958.59375" xlink:href="#l"/><use x="6027.197266" xlink:href="#x"/><path d="m22.797 8.2969h32.234v56.297h-23.688v-10.344q0-24.359-5.4688-40.531-1.125-3.3125-3.0781-5.4219zm-14.391 0q6.5312 3.0781 8.3906 8.9375 4.7344 15.047 4.7344 41.891v13.781h43.359v-64.609h8.2969v-23.969h-8.2969v15.672h-51.656v-15.672h-8.2969v23.969z" transform="translate(6098.193359)"/><use x="6208.105469" xlink:href="#z"/><use x="6304.882812" xlink:href="#c"/><use x="6368.505859" xlink:href="#w"/><use x="6432.128906" xlink:href="#d"/><use x="6495.751953" xlink:href="#g"/><use x="6591.162109" xlink:href="#E"/><use x="6656.542969" xlink:href="#s"/><use x="6717.724609" xlink:href="#B"/><use x="6772.705078" xlink:href="#n"/><path d="m82.422 0h-73.344v54.688h9.0312v-47.516h23.109v47.516h9.0312v-47.516h23.141v47.516h9.0312v-47.516h7.1719v-20.984h-7.1719z" transform="translate(6834.228516)"/><use x="6928.417969" xlink:href="#n"/><use x="6989.941406" xlink:href="#G"/><use x="7055.322266" xlink:href="#z"/><path d="m55.906 54.688v-54.688h-8.9375v43.891l-26.359-43.891h-11.531v54.688h8.9375v-43.797l26.328 43.797zm-38.688 20.828h5.7656q.53125-3.6562 2.8906-5.5 2.375-1.8281 6.625-1.8281 4.2031 0 6.5469 1.8125t2.9688 5.5156h5.7656q-.48438-6.9844-4.3438-10.5t-10.938-3.5156-10.938 3.5156-4.3438 10.5z" transform="translate(7120.3125)"/><use x="7185.302734" xlink:href="#K"/><path d="m9.8125 72.906h9.8594v-29.891h35.844v29.891h9.8594v-72.906h-9.8594v34.719h-35.844v-34.719h-9.8594z" transform="translate(7248.876953)"/><use x="7324.072266" xlink:href="#s"/><use x="7385.253906" xlink:href="#p"/><use x="7445.410156" xlink:href="#M"/><use x="7507.080078" xlink:href="#m"/><use x="7570.556641" xlink:href="#N"/><use x="7661.279297" xlink:href="#j"/><use x="7724.902344" xlink:href="#f"/><use x="7788.525391" xlink:href="#j"/><use x="7852.148438" xlink:href="#j"/><use x="7947.558594" xlink:href="#r"/><use x="8000.097656" xlink:href="#s"/><use x="8061.279297" xlink:href="#t"/><use x="8130.419922" xlink:href="#F"/></g></g></svg>