<?xml version="1.0" encoding="UTF-8"?>
<!DOCTYPE svg  PUBLIC '-//W3C//DTD SVG 1.1//EN'  'http://www.w3.org/Graphics/SVG/1.1/DTD/svg11.dtd'>
<svg height="648pt" stroke-linejoin="round" viewBox="0 0 1152 648" width="1152pt" xmlns="http://www.w3.org/2000/svg" xmlns:xlink="http://www.w3.org/1999/xlink"><defs stroke-linejoin="round"><clipPath id="a" stroke-linejoin="round"><path d="m55.296 19.44h1085.2v589.68h-1085.2z"/></clipPath><path id="b" d="m0 0v3.5" stroke="#000" stroke-linejoin="round" stroke-width=".8"/><path id="c" d="m12.406 8.2969h16.109v55.625l-17.531-3.5156v8.9844l17.438 3.5156h9.8594v-64.609h16.109v-8.2969h-41.984z" stroke-linejoin="round"/><path id="d" d="m10.984 1.5156v8.9844q3.7188-1.7656 7.5156-2.6875 3.8125-.92188 7.4844-.92188 9.7656 0 14.906 6.5625 5.1562 6.5625 5.8906 19.953-2.8281-4.2031-7.1875-6.4531-4.3438-2.25-9.6094-2.25-10.938 0-17.312 6.6094-6.375 6.625-6.375 18.109 0 11.219 6.6406 18 6.6406 6.7969 17.672 6.7969 12.656 0 19.312-9.7031 6.6719-9.6875 6.6719-28.141 0-17.234-8.1875-27.516-8.1719-10.281-21.984-10.281-3.7188 0-7.5312.73438-3.7969.73438-7.9062 2.2031zm19.625 30.906q6.6406 0 10.516 4.5312 3.8906 4.5469 3.8906 12.469 0 7.8594-3.8906 12.422-3.875 4.5625-10.516 4.5625t-10.516-4.5625-3.875-12.422q0-7.9219 3.875-12.469 3.875-4.5312 10.516-4.5312z" stroke-linejoin="round"/><path id="e" d="m33.016 40.375q-6.6406 0-10.531-4.5469-3.875-4.5312-3.875-12.438 0-7.8594 3.875-12.438 3.8906-4.5625 10.531-4.5625t10.516 4.5625q3.875 4.5781 3.875 12.438 0 7.9062-3.875 12.438-3.875 4.5469-10.516 4.5469zm19.578 30.922v-8.9844q-3.7188 1.75-7.5 2.6719-3.7812.9375-7.5.9375-9.7656 0-14.922-6.5938-5.1406-6.5938-5.875-19.922 2.875 4.25 7.2188 6.5156 4.3594 2.2656 9.5781 2.2656 10.984 0 17.359-6.6719 6.375-6.6562 6.375-18.125 0-11.234-6.6406-18.031-6.6406-6.7812-17.672-6.7812-12.656 0-19.344 9.6875-6.6875 9.7031-6.6875 28.109 0 17.281 8.2031 27.562t22.016 10.281q3.7188 0 7.5-.73438t7.8906-2.1875z" stroke-linejoin="round"/><path id="f" d="m31.781 66.406q-7.6094 0-11.453-7.5-3.8281-7.4844-3.8281-22.531 0-14.984 3.8281-22.484 3.8438-7.5 11.453-7.5 7.6719 0 11.5 7.5 3.8438 7.5 3.8438 22.484 0 15.047-3.8438 22.531-3.8281 7.5-11.5 7.5zm0 7.8125q12.266 0 18.734-9.7031 6.4688-9.6875 6.4688-28.141 0-18.406-6.4688-28.109-6.4688-9.6875-18.734-9.6875-12.25 0-18.719 9.6875-6.4688 9.7031-6.4688 28.109 0 18.453 6.4688 28.141 6.4688 9.7031 18.719 9.7031z" stroke-linejoin="round"/><path id="g" d="m10.797 72.906h38.719v-8.3125h-29.688v-17.859q2.1406.73438 4.2812 1.0938 2.1562.35938 4.3125.35938 12.203 0 19.328-6.6875 7.1406-6.6875 7.1406-18.109 0-11.766-7.3281-18.297-7.3281-6.5156-20.656-6.5156-4.5938 0-9.3594.78125-4.75.78125-9.8281 2.3438v9.9219q4.3906-2.3906 9.0781-3.5625t9.9062-1.1719q8.4531 0 13.375 4.4375 4.9375 4.4375 4.9375 12.062 0 7.6094-4.9375 12.047-4.9219 4.4531-13.375 4.4531-3.9531 0-7.8906-.875-3.9219-.875-8.0156-2.7344z" stroke-linejoin="round"/><path id="h" d="m8.2031 72.906h46.875v-4.2031l-26.469-68.703h-10.297l24.906 64.594h-35.016z" stroke-linejoin="round"/><path id="i" d="m31.781 34.625q-7.0312 0-11.062-3.7656-4.0156-3.7656-4.0156-10.344 0-6.5938 4.0156-10.359 4.0312-3.7656 11.062-3.7656t11.078 3.7812q4.0625 3.7969 4.0625 10.344 0 6.5781-4.0312 10.344-4.0156 3.7656-11.109 3.7656zm-9.8594 4.1875q-6.3438 1.5625-9.8906 5.9062-3.5312 4.3594-3.5312 10.609 0 8.7344 6.2188 13.812 6.2344 5.0781 17.062 5.0781 10.891 0 17.094-5.0781t6.2031-13.812q0-6.25-3.5469-10.609-3.5312-4.3438-9.8281-5.9062 7.125-1.6562 11.094-6.5 3.9844-4.8281 3.9844-11.797 0-10.609-6.4688-16.281-6.4688-5.6562-18.531-5.6562-12.047 0-18.531 5.6562-6.4688 5.6719-6.4688 16.281 0 6.9688 4 11.797 4.0156 4.8438 11.141 6.5zm-3.6094 15.578q0-5.6562 3.5312-8.8281 3.5469-3.1719 9.9375-3.1719 6.3594 0 9.9375 3.1719 3.5938 3.1719 3.5938 8.8281 0 5.6719-3.5938 8.8438-3.5781 3.1719-9.9375 3.1719-6.3906 0-9.9375-3.1719-3.5312-3.1719-3.5312-8.8438z" stroke-linejoin="round"/><path id="j" d="m19.188 8.2969h34.422v-8.2969h-46.281v8.2969q5.6094 5.8125 15.297 15.594 9.7031 9.7969 12.188 12.641 4.7344 5.3125 6.6094 9 1.8906 3.6875 1.8906 7.25 0 5.8125-4.0781 9.4688-4.0781 3.6719-10.625 3.6719-4.6406 0-9.7969-1.6094-5.1406-1.6094-11-4.8906v9.9688q5.9531 2.3906 11.125 3.6094 5.1875 1.2188 9.4844 1.2188 11.328 0 18.062-5.6719 6.7344-5.6562 6.7344-15.125 0-4.5-1.6875-8.5312-1.6719-4.0156-6.125-9.4844-1.2188-1.4219-7.7656-8.1875-6.5312-6.7656-18.453-18.922z" stroke-linejoin="round"/><path id="k" d="m0 0v2" stroke="#000" stroke-linejoin="round" stroke-width=".6"/><path id="l" d="m19.672 34.812v-26.703h15.828q7.9531 0 11.781 3.2969 3.8438 3.2969 3.8438 10.078 0 6.8438-3.8438 10.078-3.8281 3.25-11.781 3.25zm0 29.984v-21.969h14.609q7.2188 0 10.75 2.7031 3.5469 2.7188 3.5469 8.2812 0 5.5156-3.5469 8.25-3.5312 2.7344-10.75 2.7344zm-9.8594 8.1094h25.203q11.281 0 17.375-4.6875 6.1094-4.6875 6.1094-13.328 0-6.7031-3.125-10.656t-9.1875-4.9219q7.2812-1.5625 11.312-6.5312 4.0312-4.9531 4.0312-12.375 0-9.7656-6.6406-15.094-6.6406-5.3125-18.906-5.3125h-26.172z" stroke-linejoin="round"/><path id="m" d="m18.109 8.2031v-29h-9.0312v75.484h9.0312v-8.2969q2.8438 4.875 7.1562 7.2344 4.3281 2.375 10.328 2.375 9.9688 0 16.188-7.9062 6.2344-7.9062 6.2344-20.797t-6.2344-20.812q-6.2188-7.9062-16.188-7.9062-6 0-10.328 2.375-4.3125 2.375-7.1562 7.25zm30.578 19.094q0 9.9062-4.0781 15.547t-11.203 5.6406q-7.1406 0-11.219-5.6406t-4.0781-15.547 4.0781-15.547 11.219-5.6406q7.125 0 11.203 5.6406t4.0781 15.547z" stroke-linejoin="round"/><path id="n" d="m56.203 29.594v-4.3906h-41.312q.59375-9.2812 5.5938-14.141t13.938-4.8594q5.1719 0 10.031 1.2656t9.6562 3.8125v-8.5q-4.8438-2.0469-9.9219-3.125t-10.297-1.0781q-13.094 0-20.734 7.6094-7.6406 7.625-7.6406 20.625 0 13.422 7.25 21.297 7.25 7.8906 19.562 7.8906 11.031 0 17.453-7.1094 6.4219-7.0938 6.4219-19.297zm-8.9844 2.6406q-.09375 7.3594-4.125 11.75-4.0312 4.4062-10.672 4.4062-7.5156 0-12.031-4.25t-5.2031-11.969z" stroke-linejoin="round"/><path id="o" d="m18.453 38.922q0-4.0625 3.125-6.3594 3.125-2.2812 8.9375-2.2812h12.109v17.234h-12.109q-5.8125 0-8.9375-2.25t-3.125-6.3438zm-12.781-38.922 16.688 23.969q-5.6562 1.2812-9.4219 4.625-3.75 3.3438-3.75 10.328 0 7.9062 5.2344 11.828 5.25 3.9375 15.859 3.9375h21.375v-54.688h-9.0312v23.094h-11.172l-16.125-23.094z" stroke-linejoin="round"/><path id="p" d="m11.719 12.406h10.297v-8.4062l-8-15.625h-6.2969l4 15.625z" stroke-linejoin="round"/><path id="q" d="m9.0781 0v54.688h38.578v-7.1719h-29.547v-47.516z" stroke-linejoin="round"/><path id="r" d="m30.609 48.391q-7.2188 0-11.422-5.6406t-4.2031-15.453 4.1719-15.453q4.1875-5.6406 11.453-5.6406 7.1875 0 11.375 5.6562 4.2031 5.6719 4.2031 15.438 0 9.7188-4.2031 15.406-4.1875 5.6875-11.375 5.6875zm0 7.6094q11.719 0 18.406-7.625 6.7031-7.6094 6.7031-21.078 0-13.422-6.7031-21.078-6.6875-7.6406-18.406-7.6406-11.766 0-18.438 7.6406-6.6562 7.6562-6.6562 21.078 0 13.469 6.6562 21.078 6.6719 7.625 18.438 7.625z" stroke-linejoin="round"/><path id="s" d="m21.625 7.1719h26.078v40.344h-18.891v-6.8438q0-20.109-5.7656-30.859zm-13.031 0q4.4375 1.9531 6.3906 6.1094 4.7969 10.297 4.7969 31.062v10.344h36.953v-47.516h7.1875v-20.984h-7.1875v13.812h-44.328v-13.812h-7.1875v20.984z" stroke-linejoin="round"/><path id="t" d="m61.047 54.688h8.9844v-54.688h-8.9844zm-17.594-38.4685q0 4.3906-3.2031 6.6875-3.1875 2.2969-9.3438 2.2969h-12.797v-18.031h12.797q6.1562 0 9.3438 2.3125 3.2031 2.3281 3.2031 6.7344zm-34.375 38.469h9.0312v-22.312h13.188q10.453 0 16.094-3.9844 5.6406-3.9688 5.6406-12.172t-5.6406-12.219q-5.6406-4-16.094-4h-22.219z" stroke-linejoin="round"/><path id="u" d="m0 0h-3.5" stroke="#000" stroke-linejoin="round" stroke-width=".8"/><path id="v" d="m37.797 64.312-24.906-38.922h24.906zm-2.5938 8.5938h12.406v-47.516h10.406v-8.2031h-10.406v-17.188h-9.8125v17.188h-32.906v9.5156z" stroke-linejoin="round"/><path id="w" d="m9.8125 72.906h9.8594v-36.047l35.266 36.047h12.641l-28.172-28.812 29.641-44.094h-10.75l-25.281 37.547-13.344-13.625v-23.922h-9.8594z" stroke-linejoin="round"/><path id="x" d="m3.7188 0v7.4688q8.875 1.375 11.609 7.5156 3.3281 8.6562 3.3281 30.766v8.9375h36.953v-54.688h-8.9844v47.516h-18.984v-5.4219q0-21.094-4.2969-30.562-4.5938-10.109-19.625-11.531z" stroke-linejoin="round"/><path id="y" d="m55.906 54.688v-54.688h-8.9375v43.891l-26.359-43.891h-11.531v54.688h8.9375v-43.797l26.328 43.797z" stroke-linejoin="round"/><path id="z" d="m41.016 0v23h-16.75q-7.4688 0-12.453 4.6406-4.4844 4.2031-4.4844 13.188v13.859h8.9844v-13.031q0-5.7188 2.5312-8.5938 2.5938-2.8906 7.6719-2.8906h14.5v24.516h8.9844v-54.688z" stroke-linejoin="round"/><path id="A" d="m48.781 52.594v-8.4062q-3.8125 2.1094-7.6406 3.1562t-7.7344 1.0469q-8.75 0-13.594-5.5469-4.8281-5.5312-4.8281-15.547t4.8281-15.562q4.8438-5.5312 13.594-5.5312 3.9062 0 7.7344 1.0469t7.6406 3.1562v-8.3125q-3.7656-1.75-7.7969-2.625-4.0156-.89062-8.5625-.89062-12.359 0-19.641 7.7656-7.2656 7.7656-7.2656 20.953 0 13.375 7.3438 21.031 7.3594 7.6719 20.156 7.6719 4.1406 0 8.0938-.85938 3.9531-.84375 7.6719-2.5469z" stroke-linejoin="round"/><path id="B" d="m2.9375 54.688h52.391v-7.1719h-21.781v-47.516h-8.8438v47.516h-21.766z" stroke-linejoin="round"/><path id="C" d="m18.062 25.203v-18.031h12.797q6.1562 0 9.375 2.3125 3.2188 2.3281 3.2188 6.7344 0 4.3906-3.2188 6.6875t-9.375 2.2969zm0 22.312v-15.141h11.828q5.0781 0 8.2969 2.0156 3.2188 2.0312 3.2188 5.6562 0 3.6094-3.2188 5.5312-3.2188 1.9375-8.2969 1.9375zm-8.9844 7.1719h21.391q9.625 0 14.797-3.5156t5.1719-10.016q0-5.0156-2.6406-7.9844-2.625-2.9531-7.8125-3.6719 6.2031-1.1719 9.625-4.8906 3.4219-3.7031 3.4219-9.2812 0-7.3125-5.6406-11.328-5.6406-4-16.094-4h-22.219z" stroke-linejoin="round"/><path id="D" d="m56.297 54.688v-54.688h-9.0312v47.516h-29.156v-47.516h-9.0312v54.688z" stroke-linejoin="round"/><path id="E" d="m34.281 27.484q-10.891 0-15.094-2.4844t-4.2031-8.5q0-4.7812 3.1562-7.5938 3.1562-2.7969 8.5625-2.7969 7.4844 0 12 5.2969t4.5156 14.078v2zm17.922 3.7188v-31.203h-8.9844v8.2969q-3.0781-4.9688-7.6719-7.3438t-11.234-2.375q-8.3906 0-13.359 4.7188-4.9531 4.7188-4.9531 12.625 0 9.2188 6.1719 13.906 6.1875 4.6875 18.438 4.6875h12.609v.89062q0 6.2031-4.0781 9.5938t-11.453 3.3906q-4.6875 0-9.1406-1.125-4.4375-1.125-8.5312-3.375v8.3125q4.9219 1.9062 9.5625 2.8438 4.6406.95312 9.0312.95312 11.875 0 17.734-6.1562 5.8594-6.1406 5.8594-18.641z" stroke-linejoin="round"/><path id="F" d="m9.0781 54.688h9.0312v-22.312h29.156v22.312h9.0312v-54.688h-9.0312v25.203h-29.156v-25.203h-9.0312z" stroke-linejoin="round"/><path id="G" d="m0 1.5c.3978 0 .77937-.15805 1.0607-.43934.28129-.28129.43934-.66286.43934-1.0607s-.15805-.77937-.43934-1.0607c-.28129-.28129-.66286-.43934-1.0607-.43934s-.77937.15805-1.0607.43934c-.28129.28129-.43934.66286-.43934 1.0607s.15805.77937.43934 1.0607c.28129.28129.66286.43934 1.0607.43934z" stroke="#00f" stroke-linejoin="round"/><path id="H" d="m82.422 0h-73.344v54.688h9.0312v-47.516h23.109v47.516h9.0312v-47.516h23.141v47.516h9.0312v-47.516h7.1719v-20.984h-7.1719z" stroke-linejoin="round"/><path id="I" d="m55.906 54.688v-54.688h-8.9375v43.891l-26.359-43.891h-11.531v54.688h8.9375v-43.797l26.328 43.797zm-38.688 20.828h5.7656q.53125-3.6562 2.8906-5.5 2.375-1.8281 6.625-1.8281 4.2031 0 6.5469 1.8125t2.9688 5.5156h5.7656q-.48438-6.9844-4.3438-10.5t-10.938-3.5156-10.938 3.5156-4.3438 10.5z" stroke-linejoin="round"/><path id="J" d="m10.688 12.406h10.312v-12.406h-10.312z" stroke-linejoin="round"/><path id="K" d="m40.578 39.312q7.0781-1.5156 11.047-6.3125 3.9844-4.7812 3.9844-11.812 0-10.781-7.4219-16.703-7.4219-5.9062-21.094-5.9062-4.5781 0-9.4375.90625t-10.031 2.7188v9.5156q4.0938-2.3906 8.9688-3.6094 4.8906-1.2188 10.219-1.2188 9.2656 0 14.125 3.6562t4.8594 10.641q0 6.4531-4.5156 10.078-4.5156 3.6406-12.562 3.6406h-8.5v8.1094h8.8906q7.2656 0 11.125 2.9062t3.8594 8.375q0 5.6094-3.9844 8.6094-3.9688 3.0156-11.391 3.0156-4.0625 0-8.7031-.89062-4.6406-.875-10.203-2.7188v8.7812q5.625 1.5625 10.531 2.3438t9.25.78125q11.234 0 17.766-5.1094 6.5469-5.0938 6.5469-13.781 0-6.0625-3.4688-10.234t-9.8594-5.7812z" stroke-linejoin="round"/><path id="L" d="m31.109 56q11.719 0 18.406-7.625 6.6875-7.6094 6.6875-21.078 0-13.422-6.6875-21.078-6.6875-7.6406-18.406-7.6406-11.766 0-18.266 7.4219t-6.8438 21.297l-.28125 11.188q-.25 5.7969-.25 7.8125 0 7.8125 2.8281 13.562 4.4531 9.0312 12.141 12.938t20.578 4.0156q5.9531.046875 8.5938.875l2.4844-7.125q-2.3906-.98438-4.5781-1.0312l-12.219-.82812q-6.1406-.4375-9.8594-2.5938-9.7188-5.7031-10.641-13.172l-.34375-2.7344q6.3438 5.7969 16.656 5.7969zm0-7.6094q-7.2344 0-11.438-5.6406-4.1875-5.6406-4.1875-15.453t4.1719-15.453 11.453-5.6406q7.1719 0 11.375 5.6562 4.2031 5.6719 4.2031 15.438 0 9.7188-4.2031 15.406t-11.375 5.6875z" stroke-linejoin="round"/><path id="M" d="m43.453 16.219q0 4.3906-3.2031 6.6875-3.1875 2.2969-9.3438 2.2969h-12.797v-18.031h12.797q6.1562 0 9.3438 2.3125 3.2031 2.3281 3.2031 6.7344zm-34.375 38.469h9.0312v-22.312h13.188q10.453 0 16.094-3.9844 5.6406-3.9688 5.6406-12.172t-5.6406-12.219q-5.6406-4-16.094-4h-22.219z" stroke-linejoin="round"/><path id="N" d="m54.891 54.688-19.781-26.609 20.797-28.078h-10.594l-15.922 21.484-15.906-21.484h-10.609l21.25 28.609-19.438 26.078h10.594l14.5-19.484 14.5 19.484z" stroke-linejoin="round"/></defs><g stroke-linejoin="round"><path d="m0 648h1152v-648h-1152z" fill="#fff"/><path d="m55.296 609.12h1085.2v-589.68h-1085.2z" fill="#fff"/><path clip-path="url(#a)" d="m62.743 609.12v-589.68" fill="none" stroke="#b0b0b0" stroke-dasharray=".8 1.32" stroke-width=".8"/><use stroke="#000" stroke-width=".8" x="62.742675" xlink:href="#b" y="609.12"/><g transform="matrix(.1 0 0 -.1 50.018 623.72)"><use xlink:href="#c"/><use x="63.623047" xlink:href="#d"/><use x="127.246094" xlink:href="#e"/><use x="190.869141" xlink:href="#f"/></g><path clip-path="url(#a)" d="m146.34 609.12v-589.68" fill="none" stroke="#b0b0b0" stroke-dasharray=".8 1.32" stroke-width=".8"/><use stroke="#000" stroke-width=".8" x="146.340109" xlink:href="#b" y="609.12"/><g transform="matrix(.1 0 0 -.1 133.62 623.72)"><use xlink:href="#c"/><use x="63.623047" xlink:href="#d"/><use x="127.246094" xlink:href="#e"/><use x="190.869141" xlink:href="#g"/></g><path clip-path="url(#a)" d="m229.89 609.12v-589.68" fill="none" stroke="#b0b0b0" stroke-dasharray=".8 1.32" stroke-width=".8"/><use stroke="#000" stroke-width=".8" x="229.891787" xlink:href="#b" y="609.12"/><g transform="matrix(.1 0 0 -.1 217.17 623.72)"><use xlink:href="#c"/><use x="63.623047" xlink:href="#d"/><use x="127.246094" xlink:href="#h"/><use x="190.869141" xlink:href="#f"/></g><path clip-path="url(#a)" d="m313.44 609.12v-589.68" fill="none" stroke="#b0b0b0" stroke-dasharray=".8 1.32" stroke-width=".8"/><use stroke="#000" stroke-width=".8" x="313.443464" xlink:href="#b" y="609.12"/><g transform="matrix(.1 0 0 -.1 300.72 623.72)"><use xlink:href="#c"/><use x="63.623047" xlink:href="#d"/><use x="127.246094" xlink:href="#h"/><use x="190.869141" xlink:href="#g"/></g><path clip-path="url(#a)" d="m397 609.12v-589.68" fill="none" stroke="#b0b0b0" stroke-dasharray=".8 1.32" stroke-width=".8"/><use stroke="#000" stroke-width=".8" x="396.995141" xlink:href="#b" y="609.12"/><g transform="matrix(.1 0 0 -.1 384.27 623.72)"><use xlink:href="#c"/><use x="63.623047" xlink:href="#d"/><use x="127.246094" xlink:href="#i"/><use x="190.869141" xlink:href="#f"/></g><path clip-path="url(#a)" d="m480.59 609.12v-589.68" fill="none" stroke="#b0b0b0" stroke-dasharray=".8 1.32" stroke-width=".8"/><use stroke="#000" stroke-width=".8" x="480.592575" xlink:href="#b" y="609.12"/><g transform="matrix(.1 0 0 -.1 467.87 623.72)"><use xlink:href="#c"/><use x="63.623047" xlink:href="#d"/><use x="127.246094" xlink:href="#i"/><use x="190.869141" xlink:href="#g"/></g><path clip-path="url(#a)" d="m564.14 609.12v-589.68" fill="none" stroke="#b0b0b0" stroke-dasharray=".8 1.32" stroke-width=".8"/><use stroke="#000" stroke-width=".8" x="564.144252" xlink:href="#b" y="609.12"/><g transform="matrix(.1 0 0 -.1 551.42 623.72)"><use xlink:href="#c"/><use x="63.623047" xlink:href="#d"/><use x="127.246094" xlink:href="#d"/><use x="190.869141" xlink:href="#f"/></g><path clip-path="url(#a)" d="m647.7 609.12v-589.68" fill="none" stroke="#b0b0b0" stroke-dasharray=".8 1.32" stroke-width=".8"/><use stroke="#000" stroke-width=".8" x="647.695929" xlink:href="#b" y="609.12"/><g transform="matrix(.1 0 0 -.1 634.97 623.72)"><use xlink:href="#c"/><use x="63.623047" xlink:href="#d"/><use x="127.246094" xlink:href="#d"/><use x="190.869141" xlink:href="#g"/></g><path clip-path="url(#a)" d="m731.25 609.12v-589.68" fill="none" stroke="#b0b0b0" stroke-dasharray=".8 1.32" stroke-width=".8"/><use stroke="#000" stroke-width=".8" x="731.247607" xlink:href="#b" y="609.12"/><g transform="matrix(.1 0 0 -.1 718.52 623.72)"><use xlink:href="#j"/><use x="63.623047" xlink:href="#f"/><use x="127.246094" xlink:href="#f"/><use x="190.869141" xlink:href="#f"/></g><path clip-path="url(#a)" d="m814.85 609.12v-589.68" fill="none" stroke="#b0b0b0" stroke-dasharray=".8 1.32" stroke-width=".8"/><use stroke="#000" stroke-width=".8" x="814.84504" xlink:href="#b" y="609.12"/><g transform="matrix(.1 0 0 -.1 802.12 623.72)"><use xlink:href="#j"/><use x="63.623047" xlink:href="#f"/><use x="127.246094" xlink:href="#f"/><use x="190.869141" xlink:href="#g"/></g><path clip-path="url(#a)" d="m898.4 609.12v-589.68" fill="none" stroke="#b0b0b0" stroke-dasharray=".8 1.32" stroke-width=".8"/><use stroke="#000" stroke-width=".8" x="898.396718" xlink:href="#b" y="609.12"/><g transform="matrix(.1 0 0 -.1 885.67 623.72)"><use xlink:href="#j"/><use x="63.623047" xlink:href="#f"/><use x="127.246094" xlink:href="#c"/><use x="190.869141" xlink:href="#f"/></g><path clip-path="url(#a)" d="m981.95 609.12v-589.68" fill="none" stroke="#b0b0b0" stroke-dasharray=".8 1.32" stroke-width=".8"/><use stroke="#000" stroke-width=".8" x="981.948395" xlink:href="#b" y="609.12"/><g transform="matrix(.1 0 0 -.1 969.22 623.72)"><use xlink:href="#j"/><use x="63.623047" xlink:href="#f"/><use x="127.246094" xlink:href="#c"/><use x="190.869141" xlink:href="#g"/></g><path clip-path="url(#a)" d="m1065.5 609.12v-589.68" fill="none" stroke="#b0b0b0" stroke-dasharray=".8 1.32" stroke-width=".8"/><use stroke="#000" stroke-width=".8" x="1065.500072" xlink:href="#b" y="609.12"/><g transform="matrix(.1 0 0 -.1 1052.8 623.72)"><use xlink:href="#j"/><use x="63.623047" xlink:href="#f"/><use x="127.246094" xlink:href="#j"/><use x="190.869141" xlink:href="#f"/></g><g stroke="#000"><use stroke-width=".6" x="79.489616" xlink:href="#k" y="609.12"/><use stroke-width=".6" x="96.1908" xlink:href="#k" y="609.12"/><use stroke-width=".6" x="112.891984" xlink:href="#k" y="609.12"/><use stroke-width=".6" x="129.593169" xlink:href="#k" y="609.12"/><use stroke-width=".6" x="163.041293" xlink:href="#k" y="609.12"/><use stroke-width=".6" x="179.742478" xlink:href="#k" y="609.12"/><use stroke-width=".6" x="196.443662" xlink:href="#k" y="609.12"/><use stroke-width=".6" x="213.190602" xlink:href="#k" y="609.12"/><use stroke-width=".6" x="246.592971" xlink:href="#k" y="609.12"/><use stroke-width=".6" x="263.294155" xlink:href="#k" y="609.12"/><use stroke-width=".6" x="280.041096" xlink:href="#k" y="609.12"/><use stroke-width=".6" x="296.74228" xlink:href="#k" y="609.12"/><use stroke-width=".6" x="330.144648" xlink:href="#k" y="609.12"/><use stroke-width=".6" x="346.891589" xlink:href="#k" y="609.12"/><use stroke-width=".6" x="363.592773" xlink:href="#k" y="609.12"/><use stroke-width=".6" x="380.293957" xlink:href="#k" y="609.12"/><use stroke-width=".6" x="413.742082" xlink:href="#k" y="609.12"/><use stroke-width=".6" x="430.443266" xlink:href="#k" y="609.12"/><use stroke-width=".6" x="447.14445" xlink:href="#k" y="609.12"/><use stroke-width=".6" x="463.845634" xlink:href="#k" y="609.12"/><use stroke-width=".6" x="497.293759" xlink:href="#k" y="609.12"/><use stroke-width=".6" x="513.994943" xlink:href="#k" y="609.12"/><use stroke-width=".6" x="530.696127" xlink:href="#k" y="609.12"/><use stroke-width=".6" x="547.443068" xlink:href="#k" y="609.12"/><use stroke-width=".6" x="580.845436" xlink:href="#k" y="609.12"/><use stroke-width=".6" x="597.54662" xlink:href="#k" y="609.12"/><use stroke-width=".6" x="614.293561" xlink:href="#k" y="609.12"/><use stroke-width=".6" x="630.994745" xlink:href="#k" y="609.12"/><use stroke-width=".6" x="664.397113" xlink:href="#k" y="609.12"/><use stroke-width=".6" x="681.144054" xlink:href="#k" y="609.12"/><use stroke-width=".6" x="697.845238" xlink:href="#k" y="609.12"/><use stroke-width=".6" x="714.546422" xlink:href="#k" y="609.12"/><use stroke-width=".6" x="747.994547" xlink:href="#k" y="609.12"/><use stroke-width=".6" x="764.695731" xlink:href="#k" y="609.12"/><use stroke-width=".6" x="781.396916" xlink:href="#k" y="609.12"/><use stroke-width=".6" x="798.0981" xlink:href="#k" y="609.12"/><use stroke-width=".6" x="831.546225" xlink:href="#k" y="609.12"/><use stroke-width=".6" x="848.247409" xlink:href="#k" y="609.12"/><use stroke-width=".6" x="864.948593" xlink:href="#k" y="609.12"/><use stroke-width=".6" x="881.695534" xlink:href="#k" y="609.12"/><use stroke-width=".6" x="915.097902" xlink:href="#k" y="609.12"/><use stroke-width=".6" x="931.799086" xlink:href="#k" y="609.12"/><use stroke-width=".6" x="948.546027" xlink:href="#k" y="609.12"/><use stroke-width=".6" x="965.247211" xlink:href="#k" y="609.12"/><use stroke-width=".6" x="998.649579" xlink:href="#k" y="609.12"/><use stroke-width=".6" x="1015.39652" xlink:href="#k" y="609.12"/><use stroke-width=".6" x="1032.097704" xlink:href="#k" y="609.12"/><use stroke-width=".6" x="1048.798888" xlink:href="#k" y="609.12"/><use stroke-width=".6" x="1082.247013" xlink:href="#k" y="609.12"/><use stroke-width=".6" x="1098.948197" xlink:href="#k" y="609.12"/><use stroke-width=".6" x="1115.649381" xlink:href="#k" y="609.12"/><use stroke-width=".6" x="1132.350565" xlink:href="#k" y="609.12"/></g><g transform="matrix(.14 0 0 -.14 552.07 640.44)"><use xlink:href="#l"/><use x="68.603516" xlink:href="#m"/><use x="132.080078" xlink:href="#n"/><path d="m9.0781 54.688h13.141l15.531-36.625 15.578 36.625h13.031v-54.688h-9.0312v46.094l-15.094-35.594h-8.9844l-15.141 35.594v-46.094h-9.0312z" transform="translate(193.603516)"/><use x="269.042969" xlink:href="#o"/><use x="329.199219" xlink:href="#p"/><use x="392.773438" xlink:href="#q"/><use x="445.3125" xlink:href="#r"/><use x="506.494141" xlink:href="#s"/><use x="575.634766" xlink:href="#t"/></g><path clip-path="url(#a)" d="m55.296 609.12h1085.2" fill="none" stroke="#b0b0b0" stroke-dasharray=".8 1.32" stroke-width=".8"/><use stroke="#000" stroke-width=".8" x="55.296" xlink:href="#u" y="609.12"/><use transform="matrix(.1 0 0 -.1 41.934 612.92)" xlink:href="#f"/><path clip-path="url(#a)" d="m55.296 527.5h1085.2" fill="none" stroke="#b0b0b0" stroke-dasharray=".8 1.32" stroke-width=".8"/><use stroke="#000" stroke-width=".8" x="55.296" xlink:href="#u" y="527.503391"/><g transform="matrix(.1 0 0 -.1 29.208 531.3)"><use xlink:href="#j"/><use x="63.623047" xlink:href="#f"/><use x="127.246094" xlink:href="#f"/></g><path clip-path="url(#a)" d="m55.296 445.89h1085.2" fill="none" stroke="#b0b0b0" stroke-dasharray=".8 1.32" stroke-width=".8"/><use stroke="#000" stroke-width=".8" x="55.296" xlink:href="#u" y="445.886782"/><g transform="matrix(.1 0 0 -.1 29.208 449.69)"><use xlink:href="#v"/><use x="63.623047" xlink:href="#f"/><use x="127.246094" xlink:href="#f"/></g><path clip-path="url(#a)" d="m55.296 364.27h1085.2" fill="none" stroke="#b0b0b0" stroke-dasharray=".8 1.32" stroke-width=".8"/><use stroke="#000" stroke-width=".8" x="55.296" xlink:href="#u" y="364.270173"/><g transform="matrix(.1 0 0 -.1 29.208 368.07)"><use xlink:href="#e"/><use x="63.623047" xlink:href="#f"/><use x="127.246094" xlink:href="#f"/></g><path clip-path="url(#a)" d="m55.296 282.65h1085.2" fill="none" stroke="#b0b0b0" stroke-dasharray=".8 1.32" stroke-width=".8"/><use stroke="#000" stroke-width=".8" x="55.296" xlink:href="#u" y="282.653564"/><g transform="matrix(.1 0 0 -.1 29.208 286.45)"><use xlink:href="#i"/><use x="63.623047" xlink:href="#f"/><use x="127.246094" xlink:href="#f"/></g><path clip-path="url(#a)" d="m55.296 201.04h1085.2" fill="none" stroke="#b0b0b0" stroke-dasharray=".8 1.32" stroke-width=".8"/><use stroke="#000" stroke-width=".8" x="55.296" xlink:href="#u" y="201.036955"/><g transform="matrix(.1 0 0 -.1 22.846 204.84)"><use xlink:href="#c"/><use x="63.623047" xlink:href="#f"/><use x="127.246094" xlink:href="#f"/><use x="190.869141" xlink:href="#f"/></g><path clip-path="url(#a)" d="m55.296 119.42h1085.2" fill="none" stroke="#b0b0b0" stroke-dasharray=".8 1.32" stroke-width=".8"/><use stroke="#000" stroke-width=".8" x="55.296" xlink:href="#u" y="119.420346"/><g transform="matrix(.1 0 0 -.1 22.846 123.22)"><use xlink:href="#c"/><use x="63.623047" xlink:href="#j"/><use x="127.246094" xlink:href="#f"/><use x="190.869141" xlink:href="#f"/></g><path clip-path="url(#a)" d="m55.296 37.804h1085.2" fill="none" stroke="#b0b0b0" stroke-dasharray=".8 1.32" stroke-width=".8"/><use stroke="#000" stroke-width=".8" x="55.296" xlink:href="#u" y="37.803737"/><g transform="matrix(.1 0 0 -.1 22.846 41.603)"><use xlink:href="#c"/><use x="63.623047" xlink:href="#v"/><use x="127.246094" xlink:href="#f"/><use x="190.869141" xlink:href="#f"/></g><g transform="matrix(0 -.14 -.14 0 15.934 438.33)"><use xlink:href="#w"/><use x="70.996094" xlink:href="#r"/><use x="132.177734" xlink:href="#x"/><use x="196.09375" xlink:href="#y"/><use x="261.083984" xlink:href="#z"/><use x="320.166016" xlink:href="#n"/><use x="381.689453" xlink:href="#A"/><use x="436.669922" xlink:href="#B"/><use x="494.921875" xlink:href="#C"/><use x="553.857422" xlink:href="#r"/><use x="646.826172" xlink:href="#D"/><use x="712.207031" xlink:href="#r"/><use x="773.388672" xlink:href="#x"/><use x="837.304688" xlink:href="#n"/><use x="898.828125" xlink:href="#B"/><use x="957.080078" xlink:href="#r"/><use x="1018.261719" xlink:href="#C"/><use x="1108.984375" xlink:href="#E"/><use x="1170.263672" xlink:href="#A"/><use x="1225.244141" xlink:href="#B"/><use x="1283.496094" xlink:href="#m"/><use x="1346.972656" xlink:href="#r"/><use x="1408.154297" xlink:href="#F"/><use x="1473.535156" xlink:href="#E"/><use x="1534.814453" xlink:href="#C"/><use x="1593.75" xlink:href="#B"/><use x="1652.001953" xlink:href="#r"/><use x="1713.183594" xlink:href="#C"/></g><path clip-path="url(#a)" d="m180.93 609.12v-589.68" fill="none" stroke="#f00" stroke-dasharray="5.55 2.4" stroke-width="1.5"/><path clip-path="url(#a)" d="m184.87 609.12v-589.68" fill="none" stroke="#f00" stroke-dasharray="5.55 2.4" stroke-width="1.5"/><path clip-path="url(#a)" d="m254.78 609.12v-589.68" fill="none" stroke="#f00" stroke-dasharray="5.55 2.4" stroke-width="1.5"/><path clip-path="url(#a)" d="m498.53 609.12v-589.68" fill="none" stroke="#f00" stroke-dasharray="5.55 2.4" stroke-width="1.5"/><path clip-path="url(#a)" d="m782.82 609.12v-589.68" fill="none" stroke="#f00" stroke-dasharray="5.55 2.4" stroke-width="1.5"/><path clip-path="url(#a)" d="m753.35 609.12v-589.68" fill="none" stroke="#008000" stroke-dasharray="5.55 2.4" stroke-width="1.5"/><path clip-path="url(#a)" d="m1072.4 609.12v-589.68" fill="none" stroke="#008000" stroke-dasharray="5.55 2.4" stroke-width="1.5"/><path clip-path="url(#a)" d="m1091 609.12v-589.68" fill="none" stroke="#008000" stroke-dasharray="5.55 2.4" stroke-width="1.5"/><path clip-path="url(#a)" d="m1091.4 609.12v-589.68" fill="none" stroke="#008000" stroke-dasharray="5.55 2.4" stroke-width="1.5"/><path clip-path="url(#a)" d="m1094.1 609.12v-589.68" fill="none" stroke="#008000" stroke-dasharray="5.55 2.4" stroke-width="1.5"/><g clip-path="url(#a)" fill="#00f" stroke="#00f"><use x="84.122701" xlink:href="#G" y="608.711917"/><use x="85.191215" xlink:href="#G" y="608.303834"/><use x="88.71022" xlink:href="#G" y="607.895751"/><use x="89.430252" xlink:href="#G" y="607.487668"/><use x="98.506819" xlink:href="#G" y="607.079585"/><use x="102.758312" xlink:href="#G" y="606.671502"/><use x="105.236354" xlink:href="#G" y="606.263419"/><use x="106.364986" xlink:href="#G" y="605.855336"/><use x="106.409853" xlink:href="#G" y="605.447253"/><use x="108.797239" xlink:href="#G" y="605.03917"/><use x="113.660283" xlink:href="#G" y="604.631087"/><use x="119.04829" xlink:href="#G" y="604.223003"/><use x="120.418893" xlink:href="#G" y="603.81492"/><use x="120.505672" xlink:href="#G" y="603.406837"/><use x="121.023199" xlink:href="#G" y="602.998754"/><use x="122.030608" xlink:href="#G" y="602.590671"/><use x="123.585858" xlink:href="#G" y="602.182588"/><use x="142.648118" xlink:href="#G" y="600.958339"/><use x="149.830962" xlink:href="#G" y="600.142173"/><use x="150.073853" xlink:href="#G" y="599.326007"/><use x="153.369986" xlink:href="#G" y="598.509841"/><use x="154.563631" xlink:href="#G" y="598.101758"/><use x="156.487413" xlink:href="#G" y="597.693675"/><use x="156.982348" xlink:href="#G" y="596.877509"/><use x="158.727043" xlink:href="#G" y="596.469426"/><use x="159.464202" xlink:href="#G" y="596.061343"/><use x="161.797284" xlink:href="#G" y="595.245176"/><use x="162.289391" xlink:href="#G" y="594.42901"/><use x="166.459094" xlink:href="#G" y="593.612844"/><use x="170.068088" xlink:href="#G" y="592.796678"/><use x="172.143693" xlink:href="#G" y="591.980512"/><use x="174.691513" xlink:href="#G" y="591.164346"/><use x="176.99212" xlink:href="#G" y="590.756263"/><use x="177.44848" xlink:href="#G" y="589.940097"/><use x="184.868337" xlink:href="#G" y="589.532014"/><use x="192.99793" xlink:href="#G" y="589.123931"/><use x="194.328369" xlink:href="#G" y="588.715848"/><use x="207.135597" xlink:href="#G" y="588.307765"/><use x="209.467217" xlink:href="#G" y="587.083516"/><use x="210.141238" xlink:href="#G" y="586.675433"/><use x="212.711778" xlink:href="#G" y="585.451183"/><use x="213.799738" xlink:href="#G" y="585.0431"/><use x="213.844669" xlink:href="#G" y="583.818851"/><use x="216.012264" xlink:href="#G" y="582.594602"/><use x="219.491327" xlink:href="#G" y="581.370353"/><use x="222.184711" xlink:href="#G" y="580.146104"/><use x="226.161029" xlink:href="#G" y="579.329938"/><use x="226.20596" xlink:href="#G" y="578.105689"/><use x="226.250922" xlink:href="#G" y="577.289522"/><use x="227.72667" xlink:href="#G" y="576.065273"/><use x="234.504091" xlink:href="#G" y="574.841024"/><use x="236.837268" xlink:href="#G" y="574.024858"/><use x="248.005803" xlink:href="#G" y="572.800609"/><use x="251.717527" xlink:href="#G" y="571.57636"/><use x="253.740385" xlink:href="#G" y="570.352111"/><use x="256.04471" xlink:href="#G" y="569.127862"/><use x="268.178488" xlink:href="#G" y="567.903612"/><use x="278.90776" xlink:href="#G" y="566.679363"/><use x="286.654841" xlink:href="#G" y="565.455114"/><use x="289.579772" xlink:href="#G" y="564.230865"/><use x="292.37309" xlink:href="#G" y="563.414699"/><use x="294.664196" xlink:href="#G" y="562.19045"/><use x="296.124406" xlink:href="#G" y="561.374284"/><use x="305.151688" xlink:href="#G" y="560.558118"/><use x="307.624677" xlink:href="#G" y="559.741952"/><use x="312.089193" xlink:href="#G" y="558.925785"/><use x="313.896677" xlink:href="#G" y="558.109619"/><use x="317.76569" xlink:href="#G" y="557.293453"/><use x="320.015202" xlink:href="#G" y="556.477287"/><use x="322.389528" xlink:href="#G" y="555.661121"/><use x="322.403827" xlink:href="#G" y="554.436872"/><use x="338.724277" xlink:href="#G" y="553.620706"/><use x="341.968552" xlink:href="#G" y="552.80454"/><use x="343.310462" xlink:href="#G" y="551.988374"/><use x="348.615439" xlink:href="#G" y="551.172208"/><use x="359.754297" xlink:href="#G" y="550.356042"/><use x="362.588605" xlink:href="#G" y="549.539875"/><use x="364.028287" xlink:href="#G" y="548.723709"/><use x="366.367661" xlink:href="#G" y="547.907543"/><use x="371.181262" xlink:href="#G" y="547.091377"/><use x="371.721159" xlink:href="#G" y="546.275211"/><use x="374.465415" xlink:href="#G" y="545.459045"/><use x="382.83323" xlink:href="#G" y="544.642879"/><use x="384.857358" xlink:href="#G" y="543.826713"/><use x="401.551044" xlink:href="#G" y="543.010547"/><use x="403.710568" xlink:href="#G" y="542.194381"/><use x="404.160476" xlink:href="#G" y="541.378215"/><use x="406.364867" xlink:href="#G" y="540.562048"/><use x="408.974205" xlink:href="#G" y="539.745882"/><use x="412.167862" xlink:href="#G" y="538.521633"/><use x="416.981273" xlink:href="#G" y="537.705467"/><use x="417.43115" xlink:href="#G" y="536.889301"/><use x="418.386384" xlink:href="#G" y="536.073135"/><use x="419.860638" xlink:href="#G" y="535.256969"/><use x="428.184348" xlink:href="#G" y="534.440803"/><use x="434.134304" xlink:href="#G" y="533.624637"/><use x="436.502148" xlink:href="#G" y="532.808471"/><use x="438.436352" xlink:href="#G" y="531.584221"/><use x="438.570794" xlink:href="#G" y="530.768055"/><use x="441.00006" xlink:href="#G" y="529.543806"/><use x="444.834342" xlink:href="#G" y="527.911474"/><use x="451.435091" xlink:href="#G" y="526.279142"/><use x="452.157029" xlink:href="#G" y="525.054893"/><use x="454.853591" xlink:href="#G" y="523.014478"/><use x="455.26092" xlink:href="#G" y="522.198311"/><use x="458.184263" xlink:href="#G" y="520.157896"/><use x="462.320412" xlink:href="#G" y="517.709398"/><use x="465.380389" xlink:href="#G" y="515.668983"/><use x="465.607488" xlink:href="#G" y="514.444734"/><use x="468.126043" xlink:href="#G" y="513.220484"/><use x="468.264902" xlink:href="#G" y="511.180069"/><use x="472.939136" xlink:href="#G" y="509.95582"/><use x="474.942929" xlink:href="#G" y="507.507322"/><use x="476.587055" xlink:href="#G" y="504.65074"/><use x="478.14507" xlink:href="#G" y="502.610325"/><use x="481.682791" xlink:href="#G" y="500.56991"/><use x="485.240658" xlink:href="#G" y="497.713329"/><use x="486.02243" xlink:href="#G" y="494.856747"/><use x="487.743294" xlink:href="#G" y="494.040581"/><use x="488.255959" xlink:href="#G" y="491.184"/><use x="490.195756" xlink:href="#G" y="488.327419"/><use x="491.50357" xlink:href="#G" y="486.287003"/><use x="492.467638" xlink:href="#G" y="485.062754"/><use x="493.204733" xlink:href="#G" y="483.022339"/><use x="494.4435" xlink:href="#G" y="479.757675"/><use x="495.693197" xlink:href="#G" y="476.901093"/><use x="497.819802" xlink:href="#G" y="474.044512"/><use x="500.566409" xlink:href="#G" y="473.228346"/><use x="515.637671" xlink:href="#G" y="472.41218"/><use x="523.241571" xlink:href="#G" y="471.187931"/><use x="530.214348" xlink:href="#G" y="469.963682"/><use x="537.952468" xlink:href="#G" y="468.739433"/><use x="541.731841" xlink:href="#G" y="467.515183"/><use x="543.171715" xlink:href="#G" y="465.474768"/><use x="545.825983" xlink:href="#G" y="464.250519"/><use x="546.098013" xlink:href="#G" y="462.210104"/><use x="550.720294" xlink:href="#G" y="460.169689"/><use x="553.106949" xlink:href="#G" y="458.129273"/><use x="557.487832" xlink:href="#G" y="456.088858"/><use x="558.78621" xlink:href="#G" y="455.272692"/><use x="560.74469" xlink:href="#G" y="453.232277"/><use x="562.360473" xlink:href="#G" y="451.191862"/><use x="564.534296" xlink:href="#G" y="449.151446"/><use x="566.032223" xlink:href="#G" y="448.33528"/><use x="566.813073" xlink:href="#G" y="446.294865"/><use x="569.338683" xlink:href="#G" y="444.25445"/><use x="573.862841" xlink:href="#G" y="443.438284"/><use x="576.887071" xlink:href="#G" y="441.397869"/><use x="578.740248" xlink:href="#G" y="439.357453"/><use x="579.485732" xlink:href="#G" y="436.500872"/><use x="579.488401" xlink:href="#G" y="435.276623"/><use x="585.173954" xlink:href="#G" y="433.236208"/><use x="586.220987" xlink:href="#G" y="430.379626"/><use x="587.138567" xlink:href="#G" y="429.155377"/><use x="587.963267" xlink:href="#G" y="426.298796"/><use x="590.620268" xlink:href="#G" y="424.258381"/><use x="592.51183" xlink:href="#G" y="422.217965"/><use x="593.394171" xlink:href="#G" y="420.993716"/><use x="595.853115" xlink:href="#G" y="418.545218"/><use x="598.535854" xlink:href="#G" y="415.688637"/><use x="601.044908" xlink:href="#G" y="414.464388"/><use x="601.369622" xlink:href="#G" y="411.607806"/><use x="603.402838" xlink:href="#G" y="408.751225"/><use x="605.63068" xlink:href="#G" y="405.894644"/><use x="607.075701" xlink:href="#G" y="404.670394"/><use x="607.273598" xlink:href="#G" y="401.813813"/><use x="609.241993" xlink:href="#G" y="398.957232"/><use x="611.077535" xlink:href="#G" y="396.508734"/><use x="612.946408" xlink:href="#G" y="394.468318"/><use x="614.869301" xlink:href="#G" y="392.427903"/><use x="615.35734" xlink:href="#G" y="391.611737"/><use x="618.742412" xlink:href="#G" y="389.571322"/><use x="619.583858" xlink:href="#G" y="386.71474"/><use x="622.142959" xlink:href="#G" y="384.266242"/><use x="622.603226" xlink:href="#G" y="383.041993"/><use x="625.938157" xlink:href="#G" y="381.001578"/><use x="627.591371" xlink:href="#G" y="378.144997"/><use x="629.640062" xlink:href="#G" y="375.288415"/><use x="631.334266" xlink:href="#G" y="374.064166"/><use x="632.527911" xlink:href="#G" y="371.615668"/><use x="633.858128" xlink:href="#G" y="369.575253"/><use x="635.500029" xlink:href="#G" y="367.126754"/><use x="639.300343" xlink:href="#G" y="366.310588"/><use x="639.62887" xlink:href="#G" y="363.454007"/><use x="642.522312" xlink:href="#G" y="361.005509"/><use x="643.462039" xlink:href="#G" y="358.55701"/><use x="643.621107" xlink:href="#G" y="357.332761"/><use x="645.028665" xlink:href="#G" y="354.884263"/><use x="649.216131" xlink:href="#G" y="352.435765"/><use x="650.453976" xlink:href="#G" y="349.579183"/><use x="651.002198" xlink:href="#G" y="348.354934"/><use x="655.832101" xlink:href="#G" y="345.498353"/><use x="656.553054" xlink:href="#G" y="343.457938"/><use x="658.923472" xlink:href="#G" y="342.233689"/><use x="659.118224" xlink:href="#G" y="340.193273"/><use x="661.083346" xlink:href="#G" y="337.336692"/><use x="662.133112" xlink:href="#G" y="335.296277"/><use x="664.873142" xlink:href="#G" y="332.847779"/><use x="666.754662" xlink:href="#G" y="332.031612"/><use x="666.815163" xlink:href="#G" y="329.175031"/><use x="668.119069" xlink:href="#G" y="326.726533"/><use x="670.777309" xlink:href="#G" y="324.278035"/><use x="672.249752" xlink:href="#G" y="321.421453"/><use x="674.900747" xlink:href="#G" y="320.197204"/><use x="676.265059" xlink:href="#G" y="317.748706"/><use x="679.214489" xlink:href="#G" y="315.708291"/><use x="681.665394" xlink:href="#G" y="313.259792"/><use x="683.001298" xlink:href="#G" y="312.035543"/><use x="683.037077" xlink:href="#G" y="309.178962"/><use x="685.436284" xlink:href="#G" y="306.322381"/><use x="687.290922" xlink:href="#G" y="303.465799"/><use x="689.460392" xlink:href="#G" y="300.609218"/><use x="691.057205" xlink:href="#G" y="299.793052"/><use x="691.147002" xlink:href="#G" y="297.344554"/><use x="693.411735" xlink:href="#G" y="294.487972"/><use x="695.915387" xlink:href="#G" y="292.039474"/><use x="698.857223" xlink:href="#G" y="289.182893"/><use x="699.157978" xlink:href="#G" y="287.958644"/><use x="702.730366" xlink:href="#G" y="285.102062"/><use x="704.842386" xlink:href="#G" y="282.653564"/><use x="708.113257" xlink:href="#G" y="281.429315"/><use x="711.654823" xlink:href="#G" y="278.572734"/><use x="713.2816" xlink:href="#G" y="276.124235"/><use x="716.842454" xlink:href="#G" y="274.899986"/><use x="721.247518" xlink:href="#G" y="272.043405"/><use x="723.843637" xlink:href="#G" y="270.00299"/><use x="730.700115" xlink:href="#G" y="267.146408"/><use x="733.157407" xlink:href="#G" y="264.69791"/><use x="735.558298" xlink:href="#G" y="263.881744"/><use x="737.627198" xlink:href="#G" y="261.025163"/><use x="742.756839" xlink:href="#G" y="258.168581"/><use x="744.286891" xlink:href="#G" y="255.312"/><use x="745.172632" xlink:href="#G" y="254.087751"/><use x="746.582001" xlink:href="#G" y="252.047336"/><use x="749.731807" xlink:href="#G" y="250.00692"/><use x="751.036794" xlink:href="#G" y="247.150339"/><use x="752.971856" xlink:href="#G" y="244.293758"/><use x="753.362599" xlink:href="#G" y="243.069509"/><use x="756.797082" xlink:href="#G" y="241.029093"/><use x="758.147126" xlink:href="#G" y="238.172512"/><use x="761.418378" xlink:href="#G" y="236.948263"/><use x="763.502849" xlink:href="#G" y="234.091682"/><use x="767.417046" xlink:href="#G" y="231.2351"/><use x="769.173657" xlink:href="#G" y="228.378519"/><use x="769.924257" xlink:href="#G" y="227.15427"/><use x="771.828751" xlink:href="#G" y="224.297689"/><use x="777.499496" xlink:href="#G" y="221.84919"/><use x="778.520314" xlink:href="#G" y="220.624941"/><use x="779.659719" xlink:href="#G" y="217.76836"/><use x="782.113103" xlink:href="#G" y="214.911779"/><use x="786.666336" xlink:href="#G" y="214.095612"/><use x="794.530986" xlink:href="#G" y="213.687529"/><use x="794.67709" xlink:href="#G" y="212.46328"/><use x="803.0919" xlink:href="#G" y="211.239031"/><use x="805.996527" xlink:href="#G" y="210.830948"/><use x="810.572797" xlink:href="#G" y="210.422865"/><use x="810.800945" xlink:href="#G" y="210.014782"/><use x="811.236174" xlink:href="#G" y="208.790533"/><use x="819.605196" xlink:href="#G" y="207.566284"/><use x="824.298845" xlink:href="#G" y="204.709702"/><use x="827.344046" xlink:href="#G" y="203.485453"/><use x="827.841841" xlink:href="#G" y="202.669287"/><use x="835.577578" xlink:href="#G" y="201.445038"/><use x="840.000945" xlink:href="#G" y="198.588457"/><use x="843.060191" xlink:href="#G" y="196.139958"/><use x="843.450839" xlink:href="#G" y="194.915709"/><use x="847.244162" xlink:href="#G" y="192.059128"/><use x="852.673445" xlink:href="#G" y="190.834879"/><use x="855.52202" xlink:href="#G" y="187.978298"/><use x="858.311207" xlink:href="#G" y="185.121716"/><use x="861.176273" xlink:href="#G" y="183.897467"/><use x="861.775431" xlink:href="#G" y="181.040886"/><use x="866.679243" xlink:href="#G" y="178.184304"/><use x="868.163888" xlink:href="#G" y="175.327723"/><use x="869.454226" xlink:href="#G" y="174.103474"/><use x="871.89795" xlink:href="#G" y="171.246893"/><use x="877.236483" xlink:href="#G" y="170.022644"/><use x="878.002621" xlink:href="#G" y="168.798394"/><use x="879.546718" xlink:href="#G" y="165.941813"/><use x="885.080987" xlink:href="#G" y="163.085232"/><use x="885.561622" xlink:href="#G" y="161.860983"/><use x="887.67825" xlink:href="#G" y="159.004401"/><use x="888.396153" xlink:href="#G" y="157.780152"/><use x="890.660123" xlink:href="#G" y="154.923571"/><use x="892.684728" xlink:href="#G" y="152.06699"/><use x="894.155138" xlink:href="#G" y="150.84274"/><use x="896.329025" xlink:href="#G" y="148.394242"/><use x="897.889327" xlink:href="#G" y="147.169993"/><use x="900.153075" xlink:href="#G" y="144.721495"/><use x="902.568328" xlink:href="#G" y="143.497246"/><use x="902.717577" xlink:href="#G" y="140.640664"/><use x="904.517308" xlink:href="#G" y="138.192166"/><use x="905.987717" xlink:href="#G" y="136.967917"/><use x="911.206996" xlink:href="#G" y="135.743668"/><use x="914.356548" xlink:href="#G" y="134.519419"/><use x="917.610483" xlink:href="#G" y="132.07092"/><use x="919.395788" xlink:href="#G" y="130.846671"/><use x="921.29971" xlink:href="#G" y="128.398173"/><use x="922.320211" xlink:href="#G" y="127.173924"/><use x="923.729675" xlink:href="#G" y="125.541592"/><use x="929.610837" xlink:href="#G" y="124.317343"/><use x="931.321056" xlink:href="#G" y="123.093093"/><use x="937.981987" xlink:href="#G" y="121.868844"/><use x="939.460691" xlink:href="#G" y="120.644595"/><use x="940.772477" xlink:href="#G" y="119.420346"/><use x="945.363746" xlink:href="#G" y="118.196097"/><use x="947.97445" xlink:href="#G" y="116.971848"/><use x="952.520597" xlink:href="#G" y="115.747599"/><use x="955.311373" xlink:href="#G" y="114.523349"/><use x="955.931217" xlink:href="#G" y="113.2991"/><use x="960.803031" xlink:href="#G" y="112.074851"/><use x="962.738665" xlink:href="#G" y="110.850602"/><use x="969.085592" xlink:href="#G" y="109.626353"/><use x="972.011476" xlink:href="#G" y="108.402104"/><use x="977.503166" xlink:href="#G" y="107.177855"/><use x="980.203954" xlink:href="#G" y="105.953606"/><use x="985.87527" xlink:href="#G" y="104.729356"/><use x="991.231343" xlink:href="#G" y="103.505107"/><use x="993.121824" xlink:href="#G" y="102.280858"/><use x="997.892783" xlink:href="#G" y="101.056609"/><use x="1002.213706" xlink:href="#G" y="99.83236"/><use x="1007.254883" xlink:href="#G" y="98.608111"/><use x="1011.91806" xlink:href="#G" y="97.791945"/><use x="1012.025937" xlink:href="#G" y="96.567696"/><use x="1013.376236" xlink:href="#G" y="95.343446"/><use x="1020.397755" xlink:href="#G" y="94.52728"/><use x="1024.943808" xlink:href="#G" y="93.303031"/><use x="1027.059291" xlink:href="#G" y="92.078782"/><use x="1031.425367" xlink:href="#G" y="90.854533"/><use x="1035.74629" xlink:href="#G" y="89.630284"/><use x="1039.257097" xlink:href="#G" y="88.406035"/><use x="1045.063364" xlink:href="#G" y="87.589869"/><use x="1047.493901" xlink:href="#G" y="86.365619"/><use x="1047.959984" xlink:href="#G" y="85.549453"/><use x="1051.210423" xlink:href="#G" y="84.325204"/><use x="1052.130037" xlink:href="#G" y="83.100955"/><use x="1057.981616" xlink:href="#G" y="81.876706"/><use x="1061.042515" xlink:href="#G" y="80.652457"/><use x="1070.045393" xlink:href="#G" y="79.428208"/><use x="1072.400495" xlink:href="#G" y="78.612042"/><use x="1078.643199" xlink:href="#G" y="77.387792"/><use x="1080.143064" xlink:href="#G" y="75.75546"/><use x="1086.745847" xlink:href="#G" y="74.531211"/><use x="1087.390476" xlink:href="#G" y="72.898879"/><use x="1088.728127" xlink:href="#G" y="72.082713"/><use x="1089.890982" xlink:href="#G" y="70.858464"/><use x="1091.015929" xlink:href="#G" y="68.409965"/><use x="1091.423481" xlink:href="#G" y="66.777633"/><use x="1094.052297" xlink:href="#G" y="65.145301"/><use x="1094.93861" xlink:href="#G" y="63.921052"/><use x="1095.315912" xlink:href="#G" y="62.28872"/><use x="1095.410412" xlink:href="#G" y="61.064471"/><use x="1096.618515" xlink:href="#G" y="59.432138"/><use x="1097.86459" xlink:href="#G" y="58.207889"/><use x="1098.015905" xlink:href="#G" y="55.759391"/><use x="1102.456049" xlink:href="#G" y="54.535142"/><use x="1103.047168" xlink:href="#G" y="52.086644"/><use x="1103.415732" xlink:href="#G" y="50.454311"/><use x="1104.270969" xlink:href="#G" y="48.821979"/><use x="1106.020303" xlink:href="#G" y="46.373481"/><use x="1106.045692" xlink:href="#G" y="45.149232"/><use x="1108.812445" xlink:href="#G" y="42.700734"/><use x="1111.008702" xlink:href="#G" y="41.476484"/><use x="1111.653299" xlink:href="#G" y="39.844152"/></g><path d="m55.296 609.12v-589.68" fill="none" stroke="#000" stroke-width=".8"/><path d="m1140.5 609.12v-589.68" fill="none" stroke="#000" stroke-width=".8"/><path d="m55.296 609.12h1085.2" fill="none" stroke="#000" stroke-width=".8"/><path d="m55.296 19.44h1085.2" fill="none" stroke="#000" stroke-width=".8"/><g transform="matrix(.12 0 0 -.12 139.09 13.44)"><use xlink:href="#w"/><use x="70.996094" xlink:href="#r"/><use x="132.177734" xlink:href="#x"/><use x="196.09375" xlink:href="#y"/><use x="261.083984" xlink:href="#z"/><use x="320.166016" xlink:href="#n"/><use x="381.689453" xlink:href="#A"/><use x="436.669922" xlink:href="#B"/><use x="494.921875" xlink:href="#C"/><use x="553.857422" xlink:href="#r"/><use x="646.826172" xlink:href="#D"/><use x="712.207031" xlink:href="#r"/><use x="773.388672" xlink:href="#A"/><use x="828.369141" xlink:href="#n"/><use x="889.892578" xlink:href="#H"/><use x="984.082031" xlink:href="#n"/><use x="1045.605469" xlink:href="#F"/><use x="1110.986328" xlink:href="#y"/><use x="1175.976562" xlink:href="#I"/><use x="1240.966797" xlink:href="#J"/><use x="1304.541016" xlink:href="#l"/><use x="1373.144531" xlink:href="#A"/><use x="1428.125" xlink:href="#n"/><use x="1489.648438" xlink:href="#q"/><use x="1542.1875" xlink:href="#r"/><use x="1635.15625" xlink:href="#K"/><use x="1698.779297" xlink:href="#K"/><use x="1762.402344" xlink:href="#v"/><use x="1857.8125" xlink:href="#r"/><use x="1918.994141" xlink:href="#m"/><use x="1982.470703" xlink:href="#L"/><use x="2044.140625" xlink:href="#y"/><use x="2109.130859" xlink:href="#B"/><use x="2167.382812" xlink:href="#E"/><use x="2228.662109" xlink:href="#x"/><use x="2292.578125" xlink:href="#M"/><use x="2351.513672" xlink:href="#F"/><use x="2416.894531" xlink:href="#t"/><use x="2495.849609" xlink:href="#N"/><use x="2586.816406" xlink:href="#y"/><use x="2683.59375" xlink:href="#K"/><use x="2747.216797" xlink:href="#f"/><use x="2842.626953" xlink:href="#A"/><path d="m32.172-5.0781q-3.7969-9.7656-7.4219-12.734-3.6094-2.9844-9.6562-2.9844h-7.1875v7.5156h5.2812q3.7031 0 5.75 1.7656 2.0625 1.75 4.5469 8.2969l1.6094 4.0938-22.109 53.812h9.5156l17.094-42.766 17.094 42.766h9.5156z" transform="translate(2897.607422)"/><use x="2956.787109" xlink:href="#L"/><use x="3018.457031" xlink:href="#r"/><use x="3079.638672" xlink:href="#m"/><use x="3143.115234" xlink:href="#L"/><use x="3204.785156" xlink:href="#y"/><use x="3269.775391" xlink:href="#B"/><use x="3328.027344" xlink:href="#E"/><use x="3389.306641" xlink:href="#x"/><use x="3453.222656" xlink:href="#M"/><use x="3512.158203" xlink:href="#F"/><use x="3577.539062" xlink:href="#t"/><use x="3656.494141" xlink:href="#N"/><use x="3747.460938" xlink:href="#D"/><use x="3812.841797" xlink:href="#r"/><use x="3874.023438" xlink:href="#x"/><use x="3937.939453" xlink:href="#n"/><use x="3999.462891" xlink:href="#B"/><use x="4057.714844" xlink:href="#r"/><use x="4118.896484" xlink:href="#C"/><use x="4177.832031" xlink:href="#p"/><use x="4241.40625" xlink:href="#e"/><use x="4305.029297" xlink:href="#j"/><use x="4368.652344" xlink:href="#e"/><use x="4464.0625" xlink:href="#E"/><use x="4525.341797" xlink:href="#A"/><use x="4580.322266" xlink:href="#B"/><use x="4638.574219" xlink:href="#m"/><use x="4702.050781" xlink:href="#r"/><use x="4763.232422" xlink:href="#F"/><use x="4828.613281" xlink:href="#E"/><use x="4889.892578" xlink:href="#C"/><use x="4948.828125" xlink:href="#B"/><use x="5007.080078" xlink:href="#r"/><use x="5068.261719" xlink:href="#C"/><use x="5127.197266" xlink:href="#p"/><use x="5190.771484" xlink:href="#d"/><use x="5254.394531" xlink:href="#v"/><use x="5318.017578" xlink:href="#c"/><use x="5413.427734" xlink:href="#l"/><use x="5482.03125" xlink:href="#w"/><path d="m22.797 8.2969h32.234v56.297h-23.688v-10.344q0-24.359-5.4688-40.531-1.125-3.3125-3.0781-5.4219zm-14.391 0q6.5312 3.0781 8.3906 8.9375 4.7344 15.047 4.7344 41.891v13.781h43.359v-64.609h8.2969v-23.969h-8.2969v15.672h-51.656v-15.672h-8.2969v23.969z" transform="translate(5553.027344)"/><use x="5662.939453" xlink:href="#y"/><use x="5759.716797" xlink:href="#c"/><use x="5823.339844" xlink:href="#K"/><use x="5886.962891" xlink:href="#d"/><use x="5950.585938" xlink:href="#g"/><use x="6045.996094" xlink:href="#D"/><use x="6111.376953" xlink:href="#r"/><use x="6172.558594" xlink:href="#A"/><use x="6227.539062" xlink:href="#n"/><use x="6289.0625" xlink:href="#H"/><use x="6383.251953" xlink:href="#n"/><use x="6444.775391" xlink:href="#F"/><use x="6510.15625" xlink:href="#y"/><use x="6575.146484" xlink:href="#I"/><use x="6640.136719" xlink:href="#J"/><path d="m9.8125 72.906h9.8594v-29.891h35.844v29.891h9.8594v-72.906h-9.8594v34.719h-35.844v-34.719h-9.8594z" transform="translate(6703.710938)"/><use x="6778.90625" xlink:href="#r"/><use x="6840.087891" xlink:href="#o"/><use x="6900.244141" xlink:href="#L"/><use x="6961.914062" xlink:href="#m"/><use x="7025.390625" xlink:href="#M"/><use x="7116.113281" xlink:href="#j"/><use x="7179.736328" xlink:href="#f"/><use x="7243.359375" xlink:href="#j"/><use x="7306.982422" xlink:href="#j"/><use x="7402.392578" xlink:href="#q"/><use x="7454.931641" xlink:href="#r"/><use x="7516.113281" xlink:href="#s"/><use x="7585.253906" xlink:href="#E"/></g></g></svg>