<?xml version="1.0" encoding="UTF-8"?>
<!DOCTYPE svg  PUBLIC '-//W3C//DTD SVG 1.1//EN'  'http://www.w3.org/Graphics/SVG/1.1/DTD/svg11.dtd'>
<svg height="648pt" stroke-linejoin="round" viewBox="0 0 1152 648" width="1152pt" xmlns="http://www.w3.org/2000/svg" xmlns:xlink="http://www.w3.org/1999/xlink"><defs stroke-linejoin="round"><clipPath id="a" stroke-linejoin="round"><path d="m55.296 19.44h1085.2v589.68h-1085.2z"/></clipPath><path id="b" d="m0 0v3.5" stroke="#000" stroke-linejoin="round" stroke-width=".8"/><path id="c" d="m12.406 8.2969h16.109v55.625l-17.531-3.5156v8.9844l17.438 3.5156h9.8594v-64.609h16.109v-8.2969h-41.984z" stroke-linejoin="round"/><path id="d" d="m10.984 1.5156v8.9844q3.7188-1.7656 7.5156-2.6875 3.8125-.92188 7.4844-.92188 9.7656 0 14.906 6.5625 5.1562 6.5625 5.8906 19.953-2.8281-4.2031-7.1875-6.4531-4.3438-2.25-9.6094-2.25-10.938 0-17.312 6.6094-6.375 6.625-6.375 18.109 0 11.219 6.6406 18 6.6406 6.7969 17.672 6.7969 12.656 0 19.312-9.7031 6.6719-9.6875 6.6719-28.141 0-17.234-8.1875-27.516-8.1719-10.281-21.984-10.281-3.7188 0-7.5312.73438-3.7969.73438-7.9062 2.2031zm19.625 30.906q6.6406 0 10.516 4.5312 3.8906 4.5469 3.8906 12.469 0 7.8594-3.8906 12.422-3.875 4.5625-10.516 4.5625t-10.516-4.5625-3.875-12.422q0-7.9219 3.875-12.469 3.875-4.5312 10.516-4.5312z" stroke-linejoin="round"/><path id="e" d="m33.016 40.375q-6.6406 0-10.531-4.5469-3.875-4.5312-3.875-12.438 0-7.8594 3.875-12.438 3.8906-4.5625 10.531-4.5625t10.516 4.5625q3.875 4.5781 3.875 12.438 0 7.9062-3.875 12.438-3.875 4.5469-10.516 4.5469zm19.578 30.922v-8.9844q-3.7188 1.75-7.5 2.6719-3.7812.9375-7.5.9375-9.7656 0-14.922-6.5938-5.1406-6.5938-5.875-19.922 2.875 4.25 7.2188 6.5156 4.3594 2.2656 9.5781 2.2656 10.984 0 17.359-6.6719 6.375-6.6562 6.375-18.125 0-11.234-6.6406-18.031-6.6406-6.7812-17.672-6.7812-12.656 0-19.344 9.6875-6.6875 9.7031-6.6875 28.109 0 17.281 8.2031 27.562t22.016 10.281q3.7188 0 7.5-.73438t7.8906-2.1875z" stroke-linejoin="round"/><path id="f" d="m31.781 66.406q-7.6094 0-11.453-7.5-3.8281-7.4844-3.8281-22.531 0-14.984 3.8281-22.484 3.8438-7.5 11.453-7.5 7.6719 0 11.5 7.5 3.8438 7.5 3.8438 22.484 0 15.047-3.8438 22.531-3.8281 7.5-11.5 7.5zm0 7.8125q12.266 0 18.734-9.7031 6.4688-9.6875 6.4688-28.141 0-18.406-6.4688-28.109-6.4688-9.6875-18.734-9.6875-12.25 0-18.719 9.6875-6.4688 9.7031-6.4688 28.109 0 18.453 6.4688 28.141 6.4688 9.7031 18.719 9.7031z" stroke-linejoin="round"/><path id="g" d="m10.797 72.906h38.719v-8.3125h-29.688v-17.859q2.1406.73438 4.2812 1.0938 2.1562.35938 4.3125.35938 12.203 0 19.328-6.6875 7.1406-6.6875 7.1406-18.109 0-11.766-7.3281-18.297-7.3281-6.5156-20.656-6.5156-4.5938 0-9.3594.78125-4.75.78125-9.8281 2.3438v9.9219q4.3906-2.3906 9.0781-3.5625t9.9062-1.1719q8.4531 0 13.375 4.4375 4.9375 4.4375 4.9375 12.062 0 7.6094-4.9375 12.047-4.9219 4.4531-13.375 4.4531-3.9531 0-7.8906-.875-3.9219-.875-8.0156-2.7344z" stroke-linejoin="round"/><path id="h" d="m8.2031 72.906h46.875v-4.2031l-26.469-68.703h-10.297l24.906 64.594h-35.016z" stroke-linejoin="round"/><path id="i" d="m31.781 34.625q-7.0312 0-11.062-3.7656-4.0156-3.7656-4.0156-10.344 0-6.5938 4.0156-10.359 4.0312-3.7656 11.062-3.7656t11.078 3.7812q4.0625 3.7969 4.0625 10.344 0 6.5781-4.0312 10.344-4.0156 3.7656-11.109 3.7656zm-9.8594 4.1875q-6.3438 1.5625-9.8906 5.9062-3.5312 4.3594-3.5312 10.609 0 8.7344 6.2188 13.812 6.2344 5.0781 17.062 5.0781 10.891 0 17.094-5.0781t6.2031-13.812q0-6.25-3.5469-10.609-3.5312-4.3438-9.8281-5.9062 7.125-1.6562 11.094-6.5 3.9844-4.8281 3.9844-11.797 0-10.609-6.4688-16.281-6.4688-5.6562-18.531-5.6562-12.047 0-18.531 5.6562-6.4688 5.6719-6.4688 16.281 0 6.9688 4 11.797 4.0156 4.8438 11.141 6.5zm-3.6094 15.578q0-5.6562 3.5312-8.8281 3.5469-3.1719 9.9375-3.1719 6.3594 0 9.9375 3.1719 3.5938 3.1719 3.5938 8.8281 0 5.6719-3.5938 8.8438-3.5781 3.1719-9.9375 3.1719-6.3906 0-9.9375-3.1719-3.5312-3.1719-3.5312-8.8438z" stroke-linejoin="round"/><path id="j" d="m19.188 8.2969h34.422v-8.2969h-46.281v8.2969q5.6094 5.8125 15.297 15.594 9.7031 9.7969 12.188 12.641 4.7344 5.3125 6.6094 9 1.8906 3.6875 1.8906 7.25 0 5.8125-4.0781 9.4688-4.0781 3.6719-10.625 3.6719-4.6406 0-9.7969-1.6094-5.1406-1.6094-11-4.8906v9.9688q5.9531 2.3906 11.125 3.6094 5.1875 1.2188 9.4844 1.2188 11.328 0 18.062-5.6719 6.7344-5.6562 6.7344-15.125 0-4.5-1.6875-8.5312-1.6719-4.0156-6.125-9.4844-1.2188-1.4219-7.7656-8.1875-6.5312-6.7656-18.453-18.922z" stroke-linejoin="round"/><path id="k" d="m0 0v2" stroke="#000" stroke-linejoin="round" stroke-width=".6"/><path id="l" d="m19.672 34.812v-26.703h15.828q7.9531 0 11.781 3.2969 3.8438 3.2969 3.8438 10.078 0 6.8438-3.8438 10.078-3.8281 3.25-11.781 3.25zm0 29.984v-21.969h14.609q7.2188 0 10.75 2.7031 3.5469 2.7188 3.5469 8.2812 0 5.5156-3.5469 8.25-3.5312 2.7344-10.75 2.7344zm-9.8594 8.1094h25.203q11.281 0 17.375-4.6875 6.1094-4.6875 6.1094-13.328 0-6.7031-3.125-10.656t-9.1875-4.9219q7.2812-1.5625 11.312-6.5312 4.0312-4.9531 4.0312-12.375 0-9.7656-6.6406-15.094-6.6406-5.3125-18.906-5.3125h-26.172z" stroke-linejoin="round"/><path id="m" d="m18.109 8.2031v-29h-9.0312v75.484h9.0312v-8.2969q2.8438 4.875 7.1562 7.2344 4.3281 2.375 10.328 2.375 9.9688 0 16.188-7.9062 6.2344-7.9062 6.2344-20.797t-6.2344-20.812q-6.2188-7.9062-16.188-7.9062-6 0-10.328 2.375-4.3125 2.375-7.1562 7.25zm30.578 19.094q0 9.9062-4.0781 15.547t-11.203 5.6406q-7.1406 0-11.219-5.6406t-4.0781-15.547 4.0781-15.547 11.219-5.6406q7.125 0 11.203 5.6406t4.0781 15.547z" stroke-linejoin="round"/><path id="n" d="m56.203 29.594v-4.3906h-41.312q.59375-9.2812 5.5938-14.141t13.938-4.8594q5.1719 0 10.031 1.2656t9.6562 3.8125v-8.5q-4.8438-2.0469-9.9219-3.125t-10.297-1.0781q-13.094 0-20.734 7.6094-7.6406 7.625-7.6406 20.625 0 13.422 7.25 21.297 7.25 7.8906 19.562 7.8906 11.031 0 17.453-7.1094 6.4219-7.0938 6.4219-19.297zm-8.9844 2.6406q-.09375 7.3594-4.125 11.75-4.0312 4.4062-10.672 4.4062-7.5156 0-12.031-4.25t-5.2031-11.969z" stroke-linejoin="round"/><path id="o" d="m18.453 38.922q0-4.0625 3.125-6.3594 3.125-2.2812 8.9375-2.2812h12.109v17.234h-12.109q-5.8125 0-8.9375-2.25t-3.125-6.3438zm-12.781-38.922 16.688 23.969q-5.6562 1.2812-9.4219 4.625-3.75 3.3438-3.75 10.328 0 7.9062 5.2344 11.828 5.25 3.9375 15.859 3.9375h21.375v-54.688h-9.0312v23.094h-11.172l-16.125-23.094z" stroke-linejoin="round"/><path id="p" d="m11.719 12.406h10.297v-8.4062l-8-15.625h-6.2969l4 15.625z" stroke-linejoin="round"/><path id="q" d="m9.0781 0v54.688h38.578v-7.1719h-29.547v-47.516z" stroke-linejoin="round"/><path id="r" d="m30.609 48.391q-7.2188 0-11.422-5.6406t-4.2031-15.453 4.1719-15.453q4.1875-5.6406 11.453-5.6406 7.1875 0 11.375 5.6562 4.2031 5.6719 4.2031 15.438 0 9.7188-4.2031 15.406-4.1875 5.6875-11.375 5.6875zm0 7.6094q11.719 0 18.406-7.625 6.7031-7.6094 6.7031-21.078 0-13.422-6.7031-21.078-6.6875-7.6406-18.406-7.6406-11.766 0-18.438 7.6406-6.6562 7.6562-6.6562 21.078 0 13.469 6.6562 21.078 6.6719 7.625 18.438 7.625z" stroke-linejoin="round"/><path id="s" d="m21.625 7.1719h26.078v40.344h-18.891v-6.8438q0-20.109-5.7656-30.859zm-13.031 0q4.4375 1.9531 6.3906 6.1094 4.7969 10.297 4.7969 31.062v10.344h36.953v-47.516h7.1875v-20.984h-7.1875v13.812h-44.328v-13.812h-7.1875v20.984z" stroke-linejoin="round"/><path id="t" d="m61.047 54.688h8.9844v-54.688h-8.9844zm-17.594-38.4685q0 4.3906-3.2031 6.6875-3.1875 2.2969-9.3438 2.2969h-12.797v-18.031h12.797q6.1562 0 9.3438 2.3125 3.2031 2.3281 3.2031 6.7344zm-34.375 38.469h9.0312v-22.312h13.188q10.453 0 16.094-3.9844 5.6406-3.9688 5.6406-12.172t-5.6406-12.219q-5.6406-4-16.094-4h-22.219z" stroke-linejoin="round"/><path id="u" d="m0 0h-3.5" stroke="#000" stroke-linejoin="round" stroke-width=".8"/><path id="v" d="m37.797 64.312-24.906-38.922h24.906zm-2.5938 8.5938h12.406v-47.516h10.406v-8.2031h-10.406v-17.188h-9.8125v17.188h-32.906v9.5156z" stroke-linejoin="round"/><path id="w" d="m9.8125 72.906h9.8594v-36.047l35.266 36.047h12.641l-28.172-28.812 29.641-44.094h-10.75l-25.281 37.547-13.344-13.625v-23.922h-9.8594z" stroke-linejoin="round"/><path id="x" d="m3.7188 0v7.4688q8.875 1.375 11.609 7.5156 3.3281 8.6562 3.3281 30.766v8.9375h36.953v-54.688h-8.9844v47.516h-18.984v-5.4219q0-21.094-4.2969-30.562-4.5938-10.109-19.625-11.531z" stroke-linejoin="round"/><path id="y" d="m55.906 54.688v-54.688h-8.9375v43.891l-26.359-43.891h-11.531v54.688h8.9375v-43.797l26.328 43.797z" stroke-linejoin="round"/><path id="z" d="m41.016 0v23h-16.75q-7.4688 0-12.453 4.6406-4.4844 4.2031-4.4844 13.188v13.859h8.9844v-13.031q0-5.7188 2.5312-8.5938 2.5938-2.8906 7.6719-2.8906h14.5v24.516h8.9844v-54.688z" stroke-linejoin="round"/><path id="A" d="m48.781 52.594v-8.4062q-3.8125 2.1094-7.6406 3.1562t-7.7344 1.0469q-8.75 0-13.594-5.5469-4.8281-5.5312-4.8281-15.547t4.8281-15.562q4.8438-5.5312 13.594-5.5312 3.9062 0 7.7344 1.0469t7.6406 3.1562v-8.3125q-3.7656-1.75-7.7969-2.625-4.0156-.89062-8.5625-.89062-12.359 0-19.641 7.7656-7.2656 7.7656-7.2656 20.953 0 13.375 7.3438 21.031 7.3594 7.6719 20.156 7.6719 4.1406 0 8.0938-.85938 3.9531-.84375 7.6719-2.5469z" stroke-linejoin="round"/><path id="B" d="m2.9375 54.688h52.391v-7.1719h-21.781v-47.516h-8.8438v47.516h-21.766z" stroke-linejoin="round"/><path id="C" d="m18.062 25.203v-18.031h12.797q6.1562 0 9.375 2.3125 3.2188 2.3281 3.2188 6.7344 0 4.3906-3.2188 6.6875t-9.375 2.2969zm0 22.312v-15.141h11.828q5.0781 0 8.2969 2.0156 3.2188 2.0312 3.2188 5.6562 0 3.6094-3.2188 5.5312-3.2188 1.9375-8.2969 1.9375zm-8.9844 7.1719h21.391q9.625 0 14.797-3.5156t5.1719-10.016q0-5.0156-2.6406-7.9844-2.625-2.9531-7.8125-3.6719 6.2031-1.1719 9.625-4.8906 3.4219-3.7031 3.4219-9.2812 0-7.3125-5.6406-11.328-5.6406-4-16.094-4h-22.219z" stroke-linejoin="round"/><path id="D" d="m56.297 54.688v-54.688h-9.0312v47.516h-29.156v-47.516h-9.0312v54.688z" stroke-linejoin="round"/><path id="E" d="m34.281 27.484q-10.891 0-15.094-2.4844t-4.2031-8.5q0-4.7812 3.1562-7.5938 3.1562-2.7969 8.5625-2.7969 7.4844 0 12 5.2969t4.5156 14.078v2zm17.922 3.7188v-31.203h-8.9844v8.2969q-3.0781-4.9688-7.6719-7.3438t-11.234-2.375q-8.3906 0-13.359 4.7188-4.9531 4.7188-4.9531 12.625 0 9.2188 6.1719 13.906 6.1875 4.6875 18.438 4.6875h12.609v.89062q0 6.2031-4.0781 9.5938t-11.453 3.3906q-4.6875 0-9.1406-1.125-4.4375-1.125-8.5312-3.375v8.3125q4.9219 1.9062 9.5625 2.8438 4.6406.95312 9.0312.95312 11.875 0 17.734-6.1562 5.8594-6.1406 5.8594-18.641z" stroke-linejoin="round"/><path id="F" d="m9.0781 54.688h9.0312v-22.312h29.156v22.312h9.0312v-54.688h-9.0312v25.203h-29.156v-25.203h-9.0312z" stroke-linejoin="round"/><path id="G" d="m0 1.5c.3978 0 .77937-.15805 1.0607-.43934.28129-.28129.43934-.66286.43934-1.0607s-.15805-.77937-.43934-1.0607c-.28129-.28129-.66286-.43934-1.0607-.43934s-.77937.15805-1.0607.43934c-.28129.28129-.43934.66286-.43934 1.0607s.15805.77937.43934 1.0607c.28129.28129.66286.43934 1.0607.43934z" stroke="#a52a2a" stroke-linejoin="round"/><path id="H" d="m22.797 8.2969h32.234v56.297h-23.688v-10.344q0-24.359-5.4688-40.531-1.125-3.3125-3.0781-5.4219zm-14.391 0q6.5312 3.0781 8.3906 8.9375 4.7344 15.047 4.7344 41.891v13.781h43.359v-64.609h8.2969v-23.969h-8.2969v15.672h-51.656v-15.672h-8.2969v23.969z" stroke-linejoin="round"/><path id="I" d="m10.688 12.406h10.312v-12.406h-10.312z" stroke-linejoin="round"/><path id="J" d="m40.578 39.312q7.0781-1.5156 11.047-6.3125 3.9844-4.7812 3.9844-11.812 0-10.781-7.4219-16.703-7.4219-5.9062-21.094-5.9062-4.5781 0-9.4375.90625t-10.031 2.7188v9.5156q4.0938-2.3906 8.9688-3.6094 4.8906-1.2188 10.219-1.2188 9.2656 0 14.125 3.6562t4.8594 10.641q0 6.4531-4.5156 10.078-4.5156 3.6406-12.562 3.6406h-8.5v8.1094h8.8906q7.2656 0 11.125 2.9062t3.8594 8.375q0 5.6094-3.9844 8.6094-3.9688 3.0156-11.391 3.0156-4.0625 0-8.7031-.89062-4.6406-.875-10.203-2.7188v8.7812q5.625 1.5625 10.531 2.3438t9.25.78125q11.234 0 17.766-5.1094 6.5469-5.0938 6.5469-13.781 0-6.0625-3.4688-10.234t-9.8594-5.7812z" stroke-linejoin="round"/><path id="K" d="m31.109 56q11.719 0 18.406-7.625 6.6875-7.6094 6.6875-21.078 0-13.422-6.6875-21.078-6.6875-7.6406-18.406-7.6406-11.766 0-18.266 7.4219t-6.8438 21.297l-.28125 11.188q-.25 5.7969-.25 7.8125 0 7.8125 2.8281 13.562 4.4531 9.0312 12.141 12.938t20.578 4.0156q5.9531.046875 8.5938.875l2.4844-7.125q-2.3906-.98438-4.5781-1.0312l-12.219-.82812q-6.1406-.4375-9.8594-2.5938-9.7188-5.7031-10.641-13.172l-.34375-2.7344q6.3438 5.7969 16.656 5.7969zm0-7.6094q-7.2344 0-11.438-5.6406-4.1875-5.6406-4.1875-15.453t4.1719-15.453 11.453-5.6406q7.1719 0 11.375 5.6562 4.2031 5.6719 4.2031 15.438 0 9.7188-4.2031 15.406t-11.375 5.6875z" stroke-linejoin="round"/><path id="L" d="m43.453 16.219q0 4.3906-3.2031 6.6875-3.1875 2.2969-9.3438 2.2969h-12.797v-18.031h12.797q6.1562 0 9.3438 2.3125 3.2031 2.3281 3.2031 6.7344zm-34.375 38.469h9.0312v-22.312h13.188q10.453 0 16.094-3.9844 5.6406-3.9688 5.6406-12.172t-5.6406-12.219q-5.6406-4-16.094-4h-22.219z" stroke-linejoin="round"/><path id="M" d="m54.891 54.688-19.781-26.609 20.797-28.078h-10.594l-15.922 21.484-15.906-21.484h-10.609l21.25 28.609-19.438 26.078h10.594l14.5-19.484 14.5 19.484z" stroke-linejoin="round"/></defs><g stroke-linejoin="round"><path d="m0 648h1152v-648h-1152z" fill="#fff"/><path d="m55.296 609.12h1085.2v-589.68h-1085.2z" fill="#fff"/><path clip-path="url(#a)" d="m62.743 609.12v-589.68" fill="none" stroke="#b0b0b0" stroke-dasharray=".8 1.32" stroke-width=".8"/><use stroke="#000" stroke-width=".8" x="62.742675" xlink:href="#b" y="609.12"/><g transform="matrix(.1 0 0 -.1 50.018 623.72)"><use xlink:href="#c"/><use x="63.623047" xlink:href="#d"/><use x="127.246094" xlink:href="#e"/><use x="190.869141" xlink:href="#f"/></g><path clip-path="url(#a)" d="m146.34 609.12v-589.68" fill="none" stroke="#b0b0b0" stroke-dasharray=".8 1.32" stroke-width=".8"/><use stroke="#000" stroke-width=".8" x="146.340109" xlink:href="#b" y="609.12"/><g transform="matrix(.1 0 0 -.1 133.62 623.72)"><use xlink:href="#c"/><use x="63.623047" xlink:href="#d"/><use x="127.246094" xlink:href="#e"/><use x="190.869141" xlink:href="#g"/></g><path clip-path="url(#a)" d="m229.89 609.12v-589.68" fill="none" stroke="#b0b0b0" stroke-dasharray=".8 1.32" stroke-width=".8"/><use stroke="#000" stroke-width=".8" x="229.891787" xlink:href="#b" y="609.12"/><g transform="matrix(.1 0 0 -.1 217.17 623.72)"><use xlink:href="#c"/><use x="63.623047" xlink:href="#d"/><use x="127.246094" xlink:href="#h"/><use x="190.869141" xlink:href="#f"/></g><path clip-path="url(#a)" d="m313.44 609.12v-589.68" fill="none" stroke="#b0b0b0" stroke-dasharray=".8 1.32" stroke-width=".8"/><use stroke="#000" stroke-width=".8" x="313.443464" xlink:href="#b" y="609.12"/><g transform="matrix(.1 0 0 -.1 300.72 623.72)"><use xlink:href="#c"/><use x="63.623047" xlink:href="#d"/><use x="127.246094" xlink:href="#h"/><use x="190.869141" xlink:href="#g"/></g><path clip-path="url(#a)" d="m397 609.12v-589.68" fill="none" stroke="#b0b0b0" stroke-dasharray=".8 1.32" stroke-width=".8"/><use stroke="#000" stroke-width=".8" x="396.995141" xlink:href="#b" y="609.12"/><g transform="matrix(.1 0 0 -.1 384.27 623.72)"><use xlink:href="#c"/><use x="63.623047" xlink:href="#d"/><use x="127.246094" xlink:href="#i"/><use x="190.869141" xlink:href="#f"/></g><path clip-path="url(#a)" d="m480.59 609.12v-589.68" fill="none" stroke="#b0b0b0" stroke-dasharray=".8 1.32" stroke-width=".8"/><use stroke="#000" stroke-width=".8" x="480.592575" xlink:href="#b" y="609.12"/><g transform="matrix(.1 0 0 -.1 467.87 623.72)"><use xlink:href="#c"/><use x="63.623047" xlink:href="#d"/><use x="127.246094" xlink:href="#i"/><use x="190.869141" xlink:href="#g"/></g><path clip-path="url(#a)" d="m564.14 609.12v-589.68" fill="none" stroke="#b0b0b0" stroke-dasharray=".8 1.32" stroke-width=".8"/><use stroke="#000" stroke-width=".8" x="564.144252" xlink:href="#b" y="609.12"/><g transform="matrix(.1 0 0 -.1 551.42 623.72)"><use xlink:href="#c"/><use x="63.623047" xlink:href="#d"/><use x="127.246094" xlink:href="#d"/><use x="190.869141" xlink:href="#f"/></g><path clip-path="url(#a)" d="m647.7 609.12v-589.68" fill="none" stroke="#b0b0b0" stroke-dasharray=".8 1.32" stroke-width=".8"/><use stroke="#000" stroke-width=".8" x="647.695929" xlink:href="#b" y="609.12"/><g transform="matrix(.1 0 0 -.1 634.97 623.72)"><use xlink:href="#c"/><use x="63.623047" xlink:href="#d"/><use x="127.246094" xlink:href="#d"/><use x="190.869141" xlink:href="#g"/></g><path clip-path="url(#a)" d="m731.25 609.12v-589.68" fill="none" stroke="#b0b0b0" stroke-dasharray=".8 1.32" stroke-width=".8"/><use stroke="#000" stroke-width=".8" x="731.247607" xlink:href="#b" y="609.12"/><g transform="matrix(.1 0 0 -.1 718.52 623.72)"><use xlink:href="#j"/><use x="63.623047" xlink:href="#f"/><use x="127.246094" xlink:href="#f"/><use x="190.869141" xlink:href="#f"/></g><path clip-path="url(#a)" d="m814.85 609.12v-589.68" fill="none" stroke="#b0b0b0" stroke-dasharray=".8 1.32" stroke-width=".8"/><use stroke="#000" stroke-width=".8" x="814.84504" xlink:href="#b" y="609.12"/><g transform="matrix(.1 0 0 -.1 802.12 623.72)"><use xlink:href="#j"/><use x="63.623047" xlink:href="#f"/><use x="127.246094" xlink:href="#f"/><use x="190.869141" xlink:href="#g"/></g><path clip-path="url(#a)" d="m898.4 609.12v-589.68" fill="none" stroke="#b0b0b0" stroke-dasharray=".8 1.32" stroke-width=".8"/><use stroke="#000" stroke-width=".8" x="898.396718" xlink:href="#b" y="609.12"/><g transform="matrix(.1 0 0 -.1 885.67 623.72)"><use xlink:href="#j"/><use x="63.623047" xlink:href="#f"/><use x="127.246094" xlink:href="#c"/><use x="190.869141" xlink:href="#f"/></g><path clip-path="url(#a)" d="m981.95 609.12v-589.68" fill="none" stroke="#b0b0b0" stroke-dasharray=".8 1.32" stroke-width=".8"/><use stroke="#000" stroke-width=".8" x="981.948395" xlink:href="#b" y="609.12"/><g transform="matrix(.1 0 0 -.1 969.22 623.72)"><use xlink:href="#j"/><use x="63.623047" xlink:href="#f"/><use x="127.246094" xlink:href="#c"/><use x="190.869141" xlink:href="#g"/></g><path clip-path="url(#a)" d="m1065.5 609.12v-589.68" fill="none" stroke="#b0b0b0" stroke-dasharray=".8 1.32" stroke-width=".8"/><use stroke="#000" stroke-width=".8" x="1065.500072" xlink:href="#b" y="609.12"/><g transform="matrix(.1 0 0 -.1 1052.8 623.72)"><use xlink:href="#j"/><use x="63.623047" xlink:href="#f"/><use x="127.246094" xlink:href="#j"/><use x="190.869141" xlink:href="#f"/></g><g stroke="#000"><use stroke-width=".6" x="79.489616" xlink:href="#k" y="609.12"/><use stroke-width=".6" x="96.1908" xlink:href="#k" y="609.12"/><use stroke-width=".6" x="112.891984" xlink:href="#k" y="609.12"/><use stroke-width=".6" x="129.593169" xlink:href="#k" y="609.12"/><use stroke-width=".6" x="163.041293" xlink:href="#k" y="609.12"/><use stroke-width=".6" x="179.742478" xlink:href="#k" y="609.12"/><use stroke-width=".6" x="196.443662" xlink:href="#k" y="609.12"/><use stroke-width=".6" x="213.190602" xlink:href="#k" y="609.12"/><use stroke-width=".6" x="246.592971" xlink:href="#k" y="609.12"/><use stroke-width=".6" x="263.294155" xlink:href="#k" y="609.12"/><use stroke-width=".6" x="280.041096" xlink:href="#k" y="609.12"/><use stroke-width=".6" x="296.74228" xlink:href="#k" y="609.12"/><use stroke-width=".6" x="330.144648" xlink:href="#k" y="609.12"/><use stroke-width=".6" x="346.891589" xlink:href="#k" y="609.12"/><use stroke-width=".6" x="363.592773" xlink:href="#k" y="609.12"/><use stroke-width=".6" x="380.293957" xlink:href="#k" y="609.12"/><use stroke-width=".6" x="413.742082" xlink:href="#k" y="609.12"/><use stroke-width=".6" x="430.443266" xlink:href="#k" y="609.12"/><use stroke-width=".6" x="447.14445" xlink:href="#k" y="609.12"/><use stroke-width=".6" x="463.845634" xlink:href="#k" y="609.12"/><use stroke-width=".6" x="497.293759" xlink:href="#k" y="609.12"/><use stroke-width=".6" x="513.994943" xlink:href="#k" y="609.12"/><use stroke-width=".6" x="530.696127" xlink:href="#k" y="609.12"/><use stroke-width=".6" x="547.443068" xlink:href="#k" y="609.12"/><use stroke-width=".6" x="580.845436" xlink:href="#k" y="609.12"/><use stroke-width=".6" x="597.54662" xlink:href="#k" y="609.12"/><use stroke-width=".6" x="614.293561" xlink:href="#k" y="609.12"/><use stroke-width=".6" x="630.994745" xlink:href="#k" y="609.12"/><use stroke-width=".6" x="664.397113" xlink:href="#k" y="609.12"/><use stroke-width=".6" x="681.144054" xlink:href="#k" y="609.12"/><use stroke-width=".6" x="697.845238" xlink:href="#k" y="609.12"/><use stroke-width=".6" x="714.546422" xlink:href="#k" y="609.12"/><use stroke-width=".6" x="747.994547" xlink:href="#k" y="609.12"/><use stroke-width=".6" x="764.695731" xlink:href="#k" y="609.12"/><use stroke-width=".6" x="781.396916" xlink:href="#k" y="609.12"/><use stroke-width=".6" x="798.0981" xlink:href="#k" y="609.12"/><use stroke-width=".6" x="831.546225" xlink:href="#k" y="609.12"/><use stroke-width=".6" x="848.247409" xlink:href="#k" y="609.12"/><use stroke-width=".6" x="864.948593" xlink:href="#k" y="609.12"/><use stroke-width=".6" x="881.695534" xlink:href="#k" y="609.12"/><use stroke-width=".6" x="915.097902" xlink:href="#k" y="609.12"/><use stroke-width=".6" x="931.799086" xlink:href="#k" y="609.12"/><use stroke-width=".6" x="948.546027" xlink:href="#k" y="609.12"/><use stroke-width=".6" x="965.247211" xlink:href="#k" y="609.12"/><use stroke-width=".6" x="998.649579" xlink:href="#k" y="609.12"/><use stroke-width=".6" x="1015.39652" xlink:href="#k" y="609.12"/><use stroke-width=".6" x="1032.097704" xlink:href="#k" y="609.12"/><use stroke-width=".6" x="1048.798888" xlink:href="#k" y="609.12"/><use stroke-width=".6" x="1082.247013" xlink:href="#k" y="609.12"/><use stroke-width=".6" x="1098.948197" xlink:href="#k" y="609.12"/><use stroke-width=".6" x="1115.649381" xlink:href="#k" y="609.12"/><use stroke-width=".6" x="1132.350565" xlink:href="#k" y="609.12"/></g><g transform="matrix(.14 0 0 -.14 552.07 640.44)"><use xlink:href="#l"/><use x="68.603516" xlink:href="#m"/><use x="132.080078" xlink:href="#n"/><path d="m9.0781 54.688h13.141l15.531-36.625 15.578 36.625h13.031v-54.688h-9.0312v46.094l-15.094-35.594h-8.9844l-15.141 35.594v-46.094h-9.0312z" transform="translate(193.603516)"/><use x="269.042969" xlink:href="#o"/><use x="329.199219" xlink:href="#p"/><use x="392.773438" xlink:href="#q"/><use x="445.3125" xlink:href="#r"/><use x="506.494141" xlink:href="#s"/><use x="575.634766" xlink:href="#t"/></g><path clip-path="url(#a)" d="m55.296 609.12h1085.2" fill="none" stroke="#b0b0b0" stroke-dasharray=".8 1.32" stroke-width=".8"/><use stroke="#000" stroke-width=".8" x="55.296" xlink:href="#u" y="609.12"/><use transform="matrix(.1 0 0 -.1 41.934 612.92)" xlink:href="#f"/><path clip-path="url(#a)" d="m55.296 485.76h1085.2" fill="none" stroke="#b0b0b0" stroke-dasharray=".8 1.32" stroke-width=".8"/><use stroke="#000" stroke-width=".8" x="55.296" xlink:href="#u" y="485.755983"/><g transform="matrix(.1 0 0 -.1 29.208 489.56)"><use xlink:href="#j"/><use x="63.623047" xlink:href="#f"/><use x="127.246094" xlink:href="#f"/></g><path clip-path="url(#a)" d="m55.296 362.39h1085.2" fill="none" stroke="#b0b0b0" stroke-dasharray=".8 1.32" stroke-width=".8"/><use stroke="#000" stroke-width=".8" x="55.296" xlink:href="#u" y="362.391967"/><g transform="matrix(.1 0 0 -.1 29.208 366.19)"><use xlink:href="#v"/><use x="63.623047" xlink:href="#f"/><use x="127.246094" xlink:href="#f"/></g><path clip-path="url(#a)" d="m55.296 239.03h1085.2" fill="none" stroke="#b0b0b0" stroke-dasharray=".8 1.32" stroke-width=".8"/><use stroke="#000" stroke-width=".8" x="55.296" xlink:href="#u" y="239.02795"/><g transform="matrix(.1 0 0 -.1 29.208 242.83)"><use xlink:href="#e"/><use x="63.623047" xlink:href="#f"/><use x="127.246094" xlink:href="#f"/></g><path clip-path="url(#a)" d="m55.296 115.66h1085.2" fill="none" stroke="#b0b0b0" stroke-dasharray=".8 1.32" stroke-width=".8"/><use stroke="#000" stroke-width=".8" x="55.296" xlink:href="#u" y="115.663933"/><g transform="matrix(.1 0 0 -.1 29.208 119.46)"><use xlink:href="#i"/><use x="63.623047" xlink:href="#f"/><use x="127.246094" xlink:href="#f"/></g><g transform="matrix(0 -.14 -.14 0 22.297 438.33)"><use xlink:href="#w"/><use x="70.996094" xlink:href="#r"/><use x="132.177734" xlink:href="#x"/><use x="196.09375" xlink:href="#y"/><use x="261.083984" xlink:href="#z"/><use x="320.166016" xlink:href="#n"/><use x="381.689453" xlink:href="#A"/><use x="436.669922" xlink:href="#B"/><use x="494.921875" xlink:href="#C"/><use x="553.857422" xlink:href="#r"/><use x="646.826172" xlink:href="#D"/><use x="712.207031" xlink:href="#r"/><use x="773.388672" xlink:href="#x"/><use x="837.304688" xlink:href="#n"/><use x="898.828125" xlink:href="#B"/><use x="957.080078" xlink:href="#r"/><use x="1018.261719" xlink:href="#C"/><use x="1108.984375" xlink:href="#E"/><use x="1170.263672" xlink:href="#A"/><use x="1225.244141" xlink:href="#B"/><use x="1283.496094" xlink:href="#m"/><use x="1346.972656" xlink:href="#r"/><use x="1408.154297" xlink:href="#F"/><use x="1473.535156" xlink:href="#E"/><use x="1534.814453" xlink:href="#C"/><use x="1593.75" xlink:href="#B"/><use x="1652.001953" xlink:href="#r"/><use x="1713.183594" xlink:href="#C"/></g><path clip-path="url(#a)" d="m180.93 609.12v-589.68" fill="none" stroke="#f00" stroke-dasharray="5.55 2.4" stroke-width="1.5"/><path clip-path="url(#a)" d="m184.87 609.12v-589.68" fill="none" stroke="#f00" stroke-dasharray="5.55 2.4" stroke-width="1.5"/><path clip-path="url(#a)" d="m254.78 609.12v-589.68" fill="none" stroke="#f00" stroke-dasharray="5.55 2.4" stroke-width="1.5"/><path clip-path="url(#a)" d="m498.53 609.12v-589.68" fill="none" stroke="#f00" stroke-dasharray="5.55 2.4" stroke-width="1.5"/><path clip-path="url(#a)" d="m782.82 609.12v-589.68" fill="none" stroke="#f00" stroke-dasharray="5.55 2.4" stroke-width="1.5"/><path clip-path="url(#a)" d="m753.35 609.12v-589.68" fill="none" stroke="#008000" stroke-dasharray="5.55 2.4" stroke-width="1.5"/><path clip-path="url(#a)" d="m1072.4 609.12v-589.68" fill="none" stroke="#008000" stroke-dasharray="5.55 2.4" stroke-width="1.5"/><path clip-path="url(#a)" d="m1091 609.12v-589.68" fill="none" stroke="#008000" stroke-dasharray="5.55 2.4" stroke-width="1.5"/><path clip-path="url(#a)" d="m1091.4 609.12v-589.68" fill="none" stroke="#008000" stroke-dasharray="5.55 2.4" stroke-width="1.5"/><path clip-path="url(#a)" d="m1094.1 609.12v-589.68" fill="none" stroke="#008000" stroke-dasharray="5.55 2.4" stroke-width="1.5"/><g clip-path="url(#a)" fill="#a52a2a" stroke="#a52a2a"><use x="149.833758" xlink:href="#G" y="608.50318"/><use x="153.377962" xlink:href="#G" y="607.88636"/><use x="153.377962" xlink:href="#G" y="607.26954"/><use x="170.162239" xlink:href="#G" y="606.65272"/><use x="170.162239" xlink:href="#G" y="606.0359"/><use x="172.188306" xlink:href="#G" y="605.419079"/><use x="172.188306" xlink:href="#G" y="604.802259"/><use x="172.236509" xlink:href="#G" y="604.185439"/><use x="172.236509" xlink:href="#G" y="603.568619"/><use x="172.240036" xlink:href="#G" y="602.951799"/><use x="172.240036" xlink:href="#G" y="602.334979"/><use x="174.737047" xlink:href="#G" y="601.718159"/><use x="174.737047" xlink:href="#G" y="601.101339"/><use x="174.74032" xlink:href="#G" y="600.484519"/><use x="174.74032" xlink:href="#G" y="599.867699"/><use x="174.779404" xlink:href="#G" y="599.250879"/><use x="174.779404" xlink:href="#G" y="598.634059"/><use x="177.48553" xlink:href="#G" y="598.017238"/><use x="177.48553" xlink:href="#G" y="597.400418"/><use x="177.530079" xlink:href="#G" y="596.783598"/><use x="177.530079" xlink:href="#G" y="596.166778"/><use x="177.574501" xlink:href="#G" y="595.549958"/><use x="177.574501" xlink:href="#G" y="594.933138"/><use x="213.897765" xlink:href="#G" y="594.316318"/><use x="213.897765" xlink:href="#G" y="593.699498"/><use x="216.150932" xlink:href="#G" y="593.082678"/><use x="216.150932" xlink:href="#G" y="592.465858"/><use x="216.151218" xlink:href="#G" y="591.849038"/><use x="222.392713" xlink:href="#G" y="591.232218"/><use x="222.392713" xlink:href="#G" y="590.615397"/><use x="222.40231" xlink:href="#G" y="589.998577"/><use x="222.40231" xlink:href="#G" y="589.381757"/><use x="227.946175" xlink:href="#G" y="588.764937"/><use x="227.946175" xlink:href="#G" y="588.148117"/><use x="227.977347" xlink:href="#G" y="587.531297"/><use x="227.977347" xlink:href="#G" y="586.914477"/><use x="227.987006" xlink:href="#G" y="586.297657"/><use x="227.987006" xlink:href="#G" y="585.680837"/><use x="248.22248" xlink:href="#G" y="585.064017"/><use x="248.22248" xlink:href="#G" y="584.447197"/><use x="248.255812" xlink:href="#G" y="583.830377"/><use x="248.255812" xlink:href="#G" y="583.213556"/><use x="248.265695" xlink:href="#G" y="582.596736"/><use x="248.265695" xlink:href="#G" y="581.979916"/><use x="254.826915" xlink:href="#G" y="581.363096"/><use x="254.826915" xlink:href="#G" y="580.746276"/><use x="254.826915" xlink:href="#G" y="580.129456"/><use x="256.248168" xlink:href="#G" y="579.512636"/><use x="256.248168" xlink:href="#G" y="578.895816"/><use x="256.272826" xlink:href="#G" y="578.278996"/><use x="256.272826" xlink:href="#G" y="577.662176"/><use x="256.315913" xlink:href="#G" y="577.045356"/><use x="256.315913" xlink:href="#G" y="576.428536"/><use x="256.356046" xlink:href="#G" y="575.811715"/><use x="256.356046" xlink:href="#G" y="575.194895"/><use x="256.366913" xlink:href="#G" y="574.578075"/><use x="256.366913" xlink:href="#G" y="573.961255"/><use x="256.506058" xlink:href="#G" y="573.344435"/><use x="256.506058" xlink:href="#G" y="572.727615"/><use x="256.506058" xlink:href="#G" y="572.110795"/><use x="268.405175" xlink:href="#G" y="571.493975"/><use x="268.405175" xlink:href="#G" y="570.877155"/><use x="268.450486" xlink:href="#G" y="570.260335"/><use x="268.450486" xlink:href="#G" y="569.643515"/><use x="268.494082" xlink:href="#G" y="569.026695"/><use x="268.494082" xlink:href="#G" y="568.409874"/><use x="268.507015" xlink:href="#G" y="567.793054"/><use x="268.507015" xlink:href="#G" y="567.176234"/><use x="268.595478" xlink:href="#G" y="566.559414"/><use x="268.595478" xlink:href="#G" y="565.942594"/><use x="268.595478" xlink:href="#G" y="565.325774"/><use x="279.125835" xlink:href="#G" y="564.708954"/><use x="279.125835" xlink:href="#G" y="564.092134"/><use x="279.170702" xlink:href="#G" y="563.475314"/><use x="279.170702" xlink:href="#G" y="562.858494"/><use x="279.214489" xlink:href="#G" y="562.241674"/><use x="279.214489" xlink:href="#G" y="561.624854"/><use x="279.230313" xlink:href="#G" y="561.008033"/><use x="279.230313" xlink:href="#G" y="560.391213"/><use x="279.257385" xlink:href="#G" y="559.774393"/><use x="279.257385" xlink:href="#G" y="559.157573"/><use x="279.393734" xlink:href="#G" y="558.540753"/><use x="279.393734" xlink:href="#G" y="557.923933"/><use x="279.393734" xlink:href="#G" y="557.307113"/><use x="286.675558" xlink:href="#G" y="556.690293"/><use x="286.675558" xlink:href="#G" y="556.073473"/><use x="286.675558" xlink:href="#G" y="555.456653"/><use x="286.681278" xlink:href="#G" y="554.839833"/><use x="286.681278" xlink:href="#G" y="554.223013"/><use x="286.681278" xlink:href="#G" y="553.606192"/><use x="287.254126" xlink:href="#G" y="552.989372"/><use x="287.254126" xlink:href="#G" y="552.372552"/><use x="287.79469" xlink:href="#G" y="551.755732"/><use x="287.79469" xlink:href="#G" y="551.138912"/><use x="290.00353" xlink:href="#G" y="550.522092"/><use x="290.00353" xlink:href="#G" y="549.905272"/><use x="290.825053" xlink:href="#G" y="549.288452"/><use x="290.825053" xlink:href="#G" y="548.671632"/><use x="292.142305" xlink:href="#G" y="548.054812"/><use x="292.142305" xlink:href="#G" y="547.437992"/><use x="294.945758" xlink:href="#G" y="546.821172"/><use x="294.945758" xlink:href="#G" y="546.204351"/><use x="296.454108" xlink:href="#G" y="545.587531"/><use x="296.454108" xlink:href="#G" y="544.970711"/><use x="296.638279" xlink:href="#G" y="544.353891"/><use x="296.638279" xlink:href="#G" y="543.737071"/><use x="298.281388" xlink:href="#G" y="543.120251"/><use x="298.281388" xlink:href="#G" y="542.503431"/><use x="363.039117" xlink:href="#G" y="541.886611"/><use x="363.039117" xlink:href="#G" y="541.269791"/><use x="373.163447" xlink:href="#G" y="540.652971"/><use x="373.163543" xlink:href="#G" y="540.036151"/><use x="390.662164" xlink:href="#G" y="539.419331"/><use x="390.662164" xlink:href="#G" y="538.80251"/><use x="440.057219" xlink:href="#G" y="538.18569"/><use x="440.057219" xlink:href="#G" y="537.56887"/><use x="451.577286" xlink:href="#G" y="536.95205"/><use x="451.577286" xlink:href="#G" y="536.33523"/><use x="461.063597" xlink:href="#G" y="535.71841"/><use x="461.063597" xlink:href="#G" y="535.10159"/><use x="461.153204" xlink:href="#G" y="534.48477"/><use x="461.153204" xlink:href="#G" y="533.86795"/><use x="465.562304" xlink:href="#G" y="533.25113"/><use x="465.562304" xlink:href="#G" y="532.63431"/><use x="465.65048" xlink:href="#G" y="532.01749"/><use x="465.65048" xlink:href="#G" y="531.400669"/><use x="468.357051" xlink:href="#G" y="530.783849"/><use x="468.357051" xlink:href="#G" y="530.167029"/><use x="468.483486" xlink:href="#G" y="529.550209"/><use x="468.483486" xlink:href="#G" y="528.933389"/><use x="469.024749" xlink:href="#G" y="528.316569"/><use x="469.024749" xlink:href="#G" y="527.699749"/><use x="469.158492" xlink:href="#G" y="527.082929"/><use x="469.158492" xlink:href="#G" y="526.466109"/><use x="469.293696" xlink:href="#G" y="525.849289"/><use x="469.293696" xlink:href="#G" y="525.232469"/><use x="469.518031" xlink:href="#G" y="524.615649"/><use x="469.518031" xlink:href="#G" y="523.998828"/><use x="470.194118" xlink:href="#G" y="523.382008"/><use x="470.194118" xlink:href="#G" y="522.765188"/><use x="473.299947" xlink:href="#G" y="522.148368"/><use x="473.299947" xlink:href="#G" y="521.531548"/><use x="473.928815" xlink:href="#G" y="520.914728"/><use x="473.928815" xlink:href="#G" y="520.297908"/><use x="476.870333" xlink:href="#G" y="519.681088"/><use x="476.870333" xlink:href="#G" y="519.064268"/><use x="478.329939" xlink:href="#G" y="518.447448"/><use x="478.329939" xlink:href="#G" y="517.830628"/><use x="478.417481" xlink:href="#G" y="517.213808"/><use x="478.417481" xlink:href="#G" y="516.596987"/><use x="485.420698" xlink:href="#G" y="515.980167"/><use x="485.420698" xlink:href="#G" y="515.363347"/><use x="490.352568" xlink:href="#G" y="514.746527"/><use x="490.352568" xlink:href="#G" y="514.129707"/><use x="491.688948" xlink:href="#G" y="513.512887"/><use x="491.688948" xlink:href="#G" y="512.896067"/><use x="491.734324" xlink:href="#G" y="512.279247"/><use x="491.734324" xlink:href="#G" y="511.662427"/><use x="495.825192" xlink:href="#G" y="511.045607"/><use x="495.825192" xlink:href="#G" y="510.428787"/><use x="495.914132" xlink:href="#G" y="509.811967"/><use x="495.914132" xlink:href="#G" y="509.195146"/><use x="504.030888" xlink:href="#G" y="508.578326"/><use x="504.030888" xlink:href="#G" y="507.961506"/><use x="504.166697" xlink:href="#G" y="507.344686"/><use x="504.166697" xlink:href="#G" y="506.727866"/><use x="518.608137" xlink:href="#G" y="506.111046"/><use x="518.608137" xlink:href="#G" y="505.494226"/><use x="521.439776" xlink:href="#G" y="504.877406"/><use x="521.439776" xlink:href="#G" y="504.260586"/><use x="521.620101" xlink:href="#G" y="503.643766"/><use x="521.620101" xlink:href="#G" y="503.026946"/><use x="533.276613" xlink:href="#G" y="502.410126"/><use x="533.276613" xlink:href="#G" y="501.793305"/><use x="538.988665" xlink:href="#G" y="501.176485"/><use x="538.988665" xlink:href="#G" y="500.559665"/><use x="544.114239" xlink:href="#G" y="499.942845"/><use x="544.114239" xlink:href="#G" y="499.326025"/><use x="546.409635" xlink:href="#G" y="498.709205"/><use x="546.409635" xlink:href="#G" y="498.092385"/><use x="564.50341" xlink:href="#G" y="497.475565"/><use x="564.50341" xlink:href="#G" y="496.858745"/><use x="564.636168" xlink:href="#G" y="496.241925"/><use x="564.636168" xlink:href="#G" y="495.625105"/><use x="565.311333" xlink:href="#G" y="495.008285"/><use x="565.311333" xlink:href="#G" y="494.391464"/><use x="565.578438" xlink:href="#G" y="493.774644"/><use x="565.578438" xlink:href="#G" y="493.157824"/><use x="565.757429" xlink:href="#G" y="492.541004"/><use x="565.757429" xlink:href="#G" y="491.924184"/><use x="573.183291" xlink:href="#G" y="491.307364"/><use x="573.183291" xlink:href="#G" y="490.690544"/><use x="573.591574" xlink:href="#G" y="490.073724"/><use x="573.591574" xlink:href="#G" y="489.456904"/><use x="577.958476" xlink:href="#G" y="488.840084"/><use x="577.958476" xlink:href="#G" y="488.223264"/><use x="581.152483" xlink:href="#G" y="487.606444"/><use x="581.152483" xlink:href="#G" y="486.989623"/><use x="581.873023" xlink:href="#G" y="486.372803"/><use x="581.873023" xlink:href="#G" y="485.755983"/><use x="582.006512" xlink:href="#G" y="485.139163"/><use x="582.006512" xlink:href="#G" y="484.522343"/><use x="585.273633" xlink:href="#G" y="483.905523"/><use x="585.273633" xlink:href="#G" y="483.288703"/><use x="585.311891" xlink:href="#G" y="482.671883"/><use x="585.311891" xlink:href="#G" y="482.055063"/><use x="586.100748" xlink:href="#G" y="481.438243"/><use x="586.100748" xlink:href="#G" y="480.821423"/><use x="588.847483" xlink:href="#G" y="480.204603"/><use x="588.847483" xlink:href="#G" y="479.587782"/><use x="589.026411" xlink:href="#G" y="478.970962"/><use x="589.026411" xlink:href="#G" y="478.354142"/><use x="589.790388" xlink:href="#G" y="477.737322"/><use x="589.790388" xlink:href="#G" y="477.120502"/><use x="589.972303" xlink:href="#G" y="476.503682"/><use x="589.972303" xlink:href="#G" y="475.886862"/><use x="590.151675" xlink:href="#G" y="475.270042"/><use x="590.151675" xlink:href="#G" y="474.653222"/><use x="590.333717" xlink:href="#G" y="474.036402"/><use x="590.333717" xlink:href="#G" y="473.419582"/><use x="599.87287" xlink:href="#G" y="472.802762"/><use x="599.87287" xlink:href="#G" y="472.185941"/><use x="603.533912" xlink:href="#G" y="471.569121"/><use x="603.533912" xlink:href="#G" y="470.952301"/><use x="603.580559" xlink:href="#G" y="470.335481"/><use x="603.580559" xlink:href="#G" y="469.718661"/><use x="603.67258" xlink:href="#G" y="469.101841"/><use x="603.67258" xlink:href="#G" y="468.485021"/><use x="603.67258" xlink:href="#G" y="467.868201"/><use x="603.71821" xlink:href="#G" y="467.251381"/><use x="603.71821" xlink:href="#G" y="466.634561"/><use x="606.218717" xlink:href="#G" y="466.017741"/><use x="606.218717" xlink:href="#G" y="465.400921"/><use x="608.828562" xlink:href="#G" y="464.7841"/><use x="608.828562" xlink:href="#G" y="464.16728"/><use x="609.008253" xlink:href="#G" y="463.55046"/><use x="609.008253" xlink:href="#G" y="462.93364"/><use x="609.18807" xlink:href="#G" y="462.31682"/><use x="609.18807" xlink:href="#G" y="461.7"/><use x="609.366744" xlink:href="#G" y="461.08318"/><use x="609.366744" xlink:href="#G" y="460.46636"/><use x="615.046163" xlink:href="#G" y="459.84954"/><use x="615.046163" xlink:href="#G" y="459.23272"/><use x="619.270393" xlink:href="#G" y="458.6159"/><use x="619.270393" xlink:href="#G" y="457.999079"/><use x="622.013887" xlink:href="#G" y="457.382259"/><use x="622.013887" xlink:href="#G" y="456.765439"/><use x="622.325827" xlink:href="#G" y="456.148619"/><use x="622.325827" xlink:href="#G" y="455.531799"/><use x="626.110125" xlink:href="#G" y="454.914979"/><use x="626.110125" xlink:href="#G" y="454.298159"/><use x="626.114955" xlink:href="#G" y="453.681339"/><use x="626.114955" xlink:href="#G" y="453.064519"/><use x="626.28918" xlink:href="#G" y="452.447699"/><use x="626.28918" xlink:href="#G" y="451.830879"/><use x="626.649514" xlink:href="#G" y="451.214059"/><use x="626.649514" xlink:href="#G" y="450.597238"/><use x="627.776113" xlink:href="#G" y="449.980418"/><use x="627.776113" xlink:href="#G" y="449.363598"/><use x="628.091961" xlink:href="#G" y="448.746778"/><use x="628.091961" xlink:href="#G" y="448.129958"/><use x="629.766242" xlink:href="#G" y="447.513138"/><use x="629.766242" xlink:href="#G" y="446.896318"/><use x="629.811586" xlink:href="#G" y="446.279498"/><use x="629.811586" xlink:href="#G" y="445.662678"/><use x="629.82436" xlink:href="#G" y="445.045858"/><use x="629.82436" xlink:href="#G" y="444.429038"/><use x="629.857597" xlink:href="#G" y="443.812218"/><use x="629.857597" xlink:href="#G" y="443.195397"/><use x="629.902432" xlink:href="#G" y="442.578577"/><use x="629.902432" xlink:href="#G" y="441.961757"/><use x="629.948888" xlink:href="#G" y="441.344937"/><use x="629.948888" xlink:href="#G" y="440.728117"/><use x="642.493015" xlink:href="#G" y="440.111297"/><use x="642.493015" xlink:href="#G" y="439.494477"/><use x="642.67512" xlink:href="#G" y="438.877657"/><use x="642.67512" xlink:href="#G" y="438.260837"/><use x="642.827896" xlink:href="#G" y="437.644017"/><use x="642.827896" xlink:href="#G" y="437.027197"/><use x="649.503191" xlink:href="#G" y="436.410377"/><use x="649.503191" xlink:href="#G" y="435.793556"/><use x="653.698315" xlink:href="#G" y="435.176736"/><use x="653.698315" xlink:href="#G" y="434.559916"/><use x="653.923857" xlink:href="#G" y="433.943096"/><use x="653.923857" xlink:href="#G" y="433.326276"/><use x="654.147937" xlink:href="#G" y="432.709456"/><use x="654.147937" xlink:href="#G" y="432.092636"/><use x="654.464802" xlink:href="#G" y="431.475816"/><use x="654.464802" xlink:href="#G" y="430.858996"/><use x="654.647289" xlink:href="#G" y="430.242176"/><use x="654.647289" xlink:href="#G" y="429.625356"/><use x="656.580222" xlink:href="#G" y="429.008536"/><use x="656.580222" xlink:href="#G" y="428.391715"/><use x="656.802746" xlink:href="#G" y="427.774895"/><use x="656.802746" xlink:href="#G" y="427.158075"/><use x="656.893909" xlink:href="#G" y="426.541255"/><use x="656.893909" xlink:href="#G" y="425.924435"/><use x="659.516656" xlink:href="#G" y="425.307615"/><use x="659.516656" xlink:href="#G" y="424.690795"/><use x="661.079437" xlink:href="#G" y="424.073975"/><use x="661.079437" xlink:href="#G" y="423.457155"/><use x="663.335908" xlink:href="#G" y="422.840335"/><use x="663.335908" xlink:href="#G" y="422.223515"/><use x="665.048034" xlink:href="#G" y="421.606695"/><use x="665.048034" xlink:href="#G" y="420.989874"/><use x="665.139833" xlink:href="#G" y="420.373054"/><use x="665.139833" xlink:href="#G" y="419.756234"/><use x="666.162654" xlink:href="#G" y="419.139414"/><use x="666.162654" xlink:href="#G" y="418.522594"/><use x="667.785141" xlink:href="#G" y="417.905774"/><use x="667.785141" xlink:href="#G" y="417.288954"/><use x="668.344103" xlink:href="#G" y="416.672134"/><use x="668.344103" xlink:href="#G" y="416.055314"/><use x="670.846579" xlink:href="#G" y="415.438494"/><use x="670.846579" xlink:href="#G" y="414.821674"/><use x="671.025698" xlink:href="#G" y="414.204854"/><use x="671.025698" xlink:href="#G" y="413.588033"/><use x="671.295567" xlink:href="#G" y="412.971213"/><use x="671.295567" xlink:href="#G" y="412.354393"/><use x="671.613194" xlink:href="#G" y="411.737573"/><use x="671.613194" xlink:href="#G" y="411.120753"/><use x="671.925515" xlink:href="#G" y="410.503933"/><use x="671.925515" xlink:href="#G" y="409.887113"/><use x="679.638564" xlink:href="#G" y="409.270293"/><use x="679.638564" xlink:href="#G" y="408.653473"/><use x="679.801668" xlink:href="#G" y="408.036653"/><use x="679.801668" xlink:href="#G" y="407.419833"/><use x="680.118024" xlink:href="#G" y="406.803013"/><use x="680.118024" xlink:href="#G" y="406.186192"/><use x="683.165895" xlink:href="#G" y="405.569372"/><use x="683.165895" xlink:href="#G" y="404.952552"/><use x="683.209491" xlink:href="#G" y="404.335732"/><use x="683.209491" xlink:href="#G" y="403.718912"/><use x="683.254263" xlink:href="#G" y="403.102092"/><use x="683.254263" xlink:href="#G" y="402.485272"/><use x="683.301704" xlink:href="#G" y="401.868452"/><use x="683.301704" xlink:href="#G" y="401.251632"/><use x="683.346253" xlink:href="#G" y="400.634812"/><use x="683.346253" xlink:href="#G" y="400.017992"/><use x="686.553191" xlink:href="#G" y="399.401172"/><use x="686.553191" xlink:href="#G" y="398.784351"/><use x="691.82633" xlink:href="#G" y="398.167531"/><use x="691.82633" xlink:href="#G" y="397.550711"/><use x="692.493837" xlink:href="#G" y="396.933891"/><use x="692.493837" xlink:href="#G" y="396.317071"/><use x="693.66883" xlink:href="#G" y="395.700251"/><use x="693.66883" xlink:href="#G" y="395.083431"/><use x="694.523431" xlink:href="#G" y="394.466611"/><use x="694.523431" xlink:href="#G" y="393.849791"/><use x="695.152331" xlink:href="#G" y="393.232971"/><use x="695.152331" xlink:href="#G" y="392.616151"/><use x="695.165296" xlink:href="#G" y="391.999331"/><use x="695.165296" xlink:href="#G" y="391.38251"/><use x="695.283246" xlink:href="#G" y="390.76569"/><use x="695.283246" xlink:href="#G" y="390.14887"/><use x="696.151924" xlink:href="#G" y="389.53205"/><use x="696.151924" xlink:href="#G" y="388.91523"/><use x="696.535613" xlink:href="#G" y="388.29841"/><use x="696.535613" xlink:href="#G" y="387.68159"/><use x="698.209639" xlink:href="#G" y="387.06477"/><use x="698.209639" xlink:href="#G" y="386.44795"/><use x="698.480493" xlink:href="#G" y="385.83113"/><use x="698.480493" xlink:href="#G" y="385.21431"/><use x="700.639255" xlink:href="#G" y="384.59749"/><use x="700.639255" xlink:href="#G" y="383.980669"/><use x="701.989235" xlink:href="#G" y="383.363849"/><use x="701.989235" xlink:href="#G" y="382.747029"/><use x="702.213952" xlink:href="#G" y="382.130209"/><use x="702.213952" xlink:href="#G" y="381.513389"/><use x="702.438636" xlink:href="#G" y="380.896569"/><use x="702.438636" xlink:href="#G" y="380.279749"/><use x="702.710062" xlink:href="#G" y="379.662929"/><use x="702.710062" xlink:href="#G" y="379.046109"/><use x="702.934842" xlink:href="#G" y="378.429289"/><use x="702.934842" xlink:href="#G" y="377.812469"/><use x="709.642833" xlink:href="#G" y="377.195649"/><use x="709.642833" xlink:href="#G" y="376.578828"/><use x="712.204062" xlink:href="#G" y="375.962008"/><use x="712.204062" xlink:href="#G" y="375.345188"/><use x="713.44464" xlink:href="#G" y="374.728368"/><use x="713.44464" xlink:href="#G" y="374.111548"/><use x="713.533103" xlink:href="#G" y="373.494728"/><use x="713.533103" xlink:href="#G" y="372.877908"/><use x="713.670405" xlink:href="#G" y="372.261088"/><use x="713.670405" xlink:href="#G" y="371.644268"/><use x="719.359674" xlink:href="#G" y="371.027448"/><use x="719.359674" xlink:href="#G" y="370.410628"/><use x="721.369568" xlink:href="#G" y="369.793808"/><use x="721.369568" xlink:href="#G" y="369.176987"/><use x="723.856189" xlink:href="#G" y="368.560167"/><use x="723.856189" xlink:href="#G" y="367.943347"/><use x="724.082144" xlink:href="#G" y="367.326527"/><use x="724.082144" xlink:href="#G" y="366.709707"/><use x="730.82566" xlink:href="#G" y="366.092887"/><use x="730.82566" xlink:href="#G" y="365.476067"/><use x="730.871766" xlink:href="#G" y="364.859247"/><use x="730.871766" xlink:href="#G" y="364.242427"/><use x="730.918095" xlink:href="#G" y="363.625607"/><use x="730.918095" xlink:href="#G" y="363.008787"/><use x="737.30795" xlink:href="#G" y="362.391967"/><use x="737.30795" xlink:href="#G" y="361.775146"/><use x="737.74839" xlink:href="#G" y="361.158326"/><use x="737.74839" xlink:href="#G" y="360.541506"/><use x="742.878729" xlink:href="#G" y="359.924686"/><use x="742.878729" xlink:href="#G" y="359.307866"/><use x="744.453013" xlink:href="#G" y="358.691046"/><use x="744.453013" xlink:href="#G" y="358.074226"/><use x="744.498356" xlink:href="#G" y="357.457406"/><use x="744.498356" xlink:href="#G" y="356.840586"/><use x="744.54459" xlink:href="#G" y="356.223766"/><use x="744.54459" xlink:href="#G" y="355.606946"/><use x="744.591332" xlink:href="#G" y="354.990126"/><use x="744.591332" xlink:href="#G" y="354.373305"/><use x="746.702906" xlink:href="#G" y="353.756485"/><use x="746.702906" xlink:href="#G" y="353.139665"/><use x="746.7921" xlink:href="#G" y="352.522845"/><use x="746.7921" xlink:href="#G" y="351.906025"/><use x="746.881389" xlink:href="#G" y="351.289205"/><use x="746.881389" xlink:href="#G" y="350.672385"/><use x="749.85481" xlink:href="#G" y="350.055565"/><use x="749.85481" xlink:href="#G" y="349.438745"/><use x="749.870253" xlink:href="#G" y="348.821925"/><use x="749.870253" xlink:href="#G" y="348.205105"/><use x="749.946705" xlink:href="#G" y="347.588285"/><use x="749.946705" xlink:href="#G" y="346.971464"/><use x="750.035898" xlink:href="#G" y="346.354644"/><use x="750.035898" xlink:href="#G" y="345.737824"/><use x="751.161544" xlink:href="#G" y="345.121004"/><use x="751.161544" xlink:href="#G" y="344.504184"/><use x="751.253375" xlink:href="#G" y="343.887364"/><use x="751.253375" xlink:href="#G" y="343.270544"/><use x="751.265831" xlink:href="#G" y="342.653724"/><use x="751.265831" xlink:href="#G" y="342.036904"/><use x="753.095876" xlink:href="#G" y="341.420084"/><use x="753.095876" xlink:href="#G" y="340.803264"/><use x="753.188914" xlink:href="#G" y="340.186444"/><use x="753.188914" xlink:href="#G" y="339.569623"/><use x="755.250919" xlink:href="#G" y="338.952803"/><use x="755.250919" xlink:href="#G" y="338.335983"/><use x="756.923008" xlink:href="#G" y="337.719163"/><use x="756.923008" xlink:href="#G" y="337.102343"/><use x="757.060151" xlink:href="#G" y="336.485523"/><use x="757.060151" xlink:href="#G" y="335.868703"/><use x="757.198438" xlink:href="#G" y="335.251883"/><use x="757.198438" xlink:href="#G" y="334.635063"/><use x="758.407875" xlink:href="#G" y="334.018243"/><use x="758.407875" xlink:href="#G" y="333.401423"/><use x="758.498849" xlink:href="#G" y="332.784603"/><use x="758.498849" xlink:href="#G" y="332.167782"/><use x="760.833741" xlink:href="#G" y="331.550962"/><use x="760.833741" xlink:href="#G" y="330.934142"/><use x="761.143965" xlink:href="#G" y="330.317322"/><use x="761.143965" xlink:href="#G" y="329.700502"/><use x="762.448793" xlink:href="#G" y="329.083682"/><use x="762.448793" xlink:href="#G" y="328.466862"/><use x="763.3937" xlink:href="#G" y="327.850042"/><use x="763.3937" xlink:href="#G" y="327.233222"/><use x="763.722989" xlink:href="#G" y="326.616402"/><use x="763.722989" xlink:href="#G" y="325.999582"/><use x="765.330129" xlink:href="#G" y="325.382762"/><use x="765.330129" xlink:href="#G" y="324.765941"/><use x="765.822553" xlink:href="#G" y="324.149121"/><use x="765.822553" xlink:href="#G" y="323.532301"/><use x="767.005617" xlink:href="#G" y="322.915481"/><use x="767.005617" xlink:href="#G" y="322.298661"/><use x="767.545037" xlink:href="#G" y="321.681841"/><use x="767.545037" xlink:href="#G" y="321.065021"/><use x="767.590921" xlink:href="#G" y="320.448201"/><use x="767.590921" xlink:href="#G" y="319.831381"/><use x="767.640205" xlink:href="#G" y="319.214561"/><use x="767.640205" xlink:href="#G" y="318.597741"/><use x="767.686947" xlink:href="#G" y="317.980921"/><use x="767.686947" xlink:href="#G" y="317.3641"/><use x="767.732227" xlink:href="#G" y="316.74728"/><use x="767.732227" xlink:href="#G" y="316.13046"/><use x="769.299138" xlink:href="#G" y="315.51364"/><use x="769.299138" xlink:href="#G" y="314.89682"/><use x="769.389762" xlink:href="#G" y="314.28"/><use x="769.389762" xlink:href="#G" y="313.66318"/><use x="769.434851" xlink:href="#G" y="313.04636"/><use x="769.434851" xlink:href="#G" y="312.42954"/><use x="769.527699" xlink:href="#G" y="311.81272"/><use x="769.527699" xlink:href="#G" y="311.1959"/><use x="772.000307" xlink:href="#G" y="310.579079"/><use x="772.000307" xlink:href="#G" y="309.962259"/><use x="772.091598" xlink:href="#G" y="309.345439"/><use x="772.091598" xlink:href="#G" y="308.728619"/><use x="772.183048" xlink:href="#G" y="308.111799"/><use x="772.183048" xlink:href="#G" y="307.494979"/><use x="775.096794" xlink:href="#G" y="306.878159"/><use x="775.096794" xlink:href="#G" y="306.261339"/><use x="775.099845" xlink:href="#G" y="305.644519"/><use x="775.099845" xlink:href="#G" y="305.027699"/><use x="775.549817" xlink:href="#G" y="304.410879"/><use x="775.549817" xlink:href="#G" y="303.794059"/><use x="777.628155" xlink:href="#G" y="303.177238"/><use x="777.628155" xlink:href="#G" y="302.560418"/><use x="777.718111" xlink:href="#G" y="301.943598"/><use x="777.718111" xlink:href="#G" y="301.326778"/><use x="777.808957" xlink:href="#G" y="300.709958"/><use x="777.808957" xlink:href="#G" y="300.093138"/><use x="779.787329" xlink:href="#G" y="299.476318"/><use x="779.787329" xlink:href="#G" y="298.859498"/><use x="779.876523" xlink:href="#G" y="298.242678"/><use x="779.876523" xlink:href="#G" y="297.625858"/><use x="779.969593" xlink:href="#G" y="297.009038"/><use x="779.969593" xlink:href="#G" y="296.392218"/><use x="782.060832" xlink:href="#G" y="295.775397"/><use x="782.060832" xlink:href="#G" y="295.158577"/><use x="785.859335" xlink:href="#G" y="294.541757"/><use x="785.859335" xlink:href="#G" y="293.924937"/><use x="800.70032" xlink:href="#G" y="293.308117"/><use x="800.70032" xlink:href="#G" y="292.691297"/><use x="806.147333" xlink:href="#G" y="292.074477"/><use x="806.147333" xlink:href="#G" y="291.457657"/><use x="806.420221" xlink:href="#G" y="290.840837"/><use x="806.420221" xlink:href="#G" y="290.224017"/><use x="807.948557" xlink:href="#G" y="289.607197"/><use x="807.948557" xlink:href="#G" y="288.990377"/><use x="809.385412" xlink:href="#G" y="288.373556"/><use x="809.385412" xlink:href="#G" y="287.756736"/><use x="816.003097" xlink:href="#G" y="287.139916"/><use x="816.003097" xlink:href="#G" y="286.523096"/><use x="818.791807" xlink:href="#G" y="285.906276"/><use x="818.791807" xlink:href="#G" y="285.289456"/><use x="824.472212" xlink:href="#G" y="284.672636"/><use x="824.472212" xlink:href="#G" y="284.055816"/><use x="824.561914" xlink:href="#G" y="283.438996"/><use x="824.561914" xlink:href="#G" y="282.822176"/><use x="824.653681" xlink:href="#G" y="282.205356"/><use x="824.653681" xlink:href="#G" y="281.588536"/><use x="825.359097" xlink:href="#G" y="280.971715"/><use x="825.359097" xlink:href="#G" y="280.354895"/><use x="829.059064" xlink:href="#G" y="279.738075"/><use x="829.059064" xlink:href="#G" y="279.121255"/><use x="833.098933" xlink:href="#G" y="278.504435"/><use x="833.098933" xlink:href="#G" y="277.887615"/><use x="838.49822" xlink:href="#G" y="277.270795"/><use x="838.49822" xlink:href="#G" y="276.653975"/><use x="840.173613" xlink:href="#G" y="276.037155"/><use x="840.173613" xlink:href="#G" y="275.420335"/><use x="840.263156" xlink:href="#G" y="274.803515"/><use x="840.263156" xlink:href="#G" y="274.186695"/><use x="840.352953" xlink:href="#G" y="273.569874"/><use x="840.352953" xlink:href="#G" y="272.953054"/><use x="841.364525" xlink:href="#G" y="272.336234"/><use x="841.364525" xlink:href="#G" y="271.719414"/><use x="843.185958" xlink:href="#G" y="271.102594"/><use x="843.185958" xlink:href="#G" y="270.485774"/><use x="843.231334" xlink:href="#G" y="269.868954"/><use x="843.231334" xlink:href="#G" y="269.252134"/><use x="843.324595" xlink:href="#G" y="268.635314"/><use x="843.324595" xlink:href="#G" y="268.018494"/><use x="846.462454" xlink:href="#G" y="267.401674"/><use x="846.462454" xlink:href="#G" y="266.784854"/><use x="847.371232" xlink:href="#G" y="266.168033"/><use x="847.371232" xlink:href="#G" y="265.551213"/><use x="847.461125" xlink:href="#G" y="264.934393"/><use x="847.461125" xlink:href="#G" y="264.317573"/><use x="847.552257" xlink:href="#G" y="263.700753"/><use x="847.552257" xlink:href="#G" y="263.083933"/><use x="847.64288" xlink:href="#G" y="262.467113"/><use x="847.64288" xlink:href="#G" y="261.850293"/><use x="849.649024" xlink:href="#G" y="261.233473"/><use x="849.649024" xlink:href="#G" y="260.616653"/><use x="849.829001" xlink:href="#G" y="259.999833"/><use x="849.829001" xlink:href="#G" y="259.383013"/><use x="850.011678" xlink:href="#G" y="258.766192"/><use x="850.011678" xlink:href="#G" y="258.149372"/><use x="850.646615" xlink:href="#G" y="257.532552"/><use x="850.646615" xlink:href="#G" y="256.915732"/><use x="855.1009" xlink:href="#G" y="256.298912"/><use x="855.1009" xlink:href="#G" y="255.682092"/><use x="855.412871" xlink:href="#G" y="255.065272"/><use x="855.412871" xlink:href="#G" y="254.448452"/><use x="855.652363" xlink:href="#G" y="253.831632"/><use x="855.652363" xlink:href="#G" y="253.214812"/><use x="855.740826" xlink:href="#G" y="252.597992"/><use x="855.740826" xlink:href="#G" y="251.981172"/><use x="855.830305" xlink:href="#G" y="251.364351"/><use x="855.830305" xlink:href="#G" y="250.747531"/><use x="855.919976" xlink:href="#G" y="250.130711"/><use x="855.919976" xlink:href="#G" y="249.513891"/><use x="857.555777" xlink:href="#G" y="248.897071"/><use x="857.555777" xlink:href="#G" y="248.280251"/><use x="858.436656" xlink:href="#G" y="247.663431"/><use x="858.436656" xlink:href="#G" y="247.046611"/><use x="858.526327" xlink:href="#G" y="246.429791"/><use x="858.526327" xlink:href="#G" y="245.812971"/><use x="858.616188" xlink:href="#G" y="245.196151"/><use x="858.616188" xlink:href="#G" y="244.579331"/><use x="858.750916" xlink:href="#G" y="243.96251"/><use x="858.750916" xlink:href="#G" y="243.34569"/><use x="861.901993" xlink:href="#G" y="242.72887"/><use x="861.901993" xlink:href="#G" y="242.11205"/><use x="861.992426" xlink:href="#G" y="241.49523"/><use x="861.992426" xlink:href="#G" y="240.87841"/><use x="862.082478" xlink:href="#G" y="240.26159"/><use x="862.082478" xlink:href="#G" y="239.64477"/><use x="862.268015" xlink:href="#G" y="239.02795"/><use x="862.268015" xlink:href="#G" y="238.41113"/><use x="862.5423" xlink:href="#G" y="237.79431"/><use x="862.5423" xlink:href="#G" y="237.17749"/><use x="863.0461" xlink:href="#G" y="236.560669"/><use x="863.0461" xlink:href="#G" y="235.943849"/><use x="863.228269" xlink:href="#G" y="235.327029"/><use x="863.228269" xlink:href="#G" y="234.710209"/><use x="864.326683" xlink:href="#G" y="234.093389"/><use x="864.326683" xlink:href="#G" y="233.476569"/><use x="866.294284" xlink:href="#G" y="232.859749"/><use x="866.294284" xlink:href="#G" y="232.242929"/><use x="866.851689" xlink:href="#G" y="231.626109"/><use x="866.851689" xlink:href="#G" y="231.009289"/><use x="866.943488" xlink:href="#G" y="230.392469"/><use x="866.943488" xlink:href="#G" y="229.775649"/><use x="867.032618" xlink:href="#G" y="229.158828"/><use x="867.032618" xlink:href="#G" y="228.542008"/><use x="868.291149" xlink:href="#G" y="227.925188"/><use x="868.291149" xlink:href="#G" y="227.308368"/><use x="868.379803" xlink:href="#G" y="226.691548"/><use x="868.379803" xlink:href="#G" y="226.074728"/><use x="868.469505" xlink:href="#G" y="225.457908"/><use x="868.469505" xlink:href="#G" y="224.841088"/><use x="868.605281" xlink:href="#G" y="224.224268"/><use x="868.605281" xlink:href="#G" y="223.607448"/><use x="868.693967" xlink:href="#G" y="222.990628"/><use x="868.693967" xlink:href="#G" y="222.373808"/><use x="872.026228" xlink:href="#G" y="221.756987"/><use x="872.026228" xlink:href="#G" y="221.140167"/><use x="872.115231" xlink:href="#G" y="220.523347"/><use x="872.115231" xlink:href="#G" y="219.906527"/><use x="872.250213" xlink:href="#G" y="219.289707"/><use x="872.250213" xlink:href="#G" y="218.672887"/><use x="873.723355" xlink:href="#G" y="218.056067"/><use x="873.723355" xlink:href="#G" y="217.439247"/><use x="873.948993" xlink:href="#G" y="216.822427"/><use x="873.948993" xlink:href="#G" y="216.205607"/><use x="877.319099" xlink:href="#G" y="215.588787"/><use x="877.319099" xlink:href="#G" y="214.971967"/><use x="879.716716" xlink:href="#G" y="214.355146"/><use x="879.716716" xlink:href="#G" y="213.738326"/><use x="879.807817" xlink:href="#G" y="213.121506"/><use x="879.807817" xlink:href="#G" y="212.504686"/><use x="879.899521" xlink:href="#G" y="211.887866"/><use x="879.899521" xlink:href="#G" y="211.271046"/><use x="879.991701" xlink:href="#G" y="210.654226"/><use x="879.991701" xlink:href="#G" y="210.037406"/><use x="881.284073" xlink:href="#G" y="209.420586"/><use x="881.284073" xlink:href="#G" y="208.803766"/><use x="884.837269" xlink:href="#G" y="208.186946"/><use x="884.837269" xlink:href="#G" y="207.570126"/><use x="885.251589" xlink:href="#G" y="206.953305"/><use x="885.251589" xlink:href="#G" y="206.336485"/><use x="885.342308" xlink:href="#G" y="205.719665"/><use x="885.342308" xlink:href="#G" y="205.102845"/><use x="885.431502" xlink:href="#G" y="204.486025"/><use x="885.431502" xlink:href="#G" y="203.869205"/><use x="887.805574" xlink:href="#G" y="203.252385"/><use x="887.805574" xlink:href="#G" y="202.635565"/><use x="887.851299" xlink:href="#G" y="202.018745"/><use x="887.851299" xlink:href="#G" y="201.401925"/><use x="887.898454" xlink:href="#G" y="200.785105"/><use x="887.898454" xlink:href="#G" y="200.168285"/><use x="887.94456" xlink:href="#G" y="199.551464"/><use x="887.94456" xlink:href="#G" y="198.934644"/><use x="887.987616" xlink:href="#G" y="198.317824"/><use x="887.987616" xlink:href="#G" y="197.701004"/><use x="888.802021" xlink:href="#G" y="197.084184"/><use x="888.802021" xlink:href="#G" y="196.467364"/><use x="889.029724" xlink:href="#G" y="195.850544"/><use x="889.029724" xlink:href="#G" y="195.233724"/><use x="890.786271" xlink:href="#G" y="194.616904"/><use x="890.786271" xlink:href="#G" y="194.000084"/><use x="890.875719" xlink:href="#G" y="193.383264"/><use x="890.875719" xlink:href="#G" y="192.766444"/><use x="890.965962" xlink:href="#G" y="192.149623"/><use x="890.965962" xlink:href="#G" y="191.532803"/><use x="891.056109" xlink:href="#G" y="190.915983"/><use x="891.056109" xlink:href="#G" y="190.299163"/><use x="891.189089" xlink:href="#G" y="189.682343"/><use x="891.189089" xlink:href="#G" y="189.065523"/><use x="892.855839" xlink:href="#G" y="188.448703"/><use x="892.855839" xlink:href="#G" y="187.831883"/><use x="892.947988" xlink:href="#G" y="187.215063"/><use x="892.947988" xlink:href="#G" y="186.598243"/><use x="893.036673" xlink:href="#G" y="185.981423"/><use x="893.036673" xlink:href="#G" y="185.364603"/><use x="896.456571" xlink:href="#G" y="184.747782"/><use x="896.456571" xlink:href="#G" y="184.130962"/><use x="896.54818" xlink:href="#G" y="183.514142"/><use x="896.54818" xlink:href="#G" y="182.897322"/><use x="896.637628" xlink:href="#G" y="182.280502"/><use x="896.637628" xlink:href="#G" y="181.663682"/><use x="899.01062" xlink:href="#G" y="181.046862"/><use x="899.01062" xlink:href="#G" y="180.430042"/><use x="900.322756" xlink:href="#G" y="179.813222"/><use x="900.322756" xlink:href="#G" y="179.196402"/><use x="900.414396" xlink:href="#G" y="178.579582"/><use x="900.414396" xlink:href="#G" y="177.962762"/><use x="900.551507" xlink:href="#G" y="177.345941"/><use x="900.551507" xlink:href="#G" y="176.729121"/><use x="902.891262" xlink:href="#G" y="176.112301"/><use x="902.891262" xlink:href="#G" y="175.495481"/><use x="902.982712" xlink:href="#G" y="174.878661"/><use x="902.982712" xlink:href="#G" y="174.261841"/><use x="903.075496" xlink:href="#G" y="173.645021"/><use x="903.075496" xlink:href="#G" y="173.028201"/><use x="904.642217" xlink:href="#G" y="172.411381"/><use x="904.642217" xlink:href="#G" y="171.794561"/><use x="904.731347" xlink:href="#G" y="171.177741"/><use x="904.731347" xlink:href="#G" y="170.560921"/><use x="904.822479" xlink:href="#G" y="169.9441"/><use x="904.822479" xlink:href="#G" y="169.32728"/><use x="907.875942" xlink:href="#G" y="168.71046"/><use x="907.875942" xlink:href="#G" y="168.09364"/><use x="908.393088" xlink:href="#G" y="167.47682"/><use x="908.393088" xlink:href="#G" y="166.86"/><use x="908.578244" xlink:href="#G" y="166.24318"/><use x="908.578244" xlink:href="#G" y="165.62636"/><use x="908.803087" xlink:href="#G" y="165.00954"/><use x="908.803087" xlink:href="#G" y="164.39272"/><use x="912.974856" xlink:href="#G" y="163.7759"/><use x="912.974856" xlink:href="#G" y="163.159079"/><use x="916.040012" xlink:href="#G" y="162.542259"/><use x="916.040012" xlink:href="#G" y="161.925439"/><use x="917.227875" xlink:href="#G" y="161.308619"/><use x="917.227875" xlink:href="#G" y="160.691799"/><use x="917.781689" xlink:href="#G" y="160.074979"/><use x="917.781689" xlink:href="#G" y="159.458159"/><use x="917.873012" xlink:href="#G" y="158.841339"/><use x="917.873012" xlink:href="#G" y="158.224519"/><use x="921.471551" xlink:href="#G" y="157.607699"/><use x="921.471551" xlink:href="#G" y="156.990879"/><use x="921.560999" xlink:href="#G" y="156.374059"/><use x="921.560999" xlink:href="#G" y="155.757238"/><use x="921.697602" xlink:href="#G" y="155.140418"/><use x="921.697602" xlink:href="#G" y="154.523598"/><use x="921.786256" xlink:href="#G" y="153.906778"/><use x="921.786256" xlink:href="#G" y="153.289958"/><use x="923.908603" xlink:href="#G" y="152.673138"/><use x="923.908603" xlink:href="#G" y="152.056318"/><use x="924.917632" xlink:href="#G" y="151.439498"/><use x="924.917632" xlink:href="#G" y="150.822678"/><use x="933.930838" xlink:href="#G" y="150.205858"/><use x="933.930838" xlink:href="#G" y="149.589038"/><use x="942.443803" xlink:href="#G" y="148.972218"/><use x="942.443803" xlink:href="#G" y="148.355397"/><use x="942.895237" xlink:href="#G" y="147.738577"/><use x="942.895237" xlink:href="#G" y="147.121757"/><use x="943.167743" xlink:href="#G" y="146.504937"/><use x="943.167743" xlink:href="#G" y="145.888117"/><use x="945.778479" xlink:href="#G" y="145.271297"/><use x="945.778479" xlink:href="#G" y="144.654477"/><use x="953.514438" xlink:href="#G" y="144.037657"/><use x="953.514438" xlink:href="#G" y="143.420837"/><use x="954.518575" xlink:href="#G" y="142.804017"/><use x="954.518575" xlink:href="#G" y="142.187197"/><use x="956.532917" xlink:href="#G" y="141.570377"/><use x="956.532917" xlink:href="#G" y="140.953556"/><use x="957.216915" xlink:href="#G" y="140.336736"/><use x="957.216915" xlink:href="#G" y="139.719916"/><use x="957.537021" xlink:href="#G" y="139.103096"/><use x="957.537021" xlink:href="#G" y="138.486276"/><use x="958.959863" xlink:href="#G" y="137.869456"/><use x="958.959863" xlink:href="#G" y="137.252636"/><use x="959.22862" xlink:href="#G" y="136.635816"/><use x="959.22862" xlink:href="#G" y="136.018996"/><use x="962.849339" xlink:href="#G" y="135.402176"/><use x="962.849339" xlink:href="#G" y="134.785356"/><use x="964.76667" xlink:href="#G" y="134.168536"/><use x="964.76667" xlink:href="#G" y="133.551715"/><use x="964.903686" xlink:href="#G" y="132.934895"/><use x="964.903686" xlink:href="#G" y="132.318075"/><use x="965.042895" xlink:href="#G" y="131.701255"/><use x="965.042895" xlink:href="#G" y="131.084435"/><use x="966.463417" xlink:href="#G" y="130.467615"/><use x="966.463417" xlink:href="#G" y="129.850795"/><use x="970.398363" xlink:href="#G" y="129.233975"/><use x="970.398363" xlink:href="#G" y="128.617155"/><use x="973.006303" xlink:href="#G" y="128.000335"/><use x="973.006303" xlink:href="#G" y="127.383515"/><use x="975.751544" xlink:href="#G" y="126.766695"/><use x="975.751544" xlink:href="#G" y="126.149874"/><use x="978.036994" xlink:href="#G" y="125.533054"/><use x="978.036994" xlink:href="#G" y="124.916234"/><use x="978.402634" xlink:href="#G" y="124.299414"/><use x="978.402634" xlink:href="#G" y="123.682594"/><use x="978.725155" xlink:href="#G" y="123.065774"/><use x="978.725155" xlink:href="#G" y="122.448954"/><use x="984.306134" xlink:href="#G" y="121.832134"/><use x="984.306134" xlink:href="#G" y="121.215314"/><use x="984.487318" xlink:href="#G" y="120.598494"/><use x="984.487318" xlink:href="#G" y="119.981674"/><use x="984.67044" xlink:href="#G" y="119.364854"/><use x="984.67044" xlink:href="#G" y="118.748033"/><use x="992.087628" xlink:href="#G" y="118.131213"/><use x="992.087628" xlink:href="#G" y="117.514393"/><use x="995.698274" xlink:href="#G" y="116.897573"/><use x="995.698274" xlink:href="#G" y="116.280753"/><use x="996.108813" xlink:href="#G" y="115.663933"/><use x="996.108813" xlink:href="#G" y="115.047113"/><use x="998.170341" xlink:href="#G" y="114.430293"/><use x="998.170341" xlink:href="#G" y="113.813473"/><use x="999.314417" xlink:href="#G" y="113.196653"/><use x="999.314417" xlink:href="#G" y="112.579833"/><use x="1000.184175" xlink:href="#G" y="111.963013"/><use x="1000.184175" xlink:href="#G" y="111.346192"/><use x="1009.242184" xlink:href="#G" y="110.729372"/><use x="1009.242184" xlink:href="#G" y="110.112552"/><use x="1009.83664" xlink:href="#G" y="109.495732"/><use x="1009.83664" xlink:href="#G" y="108.878912"/><use x="1015.648817" xlink:href="#G" y="108.262092"/><use x="1015.648817" xlink:href="#G" y="107.645272"/><use x="1015.967207" xlink:href="#G" y="107.028452"/><use x="1015.967207" xlink:href="#G" y="106.411632"/><use x="1019.17011" xlink:href="#G" y="105.794812"/><use x="1019.17011" xlink:href="#G" y="105.177992"/><use x="1019.444777" xlink:href="#G" y="104.561172"/><use x="1019.444777" xlink:href="#G" y="103.944351"/><use x="1021.415524" xlink:href="#G" y="103.327531"/><use x="1021.415524" xlink:href="#G" y="102.710711"/><use x="1021.91551" xlink:href="#G" y="102.093891"/><use x="1021.91551" xlink:href="#G" y="101.477071"/><use x="1025.856304" xlink:href="#G" y="100.860251"/><use x="1025.856304" xlink:href="#G" y="100.243431"/><use x="1028.093995" xlink:href="#G" y="99.626611"/><use x="1028.093995" xlink:href="#G" y="99.009791"/><use x="1028.322429" xlink:href="#G" y="98.392971"/><use x="1028.322429" xlink:href="#G" y="97.776151"/><use x="1028.779837" xlink:href="#G" y="97.159331"/><use x="1028.779837" xlink:href="#G" y="96.54251"/><use x="1033.126752" xlink:href="#G" y="95.92569"/><use x="1033.126752" xlink:href="#G" y="95.30887"/><use x="1033.590865" xlink:href="#G" y="94.69205"/><use x="1033.590865" xlink:href="#G" y="94.07523"/><use x="1034.225262" xlink:href="#G" y="93.45841"/><use x="1034.225262" xlink:href="#G" y="92.84159"/><use x="1036.104113" xlink:href="#G" y="92.22477"/><use x="1036.104113" xlink:href="#G" y="91.60795"/><use x="1038.296875" xlink:href="#G" y="90.99113"/><use x="1038.296875" xlink:href="#G" y="90.37431"/><use x="1039.624708" xlink:href="#G" y="89.75749"/><use x="1039.624708" xlink:href="#G" y="89.140669"/><use x="1042.468961" xlink:href="#G" y="88.523849"/><use x="1042.468961" xlink:href="#G" y="87.907029"/><use x="1047.867835" xlink:href="#G" y="87.290209"/><use x="1047.867835" xlink:href="#G" y="86.673389"/><use x="1052.482141" xlink:href="#G" y="86.056569"/><use x="1052.482141" xlink:href="#G" y="85.439749"/><use x="1052.801866" xlink:href="#G" y="84.822929"/><use x="1052.801866" xlink:href="#G" y="84.206109"/><use x="1053.259051" xlink:href="#G" y="83.589289"/><use x="1053.259051" xlink:href="#G" y="82.972469"/><use x="1055.600426" xlink:href="#G" y="82.355649"/><use x="1055.600426" xlink:href="#G" y="81.738828"/><use x="1059.437917" xlink:href="#G" y="81.122008"/><use x="1059.437917" xlink:href="#G" y="80.505188"/><use x="1061.541231" xlink:href="#G" y="79.888368"/><use x="1061.541231" xlink:href="#G" y="79.271548"/><use x="1061.770077" xlink:href="#G" y="78.654728"/><use x="1061.770077" xlink:href="#G" y="78.037908"/><use x="1062.090311" xlink:href="#G" y="77.421088"/><use x="1062.090311" xlink:href="#G" y="76.804268"/><use x="1063.371529" xlink:href="#G" y="76.187448"/><use x="1063.371529" xlink:href="#G" y="75.570628"/><use x="1063.692684" xlink:href="#G" y="74.953808"/><use x="1063.692684" xlink:href="#G" y="74.336987"/><use x="1064.149202" xlink:href="#G" y="73.720167"/><use x="1064.149202" xlink:href="#G" y="73.103347"/><use x="1066.162591" xlink:href="#G" y="72.486527"/><use x="1066.162591" xlink:href="#G" y="71.869707"/><use x="1066.391279" xlink:href="#G" y="71.252887"/><use x="1066.391279" xlink:href="#G" y="70.636067"/><use x="1066.621047" xlink:href="#G" y="70.019247"/><use x="1066.621047" xlink:href="#G" y="69.402427"/><use x="1073.620864" xlink:href="#G" y="68.785607"/><use x="1073.620864" xlink:href="#G" y="68.168787"/><use x="1073.849012" xlink:href="#G" y="67.551967"/><use x="1073.849012" xlink:href="#G" y="66.935146"/><use x="1074.53533" xlink:href="#G" y="66.318326"/><use x="1074.53533" xlink:href="#G" y="65.701506"/><use x="1074.764145" xlink:href="#G" y="65.084686"/><use x="1074.764145" xlink:href="#G" y="64.467866"/><use x="1080.262095" xlink:href="#G" y="63.851046"/><use x="1080.262095" xlink:href="#G" y="63.234226"/><use x="1080.263715" xlink:href="#G" y="62.617406"/><use x="1080.263715" xlink:href="#G" y="62.000586"/><use x="1083.45823" xlink:href="#G" y="61.383766"/><use x="1083.45823" xlink:href="#G" y="60.766946"/><use x="1083.689937" xlink:href="#G" y="60.150126"/><use x="1083.689937" xlink:href="#G" y="59.533305"/><use x="1084.921903" xlink:href="#G" y="58.916485"/><use x="1084.921903" xlink:href="#G" y="58.299665"/><use x="1085.151703" xlink:href="#G" y="57.682845"/><use x="1085.151703" xlink:href="#G" y="57.066025"/><use x="1085.520807" xlink:href="#G" y="56.449205"/><use x="1085.520807" xlink:href="#G" y="55.832385"/><use x="1089.212354" xlink:href="#G" y="55.215565"/><use x="1089.212354" xlink:href="#G" y="54.598745"/><use x="1089.865625" xlink:href="#G" y="53.981925"/><use x="1089.865625" xlink:href="#G" y="53.365105"/><use x="1090.04773" xlink:href="#G" y="52.748285"/><use x="1090.04773" xlink:href="#G" y="52.131464"/><use x="1090.276832" xlink:href="#G" y="51.514644"/><use x="1090.276832" xlink:href="#G" y="50.897824"/><use x="1090.666589" xlink:href="#G" y="50.281004"/><use x="1090.666589" xlink:href="#G" y="49.664184"/><use x="1092.818011" xlink:href="#G" y="49.047364"/><use x="1092.818011" xlink:href="#G" y="48.430544"/><use x="1093.484406" xlink:href="#G" y="47.813724"/><use x="1093.484406" xlink:href="#G" y="47.196904"/><use x="1093.759581" xlink:href="#G" y="46.580084"/><use x="1093.759581" xlink:href="#G" y="45.963264"/><use x="1093.891736" xlink:href="#G" y="45.346444"/><use x="1093.891736" xlink:href="#G" y="44.729623"/><use x="1096.452266" xlink:href="#G" y="44.112803"/><use x="1096.452266" xlink:href="#G" y="43.495983"/><use x="1097.596723" xlink:href="#G" y="42.879163"/><use x="1097.596723" xlink:href="#G" y="42.262343"/><use x="1098.69412" xlink:href="#G" y="41.645523"/><use x="1098.69412" xlink:href="#G" y="41.028703"/><use x="1099.794378" xlink:href="#G" y="40.411883"/><use x="1099.794378" xlink:href="#G" y="39.795063"/><use x="1102.311471" xlink:href="#G" y="39.178243"/><use x="1102.311471" xlink:href="#G" y="38.561423"/><use x="1102.67816" xlink:href="#G" y="37.944603"/><use x="1102.67816" xlink:href="#G" y="37.327782"/><use x="1103.8719" xlink:href="#G" y="36.710962"/><use x="1103.8719" xlink:href="#G" y="36.094142"/><use x="1104.329563" xlink:href="#G" y="35.477322"/><use x="1104.329563" xlink:href="#G" y="34.860502"/><use x="1108.172741" xlink:href="#G" y="34.243682"/><use x="1108.172741" xlink:href="#G" y="33.626862"/><use x="1109.406583" xlink:href="#G" y="33.010042"/><use x="1109.406583" xlink:href="#G" y="32.393222"/><use x="1110.086959" xlink:href="#G" y="31.776402"/><use x="1110.086959" xlink:href="#G" y="31.159582"/><use x="1110.137768" xlink:href="#G" y="30.542762"/><use x="1110.137768" xlink:href="#G" y="29.925941"/><use x="1110.809819" xlink:href="#G" y="29.309121"/><use x="1110.809819" xlink:href="#G" y="28.692301"/></g><path d="m55.296 609.12v-589.68" fill="none" stroke="#000" stroke-width=".8"/><path d="m1140.5 609.12v-589.68" fill="none" stroke="#000" stroke-width=".8"/><path d="m55.296 609.12h1085.2" fill="none" stroke="#000" stroke-width=".8"/><path d="m55.296 19.44h1085.2" fill="none" stroke="#000" stroke-width=".8"/><g transform="matrix(.12 0 0 -.12 161.67 13.44)"><use xlink:href="#w"/><use x="70.996094" xlink:href="#r"/><use x="132.177734" xlink:href="#x"/><use x="196.09375" xlink:href="#y"/><use x="261.083984" xlink:href="#z"/><use x="320.166016" xlink:href="#n"/><use x="381.689453" xlink:href="#A"/><use x="436.669922" xlink:href="#B"/><use x="494.921875" xlink:href="#C"/><use x="553.857422" xlink:href="#r"/><use x="646.826172" xlink:href="#l"/><use x="715.429688" xlink:href="#w"/><use x="786.425781" xlink:href="#H"/><use x="864.550781" xlink:href="#I"/><use x="928.125" xlink:href="#l"/><use x="996.728516" xlink:href="#A"/><use x="1051.708984" xlink:href="#n"/><use x="1113.232422" xlink:href="#q"/><use x="1165.771484" xlink:href="#r"/><use x="1258.740234" xlink:href="#J"/><use x="1322.363281" xlink:href="#J"/><use x="1385.986328" xlink:href="#v"/><use x="1481.396484" xlink:href="#r"/><use x="1542.578125" xlink:href="#m"/><use x="1606.054688" xlink:href="#K"/><use x="1667.724609" xlink:href="#y"/><use x="1732.714844" xlink:href="#B"/><use x="1790.966797" xlink:href="#E"/><use x="1852.246094" xlink:href="#x"/><use x="1916.162109" xlink:href="#L"/><use x="1975.097656" xlink:href="#F"/><use x="2040.478516" xlink:href="#t"/><use x="2119.433594" xlink:href="#M"/><use x="2210.400391" xlink:href="#y"/><use x="2307.177734" xlink:href="#J"/><use x="2370.800781" xlink:href="#f"/><use x="2466.210938" xlink:href="#A"/><path d="m32.172-5.0781q-3.7969-9.7656-7.4219-12.734-3.6094-2.9844-9.6562-2.9844h-7.1875v7.5156h5.2812q3.7031 0 5.75 1.7656 2.0625 1.75 4.5469 8.2969l1.6094 4.0938-22.109 53.812h9.5156l17.094-42.766 17.094 42.766h9.5156z" transform="translate(2521.191406)"/><use x="2580.371094" xlink:href="#K"/><use x="2642.041016" xlink:href="#r"/><use x="2703.222656" xlink:href="#m"/><use x="2766.699219" xlink:href="#K"/><use x="2828.369141" xlink:href="#y"/><use x="2893.359375" xlink:href="#B"/><use x="2951.611328" xlink:href="#E"/><use x="3012.890625" xlink:href="#x"/><use x="3076.806641" xlink:href="#L"/><use x="3135.742188" xlink:href="#F"/><use x="3201.123047" xlink:href="#t"/><use x="3280.078125" xlink:href="#M"/><use x="3371.044922" xlink:href="#D"/><use x="3436.425781" xlink:href="#r"/><use x="3497.607422" xlink:href="#x"/><use x="3561.523438" xlink:href="#n"/><use x="3623.046875" xlink:href="#B"/><use x="3681.298828" xlink:href="#r"/><use x="3742.480469" xlink:href="#C"/><use x="3801.416016" xlink:href="#p"/><use x="3864.990234" xlink:href="#e"/><use x="3928.613281" xlink:href="#j"/><use x="3992.236328" xlink:href="#e"/><use x="4087.646484" xlink:href="#E"/><use x="4148.925781" xlink:href="#A"/><use x="4203.90625" xlink:href="#B"/><use x="4262.158203" xlink:href="#m"/><use x="4325.634766" xlink:href="#r"/><use x="4386.816406" xlink:href="#F"/><use x="4452.197266" xlink:href="#E"/><use x="4513.476562" xlink:href="#C"/><use x="4572.412109" xlink:href="#B"/><use x="4630.664062" xlink:href="#r"/><use x="4691.845703" xlink:href="#C"/><use x="4750.78125" xlink:href="#p"/><use x="4814.355469" xlink:href="#d"/><use x="4877.978516" xlink:href="#v"/><use x="4941.601562" xlink:href="#c"/><use x="5037.011719" xlink:href="#l"/><use x="5105.615234" xlink:href="#w"/><use x="5176.611328" xlink:href="#H"/><use x="5286.523438" xlink:href="#y"/><use x="5383.300781" xlink:href="#c"/><use x="5446.923828" xlink:href="#J"/><use x="5510.546875" xlink:href="#d"/><use x="5574.169922" xlink:href="#g"/><use x="5669.580078" xlink:href="#D"/><use x="5734.960938" xlink:href="#r"/><use x="5796.142578" xlink:href="#A"/><use x="5851.123047" xlink:href="#n"/><path d="m82.422 0h-73.344v54.688h9.0312v-47.516h23.109v47.516h9.0312v-47.516h23.141v47.516h9.0312v-47.516h7.1719v-20.984h-7.1719z" transform="translate(5912.646484)"/><use x="6006.835938" xlink:href="#n"/><use x="6068.359375" xlink:href="#F"/><use x="6133.740234" xlink:href="#y"/><path d="m55.906 54.688v-54.688h-8.9375v43.891l-26.359-43.891h-11.531v54.688h8.9375v-43.797l26.328 43.797zm-38.688 20.828h5.7656q.53125-3.6562 2.8906-5.5 2.375-1.8281 6.625-1.8281 4.2031 0 6.5469 1.8125t2.9688 5.5156h5.7656q-.48438-6.9844-4.3438-10.5t-10.938-3.5156-10.938 3.5156-4.3438 10.5z" transform="translate(6198.730469)"/><use x="6263.720703" xlink:href="#I"/><path d="m9.8125 72.906h9.8594v-29.891h35.844v29.891h9.8594v-72.906h-9.8594v34.719h-35.844v-34.719h-9.8594z" transform="translate(6327.294922)"/><use x="6402.490234" xlink:href="#r"/><use x="6463.671875" xlink:href="#o"/><use x="6523.828125" xlink:href="#K"/><use x="6585.498047" xlink:href="#m"/><use x="6648.974609" xlink:href="#L"/><use x="6739.697266" xlink:href="#j"/><use x="6803.320312" xlink:href="#f"/><use x="6866.943359" xlink:href="#j"/><use x="6930.566406" xlink:href="#j"/><use x="7025.976562" xlink:href="#q"/><use x="7078.515625" xlink:href="#r"/><use x="7139.697266" xlink:href="#s"/><use x="7208.837891" xlink:href="#E"/></g></g></svg>