<?xml version="1.0" encoding="UTF-8"?>
<!DOCTYPE svg  PUBLIC '-//W3C//DTD SVG 1.1//EN'  'http://www.w3.org/Graphics/SVG/1.1/DTD/svg11.dtd'>
<svg height="648pt" stroke-linejoin="round" viewBox="0 0 1152 648" width="1152pt" xmlns="http://www.w3.org/2000/svg" xmlns:xlink="http://www.w3.org/1999/xlink"><defs stroke-linejoin="round"><clipPath id="a" stroke-linejoin="round"><path d="m55.296 19.44h1085.2v589.68h-1085.2z"/></clipPath><path id="b" d="m0 0v3.5" stroke="#000" stroke-linejoin="round" stroke-width=".8"/><path id="c" d="m12.406 8.2969h16.109v55.625l-17.531-3.5156v8.9844l17.438 3.5156h9.8594v-64.609h16.109v-8.2969h-41.984z" stroke-linejoin="round"/><path id="d" d="m10.984 1.5156v8.9844q3.7188-1.7656 7.5156-2.6875 3.8125-.92188 7.4844-.92188 9.7656 0 14.906 6.5625 5.1562 6.5625 5.8906 19.953-2.8281-4.2031-7.1875-6.4531-4.3438-2.25-9.6094-2.25-10.938 0-17.312 6.6094-6.375 6.625-6.375 18.109 0 11.219 6.6406 18 6.6406 6.7969 17.672 6.7969 12.656 0 19.312-9.7031 6.6719-9.6875 6.6719-28.141 0-17.234-8.1875-27.516-8.1719-10.281-21.984-10.281-3.7188 0-7.5312.73438-3.7969.73438-7.9062 2.2031zm19.625 30.906q6.6406 0 10.516 4.5312 3.8906 4.5469 3.8906 12.469 0 7.8594-3.8906 12.422-3.875 4.5625-10.516 4.5625t-10.516-4.5625-3.875-12.422q0-7.9219 3.875-12.469 3.875-4.5312 10.516-4.5312z" stroke-linejoin="round"/><path id="e" d="m33.016 40.375q-6.6406 0-10.531-4.5469-3.875-4.5312-3.875-12.438 0-7.8594 3.875-12.438 3.8906-4.5625 10.531-4.5625t10.516 4.5625q3.875 4.5781 3.875 12.438 0 7.9062-3.875 12.438-3.875 4.5469-10.516 4.5469zm19.578 30.922v-8.9844q-3.7188 1.75-7.5 2.6719-3.7812.9375-7.5.9375-9.7656 0-14.922-6.5938-5.1406-6.5938-5.875-19.922 2.875 4.25 7.2188 6.5156 4.3594 2.2656 9.5781 2.2656 10.984 0 17.359-6.6719 6.375-6.6562 6.375-18.125 0-11.234-6.6406-18.031-6.6406-6.7812-17.672-6.7812-12.656 0-19.344 9.6875-6.6875 9.7031-6.6875 28.109 0 17.281 8.2031 27.562t22.016 10.281q3.7188 0 7.5-.73438t7.8906-2.1875z" stroke-linejoin="round"/><path id="f" d="m31.781 66.406q-7.6094 0-11.453-7.5-3.8281-7.4844-3.8281-22.531 0-14.984 3.8281-22.484 3.8438-7.5 11.453-7.5 7.6719 0 11.5 7.5 3.8438 7.5 3.8438 22.484 0 15.047-3.8438 22.531-3.8281 7.5-11.5 7.5zm0 7.8125q12.266 0 18.734-9.7031 6.4688-9.6875 6.4688-28.141 0-18.406-6.4688-28.109-6.4688-9.6875-18.734-9.6875-12.25 0-18.719 9.6875-6.4688 9.7031-6.4688 28.109 0 18.453 6.4688 28.141 6.4688 9.7031 18.719 9.7031z" stroke-linejoin="round"/><path id="g" d="m10.797 72.906h38.719v-8.3125h-29.688v-17.859q2.1406.73438 4.2812 1.0938 2.1562.35938 4.3125.35938 12.203 0 19.328-6.6875 7.1406-6.6875 7.1406-18.109 0-11.766-7.3281-18.297-7.3281-6.5156-20.656-6.5156-4.5938 0-9.3594.78125-4.75.78125-9.8281 2.3438v9.9219q4.3906-2.3906 9.0781-3.5625t9.9062-1.1719q8.4531 0 13.375 4.4375 4.9375 4.4375 4.9375 12.062 0 7.6094-4.9375 12.047-4.9219 4.4531-13.375 4.4531-3.9531 0-7.8906-.875-3.9219-.875-8.0156-2.7344z" stroke-linejoin="round"/><path id="h" d="m8.2031 72.906h46.875v-4.2031l-26.469-68.703h-10.297l24.906 64.594h-35.016z" stroke-linejoin="round"/><path id="i" d="m31.781 34.625q-7.0312 0-11.062-3.7656-4.0156-3.7656-4.0156-10.344 0-6.5938 4.0156-10.359 4.0312-3.7656 11.062-3.7656t11.078 3.7812q4.0625 3.7969 4.0625 10.344 0 6.5781-4.0312 10.344-4.0156 3.7656-11.109 3.7656zm-9.8594 4.1875q-6.3438 1.5625-9.8906 5.9062-3.5312 4.3594-3.5312 10.609 0 8.7344 6.2188 13.812 6.2344 5.0781 17.062 5.0781 10.891 0 17.094-5.0781t6.2031-13.812q0-6.25-3.5469-10.609-3.5312-4.3438-9.8281-5.9062 7.125-1.6562 11.094-6.5 3.9844-4.8281 3.9844-11.797 0-10.609-6.4688-16.281-6.4688-5.6562-18.531-5.6562-12.047 0-18.531 5.6562-6.4688 5.6719-6.4688 16.281 0 6.9688 4 11.797 4.0156 4.8438 11.141 6.5zm-3.6094 15.578q0-5.6562 3.5312-8.8281 3.5469-3.1719 9.9375-3.1719 6.3594 0 9.9375 3.1719 3.5938 3.1719 3.5938 8.8281 0 5.6719-3.5938 8.8438-3.5781 3.1719-9.9375 3.1719-6.3906 0-9.9375-3.1719-3.5312-3.1719-3.5312-8.8438z" stroke-linejoin="round"/><path id="j" d="m19.188 8.2969h34.422v-8.2969h-46.281v8.2969q5.6094 5.8125 15.297 15.594 9.7031 9.7969 12.188 12.641 4.7344 5.3125 6.6094 9 1.8906 3.6875 1.8906 7.25 0 5.8125-4.0781 9.4688-4.0781 3.6719-10.625 3.6719-4.6406 0-9.7969-1.6094-5.1406-1.6094-11-4.8906v9.9688q5.9531 2.3906 11.125 3.6094 5.1875 1.2188 9.4844 1.2188 11.328 0 18.062-5.6719 6.7344-5.6562 6.7344-15.125 0-4.5-1.6875-8.5312-1.6719-4.0156-6.125-9.4844-1.2188-1.4219-7.7656-8.1875-6.5312-6.7656-18.453-18.922z" stroke-linejoin="round"/><path id="k" d="m0 0v2" stroke="#000" stroke-linejoin="round" stroke-width=".6"/><path id="l" d="m19.672 34.812v-26.703h15.828q7.9531 0 11.781 3.2969 3.8438 3.2969 3.8438 10.078 0 6.8438-3.8438 10.078-3.8281 3.25-11.781 3.25zm0 29.984v-21.969h14.609q7.2188 0 10.75 2.7031 3.5469 2.7188 3.5469 8.2812 0 5.5156-3.5469 8.25-3.5312 2.7344-10.75 2.7344zm-9.8594 8.1094h25.203q11.281 0 17.375-4.6875 6.1094-4.6875 6.1094-13.328 0-6.7031-3.125-10.656t-9.1875-4.9219q7.2812-1.5625 11.312-6.5312 4.0312-4.9531 4.0312-12.375 0-9.7656-6.6406-15.094-6.6406-5.3125-18.906-5.3125h-26.172z" stroke-linejoin="round"/><path id="m" d="m18.109 8.2031v-29h-9.0312v75.484h9.0312v-8.2969q2.8438 4.875 7.1562 7.2344 4.3281 2.375 10.328 2.375 9.9688 0 16.188-7.9062 6.2344-7.9062 6.2344-20.797t-6.2344-20.812q-6.2188-7.9062-16.188-7.9062-6 0-10.328 2.375-4.3125 2.375-7.1562 7.25zm30.578 19.094q0 9.9062-4.0781 15.547t-11.203 5.6406q-7.1406 0-11.219-5.6406t-4.0781-15.547 4.0781-15.547 11.219-5.6406q7.125 0 11.203 5.6406t4.0781 15.547z" stroke-linejoin="round"/><path id="n" d="m56.203 29.594v-4.3906h-41.312q.59375-9.2812 5.5938-14.141t13.938-4.8594q5.1719 0 10.031 1.2656t9.6562 3.8125v-8.5q-4.8438-2.0469-9.9219-3.125t-10.297-1.0781q-13.094 0-20.734 7.6094-7.6406 7.625-7.6406 20.625 0 13.422 7.25 21.297 7.25 7.8906 19.562 7.8906 11.031 0 17.453-7.1094 6.4219-7.0938 6.4219-19.297zm-8.9844 2.6406q-.09375 7.3594-4.125 11.75-4.0312 4.4062-10.672 4.4062-7.5156 0-12.031-4.25t-5.2031-11.969z" stroke-linejoin="round"/><path id="o" d="m18.453 38.922q0-4.0625 3.125-6.3594 3.125-2.2812 8.9375-2.2812h12.109v17.234h-12.109q-5.8125 0-8.9375-2.25t-3.125-6.3438zm-12.781-38.922 16.688 23.969q-5.6562 1.2812-9.4219 4.625-3.75 3.3438-3.75 10.328 0 7.9062 5.2344 11.828 5.25 3.9375 15.859 3.9375h21.375v-54.688h-9.0312v23.094h-11.172l-16.125-23.094z" stroke-linejoin="round"/><path id="p" d="m11.719 12.406h10.297v-8.4062l-8-15.625h-6.2969l4 15.625z" stroke-linejoin="round"/><path id="q" d="m9.0781 0v54.688h38.578v-7.1719h-29.547v-47.516z" stroke-linejoin="round"/><path id="r" d="m30.609 48.391q-7.2188 0-11.422-5.6406t-4.2031-15.453 4.1719-15.453q4.1875-5.6406 11.453-5.6406 7.1875 0 11.375 5.6562 4.2031 5.6719 4.2031 15.438 0 9.7188-4.2031 15.406-4.1875 5.6875-11.375 5.6875zm0 7.6094q11.719 0 18.406-7.625 6.7031-7.6094 6.7031-21.078 0-13.422-6.7031-21.078-6.6875-7.6406-18.406-7.6406-11.766 0-18.438 7.6406-6.6562 7.6562-6.6562 21.078 0 13.469 6.6562 21.078 6.6719 7.625 18.438 7.625z" stroke-linejoin="round"/><path id="s" d="m21.625 7.1719h26.078v40.344h-18.891v-6.8438q0-20.109-5.7656-30.859zm-13.031 0q4.4375 1.9531 6.3906 6.1094 4.7969 10.297 4.7969 31.062v10.344h36.953v-47.516h7.1875v-20.984h-7.1875v13.812h-44.328v-13.812h-7.1875v20.984z" stroke-linejoin="round"/><path id="t" d="m61.047 54.688h8.9844v-54.688h-8.9844zm-17.594-38.4685q0 4.3906-3.2031 6.6875-3.1875 2.2969-9.3438 2.2969h-12.797v-18.031h12.797q6.1562 0 9.3438 2.3125 3.2031 2.3281 3.2031 6.7344zm-34.375 38.469h9.0312v-22.312h13.188q10.453 0 16.094-3.9844 5.6406-3.9688 5.6406-12.172t-5.6406-12.219q-5.6406-4-16.094-4h-22.219z" stroke-linejoin="round"/><path id="u" d="m0 0h-3.5" stroke="#000" stroke-linejoin="round" stroke-width=".8"/><path id="v" d="m40.578 39.312q7.0781-1.5156 11.047-6.3125 3.9844-4.7812 3.9844-11.812 0-10.781-7.4219-16.703-7.4219-5.9062-21.094-5.9062-4.5781 0-9.4375.90625t-10.031 2.7188v9.5156q4.0938-2.3906 8.9688-3.6094 4.8906-1.2188 10.219-1.2188 9.2656 0 14.125 3.6562t4.8594 10.641q0 6.4531-4.5156 10.078-4.5156 3.6406-12.562 3.6406h-8.5v8.1094h8.8906q7.2656 0 11.125 2.9062t3.8594 8.375q0 5.6094-3.9844 8.6094-3.9688 3.0156-11.391 3.0156-4.0625 0-8.7031-.89062-4.6406-.875-10.203-2.7188v8.7812q5.625 1.5625 10.531 2.3438t9.25.78125q11.234 0 17.766-5.1094 6.5469-5.0938 6.5469-13.781 0-6.0625-3.4688-10.234t-9.8594-5.7812z" stroke-linejoin="round"/><path id="w" d="m37.797 64.312-24.906-38.922h24.906zm-2.5938 8.5938h12.406v-47.516h10.406v-8.2031h-10.406v-17.188h-9.8125v17.188h-32.906v9.5156z" stroke-linejoin="round"/><path id="x" d="m9.8125 72.906h9.8594v-36.047l35.266 36.047h12.641l-28.172-28.812 29.641-44.094h-10.75l-25.281 37.547-13.344-13.625v-23.922h-9.8594z" stroke-linejoin="round"/><path id="y" d="m3.7188 0v7.4688q8.875 1.375 11.609 7.5156 3.3281 8.6562 3.3281 30.766v8.9375h36.953v-54.688h-8.9844v47.516h-18.984v-5.4219q0-21.094-4.2969-30.562-4.5938-10.109-19.625-11.531z" stroke-linejoin="round"/><path id="z" d="m55.906 54.688v-54.688h-8.9375v43.891l-26.359-43.891h-11.531v54.688h8.9375v-43.797l26.328 43.797z" stroke-linejoin="round"/><path id="A" d="m48.781 52.594v-8.4062q-3.8125 2.1094-7.6406 3.1562t-7.7344 1.0469q-8.75 0-13.594-5.5469-4.8281-5.5312-4.8281-15.547t4.8281-15.562q4.8438-5.5312 13.594-5.5312 3.9062 0 7.7344 1.0469t7.6406 3.1562v-8.3125q-3.7656-1.75-7.7969-2.625-4.0156-.89062-8.5625-.89062-12.359 0-19.641 7.7656-7.2656 7.7656-7.2656 20.953 0 13.375 7.3438 21.031 7.3594 7.6719 20.156 7.6719 4.1406 0 8.0938-.85938 3.9531-.84375 7.6719-2.5469z" stroke-linejoin="round"/><path id="B" d="m2.9375 54.688h52.391v-7.1719h-21.781v-47.516h-8.8438v47.516h-21.766z" stroke-linejoin="round"/><path id="C" d="m18.062 25.203v-18.031h12.797q6.1562 0 9.375 2.3125 3.2188 2.3281 3.2188 6.7344 0 4.3906-3.2188 6.6875t-9.375 2.2969zm0 22.312v-15.141h11.828q5.0781 0 8.2969 2.0156 3.2188 2.0312 3.2188 5.6562 0 3.6094-3.2188 5.5312-3.2188 1.9375-8.2969 1.9375zm-8.9844 7.1719h21.391q9.625 0 14.797-3.5156t5.1719-10.016q0-5.0156-2.6406-7.9844-2.625-2.9531-7.8125-3.6719 6.2031-1.1719 9.625-4.8906 3.4219-3.7031 3.4219-9.2812 0-7.3125-5.6406-11.328-5.6406-4-16.094-4h-22.219z" stroke-linejoin="round"/><path id="D" d="m56.297 54.688v-54.688h-9.0312v47.516h-29.156v-47.516h-9.0312v54.688z" stroke-linejoin="round"/><path id="E" d="m34.281 27.484q-10.891 0-15.094-2.4844t-4.2031-8.5q0-4.7812 3.1562-7.5938 3.1562-2.7969 8.5625-2.7969 7.4844 0 12 5.2969t4.5156 14.078v2zm17.922 3.7188v-31.203h-8.9844v8.2969q-3.0781-4.9688-7.6719-7.3438t-11.234-2.375q-8.3906 0-13.359 4.7188-4.9531 4.7188-4.9531 12.625 0 9.2188 6.1719 13.906 6.1875 4.6875 18.438 4.6875h12.609v.89062q0 6.2031-4.0781 9.5938t-11.453 3.3906q-4.6875 0-9.1406-1.125-4.4375-1.125-8.5312-3.375v8.3125q4.9219 1.9062 9.5625 2.8438 4.6406.95312 9.0312.95312 11.875 0 17.734-6.1562 5.8594-6.1406 5.8594-18.641z" stroke-linejoin="round"/><path id="F" d="m9.0781 54.688h9.0312v-22.312h29.156v22.312h9.0312v-54.688h-9.0312v25.203h-29.156v-25.203h-9.0312z" stroke-linejoin="round"/><path id="G" d="m0 1.5c.3978 0 .77937-.15805 1.0607-.43934.28129-.28129.43934-.66286.43934-1.0607s-.15805-.77937-.43934-1.0607c-.28129-.28129-.66286-.43934-1.0607-.43934s-.77937.15805-1.0607.43934c-.28129.28129-.43934.66286-.43934 1.0607s.15805.77937.43934 1.0607c.28129.28129.66286.43934 1.0607.43934z" stroke="#000" stroke-linejoin="round"/><path id="H" d="m10.688 12.406h10.312v-12.406h-10.312z" stroke-linejoin="round"/><path id="I" d="m31.109 56q11.719 0 18.406-7.625 6.6875-7.6094 6.6875-21.078 0-13.422-6.6875-21.078-6.6875-7.6406-18.406-7.6406-11.766 0-18.266 7.4219t-6.8438 21.297l-.28125 11.188q-.25 5.7969-.25 7.8125 0 7.8125 2.8281 13.562 4.4531 9.0312 12.141 12.938t20.578 4.0156q5.9531.046875 8.5938.875l2.4844-7.125q-2.3906-.98438-4.5781-1.0312l-12.219-.82812q-6.1406-.4375-9.8594-2.5938-9.7188-5.7031-10.641-13.172l-.34375-2.7344q6.3438 5.7969 16.656 5.7969zm0-7.6094q-7.2344 0-11.438-5.6406-4.1875-5.6406-4.1875-15.453t4.1719-15.453 11.453-5.6406q7.1719 0 11.375 5.6562 4.2031 5.6719 4.2031 15.438 0 9.7188-4.2031 15.406t-11.375 5.6875z" stroke-linejoin="round"/><path id="J" d="m43.453 16.219q0 4.3906-3.2031 6.6875-3.1875 2.2969-9.3438 2.2969h-12.797v-18.031h12.797q6.1562 0 9.3438 2.3125 3.2031 2.3281 3.2031 6.7344zm-34.375 38.469h9.0312v-22.312h13.188q10.453 0 16.094-3.9844 5.6406-3.9688 5.6406-12.172t-5.6406-12.219q-5.6406-4-16.094-4h-22.219z" stroke-linejoin="round"/><path id="K" d="m54.891 54.688-19.781-26.609 20.797-28.078h-10.594l-15.922 21.484-15.906-21.484h-10.609l21.25 28.609-19.438 26.078h10.594l14.5-19.484 14.5 19.484z" stroke-linejoin="round"/></defs><g stroke-linejoin="round"><path d="m0 648h1152v-648h-1152z" fill="#fff"/><path d="m55.296 609.12h1085.2v-589.68h-1085.2z" fill="#fff"/><path clip-path="url(#a)" d="m62.743 609.12v-589.68" fill="none" stroke="#b0b0b0" stroke-dasharray=".8 1.32" stroke-width=".8"/><use stroke="#000" stroke-width=".8" x="62.742675" xlink:href="#b" y="609.12"/><g transform="matrix(.1 0 0 -.1 50.018 623.72)"><use xlink:href="#c"/><use x="63.623047" xlink:href="#d"/><use x="127.246094" xlink:href="#e"/><use x="190.869141" xlink:href="#f"/></g><path clip-path="url(#a)" d="m146.34 609.12v-589.68" fill="none" stroke="#b0b0b0" stroke-dasharray=".8 1.32" stroke-width=".8"/><use stroke="#000" stroke-width=".8" x="146.340109" xlink:href="#b" y="609.12"/><g transform="matrix(.1 0 0 -.1 133.62 623.72)"><use xlink:href="#c"/><use x="63.623047" xlink:href="#d"/><use x="127.246094" xlink:href="#e"/><use x="190.869141" xlink:href="#g"/></g><path clip-path="url(#a)" d="m229.89 609.12v-589.68" fill="none" stroke="#b0b0b0" stroke-dasharray=".8 1.32" stroke-width=".8"/><use stroke="#000" stroke-width=".8" x="229.891787" xlink:href="#b" y="609.12"/><g transform="matrix(.1 0 0 -.1 217.17 623.72)"><use xlink:href="#c"/><use x="63.623047" xlink:href="#d"/><use x="127.246094" xlink:href="#h"/><use x="190.869141" xlink:href="#f"/></g><path clip-path="url(#a)" d="m313.44 609.12v-589.68" fill="none" stroke="#b0b0b0" stroke-dasharray=".8 1.32" stroke-width=".8"/><use stroke="#000" stroke-width=".8" x="313.443464" xlink:href="#b" y="609.12"/><g transform="matrix(.1 0 0 -.1 300.72 623.72)"><use xlink:href="#c"/><use x="63.623047" xlink:href="#d"/><use x="127.246094" xlink:href="#h"/><use x="190.869141" xlink:href="#g"/></g><path clip-path="url(#a)" d="m397 609.12v-589.68" fill="none" stroke="#b0b0b0" stroke-dasharray=".8 1.32" stroke-width=".8"/><use stroke="#000" stroke-width=".8" x="396.995141" xlink:href="#b" y="609.12"/><g transform="matrix(.1 0 0 -.1 384.27 623.72)"><use xlink:href="#c"/><use x="63.623047" xlink:href="#d"/><use x="127.246094" xlink:href="#i"/><use x="190.869141" xlink:href="#f"/></g><path clip-path="url(#a)" d="m480.59 609.12v-589.68" fill="none" stroke="#b0b0b0" stroke-dasharray=".8 1.32" stroke-width=".8"/><use stroke="#000" stroke-width=".8" x="480.592575" xlink:href="#b" y="609.12"/><g transform="matrix(.1 0 0 -.1 467.87 623.72)"><use xlink:href="#c"/><use x="63.623047" xlink:href="#d"/><use x="127.246094" xlink:href="#i"/><use x="190.869141" xlink:href="#g"/></g><path clip-path="url(#a)" d="m564.14 609.12v-589.68" fill="none" stroke="#b0b0b0" stroke-dasharray=".8 1.32" stroke-width=".8"/><use stroke="#000" stroke-width=".8" x="564.144252" xlink:href="#b" y="609.12"/><g transform="matrix(.1 0 0 -.1 551.42 623.72)"><use xlink:href="#c"/><use x="63.623047" xlink:href="#d"/><use x="127.246094" xlink:href="#d"/><use x="190.869141" xlink:href="#f"/></g><path clip-path="url(#a)" d="m647.7 609.12v-589.68" fill="none" stroke="#b0b0b0" stroke-dasharray=".8 1.32" stroke-width=".8"/><use stroke="#000" stroke-width=".8" x="647.695929" xlink:href="#b" y="609.12"/><g transform="matrix(.1 0 0 -.1 634.97 623.72)"><use xlink:href="#c"/><use x="63.623047" xlink:href="#d"/><use x="127.246094" xlink:href="#d"/><use x="190.869141" xlink:href="#g"/></g><path clip-path="url(#a)" d="m731.25 609.12v-589.68" fill="none" stroke="#b0b0b0" stroke-dasharray=".8 1.32" stroke-width=".8"/><use stroke="#000" stroke-width=".8" x="731.247607" xlink:href="#b" y="609.12"/><g transform="matrix(.1 0 0 -.1 718.52 623.72)"><use xlink:href="#j"/><use x="63.623047" xlink:href="#f"/><use x="127.246094" xlink:href="#f"/><use x="190.869141" xlink:href="#f"/></g><path clip-path="url(#a)" d="m814.85 609.12v-589.68" fill="none" stroke="#b0b0b0" stroke-dasharray=".8 1.32" stroke-width=".8"/><use stroke="#000" stroke-width=".8" x="814.84504" xlink:href="#b" y="609.12"/><g transform="matrix(.1 0 0 -.1 802.12 623.72)"><use xlink:href="#j"/><use x="63.623047" xlink:href="#f"/><use x="127.246094" xlink:href="#f"/><use x="190.869141" xlink:href="#g"/></g><path clip-path="url(#a)" d="m898.4 609.12v-589.68" fill="none" stroke="#b0b0b0" stroke-dasharray=".8 1.32" stroke-width=".8"/><use stroke="#000" stroke-width=".8" x="898.396718" xlink:href="#b" y="609.12"/><g transform="matrix(.1 0 0 -.1 885.67 623.72)"><use xlink:href="#j"/><use x="63.623047" xlink:href="#f"/><use x="127.246094" xlink:href="#c"/><use x="190.869141" xlink:href="#f"/></g><path clip-path="url(#a)" d="m981.95 609.12v-589.68" fill="none" stroke="#b0b0b0" stroke-dasharray=".8 1.32" stroke-width=".8"/><use stroke="#000" stroke-width=".8" x="981.948395" xlink:href="#b" y="609.12"/><g transform="matrix(.1 0 0 -.1 969.22 623.72)"><use xlink:href="#j"/><use x="63.623047" xlink:href="#f"/><use x="127.246094" xlink:href="#c"/><use x="190.869141" xlink:href="#g"/></g><path clip-path="url(#a)" d="m1065.5 609.12v-589.68" fill="none" stroke="#b0b0b0" stroke-dasharray=".8 1.32" stroke-width=".8"/><use stroke="#000" stroke-width=".8" x="1065.500072" xlink:href="#b" y="609.12"/><g transform="matrix(.1 0 0 -.1 1052.8 623.72)"><use xlink:href="#j"/><use x="63.623047" xlink:href="#f"/><use x="127.246094" xlink:href="#j"/><use x="190.869141" xlink:href="#f"/></g><g stroke="#000"><use stroke-width=".6" x="79.489616" xlink:href="#k" y="609.12"/><use stroke-width=".6" x="96.1908" xlink:href="#k" y="609.12"/><use stroke-width=".6" x="112.891984" xlink:href="#k" y="609.12"/><use stroke-width=".6" x="129.593169" xlink:href="#k" y="609.12"/><use stroke-width=".6" x="163.041293" xlink:href="#k" y="609.12"/><use stroke-width=".6" x="179.742478" xlink:href="#k" y="609.12"/><use stroke-width=".6" x="196.443662" xlink:href="#k" y="609.12"/><use stroke-width=".6" x="213.190602" xlink:href="#k" y="609.12"/><use stroke-width=".6" x="246.592971" xlink:href="#k" y="609.12"/><use stroke-width=".6" x="263.294155" xlink:href="#k" y="609.12"/><use stroke-width=".6" x="280.041096" xlink:href="#k" y="609.12"/><use stroke-width=".6" x="296.74228" xlink:href="#k" y="609.12"/><use stroke-width=".6" x="330.144648" xlink:href="#k" y="609.12"/><use stroke-width=".6" x="346.891589" xlink:href="#k" y="609.12"/><use stroke-width=".6" x="363.592773" xlink:href="#k" y="609.12"/><use stroke-width=".6" x="380.293957" xlink:href="#k" y="609.12"/><use stroke-width=".6" x="413.742082" xlink:href="#k" y="609.12"/><use stroke-width=".6" x="430.443266" xlink:href="#k" y="609.12"/><use stroke-width=".6" x="447.14445" xlink:href="#k" y="609.12"/><use stroke-width=".6" x="463.845634" xlink:href="#k" y="609.12"/><use stroke-width=".6" x="497.293759" xlink:href="#k" y="609.12"/><use stroke-width=".6" x="513.994943" xlink:href="#k" y="609.12"/><use stroke-width=".6" x="530.696127" xlink:href="#k" y="609.12"/><use stroke-width=".6" x="547.443068" xlink:href="#k" y="609.12"/><use stroke-width=".6" x="580.845436" xlink:href="#k" y="609.12"/><use stroke-width=".6" x="597.54662" xlink:href="#k" y="609.12"/><use stroke-width=".6" x="614.293561" xlink:href="#k" y="609.12"/><use stroke-width=".6" x="630.994745" xlink:href="#k" y="609.12"/><use stroke-width=".6" x="664.397113" xlink:href="#k" y="609.12"/><use stroke-width=".6" x="681.144054" xlink:href="#k" y="609.12"/><use stroke-width=".6" x="697.845238" xlink:href="#k" y="609.12"/><use stroke-width=".6" x="714.546422" xlink:href="#k" y="609.12"/><use stroke-width=".6" x="747.994547" xlink:href="#k" y="609.12"/><use stroke-width=".6" x="764.695731" xlink:href="#k" y="609.12"/><use stroke-width=".6" x="781.396916" xlink:href="#k" y="609.12"/><use stroke-width=".6" x="798.0981" xlink:href="#k" y="609.12"/><use stroke-width=".6" x="831.546225" xlink:href="#k" y="609.12"/><use stroke-width=".6" x="848.247409" xlink:href="#k" y="609.12"/><use stroke-width=".6" x="864.948593" xlink:href="#k" y="609.12"/><use stroke-width=".6" x="881.695534" xlink:href="#k" y="609.12"/><use stroke-width=".6" x="915.097902" xlink:href="#k" y="609.12"/><use stroke-width=".6" x="931.799086" xlink:href="#k" y="609.12"/><use stroke-width=".6" x="948.546027" xlink:href="#k" y="609.12"/><use stroke-width=".6" x="965.247211" xlink:href="#k" y="609.12"/><use stroke-width=".6" x="998.649579" xlink:href="#k" y="609.12"/><use stroke-width=".6" x="1015.39652" xlink:href="#k" y="609.12"/><use stroke-width=".6" x="1032.097704" xlink:href="#k" y="609.12"/><use stroke-width=".6" x="1048.798888" xlink:href="#k" y="609.12"/><use stroke-width=".6" x="1082.247013" xlink:href="#k" y="609.12"/><use stroke-width=".6" x="1098.948197" xlink:href="#k" y="609.12"/><use stroke-width=".6" x="1115.649381" xlink:href="#k" y="609.12"/><use stroke-width=".6" x="1132.350565" xlink:href="#k" y="609.12"/></g><g transform="matrix(.14 0 0 -.14 552.07 640.44)"><use xlink:href="#l"/><use x="68.603516" xlink:href="#m"/><use x="132.080078" xlink:href="#n"/><path d="m9.0781 54.688h13.141l15.531-36.625 15.578 36.625h13.031v-54.688h-9.0312v46.094l-15.094-35.594h-8.9844l-15.141 35.594v-46.094h-9.0312z" transform="translate(193.603516)"/><use x="269.042969" xlink:href="#o"/><use x="329.199219" xlink:href="#p"/><use x="392.773438" xlink:href="#q"/><use x="445.3125" xlink:href="#r"/><use x="506.494141" xlink:href="#s"/><use x="575.634766" xlink:href="#t"/></g><path clip-path="url(#a)" d="m55.296 609.12h1085.2" fill="none" stroke="#b0b0b0" stroke-dasharray=".8 1.32" stroke-width=".8"/><use stroke="#000" stroke-width=".8" x="55.296" xlink:href="#u" y="609.12"/><use transform="matrix(.1 0 0 -.1 41.934 612.92)" xlink:href="#f"/><path clip-path="url(#a)" d="m55.296 517.13h1085.2" fill="none" stroke="#b0b0b0" stroke-dasharray=".8 1.32" stroke-width=".8"/><use stroke="#000" stroke-width=".8" x="55.296" xlink:href="#u" y="517.12624"/><g transform="matrix(.1 0 0 -.1 29.208 520.93)"><use xlink:href="#c"/><use x="63.623047" xlink:href="#f"/><use x="127.246094" xlink:href="#f"/></g><path clip-path="url(#a)" d="m55.296 425.13h1085.2" fill="none" stroke="#b0b0b0" stroke-dasharray=".8 1.32" stroke-width=".8"/><use stroke="#000" stroke-width=".8" x="55.296" xlink:href="#u" y="425.13248"/><g transform="matrix(.1 0 0 -.1 29.208 428.93)"><use xlink:href="#j"/><use x="63.623047" xlink:href="#f"/><use x="127.246094" xlink:href="#f"/></g><path clip-path="url(#a)" d="m55.296 333.14h1085.2" fill="none" stroke="#b0b0b0" stroke-dasharray=".8 1.32" stroke-width=".8"/><use stroke="#000" stroke-width=".8" x="55.296" xlink:href="#u" y="333.138721"/><g transform="matrix(.1 0 0 -.1 29.208 336.94)"><use xlink:href="#v"/><use x="63.623047" xlink:href="#f"/><use x="127.246094" xlink:href="#f"/></g><path clip-path="url(#a)" d="m55.296 241.14h1085.2" fill="none" stroke="#b0b0b0" stroke-dasharray=".8 1.32" stroke-width=".8"/><use stroke="#000" stroke-width=".8" x="55.296" xlink:href="#u" y="241.144961"/><g transform="matrix(.1 0 0 -.1 29.208 244.94)"><use xlink:href="#w"/><use x="63.623047" xlink:href="#f"/><use x="127.246094" xlink:href="#f"/></g><path clip-path="url(#a)" d="m55.296 149.15h1085.2" fill="none" stroke="#b0b0b0" stroke-dasharray=".8 1.32" stroke-width=".8"/><use stroke="#000" stroke-width=".8" x="55.296" xlink:href="#u" y="149.151201"/><g transform="matrix(.1 0 0 -.1 29.208 152.95)"><use xlink:href="#g"/><use x="63.623047" xlink:href="#f"/><use x="127.246094" xlink:href="#f"/></g><path clip-path="url(#a)" d="m55.296 57.157h1085.2" fill="none" stroke="#b0b0b0" stroke-dasharray=".8 1.32" stroke-width=".8"/><use stroke="#000" stroke-width=".8" x="55.296" xlink:href="#u" y="57.157441"/><g transform="matrix(.1 0 0 -.1 29.208 60.957)"><use xlink:href="#e"/><use x="63.623047" xlink:href="#f"/><use x="127.246094" xlink:href="#f"/></g><g transform="matrix(0 -.14 -.14 0 22.297 438.33)"><use xlink:href="#x"/><use x="70.996094" xlink:href="#r"/><use x="132.177734" xlink:href="#y"/><use x="196.09375" xlink:href="#z"/><path d="m41.016 0v23h-16.75q-7.4688 0-12.453 4.6406-4.4844 4.2031-4.4844 13.188v13.859h8.9844v-13.031q0-5.7188 2.5312-8.5938 2.5938-2.8906 7.6719-2.8906h14.5v24.516h8.9844v-54.688z" transform="translate(261.083984)"/><use x="320.166016" xlink:href="#n"/><use x="381.689453" xlink:href="#A"/><use x="436.669922" xlink:href="#B"/><use x="494.921875" xlink:href="#C"/><use x="553.857422" xlink:href="#r"/><use x="646.826172" xlink:href="#D"/><use x="712.207031" xlink:href="#r"/><use x="773.388672" xlink:href="#y"/><use x="837.304688" xlink:href="#n"/><use x="898.828125" xlink:href="#B"/><use x="957.080078" xlink:href="#r"/><use x="1018.261719" xlink:href="#C"/><use x="1108.984375" xlink:href="#E"/><use x="1170.263672" xlink:href="#A"/><use x="1225.244141" xlink:href="#B"/><use x="1283.496094" xlink:href="#m"/><use x="1346.972656" xlink:href="#r"/><use x="1408.154297" xlink:href="#F"/><use x="1473.535156" xlink:href="#E"/><use x="1534.814453" xlink:href="#C"/><use x="1593.75" xlink:href="#B"/><use x="1652.001953" xlink:href="#r"/><use x="1713.183594" xlink:href="#C"/></g><path clip-path="url(#a)" d="m180.93 609.12v-589.68" fill="none" stroke="#f00" stroke-dasharray="5.55 2.4" stroke-width="1.5"/><path clip-path="url(#a)" d="m184.87 609.12v-589.68" fill="none" stroke="#f00" stroke-dasharray="5.55 2.4" stroke-width="1.5"/><path clip-path="url(#a)" d="m254.78 609.12v-589.68" fill="none" stroke="#f00" stroke-dasharray="5.55 2.4" stroke-width="1.5"/><path clip-path="url(#a)" d="m498.53 609.12v-589.68" fill="none" stroke="#f00" stroke-dasharray="5.55 2.4" stroke-width="1.5"/><path clip-path="url(#a)" d="m782.82 609.12v-589.68" fill="none" stroke="#f00" stroke-dasharray="5.55 2.4" stroke-width="1.5"/><path clip-path="url(#a)" d="m753.35 609.12v-589.68" fill="none" stroke="#008000" stroke-dasharray="5.55 2.4" stroke-width="1.5"/><path clip-path="url(#a)" d="m1072.4 609.12v-589.68" fill="none" stroke="#008000" stroke-dasharray="5.55 2.4" stroke-width="1.5"/><path clip-path="url(#a)" d="m1091 609.12v-589.68" fill="none" stroke="#008000" stroke-dasharray="5.55 2.4" stroke-width="1.5"/><path clip-path="url(#a)" d="m1091.4 609.12v-589.68" fill="none" stroke="#008000" stroke-dasharray="5.55 2.4" stroke-width="1.5"/><path clip-path="url(#a)" d="m1094.1 609.12v-589.68" fill="none" stroke="#008000" stroke-dasharray="5.55 2.4" stroke-width="1.5"/><g clip-path="url(#a)" stroke="#000"><use x="84.11104" xlink:href="#G" y="608.200062"/><use x="85.163443" xlink:href="#G" y="607.280125"/><use x="88.686707" xlink:href="#G" y="606.360187"/><use x="89.418813" xlink:href="#G" y="605.44025"/><use x="98.478634" xlink:href="#G" y="604.520312"/><use x="102.734004" xlink:href="#G" y="603.600374"/><use x="106.348781" xlink:href="#G" y="602.680437"/><use x="106.394537" xlink:href="#G" y="601.760499"/><use x="108.773884" xlink:href="#G" y="600.840562"/><use x="119.023378" xlink:href="#G" y="599.920624"/><use x="120.396078" xlink:href="#G" y="599.000686"/><use x="120.487591" xlink:href="#G" y="598.080749"/><use x="121.997562" xlink:href="#G" y="597.160811"/><use x="142.633819" xlink:href="#G" y="596.240874"/><use x="142.633819" xlink:href="#G" y="595.320936"/><use x="142.633819" xlink:href="#G" y="594.400998"/><use x="149.817616" xlink:href="#G" y="593.481061"/><use x="149.817616" xlink:href="#G" y="592.561123"/><use x="150.046399" xlink:href="#G" y="591.641186"/><use x="153.34088" xlink:href="#G" y="590.721248"/><use x="153.34088" xlink:href="#G" y="589.80131"/><use x="156.955656" xlink:href="#G" y="588.881373"/><use x="161.760107" xlink:href="#G" y="587.961435"/><use x="161.760107" xlink:href="#G" y="587.041498"/><use x="162.26343" xlink:href="#G" y="586.12156"/><use x="166.427287" xlink:href="#G" y="585.201622"/><use x="166.427287" xlink:href="#G" y="584.281685"/><use x="170.042064" xlink:href="#G" y="583.361747"/><use x="172.101114" xlink:href="#G" y="582.44181"/><use x="174.663487" xlink:href="#G" y="581.521872"/><use x="177.408887" xlink:href="#G" y="580.601934"/><use x="209.438556" xlink:href="#G" y="579.681997"/><use x="209.438556" xlink:href="#G" y="578.762059"/><use x="210.124906" xlink:href="#G" y="577.842122"/><use x="212.687279" xlink:href="#G" y="576.922184"/><use x="213.785439" xlink:href="#G" y="576.002246"/><use x="213.831196" xlink:href="#G" y="575.082309"/><use x="213.831196" xlink:href="#G" y="574.162371"/><use x="213.831196" xlink:href="#G" y="573.242434"/><use x="215.981759" xlink:href="#G" y="572.322496"/><use x="226.13974" xlink:href="#G" y="571.402559"/><use x="226.13974" xlink:href="#G" y="570.482621"/><use x="226.185496" xlink:href="#G" y="569.562683"/><use x="226.185496" xlink:href="#G" y="568.642746"/><use x="226.185496" xlink:href="#G" y="567.722808"/><use x="227.695466" xlink:href="#G" y="566.802871"/><use x="234.467453" xlink:href="#G" y="565.882933"/><use x="234.467453" xlink:href="#G" y="564.962995"/><use x="236.801044" xlink:href="#G" y="564.043058"/><use x="247.965671" xlink:href="#G" y="563.12312"/><use x="247.965671" xlink:href="#G" y="562.203183"/><use x="251.671961" xlink:href="#G" y="561.283245"/><use x="253.731011" xlink:href="#G" y="560.363307"/><use x="253.731011" xlink:href="#G" y="559.44337"/><use x="256.018844" xlink:href="#G" y="558.523432"/><use x="256.018844" xlink:href="#G" y="557.603495"/><use x="268.144362" xlink:href="#G" y="556.683557"/><use x="268.144362" xlink:href="#G" y="555.763619"/><use x="278.897179" xlink:href="#G" y="554.843682"/><use x="278.897179" xlink:href="#G" y="553.923744"/><use x="286.630056" xlink:href="#G" y="553.003807"/><use x="286.630056" xlink:href="#G" y="552.083869"/><use x="289.558483" xlink:href="#G" y="551.163931"/><use x="289.558483" xlink:href="#G" y="550.243994"/><use x="292.349639" xlink:href="#G" y="549.324056"/><use x="292.349639" xlink:href="#G" y="548.404119"/><use x="294.637473" xlink:href="#G" y="547.484181"/><use x="294.637473" xlink:href="#G" y="546.564243"/><use x="294.637473" xlink:href="#G" y="545.644306"/><use x="296.101686" xlink:href="#G" y="544.724368"/><use x="296.101686" xlink:href="#G" y="543.804431"/><use x="305.11575" xlink:href="#G" y="542.884493"/><use x="307.58661" xlink:href="#G" y="541.964555"/><use x="307.58661" xlink:href="#G" y="541.044618"/><use x="313.855274" xlink:href="#G" y="540.12468"/><use x="313.855274" xlink:href="#G" y="539.204743"/><use x="322.366014" xlink:href="#G" y="538.284805"/><use x="322.366014" xlink:href="#G" y="537.364867"/><use x="338.701145" xlink:href="#G" y="536.44493"/><use x="341.949868" xlink:href="#G" y="535.524992"/><use x="343.276812" xlink:href="#G" y="534.605055"/><use x="343.276812" xlink:href="#G" y="533.685117"/><use x="348.584585" xlink:href="#G" y="532.765179"/><use x="359.749213" xlink:href="#G" y="531.845242"/><use x="359.749213" xlink:href="#G" y="530.925304"/><use x="362.586126" xlink:href="#G" y="530.005367"/><use x="364.004583" xlink:href="#G" y="529.085429"/><use x="366.338173" xlink:href="#G" y="528.165491"/><use x="371.142623" xlink:href="#G" y="527.245554"/><use x="371.691703" xlink:href="#G" y="526.325616"/><use x="374.437103" xlink:href="#G" y="525.405679"/><use x="382.810574" xlink:href="#G" y="524.485741"/><use x="384.823867" xlink:href="#G" y="523.565803"/><use x="401.525051" xlink:href="#G" y="522.645866"/><use x="403.675615" xlink:href="#G" y="521.725928"/><use x="404.133181" xlink:href="#G" y="520.805991"/><use x="406.329501" xlink:href="#G" y="519.886053"/><use x="408.937632" xlink:href="#G" y="518.966115"/><use x="412.140598" xlink:href="#G" y="518.046178"/><use x="412.140598" xlink:href="#G" y="517.12624"/><use x="416.945049" xlink:href="#G" y="516.206303"/><use x="417.402615" xlink:href="#G" y="515.286365"/><use x="418.363505" xlink:href="#G" y="514.366427"/><use x="419.827719" xlink:href="#G" y="513.44649"/><use x="428.155432" xlink:href="#G" y="512.526552"/><use x="428.155432" xlink:href="#G" y="511.606615"/><use x="434.103799" xlink:href="#G" y="510.686677"/><use x="436.483146" xlink:href="#G" y="509.766739"/><use x="438.404926" xlink:href="#G" y="508.846802"/><use x="438.542196" xlink:href="#G" y="507.926864"/><use x="440.9673" xlink:href="#G" y="507.006927"/><use x="440.9673" xlink:href="#G" y="506.086989"/><use x="444.81086" xlink:href="#G" y="505.167051"/><use x="444.81086" xlink:href="#G" y="504.247114"/><use x="444.81086" xlink:href="#G" y="503.327176"/><use x="451.39982" xlink:href="#G" y="502.407239"/><use x="451.39982" xlink:href="#G" y="501.487301"/><use x="451.39982" xlink:href="#G" y="500.567363"/><use x="452.131927" xlink:href="#G" y="499.647426"/><use x="454.83157" xlink:href="#G" y="498.727488"/><use x="454.83157" xlink:href="#G" y="497.807551"/><use x="454.83157" xlink:href="#G" y="496.887613"/><use x="454.83157" xlink:href="#G" y="495.967676"/><use x="455.24338" xlink:href="#G" y="495.047738"/><use x="458.171807" xlink:href="#G" y="494.1278"/><use x="458.171807" xlink:href="#G" y="493.207863"/><use x="458.171807" xlink:href="#G" y="492.287925"/><use x="458.171807" xlink:href="#G" y="491.367988"/><use x="462.289907" xlink:href="#G" y="490.44805"/><use x="462.289907" xlink:href="#G" y="489.528112"/><use x="462.289907" xlink:href="#G" y="488.608175"/><use x="462.289907" xlink:href="#G" y="487.688237"/><use x="465.355604" xlink:href="#G" y="486.7683"/><use x="465.355604" xlink:href="#G" y="485.848362"/><use x="465.355604" xlink:href="#G" y="484.928424"/><use x="465.355604" xlink:href="#G" y="484.008487"/><use x="465.584387" xlink:href="#G" y="483.088549"/><use x="465.584387" xlink:href="#G" y="482.168612"/><use x="468.101004" xlink:href="#G" y="481.248674"/><use x="468.238274" xlink:href="#G" y="480.328736"/><use x="468.238274" xlink:href="#G" y="479.408799"/><use x="468.238274" xlink:href="#G" y="478.488861"/><use x="468.238274" xlink:href="#G" y="477.568924"/><use x="472.905454" xlink:href="#G" y="476.648986"/><use x="474.918748" xlink:href="#G" y="475.729048"/><use x="474.918748" xlink:href="#G" y="474.809111"/><use x="474.918748" xlink:href="#G" y="473.889173"/><use x="474.918748" xlink:href="#G" y="472.969236"/><use x="474.918748" xlink:href="#G" y="472.049298"/><use x="476.565988" xlink:href="#G" y="471.12936"/><use x="476.565988" xlink:href="#G" y="470.209423"/><use x="476.565988" xlink:href="#G" y="469.289485"/><use x="476.565988" xlink:href="#G" y="468.369548"/><use x="476.565988" xlink:href="#G" y="467.44961"/><use x="478.121715" xlink:href="#G" y="466.529672"/><use x="478.121715" xlink:href="#G" y="465.609735"/><use x="481.644978" xlink:href="#G" y="464.689797"/><use x="481.644978" xlink:href="#G" y="463.76986"/><use x="481.644978" xlink:href="#G" y="462.849922"/><use x="481.644978" xlink:href="#G" y="461.929984"/><use x="485.213998" xlink:href="#G" y="461.010047"/><use x="485.213998" xlink:href="#G" y="460.090109"/><use x="485.213998" xlink:href="#G" y="459.170172"/><use x="485.213998" xlink:href="#G" y="458.250234"/><use x="485.213998" xlink:href="#G" y="457.330296"/><use x="485.991862" xlink:href="#G" y="456.410359"/><use x="485.991862" xlink:href="#G" y="455.490421"/><use x="485.991862" xlink:href="#G" y="454.570484"/><use x="485.991862" xlink:href="#G" y="453.650546"/><use x="488.233939" xlink:href="#G" y="452.730608"/><use x="488.233939" xlink:href="#G" y="451.810671"/><use x="488.233939" xlink:href="#G" y="450.890733"/><use x="488.233939" xlink:href="#G" y="449.970796"/><use x="488.233939" xlink:href="#G" y="449.050858"/><use x="490.155719" xlink:href="#G" y="448.13092"/><use x="490.155719" xlink:href="#G" y="447.210983"/><use x="490.155719" xlink:href="#G" y="446.291045"/><use x="490.155719" xlink:href="#G" y="445.371108"/><use x="490.155719" xlink:href="#G" y="444.45117"/><use x="491.482662" xlink:href="#G" y="443.531232"/><use x="491.482662" xlink:href="#G" y="442.611295"/><use x="491.482662" xlink:href="#G" y="441.691357"/><use x="492.443552" xlink:href="#G" y="440.77142"/><use x="492.443552" xlink:href="#G" y="439.851482"/><use x="493.175659" xlink:href="#G" y="438.931544"/><use x="493.175659" xlink:href="#G" y="438.011607"/><use x="493.175659" xlink:href="#G" y="437.091669"/><use x="494.411089" xlink:href="#G" y="436.171732"/><use x="494.411089" xlink:href="#G" y="435.251794"/><use x="494.411089" xlink:href="#G" y="434.331856"/><use x="494.411089" xlink:href="#G" y="433.411919"/><use x="495.692276" xlink:href="#G" y="432.491981"/><use x="495.692276" xlink:href="#G" y="431.572044"/><use x="495.692276" xlink:href="#G" y="430.652106"/><use x="495.692276" xlink:href="#G" y="429.732168"/><use x="495.692276" xlink:href="#G" y="428.812231"/><use x="497.797082" xlink:href="#G" y="427.892293"/><use x="497.797082" xlink:href="#G" y="426.972356"/><use x="497.797082" xlink:href="#G" y="426.052418"/><use x="497.797082" xlink:href="#G" y="425.13248"/><use x="515.596426" xlink:href="#G" y="424.212543"/><use x="523.23779" xlink:href="#G" y="423.292605"/><use x="523.23779" xlink:href="#G" y="422.372668"/><use x="530.192804" xlink:href="#G" y="421.45273"/><use x="530.192804" xlink:href="#G" y="420.532793"/><use x="537.925681" xlink:href="#G" y="419.612855"/><use x="537.925681" xlink:href="#G" y="418.692917"/><use x="541.723484" xlink:href="#G" y="417.77298"/><use x="541.723484" xlink:href="#G" y="416.853042"/><use x="545.795828" xlink:href="#G" y="415.933105"/><use x="546.070368" xlink:href="#G" y="415.013167"/><use x="546.070368" xlink:href="#G" y="414.093229"/><use x="550.691791" xlink:href="#G" y="413.173292"/><use x="550.691791" xlink:href="#G" y="412.253354"/><use x="550.691791" xlink:href="#G" y="411.333417"/><use x="553.071138" xlink:href="#G" y="410.413479"/><use x="557.463778" xlink:href="#G" y="409.493541"/><use x="557.463778" xlink:href="#G" y="408.573604"/><use x="557.463778" xlink:href="#G" y="407.653666"/><use x="560.712502" xlink:href="#G" y="406.733729"/><use x="560.712502" xlink:href="#G" y="405.813791"/><use x="562.359742" xlink:href="#G" y="404.893853"/><use x="562.359742" xlink:href="#G" y="403.973916"/><use x="564.510305" xlink:href="#G" y="403.053978"/><use x="564.510305" xlink:href="#G" y="402.134041"/><use x="564.510305" xlink:href="#G" y="401.214103"/><use x="566.020275" xlink:href="#G" y="400.294165"/><use x="566.798139" xlink:href="#G" y="399.374228"/><use x="566.798139" xlink:href="#G" y="398.45429"/><use x="573.844666" xlink:href="#G" y="397.534353"/><use x="576.864606" xlink:href="#G" y="396.614415"/><use x="576.864606" xlink:href="#G" y="395.694477"/><use x="576.864606" xlink:href="#G" y="394.77454"/><use x="578.694873" xlink:href="#G" y="393.854602"/><use x="578.694873" xlink:href="#G" y="392.934665"/><use x="578.694873" xlink:href="#G" y="392.014727"/><use x="579.472736" xlink:href="#G" y="391.094789"/><use x="579.472736" xlink:href="#G" y="390.174852"/><use x="579.472736" xlink:href="#G" y="389.254914"/><use x="579.472736" xlink:href="#G" y="388.334977"/><use x="585.146563" xlink:href="#G" y="387.415039"/><use x="585.146563" xlink:href="#G" y="386.495101"/><use x="585.146563" xlink:href="#G" y="385.575164"/><use x="586.198966" xlink:href="#G" y="384.655226"/><use x="586.198966" xlink:href="#G" y="383.735289"/><use x="586.198966" xlink:href="#G" y="382.815351"/><use x="586.198966" xlink:href="#G" y="381.895413"/><use x="586.198966" xlink:href="#G" y="380.975476"/><use x="587.1141" xlink:href="#G" y="380.055538"/><use x="587.1141" xlink:href="#G" y="379.135601"/><use x="587.93772" xlink:href="#G" y="378.215663"/><use x="587.93772" xlink:href="#G" y="377.295725"/><use x="587.93772" xlink:href="#G" y="376.375788"/><use x="587.93772" xlink:href="#G" y="375.45585"/><use x="590.591607" xlink:href="#G" y="374.535913"/><use x="592.46763" xlink:href="#G" y="373.615975"/><use x="593.382763" xlink:href="#G" y="372.696037"/><use x="593.382763" xlink:href="#G" y="371.7761"/><use x="595.853624" xlink:href="#G" y="370.856162"/><use x="595.853624" xlink:href="#G" y="369.936225"/><use x="595.853624" xlink:href="#G" y="369.016287"/><use x="595.853624" xlink:href="#G" y="368.096349"/><use x="598.50751" xlink:href="#G" y="367.176412"/><use x="598.50751" xlink:href="#G" y="366.256474"/><use x="598.50751" xlink:href="#G" y="365.336537"/><use x="601.024127" xlink:href="#G" y="364.416599"/><use x="601.024127" xlink:href="#G" y="363.496661"/><use x="601.344424" xlink:href="#G" y="362.576724"/><use x="601.344424" xlink:href="#G" y="361.656786"/><use x="601.344424" xlink:href="#G" y="360.736849"/><use x="603.357717" xlink:href="#G" y="359.816911"/><use x="605.599794" xlink:href="#G" y="358.896973"/><use x="605.599794" xlink:href="#G" y="357.977036"/><use x="605.599794" xlink:href="#G" y="357.057098"/><use x="607.064007" xlink:href="#G" y="356.137161"/><use x="607.064007" xlink:href="#G" y="355.217223"/><use x="607.247034" xlink:href="#G" y="354.297285"/><use x="607.247034" xlink:href="#G" y="353.377348"/><use x="607.247034" xlink:href="#G" y="352.45741"/><use x="609.214571" xlink:href="#G" y="351.537473"/><use x="609.214571" xlink:href="#G" y="350.617535"/><use x="609.214571" xlink:href="#G" y="349.697598"/><use x="609.214571" xlink:href="#G" y="348.77766"/><use x="611.044838" xlink:href="#G" y="347.857722"/><use x="612.920861" xlink:href="#G" y="346.937785"/><use x="614.842641" xlink:href="#G" y="346.017847"/><use x="615.345964" xlink:href="#G" y="345.09791"/><use x="618.731958" xlink:href="#G" y="344.177972"/><use x="618.731958" xlink:href="#G" y="343.258034"/><use x="619.555578" xlink:href="#G" y="342.338097"/><use x="619.555578" xlink:href="#G" y="341.418159"/><use x="619.555578" xlink:href="#G" y="340.498222"/><use x="619.555578" xlink:href="#G" y="339.578284"/><use x="622.117951" xlink:href="#G" y="338.658346"/><use x="622.117951" xlink:href="#G" y="337.738409"/><use x="622.117951" xlink:href="#G" y="336.818471"/><use x="622.575518" xlink:href="#G" y="335.898534"/><use x="622.575518" xlink:href="#G" y="334.978596"/><use x="625.915755" xlink:href="#G" y="334.058658"/><use x="625.915755" xlink:href="#G" y="333.138721"/><use x="625.915755" xlink:href="#G" y="332.218783"/><use x="627.562995" xlink:href="#G" y="331.298846"/><use x="627.562995" xlink:href="#G" y="330.378908"/><use x="627.562995" xlink:href="#G" y="329.45897"/><use x="627.562995" xlink:href="#G" y="328.539033"/><use x="631.315042" xlink:href="#G" y="327.619095"/><use x="632.504715" xlink:href="#G" y="326.699158"/><use x="635.478899" xlink:href="#G" y="325.77922"/><use x="639.276702" xlink:href="#G" y="324.859282"/><use x="639.276702" xlink:href="#G" y="323.939345"/><use x="639.596999" xlink:href="#G" y="323.019407"/><use x="639.596999" xlink:href="#G" y="322.09947"/><use x="639.596999" xlink:href="#G" y="321.179532"/><use x="639.596999" xlink:href="#G" y="320.259594"/><use x="642.479669" xlink:href="#G" y="319.339657"/><use x="643.440559" xlink:href="#G" y="318.419719"/><use x="643.440559" xlink:href="#G" y="317.499782"/><use x="643.577829" xlink:href="#G" y="316.579844"/><use x="644.996286" xlink:href="#G" y="315.659906"/><use x="644.996286" xlink:href="#G" y="314.739969"/><use x="644.996286" xlink:href="#G" y="313.820031"/><use x="649.205899" xlink:href="#G" y="312.900094"/><use x="650.441329" xlink:href="#G" y="311.980156"/><use x="650.441329" xlink:href="#G" y="311.060218"/><use x="650.441329" xlink:href="#G" y="310.140281"/><use x="650.990409" xlink:href="#G" y="309.220343"/><use x="655.79486" xlink:href="#G" y="308.300406"/><use x="656.526966" xlink:href="#G" y="307.380468"/><use x="656.526966" xlink:href="#G" y="306.46053"/><use x="658.906313" xlink:href="#G" y="305.540593"/><use x="658.906313" xlink:href="#G" y="304.620655"/><use x="659.08934" xlink:href="#G" y="303.700718"/><use x="661.056877" xlink:href="#G" y="302.78078"/><use x="661.056877" xlink:href="#G" y="301.860842"/><use x="661.056877" xlink:href="#G" y="300.940905"/><use x="661.056877" xlink:href="#G" y="300.020967"/><use x="661.056877" xlink:href="#G" y="299.10103"/><use x="662.10928" xlink:href="#G" y="298.181092"/><use x="664.85468" xlink:href="#G" y="297.261154"/><use x="664.85468" xlink:href="#G" y="296.341217"/><use x="664.85468" xlink:href="#G" y="295.421279"/><use x="664.85468" xlink:href="#G" y="294.501342"/><use x="666.730704" xlink:href="#G" y="293.581404"/><use x="666.77646" xlink:href="#G" y="292.661466"/><use x="666.77646" xlink:href="#G" y="291.741529"/><use x="666.77646" xlink:href="#G" y="290.821591"/><use x="670.75729" xlink:href="#G" y="289.901654"/><use x="672.221504" xlink:href="#G" y="288.981716"/><use x="672.221504" xlink:href="#G" y="288.061778"/><use x="672.221504" xlink:href="#G" y="287.141841"/><use x="672.221504" xlink:href="#G" y="286.221903"/><use x="674.875391" xlink:href="#G" y="285.301966"/><use x="674.875391" xlink:href="#G" y="284.382028"/><use x="682.974321" xlink:href="#G" y="283.46209"/><use x="682.974321" xlink:href="#G" y="282.542153"/><use x="685.399424" xlink:href="#G" y="281.622215"/><use x="685.399424" xlink:href="#G" y="280.702278"/><use x="685.399424" xlink:href="#G" y="279.78234"/><use x="687.275448" xlink:href="#G" y="278.862402"/><use x="687.275448" xlink:href="#G" y="277.942465"/><use x="691.027495" xlink:href="#G" y="277.022527"/><use x="691.119008" xlink:href="#G" y="276.10259"/><use x="691.119008" xlink:href="#G" y="275.182652"/><use x="691.119008" xlink:href="#G" y="274.262715"/><use x="693.406841" xlink:href="#G" y="273.342777"/><use x="695.877702" xlink:href="#G" y="272.422839"/><use x="695.877702" xlink:href="#G" y="271.502902"/><use x="695.877702" xlink:href="#G" y="270.582964"/><use x="695.877702" xlink:href="#G" y="269.663027"/><use x="698.851885" xlink:href="#G" y="268.743089"/><use x="698.851885" xlink:href="#G" y="267.823151"/><use x="698.851885" xlink:href="#G" y="266.903214"/><use x="698.851885" xlink:href="#G" y="265.983276"/><use x="699.126425" xlink:href="#G" y="265.063339"/><use x="702.695445" xlink:href="#G" y="264.143401"/><use x="702.695445" xlink:href="#G" y="263.223463"/><use x="702.695445" xlink:href="#G" y="262.303526"/><use x="702.695445" xlink:href="#G" y="261.383588"/><use x="702.695445" xlink:href="#G" y="260.463651"/><use x="704.800252" xlink:href="#G" y="259.543713"/><use x="704.800252" xlink:href="#G" y="258.623775"/><use x="708.094732" xlink:href="#G" y="257.703838"/><use x="708.094732" xlink:href="#G" y="256.7839"/><use x="711.617996" xlink:href="#G" y="255.863963"/><use x="713.265236" xlink:href="#G" y="254.944025"/><use x="716.834256" xlink:href="#G" y="254.024087"/><use x="721.226896" xlink:href="#G" y="253.10415"/><use x="721.226896" xlink:href="#G" y="252.184212"/><use x="721.226896" xlink:href="#G" y="251.264275"/><use x="723.835026" xlink:href="#G" y="250.344337"/><use x="730.698526" xlink:href="#G" y="249.424399"/><use x="733.12363" xlink:href="#G" y="248.504462"/><use x="735.548733" xlink:href="#G" y="247.584524"/><use x="737.607783" xlink:href="#G" y="246.664587"/><use x="742.73253" xlink:href="#G" y="245.744649"/><use x="742.73253" xlink:href="#G" y="244.824711"/><use x="742.73253" xlink:href="#G" y="243.904774"/><use x="744.2425" xlink:href="#G" y="242.984836"/><use x="749.687544" xlink:href="#G" y="242.064899"/><use x="751.014487" xlink:href="#G" y="241.144961"/><use x="751.014487" xlink:href="#G" y="240.225023"/><use x="752.936268" xlink:href="#G" y="239.305086"/><use x="752.936268" xlink:href="#G" y="238.385148"/><use x="753.348078" xlink:href="#G" y="237.465211"/><use x="756.779828" xlink:href="#G" y="236.545273"/><use x="758.106771" xlink:href="#G" y="235.625335"/><use x="758.106771" xlink:href="#G" y="234.705398"/><use x="761.401251" xlink:href="#G" y="233.78546"/><use x="763.460301" xlink:href="#G" y="232.865523"/><use x="763.460301" xlink:href="#G" y="231.945585"/><use x="767.395375" xlink:href="#G" y="231.025647"/><use x="767.395375" xlink:href="#G" y="230.10571"/><use x="769.134128" xlink:href="#G" y="229.185772"/><use x="769.134128" xlink:href="#G" y="228.265835"/><use x="769.134128" xlink:href="#G" y="227.345897"/><use x="769.911992" xlink:href="#G" y="226.425959"/><use x="769.911992" xlink:href="#G" y="225.506022"/><use x="771.788015" xlink:href="#G" y="224.586084"/><use x="771.788015" xlink:href="#G" y="223.666147"/><use x="771.788015" xlink:href="#G" y="222.746209"/><use x="771.788015" xlink:href="#G" y="221.826271"/><use x="777.461842" xlink:href="#G" y="220.906334"/><use x="777.461842" xlink:href="#G" y="219.986396"/><use x="777.461842" xlink:href="#G" y="219.066459"/><use x="778.514245" xlink:href="#G" y="218.146521"/><use x="779.658162" xlink:href="#G" y="217.226583"/><use x="779.658162" xlink:href="#G" y="216.306646"/><use x="782.083266" xlink:href="#G" y="215.386708"/><use x="782.083266" xlink:href="#G" y="214.466771"/><use x="782.083266" xlink:href="#G" y="213.546833"/><use x="782.083266" xlink:href="#G" y="212.626895"/><use x="794.529079" xlink:href="#G" y="211.706958"/><use x="803.085577" xlink:href="#G" y="210.78702"/><use x="803.085577" xlink:href="#G" y="209.867083"/><use x="805.968247" xlink:href="#G" y="208.947145"/><use x="810.772697" xlink:href="#G" y="208.027207"/><use x="811.230264" xlink:href="#G" y="207.10727"/><use x="824.270914" xlink:href="#G" y="206.187332"/><use x="824.270914" xlink:href="#G" y="205.267395"/><use x="827.336611" xlink:href="#G" y="204.347457"/><use x="827.839934" xlink:href="#G" y="203.42752"/><use x="827.839934" xlink:href="#G" y="202.507582"/><use x="835.572811" xlink:href="#G" y="201.587644"/><use x="839.965452" xlink:href="#G" y="200.667707"/><use x="839.965452" xlink:href="#G" y="199.747769"/><use x="839.965452" xlink:href="#G" y="198.827832"/><use x="843.031148" xlink:href="#G" y="197.907894"/><use x="843.031148" xlink:href="#G" y="196.987956"/><use x="843.442958" xlink:href="#G" y="196.068019"/><use x="847.240762" xlink:href="#G" y="195.148081"/><use x="847.240762" xlink:href="#G" y="194.228144"/><use x="847.240762" xlink:href="#G" y="193.308206"/><use x="847.240762" xlink:href="#G" y="192.388268"/><use x="847.240762" xlink:href="#G" y="191.468331"/><use x="852.640049" xlink:href="#G" y="190.548393"/><use x="852.640049" xlink:href="#G" y="189.628456"/><use x="855.476962" xlink:href="#G" y="188.708518"/><use x="855.476962" xlink:href="#G" y="187.78858"/><use x="855.476962" xlink:href="#G" y="186.868643"/><use x="855.476962" xlink:href="#G" y="185.948705"/><use x="858.268119" xlink:href="#G" y="185.028768"/><use x="858.268119" xlink:href="#G" y="184.10883"/><use x="858.268119" xlink:href="#G" y="183.188892"/><use x="861.150789" xlink:href="#G" y="182.268955"/><use x="861.745626" xlink:href="#G" y="181.349017"/><use x="861.745626" xlink:href="#G" y="180.42908"/><use x="861.745626" xlink:href="#G" y="179.509142"/><use x="866.641589" xlink:href="#G" y="178.589204"/><use x="866.641589" xlink:href="#G" y="177.669267"/><use x="866.641589" xlink:href="#G" y="176.749329"/><use x="868.15156" xlink:href="#G" y="175.829392"/><use x="868.15156" xlink:href="#G" y="174.909454"/><use x="868.15156" xlink:href="#G" y="173.989516"/><use x="868.15156" xlink:href="#G" y="173.069579"/><use x="869.432746" xlink:href="#G" y="172.149641"/><use x="869.432746" xlink:href="#G" y="171.229704"/><use x="869.432746" xlink:href="#G" y="170.309766"/><use x="871.85785" xlink:href="#G" y="169.389828"/><use x="871.85785" xlink:href="#G" y="168.469891"/><use x="871.85785" xlink:href="#G" y="167.549953"/><use x="871.85785" xlink:href="#G" y="166.630016"/><use x="871.85785" xlink:href="#G" y="165.710078"/><use x="877.21138" xlink:href="#G" y="164.79014"/><use x="877.21138" xlink:href="#G" y="163.870203"/><use x="877.21138" xlink:href="#G" y="162.950265"/><use x="877.989243" xlink:href="#G" y="162.030328"/><use x="879.54497" xlink:href="#G" y="161.11039"/><use x="879.54497" xlink:href="#G" y="160.190452"/><use x="879.54497" xlink:href="#G" y="159.270515"/><use x="885.03577" xlink:href="#G" y="158.350577"/><use x="885.03577" xlink:href="#G" y="157.43064"/><use x="885.03577" xlink:href="#G" y="156.510702"/><use x="885.539094" xlink:href="#G" y="155.590764"/><use x="887.6439" xlink:href="#G" y="154.670827"/><use x="887.6439" xlink:href="#G" y="153.750889"/><use x="887.6439" xlink:href="#G" y="152.830952"/><use x="887.6439" xlink:href="#G" y="151.911014"/><use x="888.376007" xlink:href="#G" y="150.991076"/><use x="890.618084" xlink:href="#G" y="150.071139"/><use x="890.618084" xlink:href="#G" y="149.151201"/><use x="890.618084" xlink:href="#G" y="148.231264"/><use x="890.618084" xlink:href="#G" y="147.311326"/><use x="892.677134" xlink:href="#G" y="146.391388"/><use x="892.677134" xlink:href="#G" y="145.471451"/><use x="892.677134" xlink:href="#G" y="144.551513"/><use x="894.141347" xlink:href="#G" y="143.631576"/><use x="894.141347" xlink:href="#G" y="142.711638"/><use x="896.291911" xlink:href="#G" y="141.7917"/><use x="896.291911" xlink:href="#G" y="140.871763"/><use x="896.291911" xlink:href="#G" y="139.951825"/><use x="897.847638" xlink:href="#G" y="139.031888"/><use x="900.135471" xlink:href="#G" y="138.11195"/><use x="902.560574" xlink:href="#G" y="137.192012"/><use x="902.560574" xlink:href="#G" y="136.272075"/><use x="902.697844" xlink:href="#G" y="135.352137"/><use x="902.697844" xlink:href="#G" y="134.4322"/><use x="902.697844" xlink:href="#G" y="133.512262"/><use x="905.946568" xlink:href="#G" y="132.592324"/><use x="911.162828" xlink:href="#G" y="131.672387"/><use x="914.320038" xlink:href="#G" y="130.752449"/><use x="919.353272" xlink:href="#G" y="129.832512"/><use x="919.353272" xlink:href="#G" y="128.912574"/><use x="922.281699" xlink:href="#G" y="127.992637"/><use x="929.602766" xlink:href="#G" y="127.072699"/><use x="929.602766" xlink:href="#G" y="126.152761"/><use x="937.976236" xlink:href="#G" y="125.232824"/><use x="939.44045" xlink:href="#G" y="124.312886"/><use x="939.44045" xlink:href="#G" y="123.392949"/><use x="945.34306" xlink:href="#G" y="122.473011"/><use x="945.34306" xlink:href="#G" y="121.553073"/><use x="952.4811" xlink:href="#G" y="120.633136"/><use x="955.272257" xlink:href="#G" y="119.713198"/><use x="955.91285" xlink:href="#G" y="118.793261"/><use x="955.91285" xlink:href="#G" y="117.873323"/><use x="960.763057" xlink:href="#G" y="116.953385"/><use x="960.763057" xlink:href="#G" y="116.033448"/><use x="969.045014" xlink:href="#G" y="115.11351"/><use x="971.973441" xlink:href="#G" y="114.193573"/><use x="971.973441" xlink:href="#G" y="113.273635"/><use x="977.464241" xlink:href="#G" y="112.353697"/><use x="980.163885" xlink:href="#G" y="111.43376"/><use x="991.191242" xlink:href="#G" y="110.513822"/><use x="991.191242" xlink:href="#G" y="109.593885"/><use x="993.113022" xlink:href="#G" y="108.673947"/><use x="993.113022" xlink:href="#G" y="107.754009"/><use x="997.871716" xlink:href="#G" y="106.834072"/><use x="1002.172842" xlink:href="#G" y="105.914134"/><use x="1007.251833" xlink:href="#G" y="104.994197"/><use x="1007.251833" xlink:href="#G" y="104.074259"/><use x="1011.873256" xlink:href="#G" y="103.154321"/><use x="1012.010526" xlink:href="#G" y="102.234384"/><use x="1013.33747" xlink:href="#G" y="101.314446"/><use x="1020.383997" xlink:href="#G" y="100.394509"/><use x="1027.018714" xlink:href="#G" y="99.474571"/><use x="1031.411354" xlink:href="#G" y="98.554633"/><use x="1031.411354" xlink:href="#G" y="97.634696"/><use x="1039.235744" xlink:href="#G" y="96.714758"/><use x="1039.235744" xlink:href="#G" y="95.794821"/><use x="1047.471945" xlink:href="#G" y="94.874883"/><use x="1047.471945" xlink:href="#G" y="93.954945"/><use x="1052.093368" xlink:href="#G" y="93.035008"/><use x="1052.093368" xlink:href="#G" y="92.11507"/><use x="1057.950222" xlink:href="#G" y="91.195133"/><use x="1061.015919" xlink:href="#G" y="90.275195"/><use x="1061.015919" xlink:href="#G" y="89.355257"/><use x="1070.029982" xlink:href="#G" y="88.43532"/><use x="1078.632236" xlink:href="#G" y="87.515382"/><use x="1080.142206" xlink:href="#G" y="86.595445"/><use x="1086.731166" xlink:href="#G" y="85.675507"/><use x="1089.888377" xlink:href="#G" y="84.755569"/><use x="1091.398347" xlink:href="#G" y="83.835632"/><use x="1091.398347" xlink:href="#G" y="82.915694"/><use x="1091.398347" xlink:href="#G" y="81.995757"/><use x="1091.398347" xlink:href="#G" y="81.075819"/><use x="1094.052233" xlink:href="#G" y="80.155881"/><use x="1094.052233" xlink:href="#G" y="79.235944"/><use x="1094.052233" xlink:href="#G" y="78.316006"/><use x="1094.052233" xlink:href="#G" y="77.396069"/><use x="1094.92161" xlink:href="#G" y="76.476131"/><use x="1094.92161" xlink:href="#G" y="75.556193"/><use x="1095.287663" xlink:href="#G" y="74.636256"/><use x="1095.287663" xlink:href="#G" y="73.716318"/><use x="1095.287663" xlink:href="#G" y="72.796381"/><use x="1095.287663" xlink:href="#G" y="71.876443"/><use x="1095.379177" xlink:href="#G" y="70.956505"/><use x="1096.614607" xlink:href="#G" y="70.036568"/><use x="1096.614607" xlink:href="#G" y="69.11663"/><use x="1096.614607" xlink:href="#G" y="68.196693"/><use x="1097.850037" xlink:href="#G" y="67.276755"/><use x="1097.850037" xlink:href="#G" y="66.356817"/><use x="1097.987307" xlink:href="#G" y="65.43688"/><use x="1097.987307" xlink:href="#G" y="64.516942"/><use x="1097.987307" xlink:href="#G" y="63.597005"/><use x="1097.987307" xlink:href="#G" y="62.677067"/><use x="1097.987307" xlink:href="#G" y="61.757129"/><use x="1097.987307" xlink:href="#G" y="60.837192"/><use x="1102.425704" xlink:href="#G" y="59.917254"/><use x="1102.425704" xlink:href="#G" y="58.997317"/><use x="1103.02054" xlink:href="#G" y="58.077379"/><use x="1103.02054" xlink:href="#G" y="57.157441"/><use x="1103.02054" xlink:href="#G" y="56.237504"/><use x="1103.02054" xlink:href="#G" y="55.317566"/><use x="1103.02054" xlink:href="#G" y="54.397629"/><use x="1103.02054" xlink:href="#G" y="53.477691"/><use x="1103.386594" xlink:href="#G" y="52.557754"/><use x="1103.386594" xlink:href="#G" y="51.637816"/><use x="1103.386594" xlink:href="#G" y="50.717878"/><use x="1104.255971" xlink:href="#G" y="49.797941"/><use x="1104.255971" xlink:href="#G" y="48.878003"/><use x="1105.994724" xlink:href="#G" y="47.958066"/><use x="1105.994724" xlink:href="#G" y="47.038128"/><use x="1105.994724" xlink:href="#G" y="46.11819"/><use x="1105.994724" xlink:href="#G" y="45.198253"/><use x="1105.994724" xlink:href="#G" y="44.278315"/><use x="1106.040481" xlink:href="#G" y="43.358378"/><use x="1108.785881" xlink:href="#G" y="42.43844"/><use x="1108.785881" xlink:href="#G" y="41.518502"/><use x="1108.785881" xlink:href="#G" y="40.598565"/><use x="1108.785881" xlink:href="#G" y="39.678627"/><use x="1108.785881" xlink:href="#G" y="38.75869"/><use x="1108.785881" xlink:href="#G" y="37.838752"/><use x="1110.982201" xlink:href="#G" y="36.918814"/><use x="1110.982201" xlink:href="#G" y="35.998877"/><use x="1111.622794" xlink:href="#G" y="35.078939"/><use x="1111.622794" xlink:href="#G" y="34.159002"/><use x="1111.622794" xlink:href="#G" y="33.239064"/></g><path d="m55.296 609.12v-589.68" fill="none" stroke="#000" stroke-width=".8"/><path d="m1140.5 609.12v-589.68" fill="none" stroke="#000" stroke-width=".8"/><path d="m55.296 609.12h1085.2" fill="none" stroke="#000" stroke-width=".8"/><path d="m55.296 19.44h1085.2" fill="none" stroke="#000" stroke-width=".8"/><g transform="matrix(.12 0 0 -.12 153.03 13.44)"><path d="m48.828 0v29.891h-20.359q-9.0781 0-14.5 5.6875t-5.4219 17.297v20.031h9.8125v-19.25q0-7.75 3.0312-11.609t9.0781-3.8594h18.359v34.719h9.9062v-72.906z"/><use x="68.554688" xlink:href="#z"/><use x="133.544922" xlink:href="#A"/><use x="188.525391" xlink:href="#y"/><use x="252.441406" xlink:href="#r"/><use x="345.410156" xlink:href="#E"/><use x="406.689453" xlink:href="#A"/><use x="461.669922" xlink:href="#B"/><use x="519.921875" xlink:href="#m"/><use x="583.398438" xlink:href="#r"/><use x="644.580078" xlink:href="#F"/><use x="709.960938" xlink:href="#E"/><use x="771.240234" xlink:href="#C"/><use x="830.175781" xlink:href="#B"/><use x="888.427734" xlink:href="#r"/><use x="949.609375" xlink:href="#C"/><use x="1008.544922" xlink:href="#H"/><use x="1072.119141" xlink:href="#l"/><use x="1140.722656" xlink:href="#A"/><use x="1195.703125" xlink:href="#n"/><use x="1257.226562" xlink:href="#q"/><use x="1309.765625" xlink:href="#r"/><use x="1402.734375" xlink:href="#v"/><use x="1466.357422" xlink:href="#v"/><use x="1529.980469" xlink:href="#w"/><use x="1625.390625" xlink:href="#r"/><use x="1686.572266" xlink:href="#m"/><use x="1750.048828" xlink:href="#I"/><use x="1811.71875" xlink:href="#z"/><use x="1876.708984" xlink:href="#B"/><use x="1934.960938" xlink:href="#E"/><use x="1996.240234" xlink:href="#y"/><use x="2060.15625" xlink:href="#J"/><use x="2119.091797" xlink:href="#F"/><use x="2184.472656" xlink:href="#t"/><use x="2263.427734" xlink:href="#K"/><use x="2354.394531" xlink:href="#z"/><use x="2451.171875" xlink:href="#v"/><use x="2514.794922" xlink:href="#f"/><use x="2610.205078" xlink:href="#A"/><path d="m32.172-5.0781q-3.7969-9.7656-7.4219-12.734-3.6094-2.9844-9.6562-2.9844h-7.1875v7.5156h5.2812q3.7031 0 5.75 1.7656 2.0625 1.75 4.5469 8.2969l1.6094 4.0938-22.109 53.812h9.5156l17.094-42.766 17.094 42.766h9.5156z" transform="translate(2665.185547)"/><use x="2724.365234" xlink:href="#I"/><use x="2786.035156" xlink:href="#r"/><use x="2847.216797" xlink:href="#m"/><use x="2910.693359" xlink:href="#I"/><use x="2972.363281" xlink:href="#z"/><use x="3037.353516" xlink:href="#B"/><use x="3095.605469" xlink:href="#E"/><use x="3156.884766" xlink:href="#y"/><use x="3220.800781" xlink:href="#J"/><use x="3279.736328" xlink:href="#F"/><use x="3345.117188" xlink:href="#t"/><use x="3424.072266" xlink:href="#K"/><use x="3515.039062" xlink:href="#D"/><use x="3580.419922" xlink:href="#r"/><use x="3641.601562" xlink:href="#y"/><use x="3705.517578" xlink:href="#n"/><use x="3767.041016" xlink:href="#B"/><use x="3825.292969" xlink:href="#r"/><use x="3886.474609" xlink:href="#C"/><use x="3945.410156" xlink:href="#p"/><use x="4008.984375" xlink:href="#e"/><use x="4072.607422" xlink:href="#j"/><use x="4136.230469" xlink:href="#e"/><use x="4231.640625" xlink:href="#E"/><use x="4292.919922" xlink:href="#A"/><use x="4347.900391" xlink:href="#B"/><use x="4406.152344" xlink:href="#m"/><use x="4469.628906" xlink:href="#r"/><use x="4530.810547" xlink:href="#F"/><use x="4596.191406" xlink:href="#E"/><use x="4657.470703" xlink:href="#C"/><use x="4716.40625" xlink:href="#B"/><use x="4774.658203" xlink:href="#r"/><use x="4835.839844" xlink:href="#C"/><use x="4894.775391" xlink:href="#p"/><use x="4958.349609" xlink:href="#d"/><use x="5021.972656" xlink:href="#w"/><use x="5085.595703" xlink:href="#c"/><use x="5181.005859" xlink:href="#l"/><use x="5249.609375" xlink:href="#x"/><path d="m22.797 8.2969h32.234v56.297h-23.688v-10.344q0-24.359-5.4688-40.531-1.125-3.3125-3.0781-5.4219zm-14.391 0q6.5312 3.0781 8.3906 8.9375 4.7344 15.047 4.7344 41.891v13.781h43.359v-64.609h8.2969v-23.969h-8.2969v15.672h-51.656v-15.672h-8.2969v23.969z" transform="translate(5320.605469)"/><use x="5430.517578" xlink:href="#z"/><use x="5527.294922" xlink:href="#c"/><use x="5590.917969" xlink:href="#v"/><use x="5654.541016" xlink:href="#d"/><use x="5718.164062" xlink:href="#g"/><use x="5813.574219" xlink:href="#D"/><use x="5878.955078" xlink:href="#r"/><use x="5940.136719" xlink:href="#A"/><use x="5995.117188" xlink:href="#n"/><path d="m82.422 0h-73.344v54.688h9.0312v-47.516h23.109v47.516h9.0312v-47.516h23.141v47.516h9.0312v-47.516h7.1719v-20.984h-7.1719z" transform="translate(6056.640625)"/><use x="6150.830078" xlink:href="#n"/><use x="6212.353516" xlink:href="#F"/><use x="6277.734375" xlink:href="#z"/><path d="m55.906 54.688v-54.688h-8.9375v43.891l-26.359-43.891h-11.531v54.688h8.9375v-43.797l26.328 43.797zm-38.688 20.828h5.7656q.53125-3.6562 2.8906-5.5 2.375-1.8281 6.625-1.8281 4.2031 0 6.5469 1.8125t2.9688 5.5156h5.7656q-.48438-6.9844-4.3438-10.5t-10.938-3.5156-10.938 3.5156-4.3438 10.5z" transform="translate(6342.724609)"/><use x="6407.714844" xlink:href="#H"/><path d="m9.8125 72.906h9.8594v-29.891h35.844v29.891h9.8594v-72.906h-9.8594v34.719h-35.844v-34.719h-9.8594z" transform="translate(6471.289062)"/><use x="6546.484375" xlink:href="#r"/><use x="6607.666016" xlink:href="#o"/><use x="6667.822266" xlink:href="#I"/><use x="6729.492188" xlink:href="#m"/><use x="6792.96875" xlink:href="#J"/><use x="6883.691406" xlink:href="#j"/><use x="6947.314453" xlink:href="#f"/><use x="7010.9375" xlink:href="#j"/><use x="7074.560547" xlink:href="#j"/><use x="7169.970703" xlink:href="#q"/><use x="7222.509766" xlink:href="#r"/><use x="7283.691406" xlink:href="#s"/><use x="7352.832031" xlink:href="#E"/></g></g></svg>