<?xml version="1.0" encoding="UTF-8"?>
<!DOCTYPE svg  PUBLIC '-//W3C//DTD SVG 1.1//EN'  'http://www.w3.org/Graphics/SVG/1.1/DTD/svg11.dtd'>
<svg width="1152pt" height="648pt" version="1.1" viewBox="0 0 1152 648" xmlns="http://www.w3.org/2000/svg" xmlns:xlink="http://www.w3.org/1999/xlink">
<defs>
<style type="text/css">*{stroke-linejoin: round; stroke-linecap: butt}</style>
</defs>
<path d="m0 648h1152v-648h-1152z" fill="#fff"/>
<path d="m55.296 609.12h1027.6v-589.68h-1027.6z" fill="#fff"/>
<defs>
<path id="aj" d="m82.582-38.88v-29.484h0.003008v29.484h1.0084v-29.484h4.62e-4v29.484h3.3305v-29.484h4.69e-4v29.484h0.68108v-29.484h0.045567v29.484h8.5459v-29.484h0.008885v29.484h4.0154v-29.484h0.008906v29.484h2.3367v-29.484h3.11e-4v29.484h1.068v-29.484h0.042478v-29.484h0.12758v29.484h2.1e-4v29.484h2.132v-29.484h0.016638v29.484h4.5865v-29.484h2.93e-4v29.484h5.0997v-29.484h0.061953v29.484h1.2354v-29.484h0.082138v-29.484h0.12768v29.484h0.004932v29.484h0.35723v-29.484h3.14e-4v29.484h0.95325v-29.484h3.43e-4v29.484h1.4718v-29.484h3.36e-4v29.484h18.043v-88.452h0.043824v88.452h6.7551v-58.968h0.046989v58.968h0.18292v-58.968h0.008798v58.968h3.1112v-58.968h0.17674v58.968h0.95312v-29.484h3.17e-4v29.484h1.8206v-29.484h8.38e-4v29.484h0.46763v-58.968h0.34454v58.968h1.3069v-29.484h3.59e-4v29.484h0.6974v-29.484h2.85e-4v29.484h2.2081v-58.968h0.46582v-58.968h0.04666v58.968h0.084104v58.968h3.8161v-58.968h0.019292v58.968h3.3968v-58.968h0.13056v58.968h1.8341v-58.968h0.12773v58.968h2.2839v-58.968h0.12864v58.968h2.049v-29.484h3.23e-4v29.484h0.43166v-58.968h0.17067v58.968h6.8526v-29.484h0.04836v29.484h7.6468v-29.484h3.04e-4v29.484h1.259v-29.484h1.46e-4v29.484h12.123v-29.484h2.82e-4v29.484h2.2067v-88.452h0.46948v88.452h0.16851v-29.484h0.17116v29.484h2.262v-88.452h0.2653v88.452h0.76451v-29.484h0.042558v-88.452h0.086196v88.452h0.045369v29.484h1.9202v-88.452h0.43494v88.452h2.8582v-88.452h0.34659v88.452h2.2028v-88.452h0.35246v88.452h3.4113v-58.968h0.04255v-88.452h0.042543v-58.968h0.12914v58.968h0.042478v88.452h0.042857v58.968h1.1824v-88.452h0.44143v88.452h5.9738v-88.452h0.2579v88.452h1.9506v-58.968h0.76694v58.968h9.8047v-88.452h0.38986v88.452h3.1235v-88.452h0.086198v88.452h1.8285v-88.452h1.0293v88.452h1.1519v-88.452h0.53272v88.452h10.953v-88.452h0.47976v88.452h9.6761v-88.452h0.54476v88.452h6.7883v-88.452h1.2142v88.452h1.5544v-88.452h2.5755v88.452h0.068527v-58.968h0.085285v58.968h2.0834v-88.452h1.3822v-58.968h0.34094v58.968h1.9173v88.452h6.2866v-58.968h0.68126v58.968h1.6596v-58.968h0.086989v58.968h4.1389v-58.968h0.25697v58.968h1.4539v-58.968h1.2801v58.968h2.3822v-58.968h6.45e-4v58.968h2.1286v-58.968h2.2474v-58.968h0.013536v-88.452h0.24365v58.968h0.14881v88.452h0.073987v58.968h14.982v-58.968h2.1338v58.968h0.93709v-58.968h0.34265v58.968h0.92754v-58.968h0.08682v58.968h4.9346v-58.968h0.76775v58.968h9.7758v-58.968h0.087968v58.968h2.5949v-58.968h1.3627v-58.968h0.25803v58.968h1.9563v-58.968h0.34336v58.968h0.25549v58.968h3.9575v-58.968h0.51103v-58.968h0.34297v58.968h2.2546v-58.968h0.34075v58.968h2.5976v58.968h4.9823v-58.968h1.9159v-58.968h0.084851v58.968h5.5797v58.968h10.137v-58.968h2.0441v-58.968h0.34065v58.968h0.085212v-58.968h0.17022v58.968h1.9163v-58.968h0.34053v58.968h2.1293v-58.968h0.34058v58.968h0.6387v58.968h2.0437v-88.452h0.55425v88.452h4.0019v-58.968h0.42586v-58.968h0.34054v58.968h0.56362v-58.968h0.098075v58.968h1.2974v-58.968h0.34053v58.968h0.17081v58.968h7.3675v-58.968h0.097848v58.968h5.5341v-58.968h0.34663v58.968h1.8947v-58.968h1.8308v-88.452h0.12723v-58.968h0.21537v88.452h0.0899v58.968h1.9942v-88.452h0.34265v88.452h3.2867v-117.94h0.2206v117.94h1.0476v58.968h4.9798v-117.94h0.21727v117.94h0.46611v-88.452h0.087158v88.452h2.4653v-147.42h0.2642v147.42h0.12137v-58.968h2.7671v-147.42h0.26193v147.42h3.4438v58.968h0.20939v-176.9h0.44717v176.9h2.4493v-147.42h0.21498v-88.452h0.13019v147.42h2.2538v-88.452h0.13142v-147.42h0.21086v88.452h0.091715v147.42h4.1219v-88.452h0.51115v88.452h1.3855v-176.9h0.26155v176.9h1.1645v88.452h0.13013v-206.39h0.35622v206.39h1.1185v-147.42h0.34604v147.42h3.0026v-147.42h0.13274v147.42h3.235v-206.39h0.30304v206.39h0.43696v-206.39h0.30344v206.39h1.3255v-58.968h0.48524v-206.39h0.30615v206.39h1.53v-206.39h0.34425v206.39h0.89367v-147.42h0.30732v147.42h0.60525v-88.452h0.38478v58.968h0.31291v-147.42h0.17639v147.42h0.99615v-235.87h0.30453v235.87h0.63662v88.452h0.24176v-206.39h0.29791v206.39h1.715v-206.39h0.26359v206.39h2.3362v-58.968h5.4139v58.968h8.8518v-58.968h7.1975v-88.452h0.34483v88.452h6.2553v-88.452h0.34283v88.452h6.9817v-88.452h0.42617v88.452h3.1512v-88.452h0.38338v58.968h0.97954v-147.42h0.17506v147.42h2.3374v-88.452h0.25749v-147.42h0.18966v147.42h0.62503v88.452h3.5605v-147.42h0.21592v147.42h1.7115v88.452h0.33172v-147.42h0.17494v147.42h3.9718v-147.42h0.21836v147.42h1.0106v-58.968h1.8538v-147.42h0.21594v147.42h1.3135v-147.42h0.21676v147.42h1.8409v-147.42h0.47103v147.42h0.94684v-58.968h0.34349v58.968h0.39564v-147.42h0.19184v147.42h2.1988v-147.42h0.21884v147.42h4.0635v-58.968h0.34293v58.968h2.5197v-147.42h0.17716v147.42h1.577v-147.42h0.21278v147.42h0.49285v-206.39h0.002543v-88.452h0.34272v88.452h0.042889v206.39h4.9961v-147.42h0.25905v147.42h0.73201v-206.39h0.35979v206.39h0.50875v-88.452h0.34149v88.452h0.43915v-206.39h0.39384v206.39h2.1211v-147.42h0.38503v147.42h1.4054v-147.42h0.23182v147.42h0.60338v-88.452h0.34326v88.452h1.9842v-176.9h0.30109v176.9h2.2383v-206.39h0.34874v206.39h2.0262v-88.452h0.30736v-206.39h0.035413v88.452h0.35106v206.39h1.5381v-206.39h0.38492v206.39h1.7239v-206.39h0.59824v206.39h0.76956v-88.452h0.18732v-206.39h0.34514v206.39h0.064762v88.452h1.4533v-206.39h0.34379v206.39h1.3937v-176.9h0.42758v176.9h1.3414v-147.42h0.31641v147.42h1.5037v-147.42h0.25921v147.42h0.20273v-58.968h0.34258v58.968h2.8616v-147.42h0.40088v147.42h0.3956v-206.39h0.43251v206.39h1.9898v-176.9h0.43266v176.9h0.003029v-88.452h0.89536v88.452h2.2613v-147.42h0.42623v147.42h1.1386v-206.39h0.60673v206.39h1.3325v-206.39h0.46916v206.39h1.1345v-88.452h0.25664v58.968h0.87319v-176.9h0.3594v176.9h0.89972v-147.42h0.60505v147.42h0.9491v-176.9h0.48694v176.9h3.1103v-58.968h0.31094v-206.39h0.032171v58.968h0.60652v206.39h2.1001v-176.9h0.47432v176.9h0.41516v-176.9h0.15058v-88.452h0.33625v176.9h0.99608v-176.9h0.033047v88.452h0.44079v176.9h3.4898v-176.9h0.35817v176.9h0.81352v-206.39h0.51893v-88.452h0.20138v206.39h0.14128v88.452h4.2291v-206.39h0.42476v235.87h0.25768v-147.42h0.3868v147.42h1.8569v-88.452h0.18433v-147.42h0.15832v58.968h0.31176v147.42h1.39v-206.39h0.68914v206.39h0.30454v-147.42h0.35463v147.42h2.2389v-176.9h0.38621v176.9h1.3948v-58.968h0.057265v-206.39h0.28586v88.452h0.3957v206.39h0.55266v-176.9h0.3993v147.42h2.1169v-176.9h0.4343v176.9h0.95945v-206.39h0.73231v206.39h1.777v-88.452h0.68286v88.452h0.60856v-176.9h0.43908v176.9h2.3527v-147.42h0.76496v147.42h1.5549v-176.9h0.442v176.9h0.82251v-88.452h0.03386v-206.39h0.43242v206.39h0.38654v88.452h1.452v-206.39h0.17182v206.39h1.5837v-206.39h0.39942v206.39h1.6541v-206.39h0.67988v206.39h0.83161v-58.968h0.084971v-176.9h0.29885v58.968h0.21448v176.9h1.6304v-206.39h0.46803v206.39h1.9018v-176.9h0.67957v176.9h2.105v-206.39h0.28469v-88.452h0.097494v206.39h0.79871v88.452h2.4852v-206.39h0.68907v206.39h1.3101v-176.9h0.42571v206.39h2.6703v-88.452h0.51196v88.452h2.8403v-206.39h0.38571v206.39h1.1541v-176.9h0.51125v176.9h2.8593v-88.452h0.34277v58.968h3.8269v-206.39h0.42448v206.39h2.0329v-147.42h0.21444v147.42h1.3376v88.452h4.9379v-206.39h0.34501v206.39h1.981v-176.9h0.48661v176.9h1.786v-58.968h1.9583v-206.39h0.42617v206.39h0.76948v58.968h3.6599v-206.39h0.51104v206.39h0.93721v-206.39h0.55892v206.39h0.27951v-88.452h1.334v-147.42h0.46912v147.42h2.5123v-147.42h0.55824v147.42h0.67701v-206.39h0.55551v206.39h1.2761v-206.39h0.36985v-88.452h0.14538v206.39h0.19763v88.452h2.9079v-147.42h0.55327v147.42h0.7246v-206.39h0.5147v206.39h2.5817v-88.452h0.42589v88.452h1.5472v-206.39h0.51178v206.39h3.1932v-206.39h0.47311v206.39h1.1896v-206.39h0.46868v206.39h0.24181v-88.452h0.42846v88.452h1.3743v-206.39h0.60019v206.39h4.7675v-176.9h0.46914v176.9h0.4971v-88.452h0.4708v88.452h0.60772v-206.39h0.59696v206.39h1.7253v-206.39h0.69004v206.39h3.6199v-58.968h0.3432v88.452h7.1011v-29.484h0.038587v29.484h0.099708v-88.452h0.42777v88.452h7.5373v-88.452h0.47078v88.452h2.2786v-29.484h7.22e-4v29.484h4.331v-29.484h7.27e-4v29.484h0.21521v-29.484h7.2e-4v29.484h0.41126v-88.452h0.42856v88.452h7.4932v-88.452h0.42836v88.452h4.0144v-206.39h0.60192v206.39h2.2806v-88.452h0.42815v88.452h0.043018v-58.968h0.20852v58.968h7.1138v-88.452h0.42821v88.452h3.7588v-206.39h0.55332v176.9h2.3424v-176.9h0.36976v-88.452h0.14114v176.9h0.33001v88.452h3.1194v-206.39h0.55716v206.39h4.5819v-88.452h0.59733v88.452h2.099v-206.39h0.59949v206.39h2.0406v-206.39h0.55208v206.39h2.1599v-88.452h0.4714v88.452h0.095721v-206.39h0.65397v206.39h3.9878v-206.39h0.55287v206.39h0.85242v-206.39h0.68248v206.39h0.53891v-88.452h0.4714v88.452h1.8417v-206.39h0.59592v206.39h4.4573v-88.452h0.12354v88.452h0.60166v-88.452h0.51358v88.452h0.948v-206.39h0.68665v206.39h4.5518v-206.39h0.45494v-88.452h0.099981v206.39h0.45482v88.452h1.4487v-206.39h0.55875v206.39h0.12078v-88.452h2.1429v-206.39h0.6799v206.39h1.2365v-206.39h0.60075v206.39h0.79107v-88.452h0.47152v88.452h1.5862v-176.9h0.46789v206.39h0.15975v88.452h0.84927v-88.452h2.1428v-176.9h0.59572v176.9h1.0107v58.968h0.67976v-88.452h0.14127v-206.39h0.6547v206.39h1.0488v-176.9h0.50975v176.9h0.28623v88.452h0.59585v-88.452h4.3885v88.452h0.55185v-88.452h2.1324v88.452h0.84886v-88.452h3.08v-176.9h0.55414v176.9h0.28683v88.452h0.84892v-88.452h1.8022v-176.9h0.32755v88.452h0.35395v176.9h0.28447v-88.452h1.3341v-117.94h0.55306v117.94h2.458v88.452h2.5558v-88.452h0.34322v88.452h1.2756v-88.452h5.5411v88.452h0.76383v-88.452h1.3997v-88.452h0.54754v88.452h0.097832v88.452h0.59629v-88.452h2.7723v88.452h1.5736v-88.452h1.1532v88.452h1.318v-88.452h3.7516v88.452h0.55153v-88.452h2.0028v88.452h0.63886v-88.452h0.58671v-88.452h0.63249v88.452h3.3401v88.452h0.63885v-88.452h1.8322v-88.452h0.17068v88.452h5.1984v88.452h0.63865v-88.452h2.1307v88.452h0.63883v-88.452h4.5593v88.452h0.6389v-88.452h1.9627v88.452h0.5938v-88.452h4.6868v88.452h0.68141v-88.452h3.2808v88.452h1.789v-88.452h1.7894v-88.452h0.42631v88.452h3.9203v88.452h0.16935v-88.452h3.3663v88.452h0.72368v-88.452h3.9626v88.452h0.80912v-88.452h2.6846v88.452h1.7293v-58.968h0.1021v-88.452h0.469v88.452h0.80913v-88.452h0.017408v58.968h6.2032v88.452h0.42569v-58.968h1.8749v58.968h2.4282v-88.452h1.5767v88.452h0.42575v-88.452h4.0051v88.452h0.12762v-88.452h3.153v88.452h0.937v-88.452h3.1958v88.452h0.12733v-88.452h5.1983v88.452h0.29763v-58.968h5.92e-4v58.968h2.3001v-88.452h0.44117v-58.968h4.25e-4v58.968h0.28297v88.452h2.7933v-88.452h4.55e-4v88.452h0.86999v-88.452h4.4314v88.452h1.1074v-88.452h2.8973v-88.452h0.34112v88.452h5.454v88.452h2.7266v-88.452h0.34142v88.452h1.8878v-58.968h2.7709v58.968h3.1382v-88.452h0.34135v88.452h1.0784v-117.94h6.2499v-88.452h0.34145v88.452h0.2687v-117.94h0.38462v117.94h0.88154v-58.968h5.11e-4v58.968h1.1002v-88.452h1.0648v-176.9h4.58e-4v176.9h0.38531v-117.94h3.06e-4v117.94h2.488v-117.94h0.053274v88.452h0.074972v117.94h0.71067v-88.452h0.35714v-117.94h3.05e-4v117.94h0.089167v-88.452h0.065327v88.452h0.99426v117.94h0.083938v-117.94h1.1795v-88.452h0.14324v-176.9h3.04e-4v176.9h0.36823v88.452h3.8343v-88.452h0.51171v88.452h0.047805v-176.9h3e-4v176.9h0.34857v-117.94h0.32241v88.452h0.41715v117.94h0.069987v-117.94h0.38409v117.94h1.2717v-176.9h3e-4v176.9h0.023732v-88.452h2.6189v-176.9h3.08e-4v176.9h2.0786v-88.452h0.34114v88.452h0.26901v-117.94h0.39865v117.94 294.84h-0.39865-0.26901-0.34114-2.0786-3.08e-4 -2.6189-0.023732-3e-4 -1.2717-0.38409-0.069987-0.41715-0.32241-0.34857-3e-4 -0.047805-0.51171-3.8343-0.36823-3.04e-4 -0.14324-1.1795-0.083938-0.99426-0.065327-0.089167-3.05e-4 -0.35714-0.71067-0.074972-0.053274-2.488-3.06e-4 -0.38531-4.58e-4 -1.0648-1.1002-5.11e-4 -0.88154-0.38462-0.2687-0.34145-6.2499-1.0784-0.34135-3.1382-2.7709-1.8878-0.34142-2.7266-5.454-0.34112-2.8973-1.1074-4.4314-0.86999-4.55e-4 -2.7933-0.28297-4.25e-4 -0.44117-2.3001-5.92e-4 -0.29763-5.1983-0.12733-3.1958-0.937-3.153-0.12762-4.0051-0.42575-1.5767-2.4282-1.8749-0.42569-6.2032-0.017408-0.80913-0.469-0.1021-1.7293-2.6846-0.80912-3.9626-0.72368-3.3663-0.16935-3.9203-0.42631-1.7894-1.789-3.2808-0.68141-4.6868-0.5938-1.9627-0.6389-4.5593-0.63883-2.1307-0.63865-5.1984-0.17068-1.8322-0.63885-3.3401-0.63249-0.58671-0.63886-2.0028-0.55153-3.7516-1.318-1.1532-1.5736-2.7723-0.59629-0.097832-0.54754-1.3997-0.76383-5.5411-1.2756-0.34322-2.5558-2.458-0.55306-1.3341-0.28447-0.35395-0.32755-1.8022-0.84892-0.28683-0.55414-3.08-0.84886-2.1324-0.55185-4.3885-0.59585-0.28623-0.50975-1.0488-0.6547-0.14127-0.67976-1.0107-0.59572-2.1428-0.84927-0.15975-0.46789-1.5862-0.47152-0.79107-0.60075-1.2365-0.6799-2.1429-0.12078-0.55875-1.4487-0.45482-0.099981-0.45494-4.5518-0.68665-0.948-0.51358-0.60166-0.12354-4.4573-0.59592-1.8417-0.4714-0.53891-0.68248-0.85242-0.55287-3.9878-0.65397-0.095721-0.4714-2.1599-0.55208-2.0406-0.59949-2.099-0.59733-4.5819-0.55716-3.1194-0.33001-0.14114-0.36976-2.3424-0.55332-3.7588-0.42821-7.1138-0.20852-0.043018-0.42815-2.2806-0.60192-4.0144-0.42836-7.4932-0.42856-0.41126-7.2e-4 -0.21521-7.27e-4 -4.331-7.22e-4 -2.2786-0.47078-7.5373-0.42777-0.099708-0.038587-7.1011-0.3432-3.6199-0.69004-1.7253-0.59696-0.60772-0.4708-0.4971-0.46914-4.7675-0.60019-1.3743-0.42846-0.24181-0.46868-1.1896-0.47311-3.1932-0.51178-1.5472-0.42589-2.5817-0.5147-0.7246-0.55327-2.9079-0.19763-0.14538-0.36985-1.2761-0.55551-0.67701-0.55824-2.5123-0.46912-1.334-0.27951-0.55892-0.93721-0.51104-3.6599-0.76948-0.42617-1.9583-1.786-0.48661-1.981-0.34501-4.9379-1.3376-0.21444-2.0329-0.42448-3.8269-0.34277-2.8593-0.51125-1.1541-0.38571-2.8403-0.51196-2.6703-0.42571-1.3101-0.68907-2.4852-0.79871-0.097494-0.28469-2.105-0.67957-1.9018-0.46803-1.6304-0.21448-0.29885-0.084971-0.83161-0.67988-1.6541-0.39942-1.5837-0.17182-1.452-0.38654-0.43242-0.03386-0.82251-0.442-1.5549-0.76496-2.3527-0.43908-0.60856-0.68286-1.777-0.73231-0.95945-0.4343-2.1169-0.3993-0.55266-0.3957-0.28586-0.057265-1.3948-0.38621-2.2389-0.35463-0.30454-0.68914-1.39-0.31176-0.15832-0.18433-1.8569-0.3868-0.25768-0.42476-4.2291-0.14128-0.20138-0.51893-0.81352-0.35817-3.4898-0.44079-0.033047-0.99608-0.33625-0.15058-0.41516-0.47432-2.1001-0.60652-0.032171-0.31094-3.1103-0.48694-0.9491-0.60505-0.89972-0.3594-0.87319-0.25664-1.1345-0.46916-1.3325-0.60673-1.1386-0.42623-2.2613-0.89536-0.003029-0.43266-1.9898-0.43251-0.3956-0.40088-2.8616-0.34258-0.20273-0.25921-1.5037-0.31641-1.3414-0.42758-1.3937-0.34379-1.4533-0.064762-0.34514-0.18732-0.76956-0.59824-1.7239-0.38492-1.5381-0.35106-0.035413-0.30736-2.0262-0.34874-2.2383-0.30109-1.9842-0.34326-0.60338-0.23182-1.4054-0.38503-2.1211-0.39384-0.43915-0.34149-0.50875-0.35979-0.73201-0.25905-4.9961-0.042889-0.34272-0.002543-0.49285-0.21278-1.577-0.17716-2.5197-0.34293-4.0635-0.21884-2.1988-0.19184-0.39564-0.34349-0.94684-0.47103-1.8409-0.21676-1.3135-0.21594-1.8538-1.0106-0.21836-3.9718-0.17494-0.33172-1.7115-0.21592-3.5605-0.62503-0.18966-0.25749-2.3374-0.17506-0.97954-0.38338-3.1512-0.42617-6.9817-0.34283-6.2553-0.34483-7.1975-8.8518-5.4139-2.3362-0.26359-1.715-0.29791-0.24176-0.63662-0.30453-0.99615-0.17639-0.31291-0.38478-0.60525-0.30732-0.89367-0.34425-1.53-0.30615-0.48524-1.3255-0.30344-0.43696-0.30304-3.235-0.13274-3.0026-0.34604-1.1185-0.35622-0.13013-1.1645-0.26155-1.3855-0.51115-4.1219-0.091715-0.21086-0.13142-2.2538-0.13019-0.21498-2.4493-0.44717-0.20939-3.4438-0.26193-2.7671-0.12137-0.2642-2.4653-0.087158-0.46611-0.21727-4.9798-1.0476-0.2206-3.2867-0.34265-1.9942-0.0899-0.21537-0.12723-1.8308-1.8947-0.34663-5.5341-0.097848-7.3675-0.17081-0.34053-1.2974-0.098075-0.56362-0.34054-0.42586-4.0019-0.55425-2.0437-0.6387-0.34058-2.1293-0.34053-1.9163-0.17022-0.085212-0.34065-2.0441-10.137-5.5797-0.084851-1.9159-4.9823-2.5976-0.34075-2.2546-0.34297-0.51103-3.9575-0.25549-0.34336-1.9563-0.25803-1.3627-2.5949-0.087968-9.7758-0.76775-4.9346-0.08682-0.92754-0.34265-0.93709-2.1338-14.982-0.073987-0.14881-0.24365-0.013536-2.2474-2.1286-6.45e-4 -2.3822-1.2801-1.4539-0.25697-4.1389-0.086989-1.6596-0.68126-6.2866-1.9173-0.34094-1.3822-2.0834-0.085285-0.068527-2.5755-1.5544-1.2142-6.7883-0.54476-9.6761-0.47976-10.953-0.53272-1.1519-1.0293-1.8285-0.086198-3.1235-0.38986-9.8047-0.76694-1.9506-0.2579-5.9738-0.44143-1.1824-0.042857-0.042478-0.12914-0.042543-0.04255-3.4113-0.35246-2.2028-0.34659-2.8582-0.43494-1.9202-0.045369-0.086196-0.042558-0.76451-0.2653-2.262-0.17116-0.16851-0.46948-2.2067-2.82e-4 -12.123-1.46e-4 -1.259-3.04e-4 -7.6468-0.04836-6.8526-0.17067-0.43166-3.23e-4 -2.049-0.12864-2.2839-0.12773-1.8341-0.13056-3.3968-0.019292-3.8161-0.084104-0.04666-0.46582-2.2081-2.85e-4 -0.6974-3.59e-4 -1.3069-0.34454-0.46763-8.38e-4 -1.8206-3.17e-4 -0.95312-0.17674-3.1112-0.008798-0.18292-0.046989-6.7551-0.043824-18.043-3.36e-4 -1.4718-3.43e-4 -0.95325-3.14e-4 -0.35723-0.004932-0.12768-0.082138-1.2354-0.061953-5.0997-2.93e-4 -4.5865-0.016638-2.132-2.1e-4 -0.12758-0.042478-1.068-3.11e-4 -2.3367-0.008906-4.0154-0.008885-8.5459-0.045567-0.68108-4.69e-4 -3.3305-4.62e-4 -1.0084-0.003008z" stroke="#229"/>
</defs>
<g clip-path="url(#e)">
<use y="648" fill="#222299" stroke="#222299" xlink:href="#aj"/>
</g>
<defs>
<path id="i" d="m0 0v3.5" stroke="#000" stroke-width=".8"/>
</defs>
<use x="62.344681" y="609.12" stroke="#000000" stroke-width=".8" xlink:href="#i"/>
<g transform="translate(49.62 623.72) scale(.1 -.1)">
<defs>
<path id="c" transform="scale(.015625)" d="m794 531h1031v3560l-1122-225v575l1116 225h631v-4135h1031v-531h-2687v531z"/>
<path id="j" transform="scale(.015625)" d="m703 97v575q238-113 481-172 244-59 479-59 625 0 954 420 330 420 377 1277-181-269-460-413-278-144-615-144-700 0-1108 423-408 424-408 1159 0 718 425 1152 425 435 1131 435 810 0 1236-621 427-620 427-1801 0-1103-524-1761-523-658-1407-658-238 0-482 47-243 47-506 141zm1256 1978q425 0 673 290 249 291 249 798 0 503-249 795-248 292-673 292t-673-292-248-795q0-507 248-798 248-290 673-290z"/>
<path id="t" transform="scale(.015625)" d="m2113 2584q-425 0-674-291-248-290-248-796 0-503 248-796 249-292 674-292t673 292q248 293 248 796 0 506-248 796-248 291-673 291zm1253 1979v-575q-238 112-480 171-242 60-480 60-625 0-955-422-329-422-376-1275 184 272 462 417 279 145 613 145 703 0 1111-427 408-426 408-1160 0-719-425-1154-425-434-1131-434-810 0-1238 620-428 621-428 1799 0 1106 525 1764t1409 658q238 0 480-47t505-140z"/>
<path id="b" transform="scale(.015625)" d="m2034 4250q-487 0-733-480-245-479-245-1442 0-959 245-1439 246-480 733-480 491 0 736 480 246 480 246 1439 0 963-246 1442-245 480-736 480zm0 500q785 0 1199-621 414-620 414-1801 0-1178-414-1799-414-620-1199-620-784 0-1198 620-414 621-414 1799 0 1181 414 1801 414 621 1198 621z"/>
</defs>
<use xlink:href="#c"/>
<use x="63.623047" xlink:href="#j"/>
<use x="127.246094" xlink:href="#t"/>
<use x="190.869141" xlink:href="#b"/>
</g>
<use x="141.474172" y="609.12" stroke="#000000" stroke-width=".8" xlink:href="#i"/>
<g transform="translate(128.75 623.72) scale(.1 -.1)">
<defs>
<path id="n" transform="scale(.015625)" d="m691 4666h2478v-532h-1900v-1143q137 47 274 70 138 23 276 23 781 0 1237-428 457-428 457-1159 0-753-469-1171-469-417-1322-417-294 0-599 50-304 50-629 150v635q281-153 581-228t634-75q541 0 856 284 316 284 316 772 0 487-316 771-315 285-856 285-253 0-505-56-251-56-513-175v2344z"/>
</defs>
<use xlink:href="#c"/>
<use x="63.623047" xlink:href="#j"/>
<use x="127.246094" xlink:href="#t"/>
<use x="190.869141" xlink:href="#n"/>
</g>
<use x="220.560351" y="609.12" stroke="#000000" stroke-width=".8" xlink:href="#i"/>
<g transform="translate(207.84 623.72) scale(.1 -.1)">
<defs>
<path id="y" transform="scale(.015625)" d="m525 4666h3e3v-269l-1694-4397h-659l1594 4134h-2241v532z"/>
</defs>
<use xlink:href="#c"/>
<use x="63.623047" xlink:href="#j"/>
<use x="127.246094" xlink:href="#y"/>
<use x="190.869141" xlink:href="#b"/>
</g>
<use x="299.646531" y="609.12" stroke="#000000" stroke-width=".8" xlink:href="#i"/>
<g transform="translate(286.92 623.72) scale(.1 -.1)">
<use xlink:href="#c"/>
<use x="63.623047" xlink:href="#j"/>
<use x="127.246094" xlink:href="#y"/>
<use x="190.869141" xlink:href="#n"/>
</g>
<use x="378.732711" y="609.12" stroke="#000000" stroke-width=".8" xlink:href="#i"/>
<g transform="translate(366.01 623.72) scale(.1 -.1)">
<defs>
<path id="x" transform="scale(.015625)" d="m2034 2216q-450 0-708-241-257-241-257-662 0-422 257-663 258-241 708-241t709 242q260 243 260 662 0 421-258 662-257 241-711 241zm-631 268q-406 100-633 378-226 279-226 679 0 559 398 884 399 325 1092 325 697 0 1094-325t397-884q0-400-227-679-226-278-629-378 456-106 710-416 255-309 255-755 0-679-414-1042-414-362-1186-362-771 0-1186 362-414 363-414 1042 0 446 256 755 257 310 713 416zm-231 997q0-362 226-565 227-203 636-203 407 0 636 203 230 203 230 565 0 363-230 566-229 203-636 203-409 0-636-203-226-203-226-566z"/>
</defs>
<use xlink:href="#c"/>
<use x="63.623047" xlink:href="#j"/>
<use x="127.246094" xlink:href="#x"/>
<use x="190.869141" xlink:href="#b"/>
</g>
<use x="457.862201" y="609.12" stroke="#000000" stroke-width=".8" xlink:href="#i"/>
<g transform="translate(445.14 623.72) scale(.1 -.1)">
<use xlink:href="#c"/>
<use x="63.623047" xlink:href="#j"/>
<use x="127.246094" xlink:href="#x"/>
<use x="190.869141" xlink:href="#n"/>
</g>
<use x="536.948381" y="609.12" stroke="#000000" stroke-width=".8" xlink:href="#i"/>
<g transform="translate(524.22 623.72) scale(.1 -.1)">
<use xlink:href="#c"/>
<use x="63.623047" xlink:href="#j"/>
<use x="127.246094" xlink:href="#j"/>
<use x="190.869141" xlink:href="#b"/>
</g>
<use x="616.034561" y="609.12" stroke="#000000" stroke-width=".8" xlink:href="#i"/>
<g transform="translate(603.31 623.72) scale(.1 -.1)">
<use xlink:href="#c"/>
<use x="63.623047" xlink:href="#j"/>
<use x="127.246094" xlink:href="#j"/>
<use x="190.869141" xlink:href="#n"/>
</g>
<use x="695.12074" y="609.12" stroke="#000000" stroke-width=".8" xlink:href="#i"/>
<g transform="translate(682.4 623.72) scale(.1 -.1)">
<defs>
<path id="h" transform="scale(.015625)" d="m1228 531h2203v-531h-2962v531q359 372 979 998 621 627 780 809 303 340 423 576 121 236 121 464 0 372-261 606-261 235-680 235-297 0-627-103-329-103-704-313v638q381 153 712 231 332 78 607 78 725 0 1156-363 431-362 431-968 0-288-108-546-107-257-392-607-78-91-497-524-418-433-1181-1211z"/>
</defs>
<use xlink:href="#h"/>
<use x="63.623047" xlink:href="#b"/>
<use x="127.246094" xlink:href="#b"/>
<use x="190.869141" xlink:href="#b"/>
</g>
<use x="774.250231" y="609.12" stroke="#000000" stroke-width=".8" xlink:href="#i"/>
<g transform="translate(761.53 623.72) scale(.1 -.1)">
<use xlink:href="#h"/>
<use x="63.623047" xlink:href="#b"/>
<use x="127.246094" xlink:href="#b"/>
<use x="190.869141" xlink:href="#n"/>
</g>
<use x="853.336411" y="609.12" stroke="#000000" stroke-width=".8" xlink:href="#i"/>
<g transform="translate(840.61 623.72) scale(.1 -.1)">
<use xlink:href="#h"/>
<use x="63.623047" xlink:href="#b"/>
<use x="127.246094" xlink:href="#c"/>
<use x="190.869141" xlink:href="#b"/>
</g>
<use x="932.42259" y="609.12" stroke="#000000" stroke-width=".8" xlink:href="#i"/>
<g transform="translate(919.7 623.72) scale(.1 -.1)">
<use xlink:href="#h"/>
<use x="63.623047" xlink:href="#b"/>
<use x="127.246094" xlink:href="#c"/>
<use x="190.869141" xlink:href="#n"/>
</g>
<use x="1011.50877" y="609.12" stroke="#000000" stroke-width=".8" xlink:href="#i"/>
<g transform="translate(998.78 623.72) scale(.1 -.1)">
<use xlink:href="#h"/>
<use x="63.623047" xlink:href="#b"/>
<use x="127.246094" xlink:href="#h"/>
<use x="190.869141" xlink:href="#b"/>
</g>
<defs>
<path id="a" d="m0 0v2" stroke="#000" stroke-width=".6"/>
</defs>
<use x="78.196566" y="609.12" stroke="#000000" stroke-width=".6" xlink:href="#a"/>
<use x="94.005139" y="609.12" stroke="#000000" stroke-width=".6" xlink:href="#a"/>
<use x="109.813713" y="609.12" stroke="#000000" stroke-width=".6" xlink:href="#a"/>
<use x="125.622287" y="609.12" stroke="#000000" stroke-width=".6" xlink:href="#a"/>
<use x="157.282745" y="609.12" stroke="#000000" stroke-width=".6" xlink:href="#a"/>
<use x="173.091319" y="609.12" stroke="#000000" stroke-width=".6" xlink:href="#a"/>
<use x="188.899893" y="609.12" stroke="#000000" stroke-width=".6" xlink:href="#a"/>
<use x="204.751778" y="609.12" stroke="#000000" stroke-width=".6" xlink:href="#a"/>
<use x="236.368925" y="609.12" stroke="#000000" stroke-width=".6" xlink:href="#a"/>
<use x="252.177499" y="609.12" stroke="#000000" stroke-width=".6" xlink:href="#a"/>
<use x="268.029384" y="609.12" stroke="#000000" stroke-width=".6" xlink:href="#a"/>
<use x="283.837957" y="609.12" stroke="#000000" stroke-width=".6" xlink:href="#a"/>
<use x="315.455105" y="609.12" stroke="#000000" stroke-width=".6" xlink:href="#a"/>
<use x="331.306989" y="609.12" stroke="#000000" stroke-width=".6" xlink:href="#a"/>
<use x="347.115563" y="609.12" stroke="#000000" stroke-width=".6" xlink:href="#a"/>
<use x="362.924137" y="609.12" stroke="#000000" stroke-width=".6" xlink:href="#a"/>
<use x="394.584595" y="609.12" stroke="#000000" stroke-width=".6" xlink:href="#a"/>
<use x="410.393169" y="609.12" stroke="#000000" stroke-width=".6" xlink:href="#a"/>
<use x="426.201743" y="609.12" stroke="#000000" stroke-width=".6" xlink:href="#a"/>
<use x="442.010316" y="609.12" stroke="#000000" stroke-width=".6" xlink:href="#a"/>
<use x="473.670775" y="609.12" stroke="#000000" stroke-width=".6" xlink:href="#a"/>
<use x="489.479349" y="609.12" stroke="#000000" stroke-width=".6" xlink:href="#a"/>
<use x="505.287922" y="609.12" stroke="#000000" stroke-width=".6" xlink:href="#a"/>
<use x="521.139807" y="609.12" stroke="#000000" stroke-width=".6" xlink:href="#a"/>
<use x="552.756955" y="609.12" stroke="#000000" stroke-width=".6" xlink:href="#a"/>
<use x="568.565528" y="609.12" stroke="#000000" stroke-width=".6" xlink:href="#a"/>
<use x="584.417413" y="609.12" stroke="#000000" stroke-width=".6" xlink:href="#a"/>
<use x="600.225987" y="609.12" stroke="#000000" stroke-width=".6" xlink:href="#a"/>
<use x="631.843134" y="609.12" stroke="#000000" stroke-width=".6" xlink:href="#a"/>
<use x="647.695019" y="609.12" stroke="#000000" stroke-width=".6" xlink:href="#a"/>
<use x="663.503593" y="609.12" stroke="#000000" stroke-width=".6" xlink:href="#a"/>
<use x="679.312166" y="609.12" stroke="#000000" stroke-width=".6" xlink:href="#a"/>
<use x="710.972625" y="609.12" stroke="#000000" stroke-width=".6" xlink:href="#a"/>
<use x="726.781199" y="609.12" stroke="#000000" stroke-width=".6" xlink:href="#a"/>
<use x="742.589772" y="609.12" stroke="#000000" stroke-width=".6" xlink:href="#a"/>
<use x="758.398346" y="609.12" stroke="#000000" stroke-width=".6" xlink:href="#a"/>
<use x="790.058805" y="609.12" stroke="#000000" stroke-width=".6" xlink:href="#a"/>
<use x="805.867378" y="609.12" stroke="#000000" stroke-width=".6" xlink:href="#a"/>
<use x="821.675952" y="609.12" stroke="#000000" stroke-width=".6" xlink:href="#a"/>
<use x="837.527837" y="609.12" stroke="#000000" stroke-width=".6" xlink:href="#a"/>
<use x="869.144984" y="609.12" stroke="#000000" stroke-width=".6" xlink:href="#a"/>
<use x="884.953558" y="609.12" stroke="#000000" stroke-width=".6" xlink:href="#a"/>
<use x="900.805443" y="609.12" stroke="#000000" stroke-width=".6" xlink:href="#a"/>
<use x="916.614016" y="609.12" stroke="#000000" stroke-width=".6" xlink:href="#a"/>
<use x="948.231164" y="609.12" stroke="#000000" stroke-width=".6" xlink:href="#a"/>
<use x="964.083049" y="609.12" stroke="#000000" stroke-width=".6" xlink:href="#a"/>
<use x="979.891622" y="609.12" stroke="#000000" stroke-width=".6" xlink:href="#a"/>
<use x="995.700196" y="609.12" stroke="#000000" stroke-width=".6" xlink:href="#a"/>
<use x="1027.360655" y="609.12" stroke="#000000" stroke-width=".6" xlink:href="#a"/>
<use x="1043.169228" y="609.12" stroke="#000000" stroke-width=".6" xlink:href="#a"/>
<use x="1058.977802" y="609.12" stroke="#000000" stroke-width=".6" xlink:href="#a"/>
<use x="1074.786376" y="609.12" stroke="#000000" stroke-width=".6" xlink:href="#a"/>
<g transform="translate(523.27 640.44) scale(.14 -.14)">
<defs>
<path id="ah" transform="scale(.015625)" d="m1259 2228v-1709h1013q509 0 754 211 246 211 246 645 0 438-246 645-245 208-754 208h-1013zm0 1919v-1406h935q462 0 688 173 227 174 227 530 0 353-227 528-226 175-688 175h-935zm-631 519h1613q722 0 1112-300 391-300 391-853 0-429-200-682t-588-315q466-100 724-418 258-317 258-792 0-625-425-966-425-340-1210-340h-1675v4666z"/>
<path id="q" transform="scale(.015625)" d="m1159 525v-1856h-578v4831h578v-531q182 312 458 463 277 152 661 152 638 0 1036-506 399-506 399-1331t-399-1332q-398-506-1036-506-384 0-661 152-276 152-458 464zm1957 1222q0 634-261 995t-717 361q-457 0-718-361t-261-995 261-995 718-361q456 0 717 361t261 995z"/>
<path id="d" transform="scale(.015625)" d="m3597 1894v-281h-2644q38-594 358-905t892-311q331 0 642 81t618 244v-544q-310-131-635-200t-659-69q-838 0-1327 487-489 488-489 1320 0 859 464 1363 464 505 1252 505 706 0 1117-455 411-454 411-1235zm-575 169q-6 471-264 752-258 282-683 282-481 0-770-272t-333-766l2050 4z"/>
<path id="m" transform="scale(.015625)" d="m581 3500h841l994-2344 997 2344h834v-3500h-578v2950l-966-2278h-575l-969 2278v-2950h-578v3500z"/>
<path id="u" transform="scale(.015625)" d="m1181 2491q0-260 200-407 200-146 572-146h775v1103h-775q-372 0-572-144t-200-406zm-818-2491 1068 1534q-362 82-603 296-240 214-240 661 0 506 335 757 336 252 1015 252h1368v-3500h-578v1478h-715l-1032-1478h-618z"/>
<path id="aa" transform="scale(.015625)" d="m750 794h659v-538l-512-1e3h-403l256 1e3v538z"/>
<path id="ac" transform="scale(.015625)" d="m581 0v3500h2469v-459h-1891v-3041h-578z"/>
<path id="g" transform="scale(.015625)" d="m1959 3097q-462 0-731-361t-269-989 267-989q268-361 733-361 460 0 728 362 269 363 269 988 0 622-269 986-268 364-728 364zm0 487q750 0 1178-488 429-487 429-1349 0-859-429-1349-428-489-1178-489-753 0-1180 489-426 490-426 1349 0 862 426 1349 427 488 1180 488z"/>
<path id="w" transform="scale(.015625)" d="m1384 459h1669v2582h-1209v-438q0-1287-369-1975l-91-169zm-834 0q284 125 409 391 307 659 307 1988v662h2365v-3041h460v-1343h-460v884h-2837v-884h-460v1343h216z"/>
<path id="al" transform="scale(.015625)" d="m3907 3500h575v-3500h-575v3500zm288 84zm-1414-2546q0 281-205 428-204 147-598 147h-819v-1154h819q394 0 598 148 205 149 205 431zm-2200 2462h578v-1428h844q669 0 1030-255 361-254 361-779t-361-782q-361-256-1030-256h-1422v3500z"/>
</defs>
<use xlink:href="#ah"/>
<use x="68.603516" xlink:href="#q"/>
<use x="132.080078" xlink:href="#d"/>
<use x="193.603516" xlink:href="#m"/>
<use x="269.042969" xlink:href="#u"/>
<use x="329.199219" xlink:href="#aa"/>
<use x="360.986328" xlink:href="#DejaVuSans-20"/>
<use x="392.773438" xlink:href="#ac"/>
<use x="445.3125" xlink:href="#g"/>
<use x="506.494141" xlink:href="#w"/>
<use x="575.634766" xlink:href="#al"/>
</g>
<defs>
<path id="f" d="m0 0h-3.5" stroke="#000" stroke-width=".8"/>
</defs>
<use x="55.296" y="609.12" stroke="#000000" stroke-width=".8" xlink:href="#f"/>
<g transform="translate(41.934 612.92) scale(.1 -.1)">
<use xlink:href="#b"/>
</g>
<use x="55.296" y="579.636" stroke="#000000" stroke-width=".8" xlink:href="#f"/>
<g transform="translate(41.934 583.44) scale(.1 -.1)">
<use xlink:href="#c"/>
</g>
<use x="55.296" y="550.152" stroke="#000000" stroke-width=".8" xlink:href="#f"/>
<g transform="translate(41.934 553.95) scale(.1 -.1)">
<use xlink:href="#h"/>
</g>
<use x="55.296" y="520.668" stroke="#000000" stroke-width=".8" xlink:href="#f"/>
<g transform="translate(41.934 524.47) scale(.1 -.1)">
<defs>
<path id="ai" transform="scale(.015625)" d="m2597 2516q453-97 707-404 255-306 255-756 0-690-475-1069-475-378-1350-378-293 0-604 58t-642 174v609q262-153 574-231 313-78 654-78 593 0 904 234t311 681q0 413-289 645-289 233-804 233h-544v519h569q465 0 712 186t247 536q0 359-255 551-254 193-729 193-260 0-557-57-297-56-653-174v562q360 100 674 150t592 50q719 0 1137-327 419-326 419-882 0-388-222-655t-631-370z"/>
</defs>
<use xlink:href="#ai"/>
</g>
<use x="55.296" y="491.184" stroke="#000000" stroke-width=".8" xlink:href="#f"/>
<g transform="translate(41.934 494.98) scale(.1 -.1)">
<defs>
<path id="z" transform="scale(.015625)" d="m2419 4116-1594-2491h1594v2491zm-166 550h794v-3041h666v-525h-666v-1100h-628v1100h-2106v609l1940 2957z"/>
</defs>
<use xlink:href="#z"/>
</g>
<use x="55.296" y="461.7" stroke="#000000" stroke-width=".8" xlink:href="#f"/>
<g transform="translate(41.934 465.5) scale(.1 -.1)">
<use xlink:href="#n"/>
</g>
<use x="55.296" y="432.216" stroke="#000000" stroke-width=".8" xlink:href="#f"/>
<g transform="translate(41.934 436.02) scale(.1 -.1)">
<use xlink:href="#t"/>
</g>
<use x="55.296" y="402.732" stroke="#000000" stroke-width=".8" xlink:href="#f"/>
<g transform="translate(41.934 406.53) scale(.1 -.1)">
<use xlink:href="#y"/>
</g>
<use x="55.296" y="373.248" stroke="#000000" stroke-width=".8" xlink:href="#f"/>
<g transform="translate(41.934 377.05) scale(.1 -.1)">
<use xlink:href="#x"/>
</g>
<use x="55.296" y="343.764" stroke="#000000" stroke-width=".8" xlink:href="#f"/>
<g transform="translate(41.934 347.56) scale(.1 -.1)">
<use xlink:href="#j"/>
</g>
<use x="55.296" y="314.28" stroke="#000000" stroke-width=".8" xlink:href="#f"/>
<g transform="translate(35.571 318.08) scale(.1 -.1)">
<use xlink:href="#c"/>
<use x="63.623047" xlink:href="#b"/>
</g>
<use x="55.296" y="284.796" stroke="#000000" stroke-width=".8" xlink:href="#f"/>
<g transform="translate(35.571 288.6) scale(.1 -.1)">
<use xlink:href="#c"/>
<use x="63.623047" xlink:href="#c"/>
</g>
<use x="55.296" y="255.312" stroke="#000000" stroke-width=".8" xlink:href="#f"/>
<g transform="translate(35.571 259.11) scale(.1 -.1)">
<use xlink:href="#c"/>
<use x="63.623047" xlink:href="#h"/>
</g>
<use x="55.296" y="225.828" stroke="#000000" stroke-width=".8" xlink:href="#f"/>
<g transform="translate(35.571 229.63) scale(.1 -.1)">
<use xlink:href="#c"/>
<use x="63.623047" xlink:href="#ai"/>
</g>
<use x="55.296" y="196.344" stroke="#000000" stroke-width=".8" xlink:href="#f"/>
<g transform="translate(35.571 200.14) scale(.1 -.1)">
<use xlink:href="#c"/>
<use x="63.623047" xlink:href="#z"/>
</g>
<use x="55.296" y="166.86" stroke="#000000" stroke-width=".8" xlink:href="#f"/>
<g transform="translate(35.571 170.66) scale(.1 -.1)">
<use xlink:href="#c"/>
<use x="63.623047" xlink:href="#n"/>
</g>
<use x="55.296" y="137.376" stroke="#000000" stroke-width=".8" xlink:href="#f"/>
<g transform="translate(35.571 141.18) scale(.1 -.1)">
<use xlink:href="#c"/>
<use x="63.623047" xlink:href="#t"/>
</g>
<use x="55.296" y="107.892" stroke="#000000" stroke-width=".8" xlink:href="#f"/>
<g transform="translate(35.571 111.69) scale(.1 -.1)">
<use xlink:href="#c"/>
<use x="63.623047" xlink:href="#y"/>
</g>
<use x="55.296" y="78.408" stroke="#000000" stroke-width=".8" xlink:href="#f"/>
<g transform="translate(35.571 82.207) scale(.1 -.1)">
<use xlink:href="#c"/>
<use x="63.623047" xlink:href="#x"/>
</g>
<use x="55.296" y="48.924" stroke="#000000" stroke-width=".8" xlink:href="#f"/>
<g transform="translate(35.571 52.723) scale(.1 -.1)">
<use xlink:href="#c"/>
<use x="63.623047" xlink:href="#j"/>
</g>
<use x="55.296" y="19.44" stroke="#000000" stroke-width=".8" xlink:href="#f"/>
<g transform="translate(35.571 23.239) scale(.1 -.1)">
<use xlink:href="#h"/>
<use x="63.623047" xlink:href="#b"/>
</g>
<g transform="translate(28.659 383.46) rotate(-90) scale(.14 -.14)">
<defs>
<path id="aq" transform="scale(.015625)" d="m3125 0v1913h-1303q-581 0-928 364t-347 1107v1282h628v-1232q0-496 194-743t581-247h1175v2222h634v-4666h-634z"/>
<path id="v" transform="scale(.015625)" d="m238 0v478q568 88 743 481 213 554 213 1969v572h2365v-3500h-575v3041h-1215v-347q0-1350-275-1956-294-647-1256-738z"/>
<path id="p" transform="scale(.015625)" d="m1156 1613v-1154h819q394 0 600 148 206 149 206 431 0 281-206 428t-600 147h-819zm0 1428v-969h757q325 0 531 129 206 130 206 362 0 231-206 354-206 124-531 124h-757zm-575 459h1369q616 0 947-225t331-641q0-321-169-511-168-189-500-235 397-75 616-313 219-237 219-594 0-468-361-725-361-256-1030-256h-1422v3500z"/>
<path id="r" transform="scale(.015625)" d="m581 3500h572v-1644l1622 1644h706l-1337-1353 1509-2147h-644l-1240 1766-616-625v-1141h-572v3500z"/>
<path id="k" transform="scale(.015625)" d="m3122 3366v-538q-244 135-489 202t-495 67q-560 0-870-355-309-354-309-995t309-996q310-354 870-354 250 0 495 67t489 202v-532q-241-112-499-168-257-57-548-57-791 0-1257 497-465 497-465 1341 0 856 470 1346 471 491 1290 491 265 0 518-55 253-54 491-163z"/>
</defs>
<use xlink:href="#aq"/>
<use x="68.554688" xlink:href="#d"/>
<use x="130.078125" xlink:href="#v"/>
<use x="193.994141" xlink:href="#g"/>
<use x="255.175781" xlink:href="#p"/>
<use x="314.111328" xlink:href="#d"/>
<use x="375.634766" xlink:href="#r"/>
<use x="436.035156" xlink:href="#DejaVuSans-20"/>
<use x="467.822266" xlink:href="#p"/>
<use x="526.757812" xlink:href="#DejaVuSans-20"/>
<use x="558.544922" xlink:href="#r"/>
<use x="618.945312" xlink:href="#g"/>
<use x="680.126953" xlink:href="#k"/>
<use x="735.107422" xlink:href="#m"/>
<use x="810.546875" xlink:href="#g"/>
<use x="871.728516" xlink:href="#k"/>
<use x="926.708984" xlink:href="#d"/>
</g>
<path d="m82.582 579.64h0.003008v29.484h1.0084v-29.484l4.62e-4 29.484h3.3305v-29.484l4.69e-4 29.484h0.68108v-29.484l0.045567 29.484h8.5459v-29.484l0.008885 29.484h4.0154v-29.484l0.008906 29.484h2.3367v-29.484l3.11e-4 29.484h1.068l0.042478-58.968h0.12758l2.1e-4 58.968h2.132v-29.484l0.016638 29.484h4.5865v-29.484l2.93e-4 29.484h5.0997v-29.484l0.061953 29.484h1.2354l0.082138-58.968h0.12768l0.004932 58.968h0.35723v-29.484l3.14e-4 29.484h0.95325v-29.484l3.43e-4 29.484h1.4718v-29.484l3.36e-4 29.484h18.043v-88.452l0.043824 88.452h6.7551v-58.968l0.046989 58.968h0.18292v-58.968l0.008798 58.968h3.1112v-58.968h0.17674v58.968h0.95312v-29.484l3.17e-4 29.484h1.8206v-29.484l8.38e-4 29.484h0.46763v-58.968h0.34454v58.968h1.3069v-29.484l3.59e-4 29.484h0.6974v-29.484l2.85e-4 29.484h2.2081v-58.968h0.46582v-58.968l0.04666 58.968h0.084104v58.968h3.8161v-58.968l0.019292 58.968h3.3968v-58.968h0.13056v58.968h1.8341v-58.968h0.12773v58.968h2.2839v-58.968h0.12864v58.968h2.049v-29.484l3.23e-4 29.484h0.43166v-58.968h0.17067v58.968h6.8526v-29.484l0.04836 29.484h7.6468v-29.484l3.04e-4 29.484h1.259v-29.484l1.46e-4 29.484h12.123v-29.484l2.82e-4 29.484h2.2067v-88.452h0.46948v88.452h0.16851v-29.484h0.17116v29.484h2.262v-88.452h0.2653v88.452h0.76451l0.042558-117.94h0.086196l0.045369 117.94h1.9202v-88.452h0.43494v88.452h2.8582v-88.452h0.34659v88.452h2.2028v-88.452h0.35246v88.452h3.4113l0.085093-206.39h0.12914l0.085335 206.39h1.1824v-88.452h0.44143v88.452h5.9738v-88.452h0.2579v88.452h1.9506v-58.968h0.76694v58.968h9.8047v-88.452h0.38986v88.452h3.1235v-88.452l0.086198 88.452h1.8285v-88.452h1.0293v88.452h1.1519v-88.452h0.53272v88.452h10.953v-88.452h0.47976v88.452h9.6761v-88.452h0.54476v88.452h6.7883v-88.452h1.2142v88.452h1.5544v-88.452h2.5755v88.452l0.068527-58.968h0.085285v58.968h2.0834v-88.452h1.3822v-58.968h0.34094v58.968h1.9173v88.452h6.2866v-58.968h0.68126v58.968h1.6596v-58.968l0.086989 58.968h4.1389v-58.968h0.25697v58.968h1.4539v-58.968h1.2801v58.968h2.3822v-58.968l6.45e-4 58.968h2.1286v-58.968h2.2474l0.013536-147.42h0.24365v58.968h0.14881l0.073987 147.42h14.982v-58.968h2.1338v58.968h0.93709v-58.968h0.34265v58.968h0.92754v-58.968l0.08682 58.968h4.9346v-58.968h0.76775v58.968h9.7758v-58.968l0.087968 58.968h2.5949v-58.968h1.3627v-58.968h0.25803v58.968h1.9563v-58.968h0.34336v58.968h0.25549v58.968h3.9575v-58.968h0.51103v-58.968h0.34297v58.968h2.2546v-58.968h0.34075v58.968h2.5976v58.968h4.9823v-58.968h1.9159v-58.968l0.084851 58.968h5.5797v58.968h10.137v-58.968h2.0441v-58.968h0.34065v58.968l0.085212-58.968h0.17022v58.968h1.9163v-58.968h0.34053v58.968h2.1293v-58.968h0.34058v58.968h0.6387v58.968h2.0437v-88.452h0.55425v88.452h4.0019v-58.968h0.42586v-58.968h0.34054v58.968h0.56362v-58.968l0.098075 58.968h1.2974v-58.968h0.34053v58.968h0.17081v58.968h7.3675v-58.968l0.097848 58.968h5.5341v-58.968h0.34663v58.968h1.8947v-58.968h1.8308v-88.452h0.12723v-58.968h0.21537l0.0899 147.42h1.9942v-88.452h0.34265v88.452h3.2867v-117.94h0.2206v117.94h1.0476v58.968h4.9798v-117.94h0.21727v117.94h0.46611v-88.452l0.087158 88.452h2.4653v-147.42h0.2642v147.42h0.12137v-58.968h2.7671v-147.42h0.26193v147.42h3.4438v58.968h0.20939v-176.9h0.44717v176.9h2.4493v-147.42h0.21498v-88.452h0.13019v147.42h2.2538v-88.452h0.13142v-147.42h0.21086l0.091715 235.87h4.1219v-88.452h0.51115v88.452h1.3855v-176.9h0.26155v176.9h1.1645v88.452h0.13013v-206.39h0.35622v206.39h1.1185v-147.42h0.34604v147.42h3.0026v-147.42h0.13274v147.42h3.235v-206.39h0.30304v206.39h0.43696v-206.39h0.30344v206.39h1.3255v-58.968h0.48524v-206.39h0.30615v206.39h1.53v-206.39h0.34425v206.39h0.89367v-147.42h0.30732v147.42h0.60525v-88.452h0.38478v58.968h0.31291v-147.42h0.17639v147.42h0.99615v-235.87h0.30453v235.87h0.63662v88.452h0.24176v-206.39h0.29791v206.39h1.715v-206.39h0.26359v206.39h2.3362v-58.968h5.4139v58.968h8.8518v-58.968h7.1975v-88.452h0.34483v88.452h6.2553v-88.452h0.34283v88.452h6.9817v-88.452h0.42617v88.452h3.1512v-88.452h0.38338v58.968h0.97954v-147.42h0.17506v147.42h2.3374v-88.452h0.25749v-147.42h0.18966v147.42h0.62503v88.452h3.5605v-147.42h0.21592v147.42h1.7115v88.452h0.33172v-147.42h0.17494v147.42h3.9718v-147.42h0.21836v147.42h1.0106v-58.968h1.8538v-147.42h0.21594v147.42h1.3135v-147.42h0.21676v147.42h1.8409v-147.42h0.47103v147.42h0.94684v-58.968h0.34349v58.968h0.39564v-147.42h0.19184v147.42h2.1988v-147.42h0.21884v147.42h4.0635v-58.968h0.34293v58.968h2.5197v-147.42h0.17716v147.42h1.577v-147.42h0.21278v147.42h0.49285l0.002543-294.84h0.34272l0.042889 294.84h4.9961v-147.42h0.25905v147.42h0.73201v-206.39h0.35979v206.39h0.50875v-88.452h0.34149v88.452h0.43915v-206.39h0.39384v206.39h2.1211v-147.42h0.38503v147.42h1.4054v-147.42h0.23182v147.42h0.60338v-88.452h0.34326v88.452h1.9842v-176.9h0.30109v176.9h2.2383v-206.39h0.34874v206.39h2.0262v-88.452h0.30736v-206.39l0.035413 88.452h0.35106v206.39h1.5381v-206.39h0.38492v206.39h1.7239v-206.39h0.59824v206.39h0.76956v-88.452h0.18732v-206.39h0.34514l0.064762 294.84h1.4533v-206.39h0.34379v206.39h1.3937v-176.9h0.42758v176.9h1.3414v-147.42h0.31641v147.42h1.5037v-147.42h0.25921v147.42h0.20273v-58.968h0.34258v58.968h2.8616v-147.42h0.40088v147.42h0.3956v-206.39h0.43251v206.39h1.9898v-176.9h0.43266v176.9l0.003029-88.452h0.89536v88.452h2.2613v-147.42h0.42623v147.42h1.1386v-206.39h0.60673v206.39h1.3325v-206.39h0.46916v206.39h1.1345v-88.452h0.25664v58.968h0.87319v-176.9h0.3594v176.9h0.89972v-147.42h0.60505v147.42h0.9491v-176.9h0.48694v176.9h3.1103v-58.968h0.31094v-206.39l0.032171 58.968h0.60652v206.39h2.1001v-176.9h0.47432v176.9h0.41516v-176.9h0.15058v-88.452h0.33625v176.9h0.99608v-176.9l0.033047 88.452h0.44079v176.9h3.4898v-176.9h0.35817v176.9h0.81352v-206.39h0.51893v-88.452h0.20138v206.39h0.14128v88.452h4.2291v-206.39h0.42476v235.87h0.25768v-147.42h0.3868v147.42h1.8569v-88.452h0.18433v-147.42h0.15832v58.968h0.31176v147.42h1.39v-206.39h0.68914v206.39h0.30454v-147.42h0.35463v147.42h2.2389v-176.9h0.38621v176.9h1.3948l0.057265-265.36h0.28586v88.452h0.3957v206.39h0.55266v-176.9h0.3993v147.42h2.1169v-176.9h0.4343v176.9h0.95945v-206.39h0.73231v206.39h1.777v-88.452h0.68286v88.452h0.60856v-176.9h0.43908v176.9h2.3527v-147.42h0.76496v147.42h1.5549v-176.9h0.442v176.9h0.82251l0.03386-294.84h0.43242v206.39h0.38654v88.452h1.452v-206.39h0.17182v206.39h1.5837v-206.39h0.39942v206.39h1.6541v-206.39h0.67988v206.39h0.83161l0.084971-235.87h0.29885v58.968h0.21448v176.9h1.6304v-206.39h0.46803v206.39h1.9018v-176.9h0.67957v176.9h2.105v-206.39h0.28469v-88.452l0.097494 206.39h0.79871v88.452h2.4852v-206.39h0.68907v206.39h1.3101v-176.9h0.42571v206.39h2.6703v-88.452h0.51196v88.452h2.8403v-206.39h0.38571v206.39h1.1541v-176.9h0.51125v176.9h2.8593v-88.452h0.34277v58.968h3.8269v-206.39h0.42448v206.39h2.0329v-147.42h0.21444v147.42h1.3376v88.452h4.9379v-206.39h0.34501v206.39h1.981v-176.9h0.48661v176.9h1.786v-58.968h1.9583v-206.39h0.42617v206.39h0.76948v58.968h3.6599v-206.39h0.51104v206.39h0.93721v-206.39h0.55892v206.39h0.27951v-88.452h1.334v-147.42h0.46912v147.42h2.5123v-147.42h0.55824v147.42h0.67701v-206.39h0.55551v206.39h1.2761v-206.39h0.36985v-88.452h0.14538v206.39h0.19763v88.452h2.9079v-147.42h0.55327v147.42h0.7246v-206.39h0.5147v206.39h2.5817v-88.452h0.42589v88.452h1.5472v-206.39h0.51178v206.39h3.1932v-206.39h0.47311v206.39h1.1896v-206.39h0.46868v206.39h0.24181v-88.452h0.42846v88.452h1.3743v-206.39h0.60019v206.39h4.7675v-176.9h0.46914v176.9h0.4971v-88.452h0.4708v88.452h0.60772v-206.39h0.59696v206.39h1.7253v-206.39h0.69004v206.39h3.6199v-58.968h0.3432v88.452h7.1011v-29.484l0.038587 29.484h0.099708v-88.452h0.42777v88.452h7.5373v-88.452h0.47078v88.452h2.2786v-29.484l7.22e-4 29.484h4.331v-29.484l7.27e-4 29.484h0.21521v-29.484l7.2e-4 29.484h0.41126v-88.452h0.42856v88.452h7.4932v-88.452h0.42836v88.452h4.0144v-206.39h0.60192v206.39h2.2806v-88.452h0.42815v88.452l0.043018-58.968h0.20852v58.968h7.1138v-88.452h0.42821v88.452h3.7588v-206.39h0.55332v176.9h2.3424v-176.9h0.36976v-88.452h0.14114v176.9h0.33001v88.452h3.1194v-206.39h0.55716v206.39h4.5819v-88.452h0.59733v88.452h2.099v-206.39h0.59949v206.39h2.0406v-206.39h0.55208v206.39h2.1599v-88.452h0.4714v88.452l0.095721-206.39h0.65397v206.39h3.9878v-206.39h0.55287v206.39h0.85242v-206.39h0.68248v206.39h0.53891v-88.452h0.4714v88.452h1.8417v-206.39h0.59592v206.39h4.4573v-88.452h0.12354v88.452h0.60166v-88.452h0.51358v88.452h0.948v-206.39h0.68665v206.39h4.5518v-206.39h0.45494v-88.452l0.099981 206.39h0.45482v88.452h1.4487v-206.39h0.55875v206.39h0.12078v-88.452h2.1429v-206.39h0.6799v206.39h1.2365v-206.39h0.60075v206.39h0.79107v-88.452h0.47152v88.452h1.5862v-176.9h0.46789v206.39h0.15975v88.452h0.84927v-88.452h2.1428v-176.9h0.59572v176.9h1.0107v58.968h0.67976v-88.452h0.14127v-206.39h0.6547v206.39h1.0488v-176.9h0.50975v176.9h0.28623v88.452h0.59585v-88.452h4.3885v88.452h0.55185v-88.452h2.1324v88.452h0.84886v-88.452h3.08v-176.9h0.55414v176.9h0.28683v88.452h0.84892v-88.452h1.8022v-176.9h0.32755v88.452h0.35395v176.9h0.28447v-88.452h1.3341v-117.94h0.55306v117.94h2.458v88.452h2.5558v-88.452h0.34322v88.452h1.2756v-88.452h5.5411v88.452h0.76383v-88.452h1.3997v-88.452h0.54754l0.097832 176.9h0.59629v-88.452h2.7723v88.452h1.5736v-88.452h1.1532v88.452h1.318v-88.452h3.7516v88.452h0.55153v-88.452h2.0028v88.452h0.63886v-88.452h0.58671v-88.452h0.63249v88.452h3.3401v88.452h0.63885v-88.452h1.8322v-88.452h0.17068v88.452h5.1984v88.452h0.63865v-88.452h2.1307v88.452h0.63883v-88.452h4.5593v88.452h0.6389v-88.452h1.9627v88.452h0.5938v-88.452h4.6868v88.452h0.68141v-88.452h3.2808v88.452h1.789v-88.452h1.7894v-88.452h0.42631v88.452h3.9203v88.452h0.16935v-88.452h3.3663v88.452h0.72368v-88.452h3.9626v88.452h0.80912v-88.452h2.6846v88.452h1.7293l0.1021-147.42h0.469v88.452h0.80913v-88.452l0.017408 58.968h6.2032v88.452h0.42569v-58.968h1.8749v58.968h2.4282v-88.452h1.5767v88.452h0.42575v-88.452h4.0051v88.452h0.12762v-88.452h3.153v88.452h0.937v-88.452h3.1958v88.452h0.12733v-88.452h5.1983v88.452h0.29763v-58.968l5.92e-4 58.968h2.3001v-88.452h0.44117v-58.968l4.25e-4 58.968h0.28297v88.452h2.7933v-88.452l4.55e-4 88.452h0.86999v-88.452h4.4314v88.452h1.1074v-88.452h2.8973v-88.452h0.34112v88.452h5.454v88.452h2.7266v-88.452h0.34142v88.452h1.8878v-58.968h2.7709v58.968h3.1382v-88.452h0.34135v88.452h1.0784v-117.94h6.2499v-88.452h0.34145v88.452h0.2687v-117.94h0.38462v117.94h0.88154v-58.968l5.11e-4 58.968h1.1002v-88.452h1.0648v-176.9l4.58e-4 176.9h0.38531v-117.94l3.06e-4 117.94h2.488v-117.94l0.053274 88.452h0.074972v117.94h0.71067v-88.452h0.35714v-117.94l0.089472 29.484h0.065327v88.452h0.99426v117.94l0.083938-117.94h1.1795v-88.452h0.14324v-176.9l3.04e-4 176.9h0.36823v88.452h3.8343v-88.452h0.51171v88.452l0.047805-176.9 3e-4 176.9h0.34857v-117.94h0.32241v88.452h0.41715v117.94l0.069987-117.94h0.38409v117.94h1.2717v-176.9l0.024032 88.452h2.6189v-176.9l3.08e-4 176.9h2.0786v-88.452h0.34114v88.452h0.26901v-117.94h0.39865v117.94h1.0372v0 294.84 0" clip-path="url(#e)" fill="none" stroke="#00f" stroke-linecap="square" stroke-width=".9"/>
<path d="m174.22 609.12v-589.68" clip-path="url(#e)" fill="none" stroke="#f00" stroke-dasharray="5.55,2.4" stroke-width="1.5"/>
<path d="m177.94 609.12v-589.68" clip-path="url(#e)" fill="none" stroke="#f00" stroke-dasharray="5.55,2.4" stroke-width="1.5"/>
<path d="m244.12 609.12v-589.68" clip-path="url(#e)" fill="none" stroke="#f00" stroke-dasharray="5.55,2.4" stroke-width="1.5"/>
<path d="m474.84 609.12v-589.68" clip-path="url(#e)" fill="none" stroke="#f00" stroke-dasharray="5.55,2.4" stroke-width="1.5"/>
<path d="m743.93 609.12v-589.68" clip-path="url(#e)" fill="none" stroke="#f00" stroke-dasharray="5.55,2.4" stroke-width="1.5"/>
<path d="m716.04 609.12v-589.68" clip-path="url(#e)" fill="none" stroke="#008000" stroke-dasharray="5.55,2.4" stroke-width="1.5"/>
<path d="m1018 609.12v-589.68" clip-path="url(#e)" fill="none" stroke="#008000" stroke-dasharray="5.55,2.4" stroke-width="1.5"/>
<path d="m1035.6 609.12v-589.68" clip-path="url(#e)" fill="none" stroke="#008000" stroke-dasharray="5.55,2.4" stroke-width="1.5"/>
<path d="m1036 609.12v-589.68" clip-path="url(#e)" fill="none" stroke="#008000" stroke-dasharray="5.55,2.4" stroke-width="1.5"/>
<path d="m1038.5 609.12v-589.68" clip-path="url(#e)" fill="none" stroke="#008000" stroke-dasharray="5.55,2.4" stroke-width="1.5"/>
<path d="m55.296 609.12v-589.68" fill="none" stroke="#000" stroke-linecap="square" stroke-width=".8"/>
<path d="m1082.9 609.12v-589.68" fill="none" stroke="#000" stroke-linecap="square" stroke-width=".8"/>
<path d="m55.296 609.12h1027.6" fill="none" stroke="#000" stroke-linecap="square" stroke-width=".8"/>
<path d="m55.296 19.44h1027.6" fill="none" stroke="#000" stroke-linecap="square" stroke-width=".8"/>
<path d="m55.296 609.12h1027.6" clip-path="url(#e)" fill="none" stroke="#b0b0b0" stroke-dasharray="0.8,1.32" stroke-width=".8"/>
<defs>
<path id="l" d="m0 0h3.5" stroke="#000" stroke-width=".8"/>
</defs>
<use x="1082.88" y="609.12" stroke="#000000" stroke-width=".8" xlink:href="#l"/>
<g transform="translate(1089.9 612.92) scale(.1 -.1)">
<use xlink:href="#b"/>
</g>
<path d="m55.296 542.49h1027.6" clip-path="url(#e)" fill="none" stroke="#b0b0b0" stroke-dasharray="0.8,1.32" stroke-width=".8"/>
<use x="1082.88" y="542.489492" stroke="#000000" stroke-width=".8" xlink:href="#l"/>
<g transform="translate(1089.9 546.29) scale(.1 -.1)">
<use xlink:href="#h"/>
<use x="63.623047" xlink:href="#b"/>
</g>
<path d="m55.296 475.86h1027.6" clip-path="url(#e)" fill="none" stroke="#b0b0b0" stroke-dasharray="0.8,1.32" stroke-width=".8"/>
<use x="1082.88" y="475.858983" stroke="#000000" stroke-width=".8" xlink:href="#l"/>
<g transform="translate(1089.9 479.66) scale(.1 -.1)">
<use xlink:href="#z"/>
<use x="63.623047" xlink:href="#b"/>
</g>
<path d="m55.296 409.23h1027.6" clip-path="url(#e)" fill="none" stroke="#b0b0b0" stroke-dasharray="0.8,1.32" stroke-width=".8"/>
<use x="1082.88" y="409.228475" stroke="#000000" stroke-width=".8" xlink:href="#l"/>
<g transform="translate(1089.9 413.03) scale(.1 -.1)">
<use xlink:href="#t"/>
<use x="63.623047" xlink:href="#b"/>
</g>
<path d="m55.296 342.6h1027.6" clip-path="url(#e)" fill="none" stroke="#b0b0b0" stroke-dasharray="0.8,1.32" stroke-width=".8"/>
<use x="1082.88" y="342.597966" stroke="#000000" stroke-width=".8" xlink:href="#l"/>
<g transform="translate(1089.9 346.4) scale(.1 -.1)">
<use xlink:href="#x"/>
<use x="63.623047" xlink:href="#b"/>
</g>
<path d="m55.296 275.97h1027.6" clip-path="url(#e)" fill="none" stroke="#b0b0b0" stroke-dasharray="0.8,1.32" stroke-width=".8"/>
<use x="1082.88" y="275.967458" stroke="#000000" stroke-width=".8" xlink:href="#l"/>
<g transform="translate(1089.9 279.77) scale(.1 -.1)">
<use xlink:href="#c"/>
<use x="63.623047" xlink:href="#b"/>
<use x="127.246094" xlink:href="#b"/>
</g>
<path d="m55.296 209.34h1027.6" clip-path="url(#e)" fill="none" stroke="#b0b0b0" stroke-dasharray="0.8,1.32" stroke-width=".8"/>
<use x="1082.88" y="209.336949" stroke="#000000" stroke-width=".8" xlink:href="#l"/>
<g transform="translate(1089.9 213.14) scale(.1 -.1)">
<use xlink:href="#c"/>
<use x="63.623047" xlink:href="#h"/>
<use x="127.246094" xlink:href="#b"/>
</g>
<path d="m55.296 142.71h1027.6" clip-path="url(#e)" fill="none" stroke="#b0b0b0" stroke-dasharray="0.8,1.32" stroke-width=".8"/>
<use x="1082.88" y="142.706441" stroke="#000000" stroke-width=".8" xlink:href="#l"/>
<g transform="translate(1089.9 146.51) scale(.1 -.1)">
<use xlink:href="#c"/>
<use x="63.623047" xlink:href="#z"/>
<use x="127.246094" xlink:href="#b"/>
</g>
<path d="m55.296 76.076h1027.6" clip-path="url(#e)" fill="none" stroke="#b0b0b0" stroke-dasharray="0.8,1.32" stroke-width=".8"/>
<use x="1082.88" y="76.075932" stroke="#000000" stroke-width=".8" xlink:href="#l"/>
<g transform="translate(1089.9 79.875) scale(.1 -.1)">
<use xlink:href="#c"/>
<use x="63.623047" xlink:href="#t"/>
<use x="127.246094" xlink:href="#b"/>
</g>
<g transform="translate(1123.6 480.82) rotate(-90) scale(.14 -.14)">
<defs>
<path id="ag" transform="scale(.015625)" d="m4184 4666v-4666h-631v4134h-2294v-4134h-631v4666h3556z"/>
<path id="o" transform="scale(.015625)" d="m581 3500h578v-1428h1866v1428h578v-3500h-578v1613h-1866v-1613h-578v3500z"/>
<path id="ad" transform="scale(.015625)" d="m2625 0v1472h-1072q-478 0-797 297-287 269-287 844v887h575v-834q0-366 162-550 166-185 491-185h928v1569h575v-3500h-575z"/>
<path id="at" transform="scale(.015625)" d="m313 2009h1684v-512h-1684v512z"/>
<path id="am" transform="scale(.015625)" d="m188 3500h3353v-459h-1394v-3041h-566v3041h-1393v459z"/>
</defs>
<use xlink:href="#ag"/>
<use x="75.195312" xlink:href="#q"/>
<use x="138.671875" xlink:href="#g"/>
<use x="199.853516" xlink:href="#p"/>
<use x="258.789062" xlink:href="#d"/>
<use x="320.3125" xlink:href="#w"/>
<use x="389.453125" xlink:href="#d"/>
<use x="450.976562" xlink:href="#o"/>
<use x="516.357422" xlink:href="#o"/>
<use x="581.738281" xlink:href="#g"/>
<use x="642.919922" xlink:href="#d"/>
<use x="704.443359" xlink:href="#DejaVuSans-20"/>
<use x="736.230469" xlink:href="#p"/>
<use x="795.166016" xlink:href="#q"/>
<use x="858.642578" xlink:href="#d"/>
<use x="920.166016" xlink:href="#m"/>
<use x="995.605469" xlink:href="#u"/>
<use x="1055.761719" xlink:href="#DejaVuSans-20"/>
<use x="1087.548828" xlink:href="#p"/>
<use x="1146.484375" xlink:href="#DejaVuSans-20"/>
<use x="1178.271484" xlink:href="#r"/>
<use x="1238.671875" xlink:href="#g"/>
<use x="1299.853516" xlink:href="#k"/>
<use x="1354.833984" xlink:href="#m"/>
<use x="1430.273438" xlink:href="#g"/>
<use x="1491.455078" xlink:href="#k"/>
<use x="1546.435547" xlink:href="#d"/>
<use x="1607.958984" xlink:href="#aa"/>
<use x="1639.746094" xlink:href="#DejaVuSans-20"/>
<use x="1671.533203" xlink:href="#ad"/>
<use x="1730.615234" xlink:href="#d"/>
<use x="1792.138672" xlink:href="#v"/>
<use x="1856.054688" xlink:href="#g"/>
<use x="1917.236328" xlink:href="#p"/>
<use x="1976.171875" xlink:href="#d"/>
<use x="2037.695312" xlink:href="#r"/>
<use x="2098.095703" xlink:href="#g"/>
<use x="2159.277344" xlink:href="#at"/>
<use x="2195.361328" xlink:href="#v"/>
<use x="2259.277344" xlink:href="#d"/>
<use x="2320.800781" xlink:href="#am"/>
</g>
<path d="m82.582 609.12 0.003008-6.33e-4 34.435-0.11024 0.13261-0.054819 30.975-0.051395 0.17674-0.074443 3.2426-2.43e-4 0.34454-0.14512 4.2131-1.35e-4 0.59658-0.27094 9.1969-0.063118 0.12773-0.053799 4.8935-0.054253 0.17067-0.071889 30.137-0.010338 0.63798-0.29662 0.17116-0.036047h2.262l0.2653-0.16762 2.8588-0.09113 0.43494-0.2748h2.8582l0.34659-0.21898h2.2028l0.35246-0.22269 3.4964-0.06272 0.21448-0.25316h1.1824l0.44143-0.2789h5.9738l0.2579-0.16294h1.9506l0.76694-0.32304h9.8047l0.38986-0.24632 5.0382-0.054461 1.0293-0.65031h1.1519l0.53272-0.33658h10.953l0.47976-0.30312h9.6761l0.54476-0.34418h6.7883l1.2142-0.76714h1.5544l2.7293-1.6631h2.0834l1.3822-0.87325 0.34094-0.35902 1.9173-1.2114h6.2866l0.68126-0.28695 5.8855-0.03664 0.25697-0.10824h1.4539l1.2801-0.53917 4.5114-2.72e-4 2.261-0.95802 0.46644-0.54705h14.982l2.1338-0.89876h0.93709l0.34265-0.14432 5.949-0.036569 0.76775-0.32338 12.459-0.037053 3.5771-1.6154 0.59886-0.39686h3.9575l0.51103-0.21525 0.34297-0.28892 2.2546-0.94965 0.34075-0.28705 2.5976-1.0941h4.9823l7.5805-3.2287h10.137l2.0441-0.86099 0.59608-0.46625 1.9163-0.80717 0.34053-0.28687 2.1293-0.89689 0.34058-0.2869 0.6387-0.26902h2.0437l0.55425-0.35018h4.0019l0.42586-0.17937 0.34054-0.28687 1.9591-0.86649 0.51134-0.35881 12.999-0.041214 0.34663-0.146h1.8947l1.9581-0.90514 0.30527-0.39324 1.9942-0.83996 0.34265-0.36082 3.2867-1.3844 0.2206-0.27875 1.0476-0.44124h4.9798l0.21727-0.18303 3.0185-0.055067 0.38557-0.2782 2.7671-1.1655 0.26193-0.38615 3.6532-1.4505 0.44717-0.56505h2.4493l0.34516-0.44571 2.3852-1.59 0.30258-0.64302 4.1219-2.6042 0.51115-0.64589 1.3855-0.8754 0.26155-0.49575 1.2947-0.73577 0.35622-0.52514h1.1185l0.34604-0.36438h3.0026l0.13274-0.13978h3.235l0.30304-0.44674h0.43696l0.30344-0.44734h1.3255l0.48524-0.20438 0.30615-0.58029 1.53-0.64443 0.34425-0.65249 0.89367-0.37642 0.30732-0.45305 0.60525-0.25493 0.87408-0.90006 0.99615-0.62937 0.30453-0.70547 0.63662-0.40222h0.24176l0.29791-0.43918h1.715l0.26359-0.38859h2.3362l5.4139-2.2804h8.8518l7.1975-3.0316 0.34483-0.36311 6.2553-2.6347 0.34283-0.361 6.9817-2.9407 0.42617-0.44876 3.1512-1.3273 0.38338-0.4037 0.97954-0.61888 0.17506-0.29494 2.3374-1.4768 0.25749-0.32537 0.18966-0.43936 0.62503-0.78979 3.5605-2.2496 0.21592-0.36378 1.7115-1.0813h0.33172l0.17494-0.18422h3.9718l0.21836-0.22994h1.0106l1.8538-0.78084 0.21594-0.31833 1.3135-0.55324 0.21676-0.31955 1.8409-0.77538 0.47103-0.69439 0.94684-0.39881 0.34349-0.28936 0.39564-0.16664 0.19184-0.28282 2.1988-0.92614 0.21884-0.32262 4.0635-1.7116 0.34293-0.28888 2.5197-1.0613 0.17716-0.26116 1.577-0.66423 0.21278-0.31368 0.4954-0.21241 0.38561-0.94742 4.9961-2.1044 0.25905-0.38189 0.73201-0.30833 0.35979-0.68196 0.50875-0.21429 0.34149-0.35959 0.43915-0.18497 0.39384-0.74649 2.1211-0.89343 0.38503-0.56762 1.4054-0.59198 0.23182-0.34176 0.60338-0.25414 0.34326-0.36146 1.9842-0.83577 0.30109-0.50729 2.2383-0.94277 0.34874-0.661 2.0262-0.85345 0.34278-0.41315 0.35106-0.66541 1.5381-0.64784 0.38492-0.72958 1.7239-0.7261 0.59824-1.1339 0.95689-0.5214 0.4099-0.94043 1.4533-0.61212 0.34379-0.65163 1.3937-0.58702 0.42758-0.7204 1.3414-0.565 0.31641-0.46645 1.5037-0.63338 0.25921-0.38214 0.20273-0.08539 0.34258-0.28859 2.8616-1.2053 0.40088-0.59098 0.3956-0.16663 0.43251-0.81979 1.9898-0.83812 0.43569-0.73022 0.89536-0.94283 2.2613-0.95247 0.42623-0.62835 1.1386-0.4796 0.60673-1.15 1.3325-0.56124 0.46916-0.88926 1.1345-0.47786 0.25664-0.27025 0.87319-0.55169 0.3594-0.68122 0.89972-0.56845 0.60505-1.0194 0.9491-0.59964 0.48694-0.92294 3.4212-2.2925 0.63869-1.3586 2.1001-1.3269 0.47432-0.89903 0.41516-0.2623 0.48683-1.1352 1.0291-1.3422 0.44079-0.83548 3.4898-2.2049 0.35817-0.67888 0.81352-0.51399 0.86159-1.8227 4.2291-2.672 0.42476-0.89455 0.25768-0.10854 0.3868-0.57022 2.0412-0.97624 0.47007-0.85867 1.39-0.87822 0.68914-1.4513 0.30454-0.19241 0.35463-0.59749 2.2389-1.4146 0.38621-0.73203 1.452-0.94151 0.68156-1.4724 0.55266-0.23278 0.3993-0.67275 2.1169-1.3374 0.4343-0.82317 0.95945-0.60619 0.73231-1.5423 1.777-1.1227 0.68286-0.86287 0.60856-0.38449 0.43908-0.83224 2.3527-1.4865 0.76496-1.2888 1.5549-0.98242 0.442-0.83776 0.85637-0.56246 0.43242-1.1839 0.38654-0.48844 1.452-0.91739 0.17182-0.36186 1.5837-1.0006 0.39942-0.84119 1.6541-1.0451 0.67988-1.4318 0.91658-0.61489 0.51333-1.0988 1.6304-1.0301 0.46803-0.98568 1.9018-1.2016 0.67957-1.2881 2.105-1.33 0.38219-0.86649 0.79871-1.0093 2.4852-1.5702 0.68907-1.4512 1.3101-0.82772 0.42571-0.8069 2.6703-1.1248 0.51196-0.5391 2.8403-1.1964 0.38571-0.73108 1.1541-0.48612 0.51125-0.86136 2.8593-1.2043 0.34277-0.36094 3.8269-2.4178 0.42448-0.89396 2.0329-1.2844 0.21444-0.36129 1.3376-0.84513h4.9379l0.34501-0.50862h1.981l0.48661-0.61489h1.786l1.9583-0.82485 0.42617-0.80777 0.76948-0.32411h3.6599l0.51104-0.75338h0.93721l0.55892-0.82396h0.27951l1.334-0.84284 0.46912-0.79039 2.5123-1.5873 0.55824-0.94052 0.67701-0.42774 0.55551-1.1699 1.2761-0.80628 0.71285-1.4266 2.9079-1.8373 0.55327-0.93215 0.7246-0.4578 0.5147-1.084 2.5817-1.6311 0.42589-0.53816 1.5472-0.97751 0.51178-1.0778 3.1932-2.0175 0.47311-0.99638 1.1896-0.75161 0.46868-0.98705 0.24181-0.15278 0.42846-0.5414 1.3743-0.86826 0.60019-1.264 4.7675-3.0121 0.46914-0.88921 0.4971-0.31407 0.4708-0.59491 0.60772-0.38396 0.59696-1.2572 1.7253-1.09 0.69004-1.4532 3.6199-2.2871 0.3432-0.36139 7.2394-3.0574 0.42777-0.45044 7.5373-3.1747 0.47078-0.49573 7.2382-3.0492 0.42856-0.45128 7.4932-3.1561 0.42836-0.45107 4.0144-1.6909 0.60192-1.1409 2.2806-0.96058 0.67968-0.64462 7.1138-2.9964 0.42821-0.45091 3.7588-1.5832 0.55332-1.0488 2.3424-1.48 0.84092-1.4746 3.1194-1.9709 0.55716-1.1734 4.5819-2.8949 0.59733-0.75479 2.099-1.3262 0.59949-1.2625 2.0406-1.2893 0.55208-1.1627 2.1599-1.3646 0.56713-0.65615 0.65397-1.3773 3.9878-2.5195 0.55287-1.1644 0.85242-0.53856 0.68248-1.4373 0.53891-0.34048 0.4714-0.59567 1.8417-1.1636 0.59592-1.255 5.1825-3.3524 0.51358-0.64896 0.948-0.59895 0.68665-1.4461 4.5518-2.8759 0.55492-1.2318 0.45482-0.57471 1.4487-0.91531 0.67953-1.253 2.1429-2.7079 0.6799-1.8614 1.2365-1.5625 0.60075-1.6448 0.79107-0.99961 0.47152-0.89372 1.5862-2.0043 0.62763-1.3507 0.84927-0.35772 2.1428-2.2563 0.59572-1.3801 1.0107-1.0643 0.82103-0.60798 0.6547-1.7924 1.0488-1.3253 0.50975-1.2882 0.28623-0.36168 0.59585-0.37646 4.3885-5.5454 0.55185-0.34866 2.1324-2.6945 0.84886-0.53631 3.08-3.892 0.55414-1.4004 0.28683-0.36244 0.84892-0.53635 1.8022-2.2772 0.6815-1.4987 0.28447-0.17973 1.3341-1.6858 0.55306-1.1647 2.458-3.1059 2.5558-1.6148 0.34322-0.43369 1.2756-0.80594 5.5411-7.0018 0.76383-0.48259 1.3997-1.7686 0.64538-1.1614 0.59629-0.37674 2.7723-3.5031 1.5736-0.9942 1.1532-1.4572 1.318-0.83269 3.7516-4.7406 0.55153-0.34846 2.0028-2.5307 0.63886-0.40363 0.58671-0.74137 0.63249-1.1988 3.3401-4.2206 0.63885-0.40363 7.2012-9.2074 0.63865-0.4035 2.1307-2.6924 0.63883-0.40362 4.5593-5.7611 0.6389-0.40366 1.9627-2.48 0.5938-0.37516 4.6868-5.9223 0.68141-0.43052 3.2808-4.1457 1.789-1.1303 1.7894-2.2612 0.42631-0.80804 7.456-9.3144 0.72368-0.45723 3.9626-5.0072 0.80912-0.51121 2.6846-3.3923 1.8314-1.2001 0.469-0.79018 0.82654-0.88135 6.2032-7.8384 0.42569-0.26896 1.8749-1.9743 2.4282-1.5341 1.5767-1.9923 0.42575-0.26899 7.2857-9.1257 0.937-0.592 8.5215-10.687 2.5983-1.6419 0.72456-0.91574 3.6638-2.3151 4.4314-5.5996 1.1074-0.69968 2.8973-3.6611 0.34112-0.64657 5.454-6.8917 2.7266-1.7227 0.34142-0.43143 1.8878-1.1927 2.7709-2.9177 3.1382-1.9827 0.34135-0.43133 1.0784-0.68131 6.2499-9.2137 0.99477-2.0062 1.9823-2.9225 4.0672-8.627 0.71067-1.0477 2.9132-6.1971 0.36823-1.0081 3.8343-8.0751 1.2308-3.1874 0.87123-1.9593 1.2958-1.9106 5.3079-11.395 0.39865-1.1754 1.0372-2.173" clip-path="url(#e)" fill="none" stroke="#f00" stroke-dasharray="14.8,6.4" stroke-width="4"/>
<path d="m55.296 609.12v-589.68" fill="none" stroke="#000" stroke-linecap="square" stroke-width=".8"/>
<path d="m1082.9 609.12v-589.68" fill="none" stroke="#000" stroke-linecap="square" stroke-width=".8"/>
<path d="m55.296 609.12h1027.6" fill="none" stroke="#000" stroke-linecap="square" stroke-width=".8"/>
<path d="m55.296 19.44h1027.6" fill="none" stroke="#000" stroke-linecap="square" stroke-width=".8"/>
<g transform="translate(345.49 13.44) scale(.12 -.12)">
<defs>
<path id="ae" transform="scale(.015625)" d="m3603 3500v-3500h-578v3041h-1866v-3041h-578v3500h3022z"/>
<path id="s" transform="scale(.015625)" d="m3578 3500v-3500h-572v2809l-1687-2809h-738v3500h572v-2803l1685 2803h740z"/>
<path id="ab" transform="scale(.015625)" d="m2781 1038q0 281-205 428-204 147-598 147h-819v-1154h819q394 0 598 148 205 149 205 431zm-2200 2462h578v-1428h844q669 0 1030-255 361-254 361-779t-361-782q-361-256-1030-256h-1422v3500z"/>
<path id="af" transform="scale(.015625)" d="m2194 1759q-697 0-966-159t-269-544q0-306 202-486 202-179 548-179 479 0 768 339t289 901v128h-572zm1147 238v-1997h-575v531q-197-318-491-470t-719-152q-537 0-855 302-317 302-317 808 0 590 395 890 396 300 1180 300h807v57q0 397-261 614t-733 217q-300 0-585-72-284-72-546-216v532q315 122 612 182 297 61 578 61 760 0 1135-394 375-393 375-1193z"/>
<path id="ao" transform="scale(.015625)" d="m2206 1888q388-75 603-304 216-228 216-565 0-541-403-826-403-284-1147-284-250 0-514 44t-545 131v535q222-116 487-174 266-57 556-57 472 0 736 175t264 456q0 275-234 442t-662 167h-463v475h484q363 0 574 139t211 358q0 200-218 344-217 144-588 144-222 0-474-41-251-41-555-131v522q307 75 572 112 266 38 503 38 613 0 967-246 355-245 355-686 0-290-188-492-187-201-537-276z"/>
<path id="an" transform="scale(.015625)" d="m3578 3500v-3500h-572v2809l-1687-2809h-738v3500h572v-2803l1685 2803h740zm-2476 1333h369q34-234 185-352 152-117 424-117 269 0 419 116t190 353h369q-31-447-278-672t-700-225-700 225-278 672z"/>
<path id="as" transform="scale(.015625)" d="m684 794h660v-794h-660v794z"/>
<path id="ar" transform="scale(.015625)" d="m628 4666h631v-1913h2294v1913h631v-4666h-631v2222h-2294v-2222h-631v4666z"/>
<path id="ap" transform="scale(.015625)" d="m1991 3584q750 0 1178-488 428-487 428-1349 0-859-428-1349-428-489-1178-489-753 0-1169 475t-438 1363l-18 716q-16 371-16 500 0 500 181 868 285 578 777 828t1317 257q381 3 550 56l159-456q-153-63-293-66l-782-53q-393-28-631-166-622-365-681-843l-22-175q406 371 1066 371zm0-487q-463 0-732-361-268-361-268-989t267-989 733-361q459 0 728 362 269 363 269 988 0 622-269 986t-728 364z"/>
</defs>
<use xlink:href="#ag"/>
<use x="75.195312" xlink:href="#d"/>
<use x="136.71875" xlink:href="#q"/>
<use x="200.195312" xlink:href="#d"/>
<use x="261.71875" xlink:href="#ae"/>
<use x="327.099609" xlink:href="#s"/>
<use x="392.089844" xlink:href="#k"/>
<use x="447.070312" xlink:href="#ab"/>
<use x="506.005859" xlink:href="#DejaVuSans-20"/>
<use x="537.792969" xlink:href="#r"/>
<use x="598.193359" xlink:href="#g"/>
<use x="659.375" xlink:href="#k"/>
<use x="714.355469" xlink:href="#m"/>
<use x="789.794922" xlink:href="#s"/>
<use x="854.785156" xlink:href="#ad"/>
<use x="913.867188" xlink:href="#d"/>
<use x="975.390625" xlink:href="#k"/>
<use x="1030.371094" xlink:href="#r"/>
<use x="1090.771484" xlink:href="#g"/>
<use x="1151.953125" xlink:href="#ac"/>
<use x="1204.492188" xlink:href="#g"/>
<use x="1265.673828" xlink:href="#DejaVuSans-20"/>
<use x="1297.460938" xlink:href="#o"/>
<use x="1362.841797" xlink:href="#af"/>
<use x="1424.121094" xlink:href="#k"/>
<use x="1479.101562" xlink:href="#d"/>
<use x="1540.625" xlink:href="#v"/>
<use x="1604.541016" xlink:href="#d"/>
<use x="1666.064453" xlink:href="#o"/>
<use x="1731.445312" xlink:href="#s"/>
<use x="1796.435547" xlink:href="#u"/>
<use x="1856.591797" xlink:href="#aa"/>
<use x="1888.378906" xlink:href="#DejaVuSans-20"/>
<use x="1920.166016" xlink:href="#y"/>
<use x="1983.789062" xlink:href="#h"/>
<use x="2047.412109" xlink:href="#n"/>
<use x="2111.035156" xlink:href="#DejaVuSans-20"/>
<use x="2142.822266" xlink:href="#s"/>
<use x="2207.8125" xlink:href="#ao"/>
<use x="2260.986328" xlink:href="#m"/>
<use x="2336.425781" xlink:href="#d"/>
<use x="2397.949219" xlink:href="#o"/>
<use x="2463.330078" xlink:href="#d"/>
<use x="2524.853516" xlink:href="#o"/>
<use x="2590.234375" xlink:href="#s"/>
<use x="2655.224609" xlink:href="#an"/>
<use x="2720.214844" xlink:href="#as"/>
<use x="2752.001953" xlink:href="#DejaVuSans-20"/>
<use x="2783.789062" xlink:href="#ar"/>
<use x="2858.984375" xlink:href="#g"/>
<use x="2920.166016" xlink:href="#u"/>
<use x="2980.322266" xlink:href="#ap"/>
<use x="3041.992188" xlink:href="#q"/>
<use x="3105.46875" xlink:href="#ab"/>
<use x="3164.404297" xlink:href="#DejaVuSans-20"/>
<use x="3196.191406" xlink:href="#h"/>
<use x="3259.814453" xlink:href="#b"/>
<use x="3323.4375" xlink:href="#h"/>
<use x="3387.060547" xlink:href="#h"/>
<use x="3450.683594" xlink:href="#DejaVuSans-20"/>
<use x="3482.470703" xlink:href="#ac"/>
<use x="3535.009766" xlink:href="#g"/>
<use x="3596.191406" xlink:href="#w"/>
<use x="3665.332031" xlink:href="#af"/>
</g>
<path d="m64.396 48.922h313.05q2.6 0 2.6-2.6v-17.782q0-2.6-2.6-2.6h-313.05q-2.6 0-2.6 2.6v17.782q0 2.6 2.6 2.6z" fill="#fff" opacity=".8" stroke="#ccc"/>
<path d="m66.996 36.468h13 13" fill="none" stroke="#f00" stroke-dasharray="14.8,6.4" stroke-width="4"/>
<g transform="translate(103.4 41.018) scale(.13 -.13)">
<defs>
<path id="ak" transform="scale(.015625)" d="m3431 3097q-462 0-731-361t-269-989 267-989q268-361 733-361 460 0 728 362 269 363 269 988 0 622-269 986-268 364-728 364zm-1587-994q59 594 448 1037 389 444 1139 444t1178-488q429-487 429-1349 0-859-429-1349-428-489-1178-489-753 0-1164 472t-439 1247h-650v-1628h-575v3500h575v-1397h666z"/>
</defs>
<use xlink:href="#ah"/>
<use x="68.603516" xlink:href="#q"/>
<use x="132.080078" xlink:href="#d"/>
<use x="193.603516" xlink:href="#m"/>
<use x="269.042969" xlink:href="#u"/>
<use x="329.199219" xlink:href="#aa"/>
<use x="360.986328" xlink:href="#DejaVuSans-20"/>
<use x="392.773438" xlink:href="#ae"/>
<use x="458.154297" xlink:href="#q"/>
<use x="521.630859" xlink:href="#g"/>
<use x="582.8125" xlink:href="#p"/>
<use x="641.748047" xlink:href="#d"/>
<use x="703.271484" xlink:href="#w"/>
<use x="772.412109" xlink:href="#d"/>
<use x="833.935547" xlink:href="#o"/>
<use x="899.316406" xlink:href="#o"/>
<use x="964.697266" xlink:href="#g"/>
<use x="1025.878906" xlink:href="#d"/>
<use x="1087.402344" xlink:href="#DejaVuSans-20"/>
<use x="1119.189453" xlink:href="#v"/>
<use x="1183.105469" xlink:href="#ak"/>
<use x="1267.285156" xlink:href="#w"/>
<use x="1336.425781" xlink:href="#ab"/>
<use x="1395.361328" xlink:href="#m"/>
<use x="1470.800781" xlink:href="#s"/>
<use x="1535.791016" xlink:href="#DejaVuSans-20"/>
<use x="1567.578125" xlink:href="#p"/>
<use x="1626.513672" xlink:href="#DejaVuSans-20"/>
<use x="1658.300781" xlink:href="#r"/>
<use x="1718.701172" xlink:href="#g"/>
<use x="1779.882812" xlink:href="#k"/>
<use x="1834.863281" xlink:href="#m"/>
<use x="1910.302734" xlink:href="#g"/>
<use x="1971.484375" xlink:href="#k"/>
<use x="2026.464844" xlink:href="#d"/>
</g>
<defs>
<clipPath id="e">
<rect x="55.296" y="19.44" width="1027.6" height="589.68"/>
</clipPath>
</defs>
</svg>
