<?xml version="1.0" encoding="UTF-8"?>
<!DOCTYPE svg  PUBLIC '-//W3C//DTD SVG 1.1//EN'  'http://www.w3.org/Graphics/SVG/1.1/DTD/svg11.dtd'>
<svg width="1152pt" height="648pt" version="1.1" viewBox="0 0 1152 648" xmlns="http://www.w3.org/2000/svg" xmlns:xlink="http://www.w3.org/1999/xlink"><defs><style type="text/css">*{stroke-linejoin: round; stroke-linecap: butt}</style></defs><path d="m0 648h1152v-648h-1152z" fill="#fff"/><path d="m55.296 609.12h1027.6v-589.68h-1027.6z" fill="#fff"/><defs><path id="an" d="m82.524-38.88v-29.484h0.003001v29.484h1.0063v-29.484h4.62e-4v29.484h3.3234v-29.484h4.69e-4v29.484h0.67963v-29.484h0.04547v29.484h8.5277v-29.484h0.008865v29.484h4.0068v-29.484h0.008887v29.484h2.3317v-29.484h3.11e-4v29.484h1.0657v-29.484h0.042387v-29.484h0.12731v29.484h2.1e-4v29.484h2.1275v-29.484h0.016603v29.484h4.5767v-29.484h2.92e-4v29.484h5.0889v-29.484h0.061822v29.484h1.2328v-29.484h0.081963v-29.484h0.12741v29.484h0.004922v29.484h0.35647v-29.484h3.14e-4v29.484h0.95122v-29.484h3.43e-4v29.484h1.4687v-29.484h3.34e-4v29.484h18.005v-88.452h0.043731v88.452h6.7407v-58.968h0.046889v58.968h0.18253v-58.968h0.008779v58.968h3.1045v-58.968h0.17636v58.968h0.95109v-29.484h3.16e-4v29.484h1.8168v-29.484h8.36e-4v29.484h0.46664v-58.968h0.34381v58.968h1.3041v-29.484h3.58e-4v29.484h0.69592v-29.484h2.84e-4v29.484h2.2034v-58.968h0.46482v-58.968h0.046561v58.968h0.083925v58.968h3.8079v-58.968h0.019251v58.968h3.3896v-58.968h0.13028v58.968h1.8302v-58.968h0.12746v58.968h2.2791v-58.968h0.12837v58.968h2.0446v-29.484h3.21e-4v29.484h0.43074v-58.968h0.17031v58.968h6.838v-29.484h0.048257v29.484h7.6305v-29.484h3.03e-4v29.484h1.2563v-29.484h1.46e-4v29.484h12.097v-29.484h2.82e-4v29.484h2.202v-88.452h0.46848v88.452h0.16815v-29.484h0.1708v29.484h2.2572v-88.452h0.26474v88.452h0.76288v-29.484h0.042467v-88.452h0.086012v88.452h0.045273v29.484h1.9161v-88.452h0.43402v88.452h2.8521v-88.452h0.34585v88.452h2.1982v-88.452h0.35171v88.452h3.4041v-58.968h0.04246v-88.452h0.042452v-58.968h0.12886v58.968h0.042388v88.452h0.042765v58.968h1.1799v-88.452h0.44049v88.452h5.961v-88.452h0.25735v88.452h1.9464v-58.968h0.7653v58.968h9.7838v-88.452h0.38903v88.452h3.1168v-88.452h0.086014v88.452h1.8247v-88.452h1.0271v88.452h1.1494v-88.452h0.53159v88.452h10.929v-88.452h0.47874v88.452h9.6555v-88.452h0.5436v88.452h6.7738v-88.452h1.2116v88.452h1.5511v-88.452h2.57v88.452h0.068381v-58.968h0.085103v58.968h2.0789v-88.452h1.3792v-58.968h0.34022v58.968h1.9132v88.452h6.2732v-58.968h0.67981v58.968h1.656v-58.968h0.086803v58.968h4.1301v-58.968h0.25642v58.968h1.4508v-58.968h1.2774v58.968h2.3771v-58.968h6.43e-4v58.968h2.1241v-58.968h2.2426v-58.968h0.013506v-88.452h0.24313v58.968h0.14849v88.452h0.07383v58.968h14.95v-58.968h2.1292v58.968h0.9351v-58.968h0.34192v58.968h0.92556v-58.968h0.086636v58.968h4.9241v-58.968h0.76612v58.968h9.755v-58.968h0.087781v58.968h2.5893v-58.968h1.3598v-58.968h0.25748v58.968h1.9522v-58.968h0.34263v58.968h0.25495v58.968h3.9491v-58.968h0.50994v-58.968h0.34224v58.968h2.2498v-58.968h0.34002v58.968h2.592v58.968h4.9717v-58.968h1.9119v-58.968h0.08467v58.968h5.5679v58.968h10.115v-58.968h2.0398v-58.968h0.33992v58.968h0.08503v-58.968h0.16986v58.968h1.9123v-58.968h0.33981v58.968h2.1248v-58.968h0.33985v58.968h0.63734v58.968h2.0393v-88.452h0.55307v88.452h3.9934v-58.968h0.42495v-58.968h0.33981v58.968h0.56242v-58.968h0.097866v58.968h1.2946v-58.968h0.3398v58.968h0.17045v58.968h7.3518v-58.968h0.097639v58.968h5.5223v-58.968h0.34589v58.968h1.8906v-58.968h1.827v-88.452h0.12696v-58.968h0.21491v88.452h0.089709v58.968h1.9899v-88.452h0.34192v88.452h3.2797v-117.94h0.22013v117.94h1.0453v58.968h4.9692v-117.94h0.21681v117.94h0.46512v-88.452h0.086972v88.452h2.46v-147.42h0.26364v147.42h0.12111v-58.968h2.7612v-147.42h0.26138v147.42h3.4364v58.968h0.20894v-176.9h0.44622v176.9h2.444v-147.42h0.21452v-88.452h0.12991v147.42h2.249v-88.452h0.13114v-147.42h0.21042v88.452h0.091519v147.42h4.1131v-88.452h0.51006v88.452h1.3826v-176.9h0.261v176.9h1.1621v88.452h0.12985v-206.39h0.35546v206.39h1.1161v-147.42h0.3453v147.42h2.9962v-147.42h0.13246v147.42h3.2281v-206.39h0.30239v206.39h0.43603v-206.39h0.3028v206.39h1.3226v-58.968h0.48421v-206.39h0.3055v206.39h1.5267v-206.39h0.34351v206.39h0.89177v-147.42h0.30666v147.42h0.60396v-88.452h0.38396v58.968h0.31224v-147.42h0.17602v147.42h0.99403v-235.87h0.30388v235.87h0.63526v88.452h0.24124v-206.39h0.29728v206.39h1.7114v-206.39h0.26303v206.39h2.3312v-58.968h5.4024v58.968h8.833v-58.968h7.1822v-88.452h0.3441v88.452h6.2419v-88.452h0.3421v88.452h6.9669v-88.452h0.42527v88.452h3.1445v-88.452h0.38256v58.968h0.97745v-147.42h0.17468v147.42h2.3324v-88.452h0.25694v-147.42h0.18925v147.42h0.6237v88.452h3.553v-147.42h0.21546v147.42h1.7078v88.452h0.33102v-147.42h0.17457v147.42h3.9633v-147.42h0.2179v147.42h1.0085v-58.968h1.8499v-147.42h0.21548v147.42h1.3107v-147.42h0.2163v147.42h1.8369v-147.42h0.47002v147.42h0.94483v-58.968h0.34276v58.968h0.3948v-147.42h0.19144v147.42h2.1941v-147.42h0.21838v147.42h4.0548v-58.968h0.3422v58.968h2.5143v-147.42h0.17678v147.42h1.5736v-147.42h0.21233v147.42h0.4918v-206.39h0.002537v-88.452h0.34199v88.452h0.042797v206.39h4.9854v-147.42h0.2585v147.42h0.73045v-206.39h0.35903v206.39h0.50767v-88.452h0.34076v88.452h0.43821v-206.39h0.393v206.39h2.1166v-147.42h0.38421v147.42h1.4024v-147.42h0.23133v147.42h0.60209v-88.452h0.34253v88.452h1.98v-176.9h0.30045v176.9h2.2335v-206.39h0.348v206.39h2.0219v-88.452h0.30671v-206.39h0.035337v88.452h0.35032v206.39h1.5348v-206.39h0.3841v206.39h1.7202v-206.39h0.59696v206.39h0.76792v-88.452h0.18692v-206.39h0.3444v206.39h0.064625v88.452h1.4502v-206.39h0.34306v206.39h1.3907v-176.9h0.42667v176.9h1.3385v-147.42h0.31573v147.42h1.5005v-147.42h0.25866v147.42h0.2023v-58.968h0.34185v58.968h2.8555v-147.42h0.40002v147.42h0.39475v-206.39h0.43159v206.39h1.9856v-176.9h0.43174v176.9h0.003022v-88.452h0.89346v88.452h2.2565v-147.42h0.42532v147.42h1.1362v-206.39h0.60544v206.39h1.3296v-206.39h0.46816v206.39h1.1321v-88.452h0.2561v58.968h0.87133v-176.9h0.35864v176.9h0.8978v-147.42h0.60376v147.42h0.94708v-176.9h0.4859v176.9h3.1037v-58.968h0.31028v-206.39h0.032101v58.968h0.60523v206.39h2.0957v-176.9h0.47331v176.9h0.41428v-176.9h0.15026v-88.452h0.33554v176.9h0.99396v-176.9h0.032976v88.452h0.43985v176.9h3.4824v-176.9h0.3574v176.9h0.81179v-206.39h0.51783v-88.452h0.20095v206.39h0.14097v88.452h4.2201v-206.39h0.42386v235.87h0.25713v-147.42h0.38597v147.42h1.853v-88.452h0.18394v-147.42h0.15798v58.968h0.3111v147.42h1.3871v-206.39h0.68767v206.39h0.30389v-147.42h0.35388v147.42h2.2342v-176.9h0.38539v176.9h1.3918v-58.968h0.057143v-206.39h0.28525v88.452h0.39486v206.39h0.55148v-176.9h0.39845v147.42h2.1124v-176.9h0.43337v176.9h0.95741v-206.39h0.73075v206.39h1.7732v-88.452h0.68141v88.452h0.60726v-176.9h0.43814v176.9h2.3477v-147.42h0.76333v147.42h1.5516v-176.9h0.44105v176.9h0.82076v-88.452h0.033788v-206.39h0.4315v206.39h0.38572v88.452h1.4489v-206.39h0.17145v206.39h1.5803v-206.39h0.39857v206.39h1.6506v-206.39h0.67843v206.39h0.82984v-58.968h0.084791v-176.9h0.29822v58.968h0.21402v176.9h1.6269v-206.39h0.46703v206.39h1.8978v-176.9h0.67812v176.9h2.1006v-206.39h0.28409v-88.452h0.097286v206.39h0.79701v88.452h2.4799v-206.39h0.6876v206.39h1.3073v-176.9h0.42481v206.39h2.6646v-88.452h0.51087v88.452h2.8343v-206.39h0.38489v206.39h1.1517v-176.9h0.51016v176.9h2.8532v-88.452h0.34204v58.968h3.8187v-206.39h0.42358v206.39h2.0285v-147.42h0.21398v147.42h1.3348v88.452h4.9274v-206.39h0.34427v206.39h1.9768v-176.9h0.48558v176.9h1.7822v-58.968h1.9541v-206.39h0.42526v206.39h0.76784v58.968h3.6521v-206.39h0.50995v206.39h0.93522v-206.39h0.55772v206.39h0.27892v-88.452h1.3312v-147.42h0.46813v147.42h2.507v-147.42h0.55705v147.42h0.67557v-206.39h0.55433v206.39h1.2734v-206.39h0.36906v-88.452h0.14506v206.39h0.19721v88.452h2.9017v-147.42h0.55209v147.42h0.72306v-206.39h0.51361v206.39h2.5762v-88.452h0.42498v88.452h1.5439v-206.39h0.5107v206.39h3.1864v-206.39h0.4721v206.39h1.1871v-206.39h0.46768v206.39h0.2413v-88.452h0.42755v88.452h1.3713v-206.39h0.59891v206.39h4.7573v-176.9h0.46814v176.9h0.49604v-88.452h0.4698v88.452h0.60643v-206.39h0.59568v206.39h1.7216v-206.39h0.68857v206.39h3.6122v-58.968h0.34247v88.452h7.086v-29.484h0.038506v29.484h0.099495v-88.452h0.42686v88.452h7.5213v-88.452h0.46977v88.452h2.2738v-29.484h7.2e-4v29.484h4.3218v-29.484h7.26e-4v29.484h0.21475v-29.484h7.19e-4v29.484h0.41038v-88.452h0.42765v88.452h7.4772v-88.452h0.42745v88.452h4.0059v-206.39h0.60064v206.39h2.2757v-88.452h0.42724v88.452h0.042927v-58.968h0.20808v58.968h7.0986v-88.452h0.4273v88.452h3.7508v-206.39h0.55215v176.9h2.3374v-176.9h0.36898v-88.452h0.14084v176.9h0.32931v88.452h3.1128v-206.39h0.55598v206.39h4.5722v-88.452h0.59606v88.452h2.0945v-206.39h0.59821v206.39h2.0363v-206.39h0.55091v206.39h2.1553v-88.452h0.4704v88.452h0.095517v-206.39h0.65258v206.39h3.9793v-206.39h0.55169v206.39h0.8506v-206.39h0.68102v206.39h0.53776v-88.452h0.4704v88.452h1.8378v-206.39h0.59465v206.39h4.4478v-88.452h0.12328v88.452h0.60038v-88.452h0.51248v88.452h0.94598v-206.39h0.68518v206.39h4.5421v-206.39h0.45397v-88.452h0.099768v206.39h0.45385v88.452h1.4456v-206.39h0.55756v206.39h0.12053v-88.452h2.1384v-206.39h0.67845v206.39h1.2339v-206.39h0.59947v206.39h0.78939v-88.452h0.47052v88.452h1.5828v-176.9h0.46689v206.39h0.15941v88.452h0.84746v-88.452h2.1382v-176.9h0.59445v176.9h1.0085v58.968h0.67831v-88.452h0.14097v-206.39h0.6533v206.39h1.0466v-176.9h0.50866v176.9h0.28562v88.452h0.59458v-88.452h4.3792v88.452h0.55067v-88.452h2.1278v88.452h0.84705v-88.452h3.0735v-176.9h0.55296v176.9h0.28622v88.452h0.84711v-88.452h1.7983v-176.9h0.32685v88.452h0.3532v176.9h0.28386v-88.452h1.3313v-117.94h0.55188v117.94h2.4528v88.452h2.5503v-88.452h0.34248v88.452h1.2729v-88.452h5.5293v88.452h0.76221v-88.452h1.3967v-88.452h0.54638v88.452h0.097623v88.452h0.59502v-88.452h2.7664v88.452h1.5702v-88.452h1.1508v88.452h1.3152v-88.452h3.7436v88.452h0.55036v-88.452h1.9985v88.452h0.6375v-88.452h0.58546v-88.452h0.63114v88.452h3.333v88.452h0.63749v-88.452h1.8283v-88.452h0.17032v88.452h5.1873v88.452h0.63729v-88.452h2.1262v88.452h0.63747v-88.452h4.5496v88.452h0.63754v-88.452h1.9585v88.452h0.59253v-88.452h4.6768v88.452h0.67996v-88.452h3.2739v88.452h1.7851v-88.452h1.7856v-88.452h0.4254v88.452h3.9119v88.452h0.16899v-88.452h3.3592v88.452h0.72214v-88.452h3.9542v88.452h0.8074v-88.452h2.6789v88.452h1.7257v-58.968h0.10189v-88.452h0.468v88.452h0.80741v-88.452h0.017371v58.968h6.19v88.452h0.42479v-58.968h1.8709v58.968h2.423v-88.452h1.5733v88.452h0.42485v-88.452h3.9966v88.452h0.12735v-88.452h3.1463v88.452h0.935v-88.452h3.189v88.452h0.12706v-88.452h5.1872v88.452h0.297v-58.968h5.91e-4v58.968h2.2952v-88.452h0.44023v-58.968h4.24e-4v58.968h0.28237v88.452h2.7874v-88.452h4.54e-4v88.452h0.86814v-88.452h4.422v88.452h1.1051v-88.452h2.8911v-88.452h0.3404v88.452h5.4424v88.452h2.7208v-88.452h0.3407v88.452h1.8838v-58.968h2.765v58.968h3.1315v-88.452h0.34062v88.452h1.0761v-117.94h6.2366v-88.452h0.34072v88.452h0.26813v-117.94h0.3838v117.94h0.87966v-58.968h5.1e-4v58.968h1.0979v-88.452h1.0625v-176.9h4.58e-4v176.9h0.38449v-117.94h3.06e-4v117.94h2.4827v-117.94h0.05316v88.452h0.074813v117.94h0.70916v-88.452h0.35638v-117.94h3.04e-4v117.94h0.088977v-88.452h0.065188v88.452h0.99214v117.94h0.08376v-117.94h1.177v-88.452h0.14294v-176.9h3.03e-4v176.9h0.36744v88.452h3.8261v-88.452h0.51062v88.452h0.047704v-176.9h2.99e-4v176.9h0.34783v-117.94h0.32172v88.452h0.41626v117.94h0.069838v-117.94h0.38327v117.94h1.269v-176.9h2.99e-4v176.9h0.023682v-88.452h2.6133v-176.9h3.06e-4v176.9h2.0742v-88.452h0.34042v88.452h0.26844v-117.94h0.3978v117.94h1.9777v-88.452h0.21071v88.452 294.84h-0.21071-1.9777-0.3978-0.26844-0.34042-2.0742-3.06e-4 -2.6133-0.023682-2.99e-4 -1.269-0.38327-0.069838-0.41626-0.32172-0.34783-2.99e-4 -0.047704-0.51062-3.8261-0.36744-3.03e-4 -0.14294-1.177-0.08376-0.99214-0.065188-0.088977-3.04e-4 -0.35638-0.70916-0.074813-0.05316-2.4827-3.06e-4 -0.38449-4.58e-4 -1.0625-1.0979-5.1e-4 -0.87966-0.3838-0.26813-0.34072-6.2366-1.0761-0.34062-3.1315-2.765-1.8838-0.3407-2.7208-5.4424-0.3404-2.8911-1.1051-4.422-0.86814-4.54e-4 -2.7874-0.28237-4.24e-4 -0.44023-2.2952-5.91e-4 -0.297-5.1872-0.12706-3.189-0.935-3.1463-0.12735-3.9966-0.42485-1.5733-2.423-1.8709-0.42479-6.19-0.017371-0.80741-0.468-0.10189-1.7257-2.6789-0.8074-3.9542-0.72214-3.3592-0.16899-3.9119-0.4254-1.7856-1.7851-3.2739-0.67996-4.6768-0.59253-1.9585-0.63754-4.5496-0.63747-2.1262-0.63729-5.1873-0.17032-1.8283-0.63749-3.333-0.63114-0.58546-0.6375-1.9985-0.55036-3.7436-1.3152-1.1508-1.5702-2.7664-0.59502-0.097623-0.54638-1.3967-0.76221-5.5293-1.2729-0.34248-2.5503-2.4528-0.55188-1.3313-0.28386-0.3532-0.32685-1.7983-0.84711-0.28622-0.55296-3.0735-0.84705-2.1278-0.55067-4.3792-0.59458-0.28562-0.50866-1.0466-0.6533-0.14097-0.67831-1.0085-0.59445-2.1382-0.84746-0.15941-0.46689-1.5828-0.47052-0.78939-0.59947-1.2339-0.67845-2.1384-0.12053-0.55756-1.4456-0.45385-0.099768-0.45397-4.5421-0.68518-0.94598-0.51248-0.60038-0.12328-4.4478-0.59465-1.8378-0.4704-0.53776-0.68102-0.8506-0.55169-3.9793-0.65258-0.095517-0.4704-2.1553-0.55091-2.0363-0.59821-2.0945-0.59606-4.5722-0.55598-3.1128-0.32931-0.14084-0.36898-2.3374-0.55215-3.7508-0.4273-7.0986-0.20808-0.042927-0.42724-2.2757-0.60064-4.0059-0.42745-7.4772-0.42765-0.41038-7.19e-4 -0.21475-7.26e-4 -4.3218-7.2e-4 -2.2738-0.46977-7.5213-0.42686-0.099495-0.038506-7.086-0.34247-3.6122-0.68857-1.7216-0.59568-0.60643-0.4698-0.49604-0.46814-4.7573-0.59891-1.3713-0.42755-0.2413-0.46768-1.1871-0.4721-3.1864-0.5107-1.5439-0.42498-2.5762-0.51361-0.72306-0.55209-2.9017-0.19721-0.14506-0.36906-1.2734-0.55433-0.67557-0.55705-2.507-0.46813-1.3312-0.27892-0.55772-0.93522-0.50995-3.6521-0.76784-0.42526-1.9541-1.7822-0.48558-1.9768-0.34427-4.9274-1.3348-0.21398-2.0285-0.42358-3.8187-0.34204-2.8532-0.51016-1.1517-0.38489-2.8343-0.51087-2.6646-0.42481-1.3073-0.6876-2.4799-0.79701-0.097286-0.28409-2.1006-0.67812-1.8978-0.46703-1.6269-0.21402-0.29822-0.084791-0.82984-0.67843-1.6506-0.39857-1.5803-0.17145-1.4489-0.38572-0.4315-0.033788-0.82076-0.44105-1.5516-0.76333-2.3477-0.43814-0.60726-0.68141-1.7732-0.73075-0.95741-0.43337-2.1124-0.39845-0.55148-0.39486-0.28525-0.057143-1.3918-0.38539-2.2342-0.35388-0.30389-0.68767-1.3871-0.3111-0.15798-0.18394-1.853-0.38597-0.25713-0.42386-4.2201-0.14097-0.20095-0.51783-0.81179-0.3574-3.4824-0.43985-0.032976-0.99396-0.33554-0.15026-0.41428-0.47331-2.0957-0.60523-0.032101-0.31028-3.1037-0.4859-0.94708-0.60376-0.8978-0.35864-0.87133-0.2561-1.1321-0.46816-1.3296-0.60544-1.1362-0.42532-2.2565-0.89346-0.003022-0.43174-1.9856-0.43159-0.39475-0.40002-2.8555-0.34185-0.2023-0.25866-1.5005-0.31573-1.3385-0.42667-1.3907-0.34306-1.4502-0.064625-0.3444-0.18692-0.76792-0.59696-1.7202-0.3841-1.5348-0.35032-0.035337-0.30671-2.0219-0.348-2.2335-0.30045-1.98-0.34253-0.60209-0.23133-1.4024-0.38421-2.1166-0.393-0.43821-0.34076-0.50767-0.35903-0.73045-0.2585-4.9854-0.042797-0.34199-0.002537-0.4918-0.21233-1.5736-0.17678-2.5143-0.3422-4.0548-0.21838-2.1941-0.19144-0.3948-0.34276-0.94483-0.47002-1.8369-0.2163-1.3107-0.21548-1.8499-1.0085-0.2179-3.9633-0.17457-0.33102-1.7078-0.21546-3.553-0.6237-0.18925-0.25694-2.3324-0.17468-0.97745-0.38256-3.1445-0.42527-6.9669-0.3421-6.2419-0.3441-7.1822-8.833-5.4024-2.3312-0.26303-1.7114-0.29728-0.24124-0.63526-0.30388-0.99403-0.17602-0.31224-0.38396-0.60396-0.30666-0.89177-0.34351-1.5267-0.3055-0.48421-1.3226-0.3028-0.43603-0.30239-3.2281-0.13246-2.9962-0.3453-1.1161-0.35546-0.12985-1.1621-0.261-1.3826-0.51006-4.1131-0.091519-0.21042-0.13114-2.249-0.12991-0.21452-2.444-0.44622-0.20894-3.4364-0.26138-2.7612-0.12111-0.26364-2.46-0.086972-0.46512-0.21681-4.9692-1.0453-0.22013-3.2797-0.34192-1.9899-0.089709-0.21491-0.12696-1.827-1.8906-0.34589-5.5223-0.097639-7.3518-0.17045-0.3398-1.2946-0.097866-0.56242-0.33981-0.42495-3.9934-0.55307-2.0393-0.63734-0.33985-2.1248-0.33981-1.9123-0.16986-0.08503-0.33992-2.0398-10.115-5.5679-0.08467-1.9119-4.9717-2.592-0.34002-2.2498-0.34224-0.50994-3.9491-0.25495-0.34263-1.9522-0.25748-1.3598-2.5893-0.087781-9.755-0.76612-4.9241-0.086636-0.92556-0.34192-0.9351-2.1292-14.95-0.07383-0.14849-0.24313-0.013506-2.2426-2.1241-6.43e-4 -2.3771-1.2774-1.4508-0.25642-4.1301-0.086803-1.656-0.67981-6.2732-1.9132-0.34022-1.3792-2.0789-0.085103-0.068381-2.57-1.5511-1.2116-6.7738-0.5436-9.6555-0.47874-10.929-0.53159-1.1494-1.0271-1.8247-0.086014-3.1168-0.38903-9.7838-0.7653-1.9464-0.25735-5.961-0.44049-1.1799-0.042765-0.042388-0.12886-0.042452-0.04246-3.4041-0.35171-2.1982-0.34585-2.8521-0.43402-1.9161-0.045273-0.086012-0.042467-0.76288-0.26474-2.2572-0.1708-0.16815-0.46848-2.202-2.82e-4 -12.097-1.46e-4 -1.2563-3.03e-4 -7.6305-0.048257-6.838-0.17031-0.43074-3.21e-4 -2.0446-0.12837-2.2791-0.12746-1.8302-0.13028-3.3896-0.019251-3.8079-0.083925-0.046561-0.46482-2.2034-2.84e-4 -0.69592-3.58e-4 -1.3041-0.34381-0.46664-8.36e-4 -1.8168-3.16e-4 -0.95109-0.17636-3.1045-0.008779-0.18253-0.046889-6.7407-0.043731-18.005-3.34e-4 -1.4687-3.43e-4 -0.95122-3.14e-4 -0.35647-0.004922-0.12741-0.081963-1.2328-0.061822-5.0889-2.92e-4 -4.5767-0.016603-2.1275-2.1e-4 -0.12731-0.042387-1.0657-3.11e-4 -2.3317-0.008887-4.0068-0.008865-8.5277-0.04547-0.67963-4.69e-4 -3.3234-4.62e-4 -1.0063-0.003001z" stroke="#229"/></defs><g clip-path="url(#f)"><use y="648" fill="#222299" stroke="#222299" xlink:href="#an"/></g><defs><path id="i" d="m0 0v3.5" stroke="#000" stroke-width=".8"/></defs><use x="62.32967" y="609.12" stroke="#000000" stroke-width=".8" xlink:href="#i"/><g transform="translate(49.605 623.72) scale(.1 -.1)"><defs><path id="d" transform="scale(.015625)" d="m794 531h1031v3560l-1122-225v575l1116 225h631v-4135h1031v-531h-2687v531z"/><path id="j" transform="scale(.015625)" d="m703 97v575q238-113 481-172 244-59 479-59 625 0 954 420 330 420 377 1277-181-269-460-413-278-144-615-144-700 0-1108 423-408 424-408 1159 0 718 425 1152 425 435 1131 435 810 0 1236-621 427-620 427-1801 0-1103-524-1761-523-658-1407-658-238 0-482 47-243 47-506 141zm1256 1978q425 0 673 290 249 291 249 798 0 503-249 795-248 292-673 292t-673-292-248-795q0-507 248-798 248-290 673-290z"/><path id="w" transform="scale(.015625)" d="m2113 2584q-425 0-674-291-248-290-248-796 0-503 248-796 249-292 674-292t673 292q248 293 248 796 0 506-248 796-248 291-673 291zm1253 1979v-575q-238 112-480 171-242 60-480 60-625 0-955-422-329-422-376-1275 184 272 462 417 279 145 613 145 703 0 1111-427 408-426 408-1160 0-719-425-1154-425-434-1131-434-810 0-1238 620-428 621-428 1799 0 1106 525 1764t1409 658q238 0 480-47t505-140z"/><path id="c" transform="scale(.015625)" d="m2034 4250q-487 0-733-480-245-479-245-1442 0-959 245-1439 246-480 733-480 491 0 736 480 246 480 246 1439 0 963-246 1442-245 480-736 480zm0 500q785 0 1199-621 414-620 414-1801 0-1178-414-1799-414-620-1199-620-784 0-1198 620-414 621-414 1799 0 1181 414 1801 414 621 1198 621z"/></defs><use xlink:href="#d"/><use x="63.623047" xlink:href="#j"/><use x="127.246094" xlink:href="#w"/><use x="190.869141" xlink:href="#c"/></g><use x="141.290644" y="609.12" stroke="#000000" stroke-width=".8" xlink:href="#i"/><g transform="translate(128.57 623.72) scale(.1 -.1)"><defs><path id="t" transform="scale(.015625)" d="m691 4666h2478v-532h-1900v-1143q137 47 274 70 138 23 276 23 781 0 1237-428 457-428 457-1159 0-753-469-1171-469-417-1322-417-294 0-599 50-304 50-629 150v635q281-153 581-228t634-75q541 0 856 284 316 284 316 772 0 487-316 771-315 285-856 285-253 0-505-56-251-56-513-175v2344z"/></defs><use xlink:href="#d"/><use x="63.623047" xlink:href="#j"/><use x="127.246094" xlink:href="#w"/><use x="190.869141" xlink:href="#t"/></g><use x="220.208399" y="609.12" stroke="#000000" stroke-width=".8" xlink:href="#i"/><g transform="translate(207.48 623.72) scale(.1 -.1)"><defs><path id="u" transform="scale(.015625)" d="m525 4666h3e3v-269l-1694-4397h-659l1594 4134h-2241v532z"/></defs><use xlink:href="#d"/><use x="63.623047" xlink:href="#j"/><use x="127.246094" xlink:href="#u"/><use x="190.869141" xlink:href="#c"/></g><use x="299.126154" y="609.12" stroke="#000000" stroke-width=".8" xlink:href="#i"/><g transform="translate(286.4 623.72) scale(.1 -.1)"><use xlink:href="#d"/><use x="63.623047" xlink:href="#j"/><use x="127.246094" xlink:href="#u"/><use x="190.869141" xlink:href="#t"/></g><use x="378.043909" y="609.12" stroke="#000000" stroke-width=".8" xlink:href="#i"/><g transform="translate(365.32 623.72) scale(.1 -.1)"><defs><path id="x" transform="scale(.015625)" d="m2034 2216q-450 0-708-241-257-241-257-662 0-422 257-663 258-241 708-241t709 242q260 243 260 662 0 421-258 662-257 241-711 241zm-631 268q-406 100-633 378-226 279-226 679 0 559 398 884 399 325 1092 325 697 0 1094-325t397-884q0-400-227-679-226-278-629-378 456-106 710-416 255-309 255-755 0-679-414-1042-414-362-1186-362-771 0-1186 362-414 363-414 1042 0 446 256 755 257 310 713 416zm-231 997q0-362 226-565 227-203 636-203 407 0 636 203 230 203 230 565 0 363-230 566-229 203-636 203-409 0-636-203-226-203-226-566z"/></defs><use xlink:href="#d"/><use x="63.623047" xlink:href="#j"/><use x="127.246094" xlink:href="#x"/><use x="190.869141" xlink:href="#c"/></g><use x="457.004883" y="609.12" stroke="#000000" stroke-width=".8" xlink:href="#i"/><g transform="translate(444.28 623.72) scale(.1 -.1)"><use xlink:href="#d"/><use x="63.623047" xlink:href="#j"/><use x="127.246094" xlink:href="#x"/><use x="190.869141" xlink:href="#t"/></g><use x="535.922638" y="609.12" stroke="#000000" stroke-width=".8" xlink:href="#i"/><g transform="translate(523.2 623.72) scale(.1 -.1)"><use xlink:href="#d"/><use x="63.623047" xlink:href="#j"/><use x="127.246094" xlink:href="#j"/><use x="190.869141" xlink:href="#c"/></g><use x="614.840393" y="609.12" stroke="#000000" stroke-width=".8" xlink:href="#i"/><g transform="translate(602.12 623.72) scale(.1 -.1)"><use xlink:href="#d"/><use x="63.623047" xlink:href="#j"/><use x="127.246094" xlink:href="#j"/><use x="190.869141" xlink:href="#t"/></g><use x="693.758148" y="609.12" stroke="#000000" stroke-width=".8" xlink:href="#i"/><g transform="translate(681.03 623.72) scale(.1 -.1)"><defs><path id="h" transform="scale(.015625)" d="m1228 531h2203v-531h-2962v531q359 372 979 998 621 627 780 809 303 340 423 576 121 236 121 464 0 372-261 606-261 235-680 235-297 0-627-103-329-103-704-313v638q381 153 712 231 332 78 607 78 725 0 1156-363 431-362 431-968 0-288-108-546-107-257-392-607-78-91-497-524-418-433-1181-1211z"/></defs><use xlink:href="#h"/><use x="63.623047" xlink:href="#c"/><use x="127.246094" xlink:href="#c"/><use x="190.869141" xlink:href="#c"/></g><use x="772.719122" y="609.12" stroke="#000000" stroke-width=".8" xlink:href="#i"/><g transform="translate(759.99 623.72) scale(.1 -.1)"><use xlink:href="#h"/><use x="63.623047" xlink:href="#c"/><use x="127.246094" xlink:href="#c"/><use x="190.869141" xlink:href="#t"/></g><use x="851.636877" y="609.12" stroke="#000000" stroke-width=".8" xlink:href="#i"/><g transform="translate(838.91 623.72) scale(.1 -.1)"><use xlink:href="#h"/><use x="63.623047" xlink:href="#c"/><use x="127.246094" xlink:href="#d"/><use x="190.869141" xlink:href="#c"/></g><use x="930.554633" y="609.12" stroke="#000000" stroke-width=".8" xlink:href="#i"/><g transform="translate(917.83 623.72) scale(.1 -.1)"><use xlink:href="#h"/><use x="63.623047" xlink:href="#c"/><use x="127.246094" xlink:href="#d"/><use x="190.869141" xlink:href="#t"/></g><use x="1009.472388" y="609.12" stroke="#000000" stroke-width=".8" xlink:href="#i"/><g transform="translate(996.75 623.72) scale(.1 -.1)"><use xlink:href="#h"/><use x="63.623047" xlink:href="#c"/><use x="127.246094" xlink:href="#h"/><use x="190.869141" xlink:href="#c"/></g><defs><path id="a" d="m0 0v2" stroke="#000" stroke-width=".6"/></defs><use x="78.147796" y="609.12" stroke="#000000" stroke-width=".6" xlink:href="#a"/><use x="93.922703" y="609.12" stroke="#000000" stroke-width=".6" xlink:href="#a"/><use x="109.69761" y="609.12" stroke="#000000" stroke-width=".6" xlink:href="#a"/><use x="125.472518" y="609.12" stroke="#000000" stroke-width=".6" xlink:href="#a"/><use x="157.065551" y="609.12" stroke="#000000" stroke-width=".6" xlink:href="#a"/><use x="172.840458" y="609.12" stroke="#000000" stroke-width=".6" xlink:href="#a"/><use x="188.615365" y="609.12" stroke="#000000" stroke-width=".6" xlink:href="#a"/><use x="204.433492" y="609.12" stroke="#000000" stroke-width=".6" xlink:href="#a"/><use x="235.983306" y="609.12" stroke="#000000" stroke-width=".6" xlink:href="#a"/><use x="251.758213" y="609.12" stroke="#000000" stroke-width=".6" xlink:href="#a"/><use x="267.576339" y="609.12" stroke="#000000" stroke-width=".6" xlink:href="#a"/><use x="283.351247" y="609.12" stroke="#000000" stroke-width=".6" xlink:href="#a"/><use x="314.901061" y="609.12" stroke="#000000" stroke-width=".6" xlink:href="#a"/><use x="330.719187" y="609.12" stroke="#000000" stroke-width=".6" xlink:href="#a"/><use x="346.494095" y="609.12" stroke="#000000" stroke-width=".6" xlink:href="#a"/><use x="362.269002" y="609.12" stroke="#000000" stroke-width=".6" xlink:href="#a"/><use x="393.862035" y="609.12" stroke="#000000" stroke-width=".6" xlink:href="#a"/><use x="409.636942" y="609.12" stroke="#000000" stroke-width=".6" xlink:href="#a"/><use x="425.41185" y="609.12" stroke="#000000" stroke-width=".6" xlink:href="#a"/><use x="441.186757" y="609.12" stroke="#000000" stroke-width=".6" xlink:href="#a"/><use x="472.77979" y="609.12" stroke="#000000" stroke-width=".6" xlink:href="#a"/><use x="488.554698" y="609.12" stroke="#000000" stroke-width=".6" xlink:href="#a"/><use x="504.329605" y="609.12" stroke="#000000" stroke-width=".6" xlink:href="#a"/><use x="520.147731" y="609.12" stroke="#000000" stroke-width=".6" xlink:href="#a"/><use x="551.697545" y="609.12" stroke="#000000" stroke-width=".6" xlink:href="#a"/><use x="567.472453" y="609.12" stroke="#000000" stroke-width=".6" xlink:href="#a"/><use x="583.290579" y="609.12" stroke="#000000" stroke-width=".6" xlink:href="#a"/><use x="599.065486" y="609.12" stroke="#000000" stroke-width=".6" xlink:href="#a"/><use x="630.6153" y="609.12" stroke="#000000" stroke-width=".6" xlink:href="#a"/><use x="646.433427" y="609.12" stroke="#000000" stroke-width=".6" xlink:href="#a"/><use x="662.208334" y="609.12" stroke="#000000" stroke-width=".6" xlink:href="#a"/><use x="677.983241" y="609.12" stroke="#000000" stroke-width=".6" xlink:href="#a"/><use x="709.576274" y="609.12" stroke="#000000" stroke-width=".6" xlink:href="#a"/><use x="725.351182" y="609.12" stroke="#000000" stroke-width=".6" xlink:href="#a"/><use x="741.126089" y="609.12" stroke="#000000" stroke-width=".6" xlink:href="#a"/><use x="756.900996" y="609.12" stroke="#000000" stroke-width=".6" xlink:href="#a"/><use x="788.49403" y="609.12" stroke="#000000" stroke-width=".6" xlink:href="#a"/><use x="804.268937" y="609.12" stroke="#000000" stroke-width=".6" xlink:href="#a"/><use x="820.043844" y="609.12" stroke="#000000" stroke-width=".6" xlink:href="#a"/><use x="835.86197" y="609.12" stroke="#000000" stroke-width=".6" xlink:href="#a"/><use x="867.411785" y="609.12" stroke="#000000" stroke-width=".6" xlink:href="#a"/><use x="883.186692" y="609.12" stroke="#000000" stroke-width=".6" xlink:href="#a"/><use x="899.004818" y="609.12" stroke="#000000" stroke-width=".6" xlink:href="#a"/><use x="914.779725" y="609.12" stroke="#000000" stroke-width=".6" xlink:href="#a"/><use x="946.32954" y="609.12" stroke="#000000" stroke-width=".6" xlink:href="#a"/><use x="962.147666" y="609.12" stroke="#000000" stroke-width=".6" xlink:href="#a"/><use x="977.922573" y="609.12" stroke="#000000" stroke-width=".6" xlink:href="#a"/><use x="993.69748" y="609.12" stroke="#000000" stroke-width=".6" xlink:href="#a"/><use x="1025.290514" y="609.12" stroke="#000000" stroke-width=".6" xlink:href="#a"/><use x="1041.065421" y="609.12" stroke="#000000" stroke-width=".6" xlink:href="#a"/><use x="1056.840328" y="609.12" stroke="#000000" stroke-width=".6" xlink:href="#a"/><use x="1072.615235" y="609.12" stroke="#000000" stroke-width=".6" xlink:href="#a"/><g transform="translate(523.27 640.44) scale(.14 -.14)"><defs><path id="al" transform="scale(.015625)" d="m1259 2228v-1709h1013q509 0 754 211 246 211 246 645 0 438-246 645-245 208-754 208h-1013zm0 1919v-1406h935q462 0 688 173 227 174 227 530 0 353-227 528-226 175-688 175h-935zm-631 519h1613q722 0 1112-300 391-300 391-853 0-429-200-682t-588-315q466-100 724-418 258-317 258-792 0-625-425-966-425-340-1210-340h-1675v4666z"/><path id="q" transform="scale(.015625)" d="m1159 525v-1856h-578v4831h578v-531q182 312 458 463 277 152 661 152 638 0 1036-506 399-506 399-1331t-399-1332q-398-506-1036-506-384 0-661 152-276 152-458 464zm1957 1222q0 634-261 995t-717 361q-457 0-718-361t-261-995 261-995 718-361q456 0 717 361t261 995z"/><path id="b" transform="scale(.015625)" d="m3597 1894v-281h-2644q38-594 358-905t892-311q331 0 642 81t618 244v-544q-310-131-635-200t-659-69q-838 0-1327 487-489 488-489 1320 0 859 464 1363 464 505 1252 505 706 0 1117-455 411-454 411-1235zm-575 169q-6 471-264 752-258 282-683 282-481 0-770-272t-333-766l2050 4z"/><path id="m" transform="scale(.015625)" d="m581 3500h841l994-2344 997 2344h834v-3500h-578v2950l-966-2278h-575l-969 2278v-2950h-578v3500z"/><path id="y" transform="scale(.015625)" d="m1181 2491q0-260 200-407 200-146 572-146h775v1103h-775q-372 0-572-144t-200-406zm-818-2491 1068 1534q-362 82-603 296-240 214-240 661 0 506 335 757 336 252 1015 252h1368v-3500h-578v1478h-715l-1032-1478h-618z"/><path id="ab" transform="scale(.015625)" d="m750 794h659v-538l-512-1e3h-403l256 1e3v538z"/><path id="af" transform="scale(.015625)" d="m581 0v3500h2469v-459h-1891v-3041h-578z"/><path id="e" transform="scale(.015625)" d="m1959 3097q-462 0-731-361t-269-989 267-989q268-361 733-361 460 0 728 362 269 363 269 988 0 622-269 986-268 364-728 364zm0 487q750 0 1178-488 429-487 429-1349 0-859-429-1349-428-489-1178-489-753 0-1180 489-426 490-426 1349 0 862 426 1349 427 488 1180 488z"/><path id="v" transform="scale(.015625)" d="m1384 459h1669v2582h-1209v-438q0-1287-369-1975l-91-169zm-834 0q284 125 409 391 307 659 307 1988v662h2365v-3041h460v-1343h-460v884h-2837v-884h-460v1343h216z"/><path id="ao" transform="scale(.015625)" d="m3907 3500h575v-3500h-575v3500zm288 84zm-1414-2546q0 281-205 428-204 147-598 147h-819v-1154h819q394 0 598 148 205 149 205 431zm-2200 2462h578v-1428h844q669 0 1030-255 361-254 361-779t-361-782q-361-256-1030-256h-1422v3500z"/></defs><use xlink:href="#al"/><use x="68.603516" xlink:href="#q"/><use x="132.080078" xlink:href="#b"/><use x="193.603516" xlink:href="#m"/><use x="269.042969" xlink:href="#y"/><use x="329.199219" xlink:href="#ab"/><use x="360.986328" xlink:href="#DejaVuSans-20"/><use x="392.773438" xlink:href="#af"/><use x="445.3125" xlink:href="#e"/><use x="506.494141" xlink:href="#v"/><use x="575.634766" xlink:href="#ao"/></g><defs><path id="g" d="m0 0h-3.5" stroke="#000" stroke-width=".8"/></defs><use x="55.296" y="609.12" stroke="#000000" stroke-width=".8" xlink:href="#g"/><g transform="translate(41.934 612.92) scale(.1 -.1)"><use xlink:href="#c"/></g><use x="55.296" y="579.636" stroke="#000000" stroke-width=".8" xlink:href="#g"/><g transform="translate(41.934 583.44) scale(.1 -.1)"><use xlink:href="#d"/></g><use x="55.296" y="550.152" stroke="#000000" stroke-width=".8" xlink:href="#g"/><g transform="translate(41.934 553.95) scale(.1 -.1)"><use xlink:href="#h"/></g><use x="55.296" y="520.668" stroke="#000000" stroke-width=".8" xlink:href="#g"/><g transform="translate(41.934 524.47) scale(.1 -.1)"><defs><path id="aa" transform="scale(.015625)" d="m2597 2516q453-97 707-404 255-306 255-756 0-690-475-1069-475-378-1350-378-293 0-604 58t-642 174v609q262-153 574-231 313-78 654-78 593 0 904 234t311 681q0 413-289 645-289 233-804 233h-544v519h569q465 0 712 186t247 536q0 359-255 551-254 193-729 193-260 0-557-57-297-56-653-174v562q360 100 674 150t592 50q719 0 1137-327 419-326 419-882 0-388-222-655t-631-370z"/></defs><use xlink:href="#aa"/></g><use x="55.296" y="491.184" stroke="#000000" stroke-width=".8" xlink:href="#g"/><g transform="translate(41.934 494.98) scale(.1 -.1)"><defs><path id="z" transform="scale(.015625)" d="m2419 4116-1594-2491h1594v2491zm-166 550h794v-3041h666v-525h-666v-1100h-628v1100h-2106v609l1940 2957z"/></defs><use xlink:href="#z"/></g><use x="55.296" y="461.7" stroke="#000000" stroke-width=".8" xlink:href="#g"/><g transform="translate(41.934 465.5) scale(.1 -.1)"><use xlink:href="#t"/></g><use x="55.296" y="432.216" stroke="#000000" stroke-width=".8" xlink:href="#g"/><g transform="translate(41.934 436.02) scale(.1 -.1)"><use xlink:href="#w"/></g><use x="55.296" y="402.732" stroke="#000000" stroke-width=".8" xlink:href="#g"/><g transform="translate(41.934 406.53) scale(.1 -.1)"><use xlink:href="#u"/></g><use x="55.296" y="373.248" stroke="#000000" stroke-width=".8" xlink:href="#g"/><g transform="translate(41.934 377.05) scale(.1 -.1)"><use xlink:href="#x"/></g><use x="55.296" y="343.764" stroke="#000000" stroke-width=".8" xlink:href="#g"/><g transform="translate(41.934 347.56) scale(.1 -.1)"><use xlink:href="#j"/></g><use x="55.296" y="314.28" stroke="#000000" stroke-width=".8" xlink:href="#g"/><g transform="translate(35.571 318.08) scale(.1 -.1)"><use xlink:href="#d"/><use x="63.623047" xlink:href="#c"/></g><use x="55.296" y="284.796" stroke="#000000" stroke-width=".8" xlink:href="#g"/><g transform="translate(35.571 288.6) scale(.1 -.1)"><use xlink:href="#d"/><use x="63.623047" xlink:href="#d"/></g><use x="55.296" y="255.312" stroke="#000000" stroke-width=".8" xlink:href="#g"/><g transform="translate(35.571 259.11) scale(.1 -.1)"><use xlink:href="#d"/><use x="63.623047" xlink:href="#h"/></g><use x="55.296" y="225.828" stroke="#000000" stroke-width=".8" xlink:href="#g"/><g transform="translate(35.571 229.63) scale(.1 -.1)"><use xlink:href="#d"/><use x="63.623047" xlink:href="#aa"/></g><use x="55.296" y="196.344" stroke="#000000" stroke-width=".8" xlink:href="#g"/><g transform="translate(35.571 200.14) scale(.1 -.1)"><use xlink:href="#d"/><use x="63.623047" xlink:href="#z"/></g><use x="55.296" y="166.86" stroke="#000000" stroke-width=".8" xlink:href="#g"/><g transform="translate(35.571 170.66) scale(.1 -.1)"><use xlink:href="#d"/><use x="63.623047" xlink:href="#t"/></g><use x="55.296" y="137.376" stroke="#000000" stroke-width=".8" xlink:href="#g"/><g transform="translate(35.571 141.18) scale(.1 -.1)"><use xlink:href="#d"/><use x="63.623047" xlink:href="#w"/></g><use x="55.296" y="107.892" stroke="#000000" stroke-width=".8" xlink:href="#g"/><g transform="translate(35.571 111.69) scale(.1 -.1)"><use xlink:href="#d"/><use x="63.623047" xlink:href="#u"/></g><use x="55.296" y="78.408" stroke="#000000" stroke-width=".8" xlink:href="#g"/><g transform="translate(35.571 82.207) scale(.1 -.1)"><use xlink:href="#d"/><use x="63.623047" xlink:href="#x"/></g><use x="55.296" y="48.924" stroke="#000000" stroke-width=".8" xlink:href="#g"/><g transform="translate(35.571 52.723) scale(.1 -.1)"><use xlink:href="#d"/><use x="63.623047" xlink:href="#j"/></g><use x="55.296" y="19.44" stroke="#000000" stroke-width=".8" xlink:href="#g"/><g transform="translate(35.571 23.239) scale(.1 -.1)"><use xlink:href="#h"/><use x="63.623047" xlink:href="#c"/></g><g transform="translate(28.659 383.46) rotate(-90) scale(.14 -.14)"><defs><path id="as" transform="scale(.015625)" d="m3125 0v1913h-1303q-581 0-928 364t-347 1107v1282h628v-1232q0-496 194-743t581-247h1175v2222h634v-4666h-634z"/><path id="r" transform="scale(.015625)" d="m238 0v478q568 88 743 481 213 554 213 1969v572h2365v-3500h-575v3041h-1215v-347q0-1350-275-1956-294-647-1256-738z"/><path id="l" transform="scale(.015625)" d="m1156 1613v-1154h819q394 0 600 148 206 149 206 431 0 281-206 428t-600 147h-819zm0 1428v-969h757q325 0 531 129 206 130 206 362 0 231-206 354-206 124-531 124h-757zm-575 459h1369q616 0 947-225t331-641q0-321-169-511-168-189-500-235 397-75 616-313 219-237 219-594 0-468-361-725-361-256-1030-256h-1422v3500z"/><path id="p" transform="scale(.015625)" d="m581 3500h572v-1644l1622 1644h706l-1337-1353 1509-2147h-644l-1240 1766-616-625v-1141h-572v3500z"/><path id="k" transform="scale(.015625)" d="m3122 3366v-538q-244 135-489 202t-495 67q-560 0-870-355-309-354-309-995t309-996q310-354 870-354 250 0 495 67t489 202v-532q-241-112-499-168-257-57-548-57-791 0-1257 497-465 497-465 1341 0 856 470 1346 471 491 1290 491 265 0 518-55 253-54 491-163z"/></defs><use xlink:href="#as"/><use x="68.554688" xlink:href="#b"/><use x="130.078125" xlink:href="#r"/><use x="193.994141" xlink:href="#e"/><use x="255.175781" xlink:href="#l"/><use x="314.111328" xlink:href="#b"/><use x="375.634766" xlink:href="#p"/><use x="436.035156" xlink:href="#DejaVuSans-20"/><use x="467.822266" xlink:href="#l"/><use x="526.757812" xlink:href="#DejaVuSans-20"/><use x="558.544922" xlink:href="#p"/><use x="618.945312" xlink:href="#e"/><use x="680.126953" xlink:href="#k"/><use x="735.107422" xlink:href="#m"/><use x="810.546875" xlink:href="#e"/><use x="871.728516" xlink:href="#k"/><use x="926.708984" xlink:href="#b"/></g><path d="m82.524 579.64h0.003001v29.484h1.0063v-29.484l4.62e-4 29.484h3.3234v-29.484l4.69e-4 29.484h0.67963v-29.484l0.04547 29.484h8.5277v-29.484l0.008865 29.484h4.0068v-29.484l0.008887 29.484h2.3317v-29.484l3.11e-4 29.484h1.0657l0.042387-58.968h0.12731l2.1e-4 58.968h2.1275v-29.484l0.016603 29.484h4.5767v-29.484l2.92e-4 29.484h5.0889v-29.484l0.061822 29.484h1.2328l0.081963-58.968h0.12741l0.004922 58.968h0.35647v-29.484l3.14e-4 29.484h0.95122v-29.484l3.43e-4 29.484h1.4687v-29.484l3.34e-4 29.484h18.005v-88.452l0.043731 88.452h6.7407v-58.968l0.046889 58.968h0.18253v-58.968l0.008779 58.968h3.1045v-58.968h0.17636v58.968h0.95109v-29.484l3.16e-4 29.484h1.8168v-29.484l8.36e-4 29.484h0.46664v-58.968h0.34381v58.968h1.3041v-29.484l3.58e-4 29.484h0.69592v-29.484l2.84e-4 29.484h2.2034v-58.968h0.46482v-58.968l0.046561 58.968h0.083925v58.968h3.8079v-58.968l0.019251 58.968h3.3896v-58.968h0.13028v58.968h1.8302v-58.968h0.12746v58.968h2.2791v-58.968h0.12837v58.968h2.0446v-29.484l3.21e-4 29.484h0.43074v-58.968h0.17031v58.968h6.838v-29.484l0.048257 29.484h7.6305v-29.484l3.03e-4 29.484h1.2563v-29.484l1.46e-4 29.484h12.097v-29.484l2.82e-4 29.484h2.202v-88.452h0.46848v88.452h0.16815v-29.484h0.1708v29.484h2.2572v-88.452h0.26474v88.452h0.76288l0.042467-117.94h0.086012l0.045273 117.94h1.9161v-88.452h0.43402v88.452h2.8521v-88.452h0.34585v88.452h2.1982v-88.452h0.35171v88.452h3.4041l0.084912-206.39h0.12886l0.085153 206.39h1.1799v-88.452h0.44049v88.452h5.961v-88.452h0.25735v88.452h1.9464v-58.968h0.7653v58.968h9.7838v-88.452h0.38903v88.452h3.1168v-88.452l0.086014 88.452h1.8247v-88.452h1.0271v88.452h1.1494v-88.452h0.53159v88.452h10.929v-88.452h0.47874v88.452h9.6555v-88.452h0.5436v88.452h6.7738v-88.452h1.2116v88.452h1.5511v-88.452h2.57v88.452l0.068381-58.968h0.085103v58.968h2.0789v-88.452h1.3792v-58.968h0.34022v58.968h1.9132v88.452h6.2732v-58.968h0.67981v58.968h1.656v-58.968l0.086803 58.968h4.1301v-58.968h0.25642v58.968h1.4508v-58.968h1.2774v58.968h2.3771v-58.968l6.43e-4 58.968h2.1241v-58.968h2.2426l0.013506-147.42h0.24313v58.968h0.14849l0.07383 147.42h14.95v-58.968h2.1292v58.968h0.9351v-58.968h0.34192v58.968h0.92556v-58.968l0.086636 58.968h4.9241v-58.968h0.76612v58.968h9.755v-58.968l0.087781 58.968h2.5893v-58.968h1.3598v-58.968h0.25748v58.968h1.9522v-58.968h0.34263v58.968h0.25495v58.968h3.9491v-58.968h0.50994v-58.968h0.34224v58.968h2.2498v-58.968h0.34002v58.968h2.592v58.968h4.9717v-58.968h1.9119v-58.968l0.08467 58.968h5.5679v58.968h10.115v-58.968h2.0398v-58.968h0.33992v58.968l0.08503-58.968h0.16986v58.968h1.9123v-58.968h0.33981v58.968h2.1248v-58.968h0.33985v58.968h0.63734v58.968h2.0393v-88.452h0.55307v88.452h3.9934v-58.968h0.42495v-58.968h0.33981v58.968h0.56242v-58.968l0.097866 58.968h1.2946v-58.968h0.3398v58.968h0.17045v58.968h7.3518v-58.968l0.097639 58.968h5.5223v-58.968h0.34589v58.968h1.8906v-58.968h1.827v-88.452h0.12696v-58.968h0.21491l0.089709 147.42h1.9899v-88.452h0.34192v88.452h3.2797v-117.94h0.22013v117.94h1.0453v58.968h4.9692v-117.94h0.21681v117.94h0.46512v-88.452l0.086972 88.452h2.46v-147.42h0.26364v147.42h0.12111v-58.968h2.7612v-147.42h0.26138v147.42h3.4364v58.968h0.20894v-176.9h0.44622v176.9h2.444v-147.42h0.21452v-88.452h0.12991v147.42h2.249v-88.452h0.13114v-147.42h0.21042l0.091519 235.87h4.1131v-88.452h0.51006v88.452h1.3826v-176.9h0.261v176.9h1.1621v88.452h0.12985v-206.39h0.35546v206.39h1.1161v-147.42h0.3453v147.42h2.9962v-147.42h0.13246v147.42h3.2281v-206.39h0.30239v206.39h0.43603v-206.39h0.3028v206.39h1.3226v-58.968h0.48421v-206.39h0.3055v206.39h1.5267v-206.39h0.34351v206.39h0.89177v-147.42h0.30666v147.42h0.60396v-88.452h0.38396v58.968h0.31224v-147.42h0.17602v147.42h0.99403v-235.87h0.30388v235.87h0.63526v88.452h0.24124v-206.39h0.29728v206.39h1.7114v-206.39h0.26303v206.39h2.3312v-58.968h5.4024v58.968h8.833v-58.968h7.1822v-88.452h0.3441v88.452h6.2419v-88.452h0.3421v88.452h6.9669v-88.452h0.42527v88.452h3.1445v-88.452h0.38256v58.968h0.97745v-147.42h0.17468v147.42h2.3324v-88.452h0.25694v-147.42h0.18925v147.42h0.6237v88.452h3.553v-147.42h0.21546v147.42h1.7078v88.452h0.33102v-147.42h0.17457v147.42h3.9633v-147.42h0.2179v147.42h1.0085v-58.968h1.8499v-147.42h0.21548v147.42h1.3107v-147.42h0.2163v147.42h1.8369v-147.42h0.47002v147.42h0.94483v-58.968h0.34276v58.968h0.3948v-147.42h0.19144v147.42h2.1941v-147.42h0.21838v147.42h4.0548v-58.968h0.3422v58.968h2.5143v-147.42h0.17678v147.42h1.5736v-147.42h0.21233v147.42h0.4918l0.002537-294.84h0.34199l0.042797 294.84h4.9854v-147.42h0.2585v147.42h0.73045v-206.39h0.35903v206.39h0.50767v-88.452h0.34076v88.452h0.43821v-206.39h0.393v206.39h2.1166v-147.42h0.38421v147.42h1.4024v-147.42h0.23133v147.42h0.60209v-88.452h0.34253v88.452h1.98v-176.9h0.30045v176.9h2.2335v-206.39h0.348v206.39h2.0219v-88.452h0.30671v-206.39l0.035337 88.452h0.35032v206.39h1.5348v-206.39h0.3841v206.39h1.7202v-206.39h0.59696v206.39h0.76792v-88.452h0.18692v-206.39h0.3444l0.064625 294.84h1.4502v-206.39h0.34306v206.39h1.3907v-176.9h0.42667v176.9h1.3385v-147.42h0.31573v147.42h1.5005v-147.42h0.25866v147.42h0.2023v-58.968h0.34185v58.968h2.8555v-147.42h0.40002v147.42h0.39475v-206.39h0.43159v206.39h1.9856v-176.9h0.43174v176.9l0.003022-88.452h0.89346v88.452h2.2565v-147.42h0.42532v147.42h1.1362v-206.39h0.60544v206.39h1.3296v-206.39h0.46816v206.39h1.1321v-88.452h0.2561v58.968h0.87133v-176.9h0.35864v176.9h0.8978v-147.42h0.60376v147.42h0.94708v-176.9h0.4859v176.9h3.1037v-58.968h0.31028v-206.39l0.032101 58.968h0.60523v206.39h2.0957v-176.9h0.47331v176.9h0.41428v-176.9h0.15026v-88.452h0.33554v176.9h0.99396v-176.9l0.032976 88.452h0.43985v176.9h3.4824v-176.9h0.3574v176.9h0.81179v-206.39h0.51783v-88.452h0.20095v206.39h0.14097v88.452h4.2201v-206.39h0.42386v235.87h0.25713v-147.42h0.38597v147.42h1.853v-88.452h0.18394v-147.42h0.15798v58.968h0.3111v147.42h1.3871v-206.39h0.68767v206.39h0.30389v-147.42h0.35388v147.42h2.2342v-176.9h0.38539v176.9h1.3918l0.057143-265.36h0.28525v88.452h0.39486v206.39h0.55148v-176.9h0.39845v147.42h2.1124v-176.9h0.43337v176.9h0.95741v-206.39h0.73075v206.39h1.7732v-88.452h0.68141v88.452h0.60726v-176.9h0.43814v176.9h2.3477v-147.42h0.76333v147.42h1.5516v-176.9h0.44105v176.9h0.82076l0.033788-294.84h0.4315v206.39h0.38572v88.452h1.4489v-206.39h0.17145v206.39h1.5803v-206.39h0.39857v206.39h1.6506v-206.39h0.67843v206.39h0.82984l0.084791-235.87h0.29822v58.968h0.21402v176.9h1.6269v-206.39h0.46703v206.39h1.8978v-176.9h0.67812v176.9h2.1006v-206.39h0.28409v-88.452l0.097286 206.39h0.79701v88.452h2.4799v-206.39h0.6876v206.39h1.3073v-176.9h0.42481v206.39h2.6646v-88.452h0.51087v88.452h2.8343v-206.39h0.38489v206.39h1.1517v-176.9h0.51016v176.9h2.8532v-88.452h0.34204v58.968h3.8187v-206.39h0.42358v206.39h2.0285v-147.42h0.21398v147.42h1.3348v88.452h4.9274v-206.39h0.34427v206.39h1.9768v-176.9h0.48558v176.9h1.7822v-58.968h1.9541v-206.39h0.42526v206.39h0.76784v58.968h3.6521v-206.39h0.50995v206.39h0.93522v-206.39h0.55772v206.39h0.27892v-88.452h1.3312v-147.42h0.46813v147.42h2.507v-147.42h0.55705v147.42h0.67557v-206.39h0.55433v206.39h1.2734v-206.39h0.36906v-88.452h0.14506v206.39h0.19721v88.452h2.9017v-147.42h0.55209v147.42h0.72306v-206.39h0.51361v206.39h2.5762v-88.452h0.42498v88.452h1.5439v-206.39h0.5107v206.39h3.1864v-206.39h0.4721v206.39h1.1871v-206.39h0.46768v206.39h0.2413v-88.452h0.42755v88.452h1.3713v-206.39h0.59891v206.39h4.7573v-176.9h0.46814v176.9h0.49604v-88.452h0.4698v88.452h0.60643v-206.39h0.59568v206.39h1.7216v-206.39h0.68857v206.39h3.6122v-58.968h0.34247v88.452h7.086v-29.484l0.038506 29.484h0.099495v-88.452h0.42686v88.452h7.5213v-88.452h0.46977v88.452h2.2738v-29.484l7.2e-4 29.484h4.3218v-29.484l7.26e-4 29.484h0.21475v-29.484l7.19e-4 29.484h0.41038v-88.452h0.42765v88.452h7.4772v-88.452h0.42745v88.452h4.0059v-206.39h0.60064v206.39h2.2757v-88.452h0.42724v88.452l0.042927-58.968h0.20808v58.968h7.0986v-88.452h0.4273v88.452h3.7508v-206.39h0.55215v176.9h2.3374v-176.9h0.36898v-88.452h0.14084v176.9h0.32931v88.452h3.1128v-206.39h0.55598v206.39h4.5722v-88.452h0.59606v88.452h2.0945v-206.39h0.59821v206.39h2.0363v-206.39h0.55091v206.39h2.1553v-88.452h0.4704v88.452l0.095517-206.39h0.65258v206.39h3.9793v-206.39h0.55169v206.39h0.8506v-206.39h0.68102v206.39h0.53776v-88.452h0.4704v88.452h1.8378v-206.39h0.59465v206.39h4.4478v-88.452h0.12328v88.452h0.60038v-88.452h0.51248v88.452h0.94598v-206.39h0.68518v206.39h4.5421v-206.39h0.45397v-88.452l0.099768 206.39h0.45385v88.452h1.4456v-206.39h0.55756v206.39h0.12053v-88.452h2.1384v-206.39h0.67845v206.39h1.2339v-206.39h0.59947v206.39h0.78939v-88.452h0.47052v88.452h1.5828v-176.9h0.46689v206.39h0.15941v88.452h0.84746v-88.452h2.1382v-176.9h0.59445v176.9h1.0085v58.968h0.67831v-88.452h0.14097v-206.39h0.6533v206.39h1.0466v-176.9h0.50866v176.9h0.28562v88.452h0.59458v-88.452h4.3792v88.452h0.55067v-88.452h2.1278v88.452h0.84705v-88.452h3.0735v-176.9h0.55296v176.9h0.28622v88.452h0.84711v-88.452h1.7983v-176.9h0.32685v88.452h0.3532v176.9h0.28386v-88.452h1.3313v-117.94h0.55188v117.94h2.4528v88.452h2.5503v-88.452h0.34248v88.452h1.2729v-88.452h5.5293v88.452h0.76221v-88.452h1.3967v-88.452h0.54638l0.097623 176.9h0.59502v-88.452h2.7664v88.452h1.5702v-88.452h1.1508v88.452h1.3152v-88.452h3.7436v88.452h0.55036v-88.452h1.9985v88.452h0.6375v-88.452h0.58546v-88.452h0.63114v88.452h3.333v88.452h0.63749v-88.452h1.8283v-88.452h0.17032v88.452h5.1873v88.452h0.63729v-88.452h2.1262v88.452h0.63747v-88.452h4.5496v88.452h0.63754v-88.452h1.9585v88.452h0.59253v-88.452h4.6768v88.452h0.67996v-88.452h3.2739v88.452h1.7851v-88.452h1.7856v-88.452h0.4254v88.452h3.9119v88.452h0.16899v-88.452h3.3592v88.452h0.72214v-88.452h3.9542v88.452h0.8074v-88.452h2.6789v88.452h1.7257l0.10189-147.42h0.468v88.452h0.80741v-88.452l0.017371 58.968h6.19v88.452h0.42479v-58.968h1.8709v58.968h2.423v-88.452h1.5733v88.452h0.42485v-88.452h3.9966v88.452h0.12735v-88.452h3.1463v88.452h0.935v-88.452h3.189v88.452h0.12706v-88.452h5.1872v88.452h0.297v-58.968l5.91e-4 58.968h2.2952v-88.452h0.44023v-58.968l4.24e-4 58.968h0.28237v88.452h2.7874v-88.452l4.54e-4 88.452h0.86814v-88.452h4.422v88.452h1.1051v-88.452h2.8911v-88.452h0.3404v88.452h5.4424v88.452h2.7208v-88.452h0.3407v88.452h1.8838v-58.968h2.765v58.968h3.1315v-88.452h0.34062v88.452h1.0761v-117.94h6.2366v-88.452h0.34072v88.452h0.26813v-117.94h0.3838v117.94h0.87966v-58.968l5.1e-4 58.968h1.0979v-88.452h1.0625v-176.9l4.58e-4 176.9h0.38449v-117.94l3.06e-4 117.94h2.4827v-117.94l0.05316 88.452h0.074813v117.94h0.70916v-88.452h0.35638v-117.94l0.089281 29.484h0.065188v88.452h0.99214v117.94l0.08376-117.94h1.177v-88.452h0.14294v-176.9l3.03e-4 176.9h0.36744v88.452h3.8261v-88.452h0.51062v88.452l0.047704-176.9 2.99e-4 176.9h0.34783v-117.94h0.32172v88.452h0.41626v117.94l0.069838-117.94h0.38327v117.94h1.269v-176.9l0.023981 88.452h2.6133v-176.9l3.06e-4 176.9h2.0742v-88.452h0.34042v88.452h0.26844v-117.94h0.3978v117.94h1.9777v-88.452h0.21071v88.452h1.2655v0 294.84 0" clip-path="url(#f)" fill="none" stroke="#00f" stroke-linecap="square" stroke-width=".9"/><path d="m173.96 609.12v-589.68" clip-path="url(#f)" fill="none" stroke="#f00" stroke-dasharray="5.55,2.4" stroke-width="1.5"/><path d="m177.68 609.12v-589.68" clip-path="url(#f)" fill="none" stroke="#f00" stroke-dasharray="5.55,2.4" stroke-width="1.5"/><path d="m243.72 609.12v-589.68" clip-path="url(#f)" fill="none" stroke="#f00" stroke-dasharray="5.55,2.4" stroke-width="1.5"/><path d="m473.95 609.12v-589.68" clip-path="url(#f)" fill="none" stroke="#f00" stroke-dasharray="5.55,2.4" stroke-width="1.5"/><path d="m742.47 609.12v-589.68" clip-path="url(#f)" fill="none" stroke="#f00" stroke-dasharray="5.55,2.4" stroke-width="1.5"/><path d="m714.63 609.12v-589.68" clip-path="url(#f)" fill="none" stroke="#008000" stroke-dasharray="5.55,2.4" stroke-width="1.5"/><path d="m1016 609.12v-589.68" clip-path="url(#f)" fill="none" stroke="#008000" stroke-dasharray="5.55,2.4" stroke-width="1.5"/><path d="m1033.5 609.12v-589.68" clip-path="url(#f)" fill="none" stroke="#008000" stroke-dasharray="5.55,2.4" stroke-width="1.5"/><path d="m1033.9 609.12v-589.68" clip-path="url(#f)" fill="none" stroke="#008000" stroke-dasharray="5.55,2.4" stroke-width="1.5"/><path d="m1036.4 609.12v-589.68" clip-path="url(#f)" fill="none" stroke="#008000" stroke-dasharray="5.55,2.4" stroke-width="1.5"/><path d="m55.296 609.12v-589.68" fill="none" stroke="#000" stroke-linecap="square" stroke-width=".8"/><path d="m1082.9 609.12v-589.68" fill="none" stroke="#000" stroke-linecap="square" stroke-width=".8"/><path d="m55.296 609.12h1027.6" fill="none" stroke="#000" stroke-linecap="square" stroke-width=".8"/><path d="m55.296 19.44h1027.6" fill="none" stroke="#000" stroke-linecap="square" stroke-width=".8"/><path d="m55.296 609.12h1027.6" clip-path="url(#f)" fill="none" stroke="#b0b0b0" stroke-dasharray="0.8,1.32" stroke-width=".8"/><defs><path id="n" d="m0 0h3.5" stroke="#000" stroke-width=".8"/></defs><use x="1082.88" y="609.12" stroke="#000000" stroke-width=".8" xlink:href="#n"/><g transform="translate(1089.9 612.92) scale(.1 -.1)"><use xlink:href="#c"/></g><path d="m55.296 542.49h1027.6" clip-path="url(#f)" fill="none" stroke="#b0b0b0" stroke-dasharray="0.8,1.32" stroke-width=".8"/><use x="1082.88" y="542.489492" stroke="#000000" stroke-width=".8" xlink:href="#n"/><g transform="translate(1089.9 546.29) scale(.1 -.1)"><use xlink:href="#h"/><use x="63.623047" xlink:href="#c"/></g><path d="m55.296 475.86h1027.6" clip-path="url(#f)" fill="none" stroke="#b0b0b0" stroke-dasharray="0.8,1.32" stroke-width=".8"/><use x="1082.88" y="475.858983" stroke="#000000" stroke-width=".8" xlink:href="#n"/><g transform="translate(1089.9 479.66) scale(.1 -.1)"><use xlink:href="#z"/><use x="63.623047" xlink:href="#c"/></g><path d="m55.296 409.23h1027.6" clip-path="url(#f)" fill="none" stroke="#b0b0b0" stroke-dasharray="0.8,1.32" stroke-width=".8"/><use x="1082.88" y="409.228475" stroke="#000000" stroke-width=".8" xlink:href="#n"/><g transform="translate(1089.9 413.03) scale(.1 -.1)"><use xlink:href="#w"/><use x="63.623047" xlink:href="#c"/></g><path d="m55.296 342.6h1027.6" clip-path="url(#f)" fill="none" stroke="#b0b0b0" stroke-dasharray="0.8,1.32" stroke-width=".8"/><use x="1082.88" y="342.597966" stroke="#000000" stroke-width=".8" xlink:href="#n"/><g transform="translate(1089.9 346.4) scale(.1 -.1)"><use xlink:href="#x"/><use x="63.623047" xlink:href="#c"/></g><path d="m55.296 275.97h1027.6" clip-path="url(#f)" fill="none" stroke="#b0b0b0" stroke-dasharray="0.8,1.32" stroke-width=".8"/><use x="1082.88" y="275.967458" stroke="#000000" stroke-width=".8" xlink:href="#n"/><g transform="translate(1089.9 279.77) scale(.1 -.1)"><use xlink:href="#d"/><use x="63.623047" xlink:href="#c"/><use x="127.246094" xlink:href="#c"/></g><path d="m55.296 209.34h1027.6" clip-path="url(#f)" fill="none" stroke="#b0b0b0" stroke-dasharray="0.8,1.32" stroke-width=".8"/><use x="1082.88" y="209.336949" stroke="#000000" stroke-width=".8" xlink:href="#n"/><g transform="translate(1089.9 213.14) scale(.1 -.1)"><use xlink:href="#d"/><use x="63.623047" xlink:href="#h"/><use x="127.246094" xlink:href="#c"/></g><path d="m55.296 142.71h1027.6" clip-path="url(#f)" fill="none" stroke="#b0b0b0" stroke-dasharray="0.8,1.32" stroke-width=".8"/><use x="1082.88" y="142.706441" stroke="#000000" stroke-width=".8" xlink:href="#n"/><g transform="translate(1089.9 146.51) scale(.1 -.1)"><use xlink:href="#d"/><use x="63.623047" xlink:href="#z"/><use x="127.246094" xlink:href="#c"/></g><path d="m55.296 76.076h1027.6" clip-path="url(#f)" fill="none" stroke="#b0b0b0" stroke-dasharray="0.8,1.32" stroke-width=".8"/><use x="1082.88" y="76.075932" stroke="#000000" stroke-width=".8" xlink:href="#n"/><g transform="translate(1089.9 79.875) scale(.1 -.1)"><use xlink:href="#d"/><use x="63.623047" xlink:href="#w"/><use x="127.246094" xlink:href="#c"/></g><g transform="translate(1123.6 480.82) rotate(-90) scale(.14 -.14)"><defs><path id="ak" transform="scale(.015625)" d="m4184 4666v-4666h-631v4134h-2294v-4134h-631v4666h3556z"/><path id="o" transform="scale(.015625)" d="m581 3500h578v-1428h1866v1428h578v-3500h-578v1613h-1866v-1613h-578v3500z"/><path id="ad" transform="scale(.015625)" d="m2625 0v1472h-1072q-478 0-797 297-287 269-287 844v887h575v-834q0-366 162-550 166-185 491-185h928v1569h575v-3500h-575z"/><path id="am" transform="scale(.015625)" d="m313 2009h1684v-512h-1684v512z"/><path id="aj" transform="scale(.015625)" d="m188 3500h3353v-459h-1394v-3041h-566v3041h-1393v459z"/></defs><use xlink:href="#ak"/><use x="75.195312" xlink:href="#q"/><use x="138.671875" xlink:href="#e"/><use x="199.853516" xlink:href="#l"/><use x="258.789062" xlink:href="#b"/><use x="320.3125" xlink:href="#v"/><use x="389.453125" xlink:href="#b"/><use x="450.976562" xlink:href="#o"/><use x="516.357422" xlink:href="#o"/><use x="581.738281" xlink:href="#e"/><use x="642.919922" xlink:href="#b"/><use x="704.443359" xlink:href="#DejaVuSans-20"/><use x="736.230469" xlink:href="#l"/><use x="795.166016" xlink:href="#q"/><use x="858.642578" xlink:href="#b"/><use x="920.166016" xlink:href="#m"/><use x="995.605469" xlink:href="#y"/><use x="1055.761719" xlink:href="#DejaVuSans-20"/><use x="1087.548828" xlink:href="#l"/><use x="1146.484375" xlink:href="#DejaVuSans-20"/><use x="1178.271484" xlink:href="#p"/><use x="1238.671875" xlink:href="#e"/><use x="1299.853516" xlink:href="#k"/><use x="1354.833984" xlink:href="#m"/><use x="1430.273438" xlink:href="#e"/><use x="1491.455078" xlink:href="#k"/><use x="1546.435547" xlink:href="#b"/><use x="1607.958984" xlink:href="#ab"/><use x="1639.746094" xlink:href="#DejaVuSans-20"/><use x="1671.533203" xlink:href="#ad"/><use x="1730.615234" xlink:href="#b"/><use x="1792.138672" xlink:href="#r"/><use x="1856.054688" xlink:href="#e"/><use x="1917.236328" xlink:href="#l"/><use x="1976.171875" xlink:href="#b"/><use x="2037.695312" xlink:href="#p"/><use x="2098.095703" xlink:href="#e"/><use x="2159.277344" xlink:href="#am"/><use x="2195.361328" xlink:href="#r"/><use x="2259.277344" xlink:href="#b"/><use x="2320.800781" xlink:href="#aj"/></g><path d="m82.524 609.12 0.003001-6.33e-4 34.362-0.11024 0.13233-0.054819 30.909-0.051395 0.17636-0.074443 3.2357-2.43e-4 0.34381-0.14512 4.2041-1.35e-4 0.59531-0.27094 9.1773-0.063118 0.12746-0.053799 4.8831-0.054253 0.17031-0.071889 30.073-0.010338 0.63662-0.29662 0.1708-0.036047h2.2572l0.26474-0.16762 2.8527-0.09113 0.43402-0.2748h2.8521l0.34585-0.21898h2.1982l0.35171-0.22269 3.489-0.06272 0.21402-0.25316h1.1799l0.44049-0.2789h5.961l0.25735-0.16294h1.9464l0.7653-0.32304h9.7838l0.38903-0.24632 5.0275-0.054461 1.0271-0.65031h1.1494l0.53159-0.33658h10.929l0.47874-0.30312h9.6555l0.5436-0.34418h6.7738l1.2116-0.76714h1.5511l2.7235-1.6631h2.0789l1.3792-0.87325 0.34022-0.35902 1.9132-1.2114h6.2732l0.67981-0.28695 5.8729-0.03664 0.25642-0.10824h1.4508l1.2774-0.53917 4.5018-2.72e-4 2.2561-0.95802 0.46545-0.54705h14.95l2.1292-0.89876h0.9351l0.34192-0.14432 5.9363-0.036569 0.76612-0.32338 12.432-0.037053 3.5694-1.6154 0.59758-0.39686h3.9491l0.50994-0.21525 0.34224-0.28892 2.2498-0.94965 0.34002-0.28705 2.592-1.0941h4.9717l7.5644-3.2287h10.115l2.0398-0.86099 0.59481-0.46625 1.9123-0.80717 0.33981-0.28687 2.1248-0.89689 0.33985-0.2869 0.63734-0.26902h2.0393l0.55307-0.35018h3.9934l0.42495-0.17937 0.33981-0.28687 1.9549-0.86649 0.51025-0.35881 12.972-0.041214 0.34589-0.146h1.8906l1.9539-0.90514 0.30462-0.39324 1.9899-0.83996 0.34192-0.36082 3.2797-1.3844 0.22013-0.27875 1.0453-0.44124h4.9692l0.21681-0.18303 3.0121-0.055067 0.38475-0.2782 2.7612-1.1655 0.26138-0.38615 3.6454-1.4505 0.44622-0.56505h2.444l0.34443-0.44571 2.3801-1.59 0.30194-0.64302 4.1131-2.6042 0.51006-0.64589 1.3826-0.8754 0.261-0.49575 1.2919-0.73577 0.35546-0.52514h1.1161l0.3453-0.36438h2.9962l0.13246-0.13978h3.2281l0.30239-0.44674h0.43603l0.3028-0.44734h1.3226l0.48421-0.20438 0.3055-0.58029 1.5267-0.64443 0.34351-0.65249 0.89177-0.37642 0.30666-0.45305 0.60396-0.25493 0.87222-0.90006 0.99403-0.62937 0.30388-0.70547 0.63526-0.40222h0.24124l0.29728-0.43918h1.7114l0.26303-0.38859h2.3312l5.4024-2.2804h8.833l7.1822-3.0316 0.3441-0.36311 6.2419-2.6347 0.3421-0.361 6.9669-2.9407 0.42527-0.44876 3.1445-1.3273 0.38256-0.4037 0.97745-0.61888 0.17468-0.29494 2.3324-1.4768 0.25694-0.32537 0.18925-0.43936 0.6237-0.78979 3.553-2.2496 0.21546-0.36378 1.7078-1.0813h0.33102l0.17457-0.18422h3.9633l0.2179-0.22994h1.0085l1.8499-0.78084 0.21548-0.31833 1.3107-0.55324 0.2163-0.31955 1.8369-0.77538 0.47002-0.69439 0.94483-0.39881 0.34276-0.28936 0.3948-0.16664 0.19144-0.28282 2.1941-0.92614 0.21838-0.32262 4.0548-1.7116 0.3422-0.28888 2.5143-1.0613 0.17678-0.26116 1.5736-0.66423 0.21233-0.31368 0.49434-0.21241 0.38479-0.94742 4.9854-2.1044 0.2585-0.38189 0.73045-0.30833 0.35903-0.68196 0.50767-0.21429 0.34076-0.35959 0.43821-0.18497 0.393-0.74649 2.1166-0.89343 0.38421-0.56762 1.4024-0.59198 0.23133-0.34176 0.60209-0.25414 0.34253-0.36146 1.98-0.83577 0.30045-0.50729 2.2335-0.94277 0.348-0.661 2.0219-0.85345 0.34205-0.41315 0.35032-0.66541 1.5348-0.64784 0.3841-0.72958 1.7202-0.7261 0.59696-1.1339 0.95485-0.5214 0.40903-0.94043 1.4502-0.61212 0.34306-0.65163 1.3907-0.58702 0.42667-0.7204 1.3385-0.565 0.31573-0.46645 1.5005-0.63338 0.25866-0.38214 0.2023-0.08539 0.34185-0.28859 2.8555-1.2053 0.40002-0.59098 0.39475-0.16663 0.43159-0.81979 1.9856-0.83812 0.43476-0.73022 0.89346-0.94283 2.2565-0.95247 0.42532-0.62835 1.1362-0.4796 0.60544-1.15 1.3296-0.56124 0.46816-0.88926 1.1321-0.47786 0.2561-0.27025 0.87133-0.55169 0.35864-0.68122 0.8978-0.56845 0.60376-1.0194 0.94708-0.59964 0.4859-0.92294 3.414-2.2925 0.63733-1.3586 2.0957-1.3269 0.47331-0.89903 0.41428-0.2623 0.4858-1.1352 1.0269-1.3422 0.43985-0.83548 3.4824-2.2049 0.3574-0.67888 0.81179-0.51399 0.85975-1.8227 4.2201-2.672 0.42386-0.89455 0.25713-0.10854 0.38597-0.57022 2.0369-0.97624 0.46907-0.85867 1.3871-0.87822 0.68767-1.4513 0.30389-0.19241 0.35388-0.59749 2.2342-1.4146 0.38539-0.73203 1.4489-0.94151 0.68011-1.4724 0.55148-0.23278 0.39845-0.67275 2.1124-1.3374 0.43337-0.82317 0.95741-0.60619 0.73075-1.5423 1.7732-1.1227 0.68141-0.86287 0.60726-0.38449 0.43814-0.83224 2.3477-1.4865 0.76333-1.2888 1.5516-0.98242 0.44105-0.83776 0.85455-0.56246 0.4315-1.1839 0.38572-0.48844 1.4489-0.91739 0.17145-0.36186 1.5803-1.0006 0.39857-0.84119 1.6506-1.0451 0.67843-1.4318 0.91463-0.61489 0.51223-1.0988 1.6269-1.0301 0.46703-0.98568 1.8978-1.2016 0.67812-1.2881 2.1006-1.33 0.38137-0.86649 0.79701-1.0093 2.4799-1.5702 0.6876-1.4512 1.3073-0.82772 0.42481-0.8069 2.6646-1.1248 0.51087-0.5391 2.8343-1.1964 0.38489-0.73108 1.1517-0.48612 0.51016-0.86136 2.8532-1.2043 0.34204-0.36094 3.8187-2.4178 0.42358-0.89396 2.0285-1.2844 0.21398-0.36129 1.3348-0.84513h4.9274l0.34427-0.50862h1.9768l0.48558-0.61489h1.7822l1.9541-0.82485 0.42526-0.80777 0.76784-0.32411h3.6521l0.50995-0.75338h0.93522l0.55772-0.82396h0.27892l1.3312-0.84284 0.46813-0.79039 2.507-1.5873 0.55705-0.94052 0.67557-0.42774 0.55433-1.1699 1.2734-0.80628 0.71133-1.4266 2.9017-1.8373 0.55209-0.93215 0.72306-0.4578 0.51361-1.084 2.5762-1.6311 0.42498-0.53816 1.5439-0.97751 0.5107-1.0778 3.1864-2.0175 0.4721-0.99638 1.1871-0.75161 0.46768-0.98705 0.2413-0.15278 0.42755-0.5414 1.3713-0.86826 0.59891-1.264 4.7573-3.0121 0.46814-0.88921 0.49604-0.31407 0.4698-0.59491 0.60643-0.38396 0.59568-1.2572 1.7216-1.09 0.68857-1.4532 3.6122-2.2871 0.34247-0.36139 7.224-3.0574 0.42686-0.45044 7.5213-3.1747 0.46977-0.49573 7.2228-3.0492 0.42765-0.45128 7.4772-3.1561 0.42745-0.45107 4.0059-1.6909 0.60064-1.1409 2.2757-0.96058 0.67824-0.64462 7.0986-2.9964 0.4273-0.45091 3.7508-1.5832 0.55215-1.0488 2.3374-1.48 0.83913-1.4746 3.1128-1.9709 0.55598-1.1734 4.5722-2.8949 0.59606-0.75479 2.0945-1.3262 0.59821-1.2625 2.0363-1.2893 0.55091-1.1627 2.1553-1.3646 0.56592-0.65615 0.65258-1.3773 3.9793-2.5195 0.55169-1.1644 0.8506-0.53856 0.68102-1.4373 0.53776-0.34048 0.4704-0.59567 1.8378-1.1636 0.59465-1.255 5.1715-3.3524 0.51248-0.64896 0.94598-0.59895 0.68518-1.4461 4.5421-2.8759 0.55373-1.2318 0.45385-0.57471 1.4456-0.91531 0.67808-1.253 2.1384-2.7079 0.67845-1.8614 1.2339-1.5625 0.59947-1.6448 0.78939-0.99961 0.47052-0.89372 1.5828-2.0043 0.6263-1.3507 0.84746-0.35772 2.1382-2.2563 0.59445-1.3801 1.0085-1.0643 0.81928-0.60798 0.6533-1.7924 1.0466-1.3253 0.50866-1.2882 0.28562-0.36168 0.59458-0.37646 4.3792-5.5454 0.55067-0.34866 2.1278-2.6945 0.84705-0.53631 3.0735-3.892 0.55296-1.4004 0.28622-0.36244 0.84711-0.53635 1.7983-2.2772 0.68005-1.4987 0.28386-0.17973 1.3313-1.6858 0.55188-1.1647 2.4528-3.1059 2.5503-1.6148 0.34248-0.43369 1.2729-0.80594 5.5293-7.0018 0.76221-0.48259 1.3967-1.7686 0.644-1.1614 0.59502-0.37674 2.7664-3.5031 1.5702-0.9942 1.1508-1.4572 1.3152-0.83269 3.7436-4.7406 0.55036-0.34846 1.9985-2.5307 0.6375-0.40363 0.58546-0.74137 0.63114-1.1988 3.333-4.2206 0.63749-0.40363 7.1859-9.2074 0.63729-0.4035 2.1262-2.6924 0.63747-0.40362 4.5496-5.7611 0.63754-0.40366 1.9585-2.48 0.59253-0.37516 4.6768-5.9223 0.67996-0.43052 3.2739-4.1457 1.7851-1.1303 1.7856-2.2612 0.4254-0.80804 7.4401-9.3144 0.72214-0.45723 3.9542-5.0072 0.8074-0.51121 2.6789-3.3923 1.8276-1.2001 0.468-0.79018 0.82478-0.88135 6.19-7.8384 0.42479-0.26896 1.8709-1.9743 2.423-1.5341 1.5733-1.9923 0.42485-0.26899 7.2702-9.1257 0.935-0.592 8.5033-10.687 2.5928-1.6419 0.72302-0.91574 3.656-2.3151 4.422-5.5996 1.1051-0.69968 2.8911-3.6611 0.3404-0.64657 5.4424-6.8917 2.7208-1.7227 0.3407-0.43143 1.8838-1.1927 2.765-2.9177 3.1315-1.9827 0.34062-0.43133 1.0761-0.68131 6.2366-9.2137 0.99266-2.0062 1.978-2.9225 4.0585-8.627 0.70916-1.0477 2.9069-6.1971 0.36744-1.0081 3.8261-8.0751 1.2282-3.1874 0.86937-1.9593 1.293-1.9106 5.2966-11.395 0.3978-1.1754 3.4539-7.4114" clip-path="url(#f)" fill="none" stroke="#f00" stroke-dasharray="14.8,6.4" stroke-width="4"/><path d="m55.296 609.12v-589.68" fill="none" stroke="#000" stroke-linecap="square" stroke-width=".8"/><path d="m1082.9 609.12v-589.68" fill="none" stroke="#000" stroke-linecap="square" stroke-width=".8"/><path d="m55.296 609.12h1027.6" fill="none" stroke="#000" stroke-linecap="square" stroke-width=".8"/><path d="m55.296 19.44h1027.6" fill="none" stroke="#000" stroke-linecap="square" stroke-width=".8"/><g transform="translate(199.4 13.44) scale(.12 -.12)"><defs><path id="ae" transform="scale(.015625)" d="m3603 3500v-3500h-578v3041h-1866v-3041h-578v3500h3022z"/><path id="s" transform="scale(.015625)" d="m3578 3500v-3500h-572v2809l-1687-2809h-738v3500h572v-2803l1685 2803h740z"/><path id="ac" transform="scale(.015625)" d="m2781 1038q0 281-205 428-204 147-598 147h-819v-1154h819q394 0 598 148 205 149 205 431zm-2200 2462h578v-1428h844q669 0 1030-255 361-254 361-779t-361-782q-361-256-1030-256h-1422v3500z"/><path id="ag" transform="scale(.015625)" d="m2194 1759q-697 0-966-159t-269-544q0-306 202-486 202-179 548-179 479 0 768 339t289 901v128h-572zm1147 238v-1997h-575v531q-197-318-491-470t-719-152q-537 0-855 302-317 302-317 808 0 590 395 890 396 300 1180 300h807v57q0 397-261 614t-733 217q-300 0-585-72-284-72-546-216v532q315 122 612 182 297 61 578 61 760 0 1135-394 375-393 375-1193z"/><path id="aq" transform="scale(.015625)" d="m2206 1888q388-75 603-304 216-228 216-565 0-541-403-826-403-284-1147-284-250 0-514 44t-545 131v535q222-116 487-174 266-57 556-57 472 0 736 175t264 456q0 275-234 442t-662 167h-463v475h484q363 0 574 139t211 358q0 200-218 344-217 144-588 144-222 0-474-41-251-41-555-131v522q307 75 572 112 266 38 503 38 613 0 967-246 355-245 355-686 0-290-188-492-187-201-537-276z"/><path id="ap" transform="scale(.015625)" d="m3578 3500v-3500h-572v2809l-1687-2809h-738v3500h572v-2803l1685 2803h740zm-2476 1333h369q34-234 185-352 152-117 424-117 269 0 419 116t190 353h369q-31-447-278-672t-700-225-700 225-278 672z"/><path id="ah" transform="scale(.015625)" d="m684 794h660v-794h-660v794z"/><path id="at" transform="scale(.015625)" d="m263 0v531q678 147 871 660 272 806 272 2681v794h2775v-4666h-631v4134h-1516v-575q0-1768-318-2593-307-791-1453-966z"/><path id="ai" transform="scale(.015625)" d="m3431 3097q-462 0-731-361t-269-989 267-989q268-361 733-361 460 0 728 362 269 363 269 988 0 622-269 986-268 364-728 364zm-1587-994q59 594 448 1037 389 444 1139 444t1178-488q429-487 429-1349 0-859-429-1349-428-489-1178-489-753 0-1164 472t-439 1247h-650v-1628h-575v3500h575v-1397h666z"/><path id="ar" transform="scale(.015625)" d="m1284 3322q0-409 233-620t689-211h982v1656h-982q-456 0-689-208t-233-617zm-859-3322 1275 2041q-312 81-712 345t-400 936q0 644 406 994t1212 350h1613v-4666h-631v1972h-844l-1231-1972h-688z"/></defs><use xlink:href="#ak"/><use x="75.195312" xlink:href="#b"/><use x="136.71875" xlink:href="#q"/><use x="200.195312" xlink:href="#b"/><use x="261.71875" xlink:href="#ae"/><use x="327.099609" xlink:href="#s"/><use x="392.089844" xlink:href="#k"/><use x="447.070312" xlink:href="#ac"/><use x="506.005859" xlink:href="#DejaVuSans-20"/><use x="537.792969" xlink:href="#p"/><use x="598.193359" xlink:href="#e"/><use x="659.375" xlink:href="#k"/><use x="714.355469" xlink:href="#m"/><use x="789.794922" xlink:href="#s"/><use x="854.785156" xlink:href="#ad"/><use x="913.867188" xlink:href="#b"/><use x="975.390625" xlink:href="#k"/><use x="1030.371094" xlink:href="#p"/><use x="1090.771484" xlink:href="#e"/><use x="1151.953125" xlink:href="#af"/><use x="1204.492188" xlink:href="#e"/><use x="1265.673828" xlink:href="#DejaVuSans-20"/><use x="1297.460938" xlink:href="#o"/><use x="1362.841797" xlink:href="#ag"/><use x="1424.121094" xlink:href="#k"/><use x="1479.101562" xlink:href="#b"/><use x="1540.625" xlink:href="#r"/><use x="1604.541016" xlink:href="#b"/><use x="1666.064453" xlink:href="#o"/><use x="1731.445312" xlink:href="#s"/><use x="1796.435547" xlink:href="#y"/><use x="1856.591797" xlink:href="#ab"/><use x="1888.378906" xlink:href="#DejaVuSans-20"/><use x="1920.166016" xlink:href="#u"/><use x="1983.789062" xlink:href="#h"/><use x="2047.412109" xlink:href="#u"/><use x="2111.035156" xlink:href="#DejaVuSans-20"/><use x="2142.822266" xlink:href="#s"/><use x="2207.8125" xlink:href="#aq"/><use x="2260.986328" xlink:href="#m"/><use x="2336.425781" xlink:href="#b"/><use x="2397.949219" xlink:href="#o"/><use x="2463.330078" xlink:href="#b"/><use x="2524.853516" xlink:href="#o"/><use x="2590.234375" xlink:href="#s"/><use x="2655.224609" xlink:href="#ap"/><use x="2720.214844" xlink:href="#ah"/><use x="2752.001953" xlink:href="#DejaVuSans-20"/><use x="2783.789062" xlink:href="#at"/><use x="2858.984375" xlink:href="#ai"/><use x="2943.164062" xlink:href="#v"/><use x="3012.304688" xlink:href="#s"/><use x="3077.294922" xlink:href="#DejaVuSans-20"/><use x="3109.082031" xlink:href="#ae"/><use x="3174.462891" xlink:href="#q"/><use x="3237.939453" xlink:href="#e"/><use x="3299.121094" xlink:href="#l"/><use x="3358.056641" xlink:href="#b"/><use x="3419.580078" xlink:href="#r"/><use x="3483.496094" xlink:href="#s"/><use x="3548.486328" xlink:href="#DejaVuSans-20"/><use x="3580.273438" xlink:href="#l"/><use x="3639.208984" xlink:href="#DejaVuSans-20"/><use x="3670.996094" xlink:href="#p"/><use x="3731.396484" xlink:href="#e"/><use x="3792.578125" xlink:href="#k"/><use x="3847.558594" xlink:href="#m"/><use x="3922.998047" xlink:href="#e"/><use x="3984.179688" xlink:href="#k"/><use x="4039.160156" xlink:href="#b"/><use x="4100.683594" xlink:href="#DejaVuSans-20"/><use x="4132.470703" xlink:href="#d"/><use x="4196.09375" xlink:href="#u"/><use x="4259.716797" xlink:href="#aa"/><use x="4323.339844" xlink:href="#ah"/><use x="4355.126953" xlink:href="#j"/><use x="4418.75" xlink:href="#DejaVuSans-20"/><use x="4450.537109" xlink:href="#ad"/><use x="4509.619141" xlink:href="#b"/><use x="4571.142578" xlink:href="#r"/><use x="4635.058594" xlink:href="#e"/><use x="4696.240234" xlink:href="#l"/><use x="4755.175781" xlink:href="#b"/><use x="4816.699219" xlink:href="#p"/><use x="4877.099609" xlink:href="#e"/><use x="4938.28125" xlink:href="#am"/><use x="4974.365234" xlink:href="#r"/><use x="5038.28125" xlink:href="#b"/><use x="5099.804688" xlink:href="#aj"/><use x="5158.056641" xlink:href="#ah"/><use x="5189.84375" xlink:href="#DejaVuSans-20"/><use x="5221.630859" xlink:href="#ar"/><use x="5291.113281" xlink:href="#o"/><use x="5356.494141" xlink:href="#l"/><use x="5415.429688" xlink:href="#ag"/><use x="5476.708984" xlink:href="#q"/><use x="5540.185547" xlink:href="#ac"/><use x="5599.121094" xlink:href="#DejaVuSans-20"/><use x="5630.908203" xlink:href="#h"/><use x="5694.53125" xlink:href="#c"/><use x="5758.154297" xlink:href="#h"/><use x="5821.777344" xlink:href="#aa"/><use x="5885.400391" xlink:href="#DejaVuSans-20"/><use x="5917.1875" xlink:href="#af"/><use x="5969.726562" xlink:href="#e"/><use x="6030.908203" xlink:href="#v"/><use x="6100.048828" xlink:href="#ag"/></g><path d="m64.396 48.922h313.05q2.6 0 2.6-2.6v-17.782q0-2.6-2.6-2.6h-313.05q-2.6 0-2.6 2.6v17.782q0 2.6 2.6 2.6z" fill="#fff" opacity=".8" stroke="#ccc"/><path d="m66.996 36.468h13 13" fill="none" stroke="#f00" stroke-dasharray="14.8,6.4" stroke-width="4"/><g transform="translate(103.4 41.018) scale(.13 -.13)"><use xlink:href="#al"/><use x="68.603516" xlink:href="#q"/><use x="132.080078" xlink:href="#b"/><use x="193.603516" xlink:href="#m"/><use x="269.042969" xlink:href="#y"/><use x="329.199219" xlink:href="#ab"/><use x="360.986328" xlink:href="#DejaVuSans-20"/><use x="392.773438" xlink:href="#ae"/><use x="458.154297" xlink:href="#q"/><use x="521.630859" xlink:href="#e"/><use x="582.8125" xlink:href="#l"/><use x="641.748047" xlink:href="#b"/><use x="703.271484" xlink:href="#v"/><use x="772.412109" xlink:href="#b"/><use x="833.935547" xlink:href="#o"/><use x="899.316406" xlink:href="#o"/><use x="964.697266" xlink:href="#e"/><use x="1025.878906" xlink:href="#b"/><use x="1087.402344" xlink:href="#DejaVuSans-20"/><use x="1119.189453" xlink:href="#r"/><use x="1183.105469" xlink:href="#ai"/><use x="1267.285156" xlink:href="#v"/><use x="1336.425781" xlink:href="#ac"/><use x="1395.361328" xlink:href="#m"/><use x="1470.800781" xlink:href="#s"/><use x="1535.791016" xlink:href="#DejaVuSans-20"/><use x="1567.578125" xlink:href="#l"/><use x="1626.513672" xlink:href="#DejaVuSans-20"/><use x="1658.300781" xlink:href="#p"/><use x="1718.701172" xlink:href="#e"/><use x="1779.882812" xlink:href="#k"/><use x="1834.863281" xlink:href="#m"/><use x="1910.302734" xlink:href="#e"/><use x="1971.484375" xlink:href="#k"/><use x="2026.464844" xlink:href="#b"/></g><defs><clipPath id="f"><rect x="55.296" y="19.44" width="1027.6" height="589.68"/></clipPath></defs></svg>
