<?xml version="1.0" encoding="UTF-8"?>
<!DOCTYPE svg  PUBLIC '-//W3C//DTD SVG 1.1//EN'  'http://www.w3.org/Graphics/SVG/1.1/DTD/svg11.dtd'>
<svg width="1152pt" height="648pt" version="1.1" viewBox="0 0 1152 648" xmlns="http://www.w3.org/2000/svg" xmlns:xlink="http://www.w3.org/1999/xlink"><defs><style type="text/css">*{stroke-linejoin: round; stroke-linecap: butt}</style></defs><path d="m0 648h1152v-648h-1152z" fill="#fff"/><path d="m55.296 609.12h1027.6v-589.68h-1027.6z" fill="#fff"/><path d="m62.33 609.12v-589.68" clip-path="url(#b)" fill="none" stroke="#b0b0b0" stroke-dasharray="0.8,1.32" stroke-width=".8"/><defs><path id="g" d="m0 0v3.5" stroke="#000" stroke-width=".8"/></defs><use x="62.32967" y="609.12" stroke="#000000" stroke-width=".8" xlink:href="#g"/><g transform="translate(49.605 623.72) scale(.1 -.1)"><defs><path id="c" transform="scale(.015625)" d="m794 531h1031v3560l-1122-225v575l1116 225h631v-4135h1031v-531h-2687v531z"/><path id="i" transform="scale(.015625)" d="m703 97v575q238-113 481-172 244-59 479-59 625 0 954 420 330 420 377 1277-181-269-460-413-278-144-615-144-700 0-1108 423-408 424-408 1159 0 718 425 1152 425 435 1131 435 810 0 1236-621 427-620 427-1801 0-1103-524-1761-523-658-1407-658-238 0-482 47-243 47-506 141zm1256 1978q425 0 673 290 249 291 249 798 0 503-249 795-248 292-673 292t-673-292-248-795q0-507 248-798 248-290 673-290z"/><path id="v" transform="scale(.015625)" d="m2113 2584q-425 0-674-291-248-290-248-796 0-503 248-796 249-292 674-292t673 292q248 293 248 796 0 506-248 796-248 291-673 291zm1253 1979v-575q-238 112-480 171-242 60-480 60-625 0-955-422-329-422-376-1275 184 272 462 417 279 145 613 145 703 0 1111-427 408-426 408-1160 0-719-425-1154-425-434-1131-434-810 0-1238 620-428 621-428 1799 0 1106 525 1764t1409 658q238 0 480-47t505-140z"/><path id="e" transform="scale(.015625)" d="m2034 4250q-487 0-733-480-245-479-245-1442 0-959 245-1439 246-480 733-480 491 0 736 480 246 480 246 1439 0 963-246 1442-245 480-736 480zm0 500q785 0 1199-621 414-620 414-1801 0-1178-414-1799-414-620-1199-620-784 0-1198 620-414 621-414 1799 0 1181 414 1801 414 621 1198 621z"/></defs><use xlink:href="#c"/><use x="63.623047" xlink:href="#i"/><use x="127.246094" xlink:href="#v"/><use x="190.869141" xlink:href="#e"/></g><path d="m141.29 609.12v-589.68" clip-path="url(#b)" fill="none" stroke="#b0b0b0" stroke-dasharray="0.8,1.32" stroke-width=".8"/><use x="141.290644" y="609.12" stroke="#000000" stroke-width=".8" xlink:href="#g"/><g transform="translate(128.57 623.72) scale(.1 -.1)"><defs><path id="l" transform="scale(.015625)" d="m691 4666h2478v-532h-1900v-1143q137 47 274 70 138 23 276 23 781 0 1237-428 457-428 457-1159 0-753-469-1171-469-417-1322-417-294 0-599 50-304 50-629 150v635q281-153 581-228t634-75q541 0 856 284 316 284 316 772 0 487-316 771-315 285-856 285-253 0-505-56-251-56-513-175v2344z"/></defs><use xlink:href="#c"/><use x="63.623047" xlink:href="#i"/><use x="127.246094" xlink:href="#v"/><use x="190.869141" xlink:href="#l"/></g><path d="m220.21 609.12v-589.68" clip-path="url(#b)" fill="none" stroke="#b0b0b0" stroke-dasharray="0.8,1.32" stroke-width=".8"/><use x="220.208399" y="609.12" stroke="#000000" stroke-width=".8" xlink:href="#g"/><g transform="translate(207.48 623.72) scale(.1 -.1)"><defs><path id="n" transform="scale(.015625)" d="m525 4666h3e3v-269l-1694-4397h-659l1594 4134h-2241v532z"/></defs><use xlink:href="#c"/><use x="63.623047" xlink:href="#i"/><use x="127.246094" xlink:href="#n"/><use x="190.869141" xlink:href="#e"/></g><path d="m299.13 609.12v-589.68" clip-path="url(#b)" fill="none" stroke="#b0b0b0" stroke-dasharray="0.8,1.32" stroke-width=".8"/><use x="299.126154" y="609.12" stroke="#000000" stroke-width=".8" xlink:href="#g"/><g transform="translate(286.4 623.72) scale(.1 -.1)"><use xlink:href="#c"/><use x="63.623047" xlink:href="#i"/><use x="127.246094" xlink:href="#n"/><use x="190.869141" xlink:href="#l"/></g><path d="m378.04 609.12v-589.68" clip-path="url(#b)" fill="none" stroke="#b0b0b0" stroke-dasharray="0.8,1.32" stroke-width=".8"/><use x="378.043909" y="609.12" stroke="#000000" stroke-width=".8" xlink:href="#g"/><g transform="translate(365.32 623.72) scale(.1 -.1)"><defs><path id="u" transform="scale(.015625)" d="m2034 2216q-450 0-708-241-257-241-257-662 0-422 257-663 258-241 708-241t709 242q260 243 260 662 0 421-258 662-257 241-711 241zm-631 268q-406 100-633 378-226 279-226 679 0 559 398 884 399 325 1092 325 697 0 1094-325t397-884q0-400-227-679-226-278-629-378 456-106 710-416 255-309 255-755 0-679-414-1042-414-362-1186-362-771 0-1186 362-414 363-414 1042 0 446 256 755 257 310 713 416zm-231 997q0-362 226-565 227-203 636-203 407 0 636 203 230 203 230 565 0 363-230 566-229 203-636 203-409 0-636-203-226-203-226-566z"/></defs><use xlink:href="#c"/><use x="63.623047" xlink:href="#i"/><use x="127.246094" xlink:href="#u"/><use x="190.869141" xlink:href="#e"/></g><path d="m457 609.12v-589.68" clip-path="url(#b)" fill="none" stroke="#b0b0b0" stroke-dasharray="0.8,1.32" stroke-width=".8"/><use x="457.004883" y="609.12" stroke="#000000" stroke-width=".8" xlink:href="#g"/><g transform="translate(444.28 623.72) scale(.1 -.1)"><use xlink:href="#c"/><use x="63.623047" xlink:href="#i"/><use x="127.246094" xlink:href="#u"/><use x="190.869141" xlink:href="#l"/></g><path d="m535.92 609.12v-589.68" clip-path="url(#b)" fill="none" stroke="#b0b0b0" stroke-dasharray="0.8,1.32" stroke-width=".8"/><use x="535.922638" y="609.12" stroke="#000000" stroke-width=".8" xlink:href="#g"/><g transform="translate(523.2 623.72) scale(.1 -.1)"><use xlink:href="#c"/><use x="63.623047" xlink:href="#i"/><use x="127.246094" xlink:href="#i"/><use x="190.869141" xlink:href="#e"/></g><path d="m614.84 609.12v-589.68" clip-path="url(#b)" fill="none" stroke="#b0b0b0" stroke-dasharray="0.8,1.32" stroke-width=".8"/><use x="614.840393" y="609.12" stroke="#000000" stroke-width=".8" xlink:href="#g"/><g transform="translate(602.12 623.72) scale(.1 -.1)"><use xlink:href="#c"/><use x="63.623047" xlink:href="#i"/><use x="127.246094" xlink:href="#i"/><use x="190.869141" xlink:href="#l"/></g><path d="m693.76 609.12v-589.68" clip-path="url(#b)" fill="none" stroke="#b0b0b0" stroke-dasharray="0.8,1.32" stroke-width=".8"/><use x="693.758148" y="609.12" stroke="#000000" stroke-width=".8" xlink:href="#g"/><g transform="translate(681.03 623.72) scale(.1 -.1)"><defs><path id="j" transform="scale(.015625)" d="m1228 531h2203v-531h-2962v531q359 372 979 998 621 627 780 809 303 340 423 576 121 236 121 464 0 372-261 606-261 235-680 235-297 0-627-103-329-103-704-313v638q381 153 712 231 332 78 607 78 725 0 1156-363 431-362 431-968 0-288-108-546-107-257-392-607-78-91-497-524-418-433-1181-1211z"/></defs><use xlink:href="#j"/><use x="63.623047" xlink:href="#e"/><use x="127.246094" xlink:href="#e"/><use x="190.869141" xlink:href="#e"/></g><path d="m772.72 609.12v-589.68" clip-path="url(#b)" fill="none" stroke="#b0b0b0" stroke-dasharray="0.8,1.32" stroke-width=".8"/><use x="772.719122" y="609.12" stroke="#000000" stroke-width=".8" xlink:href="#g"/><g transform="translate(759.99 623.72) scale(.1 -.1)"><use xlink:href="#j"/><use x="63.623047" xlink:href="#e"/><use x="127.246094" xlink:href="#e"/><use x="190.869141" xlink:href="#l"/></g><path d="m851.64 609.12v-589.68" clip-path="url(#b)" fill="none" stroke="#b0b0b0" stroke-dasharray="0.8,1.32" stroke-width=".8"/><use x="851.636877" y="609.12" stroke="#000000" stroke-width=".8" xlink:href="#g"/><g transform="translate(838.91 623.72) scale(.1 -.1)"><use xlink:href="#j"/><use x="63.623047" xlink:href="#e"/><use x="127.246094" xlink:href="#c"/><use x="190.869141" xlink:href="#e"/></g><path d="m930.55 609.12v-589.68" clip-path="url(#b)" fill="none" stroke="#b0b0b0" stroke-dasharray="0.8,1.32" stroke-width=".8"/><use x="930.554633" y="609.12" stroke="#000000" stroke-width=".8" xlink:href="#g"/><g transform="translate(917.83 623.72) scale(.1 -.1)"><use xlink:href="#j"/><use x="63.623047" xlink:href="#e"/><use x="127.246094" xlink:href="#c"/><use x="190.869141" xlink:href="#l"/></g><path d="m1009.5 609.12v-589.68" clip-path="url(#b)" fill="none" stroke="#b0b0b0" stroke-dasharray="0.8,1.32" stroke-width=".8"/><use x="1009.472388" y="609.12" stroke="#000000" stroke-width=".8" xlink:href="#g"/><g transform="translate(996.75 623.72) scale(.1 -.1)"><use xlink:href="#j"/><use x="63.623047" xlink:href="#e"/><use x="127.246094" xlink:href="#j"/><use x="190.869141" xlink:href="#e"/></g><defs><path id="a" d="m0 0v2" stroke="#000" stroke-width=".6"/></defs><use x="78.147796" y="609.12" stroke="#000000" stroke-width=".6" xlink:href="#a"/><use x="93.922703" y="609.12" stroke="#000000" stroke-width=".6" xlink:href="#a"/><use x="109.69761" y="609.12" stroke="#000000" stroke-width=".6" xlink:href="#a"/><use x="125.472518" y="609.12" stroke="#000000" stroke-width=".6" xlink:href="#a"/><use x="157.065551" y="609.12" stroke="#000000" stroke-width=".6" xlink:href="#a"/><use x="172.840458" y="609.12" stroke="#000000" stroke-width=".6" xlink:href="#a"/><use x="188.615365" y="609.12" stroke="#000000" stroke-width=".6" xlink:href="#a"/><use x="204.433492" y="609.12" stroke="#000000" stroke-width=".6" xlink:href="#a"/><use x="235.983306" y="609.12" stroke="#000000" stroke-width=".6" xlink:href="#a"/><use x="251.758213" y="609.12" stroke="#000000" stroke-width=".6" xlink:href="#a"/><use x="267.576339" y="609.12" stroke="#000000" stroke-width=".6" xlink:href="#a"/><use x="283.351247" y="609.12" stroke="#000000" stroke-width=".6" xlink:href="#a"/><use x="314.901061" y="609.12" stroke="#000000" stroke-width=".6" xlink:href="#a"/><use x="330.719187" y="609.12" stroke="#000000" stroke-width=".6" xlink:href="#a"/><use x="346.494095" y="609.12" stroke="#000000" stroke-width=".6" xlink:href="#a"/><use x="362.269002" y="609.12" stroke="#000000" stroke-width=".6" xlink:href="#a"/><use x="393.862035" y="609.12" stroke="#000000" stroke-width=".6" xlink:href="#a"/><use x="409.636942" y="609.12" stroke="#000000" stroke-width=".6" xlink:href="#a"/><use x="425.41185" y="609.12" stroke="#000000" stroke-width=".6" xlink:href="#a"/><use x="441.186757" y="609.12" stroke="#000000" stroke-width=".6" xlink:href="#a"/><use x="472.77979" y="609.12" stroke="#000000" stroke-width=".6" xlink:href="#a"/><use x="488.554698" y="609.12" stroke="#000000" stroke-width=".6" xlink:href="#a"/><use x="504.329605" y="609.12" stroke="#000000" stroke-width=".6" xlink:href="#a"/><use x="520.147731" y="609.12" stroke="#000000" stroke-width=".6" xlink:href="#a"/><use x="551.697545" y="609.12" stroke="#000000" stroke-width=".6" xlink:href="#a"/><use x="567.472453" y="609.12" stroke="#000000" stroke-width=".6" xlink:href="#a"/><use x="583.290579" y="609.12" stroke="#000000" stroke-width=".6" xlink:href="#a"/><use x="599.065486" y="609.12" stroke="#000000" stroke-width=".6" xlink:href="#a"/><use x="630.6153" y="609.12" stroke="#000000" stroke-width=".6" xlink:href="#a"/><use x="646.433427" y="609.12" stroke="#000000" stroke-width=".6" xlink:href="#a"/><use x="662.208334" y="609.12" stroke="#000000" stroke-width=".6" xlink:href="#a"/><use x="677.983241" y="609.12" stroke="#000000" stroke-width=".6" xlink:href="#a"/><use x="709.576274" y="609.12" stroke="#000000" stroke-width=".6" xlink:href="#a"/><use x="725.351182" y="609.12" stroke="#000000" stroke-width=".6" xlink:href="#a"/><use x="741.126089" y="609.12" stroke="#000000" stroke-width=".6" xlink:href="#a"/><use x="756.900996" y="609.12" stroke="#000000" stroke-width=".6" xlink:href="#a"/><use x="788.49403" y="609.12" stroke="#000000" stroke-width=".6" xlink:href="#a"/><use x="804.268937" y="609.12" stroke="#000000" stroke-width=".6" xlink:href="#a"/><use x="820.043844" y="609.12" stroke="#000000" stroke-width=".6" xlink:href="#a"/><use x="835.86197" y="609.12" stroke="#000000" stroke-width=".6" xlink:href="#a"/><use x="867.411785" y="609.12" stroke="#000000" stroke-width=".6" xlink:href="#a"/><use x="883.186692" y="609.12" stroke="#000000" stroke-width=".6" xlink:href="#a"/><use x="899.004818" y="609.12" stroke="#000000" stroke-width=".6" xlink:href="#a"/><use x="914.779725" y="609.12" stroke="#000000" stroke-width=".6" xlink:href="#a"/><use x="946.32954" y="609.12" stroke="#000000" stroke-width=".6" xlink:href="#a"/><use x="962.147666" y="609.12" stroke="#000000" stroke-width=".6" xlink:href="#a"/><use x="977.922573" y="609.12" stroke="#000000" stroke-width=".6" xlink:href="#a"/><use x="993.69748" y="609.12" stroke="#000000" stroke-width=".6" xlink:href="#a"/><use x="1025.290514" y="609.12" stroke="#000000" stroke-width=".6" xlink:href="#a"/><use x="1041.065421" y="609.12" stroke="#000000" stroke-width=".6" xlink:href="#a"/><use x="1056.840328" y="609.12" stroke="#000000" stroke-width=".6" xlink:href="#a"/><use x="1072.615235" y="609.12" stroke="#000000" stroke-width=".6" xlink:href="#a"/><g transform="translate(523.27 640.44) scale(.14 -.14)"><defs><path id="aq" transform="scale(.015625)" d="m1259 2228v-1709h1013q509 0 754 211 246 211 246 645 0 438-246 645-245 208-754 208h-1013zm0 1919v-1406h935q462 0 688 173 227 174 227 530 0 353-227 528-226 175-688 175h-935zm-631 519h1613q722 0 1112-300 391-300 391-853 0-429-200-682t-588-315q466-100 724-418 258-317 258-792 0-625-425-966-425-340-1210-340h-1675v4666z"/><path id="t" transform="scale(.015625)" d="m1159 525v-1856h-578v4831h578v-531q182 312 458 463 277 152 661 152 638 0 1036-506 399-506 399-1331t-399-1332q-398-506-1036-506-384 0-661 152-276 152-458 464zm1957 1222q0 634-261 995t-717 361q-457 0-718-361t-261-995 261-995 718-361q456 0 717 361t261 995z"/><path id="f" transform="scale(.015625)" d="m3597 1894v-281h-2644q38-594 358-905t892-311q331 0 642 81t618 244v-544q-310-131-635-200t-659-69q-838 0-1327 487-489 488-489 1320 0 859 464 1363 464 505 1252 505 706 0 1117-455 411-454 411-1235zm-575 169q-6 471-264 752-258 282-683 282-481 0-770-272t-333-766l2050 4z"/><path id="r" transform="scale(.015625)" d="m581 3500h841l994-2344 997 2344h834v-3500h-578v2950l-966-2278h-575l-969 2278v-2950h-578v3500z"/><path id="ab" transform="scale(.015625)" d="m1181 2491q0-260 200-407 200-146 572-146h775v1103h-775q-372 0-572-144t-200-406zm-818-2491 1068 1534q-362 82-603 296-240 214-240 661 0 506 335 757 336 252 1015 252h1368v-3500h-578v1478h-715l-1032-1478h-618z"/><path id="ag" transform="scale(.015625)" d="m750 794h659v-538l-512-1e3h-403l256 1e3v538z"/><path id="y" transform="scale(.015625)" d="m581 0v3500h2469v-459h-1891v-3041h-578z"/><path id="h" transform="scale(.015625)" d="m1959 3097q-462 0-731-361t-269-989 267-989q268-361 733-361 460 0 728 362 269 363 269 988 0 622-269 986-268 364-728 364zm0 487q750 0 1178-488 429-487 429-1349 0-859-429-1349-428-489-1178-489-753 0-1180 489-426 490-426 1349 0 862 426 1349 427 488 1180 488z"/><path id="x" transform="scale(.015625)" d="m1384 459h1669v2582h-1209v-438q0-1287-369-1975l-91-169zm-834 0q284 125 409 391 307 659 307 1988v662h2365v-3041h460v-1343h-460v884h-2837v-884h-460v1343h216z"/><path id="ai" transform="scale(.015625)" d="m3907 3500h575v-3500h-575v3500zm288 84zm-1414-2546q0 281-205 428-204 147-598 147h-819v-1154h819q394 0 598 148 205 149 205 431zm-2200 2462h578v-1428h844q669 0 1030-255 361-254 361-779t-361-782q-361-256-1030-256h-1422v3500z"/></defs><use xlink:href="#aq"/><use x="68.603516" xlink:href="#t"/><use x="132.080078" xlink:href="#f"/><use x="193.603516" xlink:href="#r"/><use x="269.042969" xlink:href="#ab"/><use x="329.199219" xlink:href="#ag"/><use x="360.986328" xlink:href="#DejaVuSans-20"/><use x="392.773438" xlink:href="#y"/><use x="445.3125" xlink:href="#h"/><use x="506.494141" xlink:href="#x"/><use x="575.634766" xlink:href="#ai"/></g><path d="m55.296 609.12h1027.6" clip-path="url(#b)" fill="none" stroke="#b0b0b0" stroke-dasharray="0.8,1.32" stroke-width=".8"/><defs><path id="d" d="m0 0h-3.5" stroke="#000" stroke-width=".8"/></defs><use x="55.296" y="609.12" stroke="#000000" stroke-width=".8" xlink:href="#d"/><g transform="translate(41.934 612.92) scale(.1 -.1)"><use xlink:href="#e"/></g><path d="m55.296 579.64h1027.6" clip-path="url(#b)" fill="none" stroke="#b0b0b0" stroke-dasharray="0.8,1.32" stroke-width=".8"/><use x="55.296" y="579.636" stroke="#000000" stroke-width=".8" xlink:href="#d"/><g transform="translate(41.934 583.44) scale(.1 -.1)"><use xlink:href="#c"/></g><path d="m55.296 550.15h1027.6" clip-path="url(#b)" fill="none" stroke="#b0b0b0" stroke-dasharray="0.8,1.32" stroke-width=".8"/><use x="55.296" y="550.152" stroke="#000000" stroke-width=".8" xlink:href="#d"/><g transform="translate(41.934 553.95) scale(.1 -.1)"><use xlink:href="#j"/></g><path d="m55.296 520.67h1027.6" clip-path="url(#b)" fill="none" stroke="#b0b0b0" stroke-dasharray="0.8,1.32" stroke-width=".8"/><use x="55.296" y="520.668" stroke="#000000" stroke-width=".8" xlink:href="#d"/><g transform="translate(41.934 524.47) scale(.1 -.1)"><defs><path id="w" transform="scale(.015625)" d="m2597 2516q453-97 707-404 255-306 255-756 0-690-475-1069-475-378-1350-378-293 0-604 58t-642 174v609q262-153 574-231 313-78 654-78 593 0 904 234t311 681q0 413-289 645-289 233-804 233h-544v519h569q465 0 712 186t247 536q0 359-255 551-254 193-729 193-260 0-557-57-297-56-653-174v562q360 100 674 150t592 50q719 0 1137-327 419-326 419-882 0-388-222-655t-631-370z"/></defs><use xlink:href="#w"/></g><path d="m55.296 491.18h1027.6" clip-path="url(#b)" fill="none" stroke="#b0b0b0" stroke-dasharray="0.8,1.32" stroke-width=".8"/><use x="55.296" y="491.184" stroke="#000000" stroke-width=".8" xlink:href="#d"/><g transform="translate(41.934 494.98) scale(.1 -.1)"><defs><path id="af" transform="scale(.015625)" d="m2419 4116-1594-2491h1594v2491zm-166 550h794v-3041h666v-525h-666v-1100h-628v1100h-2106v609l1940 2957z"/></defs><use xlink:href="#af"/></g><path d="m55.296 461.7h1027.6" clip-path="url(#b)" fill="none" stroke="#b0b0b0" stroke-dasharray="0.8,1.32" stroke-width=".8"/><use x="55.296" y="461.7" stroke="#000000" stroke-width=".8" xlink:href="#d"/><g transform="translate(41.934 465.5) scale(.1 -.1)"><use xlink:href="#l"/></g><path d="m55.296 432.22h1027.6" clip-path="url(#b)" fill="none" stroke="#b0b0b0" stroke-dasharray="0.8,1.32" stroke-width=".8"/><use x="55.296" y="432.216" stroke="#000000" stroke-width=".8" xlink:href="#d"/><g transform="translate(41.934 436.02) scale(.1 -.1)"><use xlink:href="#v"/></g><path d="m55.296 402.73h1027.6" clip-path="url(#b)" fill="none" stroke="#b0b0b0" stroke-dasharray="0.8,1.32" stroke-width=".8"/><use x="55.296" y="402.732" stroke="#000000" stroke-width=".8" xlink:href="#d"/><g transform="translate(41.934 406.53) scale(.1 -.1)"><use xlink:href="#n"/></g><path d="m55.296 373.25h1027.6" clip-path="url(#b)" fill="none" stroke="#b0b0b0" stroke-dasharray="0.8,1.32" stroke-width=".8"/><use x="55.296" y="373.248" stroke="#000000" stroke-width=".8" xlink:href="#d"/><g transform="translate(41.934 377.05) scale(.1 -.1)"><use xlink:href="#u"/></g><path d="m55.296 343.76h1027.6" clip-path="url(#b)" fill="none" stroke="#b0b0b0" stroke-dasharray="0.8,1.32" stroke-width=".8"/><use x="55.296" y="343.764" stroke="#000000" stroke-width=".8" xlink:href="#d"/><g transform="translate(41.934 347.56) scale(.1 -.1)"><use xlink:href="#i"/></g><path d="m55.296 314.28h1027.6" clip-path="url(#b)" fill="none" stroke="#b0b0b0" stroke-dasharray="0.8,1.32" stroke-width=".8"/><use x="55.296" y="314.28" stroke="#000000" stroke-width=".8" xlink:href="#d"/><g transform="translate(35.571 318.08) scale(.1 -.1)"><use xlink:href="#c"/><use x="63.623047" xlink:href="#e"/></g><path d="m55.296 284.8h1027.6" clip-path="url(#b)" fill="none" stroke="#b0b0b0" stroke-dasharray="0.8,1.32" stroke-width=".8"/><use x="55.296" y="284.796" stroke="#000000" stroke-width=".8" xlink:href="#d"/><g transform="translate(35.571 288.6) scale(.1 -.1)"><use xlink:href="#c"/><use x="63.623047" xlink:href="#c"/></g><path d="m55.296 255.31h1027.6" clip-path="url(#b)" fill="none" stroke="#b0b0b0" stroke-dasharray="0.8,1.32" stroke-width=".8"/><use x="55.296" y="255.312" stroke="#000000" stroke-width=".8" xlink:href="#d"/><g transform="translate(35.571 259.11) scale(.1 -.1)"><use xlink:href="#c"/><use x="63.623047" xlink:href="#j"/></g><path d="m55.296 225.83h1027.6" clip-path="url(#b)" fill="none" stroke="#b0b0b0" stroke-dasharray="0.8,1.32" stroke-width=".8"/><use x="55.296" y="225.828" stroke="#000000" stroke-width=".8" xlink:href="#d"/><g transform="translate(35.571 229.63) scale(.1 -.1)"><use xlink:href="#c"/><use x="63.623047" xlink:href="#w"/></g><path d="m55.296 196.34h1027.6" clip-path="url(#b)" fill="none" stroke="#b0b0b0" stroke-dasharray="0.8,1.32" stroke-width=".8"/><use x="55.296" y="196.344" stroke="#000000" stroke-width=".8" xlink:href="#d"/><g transform="translate(35.571 200.14) scale(.1 -.1)"><use xlink:href="#c"/><use x="63.623047" xlink:href="#af"/></g><path d="m55.296 166.86h1027.6" clip-path="url(#b)" fill="none" stroke="#b0b0b0" stroke-dasharray="0.8,1.32" stroke-width=".8"/><use x="55.296" y="166.86" stroke="#000000" stroke-width=".8" xlink:href="#d"/><g transform="translate(35.571 170.66) scale(.1 -.1)"><use xlink:href="#c"/><use x="63.623047" xlink:href="#l"/></g><path d="m55.296 137.38h1027.6" clip-path="url(#b)" fill="none" stroke="#b0b0b0" stroke-dasharray="0.8,1.32" stroke-width=".8"/><use x="55.296" y="137.376" stroke="#000000" stroke-width=".8" xlink:href="#d"/><g transform="translate(35.571 141.18) scale(.1 -.1)"><use xlink:href="#c"/><use x="63.623047" xlink:href="#v"/></g><path d="m55.296 107.89h1027.6" clip-path="url(#b)" fill="none" stroke="#b0b0b0" stroke-dasharray="0.8,1.32" stroke-width=".8"/><use x="55.296" y="107.892" stroke="#000000" stroke-width=".8" xlink:href="#d"/><g transform="translate(35.571 111.69) scale(.1 -.1)"><use xlink:href="#c"/><use x="63.623047" xlink:href="#n"/></g><path d="m55.296 78.408h1027.6" clip-path="url(#b)" fill="none" stroke="#b0b0b0" stroke-dasharray="0.8,1.32" stroke-width=".8"/><use x="55.296" y="78.408" stroke="#000000" stroke-width=".8" xlink:href="#d"/><g transform="translate(35.571 82.207) scale(.1 -.1)"><use xlink:href="#c"/><use x="63.623047" xlink:href="#u"/></g><path d="m55.296 48.924h1027.6" clip-path="url(#b)" fill="none" stroke="#b0b0b0" stroke-dasharray="0.8,1.32" stroke-width=".8"/><use x="55.296" y="48.924" stroke="#000000" stroke-width=".8" xlink:href="#d"/><g transform="translate(35.571 52.723) scale(.1 -.1)"><use xlink:href="#c"/><use x="63.623047" xlink:href="#i"/></g><path d="m55.296 19.44h1027.6" clip-path="url(#b)" fill="none" stroke="#b0b0b0" stroke-dasharray="0.8,1.32" stroke-width=".8"/><use x="55.296" y="19.44" stroke="#000000" stroke-width=".8" xlink:href="#d"/><g transform="translate(35.571 23.239) scale(.1 -.1)"><use xlink:href="#j"/><use x="63.623047" xlink:href="#e"/></g><g transform="translate(28.659 383.46) rotate(-90) scale(.14 -.14)"><defs><path id="an" transform="scale(.015625)" d="m3125 0v1913h-1303q-581 0-928 364t-347 1107v1282h628v-1232q0-496 194-743t581-247h1175v2222h634v-4666h-634z"/><path id="s" transform="scale(.015625)" d="m238 0v478q568 88 743 481 213 554 213 1969v572h2365v-3500h-575v3041h-1215v-347q0-1350-275-1956-294-647-1256-738z"/><path id="p" transform="scale(.015625)" d="m1156 1613v-1154h819q394 0 600 148 206 149 206 431 0 281-206 428t-600 147h-819zm0 1428v-969h757q325 0 531 129 206 130 206 362 0 231-206 354-206 124-531 124h-757zm-575 459h1369q616 0 947-225t331-641q0-321-169-511-168-189-500-235 397-75 616-313 219-237 219-594 0-468-361-725-361-256-1030-256h-1422v3500z"/><path id="o" transform="scale(.015625)" d="m581 3500h572v-1644l1622 1644h706l-1337-1353 1509-2147h-644l-1240 1766-616-625v-1141h-572v3500z"/><path id="k" transform="scale(.015625)" d="m3122 3366v-538q-244 135-489 202t-495 67q-560 0-870-355-309-354-309-995t309-996q310-354 870-354 250 0 495 67t489 202v-532q-241-112-499-168-257-57-548-57-791 0-1257 497-465 497-465 1341 0 856 470 1346 471 491 1290 491 265 0 518-55 253-54 491-163z"/></defs><use xlink:href="#an"/><use x="68.554688" xlink:href="#f"/><use x="130.078125" xlink:href="#s"/><use x="193.994141" xlink:href="#h"/><use x="255.175781" xlink:href="#p"/><use x="314.111328" xlink:href="#f"/><use x="375.634766" xlink:href="#o"/><use x="436.035156" xlink:href="#DejaVuSans-20"/><use x="467.822266" xlink:href="#p"/><use x="526.757812" xlink:href="#DejaVuSans-20"/><use x="558.544922" xlink:href="#o"/><use x="618.945312" xlink:href="#h"/><use x="680.126953" xlink:href="#k"/><use x="735.107422" xlink:href="#r"/><use x="810.546875" xlink:href="#h"/><use x="871.728516" xlink:href="#k"/><use x="926.708984" xlink:href="#f"/></g><path d="m82.524 579.64h0.003001v29.484h1.0063v-29.484l4.62e-4 29.484h3.3234v-29.484l4.69e-4 29.484h0.67963v-29.484l0.04547 29.484h8.5277v-29.484l0.008865 29.484h4.0068v-29.484l0.008887 29.484h2.3317v-29.484l3.11e-4 29.484h1.0657l0.042387-58.968h0.12731l2.1e-4 58.968h2.1275v-29.484l0.016603 29.484h4.5767v-29.484l2.92e-4 29.484h5.0889v-29.484l0.061822 29.484h1.2328l0.081963-58.968h0.12741l0.004922 58.968h0.35647v-29.484l3.14e-4 29.484h0.95122v-29.484l3.43e-4 29.484h1.4687v-29.484l3.34e-4 29.484h18.005v-88.452l0.043731 88.452h6.7407v-58.968l0.046889 58.968h0.18253v-58.968l0.008779 58.968h3.1045v-58.968h0.17636v58.968h0.95109v-29.484l3.16e-4 29.484h1.8168v-29.484l8.36e-4 29.484h0.46664v-58.968h0.34381v58.968h1.3041v-29.484l3.58e-4 29.484h0.69592v-29.484l2.84e-4 29.484h2.2034v-58.968h0.46482v-58.968l0.046561 58.968h0.083925v58.968h3.8079v-58.968l0.019251 58.968h3.3896v-58.968h0.13028v58.968h1.8302v-58.968h0.12746v58.968h2.2791v-58.968h0.12837v58.968h2.0446v-29.484l3.21e-4 29.484h0.43074v-58.968h0.17031v58.968h6.838v-29.484l0.048257 29.484h7.6305v-29.484l3.03e-4 29.484h1.2563v-29.484l1.46e-4 29.484h12.097v-29.484l2.82e-4 29.484h2.202v-88.452h0.46848v88.452h0.16815v-29.484h0.1708v29.484h2.2572v-88.452h0.26474v88.452h0.76288l0.042467-117.94h0.086012l0.045273 117.94h1.9161v-88.452h0.43402v88.452h2.8521v-88.452h0.34585v88.452h2.1982v-88.452h0.35171v88.452h3.4041l0.084912-206.39h0.12886l0.085153 206.39h1.1799v-88.452h0.44049v88.452h5.961v-88.452h0.25735v88.452h1.9464v-58.968h0.7653v58.968h9.7838v-88.452h0.38903v88.452h3.1168v-88.452l0.086014 88.452h1.8247v-88.452h1.0271v88.452h1.1494v-88.452h0.53159v88.452h10.929v-88.452h0.47874v88.452h9.6555v-88.452h0.5436v88.452h6.7738v-88.452h1.2116v88.452h1.5511v-88.452h2.57v88.452l0.068381-58.968h0.085103v58.968h2.0789v-88.452h1.3792v-58.968h0.34022v58.968h1.9132v88.452h6.2732v-58.968h0.67981v58.968h1.656v-58.968l0.086803 58.968h4.1301v-58.968h0.25642v58.968h1.4508v-58.968h1.2774v58.968h2.3771v-58.968l6.43e-4 58.968h2.1241v-58.968h2.2426l0.013506-147.42h0.24313v58.968h0.14849l0.07383 147.42h14.95v-58.968h2.1292v58.968h0.9351v-58.968h0.34192v58.968h0.92556v-58.968l0.086636 58.968h4.9241v-58.968h0.76612v58.968h9.755v-58.968l0.087781 58.968h2.5893v-58.968h1.3598v-58.968h0.25748v58.968h1.9522v-58.968h0.34263v58.968h0.25495v58.968h3.9491v-58.968h0.50994v-58.968h0.34224v58.968h2.2498v-58.968h0.34002v58.968h2.592v58.968h4.9717v-58.968h1.9119v-58.968l0.08467 58.968h5.5679v58.968h10.115v-58.968h2.0398v-58.968h0.33992v58.968l0.08503-58.968h0.16986v58.968h1.9123v-58.968h0.33981v58.968h2.1248v-58.968h0.33985v58.968h0.63734v58.968h2.0393v-88.452h0.55307v88.452h3.9934v-58.968h0.42495v-58.968h0.33981v58.968h0.56242v-58.968l0.097866 58.968h1.2946v-58.968h0.3398v58.968h0.17045v58.968h7.3518v-58.968l0.097639 58.968h5.5223v-58.968h0.34589v58.968h1.8906v-58.968h1.827v-88.452h0.12696v-58.968h0.21491l0.089709 147.42h1.9899v-88.452h0.34192v88.452h3.2797v-117.94h0.22013v117.94h1.0453v58.968h4.9692v-117.94h0.21681v117.94h0.46512v-88.452l0.086972 88.452h2.46v-147.42h0.26364v147.42h0.12111v-58.968h2.7612v-147.42h0.26138v147.42h3.4364v58.968h0.20894v-176.9h0.44622v176.9h2.444v-147.42h0.21452v-88.452h0.12991v147.42h2.249v-88.452h0.13114v-147.42h0.21042l0.091519 235.87h4.1131v-88.452h0.51006v88.452h1.3826v-176.9h0.261v176.9h1.1621v88.452h0.12985v-206.39h0.35546v206.39h1.1161v-147.42h0.3453v147.42h2.9962v-147.42h0.13246v147.42h3.2281v-206.39h0.30239v206.39h0.43603v-206.39h0.3028v206.39h1.3226v-58.968h0.48421v-206.39h0.3055v206.39h1.5267v-206.39h0.34351v206.39h0.89177v-147.42h0.30666v147.42h0.60396v-88.452h0.38396v58.968h0.31224v-147.42h0.17602v147.42h0.99403v-235.87h0.30388v235.87h0.63526v88.452h0.24124v-206.39h0.29728v206.39h1.7114v-206.39h0.26303v206.39h2.3312v-58.968h5.4024v58.968h8.833v-58.968h7.1822v-88.452h0.3441v88.452h6.2419v-88.452h0.3421v88.452h6.9669v-88.452h0.42527v88.452h3.1445v-88.452h0.38256v58.968h0.97745v-147.42h0.17468v147.42h2.3324v-88.452h0.25694v-147.42h0.18925v147.42h0.6237v88.452h3.553v-147.42h0.21546v147.42h1.7078v88.452h0.33102v-147.42h0.17457v147.42h3.9633v-147.42h0.2179v147.42h1.0085v-58.968h1.8499v-147.42h0.21548v147.42h1.3107v-147.42h0.2163v147.42h1.8369v-147.42h0.47002v147.42h0.94483v-58.968h0.34276v58.968h0.3948v-147.42h0.19144v147.42h2.1941v-147.42h0.21838v147.42h4.0548v-58.968h0.3422v58.968h2.5143v-147.42h0.17678v147.42h1.5736v-147.42h0.21233v147.42h0.4918l0.002537-294.84h0.34199l0.042797 294.84h4.9854v-147.42h0.2585v147.42h0.73045v-206.39h0.35903v206.39h0.50767v-88.452h0.34076v88.452h0.43821v-206.39h0.393v206.39h2.1166v-147.42h0.38421v147.42h1.4024v-147.42h0.23133v147.42h0.60209v-88.452h0.34253v88.452h1.98v-176.9h0.30045v176.9h2.2335v-206.39h0.348v206.39h2.0219v-88.452h0.30671v-206.39l0.035337 88.452h0.35032v206.39h1.5348v-206.39h0.3841v206.39h1.7202v-206.39h0.59696v206.39h0.76792v-88.452h0.18692v-206.39h0.3444l0.064625 294.84h1.4502v-206.39h0.34306v206.39h1.3907v-176.9h0.42667v176.9h1.3385v-147.42h0.31573v147.42h1.5005v-147.42h0.25866v147.42h0.2023v-58.968h0.34185v58.968h2.8555v-147.42h0.40002v147.42h0.39475v-206.39h0.43159v206.39h1.9856v-176.9h0.43174v176.9l0.003022-88.452h0.89346v88.452h2.2565v-147.42h0.42532v147.42h1.1362v-206.39h0.60544v206.39h1.3296v-206.39h0.46816v206.39h1.1321v-88.452h0.2561v58.968h0.87133v-176.9h0.35864v176.9h0.8978v-147.42h0.60376v147.42h0.94708v-176.9h0.4859v176.9h3.1037v-58.968h0.31028v-206.39l0.032101 58.968h0.60523v206.39h2.0957v-176.9h0.47331v176.9h0.41428v-176.9h0.15026v-88.452h0.33554v176.9h0.99396v-176.9l0.032976 88.452h0.43985v176.9h3.4824v-176.9h0.3574v176.9h0.81179v-206.39h0.51783v-88.452h0.20095v206.39h0.14097v88.452h4.2201v-206.39h0.42386v235.87h0.25713v-147.42h0.38597v147.42h1.853v-88.452h0.18394v-147.42h0.15798v58.968h0.3111v147.42h1.3871v-206.39h0.68767v206.39h0.30389v-147.42h0.35388v147.42h2.2342v-176.9h0.38539v176.9h1.3918l0.057143-265.36h0.28525v88.452h0.39486v206.39h0.55148v-176.9h0.39845v147.42h2.1124v-176.9h0.43337v176.9h0.95741v-206.39h0.73075v206.39h1.7732v-88.452h0.68141v88.452h0.60726v-176.9h0.43814v176.9h2.3477v-147.42h0.76333v147.42h1.5516v-176.9h0.44105v176.9h0.82076l0.033788-294.84h0.4315v206.39h0.38572v88.452h1.4489v-206.39h0.17145v206.39h1.5803v-206.39h0.39857v206.39h1.6506v-206.39h0.67843v206.39h0.82984l0.084791-235.87h0.29822v58.968h0.21402v176.9h1.6269v-206.39h0.46703v206.39h1.8978v-176.9h0.67812v176.9h2.1006v-206.39h0.28409v-88.452l0.097286 206.39h0.79701v88.452h2.4799v-206.39h0.6876v206.39h1.3073v-176.9h0.42481v206.39h2.6646v-88.452h0.51087v88.452h2.8343v-206.39h0.38489v206.39h1.1517v-176.9h0.51016v176.9h2.8532v-88.452h0.34204v58.968h3.8187v-206.39h0.42358v206.39h2.0285v-147.42h0.21398v147.42h1.3348v88.452h4.9274v-206.39h0.34427v206.39h1.9768v-176.9h0.48558v176.9h1.7822v-58.968h1.9541v-206.39h0.42526v206.39h0.76784v58.968h3.6521v-206.39h0.50995v206.39h0.93522v-206.39h0.55772v206.39h0.27892v-88.452h1.3312v-147.42h0.46813v147.42h2.507v-147.42h0.55705v147.42h0.67557v-206.39h0.55433v206.39h1.2734v-206.39h0.36906v-88.452h0.14506v206.39h0.19721v88.452h2.9017v-147.42h0.55209v147.42h0.72306v-206.39h0.51361v206.39h2.5762v-88.452h0.42498v88.452h1.5439v-206.39h0.5107v206.39h3.1864v-206.39h0.4721v206.39h1.1871v-206.39h0.46768v206.39h0.2413v-88.452h0.42755v88.452h1.3713v-206.39h0.59891v206.39h4.7573v-176.9h0.46814v176.9h0.49604v-88.452h0.4698v88.452h0.60643v-206.39h0.59568v206.39h1.7216v-206.39h0.68857v206.39h3.6122v-58.968h0.34247v88.452h7.086v-29.484l0.038506 29.484h0.099495v-88.452h0.42686v88.452h7.5213v-88.452h0.46977v88.452h2.2738v-29.484l7.2e-4 29.484h4.3218v-29.484l7.26e-4 29.484h0.21475v-29.484l7.19e-4 29.484h0.41038v-88.452h0.42765v88.452h7.4772v-88.452h0.42745v88.452h4.0059v-206.39h0.60064v206.39h2.2757v-88.452h0.42724v88.452l0.042927-58.968h0.20808v58.968h7.0986v-88.452h0.4273v88.452h3.7508v-206.39h0.55215v176.9h2.3374v-176.9h0.36898v-88.452h0.14084v176.9h0.32931v88.452h3.1128v-206.39h0.55598v206.39h4.5722v-88.452h0.59606v88.452h2.0945v-206.39h0.59821v206.39h2.0363v-206.39h0.55091v206.39h2.1553v-88.452h0.4704v88.452l0.095517-206.39h0.65258v206.39h3.9793v-206.39h0.55169v206.39h0.8506v-206.39h0.68102v206.39h0.53776v-88.452h0.4704v88.452h1.8378v-206.39h0.59465v206.39h4.4478v-88.452h0.12328v88.452h0.60038v-88.452h0.51248v88.452h0.94598v-206.39h0.68518v206.39h4.5421v-206.39h0.45397v-88.452l0.099768 206.39h0.45385v88.452h1.4456v-206.39h0.55756v206.39h0.12053v-88.452h2.1384v-206.39h0.67845v206.39h1.2339v-206.39h0.59947v206.39h0.78939v-88.452h0.47052v88.452h1.5828v-176.9h0.46689v206.39h0.15941v88.452h0.84746v-88.452h2.1382v-176.9h0.59445v176.9h1.0085v58.968h0.67831v-88.452h0.14097v-206.39h0.6533v206.39h1.0466v-176.9h0.50866v176.9h0.28562v88.452h0.59458v-88.452h4.3792v88.452h0.55067v-88.452h2.1278v88.452h0.84705v-88.452h3.0735v-176.9h0.55296v176.9h0.28622v88.452h0.84711v-88.452h1.7983v-176.9h0.32685v88.452h0.3532v176.9h0.28386v-88.452h1.3313v-117.94h0.55188v117.94h2.4528v88.452h2.5503v-88.452h0.34248v88.452h1.2729v-88.452h5.5293v88.452h0.76221v-88.452h1.3967v-88.452h0.54638l0.097623 176.9h0.59502v-88.452h2.7664v88.452h1.5702v-88.452h1.1508v88.452h1.3152v-88.452h3.7436v88.452h0.55036v-88.452h1.9985v88.452h0.6375v-88.452h0.58546v-88.452h0.63114v88.452h3.333v88.452h0.63749v-88.452h1.8283v-88.452h0.17032v88.452h5.1873v88.452h0.63729v-88.452h2.1262v88.452h0.63747v-88.452h4.5496v88.452h0.63754v-88.452h1.9585v88.452h0.59253v-88.452h4.6768v88.452h0.67996v-88.452h3.2739v88.452h1.7851v-88.452h1.7856v-88.452h0.4254v88.452h3.9119v88.452h0.16899v-88.452h3.3592v88.452h0.72214v-88.452h3.9542v88.452h0.8074v-88.452h2.6789v88.452h1.7257l0.10189-147.42h0.468v88.452h0.80741v-88.452l0.017371 58.968h6.19v88.452h0.42479v-58.968h1.8709v58.968h2.423v-88.452h1.5733v88.452h0.42485v-88.452h3.9966v88.452h0.12735v-88.452h3.1463v88.452h0.935v-88.452h3.189v88.452h0.12706v-88.452h5.1872v88.452h0.297v-58.968l5.91e-4 58.968h2.2952v-88.452h0.44023v-58.968l4.24e-4 58.968h0.28237v88.452h2.7874v-88.452l4.54e-4 88.452h0.86814v-88.452h4.422v88.452h1.1051v-88.452h2.8911v-88.452h0.3404v88.452h5.4424v88.452h2.7208v-88.452h0.3407v88.452h1.8838v-58.968h2.765v58.968h3.1315v-88.452h0.34062v88.452h1.0761v-117.94h6.2366v-88.452h0.34072v88.452h0.26813v-117.94h0.3838v117.94h0.87966v-58.968l5.1e-4 58.968h1.0979v-88.452h1.0625v-176.9l4.58e-4 176.9h0.38449v-117.94l3.06e-4 117.94h2.4827v-117.94l0.05316 88.452h0.074813v117.94h0.70916v-88.452h0.35638v-117.94l0.089281 29.484h0.065188v88.452h0.99214v117.94l0.08376-117.94h1.177v-88.452h0.14294v-176.9l3.03e-4 176.9h0.36744v88.452h3.8261v-88.452h0.51062v88.452l0.047704-176.9 2.99e-4 176.9h0.34783v-117.94h0.32172v88.452h0.41626v117.94l0.069838-117.94h0.38327v117.94h1.269v-176.9l0.023981 88.452h2.6133v-176.9l3.06e-4 176.9h2.0742v-88.452h0.34042v88.452h0.26844v-117.94h0.3978v117.94h1.9777v-88.452h0.21071v88.452h1.2657v0" clip-path="url(#b)" fill="none" stroke="#00f" stroke-linecap="square" stroke-width=".9"/><path d="m55.296 609.12v-589.68" fill="none" stroke="#000" stroke-linecap="square" stroke-width=".8"/><path d="m1082.9 609.12v-589.68" fill="none" stroke="#000" stroke-linecap="square" stroke-width=".8"/><path d="m55.296 609.12h1027.6" fill="none" stroke="#000" stroke-linecap="square" stroke-width=".8"/><path d="m55.296 19.44h1027.6" fill="none" stroke="#000" stroke-linecap="square" stroke-width=".8"/><g transform="translate(199.4 13.44) scale(.12 -.12)"><defs><path id="ao" transform="scale(.015625)" d="m4184 4666v-4666h-631v4134h-2294v-4134h-631v4666h3556z"/><path id="ae" transform="scale(.015625)" d="m3603 3500v-3500h-578v3041h-1866v-3041h-578v3500h3022z"/><path id="m" transform="scale(.015625)" d="m3578 3500v-3500h-572v2809l-1687-2809h-738v3500h572v-2803l1685 2803h740z"/><path id="ac" transform="scale(.015625)" d="m2781 1038q0 281-205 428-204 147-598 147h-819v-1154h819q394 0 598 148 205 149 205 431zm-2200 2462h578v-1428h844q669 0 1030-255 361-254 361-779t-361-782q-361-256-1030-256h-1422v3500z"/><path id="ad" transform="scale(.015625)" d="m2625 0v1472h-1072q-478 0-797 297-287 269-287 844v887h575v-834q0-366 162-550 166-185 491-185h928v1569h575v-3500h-575z"/><path id="q" transform="scale(.015625)" d="m581 3500h578v-1428h1866v1428h578v-3500h-578v1613h-1866v-1613h-578v3500z"/><path id="z" transform="scale(.015625)" d="m2194 1759q-697 0-966-159t-269-544q0-306 202-486 202-179 548-179 479 0 768 339t289 901v128h-572zm1147 238v-1997h-575v531q-197-318-491-470t-719-152q-537 0-855 302-317 302-317 808 0 590 395 890 396 300 1180 300h807v57q0 397-261 614t-733 217q-300 0-585-72-284-72-546-216v532q315 122 612 182 297 61 578 61 760 0 1135-394 375-393 375-1193z"/><path id="al" transform="scale(.015625)" d="m2206 1888q388-75 603-304 216-228 216-565 0-541-403-826-403-284-1147-284-250 0-514 44t-545 131v535q222-116 487-174 266-57 556-57 472 0 736 175t264 456q0 275-234 442t-662 167h-463v475h484q363 0 574 139t211 358q0 200-218 344-217 144-588 144-222 0-474-41-251-41-555-131v522q307 75 572 112 266 38 503 38 613 0 967-246 355-245 355-686 0-290-188-492-187-201-537-276z"/><path id="ak" transform="scale(.015625)" d="m3578 3500v-3500h-572v2809l-1687-2809h-738v3500h572v-2803l1685 2803h740zm-2476 1333h369q34-234 185-352 152-117 424-117 269 0 419 116t190 353h369q-31-447-278-672t-700-225-700 225-278 672z"/><path id="aa" transform="scale(.015625)" d="m684 794h660v-794h-660v794z"/><path id="ap" transform="scale(.015625)" d="m263 0v531q678 147 871 660 272 806 272 2681v794h2775v-4666h-631v4134h-1516v-575q0-1768-318-2593-307-791-1453-966z"/><path id="ah" transform="scale(.015625)" d="m3431 3097q-462 0-731-361t-269-989 267-989q268-361 733-361 460 0 728 362 269 363 269 988 0 622-269 986-268 364-728 364zm-1587-994q59 594 448 1037 389 444 1139 444t1178-488q429-487 429-1349 0-859-429-1349-428-489-1178-489-753 0-1164 472t-439 1247h-650v-1628h-575v3500h575v-1397h666z"/><path id="ar" transform="scale(.015625)" d="m313 2009h1684v-512h-1684v512z"/><path id="aj" transform="scale(.015625)" d="m188 3500h3353v-459h-1394v-3041h-566v3041h-1393v459z"/><path id="am" transform="scale(.015625)" d="m1284 3322q0-409 233-620t689-211h982v1656h-982q-456 0-689-208t-233-617zm-859-3322 1275 2041q-312 81-712 345t-400 936q0 644 406 994t1212 350h1613v-4666h-631v1972h-844l-1231-1972h-688z"/></defs><use xlink:href="#ao"/><use x="75.195312" xlink:href="#f"/><use x="136.71875" xlink:href="#t"/><use x="200.195312" xlink:href="#f"/><use x="261.71875" xlink:href="#ae"/><use x="327.099609" xlink:href="#m"/><use x="392.089844" xlink:href="#k"/><use x="447.070312" xlink:href="#ac"/><use x="506.005859" xlink:href="#DejaVuSans-20"/><use x="537.792969" xlink:href="#o"/><use x="598.193359" xlink:href="#h"/><use x="659.375" xlink:href="#k"/><use x="714.355469" xlink:href="#r"/><use x="789.794922" xlink:href="#m"/><use x="854.785156" xlink:href="#ad"/><use x="913.867188" xlink:href="#f"/><use x="975.390625" xlink:href="#k"/><use x="1030.371094" xlink:href="#o"/><use x="1090.771484" xlink:href="#h"/><use x="1151.953125" xlink:href="#y"/><use x="1204.492188" xlink:href="#h"/><use x="1265.673828" xlink:href="#DejaVuSans-20"/><use x="1297.460938" xlink:href="#q"/><use x="1362.841797" xlink:href="#z"/><use x="1424.121094" xlink:href="#k"/><use x="1479.101562" xlink:href="#f"/><use x="1540.625" xlink:href="#s"/><use x="1604.541016" xlink:href="#f"/><use x="1666.064453" xlink:href="#q"/><use x="1731.445312" xlink:href="#m"/><use x="1796.435547" xlink:href="#ab"/><use x="1856.591797" xlink:href="#ag"/><use x="1888.378906" xlink:href="#DejaVuSans-20"/><use x="1920.166016" xlink:href="#n"/><use x="1983.789062" xlink:href="#j"/><use x="2047.412109" xlink:href="#n"/><use x="2111.035156" xlink:href="#DejaVuSans-20"/><use x="2142.822266" xlink:href="#m"/><use x="2207.8125" xlink:href="#al"/><use x="2260.986328" xlink:href="#r"/><use x="2336.425781" xlink:href="#f"/><use x="2397.949219" xlink:href="#q"/><use x="2463.330078" xlink:href="#f"/><use x="2524.853516" xlink:href="#q"/><use x="2590.234375" xlink:href="#m"/><use x="2655.224609" xlink:href="#ak"/><use x="2720.214844" xlink:href="#aa"/><use x="2752.001953" xlink:href="#DejaVuSans-20"/><use x="2783.789062" xlink:href="#ap"/><use x="2858.984375" xlink:href="#ah"/><use x="2943.164062" xlink:href="#x"/><use x="3012.304688" xlink:href="#m"/><use x="3077.294922" xlink:href="#DejaVuSans-20"/><use x="3109.082031" xlink:href="#ae"/><use x="3174.462891" xlink:href="#t"/><use x="3237.939453" xlink:href="#h"/><use x="3299.121094" xlink:href="#p"/><use x="3358.056641" xlink:href="#f"/><use x="3419.580078" xlink:href="#s"/><use x="3483.496094" xlink:href="#m"/><use x="3548.486328" xlink:href="#DejaVuSans-20"/><use x="3580.273438" xlink:href="#p"/><use x="3639.208984" xlink:href="#DejaVuSans-20"/><use x="3670.996094" xlink:href="#o"/><use x="3731.396484" xlink:href="#h"/><use x="3792.578125" xlink:href="#k"/><use x="3847.558594" xlink:href="#r"/><use x="3922.998047" xlink:href="#h"/><use x="3984.179688" xlink:href="#k"/><use x="4039.160156" xlink:href="#f"/><use x="4100.683594" xlink:href="#DejaVuSans-20"/><use x="4132.470703" xlink:href="#c"/><use x="4196.09375" xlink:href="#n"/><use x="4259.716797" xlink:href="#w"/><use x="4323.339844" xlink:href="#aa"/><use x="4355.126953" xlink:href="#i"/><use x="4418.75" xlink:href="#DejaVuSans-20"/><use x="4450.537109" xlink:href="#ad"/><use x="4509.619141" xlink:href="#f"/><use x="4571.142578" xlink:href="#s"/><use x="4635.058594" xlink:href="#h"/><use x="4696.240234" xlink:href="#p"/><use x="4755.175781" xlink:href="#f"/><use x="4816.699219" xlink:href="#o"/><use x="4877.099609" xlink:href="#h"/><use x="4938.28125" xlink:href="#ar"/><use x="4974.365234" xlink:href="#s"/><use x="5038.28125" xlink:href="#f"/><use x="5099.804688" xlink:href="#aj"/><use x="5158.056641" xlink:href="#aa"/><use x="5189.84375" xlink:href="#DejaVuSans-20"/><use x="5221.630859" xlink:href="#am"/><use x="5291.113281" xlink:href="#q"/><use x="5356.494141" xlink:href="#p"/><use x="5415.429688" xlink:href="#z"/><use x="5476.708984" xlink:href="#t"/><use x="5540.185547" xlink:href="#ac"/><use x="5599.121094" xlink:href="#DejaVuSans-20"/><use x="5630.908203" xlink:href="#j"/><use x="5694.53125" xlink:href="#e"/><use x="5758.154297" xlink:href="#j"/><use x="5821.777344" xlink:href="#w"/><use x="5885.400391" xlink:href="#DejaVuSans-20"/><use x="5917.1875" xlink:href="#y"/><use x="5969.726562" xlink:href="#h"/><use x="6030.908203" xlink:href="#x"/><use x="6100.048828" xlink:href="#z"/></g><path d="m1068.6 36.34h5.2q2.6 0 2.6-2.6v-5.2q0-2.6-2.6-2.6h-5.2q-2.6 0-2.6 2.6v5.2q0 2.6 2.6 2.6z" fill="#fff" opacity=".8" stroke="#ccc"/><defs><clipPath id="b"><rect x="55.296" y="19.44" width="1027.6" height="589.68"/></clipPath></defs></svg>
