<?xml version="1.0" encoding="UTF-8"?>
<!DOCTYPE svg  PUBLIC '-//W3C//DTD SVG 1.1//EN'  'http://www.w3.org/Graphics/SVG/1.1/DTD/svg11.dtd'>
<svg width="1152pt" height="648pt" version="1.1" viewBox="0 0 1152 648" xmlns="http://www.w3.org/2000/svg" xmlns:xlink="http://www.w3.org/1999/xlink"><defs><style type="text/css">*{stroke-linejoin: round; stroke-linecap: butt}</style></defs><path d="m0 648h1152v-648h-1152z" fill="#fff"/><defs><path id="w" d="m0 0h3.5" stroke="#000" stroke-width=".8"/></defs><use x="1082.88" y="609.12" stroke="#000000" stroke-width=".8" xlink:href="#w"/><g transform="translate(1089.9 612.92) scale(.1 -.1)"><defs><path id="f" transform="scale(.015625)" d="m2034 4250q-487 0-733-480-245-479-245-1442 0-959 245-1439 246-480 733-480 491 0 736 480 246 480 246 1439 0 963-246 1442-245 480-736 480zm0 500q785 0 1199-621 414-620 414-1801 0-1178-414-1799-414-620-1199-620-784 0-1198 620-414 621-414 1799 0 1181 414 1801 414 621 1198 621z"/></defs><use xlink:href="#f"/></g><use x="1082.88" y="527.242226" stroke="#000000" stroke-width=".8" xlink:href="#w"/><g transform="translate(1089.9 531.04) scale(.1 -.1)"><defs><path id="h" transform="scale(.015625)" d="m1228 531h2203v-531h-2962v531q359 372 979 998 621 627 780 809 303 340 423 576 121 236 121 464 0 372-261 606-261 235-680 235-297 0-627-103-329-103-704-313v638q381 153 712 231 332 78 607 78 725 0 1156-363 431-362 431-968 0-288-108-546-107-257-392-607-78-91-497-524-418-433-1181-1211z"/><path id="k" transform="scale(.015625)" d="m691 4666h2478v-532h-1900v-1143q137 47 274 70 138 23 276 23 781 0 1237-428 457-428 457-1159 0-753-469-1171-469-417-1322-417-294 0-599 50-304 50-629 150v635q281-153 581-228t634-75q541 0 856 284 316 284 316 772 0 487-316 771-315 285-856 285-253 0-505-56-251-56-513-175v2344z"/></defs><use xlink:href="#h"/><use x="63.623047" xlink:href="#k"/></g><use x="1082.88" y="445.364453" stroke="#000000" stroke-width=".8" xlink:href="#w"/><g transform="translate(1089.9 449.16) scale(.1 -.1)"><use xlink:href="#k"/><use x="63.623047" xlink:href="#f"/></g><use x="1082.88" y="363.486679" stroke="#000000" stroke-width=".8" xlink:href="#w"/><g transform="translate(1089.9 367.29) scale(.1 -.1)"><defs><path id="v" transform="scale(.015625)" d="m525 4666h3e3v-269l-1694-4397h-659l1594 4134h-2241v532z"/></defs><use xlink:href="#v"/><use x="63.623047" xlink:href="#k"/></g><use x="1082.88" y="281.608906" stroke="#000000" stroke-width=".8" xlink:href="#w"/><g transform="translate(1089.9 285.41) scale(.1 -.1)"><defs><path id="e" transform="scale(.015625)" d="m794 531h1031v3560l-1122-225v575l1116 225h631v-4135h1031v-531h-2687v531z"/></defs><use xlink:href="#e"/><use x="63.623047" xlink:href="#f"/><use x="127.246094" xlink:href="#f"/></g><use x="1082.88" y="199.731132" stroke="#000000" stroke-width=".8" xlink:href="#w"/><g transform="translate(1089.9 203.53) scale(.1 -.1)"><use xlink:href="#e"/><use x="63.623047" xlink:href="#h"/><use x="127.246094" xlink:href="#k"/></g><use x="1082.88" y="117.853358" stroke="#000000" stroke-width=".8" xlink:href="#w"/><g transform="translate(1089.9 121.65) scale(.1 -.1)"><use xlink:href="#e"/><use x="63.623047" xlink:href="#k"/><use x="127.246094" xlink:href="#f"/></g><use x="1082.88" y="35.975585" stroke="#000000" stroke-width=".8" xlink:href="#w"/><g transform="translate(1089.9 39.775) scale(.1 -.1)"><use xlink:href="#e"/><use x="63.623047" xlink:href="#v"/><use x="127.246094" xlink:href="#k"/></g><g transform="translate(1123.6 480.82) rotate(-90) scale(.14 -.14)"><defs><path id="an" transform="scale(.015625)" d="m4184 4666v-4666h-631v4134h-2294v-4134h-631v4666h3556z"/><path id="o" transform="scale(.015625)" d="m1159 525v-1856h-578v4831h578v-531q182 312 458 463 277 152 661 152 638 0 1036-506 399-506 399-1331t-399-1332q-398-506-1036-506-384 0-661 152-276 152-458 464zm1957 1222q0 634-261 995t-717 361q-457 0-718-361t-261-995 261-995 718-361q456 0 717 361t261 995z"/><path id="d" transform="scale(.015625)" d="m1959 3097q-462 0-731-361t-269-989 267-989q268-361 733-361 460 0 728 362 269 363 269 988 0 622-269 986-268 364-728 364zm0 487q750 0 1178-488 429-487 429-1349 0-859-429-1349-428-489-1178-489-753 0-1180 489-426 490-426 1349 0 862 426 1349 427 488 1180 488z"/><path id="s" transform="scale(.015625)" d="m1156 1613v-1154h819q394 0 600 148 206 149 206 431 0 281-206 428t-600 147h-819zm0 1428v-969h757q325 0 531 129 206 130 206 362 0 231-206 354-206 124-531 124h-757zm-575 459h1369q616 0 947-225t331-641q0-321-169-511-168-189-500-235 397-75 616-313 219-237 219-594 0-468-361-725-361-256-1030-256h-1422v3500z"/><path id="c" transform="scale(.015625)" d="m3597 1894v-281h-2644q38-594 358-905t892-311q331 0 642 81t618 244v-544q-310-131-635-200t-659-69q-838 0-1327 487-489 488-489 1320 0 859 464 1363 464 505 1252 505 706 0 1117-455 411-454 411-1235zm-575 169q-6 471-264 752-258 282-683 282-481 0-770-272t-333-766l2050 4z"/><path id="x" transform="scale(.015625)" d="m1384 459h1669v2582h-1209v-438q0-1287-369-1975l-91-169zm-834 0q284 125 409 391 307 659 307 1988v662h2365v-3041h460v-1343h-460v884h-2837v-884h-460v1343h216z"/><path id="l" transform="scale(.015625)" d="m581 3500h578v-1428h1866v1428h578v-3500h-578v1613h-1866v-1613h-578v3500z"/><path id="r" transform="scale(.015625)" d="m581 3500h841l994-2344 997 2344h834v-3500h-578v2950l-966-2278h-575l-969 2278v-2950h-578v3500z"/><path id="ad" transform="scale(.015625)" d="m1181 2491q0-260 200-407 200-146 572-146h775v1103h-775q-372 0-572-144t-200-406zm-818-2491 1068 1534q-362 82-603 296-240 214-240 661 0 506 335 757 336 252 1015 252h1368v-3500h-578v1478h-715l-1032-1478h-618z"/><path id="u" transform="scale(.015625)" d="m581 3500h572v-1644l1622 1644h706l-1337-1353 1509-2147h-644l-1240 1766-616-625v-1141h-572v3500z"/><path id="i" transform="scale(.015625)" d="m3122 3366v-538q-244 135-489 202t-495 67q-560 0-870-355-309-354-309-995t309-996q310-354 870-354 250 0 495 67t489 202v-532q-241-112-499-168-257-57-548-57-791 0-1257 497-465 497-465 1341 0 856 470 1346 471 491 1290 491 265 0 518-55 253-54 491-163z"/><path id="aa" transform="scale(.015625)" d="m750 794h659v-538l-512-1e3h-403l256 1e3v538z"/><path id="aj" transform="scale(.015625)" d="m2625 0v1472h-1072q-478 0-797 297-287 269-287 844v887h575v-834q0-366 162-550 166-185 491-185h928v1569h575v-3500h-575z"/><path id="m" transform="scale(.015625)" d="m238 0v478q568 88 743 481 213 554 213 1969v572h2365v-3500h-575v3041h-1215v-347q0-1350-275-1956-294-647-1256-738z"/><path id="y" transform="scale(.015625)" d="m313 2009h1684v-512h-1684v512z"/><path id="t" transform="scale(.015625)" d="m188 3500h3353v-459h-1394v-3041h-566v3041h-1393v459z"/></defs><use xlink:href="#an"/><use x="75.195312" xlink:href="#o"/><use x="138.671875" xlink:href="#d"/><use x="199.853516" xlink:href="#s"/><use x="258.789062" xlink:href="#c"/><use x="320.3125" xlink:href="#x"/><use x="389.453125" xlink:href="#c"/><use x="450.976562" xlink:href="#l"/><use x="516.357422" xlink:href="#l"/><use x="581.738281" xlink:href="#d"/><use x="642.919922" xlink:href="#c"/><use x="704.443359" xlink:href="#DejaVuSans-20"/><use x="736.230469" xlink:href="#s"/><use x="795.166016" xlink:href="#o"/><use x="858.642578" xlink:href="#c"/><use x="920.166016" xlink:href="#r"/><use x="995.605469" xlink:href="#ad"/><use x="1055.761719" xlink:href="#DejaVuSans-20"/><use x="1087.548828" xlink:href="#s"/><use x="1146.484375" xlink:href="#DejaVuSans-20"/><use x="1178.271484" xlink:href="#u"/><use x="1238.671875" xlink:href="#d"/><use x="1299.853516" xlink:href="#i"/><use x="1354.833984" xlink:href="#r"/><use x="1430.273438" xlink:href="#d"/><use x="1491.455078" xlink:href="#i"/><use x="1546.435547" xlink:href="#c"/><use x="1607.958984" xlink:href="#aa"/><use x="1639.746094" xlink:href="#DejaVuSans-20"/><use x="1671.533203" xlink:href="#aj"/><use x="1730.615234" xlink:href="#c"/><use x="1792.138672" xlink:href="#m"/><use x="1856.054688" xlink:href="#d"/><use x="1917.236328" xlink:href="#s"/><use x="1976.171875" xlink:href="#c"/><use x="2037.695312" xlink:href="#u"/><use x="2098.095703" xlink:href="#d"/><use x="2159.277344" xlink:href="#y"/><use x="2195.361328" xlink:href="#m"/><use x="2259.277344" xlink:href="#c"/><use x="2320.800781" xlink:href="#t"/></g><path d="m61.979 609.12 0.003094-6.23e-4 35.424-0.10838 0.13642-0.053891 31.864-0.050525 0.18181-0.073182 3.3356-2.4e-4 0.35443-0.14266 4.3339-1.34e-4 0.6137-0.26635 9.4608-0.06205 0.13139-0.052888 5.034-0.053334 0.17557-0.070671 31.002-0.010164 0.65629-0.2916 0.17607-0.035437h2.3269l0.27292-0.16478 2.9408-0.089587 0.44742-0.27015h2.9402l0.35654-0.21527h2.266l0.36258-0.21892 3.5968-0.061658 0.22063-0.24887h1.2163l0.4541-0.27418h6.1452l0.2653-0.16018h2.0065l0.78894-0.31757h10.086l0.40105-0.24214 5.1828-0.053538 1.0588-0.6393h1.1849l0.54801-0.33088h11.267l0.49353-0.29798h9.9537l0.56039-0.33835h6.9831l1.2491-0.75415h1.599l2.8076-1.635h2.1432l1.4218-0.85847 0.35073-0.35294 1.9723-1.1909h6.4669l0.70081-0.28209 6.0543-0.03602 0.26434-0.1064h1.4957l1.3168-0.53004 4.6409-2.67e-4 2.3258-0.9418 0.47983-0.53779h15.412l2.195-0.88354h0.96398l0.35248-0.14188 6.1197-0.035949 0.78978-0.3179 12.816-0.036425 3.6797-1.588 0.61604-0.39014h4.0711l0.52569-0.2116 0.35281-0.28403 2.3193-0.93357 0.35052-0.28219 2.6721-1.0756h5.1252l7.798-3.174h10.428l2.1028-0.84641 0.61318-0.45836 1.9713-0.7935 0.3503-0.28201 2.1904-0.8817 0.35035-0.28204 0.65703-0.26447h2.1023l0.57016-0.34425h4.1167l0.43807-0.17633 0.35031-0.28201 2.0153-0.85182 0.52601-0.35274 13.372-0.040516 0.35658-0.14353h1.949l2.0143-0.88981 0.31403-0.38658 2.0514-0.82573 0.35248-0.3547 3.381-1.3609 0.22693-0.27403 1.0776-0.43377h5.1227l0.2235-0.17993 3.1051-0.054134 0.39663-0.27349 2.8465-1.1458 0.26945-0.37961 3.758-1.426 0.46-0.55548h2.5195l0.35507-0.43817 2.4536-1.5631 0.31126-0.63213 4.2401-2.5601 0.52582-0.63496 1.4253-0.86057 0.26906-0.48736 1.3318-0.72331 0.36644-0.51625h1.1506l0.35596-0.35821h3.0888l0.13655-0.13741h3.3278l0.31174-0.43918h0.44949l0.31215-0.43976h1.3635l0.49916-0.20092 0.31494-0.57046 1.5739-0.63352 0.35412-0.64144 0.91931-0.37004 0.31614-0.44538 0.62262-0.25062 0.89916-0.88482 1.0247-0.61872 0.31326-0.69353 0.65488-0.39541h0.2487l0.30646-0.43174h1.7642l0.27116-0.38201h2.4033l5.5693-2.2417h9.1058l7.404-2.9803 0.35473-0.35696 6.4348-2.5901 0.35266-0.35488 7.1821-2.8909 0.4384-0.44116 3.2416-1.3048 0.39438-0.39686 1.0076-0.6084 0.18008-0.28994 2.4044-1.4518 0.26488-0.31986 0.1951-0.43192 0.64296-0.77642 3.6627-2.2115 0.22211-0.35762 1.7606-1.063h0.34124l0.17996-0.1811h4.0858l0.22463-0.22605h1.0396l1.907-0.76762 0.22213-0.31294 1.3512-0.54388 0.22298-0.31414 1.8937-0.76225 0.48454-0.68264 0.97401-0.39206 0.35335-0.28446 0.40699-0.16382 0.19735-0.27803 2.2619-0.91046 0.22512-0.31716 4.1801-1.6826 0.35277-0.28399 2.592-1.0433 0.18224-0.25674 1.6222-0.65298 0.21888-0.30837 0.50961-0.20881 0.39667-0.93138 5.1394-2.0687 0.26648-0.37542 0.75302-0.3031 0.37012-0.67041 0.52335-0.21066 0.35129-0.3535 0.45175-0.18184 0.40514-0.73385 2.182-0.8783 0.39608-0.558 1.4458-0.58195 0.23848-0.33597 0.62069-0.24984 0.35311-0.35534 2.0412-0.82162 0.30973-0.4987 2.3025-0.92681 0.35874-0.64981 2.0844-0.839 0.35261-0.40616 0.36114-0.65414 1.5822-0.63686 0.39596-0.71722 1.7733-0.7138 0.6154-1.1147 0.98434-0.51257 0.42166-0.92451 1.495-0.60176 0.35366-0.6406 1.4337-0.57708 0.43985-0.7082 1.3799-0.55543 0.32548-0.45855 1.5469-0.62265 0.26665-0.37567 0.20855-0.083944 0.35241-0.28371 2.9437-1.1849 0.41238-0.58097 0.40695-0.1638 0.44492-0.8059 2.0469-0.82393 0.44819-0.71786 0.92106-0.92686 2.3262-0.93634 0.43846-0.61771 1.1713-0.47148 0.62414-1.1305 1.3707-0.55173 0.48262-0.8742 1.1671-0.46977 0.264-0.26567 0.89825-0.54234 0.36972-0.66968 0.92554-0.55882 0.62242-1.0021 0.97633-0.58949 0.50091-0.90731 3.5194-2.2537 0.65702-1.3356 2.1604-1.3044 0.48793-0.8838 0.42707-0.25786 0.5008-1.116 1.0587-1.3194 0.45344-0.82134 3.5899-2.1675 0.36844-0.66738 0.83687-0.50529 0.88631-1.7919 4.3504-2.6267 0.43695-0.8794 0.26508-0.1067 0.3979-0.56056 2.0998-0.95971 0.48356-0.84413 1.4299-0.86335 0.70891-1.4268 0.31328-0.18915 0.36481-0.58737 2.3032-1.3906 0.39729-0.71964 1.4937-0.92557 0.70112-1.4475 0.56852-0.22884 0.41076-0.66136 2.1776-1.3148 0.44676-0.80923 0.98698-0.59592 0.75332-1.5161 1.828-1.1037 0.70246-0.84826 0.62602-0.37798 0.45168-0.81815 2.4202-1.4613 0.78691-1.267 1.5996-0.96578 0.45468-0.82358 0.88095-0.55293 0.44483-1.1639 0.39764-0.48017 1.4937-0.90186 0.17675-0.35573 1.6291-0.98365 0.41088-0.82695 1.7015-1.0274 0.69939-1.4076 0.94288-0.60448 0.52806-1.0802 1.6772-1.0126 0.48146-0.96898 1.9564-1.1812 0.69906-1.2662 2.1655-1.3075 0.39316-0.85182 0.82163-0.99217 2.5565-1.5436 0.70884-1.4266 1.3477-0.8137 0.43793-0.79324 2.747-1.1057 0.52665-0.52997 2.9218-1.1761 0.39678-0.7187 1.1872-0.47789 0.52592-0.84677 2.9413-1.1839 0.35261-0.35483 3.9367-2.3769 0.43666-0.87883 2.0912-1.2626 0.22059-0.35517 1.376-0.83082h5.0796l0.35491-0.5h2.0378l0.50057-0.60447h1.8372l2.0145-0.81088 0.4384-0.79409 0.79156-0.31862h3.7649l0.5257-0.74062h0.96411l0.57495-0.81001h0.28753l1.3723-0.82857 0.48259-0.777 2.5844-1.5604 0.57425-0.9246 0.69644-0.42049 0.57145-1.1501 1.3128-0.79262 0.73331-1.4025 2.9914-1.8061 0.56914-0.91637 0.74539-0.45005 0.52947-1.0656 2.6558-1.6035 0.43811-0.52904 1.5916-0.96096 0.52647-1.0596 3.2848-1.9833 0.48668-0.9795 1.2238-0.73888 0.48213-0.97034 0.24875-0.15019 0.44075-0.53224 1.4137-0.85356 0.61741-1.2426 4.9043-2.9611 0.4826-0.87416 0.51136-0.30875 0.48431-0.58484 0.62516-0.37746 0.61408-1.2359 1.7748-1.0716 0.70984-1.4286 3.7237-2.2483 0.35304-0.35527 7.4471-3.0056 0.44004-0.44281 7.7536-3.121 0.48428-0.48734 7.4459-2.9976 0.44086-0.44364 7.7082-3.1027 0.44065-0.44343 4.1296-1.6623 0.61919-1.1216 2.346-0.94431 0.69919-0.6337 7.3179-2.9456 0.4405-0.44327 3.8666-1.5564 0.5692-1.031 2.4096-1.4549 0.86505-1.4496 3.2089-1.9375 0.57315-1.1535 4.7134-2.8459 0.61447-0.74201 2.1592-1.3037 0.61669-1.2411 2.0992-1.2675 0.56793-1.143 2.2218-1.3415 0.5834-0.64504 0.67273-1.3539 4.1022-2.4768 0.56873-1.1446 0.87688-0.52944 0.70206-1.413 0.55437-0.33472 0.48493-0.58558 1.8945-1.1439 0.61302-1.2338 5.3312-3.2956 0.52831-0.63797 0.9752-0.58881 0.70635-1.4216 4.6824-2.8272 0.57084-1.211 0.46787-0.56498 1.4903-0.89981 0.69903-1.2318 2.2044-2.662 0.6994-1.8299 1.272-1.536 0.61799-1.6169 0.81377-0.98268 0.48505-0.87859 1.6317-1.9704 0.64564-1.3278 0.87364-0.35166 2.2042-2.2181 0.61281-1.3567 1.0397-1.0463 0.84459-0.59769 0.67348-1.7621 1.0789-1.3029 0.52437-1.2664 0.29444-0.35555 0.61295-0.37009 4.5144-5.4515 0.56768-0.34276 2.1935-2.6488 0.87321-0.52723 3.1684-3.826 0.57004-1.3767 0.29506-0.3563 0.87328-0.52727 1.8539-2.2387 0.70106-1.4733 0.29263-0.17668 1.3724-1.6573 0.56892-1.145 2.5285-3.0534 2.6291-1.5874 0.35306-0.42635 1.3122-0.79229 5.7001-6.8832 0.78575-0.47442 1.4398-1.7387 0.66389-1.1418 0.6134-0.37036 2.8518-3.4438 1.6187-0.97737 1.1863-1.4326 1.3558-0.81859 3.8593-4.6603 0.56735-0.34256 2.0602-2.4879 0.65719-0.3968 0.60354-0.72881 0.65064-1.1785 3.436-4.1491 0.65718-0.39679 7.4079-9.0515 0.65697-0.39667 2.1918-2.6468 0.65716-0.39678 4.6901-5.6636 0.65723-0.39682 2.019-2.438 0.61083-0.36881 4.8213-5.822 0.70096-0.42323 3.375-4.0755 1.8403-1.1111 1.8408-2.2229 0.43854-0.79435 7.6699-9.1567 0.74445-0.44948 4.0763-4.9224 0.83234-0.50255 2.7616-3.3348 1.884-1.1798 0.48246-0.77679 0.85026-0.86643 6.3812-7.7056 0.43791-0.2644 1.9287-1.9409 2.4978-1.5081 1.6219-1.9585 0.43797-0.26444 7.4948-8.9712 0.96388-0.58198 8.766-10.506 2.6728-1.6141 0.74535-0.90024 3.7689-2.2759 4.5586-5.5048 1.1392-0.68783 2.9805-3.5991 0.35091-0.63562 5.6105-6.775 2.8048-1.6935 0.35122-0.42412 1.942-1.1725 2.8504-2.8683 3.2282-1.9491 0.35114-0.42403 1.1093-0.66978 6.4292-9.0577 1.0233-1.9723 2.0391-2.873 4.1839-8.4809 0.73106-1.0299 2.9967-6.0921 0.37879-0.99107 3.9443-7.9383 1.2661-3.1334 0.89623-1.9262 1.3329-1.8783 5.4602-11.202 0.41008-1.1555 6.1645-12.538 0.43897-1.2369 3.1548-6.3381" clip-path="url(#b)" fill="none" stroke="#bfbf00" stroke-dasharray="14.8,6.4" stroke-width="4"/><path d="m55.296 609.12v-589.68" fill="none" stroke="#000" stroke-linecap="square" stroke-width=".8"/><path d="m1082.9 609.12v-589.68" fill="none" stroke="#000" stroke-linecap="square" stroke-width=".8"/><path d="m55.296 609.12h1027.6" fill="none" stroke="#000" stroke-linecap="square" stroke-width=".8"/><path d="m55.296 19.44h1027.6" fill="none" stroke="#000" stroke-linecap="square" stroke-width=".8"/><g transform="translate(209.3 13.44) scale(.12 -.12)"><defs><path id="af" transform="scale(.015625)" d="m3603 3500v-3500h-578v3041h-1866v-3041h-578v3500h3022z"/><path id="p" transform="scale(.015625)" d="m3578 3500v-3500h-572v2809l-1687-2809h-738v3500h572v-2803l1685 2803h740z"/><path id="aq" transform="scale(.015625)" d="m2781 1038q0 281-205 428-204 147-598 147h-819v-1154h819q394 0 598 148 205 149 205 431zm-2200 2462h578v-1428h844q669 0 1030-255 361-254 361-779t-361-782q-361-256-1030-256h-1422v3500z"/><path id="am" transform="scale(.015625)" d="m581 0v3500h2469v-459h-1891v-3041h-578z"/><path id="j" transform="scale(.015625)" d="m2194 1759q-697 0-966-159t-269-544q0-306 202-486 202-179 548-179 479 0 768 339t289 901v128h-572zm1147 238v-1997h-575v531q-197-318-491-470t-719-152q-537 0-855 302-317 302-317 808 0 590 395 890 396 300 1180 300h807v57q0 397-261 614t-733 217q-300 0-585-72-284-72-546-216v532q315 122 612 182 297 61 578 61 760 0 1135-394 375-393 375-1193z"/><path id="q" transform="scale(.015625)" d="m703 97v575q238-113 481-172 244-59 479-59 625 0 954 420 330 420 377 1277-181-269-460-413-278-144-615-144-700 0-1108 423-408 424-408 1159 0 718 425 1152 425 435 1131 435 810 0 1236-621 427-620 427-1801 0-1103-524-1761-523-658-1407-658-238 0-482 47-243 47-506 141zm1256 1978q425 0 673 290 249 291 249 798 0 503-249 795-248 292-673 292t-673-292-248-795q0-507 248-798 248-290 673-290z"/><path id="al" transform="scale(.015625)" d="m2206 1888q388-75 603-304 216-228 216-565 0-541-403-826-403-284-1147-284-250 0-514 44t-545 131v535q222-116 487-174 266-57 556-57 472 0 736 175t264 456q0 275-234 442t-662 167h-463v475h484q363 0 574 139t211 358q0 200-218 344-217 144-588 144-222 0-474-41-251-41-555-131v522q307 75 572 112 266 38 503 38 613 0 967-246 355-245 355-686 0-290-188-492-187-201-537-276z"/><path id="ar" transform="scale(.015625)" d="m3578 3500v-3500h-572v2809l-1687-2809h-738v3500h572v-2803l1685 2803h740zm-2476 1333h369q34-234 185-352 152-117 424-117 269 0 419 116t190 353h369q-31-447-278-672t-700-225-700 225-278 672z"/><path id="ap" transform="scale(.015625)" d="m684 794h660v-794h-660v794z"/><path id="bq" transform="scale(.015625)" d="m263 0v531q678 147 871 660 272 806 272 2681v794h2775v-4666h-631v4134h-1516v-575q0-1768-318-2593-307-791-1453-966z"/><path id="ae" transform="scale(.015625)" d="m3431 3097q-462 0-731-361t-269-989 267-989q268-361 733-361 460 0 728 362 269 363 269 988 0 622-269 986-268 364-728 364zm-1587-994q59 594 448 1037 389 444 1139 444t1178-488q429-487 429-1349 0-859-429-1349-428-489-1178-489-753 0-1164 472t-439 1247h-650v-1628h-575v3500h575v-1397h666z"/><path id="z" transform="scale(.015625)" d="m2034 2216q-450 0-708-241-257-241-257-662 0-422 257-663 258-241 708-241t709 242q260 243 260 662 0 421-258 662-257 241-711 241zm-631 268q-406 100-633 378-226 279-226 679 0 559 398 884 399 325 1092 325 697 0 1094-325t397-884q0-400-227-679-226-278-629-378 456-106 710-416 255-309 255-755 0-679-414-1042-414-362-1186-362-771 0-1186 362-414 363-414 1042 0 446 256 755 257 310 713 416zm-231 997q0-362 226-565 227-203 636-203 407 0 636 203 230 203 230 565 0 363-230 566-229 203-636 203-409 0-636-203-226-203-226-566z"/><path id="aw" transform="scale(.015625)" d="m628 4666h941l1190-3175 1197 3175h941v-4666h-616v4097l-1203-3200h-634l-1203 3200v-4097h-613v4666z"/><path id="ah" transform="scale(.015625)" d="m2597 2516q453-97 707-404 255-306 255-756 0-690-475-1069-475-378-1350-378-293 0-604 58t-642 174v609q262-153 574-231 313-78 654-78 593 0 904 234t311 681q0 413-289 645-289 233-804 233h-544v519h569q465 0 712 186t247 536q0 359-255 551-254 193-729 193-260 0-557-57-297-56-653-174v562q360 100 674 150t592 50q719 0 1137-327 419-326 419-882 0-388-222-655t-631-370z"/></defs><use xlink:href="#an"/><use x="75.195312" xlink:href="#c"/><use x="136.71875" xlink:href="#o"/><use x="200.195312" xlink:href="#c"/><use x="261.71875" xlink:href="#af"/><use x="327.099609" xlink:href="#p"/><use x="392.089844" xlink:href="#i"/><use x="447.070312" xlink:href="#aq"/><use x="506.005859" xlink:href="#DejaVuSans-20"/><use x="537.792969" xlink:href="#u"/><use x="598.193359" xlink:href="#d"/><use x="659.375" xlink:href="#i"/><use x="714.355469" xlink:href="#r"/><use x="789.794922" xlink:href="#p"/><use x="854.785156" xlink:href="#aj"/><use x="913.867188" xlink:href="#c"/><use x="975.390625" xlink:href="#i"/><use x="1030.371094" xlink:href="#u"/><use x="1090.771484" xlink:href="#d"/><use x="1151.953125" xlink:href="#am"/><use x="1204.492188" xlink:href="#d"/><use x="1265.673828" xlink:href="#DejaVuSans-20"/><use x="1297.460938" xlink:href="#l"/><use x="1362.841797" xlink:href="#j"/><use x="1424.121094" xlink:href="#i"/><use x="1479.101562" xlink:href="#c"/><use x="1540.625" xlink:href="#m"/><use x="1604.541016" xlink:href="#c"/><use x="1666.064453" xlink:href="#l"/><use x="1731.445312" xlink:href="#p"/><use x="1796.435547" xlink:href="#ad"/><use x="1856.591797" xlink:href="#aa"/><use x="1888.378906" xlink:href="#DejaVuSans-20"/><use x="1920.166016" xlink:href="#v"/><use x="1983.789062" xlink:href="#h"/><use x="2047.412109" xlink:href="#q"/><use x="2111.035156" xlink:href="#DejaVuSans-20"/><use x="2142.822266" xlink:href="#p"/><use x="2207.8125" xlink:href="#al"/><use x="2260.986328" xlink:href="#r"/><use x="2336.425781" xlink:href="#c"/><use x="2397.949219" xlink:href="#l"/><use x="2463.330078" xlink:href="#c"/><use x="2524.853516" xlink:href="#l"/><use x="2590.234375" xlink:href="#p"/><use x="2655.224609" xlink:href="#ar"/><use x="2720.214844" xlink:href="#ap"/><use x="2752.001953" xlink:href="#DejaVuSans-20"/><use x="2783.789062" xlink:href="#bq"/><use x="2858.984375" xlink:href="#ae"/><use x="2943.164062" xlink:href="#x"/><use x="3012.304688" xlink:href="#p"/><use x="3077.294922" xlink:href="#DejaVuSans-20"/><use x="3109.082031" xlink:href="#af"/><use x="3174.462891" xlink:href="#o"/><use x="3237.939453" xlink:href="#d"/><use x="3299.121094" xlink:href="#s"/><use x="3358.056641" xlink:href="#c"/><use x="3419.580078" xlink:href="#m"/><use x="3483.496094" xlink:href="#p"/><use x="3548.486328" xlink:href="#DejaVuSans-20"/><use x="3580.273438" xlink:href="#s"/><use x="3639.208984" xlink:href="#DejaVuSans-20"/><use x="3670.996094" xlink:href="#u"/><use x="3731.396484" xlink:href="#d"/><use x="3792.578125" xlink:href="#i"/><use x="3847.558594" xlink:href="#r"/><use x="3922.998047" xlink:href="#d"/><use x="3984.179688" xlink:href="#i"/><use x="4039.160156" xlink:href="#c"/><use x="4100.683594" xlink:href="#DejaVuSans-20"/><use x="4132.470703" xlink:href="#e"/><use x="4196.09375" xlink:href="#v"/><use x="4259.716797" xlink:href="#v"/><use x="4323.339844" xlink:href="#ap"/><use x="4355.126953" xlink:href="#z"/><use x="4418.75" xlink:href="#DejaVuSans-20"/><use x="4450.537109" xlink:href="#aj"/><use x="4509.619141" xlink:href="#c"/><use x="4571.142578" xlink:href="#m"/><use x="4635.058594" xlink:href="#d"/><use x="4696.240234" xlink:href="#s"/><use x="4755.175781" xlink:href="#c"/><use x="4816.699219" xlink:href="#u"/><use x="4877.099609" xlink:href="#d"/><use x="4938.28125" xlink:href="#y"/><use x="4974.365234" xlink:href="#m"/><use x="5038.28125" xlink:href="#c"/><use x="5099.804688" xlink:href="#t"/><use x="5158.056641" xlink:href="#ap"/><use x="5189.84375" xlink:href="#DejaVuSans-20"/><use x="5221.630859" xlink:href="#aw"/><use x="5307.910156" xlink:href="#j"/><use x="5369.189453" xlink:href="#ar"/><use x="5434.179688" xlink:href="#DejaVuSans-20"/><use x="5465.966797" xlink:href="#h"/><use x="5529.589844" xlink:href="#f"/><use x="5593.212891" xlink:href="#h"/><use x="5656.835938" xlink:href="#ah"/><use x="5720.458984" xlink:href="#DejaVuSans-20"/><use x="5752.246094" xlink:href="#am"/><use x="5804.785156" xlink:href="#d"/><use x="5865.966797" xlink:href="#x"/><use x="5935.107422" xlink:href="#j"/></g><path d="m55.296 609.12h1027.6v-589.68h-1027.6v589.68z" fill="none"/><g transform="translate(151.91 233.24) rotate(-90) scale(.14 -.14)"><defs><path id="as" transform="scale(.015625)" d="m2597 3500h572v-1644l1528 1644h669l-1257-1347 1438-2153h-616l-1178 1769-584-628v-1141h-572v1141l-584 628-1179-1769h-615l1437 2153-1256 1347h669l1528-1644v1644z"/><path id="ac" transform="scale(.015625)" d="m3316 3309v-596l-941-838 941-837v-597l-1466 1306v256l1466 1306zm-1357 0v-596l-940-838 940-837v-597l-1465 1306v256l1465 1306z"/><path id="bs" transform="scale(.015625)" d="m2188 4044-857-2322h1716l-859 2322zm-357 622h716l1778-4666h-656l-425 1197h-2103l-425-1197h-666l1781 4666z"/><path id="ab" transform="scale(.015625)" d="m603 3309 1466-1306v-256l-1466-1306v597l941 837-941 838v596zm1356 0 1466-1306v-256l-1466-1306v597l941 837-941 838v596z"/></defs><use xlink:href="#an"/><use x="75.195312" xlink:href="#d"/><use x="136.376953" xlink:href="#as"/><use x="226.464844" xlink:href="#j"/><use x="287.744141" xlink:href="#o"/><use x="351.220703" xlink:href="#DejaVuSans-20"/><use x="383.007812" xlink:href="#l"/><use x="448.388672" xlink:href="#j"/><use x="509.667969" xlink:href="#DejaVuSans-20"/><use x="541.455078" xlink:href="#ac"/><use x="602.636719" xlink:href="#bs"/><use x="671.044922" xlink:href="#af"/><use x="736.425781" xlink:href="#d"/><use x="797.607422" xlink:href="#m"/><use x="861.523438" xlink:href="#m"/><use x="925.439453" xlink:href="#d"/><use x="986.621094" xlink:href="#l"/><use x="1052.001953" xlink:href="#c"/><use x="1113.525391" xlink:href="#y"/><use x="1149.609375" xlink:href="#e"/><use x="1213.232422" xlink:href="#ab"/></g><g transform="translate(223.82 225.95) rotate(-90) scale(.14 -.14)"><defs><path id="ag" transform="scale(.015625)" d="m628 4666h631v-2307l2257 2307h809l-1803-1844 1897-2822h-688l-1618 2403-854-872v-1531h-631v4666z"/><path id="ak" transform="scale(.015625)" d="m947 1747q0-734 226-1045 227-311 611-311 307 0 663 525v1662q-356 525-663 525-384 0-611-311-226-311-226-1045zm1500-3078v1778q-178-294-383-416t-464-122q-522 0-886 483t-364 1342q0 860 364 1355t886 495q259 0 464-119 205-118 383-412v1613h578v-1613q178 294 383 412 205 119 464 119 522 0 886-495t364-1355q0-859-364-1342t-886-483q-259 0-464 122t-383 416v-1778h-578zm2078 3078q0 734-227 1045-226 311-610 311-307 0-663-525v-1662q356-525 663-525 384 0 610 311 227 311 227 1045z"/><path id="av" transform="scale(.015625)" d="m4122 4306v-665q-319 297-680 443-361 147-767 147-800 0-1225-489t-425-1414q0-922 425-1411t1225-489q406 0 767 147t680 444v-660q-331-225-702-338-370-112-782-112-1060 0-1670 648-609 649-609 1771 0 1125 609 1773 610 649 1670 649 418 0 788-111 371-111 696-333z"/></defs><use xlink:href="#ag"/><use x="70.996094" xlink:href="#j"/><use x="132.275391" xlink:href="#t"/><use x="190.527344" xlink:href="#j"/><use x="251.806641" xlink:href="#i"/><use x="306.787109" xlink:href="#t"/><use x="365.039062" xlink:href="#o"/><use x="428.515625" xlink:href="#d"/><use x="489.697266" xlink:href="#ak"/><use x="575.195312" xlink:href="#j"/><use x="636.474609" xlink:href="#DejaVuSans-20"/><use x="668.261719" xlink:href="#ac"/><use x="729.443359" xlink:href="#av"/><use x="799.267578" xlink:href="#d"/><use x="860.449219" xlink:href="#ae"/><use x="944.628906" xlink:href="#al"/><use x="997.802734" xlink:href="#y"/><use x="1033.886719" xlink:href="#e"/><use x="1097.509766" xlink:href="#e"/><use x="1161.132812" xlink:href="#ab"/></g><g transform="translate(461.16 238.28) rotate(-90) scale(.14 -.14)"><defs><path id="at" transform="scale(.015625)" d="m3125 0v1913h-1303q-581 0-928 364t-347 1107v1282h628v-1232q0-496 194-743t581-247h1175v2222h634v-4666h-634z"/></defs><use xlink:href="#ag"/><use x="70.996094" xlink:href="#j"/><use x="132.275391" xlink:href="#t"/><use x="190.527344" xlink:href="#j"/><use x="251.806641" xlink:href="#i"/><use x="306.787109" xlink:href="#t"/><use x="365.039062" xlink:href="#o"/><use x="428.515625" xlink:href="#d"/><use x="489.697266" xlink:href="#ak"/><use x="575.195312" xlink:href="#j"/><use x="636.474609" xlink:href="#DejaVuSans-20"/><use x="668.261719" xlink:href="#ac"/><use x="729.443359" xlink:href="#at"/><use x="797.998047" xlink:href="#c"/><use x="859.521484" xlink:href="#m"/><use x="923.4375" xlink:href="#m"/><use x="987.353516" xlink:href="#c"/><use x="1048.876953" xlink:href="#l"/><use x="1114.257812" xlink:href="#x"/><use x="1183.398438" xlink:href="#as"/><use x="1273.486328" xlink:href="#c"/><use x="1335.009766" xlink:href="#o"/><use x="1398.486328" xlink:href="#j"/><use x="1459.765625" xlink:href="#ab"/></g><g transform="translate(738.21 209.16) rotate(-90) scale(.14 -.14)"><defs><path id="bn" transform="scale(.015625)" d="m2059-325q-243-625-475-815-231-191-618-191h-460v481h338q237 0 368 113 132 112 291 531l103 262-1415 3444h609l1094-2737 1094 2737h609l-1538-3825z"/><path id="bp" transform="scale(.015625)" d="m1991 3584q750 0 1178-488 428-487 428-1349 0-859-428-1349-428-489-1178-489-753 0-1169 475t-438 1363l-18 716q-16 371-16 500 0 500 181 868 285 578 777 828t1317 257q381 3 550 56l159-456q-153-63-293-66l-782-53q-393-28-631-166-622-365-681-843l-22-175q406 371 1066 371zm0-487q-463 0-732-361-268-361-268-989t267-989 733-361q459 0 728 362 269 363 269 988 0 622-269 986t-728 364z"/></defs><use xlink:href="#ag"/><use x="70.996094" xlink:href="#j"/><use x="132.275391" xlink:href="#t"/><use x="190.527344" xlink:href="#j"/><use x="251.806641" xlink:href="#i"/><use x="306.787109" xlink:href="#t"/><use x="365.039062" xlink:href="#o"/><use x="428.515625" xlink:href="#d"/><use x="489.697266" xlink:href="#ak"/><use x="575.195312" xlink:href="#j"/><use x="636.474609" xlink:href="#DejaVuSans-20"/><use x="668.261719" xlink:href="#ac"/><use x="729.443359" xlink:href="#ag"/><use x="800.439453" xlink:href="#d"/><use x="861.621094" xlink:href="#m"/><use x="925.537109" xlink:href="#bn"/><use x="984.716797" xlink:href="#r"/><use x="1060.15625" xlink:href="#bp"/><use x="1121.826172" xlink:href="#p"/><use x="1186.816406" xlink:href="#p"/><use x="1251.806641" xlink:href="#ab"/></g><g transform="translate(709.28 213.23) rotate(-90) scale(.14 -.14)"><defs><path id="br" transform="scale(.015625)" d="m1459 531h2063v3603h-1516v-662q0-1559-350-2594-72-212-197-347zm-921 0q418 197 537 572 303 963 303 2681v882h2775v-4135h531v-1534h-531v1003h-3306v-1003h-531v1534h222z"/><path id="au" transform="scale(.015625)" d="m-19 4666h3947v-532h-1656v-4134h-634v4134h-1657v532z"/></defs><use xlink:href="#br"/><use x="78.125" xlink:href="#c"/><use x="139.648438" xlink:href="#l"/><use x="205.029297" xlink:href="#l"/><use x="270.410156" xlink:href="#p"/><use x="335.400391" xlink:href="#i"/><use x="390.380859" xlink:href="#DejaVuSans-20"/><use x="422.167969" xlink:href="#au"/><use x="483.251953" xlink:href="#p"/><use x="548.242188" xlink:href="#t"/><use x="606.494141" xlink:href="#d"/><use x="667.675781" xlink:href="#aa"/><use x="699.462891" xlink:href="#DejaVuSans-20"/><use x="731.25" xlink:href="#av"/><use x="801.074219" xlink:href="#d"/><use x="862.255859" xlink:href="#ae"/><use x="946.435547" xlink:href="#al"/><use x="999.609375" xlink:href="#DejaVuSans-20"/><use x="1031.396484" xlink:href="#au"/><use x="1092.480469" xlink:href="#aw"/><use x="1178.759766" xlink:href="#y"/><use x="1214.84375" xlink:href="#ah"/><use x="1278.466797" xlink:href="#h"/></g><g transform="translate(1019.9 118.86) rotate(-90) scale(.14 -.14)"><defs><path id="ai" transform="scale(.015625)" d="m3425 4513v-616q-359 172-678 256-319 85-616 85-515 0-795-200t-280-569q0-310 186-468 186-157 705-254l381-78q706-135 1042-474t336-907q0-679-455-1029-454-350-1332-350-331 0-705 75-373 75-773 222v650q384-215 753-325 369-109 725-109 540 0 834 212 294 213 294 607 0 343-211 537t-692 291l-385 75q-706 140-1022 440-315 300-315 835 0 619 436 975t1201 356q329 0 669-60 341-59 697-177z"/><path id="bc" transform="scale(.015625)" d="m1159 525v-1856h-578v4831h578v-531q182 312 458 463 277 152 661 152 638 0 1036-506 399-506 399-1331t-399-1332q-398-506-1036-506-384 0-661 152-276 152-458 464zm1957 1222q0 634-261 995t-717 361q-457 0-718-361t-261-995 261-995 718-361q456 0 717 361t261 995z"/><path id="bh" transform="scale(.015625)" d="m2194 1759q-697 0-966-159t-269-544q0-306 202-486 202-179 548-179 479 0 768 339t289 901v128h-572zm1147 238v-1997h-575v531q-197-318-491-470t-719-152q-537 0-855 302-317 302-317 808 0 590 395 890 396 300 1180 300h807v57q0 397-261 614t-733 217q-300 0-585-72-284-72-546-216v532q315 122 612 182 297 61 578 61 760 0 1135-394 375-393 375-1193z"/><path id="bg" transform="scale(.015625)" d="m3122 3366v-538q-244 135-489 202t-495 67q-560 0-870-355-309-354-309-995t309-996q310-354 870-354 250 0 495 67t489 202v-532q-241-112-499-168-257-57-548-57-791 0-1257 497-465 497-465 1341 0 856 470 1346 471 491 1290 491 265 0 518-55 253-54 491-163z"/><path id="bf" transform="scale(.015625)" d="m3597 1894v-281h-2644q38-594 358-905t892-311q331 0 642 81t618 244v-544q-310-131-635-200t-659-69q-838 0-1327 487-489 488-489 1320 0 859 464 1363 464 505 1252 505 706 0 1117-455 411-454 411-1235zm-575 169q-6 471-264 752-258 282-683 282-481 0-770-272t-333-766l2050 4z"/><path id="bi" transform="scale(.015625)" d="m403 4666h678l1160-1735 1165 1735h678l-1500-2241 1600-2425h-678l-1312 1984-1322-1984h-681l1665 2491-1453 2175z"/><path id="bo" transform="scale(.015625)" d="m1259 4147v-3628h763q966 0 1414 437 448 438 448 1382 0 937-448 1373t-1414 436h-763zm-631 519h1297q1356 0 1990-564 635-564 635-1764 0-1207-638-1773-637-565-1987-565h-1297v4666z"/><path id="bl" transform="scale(.015625)" d="m628 4666h941l1190-3175 1197 3175h941v-4666h-616v4097l-1203-3200h-634l-1203 3200v-4097h-613v4666z"/></defs><use xlink:href="#ai"/><use x="63.476562" xlink:href="#bc"/><use x="126.953125" xlink:href="#bh"/><use x="188.232422" xlink:href="#bg"/><use x="243.212891" xlink:href="#bf"/><use x="304.736328" xlink:href="#bi"/><use x="373.242188" xlink:href="#DejaVuSans-20"/><use x="405.029297" xlink:href="#bo"/><use x="482.03125" xlink:href="#bl"/><use x="568.310547" xlink:href="#y"/><use x="604.394531" xlink:href="#h"/></g><g transform="translate(1038 116.19) rotate(-90) scale(.14 -.14)"><defs><path id="bj" transform="scale(.015625)" d="m1831 0-1781 4666h659l1479-3928 1481 3928h656l-1778-4666h-716z"/><path id="bk" transform="scale(.015625)" d="m556 4666h635v-2835q0-750 271-1080 272-329 882-329 606 0 878 329 272 330 272 1080v2835h634v-2913q0-912-452-1378-451-466-1332-466-885 0-1337 466-451 466-451 1378v2913z"/><path id="bd" transform="scale(.015625)" d="m3513 2113v-2113h-575v2094q0 497-194 743-194 247-581 247-466 0-735-297-269-296-269-809v-1978h-578v3500h578v-544q207 316 486 472 280 156 646 156 603 0 912-373 310-373 310-1098z"/><path id="be" transform="scale(.015625)" d="m603 3500h575v-3500h-575v3500zm0 1363h575v-729h-575v729z"/><path id="bb" transform="scale(.015625)" d="m1172 4494v-994h1184v-447h-1184v-1900q0-428 117-550t477-122h590v-481h-590q-666 0-919 248-253 249-253 905v1900h-422v447h422v994h578z"/><path id="ba" transform="scale(.015625)" d="m2059-325q-243-625-475-815-231-191-618-191h-460v481h338q237 0 368 113 132 112 291 531l103 262-1415 3444h609l1094-2737 1094 2737h609l-1538-3825z"/></defs><use xlink:href="#bj"/><use x="68.408203" xlink:href="#ai"/><use x="131.884766" xlink:href="#ai"/><use x="195.361328" xlink:href="#DejaVuSans-20"/><use x="227.148438" xlink:href="#bk"/><use x="300.341797" xlink:href="#bd"/><use x="363.720703" xlink:href="#be"/><use x="391.503906" xlink:href="#bb"/><use x="430.712891" xlink:href="#ba"/><use x="489.892578" xlink:href="#DejaVuSans-20"/><use x="521.679688" xlink:href="#h"/><use x="585.302734" xlink:href="#h"/></g><defs><path id="az" d="m61.979-38.88v-29.484h0.003094v29.484h1.0373v-29.484h4.76e-4v29.484h3.426v-29.484h4.83e-4v29.484h0.70062v-29.484h0.046874v29.484h8.7911v-29.484h0.00914v29.484h4.1306v-29.484h0.009161v29.484h2.4037v-29.484h3.2e-4v29.484h1.0986v-29.484h0.043696v-29.484h0.13124v29.484h2.16e-4v29.484h2.1932v-29.484h0.017115v29.484h4.7181v-29.484h3.01e-4v29.484h5.2461v-29.484h0.063731v29.484h1.2709v-29.484h0.084495v-29.484h0.13134v29.484h0.005074v29.484h0.36748v-29.484h3.24e-4v29.484h0.98061v-29.484h3.53e-4v29.484h1.514v-29.484h3.45e-4v29.484h18.561v-88.452h0.045082v88.452h6.949v-58.968h0.048337v58.968h0.18817v-58.968h0.00905v58.968h3.2004v-58.968h0.18181v58.968h0.98047v-29.484h3.26e-4v29.484h1.8729v-29.484h8.62e-4v29.484h0.48105v-58.968h0.35443v58.968h1.3444v-29.484h3.69e-4v29.484h0.71741v-29.484h2.93e-4v29.484h2.2714v-58.968h0.47918v-58.968h0.048v58.968h0.086517v58.968h3.9256v-58.968h0.019846v58.968h3.4943v-58.968h0.13431v58.968h1.8867v-58.968h0.13139v58.968h2.3495v-58.968h0.13234v58.968h2.1078v-29.484h3.32e-4v29.484h0.44404v-58.968h0.17557v58.968h7.0492v-29.484h0.049747v29.484h7.8662v-29.484h3.13e-4v29.484h1.2951v-29.484h1.5e-4v29.484h12.47v-29.484h2.91e-4v29.484h2.27v-88.452h0.48295v88.452h0.17334v-29.484h0.17607v29.484h2.3269v-88.452h0.27292v88.452h0.78645v-29.484h0.043779v-88.452h0.08867v88.452h0.04667v29.484h1.9752v-88.452h0.44742v88.452h2.9402v-88.452h0.35654v88.452h2.266v-88.452h0.36258v88.452h3.5092v-58.968h0.043771v-88.452h0.043764v-58.968h0.13285v58.968h0.043697v88.452h0.044086v58.968h1.2163v-88.452h0.4541v88.452h6.1452v-88.452h0.2653v88.452h2.0065v-58.968h0.78894v58.968h10.086v-88.452h0.40105v88.452h3.2131v-88.452h0.088672v88.452h1.881v-88.452h1.0588v88.452h1.1849v-88.452h0.54801v88.452h11.267v-88.452h0.49353v88.452h9.9537v-88.452h0.56039v88.452h6.9831v-88.452h1.2491v88.452h1.599v-88.452h2.6494v88.452h0.070493v-58.968h0.087732v58.968h2.1432v-88.452h1.4218v-58.968h0.35073v58.968h1.9723v88.452h6.4669v-58.968h0.70081v58.968h1.7072v-58.968h0.089484v58.968h4.2577v-58.968h0.26434v58.968h1.4957v-58.968h1.3168v58.968h2.4505v-58.968h6.63e-4v58.968h2.1897v-58.968h2.3119v-58.968h0.013924v-88.452h0.25064v58.968h0.15308v88.452h0.076109v58.968h15.412v-58.968h2.195v58.968h0.96398v-58.968h0.35248v58.968h0.95415v-58.968h0.089312v58.968h5.0762v-58.968h0.78978v58.968h10.056v-58.968h0.090493v58.968h2.6693v-58.968h1.4018v-58.968h0.26544v58.968h2.0125v-58.968h0.35321v58.968h0.26283v58.968h4.0711v-58.968h0.52569v-58.968h0.35281v58.968h2.3193v-58.968h0.35052v58.968h2.6721v58.968h5.1252v-58.968h1.9709v-58.968h0.087285v58.968h5.7398v58.968h10.428v-58.968h2.1028v-58.968h0.35042v58.968h0.087657v-58.968h0.17511v58.968h1.9713v-58.968h0.3503v58.968h2.1904v-58.968h0.35035v58.968h0.65703v58.968h2.1023v-88.452h0.57016v88.452h4.1167v-58.968h0.43807v-58.968h0.35031v58.968h0.57979v-58.968h0.10089v58.968h1.3346v-58.968h0.3503v58.968h0.17571v58.968h7.5789v-58.968h0.10066v58.968h5.6929v-58.968h0.35658v58.968h1.949v-58.968h1.8834v-88.452h0.13088v-58.968h0.22155v88.452h0.09248v58.968h2.0514v-88.452h0.35248v88.452h3.381v-117.94h0.22693v117.94h1.0776v58.968h5.1227v-117.94h0.2235v117.94h0.47949v-88.452h0.089659v88.452h2.536v-147.42h0.27178v147.42h0.12485v-58.968h2.8465v-147.42h0.26945v147.42h3.5426v58.968h0.2154v-176.9h0.46v176.9h2.5195v-147.42h0.22114v-88.452h0.13392v147.42h2.3184v-88.452h0.13519v-147.42h0.21692v88.452h0.094346v147.42h4.2401v-88.452h0.52582v88.452h1.4253v-176.9h0.26906v176.9h1.198v88.452h0.13386v-206.39h0.36644v206.39h1.1506v-147.42h0.35596v147.42h3.0888v-147.42h0.13655v147.42h3.3278v-206.39h0.31174v206.39h0.44949v-206.39h0.31215v206.39h1.3635v-58.968h0.49916v-206.39h0.31494v206.39h1.5739v-206.39h0.35412v206.39h0.91931v-147.42h0.31614v147.42h0.62262v-88.452h0.39582v58.968h0.32189v-147.42h0.18145v147.42h1.0247v-235.87h0.31326v235.87h0.65488v88.452h0.2487v-206.39h0.30646v206.39h1.7642v-206.39h0.27116v206.39h2.4033v-58.968h5.5693v58.968h9.1058v-58.968h7.404v-88.452h0.35473v88.452h6.4348v-88.452h0.35266v88.452h7.1821v-88.452h0.4384v88.452h3.2416v-88.452h0.39438v58.968h1.0076v-147.42h0.18008v147.42h2.4044v-88.452h0.26488v-147.42h0.1951v147.42h0.64296v88.452h3.6627v-147.42h0.22211v147.42h1.7606v88.452h0.34124v-147.42h0.17996v147.42h4.0858v-147.42h0.22463v147.42h1.0396v-58.968h1.907v-147.42h0.22213v147.42h1.3512v-147.42h0.22298v147.42h1.8937v-147.42h0.48454v147.42h0.97401v-58.968h0.35335v58.968h0.40699v-147.42h0.19735v147.42h2.2619v-147.42h0.22512v147.42h4.1801v-58.968h0.35277v58.968h2.592v-147.42h0.18224v147.42h1.6222v-147.42h0.21888v147.42h0.507v-206.39h0.002615v-88.452h0.35255v88.452h0.044119v206.39h5.1394v-147.42h0.26648v147.42h0.75302v-206.39h0.37012v206.39h0.52335v-88.452h0.35129v88.452h0.45175v-206.39h0.40514v206.39h2.182v-147.42h0.39608v147.42h1.4458v-147.42h0.23848v147.42h0.62069v-88.452h0.35311v88.452h2.0412v-176.9h0.30973v176.9h2.3025v-206.39h0.35874v206.39h2.0844v-88.452h0.31618v-206.39h0.036429v88.452h0.36114v206.39h1.5822v-206.39h0.39596v206.39h1.7733v-206.39h0.6154v206.39h0.79164v-88.452h0.1927v-206.39h0.35504v206.39h0.06662v88.452h1.495v-206.39h0.35366v206.39h1.4337v-176.9h0.43985v176.9h1.3799v-147.42h0.32548v147.42h1.5469v-147.42h0.26665v147.42h0.20855v-58.968h0.35241v58.968h2.9437v-147.42h0.41238v147.42h0.40695v-206.39h0.44492v206.39h2.0469v-176.9h0.44507v176.9h0.003116v-88.452h0.92106v88.452h2.3262v-147.42h0.43846v147.42h1.1713v-206.39h0.62414v206.39h1.3707v-206.39h0.48262v206.39h1.1671v-88.452h0.264v58.968h0.89825v-176.9h0.36972v176.9h0.92554v-147.42h0.62242v147.42h0.97633v-176.9h0.50091v176.9h3.1995v-58.968h0.31987v-206.39h0.033093v58.968h0.62392v206.39h2.1604v-176.9h0.48793v176.9h0.42707v-176.9h0.1549v-88.452h0.3459v176.9h1.0247v-176.9h0.033995v88.452h0.45344v176.9h3.5899v-176.9h0.36844v176.9h0.83687v-206.39h0.53382v-88.452h0.20716v206.39h0.14533v88.452h4.3504v-206.39h0.43695v235.87h0.26508v-147.42h0.3979v147.42h1.9102v-88.452h0.18962v-147.42h0.16286v58.968h0.3207v147.42h1.4299v-206.39h0.70891v206.39h0.31328v-147.42h0.36481v147.42h2.3032v-176.9h0.39729v176.9h1.4348v-58.968h0.058907v-206.39h0.29406v88.452h0.40706v206.39h0.56852v-176.9h0.41076v147.42h2.1776v-176.9h0.44676v176.9h0.98698v-206.39h0.75332v206.39h1.828v-88.452h0.70246v88.452h0.62602v-176.9h0.45168v176.9h2.4202v-147.42h0.78691v147.42h1.5996v-176.9h0.45468v176.9h0.84612v-88.452h0.034832v-206.39h0.44483v206.39h0.39764v88.452h1.4937v-206.39h0.17675v206.39h1.6291v-206.39h0.41088v206.39h1.7015v-206.39h0.69939v206.39h0.85548v-58.968h0.087409v-176.9h0.30743v58.968h0.22063v176.9h1.6772v-206.39h0.48146v206.39h1.9564v-176.9h0.69906v176.9h2.1655v-206.39h0.29286v-88.452h0.10029v206.39h0.82163v88.452h2.5565v-206.39h0.70884v206.39h1.3477v-176.9h0.43793v206.39h2.747v-88.452h0.52665v88.452h2.9218v-206.39h0.39678v206.39h1.1872v-176.9h0.52592v176.9h2.9413v-88.452h0.35261v58.968h3.9367v-206.39h0.43666v206.39h2.0912v-147.42h0.22059v147.42h1.376v88.452h5.0796v-206.39h0.35491v206.39h2.0378v-176.9h0.50057v176.9h1.8372v-58.968h2.0145v-206.39h0.4384v206.39h0.79156v58.968h3.7649v-206.39h0.5257v206.39h0.96411v-206.39h0.57495v206.39h0.28753v-88.452h1.3723v-147.42h0.48259v147.42h2.5844v-147.42h0.57425v147.42h0.69644v-206.39h0.57145v206.39h1.3128v-206.39h0.38046v-88.452h0.14955v206.39h0.2033v88.452h2.9914v-147.42h0.56914v147.42h0.74539v-206.39h0.52947v206.39h2.6558v-88.452h0.43811v88.452h1.5916v-206.39h0.52647v206.39h3.2848v-206.39h0.48668v206.39h1.2238v-206.39h0.48213v206.39h0.24875v-88.452h0.44075v88.452h1.4137v-206.39h0.61741v206.39h4.9043v-176.9h0.4826v176.9h0.51136v-88.452h0.48431v88.452h0.62516v-206.39h0.61408v206.39h1.7748v-206.39h0.70984v206.39h3.7237v-58.968h0.35304v88.452h7.3049v-29.484h0.039695v29.484h0.10257v-88.452h0.44004v88.452h7.7536v-88.452h0.48428v88.452h2.344v-29.484h7.42e-4v29.484h4.4553v-29.484h7.48e-4v29.484h0.22138v-29.484h7.4e-4v29.484h0.42306v-88.452h0.44086v88.452h7.7082v-88.452h0.44065v88.452h4.1296v-206.39h0.61919v206.39h2.346v-88.452h0.44043v88.452h0.044252v-58.968h0.2145v58.968h7.3179v-88.452h0.4405v88.452h3.8666v-206.39h0.5692v176.9h2.4096v-176.9h0.38037v-88.452h0.14519v176.9h0.33948v88.452h3.2089v-206.39h0.57315v206.39h4.7134v-88.452h0.61447v88.452h2.1592v-206.39h0.61669v206.39h2.0992v-206.39h0.56793v206.39h2.2218v-88.452h0.48493v88.452h0.098467v-206.39h0.67273v206.39h4.1022v-206.39h0.56873v206.39h0.87688v-206.39h0.70206v206.39h0.55437v-88.452h0.48493v88.452h1.8945v-206.39h0.61302v206.39h4.5852v-88.452h0.12709v88.452h0.61892v-88.452h0.52831v88.452h0.9752v-206.39h0.70635v206.39h4.6824v-206.39h0.46799v-88.452h0.10285v206.39h0.46787v88.452h1.4903v-206.39h0.57478v206.39h0.12425v-88.452h2.2044v-206.39h0.6994v206.39h1.272v-206.39h0.61799v206.39h0.81377v-88.452h0.48505v88.452h1.6317v-176.9h0.48131v206.39h0.16433v88.452h0.87364v-88.452h2.2042v-176.9h0.61281v176.9h1.0397v58.968h0.69926v-88.452h0.14532v-206.39h0.67348v206.39h1.0789v-176.9h0.52437v176.9h0.29444v88.452h0.61295v-88.452h4.5144v88.452h0.56768v-88.452h2.1935v88.452h0.87321v-88.452h3.1684v-176.9h0.57004v176.9h0.29506v88.452h0.87328v-88.452h1.8539v-176.9h0.33695v88.452h0.36411v176.9h0.29263v-88.452h1.3724v-117.94h0.56892v117.94h2.5285v88.452h2.6291v-88.452h0.35306v88.452h1.3122v-88.452h5.7001v88.452h0.78575v-88.452h1.4398v-88.452h0.56325v88.452h0.10064v88.452h0.6134v-88.452h2.8518v88.452h1.6187v-88.452h1.1863v88.452h1.3558v-88.452h3.8593v88.452h0.56735v-88.452h2.0602v88.452h0.65719v-88.452h0.60354v-88.452h0.65064v88.452h3.436v88.452h0.65718v-88.452h1.8847v-88.452h0.17558v88.452h5.3475v88.452h0.65697v-88.452h2.1918v88.452h0.65716v-88.452h4.6901v88.452h0.65723v-88.452h2.019v88.452h0.61083v-88.452h4.8213v88.452h0.70096v-88.452h3.375v88.452h1.8403v-88.452h1.8408v-88.452h0.43854v88.452h4.0328v88.452h0.17421v-88.452h3.4629v88.452h0.74445v-88.452h4.0763v88.452h0.83234v-88.452h2.7616v88.452h1.779v-58.968h0.10503v-88.452h0.48246v88.452h0.83235v-88.452h0.017908v58.968h6.3812v88.452h0.43791v-58.968h1.9287v58.968h2.4978v-88.452h1.6219v88.452h0.43797v-88.452h4.12v88.452h0.13128v-88.452h3.2435v88.452h0.96388v-88.452h3.2875v88.452h0.13098v-88.452h5.3475v88.452h0.30617v-58.968h6.09e-4v58.968h2.3661v-88.452h0.45382v-58.968h4.37e-4v58.968h0.29109v88.452h2.8735v-88.452h4.69e-4v88.452h0.89496v-88.452h4.5586v88.452h1.1392v-88.452h2.9805v-88.452h0.35091v88.452h5.6105v88.452h2.8048v-88.452h0.35122v88.452h1.942v-58.968h2.8504v58.968h3.2282v-88.452h0.35114v88.452h1.1093v-117.94h6.4292v-88.452h0.35125v88.452h0.27641v-117.94h0.39565v117.94h0.90684v-58.968h5.26e-4v58.968h1.1318v-88.452h1.0954v-176.9h4.71e-4v176.9h0.39637v-117.94h3.15e-4v117.94h2.5594v-117.94h0.054802v88.452h0.077123v117.94h0.73106v-88.452h0.36738v-117.94h3.14e-4v117.94h0.091725v-88.452h0.067202v88.452h1.0228v117.94h0.086347v-117.94h1.2133v-88.452h0.14736v-176.9h3.13e-4v176.9h0.37879v88.452h3.9443v-88.452h0.5264v88.452h0.049178v-176.9h3.08e-4v176.9h0.35857v-117.94h0.33166v88.452h0.42912v117.94h0.071996v-117.94h0.39511v117.94h1.3082v-176.9h3.08e-4v176.9h0.024414v-88.452h2.694v-176.9h3.16e-4v176.9h2.1382v-88.452h0.35093v88.452h0.27673v-117.94h0.41008v117.94h2.0388v-88.452h0.21722v88.452h3.9085v-117.94h0.43897v117.94 294.84h-0.43897-3.9085-0.21722-2.0388-0.41008-0.27673-0.35093-2.1382-3.16e-4 -2.694-0.024414-3.08e-4 -1.3082-0.39511-0.071996-0.42912-0.33166-0.35857-3.08e-4 -0.049178-0.5264-3.9443-0.37879-3.13e-4 -0.14736-1.2133-0.086347-1.0228-0.067202-0.091725-3.14e-4 -0.36738-0.73106-0.077123-0.054802-2.5594-3.15e-4 -0.39637-4.71e-4 -1.0954-1.1318-5.26e-4 -0.90684-0.39565-0.27641-0.35125-6.4292-1.1093-0.35114-3.2282-2.8504-1.942-0.35122-2.8048-5.6105-0.35091-2.9805-1.1392-4.5586-0.89496-4.69e-4 -2.8735-0.29109-4.37e-4 -0.45382-2.3661-6.09e-4 -0.30617-5.3475-0.13098-3.2875-0.96388-3.2435-0.13128-4.12-0.43797-1.6219-2.4978-1.9287-0.43791-6.3812-0.017908-0.83235-0.48246-0.10503-1.779-2.7616-0.83234-4.0763-0.74445-3.4629-0.17421-4.0328-0.43854-1.8408-1.8403-3.375-0.70096-4.8213-0.61083-2.019-0.65723-4.6901-0.65716-2.1918-0.65697-5.3475-0.17558-1.8847-0.65718-3.436-0.65064-0.60354-0.65719-2.0602-0.56735-3.8593-1.3558-1.1863-1.6187-2.8518-0.6134-0.10064-0.56325-1.4398-0.78575-5.7001-1.3122-0.35306-2.6291-2.5285-0.56892-1.3724-0.29263-0.36411-0.33695-1.8539-0.87328-0.29506-0.57004-3.1684-0.87321-2.1935-0.56768-4.5144-0.61295-0.29444-0.52437-1.0789-0.67348-0.14532-0.69926-1.0397-0.61281-2.2042-0.87364-0.16433-0.48131-1.6317-0.48505-0.81377-0.61799-1.272-0.6994-2.2044-0.12425-0.57478-1.4903-0.46787-0.10285-0.46799-4.6824-0.70635-0.9752-0.52831-0.61892-0.12709-4.5852-0.61302-1.8945-0.48493-0.55437-0.70206-0.87688-0.56873-4.1022-0.67273-0.098467-0.48493-2.2218-0.56793-2.0992-0.61669-2.1592-0.61447-4.7134-0.57315-3.2089-0.33948-0.14519-0.38037-2.4096-0.5692-3.8666-0.4405-7.3179-0.2145-0.044252-0.44043-2.346-0.61919-4.1296-0.44065-7.7082-0.44086-0.42306-7.4e-4 -0.22138-7.48e-4 -4.4553-7.42e-4 -2.344-0.48428-7.7536-0.44004-0.10257-0.039695-7.3049-0.35304-3.7237-0.70984-1.7748-0.61408-0.62516-0.48431-0.51136-0.4826-4.9043-0.61741-1.4137-0.44075-0.24875-0.48213-1.2238-0.48668-3.2848-0.52647-1.5916-0.43811-2.6558-0.52947-0.74539-0.56914-2.9914-0.2033-0.14955-0.38046-1.3128-0.57145-0.69644-0.57425-2.5844-0.48259-1.3723-0.28753-0.57495-0.96411-0.5257-3.7649-0.79156-0.4384-2.0145-1.8372-0.50057-2.0378-0.35491-5.0796-1.376-0.22059-2.0912-0.43666-3.9367-0.35261-2.9413-0.52592-1.1872-0.39678-2.9218-0.52665-2.747-0.43793-1.3477-0.70884-2.5565-0.82163-0.10029-0.29286-2.1655-0.69906-1.9564-0.48146-1.6772-0.22063-0.30743-0.087409-0.85548-0.69939-1.7015-0.41088-1.6291-0.17675-1.4937-0.39764-0.44483-0.034832-0.84612-0.45468-1.5996-0.78691-2.4202-0.45168-0.62602-0.70246-1.828-0.75332-0.98698-0.44676-2.1776-0.41076-0.56852-0.40706-0.29406-0.058907-1.4348-0.39729-2.3032-0.36481-0.31328-0.70891-1.4299-0.3207-0.16286-0.18962-1.9102-0.3979-0.26508-0.43695-4.3504-0.14533-0.20716-0.53382-0.83687-0.36844-3.5899-0.45344-0.033995-1.0247-0.3459-0.1549-0.42707-0.48793-2.1604-0.62392-0.033093-0.31987-3.1995-0.50091-0.97633-0.62242-0.92554-0.36972-0.89825-0.264-1.1671-0.48262-1.3707-0.62414-1.1713-0.43846-2.3262-0.92106-0.003116-0.44507-2.0469-0.44492-0.40695-0.41238-2.9437-0.35241-0.20855-0.26665-1.5469-0.32548-1.3799-0.43985-1.4337-0.35366-1.495-0.06662-0.35504-0.1927-0.79164-0.6154-1.7733-0.39596-1.5822-0.36114-0.036429-0.31618-2.0844-0.35874-2.3025-0.30973-2.0412-0.35311-0.62069-0.23848-1.4458-0.39608-2.182-0.40514-0.45175-0.35129-0.52335-0.37012-0.75302-0.26648-5.1394-0.044119-0.35255-0.002615-0.507-0.21888-1.6222-0.18224-2.592-0.35277-4.1801-0.22512-2.2619-0.19735-0.40699-0.35335-0.97401-0.48454-1.8937-0.22298-1.3512-0.22213-1.907-1.0396-0.22463-4.0858-0.17996-0.34124-1.7606-0.22211-3.6627-0.64296-0.1951-0.26488-2.4044-0.18008-1.0076-0.39438-3.2416-0.4384-7.1821-0.35266-6.4348-0.35473-7.404-9.1058-5.5693-2.4033-0.27116-1.7642-0.30646-0.2487-0.65488-0.31326-1.0247-0.18145-0.32189-0.39582-0.62262-0.31614-0.91931-0.35412-1.5739-0.31494-0.49916-1.3635-0.31215-0.44949-0.31174-3.3278-0.13655-3.0888-0.35596-1.1506-0.36644-0.13386-1.198-0.26906-1.4253-0.52582-4.2401-0.094346-0.21692-0.13519-2.3184-0.13392-0.22114-2.5195-0.46-0.2154-3.5426-0.26945-2.8465-0.12485-0.27178-2.536-0.089659-0.47949-0.2235-5.1227-1.0776-0.22693-3.381-0.35248-2.0514-0.09248-0.22155-0.13088-1.8834-1.949-0.35658-5.6929-0.10066-7.5789-0.17571-0.3503-1.3346-0.10089-0.57979-0.35031-0.43807-4.1167-0.57016-2.1023-0.65703-0.35035-2.1904-0.3503-1.9713-0.17511-0.087657-0.35042-2.1028-10.428-5.7398-0.087285-1.9709-5.1252-2.6721-0.35052-2.3193-0.35281-0.52569-4.0711-0.26283-0.35321-2.0125-0.26544-1.4018-2.6693-0.090493-10.056-0.78978-5.0762-0.089312-0.95415-0.35248-0.96398-2.195-15.412-0.076109-0.15308-0.25064-0.013924-2.3119-2.1897-6.63e-4 -2.4505-1.3168-1.4957-0.26434-4.2577-0.089484-1.7072-0.70081-6.4669-1.9723-0.35073-1.4218-2.1432-0.087732-0.070493-2.6494-1.599-1.2491-6.9831-0.56039-9.9537-0.49353-11.267-0.54801-1.1849-1.0588-1.881-0.088672-3.2131-0.40105-10.086-0.78894-2.0065-0.2653-6.1452-0.4541-1.2163-0.044086-0.043697-0.13285-0.043764-0.043771-3.5092-0.36258-2.266-0.35654-2.9402-0.44742-1.9752-0.04667-0.08867-0.043779-0.78645-0.27292-2.3269-0.17607-0.17334-0.48295-2.27-2.91e-4 -12.47-1.5e-4 -1.2951-3.13e-4 -7.8662-0.049747-7.0492-0.17557-0.44404-3.32e-4 -2.1078-0.13234-2.3495-0.13139-1.8867-0.13431-3.4943-0.019846-3.9256-0.086517-0.048-0.47918-2.2714-2.93e-4 -0.71741-3.69e-4 -1.3444-0.35443-0.48105-8.62e-4 -1.8729-3.26e-4 -0.98047-0.18181-3.2004-0.00905-0.18817-0.048337-6.949-0.045082-18.561-3.45e-4 -1.514-3.53e-4 -0.98061-3.24e-4 -0.36748-0.005074-0.13134-0.084495-1.2709-0.063731-5.2461-3.01e-4 -4.7181-0.017115-2.1932-2.16e-4 -0.13124-0.043696-1.0986-3.2e-4 -2.4037-0.009161-4.1306-0.00914-8.7911-0.046874-0.70062-4.83e-4 -3.426-4.76e-4 -1.0373-0.003094z" stroke="#229"/></defs><g clip-path="url(#b)"><use y="648" fill="#222299" stroke="#222299" xlink:href="#az"/></g><defs><path id="n" d="m0 0v3.5" stroke="#000" stroke-width=".8"/></defs><use x="122.561062" y="609.12" stroke="#000000" stroke-width=".8" xlink:href="#n"/><g transform="translate(109.84 623.72) scale(.1 -.1)"><defs><path id="ao" transform="scale(.015625)" d="m2113 2584q-425 0-674-291-248-290-248-796 0-503 248-796 249-292 674-292t673 292q248 293 248 796 0 506-248 796-248 291-673 291zm1253 1979v-575q-238 112-480 171-242 60-480 60-625 0-955-422-329-422-376-1275 184 272 462 417 279 145 613 145 703 0 1111-427 408-426 408-1160 0-719-425-1154-425-434-1131-434-810 0-1238 620-428 621-428 1799 0 1106 525 1764t1409 658q238 0 480-47t505-140z"/></defs><use xlink:href="#e"/><use x="63.623047" xlink:href="#q"/><use x="127.246094" xlink:href="#ao"/><use x="190.869141" xlink:href="#k"/></g><use x="203.916518" y="609.12" stroke="#000000" stroke-width=".8" xlink:href="#n"/><g transform="translate(191.19 623.72) scale(.1 -.1)"><use xlink:href="#e"/><use x="63.623047" xlink:href="#q"/><use x="127.246094" xlink:href="#v"/><use x="190.869141" xlink:href="#f"/></g><use x="285.271973" y="609.12" stroke="#000000" stroke-width=".8" xlink:href="#n"/><g transform="translate(272.55 623.72) scale(.1 -.1)"><use xlink:href="#e"/><use x="63.623047" xlink:href="#q"/><use x="127.246094" xlink:href="#v"/><use x="190.869141" xlink:href="#k"/></g><use x="366.627429" y="609.12" stroke="#000000" stroke-width=".8" xlink:href="#n"/><g transform="translate(353.9 623.72) scale(.1 -.1)"><use xlink:href="#e"/><use x="63.623047" xlink:href="#q"/><use x="127.246094" xlink:href="#z"/><use x="190.869141" xlink:href="#f"/></g><use x="448.027438" y="609.12" stroke="#000000" stroke-width=".8" xlink:href="#n"/><g transform="translate(435.3 623.72) scale(.1 -.1)"><use xlink:href="#e"/><use x="63.623047" xlink:href="#q"/><use x="127.246094" xlink:href="#z"/><use x="190.869141" xlink:href="#k"/></g><use x="529.382894" y="609.12" stroke="#000000" stroke-width=".8" xlink:href="#n"/><g transform="translate(516.66 623.72) scale(.1 -.1)"><use xlink:href="#e"/><use x="63.623047" xlink:href="#q"/><use x="127.246094" xlink:href="#q"/><use x="190.869141" xlink:href="#f"/></g><use x="610.738349" y="609.12" stroke="#000000" stroke-width=".8" xlink:href="#n"/><g transform="translate(598.01 623.72) scale(.1 -.1)"><use xlink:href="#e"/><use x="63.623047" xlink:href="#q"/><use x="127.246094" xlink:href="#q"/><use x="190.869141" xlink:href="#k"/></g><use x="692.093805" y="609.12" stroke="#000000" stroke-width=".8" xlink:href="#n"/><g transform="translate(679.37 623.72) scale(.1 -.1)"><use xlink:href="#h"/><use x="63.623047" xlink:href="#f"/><use x="127.246094" xlink:href="#f"/><use x="190.869141" xlink:href="#f"/></g><use x="773.493814" y="609.12" stroke="#000000" stroke-width=".8" xlink:href="#n"/><g transform="translate(760.77 623.72) scale(.1 -.1)"><use xlink:href="#h"/><use x="63.623047" xlink:href="#f"/><use x="127.246094" xlink:href="#f"/><use x="190.869141" xlink:href="#k"/></g><use x="854.84927" y="609.12" stroke="#000000" stroke-width=".8" xlink:href="#n"/><g transform="translate(842.12 623.72) scale(.1 -.1)"><use xlink:href="#h"/><use x="63.623047" xlink:href="#f"/><use x="127.246094" xlink:href="#e"/><use x="190.869141" xlink:href="#f"/></g><use x="936.204725" y="609.12" stroke="#000000" stroke-width=".8" xlink:href="#n"/><g transform="translate(923.48 623.72) scale(.1 -.1)"><use xlink:href="#h"/><use x="63.623047" xlink:href="#f"/><use x="127.246094" xlink:href="#e"/><use x="190.869141" xlink:href="#k"/></g><use x="1017.560181" y="609.12" stroke="#000000" stroke-width=".8" xlink:href="#n"/><g transform="translate(1004.8 623.72) scale(.1 -.1)"><use xlink:href="#h"/><use x="63.623047" xlink:href="#f"/><use x="127.246094" xlink:href="#h"/><use x="190.869141" xlink:href="#f"/></g><defs><path id="a" d="m0 0v2" stroke="#000" stroke-width=".6"/></defs><use x="57.467787" y="609.12" stroke="#000000" stroke-width=".6" xlink:href="#a"/><use x="73.729967" y="609.12" stroke="#000000" stroke-width=".6" xlink:href="#a"/><use x="89.992148" y="609.12" stroke="#000000" stroke-width=".6" xlink:href="#a"/><use x="106.254328" y="609.12" stroke="#000000" stroke-width=".6" xlink:href="#a"/><use x="138.823242" y="609.12" stroke="#000000" stroke-width=".6" xlink:href="#a"/><use x="155.085423" y="609.12" stroke="#000000" stroke-width=".6" xlink:href="#a"/><use x="171.347603" y="609.12" stroke="#000000" stroke-width=".6" xlink:href="#a"/><use x="187.654337" y="609.12" stroke="#000000" stroke-width=".6" xlink:href="#a"/><use x="220.178698" y="609.12" stroke="#000000" stroke-width=".6" xlink:href="#a"/><use x="236.440878" y="609.12" stroke="#000000" stroke-width=".6" xlink:href="#a"/><use x="252.747613" y="609.12" stroke="#000000" stroke-width=".6" xlink:href="#a"/><use x="269.009793" y="609.12" stroke="#000000" stroke-width=".6" xlink:href="#a"/><use x="301.534153" y="609.12" stroke="#000000" stroke-width=".6" xlink:href="#a"/><use x="317.840888" y="609.12" stroke="#000000" stroke-width=".6" xlink:href="#a"/><use x="334.103068" y="609.12" stroke="#000000" stroke-width=".6" xlink:href="#a"/><use x="350.365248" y="609.12" stroke="#000000" stroke-width=".6" xlink:href="#a"/><use x="382.934163" y="609.12" stroke="#000000" stroke-width=".6" xlink:href="#a"/><use x="399.196343" y="609.12" stroke="#000000" stroke-width=".6" xlink:href="#a"/><use x="415.458524" y="609.12" stroke="#000000" stroke-width=".6" xlink:href="#a"/><use x="431.720704" y="609.12" stroke="#000000" stroke-width=".6" xlink:href="#a"/><use x="464.289618" y="609.12" stroke="#000000" stroke-width=".6" xlink:href="#a"/><use x="480.551799" y="609.12" stroke="#000000" stroke-width=".6" xlink:href="#a"/><use x="496.813979" y="609.12" stroke="#000000" stroke-width=".6" xlink:href="#a"/><use x="513.120713" y="609.12" stroke="#000000" stroke-width=".6" xlink:href="#a"/><use x="545.645074" y="609.12" stroke="#000000" stroke-width=".6" xlink:href="#a"/><use x="561.907254" y="609.12" stroke="#000000" stroke-width=".6" xlink:href="#a"/><use x="578.213988" y="609.12" stroke="#000000" stroke-width=".6" xlink:href="#a"/><use x="594.476169" y="609.12" stroke="#000000" stroke-width=".6" xlink:href="#a"/><use x="627.000529" y="609.12" stroke="#000000" stroke-width=".6" xlink:href="#a"/><use x="643.307264" y="609.12" stroke="#000000" stroke-width=".6" xlink:href="#a"/><use x="659.569444" y="609.12" stroke="#000000" stroke-width=".6" xlink:href="#a"/><use x="675.831624" y="609.12" stroke="#000000" stroke-width=".6" xlink:href="#a"/><use x="708.400539" y="609.12" stroke="#000000" stroke-width=".6" xlink:href="#a"/><use x="724.662719" y="609.12" stroke="#000000" stroke-width=".6" xlink:href="#a"/><use x="740.924899" y="609.12" stroke="#000000" stroke-width=".6" xlink:href="#a"/><use x="757.18708" y="609.12" stroke="#000000" stroke-width=".6" xlink:href="#a"/><use x="789.755994" y="609.12" stroke="#000000" stroke-width=".6" xlink:href="#a"/><use x="806.018175" y="609.12" stroke="#000000" stroke-width=".6" xlink:href="#a"/><use x="822.280355" y="609.12" stroke="#000000" stroke-width=".6" xlink:href="#a"/><use x="838.587089" y="609.12" stroke="#000000" stroke-width=".6" xlink:href="#a"/><use x="871.11145" y="609.12" stroke="#000000" stroke-width=".6" xlink:href="#a"/><use x="887.37363" y="609.12" stroke="#000000" stroke-width=".6" xlink:href="#a"/><use x="903.680364" y="609.12" stroke="#000000" stroke-width=".6" xlink:href="#a"/><use x="919.942545" y="609.12" stroke="#000000" stroke-width=".6" xlink:href="#a"/><use x="952.466905" y="609.12" stroke="#000000" stroke-width=".6" xlink:href="#a"/><use x="968.77364" y="609.12" stroke="#000000" stroke-width=".6" xlink:href="#a"/><use x="985.03582" y="609.12" stroke="#000000" stroke-width=".6" xlink:href="#a"/><use x="1001.298" y="609.12" stroke="#000000" stroke-width=".6" xlink:href="#a"/><use x="1033.866915" y="609.12" stroke="#000000" stroke-width=".6" xlink:href="#a"/><use x="1050.129095" y="609.12" stroke="#000000" stroke-width=".6" xlink:href="#a"/><use x="1066.391275" y="609.12" stroke="#000000" stroke-width=".6" xlink:href="#a"/><use x="1082.653456" y="609.12" stroke="#000000" stroke-width=".6" xlink:href="#a"/><g transform="translate(523.27 640.44) scale(.14 -.14)"><defs><path id="ax" transform="scale(.015625)" d="m1259 2228v-1709h1013q509 0 754 211 246 211 246 645 0 438-246 645-245 208-754 208h-1013zm0 1919v-1406h935q462 0 688 173 227 174 227 530 0 353-227 528-226 175-688 175h-935zm-631 519h1613q722 0 1112-300 391-300 391-853 0-429-200-682t-588-315q466-100 724-418 258-317 258-792 0-625-425-966-425-340-1210-340h-1675v4666z"/><path id="bm" transform="scale(.015625)" d="m3907 3500h575v-3500h-575v3500zm288 84zm-1414-2546q0 281-205 428-204 147-598 147h-819v-1154h819q394 0 598 148 205 149 205 431zm-2200 2462h578v-1428h844q669 0 1030-255 361-254 361-779t-361-782q-361-256-1030-256h-1422v3500z"/></defs><use xlink:href="#ax"/><use x="68.603516" xlink:href="#o"/><use x="132.080078" xlink:href="#c"/><use x="193.603516" xlink:href="#r"/><use x="269.042969" xlink:href="#ad"/><use x="329.199219" xlink:href="#aa"/><use x="360.986328" xlink:href="#DejaVuSans-20"/><use x="392.773438" xlink:href="#am"/><use x="445.3125" xlink:href="#d"/><use x="506.494141" xlink:href="#x"/><use x="575.634766" xlink:href="#bm"/></g><path d="m55.296 609.12h1027.6" clip-path="url(#b)" fill="none" stroke="#b0b0b0" stroke-dasharray="0.8,1.32" stroke-width=".8"/><defs><path id="g" d="m0 0h-3.5" stroke="#000" stroke-width=".8"/></defs><use x="55.296" y="609.12" stroke="#000000" stroke-width=".8" xlink:href="#g"/><g transform="translate(41.934 612.92) scale(.1 -.1)"><use xlink:href="#f"/></g><path d="m55.296 579.64h1027.6" clip-path="url(#b)" fill="none" stroke="#b0b0b0" stroke-dasharray="0.8,1.32" stroke-width=".8"/><use x="55.296" y="579.636" stroke="#000000" stroke-width=".8" xlink:href="#g"/><g transform="translate(41.934 583.44) scale(.1 -.1)"><use xlink:href="#e"/></g><path d="m55.296 550.15h1027.6" clip-path="url(#b)" fill="none" stroke="#b0b0b0" stroke-dasharray="0.8,1.32" stroke-width=".8"/><use x="55.296" y="550.152" stroke="#000000" stroke-width=".8" xlink:href="#g"/><g transform="translate(41.934 553.95) scale(.1 -.1)"><use xlink:href="#h"/></g><path d="m55.296 520.67h1027.6" clip-path="url(#b)" fill="none" stroke="#b0b0b0" stroke-dasharray="0.8,1.32" stroke-width=".8"/><use x="55.296" y="520.668" stroke="#000000" stroke-width=".8" xlink:href="#g"/><g transform="translate(41.934 524.47) scale(.1 -.1)"><use xlink:href="#ah"/></g><path d="m55.296 491.18h1027.6" clip-path="url(#b)" fill="none" stroke="#b0b0b0" stroke-dasharray="0.8,1.32" stroke-width=".8"/><use x="55.296" y="491.184" stroke="#000000" stroke-width=".8" xlink:href="#g"/><g transform="translate(41.934 494.98) scale(.1 -.1)"><defs><path id="ay" transform="scale(.015625)" d="m2419 4116-1594-2491h1594v2491zm-166 550h794v-3041h666v-525h-666v-1100h-628v1100h-2106v609l1940 2957z"/></defs><use xlink:href="#ay"/></g><path d="m55.296 461.7h1027.6" clip-path="url(#b)" fill="none" stroke="#b0b0b0" stroke-dasharray="0.8,1.32" stroke-width=".8"/><use x="55.296" y="461.7" stroke="#000000" stroke-width=".8" xlink:href="#g"/><g transform="translate(41.934 465.5) scale(.1 -.1)"><use xlink:href="#k"/></g><path d="m55.296 432.22h1027.6" clip-path="url(#b)" fill="none" stroke="#b0b0b0" stroke-dasharray="0.8,1.32" stroke-width=".8"/><use x="55.296" y="432.216" stroke="#000000" stroke-width=".8" xlink:href="#g"/><g transform="translate(41.934 436.02) scale(.1 -.1)"><use xlink:href="#ao"/></g><path d="m55.296 402.73h1027.6" clip-path="url(#b)" fill="none" stroke="#b0b0b0" stroke-dasharray="0.8,1.32" stroke-width=".8"/><use x="55.296" y="402.732" stroke="#000000" stroke-width=".8" xlink:href="#g"/><g transform="translate(41.934 406.53) scale(.1 -.1)"><use xlink:href="#v"/></g><path d="m55.296 373.25h1027.6" clip-path="url(#b)" fill="none" stroke="#b0b0b0" stroke-dasharray="0.8,1.32" stroke-width=".8"/><use x="55.296" y="373.248" stroke="#000000" stroke-width=".8" xlink:href="#g"/><g transform="translate(41.934 377.05) scale(.1 -.1)"><use xlink:href="#z"/></g><path d="m55.296 343.76h1027.6" clip-path="url(#b)" fill="none" stroke="#b0b0b0" stroke-dasharray="0.8,1.32" stroke-width=".8"/><use x="55.296" y="343.764" stroke="#000000" stroke-width=".8" xlink:href="#g"/><g transform="translate(41.934 347.56) scale(.1 -.1)"><use xlink:href="#q"/></g><path d="m55.296 314.28h1027.6" clip-path="url(#b)" fill="none" stroke="#b0b0b0" stroke-dasharray="0.8,1.32" stroke-width=".8"/><use x="55.296" y="314.28" stroke="#000000" stroke-width=".8" xlink:href="#g"/><g transform="translate(35.571 318.08) scale(.1 -.1)"><use xlink:href="#e"/><use x="63.623047" xlink:href="#f"/></g><path d="m55.296 284.8h1027.6" clip-path="url(#b)" fill="none" stroke="#b0b0b0" stroke-dasharray="0.8,1.32" stroke-width=".8"/><use x="55.296" y="284.796" stroke="#000000" stroke-width=".8" xlink:href="#g"/><g transform="translate(35.571 288.6) scale(.1 -.1)"><use xlink:href="#e"/><use x="63.623047" xlink:href="#e"/></g><path d="m55.296 255.31h1027.6" clip-path="url(#b)" fill="none" stroke="#b0b0b0" stroke-dasharray="0.8,1.32" stroke-width=".8"/><use x="55.296" y="255.312" stroke="#000000" stroke-width=".8" xlink:href="#g"/><g transform="translate(35.571 259.11) scale(.1 -.1)"><use xlink:href="#e"/><use x="63.623047" xlink:href="#h"/></g><path d="m55.296 225.83h1027.6" clip-path="url(#b)" fill="none" stroke="#b0b0b0" stroke-dasharray="0.8,1.32" stroke-width=".8"/><use x="55.296" y="225.828" stroke="#000000" stroke-width=".8" xlink:href="#g"/><g transform="translate(35.571 229.63) scale(.1 -.1)"><use xlink:href="#e"/><use x="63.623047" xlink:href="#ah"/></g><path d="m55.296 196.34h1027.6" clip-path="url(#b)" fill="none" stroke="#b0b0b0" stroke-dasharray="0.8,1.32" stroke-width=".8"/><use x="55.296" y="196.344" stroke="#000000" stroke-width=".8" xlink:href="#g"/><g transform="translate(35.571 200.14) scale(.1 -.1)"><use xlink:href="#e"/><use x="63.623047" xlink:href="#ay"/></g><path d="m55.296 166.86h1027.6" clip-path="url(#b)" fill="none" stroke="#b0b0b0" stroke-dasharray="0.8,1.32" stroke-width=".8"/><use x="55.296" y="166.86" stroke="#000000" stroke-width=".8" xlink:href="#g"/><g transform="translate(35.571 170.66) scale(.1 -.1)"><use xlink:href="#e"/><use x="63.623047" xlink:href="#k"/></g><path d="m55.296 137.38h1027.6" clip-path="url(#b)" fill="none" stroke="#b0b0b0" stroke-dasharray="0.8,1.32" stroke-width=".8"/><use x="55.296" y="137.376" stroke="#000000" stroke-width=".8" xlink:href="#g"/><g transform="translate(35.571 141.18) scale(.1 -.1)"><use xlink:href="#e"/><use x="63.623047" xlink:href="#ao"/></g><path d="m55.296 107.89h1027.6" clip-path="url(#b)" fill="none" stroke="#b0b0b0" stroke-dasharray="0.8,1.32" stroke-width=".8"/><use x="55.296" y="107.892" stroke="#000000" stroke-width=".8" xlink:href="#g"/><g transform="translate(35.571 111.69) scale(.1 -.1)"><use xlink:href="#e"/><use x="63.623047" xlink:href="#v"/></g><path d="m55.296 78.408h1027.6" clip-path="url(#b)" fill="none" stroke="#b0b0b0" stroke-dasharray="0.8,1.32" stroke-width=".8"/><use x="55.296" y="78.408" stroke="#000000" stroke-width=".8" xlink:href="#g"/><g transform="translate(35.571 82.207) scale(.1 -.1)"><use xlink:href="#e"/><use x="63.623047" xlink:href="#z"/></g><path d="m55.296 48.924h1027.6" clip-path="url(#b)" fill="none" stroke="#b0b0b0" stroke-dasharray="0.8,1.32" stroke-width=".8"/><use x="55.296" y="48.924" stroke="#000000" stroke-width=".8" xlink:href="#g"/><g transform="translate(35.571 52.723) scale(.1 -.1)"><use xlink:href="#e"/><use x="63.623047" xlink:href="#q"/></g><path d="m55.296 19.44h1027.6" clip-path="url(#b)" fill="none" stroke="#b0b0b0" stroke-dasharray="0.8,1.32" stroke-width=".8"/><use x="55.296" y="19.44" stroke="#000000" stroke-width=".8" xlink:href="#g"/><g transform="translate(35.571 23.239) scale(.1 -.1)"><use xlink:href="#h"/><use x="63.623047" xlink:href="#f"/></g><g transform="translate(28.659 383.46) rotate(-90) scale(.14 -.14)"><use xlink:href="#at"/><use x="68.554688" xlink:href="#c"/><use x="130.078125" xlink:href="#m"/><use x="193.994141" xlink:href="#d"/><use x="255.175781" xlink:href="#s"/><use x="314.111328" xlink:href="#c"/><use x="375.634766" xlink:href="#u"/><use x="436.035156" xlink:href="#DejaVuSans-20"/><use x="467.822266" xlink:href="#s"/><use x="526.757812" xlink:href="#DejaVuSans-20"/><use x="558.544922" xlink:href="#u"/><use x="618.945312" xlink:href="#d"/><use x="680.126953" xlink:href="#i"/><use x="735.107422" xlink:href="#r"/><use x="810.546875" xlink:href="#d"/><use x="871.728516" xlink:href="#i"/><use x="926.708984" xlink:href="#c"/></g><path d="m61.979 579.64h0.003094v29.484h1.0373v-29.484l4.76e-4 29.484h3.426v-29.484l4.83e-4 29.484h0.70062v-29.484l0.046874 29.484h8.7911v-29.484l0.00914 29.484h4.1306v-29.484l0.009161 29.484h2.4037v-29.484l3.2e-4 29.484h1.0986l0.043696-58.968h0.13124l2.16e-4 58.968h2.1932v-29.484l0.017115 29.484h4.7181v-29.484l3.01e-4 29.484h5.2461v-29.484l0.063731 29.484h1.2709l0.084495-58.968h0.13134l0.005074 58.968h0.36748v-29.484l3.24e-4 29.484h0.98061v-29.484l3.53e-4 29.484h1.514v-29.484l3.45e-4 29.484h18.561v-88.452l0.045082 88.452h6.949v-58.968l0.048337 58.968h0.18817v-58.968l0.00905 58.968h3.2004v-58.968h0.18181v58.968h0.98047v-29.484l3.26e-4 29.484h1.8729v-29.484l8.62e-4 29.484h0.48105v-58.968h0.35443v58.968h1.3444v-29.484l3.69e-4 29.484h0.71741v-29.484l2.93e-4 29.484h2.2714v-58.968h0.47918v-58.968l0.048 58.968h0.086517v58.968h3.9256v-58.968l0.019846 58.968h3.4943v-58.968h0.13431v58.968h1.8867v-58.968h0.13139v58.968h2.3495v-58.968h0.13234v58.968h2.1078v-29.484l3.32e-4 29.484h0.44404v-58.968h0.17557v58.968h7.0492v-29.484l0.049747 29.484h7.8662v-29.484l3.13e-4 29.484h1.2951v-29.484l1.5e-4 29.484h12.47v-29.484l2.91e-4 29.484h2.27v-88.452h0.48295v88.452h0.17334v-29.484h0.17607v29.484h2.3269v-88.452h0.27292v88.452h0.78645l0.043779-117.94h0.08867l0.04667 117.94h1.9752v-88.452h0.44742v88.452h2.9402v-88.452h0.35654v88.452h2.266v-88.452h0.36258v88.452h3.5092l0.087535-206.39h0.13285l0.087783 206.39h1.2163v-88.452h0.4541v88.452h6.1452v-88.452h0.2653v88.452h2.0065v-58.968h0.78894v58.968h10.086v-88.452h0.40105v88.452h3.2131v-88.452l0.088672 88.452h1.881v-88.452h1.0588v88.452h1.1849v-88.452h0.54801v88.452h11.267v-88.452h0.49353v88.452h9.9537v-88.452h0.56039v88.452h6.9831v-88.452h1.2491v88.452h1.599v-88.452h2.6494v88.452l0.070493-58.968h0.087732v58.968h2.1432v-88.452h1.4218v-58.968h0.35073v58.968h1.9723v88.452h6.4669v-58.968h0.70081v58.968h1.7072v-58.968l0.089484 58.968h4.2577v-58.968h0.26434v58.968h1.4957v-58.968h1.3168v58.968h2.4505v-58.968l6.63e-4 58.968h2.1897v-58.968h2.3119l0.013924-147.42h0.25064v58.968h0.15308l0.076109 147.42h15.412v-58.968h2.195v58.968h0.96398v-58.968h0.35248v58.968h0.95415v-58.968l0.089312 58.968h5.0762v-58.968h0.78978v58.968h10.056v-58.968l0.090493 58.968h2.6693v-58.968h1.4018v-58.968h0.26544v58.968h2.0125v-58.968h0.35321v58.968h0.26283v58.968h4.0711v-58.968h0.52569v-58.968h0.35281v58.968h2.3193v-58.968h0.35052v58.968h2.6721v58.968h5.1252v-58.968h1.9709v-58.968l0.087285 58.968h5.7398v58.968h10.428v-58.968h2.1028v-58.968h0.35042v58.968l0.087657-58.968h0.17511v58.968h1.9713v-58.968h0.3503v58.968h2.1904v-58.968h0.35035v58.968h0.65703v58.968h2.1023v-88.452h0.57016v88.452h4.1167v-58.968h0.43807v-58.968h0.35031v58.968h0.57979v-58.968l0.10089 58.968h1.3346v-58.968h0.3503v58.968h0.17571v58.968h7.5789v-58.968l0.10066 58.968h5.6929v-58.968h0.35658v58.968h1.949v-58.968h1.8834v-88.452h0.13088v-58.968h0.22155l0.09248 147.42h2.0514v-88.452h0.35248v88.452h3.381v-117.94h0.22693v117.94h1.0776v58.968h5.1227v-117.94h0.2235v117.94h0.47949v-88.452l0.089659 88.452h2.536v-147.42h0.27178v147.42h0.12485v-58.968h2.8465v-147.42h0.26945v147.42h3.5426v58.968h0.2154v-176.9h0.46v176.9h2.5195v-147.42h0.22114v-88.452h0.13392v147.42h2.3184v-88.452h0.13519v-147.42h0.21692l0.094346 235.87h4.2401v-88.452h0.52582v88.452h1.4253v-176.9h0.26906v176.9h1.198v88.452h0.13386v-206.39h0.36644v206.39h1.1506v-147.42h0.35596v147.42h3.0888v-147.42h0.13655v147.42h3.3278v-206.39h0.31174v206.39h0.44949v-206.39h0.31215v206.39h1.3635v-58.968h0.49916v-206.39h0.31494v206.39h1.5739v-206.39h0.35412v206.39h0.91931v-147.42h0.31614v147.42h0.62262v-88.452h0.39582v58.968h0.32189v-147.42h0.18145v147.42h1.0247v-235.87h0.31326v235.87h0.65488v88.452h0.2487v-206.39h0.30646v206.39h1.7642v-206.39h0.27116v206.39h2.4033v-58.968h5.5693v58.968h9.1058v-58.968h7.404v-88.452h0.35473v88.452h6.4348v-88.452h0.35266v88.452h7.1821v-88.452h0.4384v88.452h3.2416v-88.452h0.39438v58.968h1.0076v-147.42h0.18008v147.42h2.4044v-88.452h0.26488v-147.42h0.1951v147.42h0.64296v88.452h3.6627v-147.42h0.22211v147.42h1.7606v88.452h0.34124v-147.42h0.17996v147.42h4.0858v-147.42h0.22463v147.42h1.0396v-58.968h1.907v-147.42h0.22213v147.42h1.3512v-147.42h0.22298v147.42h1.8937v-147.42h0.48454v147.42h0.97401v-58.968h0.35335v58.968h0.40699v-147.42h0.19735v147.42h2.2619v-147.42h0.22512v147.42h4.1801v-58.968h0.35277v58.968h2.592v-147.42h0.18224v147.42h1.6222v-147.42h0.21888v147.42h0.507l0.002615-294.84h0.35255l0.044119 294.84h5.1394v-147.42h0.26648v147.42h0.75302v-206.39h0.37012v206.39h0.52335v-88.452h0.35129v88.452h0.45175v-206.39h0.40514v206.39h2.182v-147.42h0.39608v147.42h1.4458v-147.42h0.23848v147.42h0.62069v-88.452h0.35311v88.452h2.0412v-176.9h0.30973v176.9h2.3025v-206.39h0.35874v206.39h2.0844v-88.452h0.31618v-206.39l0.036429 88.452h0.36114v206.39h1.5822v-206.39h0.39596v206.39h1.7733v-206.39h0.6154v206.39h0.79164v-88.452h0.1927v-206.39h0.35504l0.06662 294.84h1.495v-206.39h0.35366v206.39h1.4337v-176.9h0.43985v176.9h1.3799v-147.42h0.32548v147.42h1.5469v-147.42h0.26665v147.42h0.20855v-58.968h0.35241v58.968h2.9437v-147.42h0.41238v147.42h0.40695v-206.39h0.44492v206.39h2.0469v-176.9h0.44507v176.9l0.003116-88.452h0.92106v88.452h2.3262v-147.42h0.43846v147.42h1.1713v-206.39h0.62414v206.39h1.3707v-206.39h0.48262v206.39h1.1671v-88.452h0.264v58.968h0.89825v-176.9h0.36972v176.9h0.92554v-147.42h0.62242v147.42h0.97633v-176.9h0.50091v176.9h3.1995v-58.968h0.31987v-206.39l0.033093 58.968h0.62392v206.39h2.1604v-176.9h0.48793v176.9h0.42707v-176.9h0.1549v-88.452h0.3459v176.9h1.0247v-176.9l0.033995 88.452h0.45344v176.9h3.5899v-176.9h0.36844v176.9h0.83687v-206.39h0.53382v-88.452h0.20716v206.39h0.14533v88.452h4.3504v-206.39h0.43695v235.87h0.26508v-147.42h0.3979v147.42h1.9102v-88.452h0.18962v-147.42h0.16286v58.968h0.3207v147.42h1.4299v-206.39h0.70891v206.39h0.31328v-147.42h0.36481v147.42h2.3032v-176.9h0.39729v176.9h1.4348l0.058907-265.36h0.29406v88.452h0.40706v206.39h0.56852v-176.9h0.41076v147.42h2.1776v-176.9h0.44676v176.9h0.98698v-206.39h0.75332v206.39h1.828v-88.452h0.70246v88.452h0.62602v-176.9h0.45168v176.9h2.4202v-147.42h0.78691v147.42h1.5996v-176.9h0.45468v176.9h0.84612l0.034832-294.84h0.44483v206.39h0.39764v88.452h1.4937v-206.39h0.17675v206.39h1.6291v-206.39h0.41088v206.39h1.7015v-206.39h0.69939v206.39h0.85548l0.087409-235.87h0.30743v58.968h0.22063v176.9h1.6772v-206.39h0.48146v206.39h1.9564v-176.9h0.69906v176.9h2.1655v-206.39h0.29286v-88.452l0.10029 206.39h0.82163v88.452h2.5565v-206.39h0.70884v206.39h1.3477v-176.9h0.43793v206.39h2.747v-88.452h0.52665v88.452h2.9218v-206.39h0.39678v206.39h1.1872v-176.9h0.52592v176.9h2.9413v-88.452h0.35261v58.968h3.9367v-206.39h0.43666v206.39h2.0912v-147.42h0.22059v147.42h1.376v88.452h5.0796v-206.39h0.35491v206.39h2.0378v-176.9h0.50057v176.9h1.8372v-58.968h2.0145v-206.39h0.4384v206.39h0.79156v58.968h3.7649v-206.39h0.5257v206.39h0.96411v-206.39h0.57495v206.39h0.28753v-88.452h1.3723v-147.42h0.48259v147.42h2.5844v-147.42h0.57425v147.42h0.69644v-206.39h0.57145v206.39h1.3128v-206.39h0.38046v-88.452h0.14955v206.39h0.2033v88.452h2.9914v-147.42h0.56914v147.42h0.74539v-206.39h0.52947v206.39h2.6558v-88.452h0.43811v88.452h1.5916v-206.39h0.52647v206.39h3.2848v-206.39h0.48668v206.39h1.2238v-206.39h0.48213v206.39h0.24875v-88.452h0.44075v88.452h1.4137v-206.39h0.61741v206.39h4.9043v-176.9h0.4826v176.9h0.51136v-88.452h0.48431v88.452h0.62516v-206.39h0.61408v206.39h1.7748v-206.39h0.70984v206.39h3.7237v-58.968h0.35304v88.452h7.3049v-29.484l0.039695 29.484h0.10257v-88.452h0.44004v88.452h7.7536v-88.452h0.48428v88.452h2.344v-29.484l7.42e-4 29.484h4.4553v-29.484l7.48e-4 29.484h0.22138v-29.484l7.4e-4 29.484h0.42306v-88.452h0.44086v88.452h7.7082v-88.452h0.44065v88.452h4.1296v-206.39h0.61919v206.39h2.346v-88.452h0.44043v88.452l0.044252-58.968h0.2145v58.968h7.3179v-88.452h0.4405v88.452h3.8666v-206.39h0.5692v176.9h2.4096v-176.9h0.38037v-88.452h0.14519v176.9h0.33948v88.452h3.2089v-206.39h0.57315v206.39h4.7134v-88.452h0.61447v88.452h2.1592v-206.39h0.61669v206.39h2.0992v-206.39h0.56793v206.39h2.2218v-88.452h0.48493v88.452l0.098467-206.39h0.67273v206.39h4.1022v-206.39h0.56873v206.39h0.87688v-206.39h0.70206v206.39h0.55437v-88.452h0.48493v88.452h1.8945v-206.39h0.61302v206.39h4.5852v-88.452h0.12709v88.452h0.61892v-88.452h0.52831v88.452h0.9752v-206.39h0.70635v206.39h4.6824v-206.39h0.46799v-88.452l0.10285 206.39h0.46787v88.452h1.4903v-206.39h0.57478v206.39h0.12425v-88.452h2.2044v-206.39h0.6994v206.39h1.272v-206.39h0.61799v206.39h0.81377v-88.452h0.48505v88.452h1.6317v-176.9h0.48131v206.39h0.16433v88.452h0.87364v-88.452h2.2042v-176.9h0.61281v176.9h1.0397v58.968h0.69926v-88.452h0.14532v-206.39h0.67348v206.39h1.0789v-176.9h0.52437v176.9h0.29444v88.452h0.61295v-88.452h4.5144v88.452h0.56768v-88.452h2.1935v88.452h0.87321v-88.452h3.1684v-176.9h0.57004v176.9h0.29506v88.452h0.87328v-88.452h1.8539v-176.9h0.33695v88.452h0.36411v176.9h0.29263v-88.452h1.3724v-117.94h0.56892v117.94h2.5285v88.452h2.6291v-88.452h0.35306v88.452h1.3122v-88.452h5.7001v88.452h0.78575v-88.452h1.4398v-88.452h0.56325l0.10064 176.9h0.6134v-88.452h2.8518v88.452h1.6187v-88.452h1.1863v88.452h1.3558v-88.452h3.8593v88.452h0.56735v-88.452h2.0602v88.452h0.65719v-88.452h0.60354v-88.452h0.65064v88.452h3.436v88.452h0.65718v-88.452h1.8847v-88.452h0.17558v88.452h5.3475v88.452h0.65697v-88.452h2.1918v88.452h0.65716v-88.452h4.6901v88.452h0.65723v-88.452h2.019v88.452h0.61083v-88.452h4.8213v88.452h0.70096v-88.452h3.375v88.452h1.8403v-88.452h1.8408v-88.452h0.43854v88.452h4.0328v88.452h0.17421v-88.452h3.4629v88.452h0.74445v-88.452h4.0763v88.452h0.83234v-88.452h2.7616v88.452h1.779l0.10503-147.42h0.48246v88.452h0.83235v-88.452l0.017908 58.968h6.3812v88.452h0.43791v-58.968h1.9287v58.968h2.4978v-88.452h1.6219v88.452h0.43797v-88.452h4.12v88.452h0.13128v-88.452h3.2435v88.452h0.96388v-88.452h3.2875v88.452h0.13098v-88.452h5.3475v88.452h0.30617v-58.968l6.09e-4 58.968h2.3661v-88.452h0.45382v-58.968l4.37e-4 58.968h0.29109v88.452h2.8735v-88.452l4.69e-4 88.452h0.89496v-88.452h4.5586v88.452h1.1392v-88.452h2.9805v-88.452h0.35091v88.452h5.6105v88.452h2.8048v-88.452h0.35122v88.452h1.942v-58.968h2.8504v58.968h3.2282v-88.452h0.35114v88.452h1.1093v-117.94h6.4292v-88.452h0.35125v88.452h0.27641v-117.94h0.39565v117.94h0.90684v-58.968l5.26e-4 58.968h1.1318v-88.452h1.0954v-176.9l4.71e-4 176.9h0.39637v-117.94l3.15e-4 117.94h2.5594v-117.94l0.054802 88.452h0.077123v117.94h0.73106v-88.452h0.36738v-117.94l0.092039 29.484h0.067202v88.452h1.0228v117.94l0.086347-117.94h1.2133v-88.452h0.14736v-176.9l3.13e-4 176.9h0.37879v88.452h3.9443v-88.452h0.5264v88.452l0.049178-176.9 3.08e-4 176.9h0.35857v-117.94h0.33166v88.452h0.42912v117.94l0.071996-117.94h0.39511v117.94h1.3082v-176.9l0.024722 88.452h2.694v-176.9l3.16e-4 176.9h2.1382v-88.452h0.35093v88.452h0.27673v-117.94h0.41008v117.94h2.0388v-88.452h0.21722v88.452h3.9085v-117.94h0.43897v117.94h3.1548v0 294.84 0" clip-path="url(#b)" fill="none" stroke="#00f" stroke-linecap="square" stroke-width=".9"/><path d="m156.24 609.12v-589.68" clip-path="url(#b)" fill="none" stroke="#f00" stroke-dasharray="5.55,2.4" stroke-width="1.5"/><path d="m160.08 609.12v-589.68" clip-path="url(#b)" fill="none" stroke="#f00" stroke-dasharray="5.55,2.4" stroke-width="1.5"/><path d="m228.15 609.12v-589.68" clip-path="url(#b)" fill="none" stroke="#f00" stroke-dasharray="5.55,2.4" stroke-width="1.5"/><path d="m465.49 609.12v-589.68" clip-path="url(#b)" fill="none" stroke="#f00" stroke-dasharray="5.55,2.4" stroke-width="1.5"/><path d="m742.31 609.12v-589.68" clip-path="url(#b)" fill="none" stroke="#f00" stroke-dasharray="5.55,2.4" stroke-width="1.5"/><path d="m713.61 609.12v-589.68" clip-path="url(#b)" fill="none" stroke="#008000" stroke-dasharray="5.55,2.4" stroke-width="1.5"/><path d="m1024.2 609.12v-589.68" clip-path="url(#b)" fill="none" stroke="#008000" stroke-dasharray="5.55,2.4" stroke-width="1.5"/><path d="m1042.4 609.12v-589.68" clip-path="url(#b)" fill="none" stroke="#008000" stroke-dasharray="5.55,2.4" stroke-width="1.5"/><path d="m1042.8 609.12v-589.68" clip-path="url(#b)" fill="none" stroke="#008000" stroke-dasharray="5.55,2.4" stroke-width="1.5"/><path d="m1045.4 609.12v-589.68" clip-path="url(#b)" fill="none" stroke="#008000" stroke-dasharray="5.55,2.4" stroke-width="1.5"/><path d="m55.296 609.12v-589.68" fill="none" stroke="#000" stroke-linecap="square" stroke-width=".8"/><path d="m1082.9 609.12v-589.68" fill="none" stroke="#000" stroke-linecap="square" stroke-width=".8"/><path d="m55.296 609.12h1027.6" fill="none" stroke="#000" stroke-linecap="square" stroke-width=".8"/><path d="m55.296 19.44h1027.6" fill="none" stroke="#000" stroke-linecap="square" stroke-width=".8"/><path d="m64.396 48.922h313.05q2.6 0 2.6-2.6v-17.782q0-2.6-2.6-2.6h-313.05q-2.6 0-2.6 2.6v17.782q0 2.6 2.6 2.6z" fill="#fff" opacity=".8" stroke="#ccc"/><path d="m66.996 36.468h13 13" fill="none" stroke="#bfbf00" stroke-dasharray="14.8,6.4" stroke-width="4"/><g transform="translate(103.4 41.018) scale(.13 -.13)"><use xlink:href="#ax"/><use x="68.603516" xlink:href="#o"/><use x="132.080078" xlink:href="#c"/><use x="193.603516" xlink:href="#r"/><use x="269.042969" xlink:href="#ad"/><use x="329.199219" xlink:href="#aa"/><use x="360.986328" xlink:href="#DejaVuSans-20"/><use x="392.773438" xlink:href="#af"/><use x="458.154297" xlink:href="#o"/><use x="521.630859" xlink:href="#d"/><use x="582.8125" xlink:href="#s"/><use x="641.748047" xlink:href="#c"/><use x="703.271484" xlink:href="#x"/><use x="772.412109" xlink:href="#c"/><use x="833.935547" xlink:href="#l"/><use x="899.316406" xlink:href="#l"/><use x="964.697266" xlink:href="#d"/><use x="1025.878906" xlink:href="#c"/><use x="1087.402344" xlink:href="#DejaVuSans-20"/><use x="1119.189453" xlink:href="#m"/><use x="1183.105469" xlink:href="#ae"/><use x="1267.285156" xlink:href="#x"/><use x="1336.425781" xlink:href="#aq"/><use x="1395.361328" xlink:href="#r"/><use x="1470.800781" xlink:href="#p"/><use x="1535.791016" xlink:href="#DejaVuSans-20"/><use x="1567.578125" xlink:href="#s"/><use x="1626.513672" xlink:href="#DejaVuSans-20"/><use x="1658.300781" xlink:href="#u"/><use x="1718.701172" xlink:href="#d"/><use x="1779.882812" xlink:href="#i"/><use x="1834.863281" xlink:href="#r"/><use x="1910.302734" xlink:href="#d"/><use x="1971.484375" xlink:href="#i"/><use x="2026.464844" xlink:href="#c"/></g><defs><clipPath id="b"><rect x="55.296" y="19.44" width="1027.6" height="589.68"/></clipPath></defs></svg>
