<?xml version="1.0" encoding="UTF-8"?>
<!DOCTYPE svg  PUBLIC '-//W3C//DTD SVG 1.1//EN'  'http://www.w3.org/Graphics/SVG/1.1/DTD/svg11.dtd'>
<svg width="1152pt" height="648pt" version="1.1" viewBox="0 0 1152 648" xmlns="http://www.w3.org/2000/svg" xmlns:xlink="http://www.w3.org/1999/xlink"><defs><style type="text/css">*{stroke-linejoin: round; stroke-linecap: butt}</style></defs><path d="m0 648h1152v-648h-1152z" fill="#fff"/><path d="m55.296 609.12h1027.6v-589.68h-1027.6v589.68z" fill="none"/><defs><path id="h" d="m0 0v3.5" stroke="#000" stroke-width=".8"/></defs><use x="122.344172" y="609.12" stroke="#000000" stroke-width=".8" xlink:href="#h"/><g transform="translate(109.62 623.72) scale(.1 -.1)"><defs><path id="c" transform="scale(.015625)" d="m794 531h1031v3560l-1122-225v575l1116 225h631v-4135h1031v-531h-2687v531z"/><path id="j" transform="scale(.015625)" d="m703 97v575q238-113 481-172 244-59 479-59 625 0 954 420 330 420 377 1277-181-269-460-413-278-144-615-144-700 0-1108 423-408 424-408 1159 0 718 425 1152 425 435 1131 435 810 0 1236-621 427-620 427-1801 0-1103-524-1761-523-658-1407-658-238 0-482 47-243 47-506 141zm1256 1978q425 0 673 290 249 291 249 798 0 503-249 795-248 292-673 292t-673-292-248-795q0-507 248-798 248-290 673-290z"/><path id="aa" transform="scale(.015625)" d="m2113 2584q-425 0-674-291-248-290-248-796 0-503 248-796 249-292 674-292t673 292q248 293 248 796 0 506-248 796-248 291-673 291zm1253 1979v-575q-238 112-480 171-242 60-480 60-625 0-955-422-329-422-376-1275 184 272 462 417 279 145 613 145 703 0 1111-427 408-426 408-1160 0-719-425-1154-425-434-1131-434-810 0-1238 620-428 621-428 1799 0 1106 525 1764t1409 658q238 0 480-47t505-140z"/><path id="l" transform="scale(.015625)" d="m691 4666h2478v-532h-1900v-1143q137 47 274 70 138 23 276 23 781 0 1237-428 457-428 457-1159 0-753-469-1171-469-417-1322-417-294 0-599 50-304 50-629 150v635q281-153 581-228t634-75q541 0 856 284 316 284 316 772 0 487-316 771-315 285-856 285-253 0-505-56-251-56-513-175v2344z"/></defs><use xlink:href="#c"/><use x="63.623047" xlink:href="#j"/><use x="127.246094" xlink:href="#aa"/><use x="190.869141" xlink:href="#l"/></g><use x="203.437305" y="609.12" stroke="#000000" stroke-width=".8" xlink:href="#h"/><g transform="translate(190.71 623.72) scale(.1 -.1)"><defs><path id="o" transform="scale(.015625)" d="m525 4666h3e3v-269l-1694-4397h-659l1594 4134h-2241v532z"/><path id="e" transform="scale(.015625)" d="m2034 4250q-487 0-733-480-245-479-245-1442 0-959 245-1439 246-480 733-480 491 0 736 480 246 480 246 1439 0 963-246 1442-245 480-736 480zm0 500q785 0 1199-621 414-620 414-1801 0-1178-414-1799-414-620-1199-620-784 0-1198 620-414 621-414 1799 0 1181 414 1801 414 621 1198 621z"/></defs><use xlink:href="#c"/><use x="63.623047" xlink:href="#j"/><use x="127.246094" xlink:href="#o"/><use x="190.869141" xlink:href="#e"/></g><use x="284.530438" y="609.12" stroke="#000000" stroke-width=".8" xlink:href="#h"/><g transform="translate(271.81 623.72) scale(.1 -.1)"><use xlink:href="#c"/><use x="63.623047" xlink:href="#j"/><use x="127.246094" xlink:href="#o"/><use x="190.869141" xlink:href="#l"/></g><use x="365.623571" y="609.12" stroke="#000000" stroke-width=".8" xlink:href="#h"/><g transform="translate(352.9 623.72) scale(.1 -.1)"><defs><path id="s" transform="scale(.015625)" d="m2034 2216q-450 0-708-241-257-241-257-662 0-422 257-663 258-241 708-241t709 242q260 243 260 662 0 421-258 662-257 241-711 241zm-631 268q-406 100-633 378-226 279-226 679 0 559 398 884 399 325 1092 325 697 0 1094-325t397-884q0-400-227-679-226-278-629-378 456-106 710-416 255-309 255-755 0-679-414-1042-414-362-1186-362-771 0-1186 362-414 363-414 1042 0 446 256 755 257 310 713 416zm-231 997q0-362 226-565 227-203 636-203 407 0 636 203 230 203 230 565 0 363-230 566-229 203-636 203-409 0-636-203-226-203-226-566z"/></defs><use xlink:href="#c"/><use x="63.623047" xlink:href="#j"/><use x="127.246094" xlink:href="#s"/><use x="190.869141" xlink:href="#e"/></g><use x="446.761114" y="609.12" stroke="#000000" stroke-width=".8" xlink:href="#h"/><g transform="translate(434.04 623.72) scale(.1 -.1)"><use xlink:href="#c"/><use x="63.623047" xlink:href="#j"/><use x="127.246094" xlink:href="#s"/><use x="190.869141" xlink:href="#l"/></g><use x="527.854247" y="609.12" stroke="#000000" stroke-width=".8" xlink:href="#h"/><g transform="translate(515.13 623.72) scale(.1 -.1)"><use xlink:href="#c"/><use x="63.623047" xlink:href="#j"/><use x="127.246094" xlink:href="#j"/><use x="190.869141" xlink:href="#e"/></g><use x="608.947379" y="609.12" stroke="#000000" stroke-width=".8" xlink:href="#h"/><g transform="translate(596.22 623.72) scale(.1 -.1)"><use xlink:href="#c"/><use x="63.623047" xlink:href="#j"/><use x="127.246094" xlink:href="#j"/><use x="190.869141" xlink:href="#l"/></g><use x="690.040512" y="609.12" stroke="#000000" stroke-width=".8" xlink:href="#h"/><g transform="translate(677.32 623.72) scale(.1 -.1)"><defs><path id="i" transform="scale(.015625)" d="m1228 531h2203v-531h-2962v531q359 372 979 998 621 627 780 809 303 340 423 576 121 236 121 464 0 372-261 606-261 235-680 235-297 0-627-103-329-103-704-313v638q381 153 712 231 332 78 607 78 725 0 1156-363 431-362 431-968 0-288-108-546-107-257-392-607-78-91-497-524-418-433-1181-1211z"/></defs><use xlink:href="#i"/><use x="63.623047" xlink:href="#e"/><use x="127.246094" xlink:href="#e"/><use x="190.869141" xlink:href="#e"/></g><use x="771.178055" y="609.12" stroke="#000000" stroke-width=".8" xlink:href="#h"/><g transform="translate(758.45 623.72) scale(.1 -.1)"><use xlink:href="#i"/><use x="63.623047" xlink:href="#e"/><use x="127.246094" xlink:href="#e"/><use x="190.869141" xlink:href="#l"/></g><use x="852.271188" y="609.12" stroke="#000000" stroke-width=".8" xlink:href="#h"/><g transform="translate(839.55 623.72) scale(.1 -.1)"><use xlink:href="#i"/><use x="63.623047" xlink:href="#e"/><use x="127.246094" xlink:href="#c"/><use x="190.869141" xlink:href="#e"/></g><use x="933.364321" y="609.12" stroke="#000000" stroke-width=".8" xlink:href="#h"/><g transform="translate(920.64 623.72) scale(.1 -.1)"><use xlink:href="#i"/><use x="63.623047" xlink:href="#e"/><use x="127.246094" xlink:href="#c"/><use x="190.869141" xlink:href="#l"/></g><use x="1014.457453" y="609.12" stroke="#000000" stroke-width=".8" xlink:href="#h"/><g transform="translate(1001.7 623.72) scale(.1 -.1)"><use xlink:href="#i"/><use x="63.623047" xlink:href="#e"/><use x="127.246094" xlink:href="#i"/><use x="190.869141" xlink:href="#e"/></g><defs><path id="a" d="m0 0v2" stroke="#000" stroke-width=".6"/></defs><use x="57.460784" y="609.12" stroke="#000000" stroke-width=".6" xlink:href="#a"/><use x="73.670529" y="609.12" stroke="#000000" stroke-width=".6" xlink:href="#a"/><use x="89.880273" y="609.12" stroke="#000000" stroke-width=".6" xlink:href="#a"/><use x="106.090018" y="609.12" stroke="#000000" stroke-width=".6" xlink:href="#a"/><use x="138.553917" y="609.12" stroke="#000000" stroke-width=".6" xlink:href="#a"/><use x="154.763661" y="609.12" stroke="#000000" stroke-width=".6" xlink:href="#a"/><use x="170.973406" y="609.12" stroke="#000000" stroke-width=".6" xlink:href="#a"/><use x="187.227561" y="609.12" stroke="#000000" stroke-width=".6" xlink:href="#a"/><use x="219.64705" y="609.12" stroke="#000000" stroke-width=".6" xlink:href="#a"/><use x="235.856794" y="609.12" stroke="#000000" stroke-width=".6" xlink:href="#a"/><use x="252.110949" y="609.12" stroke="#000000" stroke-width=".6" xlink:href="#a"/><use x="268.320694" y="609.12" stroke="#000000" stroke-width=".6" xlink:href="#a"/><use x="300.740183" y="609.12" stroke="#000000" stroke-width=".6" xlink:href="#a"/><use x="316.994337" y="609.12" stroke="#000000" stroke-width=".6" xlink:href="#a"/><use x="333.204082" y="609.12" stroke="#000000" stroke-width=".6" xlink:href="#a"/><use x="349.413826" y="609.12" stroke="#000000" stroke-width=".6" xlink:href="#a"/><use x="381.877726" y="609.12" stroke="#000000" stroke-width=".6" xlink:href="#a"/><use x="398.08747" y="609.12" stroke="#000000" stroke-width=".6" xlink:href="#a"/><use x="414.297215" y="609.12" stroke="#000000" stroke-width=".6" xlink:href="#a"/><use x="430.506959" y="609.12" stroke="#000000" stroke-width=".6" xlink:href="#a"/><use x="462.970858" y="609.12" stroke="#000000" stroke-width=".6" xlink:href="#a"/><use x="479.180603" y="609.12" stroke="#000000" stroke-width=".6" xlink:href="#a"/><use x="495.390347" y="609.12" stroke="#000000" stroke-width=".6" xlink:href="#a"/><use x="511.644502" y="609.12" stroke="#000000" stroke-width=".6" xlink:href="#a"/><use x="544.063991" y="609.12" stroke="#000000" stroke-width=".6" xlink:href="#a"/><use x="560.273736" y="609.12" stroke="#000000" stroke-width=".6" xlink:href="#a"/><use x="576.52789" y="609.12" stroke="#000000" stroke-width=".6" xlink:href="#a"/><use x="592.737635" y="609.12" stroke="#000000" stroke-width=".6" xlink:href="#a"/><use x="625.157124" y="609.12" stroke="#000000" stroke-width=".6" xlink:href="#a"/><use x="641.411279" y="609.12" stroke="#000000" stroke-width=".6" xlink:href="#a"/><use x="657.621023" y="609.12" stroke="#000000" stroke-width=".6" xlink:href="#a"/><use x="673.830768" y="609.12" stroke="#000000" stroke-width=".6" xlink:href="#a"/><use x="706.294667" y="609.12" stroke="#000000" stroke-width=".6" xlink:href="#a"/><use x="722.504411" y="609.12" stroke="#000000" stroke-width=".6" xlink:href="#a"/><use x="738.714156" y="609.12" stroke="#000000" stroke-width=".6" xlink:href="#a"/><use x="754.9239" y="609.12" stroke="#000000" stroke-width=".6" xlink:href="#a"/><use x="787.3878" y="609.12" stroke="#000000" stroke-width=".6" xlink:href="#a"/><use x="803.597544" y="609.12" stroke="#000000" stroke-width=".6" xlink:href="#a"/><use x="819.807289" y="609.12" stroke="#000000" stroke-width=".6" xlink:href="#a"/><use x="836.061443" y="609.12" stroke="#000000" stroke-width=".6" xlink:href="#a"/><use x="868.480932" y="609.12" stroke="#000000" stroke-width=".6" xlink:href="#a"/><use x="884.690677" y="609.12" stroke="#000000" stroke-width=".6" xlink:href="#a"/><use x="900.944832" y="609.12" stroke="#000000" stroke-width=".6" xlink:href="#a"/><use x="917.154576" y="609.12" stroke="#000000" stroke-width=".6" xlink:href="#a"/><use x="949.574065" y="609.12" stroke="#000000" stroke-width=".6" xlink:href="#a"/><use x="965.82822" y="609.12" stroke="#000000" stroke-width=".6" xlink:href="#a"/><use x="982.037964" y="609.12" stroke="#000000" stroke-width=".6" xlink:href="#a"/><use x="998.247709" y="609.12" stroke="#000000" stroke-width=".6" xlink:href="#a"/><use x="1030.711608" y="609.12" stroke="#000000" stroke-width=".6" xlink:href="#a"/><use x="1046.921353" y="609.12" stroke="#000000" stroke-width=".6" xlink:href="#a"/><use x="1063.131097" y="609.12" stroke="#000000" stroke-width=".6" xlink:href="#a"/><use x="1079.340842" y="609.12" stroke="#000000" stroke-width=".6" xlink:href="#a"/><g transform="translate(523.27 640.44) scale(.14 -.14)"><defs><path id="aq" transform="scale(.015625)" d="m1259 2228v-1709h1013q509 0 754 211 246 211 246 645 0 438-246 645-245 208-754 208h-1013zm0 1919v-1406h935q462 0 688 173 227 174 227 530 0 353-227 528-226 175-688 175h-935zm-631 519h1613q722 0 1112-300 391-300 391-853 0-429-200-682t-588-315q466-100 724-418 258-317 258-792 0-625-425-966-425-340-1210-340h-1675v4666z"/><path id="w" transform="scale(.015625)" d="m1159 525v-1856h-578v4831h578v-531q182 312 458 463 277 152 661 152 638 0 1036-506 399-506 399-1331t-399-1332q-398-506-1036-506-384 0-661 152-276 152-458 464zm1957 1222q0 634-261 995t-717 361q-457 0-718-361t-261-995 261-995 718-361q456 0 717 361t261 995z"/><path id="f" transform="scale(.015625)" d="m3597 1894v-281h-2644q38-594 358-905t892-311q331 0 642 81t618 244v-544q-310-131-635-200t-659-69q-838 0-1327 487-489 488-489 1320 0 859 464 1363 464 505 1252 505 706 0 1117-455 411-454 411-1235zm-575 169q-6 471-264 752-258 282-683 282-481 0-770-272t-333-766l2050 4z"/><path id="p" transform="scale(.015625)" d="m581 3500h841l994-2344 997 2344h834v-3500h-578v2950l-966-2278h-575l-969 2278v-2950h-578v3500z"/><path id="v" transform="scale(.015625)" d="m1181 2491q0-260 200-407 200-146 572-146h775v1103h-775q-372 0-572-144t-200-406zm-818-2491 1068 1534q-362 82-603 296-240 214-240 661 0 506 335 757 336 252 1015 252h1368v-3500h-578v1478h-715l-1032-1478h-618z"/><path id="af" transform="scale(.015625)" d="m750 794h659v-538l-512-1e3h-403l256 1e3v538z"/><path id="y" transform="scale(.015625)" d="m581 0v3500h2469v-459h-1891v-3041h-578z"/><path id="g" transform="scale(.015625)" d="m1959 3097q-462 0-731-361t-269-989 267-989q268-361 733-361 460 0 728 362 269 363 269 988 0 622-269 986-268 364-728 364zm0 487q750 0 1178-488 429-487 429-1349 0-859-429-1349-428-489-1178-489-753 0-1180 489-426 490-426 1349 0 862 426 1349 427 488 1180 488z"/><path id="x" transform="scale(.015625)" d="m1384 459h1669v2582h-1209v-438q0-1287-369-1975l-91-169zm-834 0q284 125 409 391 307 659 307 1988v662h2365v-3041h460v-1343h-460v884h-2837v-884h-460v1343h216z"/><path id="ai" transform="scale(.015625)" d="m3907 3500h575v-3500h-575v3500zm288 84zm-1414-2546q0 281-205 428-204 147-598 147h-819v-1154h819q394 0 598 148 205 149 205 431zm-2200 2462h578v-1428h844q669 0 1030-255 361-254 361-779t-361-782q-361-256-1030-256h-1422v3500z"/></defs><use xlink:href="#aq"/><use x="68.603516" xlink:href="#w"/><use x="132.080078" xlink:href="#f"/><use x="193.603516" xlink:href="#p"/><use x="269.042969" xlink:href="#v"/><use x="329.199219" xlink:href="#af"/><use x="360.986328" xlink:href="#DejaVuSans-20"/><use x="392.773438" xlink:href="#y"/><use x="445.3125" xlink:href="#g"/><use x="506.494141" xlink:href="#x"/><use x="575.634766" xlink:href="#ai"/></g><path d="m55.296 609.12h1027.6" clip-path="url(#b)" fill="none" stroke="#b0b0b0" stroke-dasharray="0.8,1.32" stroke-width=".8"/><defs><path id="d" d="m0 0h-3.5" stroke="#000" stroke-width=".8"/></defs><use x="55.296" y="609.12" stroke="#000000" stroke-width=".8" xlink:href="#d"/><g transform="translate(41.934 612.92) scale(.1 -.1)"><use xlink:href="#e"/></g><path d="m55.296 579.64h1027.6" clip-path="url(#b)" fill="none" stroke="#b0b0b0" stroke-dasharray="0.8,1.32" stroke-width=".8"/><use x="55.296" y="579.636" stroke="#000000" stroke-width=".8" xlink:href="#d"/><g transform="translate(41.934 583.44) scale(.1 -.1)"><use xlink:href="#c"/></g><path d="m55.296 550.15h1027.6" clip-path="url(#b)" fill="none" stroke="#b0b0b0" stroke-dasharray="0.8,1.32" stroke-width=".8"/><use x="55.296" y="550.152" stroke="#000000" stroke-width=".8" xlink:href="#d"/><g transform="translate(41.934 553.95) scale(.1 -.1)"><use xlink:href="#i"/></g><path d="m55.296 520.67h1027.6" clip-path="url(#b)" fill="none" stroke="#b0b0b0" stroke-dasharray="0.8,1.32" stroke-width=".8"/><use x="55.296" y="520.668" stroke="#000000" stroke-width=".8" xlink:href="#d"/><g transform="translate(41.934 524.47) scale(.1 -.1)"><defs><path id="u" transform="scale(.015625)" d="m2597 2516q453-97 707-404 255-306 255-756 0-690-475-1069-475-378-1350-378-293 0-604 58t-642 174v609q262-153 574-231 313-78 654-78 593 0 904 234t311 681q0 413-289 645-289 233-804 233h-544v519h569q465 0 712 186t247 536q0 359-255 551-254 193-729 193-260 0-557-57-297-56-653-174v562q360 100 674 150t592 50q719 0 1137-327 419-326 419-882 0-388-222-655t-631-370z"/></defs><use xlink:href="#u"/></g><path d="m55.296 491.18h1027.6" clip-path="url(#b)" fill="none" stroke="#b0b0b0" stroke-dasharray="0.8,1.32" stroke-width=".8"/><use x="55.296" y="491.184" stroke="#000000" stroke-width=".8" xlink:href="#d"/><g transform="translate(41.934 494.98) scale(.1 -.1)"><defs><path id="ae" transform="scale(.015625)" d="m2419 4116-1594-2491h1594v2491zm-166 550h794v-3041h666v-525h-666v-1100h-628v1100h-2106v609l1940 2957z"/></defs><use xlink:href="#ae"/></g><path d="m55.296 461.7h1027.6" clip-path="url(#b)" fill="none" stroke="#b0b0b0" stroke-dasharray="0.8,1.32" stroke-width=".8"/><use x="55.296" y="461.7" stroke="#000000" stroke-width=".8" xlink:href="#d"/><g transform="translate(41.934 465.5) scale(.1 -.1)"><use xlink:href="#l"/></g><path d="m55.296 432.22h1027.6" clip-path="url(#b)" fill="none" stroke="#b0b0b0" stroke-dasharray="0.8,1.32" stroke-width=".8"/><use x="55.296" y="432.216" stroke="#000000" stroke-width=".8" xlink:href="#d"/><g transform="translate(41.934 436.02) scale(.1 -.1)"><use xlink:href="#aa"/></g><path d="m55.296 402.73h1027.6" clip-path="url(#b)" fill="none" stroke="#b0b0b0" stroke-dasharray="0.8,1.32" stroke-width=".8"/><use x="55.296" y="402.732" stroke="#000000" stroke-width=".8" xlink:href="#d"/><g transform="translate(41.934 406.53) scale(.1 -.1)"><use xlink:href="#o"/></g><path d="m55.296 373.25h1027.6" clip-path="url(#b)" fill="none" stroke="#b0b0b0" stroke-dasharray="0.8,1.32" stroke-width=".8"/><use x="55.296" y="373.248" stroke="#000000" stroke-width=".8" xlink:href="#d"/><g transform="translate(41.934 377.05) scale(.1 -.1)"><use xlink:href="#s"/></g><path d="m55.296 343.76h1027.6" clip-path="url(#b)" fill="none" stroke="#b0b0b0" stroke-dasharray="0.8,1.32" stroke-width=".8"/><use x="55.296" y="343.764" stroke="#000000" stroke-width=".8" xlink:href="#d"/><g transform="translate(41.934 347.56) scale(.1 -.1)"><use xlink:href="#j"/></g><path d="m55.296 314.28h1027.6" clip-path="url(#b)" fill="none" stroke="#b0b0b0" stroke-dasharray="0.8,1.32" stroke-width=".8"/><use x="55.296" y="314.28" stroke="#000000" stroke-width=".8" xlink:href="#d"/><g transform="translate(35.571 318.08) scale(.1 -.1)"><use xlink:href="#c"/><use x="63.623047" xlink:href="#e"/></g><path d="m55.296 284.8h1027.6" clip-path="url(#b)" fill="none" stroke="#b0b0b0" stroke-dasharray="0.8,1.32" stroke-width=".8"/><use x="55.296" y="284.796" stroke="#000000" stroke-width=".8" xlink:href="#d"/><g transform="translate(35.571 288.6) scale(.1 -.1)"><use xlink:href="#c"/><use x="63.623047" xlink:href="#c"/></g><path d="m55.296 255.31h1027.6" clip-path="url(#b)" fill="none" stroke="#b0b0b0" stroke-dasharray="0.8,1.32" stroke-width=".8"/><use x="55.296" y="255.312" stroke="#000000" stroke-width=".8" xlink:href="#d"/><g transform="translate(35.571 259.11) scale(.1 -.1)"><use xlink:href="#c"/><use x="63.623047" xlink:href="#i"/></g><path d="m55.296 225.83h1027.6" clip-path="url(#b)" fill="none" stroke="#b0b0b0" stroke-dasharray="0.8,1.32" stroke-width=".8"/><use x="55.296" y="225.828" stroke="#000000" stroke-width=".8" xlink:href="#d"/><g transform="translate(35.571 229.63) scale(.1 -.1)"><use xlink:href="#c"/><use x="63.623047" xlink:href="#u"/></g><path d="m55.296 196.34h1027.6" clip-path="url(#b)" fill="none" stroke="#b0b0b0" stroke-dasharray="0.8,1.32" stroke-width=".8"/><use x="55.296" y="196.344" stroke="#000000" stroke-width=".8" xlink:href="#d"/><g transform="translate(35.571 200.14) scale(.1 -.1)"><use xlink:href="#c"/><use x="63.623047" xlink:href="#ae"/></g><path d="m55.296 166.86h1027.6" clip-path="url(#b)" fill="none" stroke="#b0b0b0" stroke-dasharray="0.8,1.32" stroke-width=".8"/><use x="55.296" y="166.86" stroke="#000000" stroke-width=".8" xlink:href="#d"/><g transform="translate(35.571 170.66) scale(.1 -.1)"><use xlink:href="#c"/><use x="63.623047" xlink:href="#l"/></g><path d="m55.296 137.38h1027.6" clip-path="url(#b)" fill="none" stroke="#b0b0b0" stroke-dasharray="0.8,1.32" stroke-width=".8"/><use x="55.296" y="137.376" stroke="#000000" stroke-width=".8" xlink:href="#d"/><g transform="translate(35.571 141.18) scale(.1 -.1)"><use xlink:href="#c"/><use x="63.623047" xlink:href="#aa"/></g><path d="m55.296 107.89h1027.6" clip-path="url(#b)" fill="none" stroke="#b0b0b0" stroke-dasharray="0.8,1.32" stroke-width=".8"/><use x="55.296" y="107.892" stroke="#000000" stroke-width=".8" xlink:href="#d"/><g transform="translate(35.571 111.69) scale(.1 -.1)"><use xlink:href="#c"/><use x="63.623047" xlink:href="#o"/></g><path d="m55.296 78.408h1027.6" clip-path="url(#b)" fill="none" stroke="#b0b0b0" stroke-dasharray="0.8,1.32" stroke-width=".8"/><use x="55.296" y="78.408" stroke="#000000" stroke-width=".8" xlink:href="#d"/><g transform="translate(35.571 82.207) scale(.1 -.1)"><use xlink:href="#c"/><use x="63.623047" xlink:href="#s"/></g><path d="m55.296 48.924h1027.6" clip-path="url(#b)" fill="none" stroke="#b0b0b0" stroke-dasharray="0.8,1.32" stroke-width=".8"/><use x="55.296" y="48.924" stroke="#000000" stroke-width=".8" xlink:href="#d"/><g transform="translate(35.571 52.723) scale(.1 -.1)"><use xlink:href="#c"/><use x="63.623047" xlink:href="#j"/></g><path d="m55.296 19.44h1027.6" clip-path="url(#b)" fill="none" stroke="#b0b0b0" stroke-dasharray="0.8,1.32" stroke-width=".8"/><use x="55.296" y="19.44" stroke="#000000" stroke-width=".8" xlink:href="#d"/><g transform="translate(35.571 23.239) scale(.1 -.1)"><use xlink:href="#i"/><use x="63.623047" xlink:href="#e"/></g><g transform="translate(28.659 383.46) rotate(-90) scale(.14 -.14)"><defs><path id="am" transform="scale(.015625)" d="m3125 0v1913h-1303q-581 0-928 364t-347 1107v1282h628v-1232q0-496 194-743t581-247h1175v2222h634v-4666h-634z"/><path id="q" transform="scale(.015625)" d="m238 0v478q568 88 743 481 213 554 213 1969v572h2365v-3500h-575v3041h-1215v-347q0-1350-275-1956-294-647-1256-738z"/><path id="r" transform="scale(.015625)" d="m1156 1613v-1154h819q394 0 600 148 206 149 206 431 0 281-206 428t-600 147h-819zm0 1428v-969h757q325 0 531 129 206 130 206 362 0 231-206 354-206 124-531 124h-757zm-575 459h1369q616 0 947-225t331-641q0-321-169-511-168-189-500-235 397-75 616-313 219-237 219-594 0-468-361-725-361-256-1030-256h-1422v3500z"/><path id="n" transform="scale(.015625)" d="m581 3500h572v-1644l1622 1644h706l-1337-1353 1509-2147h-644l-1240 1766-616-625v-1141h-572v3500z"/><path id="k" transform="scale(.015625)" d="m3122 3366v-538q-244 135-489 202t-495 67q-560 0-870-355-309-354-309-995t309-996q310-354 870-354 250 0 495 67t489 202v-532q-241-112-499-168-257-57-548-57-791 0-1257 497-465 497-465 1341 0 856 470 1346 471 491 1290 491 265 0 518-55 253-54 491-163z"/></defs><use xlink:href="#am"/><use x="68.554688" xlink:href="#f"/><use x="130.078125" xlink:href="#q"/><use x="193.994141" xlink:href="#g"/><use x="255.175781" xlink:href="#r"/><use x="314.111328" xlink:href="#f"/><use x="375.634766" xlink:href="#n"/><use x="436.035156" xlink:href="#DejaVuSans-20"/><use x="467.822266" xlink:href="#r"/><use x="526.757812" xlink:href="#DejaVuSans-20"/><use x="558.544922" xlink:href="#n"/><use x="618.945312" xlink:href="#g"/><use x="680.126953" xlink:href="#k"/><use x="735.107422" xlink:href="#p"/><use x="810.546875" xlink:href="#g"/><use x="871.728516" xlink:href="#k"/><use x="926.708984" xlink:href="#f"/></g><path d="m61.958 579.64h0.003084v29.484h1.034v-29.484l4.73e-4 29.484h3.415v-29.484l4.81e-4 29.484h0.69836v-29.484l0.046723 29.484h8.7628v-29.484l0.00911 29.484h4.1173v-29.484l0.009131 29.484h2.396v-29.484l3.19e-4 29.484h1.0951l0.043555-58.968h0.13082l2.16e-4 58.968h2.1861v-29.484l0.017061 29.484h4.7029v-29.484l3e-4 29.484h5.2292v-29.484l0.063525 29.484h1.2668l0.084222-58.968h0.13092l0.005058 58.968h0.36629v-29.484l3.22e-4 29.484h0.97744v-29.484l3.52e-4 29.484h1.5092v-29.484l3.44e-4 29.484h18.501v-88.452l0.044936 88.452h6.9265v-58.968l0.048182 58.968h0.18756v-58.968l0.009021 58.968h3.1901v-58.968h0.18122v58.968h0.97731v-29.484l3.25e-4 29.484h1.8669v-29.484l8.6e-4 29.484h0.4795v-58.968h0.35328v58.968h1.3401v-29.484l3.68e-4 29.484h0.7151v-29.484l2.92e-4 29.484h2.2641v-58.968h0.47764v-58.968l0.047844 58.968h0.086239v58.968h3.9129v-58.968l0.019783 58.968h3.483v-58.968h0.13387v58.968h1.8807v-58.968h0.13097v58.968h2.3419v-58.968h0.13191v58.968h2.101v-29.484l3.31e-4 29.484h0.44261v-58.968h0.175v58.968h7.0265v-29.484l0.049587 29.484h7.8408v-29.484l3.11e-4 29.484h1.291v-29.484l1.5e-4 29.484h12.43v-29.484l2.9e-4 29.484h2.2627v-88.452h0.48139v88.452h0.17278v-29.484h0.1755v29.484h2.3194v-88.452h0.27203v88.452h0.78391l0.043638-117.94h0.088384l0.04652 117.94h1.9689v-88.452h0.44598v88.452h2.9307v-88.452h0.35539v88.452h2.2587v-88.452h0.36141v88.452h3.4979l0.087252-206.39h0.13242l0.0875 206.39h1.2124v-88.452h0.45263v88.452h6.1254v-88.452h0.26444v88.452h2.0001v-58.968h0.7864v58.968h10.053v-88.452h0.39975v88.452h3.2028v-88.452l0.088385 88.452h1.875v-88.452h1.0554v88.452h1.1811v-88.452h0.54624v88.452h11.23v-88.452h0.49194v88.452h9.9216v-88.452h0.55858v88.452h6.9605v-88.452h1.245v88.452h1.5939v-88.452h2.6408v88.452l0.070266-58.968h0.087449v58.968h2.1362v-88.452h1.4172v-58.968h0.34959v58.968h1.966v88.452h6.4461v-58.968h0.69855v58.968h1.7017v-58.968l0.089197 58.968h4.2439v-58.968h0.26349v58.968h1.4908v-58.968h1.3126v58.968h2.4426v-58.968l6.62e-4 58.968h2.1826v-58.968h2.3045l0.013879-147.42h0.24983v58.968h0.15258l0.075865 147.42h15.362v-58.968h2.1879v58.968h0.96087v-58.968h0.35134v58.968h0.95107v-58.968l0.089024 58.968h5.0599v-58.968h0.78723v58.968h10.024v-58.968l0.090201 58.968h2.6607v-58.968h1.3973v-58.968h0.26458v58.968h2.006v-58.968h0.35208v58.968h0.26198v58.968h4.0579v-58.968h0.524v-58.968h0.35167v58.968h2.3118v-58.968h0.34939v58.968h2.6635v58.968h5.1087v-58.968h1.9646v-58.968l0.087004 58.968h5.7213v58.968h10.394v-58.968h2.096v-58.968h0.34929v58.968l0.087375-58.968h0.17454v58.968h1.965v-58.968h0.34918v58.968h2.1834v-58.968h0.34922v58.968h0.65491v58.968h2.0956v-88.452h0.56832v88.452h4.1034v-58.968h0.43666v-58.968h0.34918v58.968h0.57792v-58.968l0.10056 58.968h1.3303v-58.968h0.34917v58.968h0.17514v58.968h7.5544v-58.968l0.10033 58.968h5.6745v-58.968h0.35543v58.968h1.9427v-58.968h1.8773v-88.452h0.13046v-58.968h0.22084l0.092182 147.42h2.0448v-88.452h0.35135v88.452h3.3701v-117.94h0.2262v117.94h1.0741v58.968h5.1062v-117.94h0.22278v117.94h0.47794v-88.452l0.08937 88.452h2.5278v-147.42h0.2709v147.42h0.12445v-58.968h2.8373v-147.42h0.26858v147.42h3.5312v58.968h0.2147v-176.9h0.45852v176.9h2.5114v-147.42h0.22043v-88.452h0.13349v147.42h2.311v-88.452h0.13475v-147.42h0.21622l0.094043 235.87h4.2265v-88.452h0.52412v88.452h1.4207v-176.9h0.26819v176.9h1.1941v88.452h0.13343v-206.39h0.36526v206.39h1.1469v-147.42h0.35482v147.42h3.0788v-147.42h0.13611v147.42h3.3171v-206.39h0.31073v206.39h0.44804v-206.39h0.31114v206.39h1.3591v-58.968h0.49755v-206.39h0.31392v206.39h1.5688v-206.39h0.35298v206.39h0.91635v-147.42h0.31512v147.42h0.62061v-88.452h0.39454v58.968h0.32085v-147.42h0.18087v147.42h1.0214v-235.87h0.31226v235.87h0.65277v88.452h0.2479v-206.39h0.30547v206.39h1.7586v-206.39h0.27028v206.39h2.3955v-58.968h5.5513v58.968h9.0765v-58.968h7.3802v-88.452h0.35358v88.452h6.414v-88.452h0.35153v88.452h7.1589v-88.452h0.43699v88.452h3.2312v-88.452h0.39311v58.968h1.0044v-147.42h0.1795v147.42h2.3967v-88.452h0.26402v-147.42h0.19447v147.42h0.64089v88.452h3.6509v-147.42h0.2214v147.42h1.7549v88.452h0.34014v-147.42h0.17938v147.42h4.0726v-147.42h0.22391v147.42h1.0363v-58.968h1.9009v-147.42h0.22142v147.42h1.3468v-147.42h0.22226v147.42h1.8876v-147.42h0.48298v147.42h0.97087v-58.968h0.35221v58.968h0.40568v-147.42h0.19671v147.42h2.2546v-147.42h0.2244v147.42h4.1666v-58.968h0.35163v58.968h2.5836v-147.42h0.18165v147.42h1.617v-147.42h0.21818v147.42h0.50536l0.002607-294.84h0.35142l0.043976 294.84h5.1229v-147.42h0.26562v147.42h0.75059v-206.39h0.36892v206.39h0.52166v-88.452h0.35016v88.452h0.45029v-206.39h0.40384v206.39h2.175v-147.42h0.3948v147.42h1.4411v-147.42h0.23771v147.42h0.61869v-88.452h0.35197v88.452h2.0346v-176.9h0.30873v176.9h2.2951v-206.39h0.35759v206.39h2.0776v-88.452h0.31516v-206.39l0.036311 88.452h0.35997v206.39h1.5771v-206.39h0.39468v206.39h1.7676v-206.39h0.61342v206.39h0.78909v-88.452h0.19208v-206.39h0.3539l0.066406 294.84h1.4901v-206.39h0.35252v206.39h1.429v-176.9h0.43843v176.9h1.3754v-147.42h0.32444v147.42h1.5419v-147.42h0.26579v147.42h0.20787v-58.968h0.35128v58.968h2.9342v-147.42h0.41105v147.42h0.40564v-206.39h0.44349v206.39h2.0403v-176.9h0.44364v176.9l0.003106-88.452h0.91808v88.452h2.3187v-147.42h0.43704v147.42h1.1675v-206.39h0.62213v206.39h1.3663v-206.39h0.48107v206.39h1.1633v-88.452h0.26315v58.968h0.89535v-176.9h0.36852v176.9h0.92255v-147.42h0.62041v147.42h0.97318v-176.9h0.49929v176.9h3.1892v-58.968h0.31883v-206.39l0.032987 58.968h0.62191v206.39h2.1534v-176.9h0.48635v176.9h0.42569v-176.9h0.1544v-88.452h0.34479v176.9h1.0214v-176.9l0.033884 88.452h0.45198v176.9h3.5784v-176.9h0.36726v176.9h0.83417v-206.39h0.5321v-88.452h0.20649v206.39h0.14486v88.452h4.3364v-206.39h0.43554v235.87h0.26422v-147.42h0.39661v147.42h1.904v-88.452h0.18901v-147.42h0.16233v58.968h0.31967v147.42h1.4253v-206.39h0.70663v206.39h0.31227v-147.42h0.36363v147.42h2.2958v-176.9h0.39601v176.9h1.4301l0.058718-265.36h0.29311v88.452h0.40574v206.39h0.56668v-176.9h0.40943v147.42h2.1706v-176.9h0.44532v176.9h0.9838v-206.39h0.75089v206.39h1.8221v-88.452h0.70019v88.452h0.624v-176.9h0.45022v176.9h2.4124v-147.42h0.78438v147.42h1.5944v-176.9h0.45321v176.9h0.84339l0.03472-294.84h0.4434v206.39h0.39636v88.452h1.4889v-206.39h0.17618v206.39h1.6239v-206.39h0.40956v206.39h1.696v-206.39h0.69714v206.39h0.85272l0.087127-235.87h0.30644v58.968h0.21992v176.9h1.6717v-206.39h0.4799v206.39h1.9501v-176.9h0.69681v176.9h2.1585v-206.39h0.29192v-88.452l0.099969 206.39h0.81898v88.452h2.5483v-206.39h0.70656v206.39h1.3433v-176.9h0.43652v206.39h2.7381v-88.452h0.52495v88.452h2.9124v-206.39h0.3955v206.39h1.1834v-176.9h0.52422v176.9h2.9318v-88.452h0.35147v58.968h3.924v-206.39h0.43525v206.39h2.0845v-147.42h0.21988v147.42h1.3716v88.452h5.0633v-206.39h0.35376v206.39h2.0312v-176.9h0.49896v176.9h1.8313v-58.968h2.008v-206.39h0.43698v206.39h0.789v58.968h3.7527v-206.39h0.52401v206.39h0.961v-206.39h0.5731v206.39h0.2866v-88.452h1.3679v-147.42h0.48103v147.42h2.5761v-147.42h0.5724v147.42h0.69419v-206.39h0.56961v206.39h1.3085v-206.39h0.37923v-88.452h0.14906v206.39h0.20264v88.452h2.9817v-147.42h0.56731v147.42h0.74299v-206.39h0.52776v206.39h2.6472v-88.452h0.4367v88.452h1.5864v-206.39h0.52477v206.39h3.2742v-206.39h0.48512v206.39h1.2198v-206.39h0.48058v206.39h0.24794v-88.452h0.43933v88.452h1.4091v-206.39h0.61542v206.39h4.8885v-176.9h0.48104v176.9h0.50972v-88.452h0.48275v88.452h0.62314v-206.39h0.6121v206.39h1.7691v-206.39h0.70755v206.39h3.7117v-58.968h0.35191v88.452h7.2813v-29.484l0.039567 29.484h0.10224v-88.452h0.43862v88.452h7.7286v-88.452h0.48272v88.452h2.3364v-29.484l7.4e-4 29.484h4.4409v-29.484l7.46e-4 29.484h0.22067v-29.484l7.38e-4 29.484h0.42169v-88.452h0.43944v88.452h7.6833v-88.452h0.43923v88.452h4.1163v-206.39h0.61719v206.39h2.3384v-88.452h0.43901v88.452l0.04411-58.968h0.21381v58.968h7.2943v-88.452h0.43908v88.452h3.8541v-206.39h0.56737v176.9h2.4019v-176.9h0.37915v-88.452h0.14472v176.9h0.33839v88.452h3.1986v-206.39h0.5713v206.39h4.6982v-88.452h0.61249v88.452h2.1523v-206.39h0.6147v206.39h2.0924v-206.39h0.5661v206.39h2.2147v-88.452h0.48337v88.452l0.09815-206.39h0.67056v206.39h4.089v-206.39h0.5669v206.39h0.87405v-206.39h0.6998v206.39h0.55258v-88.452h0.48336v88.452h1.8884v-206.39h0.61105v206.39h4.5704v-88.452h0.12668v88.452h0.61693v-88.452h0.52661v88.452h0.97205v-206.39h0.70407v206.39h4.6674v-206.39h0.46648v-88.452l0.10252 206.39h0.46636v88.452h1.4855v-206.39h0.57293v206.39h0.12385v-88.452h2.1973v-206.39h0.69715v206.39h1.2679v-206.39h0.616v206.39h0.81115v-88.452h0.48348v88.452h1.6264v-176.9h0.47976v206.39h0.1638v88.452h0.87082v-88.452h2.1971v-176.9h0.61084v176.9h1.0364v58.968h0.69701v-88.452h0.14485v-206.39h0.67131v206.39h1.0755v-176.9h0.52268v176.9h0.29349v88.452h0.61097v-88.452h4.4999v88.452h0.56585v-88.452h2.1865v88.452h0.8704v-88.452h3.1582v-176.9h0.5682v176.9h0.29411v88.452h0.87046v-88.452h1.8479v-176.9h0.33586v88.452h0.36294v176.9h0.29169v-88.452h1.368v-117.94h0.56709v117.94h2.5204v88.452h2.6206v-88.452h0.35192v88.452h1.308v-88.452h5.6817v88.452h0.78322v-88.452h1.4352v-88.452h0.56144l0.10031 176.9h0.61142v-88.452h2.8427v88.452h1.6135v-88.452h1.1825v88.452h1.3514v-88.452h3.8468v88.452h0.56552v-88.452h2.0536v88.452h0.65507v-88.452h0.60159v-88.452h0.64854v88.452h3.4249v88.452h0.65506v-88.452h1.8787v-88.452h0.17501v88.452h5.3303v88.452h0.65485v-88.452h2.1848v88.452h0.65504v-88.452h4.675v88.452h0.65511v-88.452h2.0125v88.452h0.60886v-88.452h4.8058v88.452h0.6987v-88.452h3.3641v88.452h1.8344v-88.452h1.8349v-88.452h0.43713v88.452h4.0198v88.452h0.17365v-88.452h3.4517v88.452h0.74205v-88.452h4.0632v88.452h0.82966v-88.452h2.7527v88.452h1.7732l0.1047-147.42h0.4809v88.452h0.82966v-88.452l0.01785 58.968h6.3606v88.452h0.4365v-58.968h1.9225v58.968h2.4898v-88.452h1.6167v88.452h0.43656v-88.452h4.1067v88.452h0.13086v-88.452h3.233v88.452h0.96077v-88.452h3.2769v88.452h0.13056v-88.452h5.3302v88.452h0.30518v-58.968l6.07e-4 58.968h2.3584v-88.452h0.45236v-58.968l4.36e-4 58.968h0.29015v88.452h2.8642v-88.452l4.67e-4 88.452h0.89207v-88.452h4.5439v88.452h1.1355v-88.452h2.9708v-88.452h0.34978v88.452h5.5924v88.452h2.7958v-88.452h0.35009v88.452h1.9357v-58.968h2.8412v58.968h3.2178v-88.452h0.35001v88.452h1.1057v-117.94h6.4085v-88.452h0.35012v88.452h0.27552v-117.94h0.39438v117.94h0.90391v-58.968l5.24e-4 58.968h1.1281v-88.452h1.0918v-176.9l4.7e-4 176.9h0.39509v-117.94l3.14e-4 117.94h2.5512v-117.94l0.054626 88.452h0.076874v117.94h0.72871v-88.452h0.3662v-117.94l0.091742 29.484h0.066986v88.452h1.0195v117.94l0.086069-117.94h1.2094v-88.452h0.14688v-176.9l3.11e-4 176.9h0.37757v88.452h3.9316v-88.452h0.5247v88.452l0.049019-176.9 3.07e-4 176.9h0.35742v-117.94h0.33059v88.452h0.42774v117.94l0.071764-117.94h0.39384v117.94h1.304v-176.9l0.024642 88.452h2.6853v-176.9l3.15e-4 176.9h2.1313v-88.452h0.3498v88.452h0.27584v-117.94h0.40876v117.94h2.0322v-88.452h0.21652v88.452h3.8959v-117.94h0.43756v117.94h3.145v-117.94h0.16796v-176.9l0.010656 176.9" clip-path="url(#b)" fill="none" stroke="#00f" stroke-linecap="square" stroke-width=".9"/><path d="m55.296 609.12v-589.68" fill="none" stroke="#000" stroke-linecap="square" stroke-width=".8"/><path d="m1082.9 609.12v-589.68" fill="none" stroke="#000" stroke-linecap="square" stroke-width=".8"/><path d="m55.296 609.12h1027.6" fill="none" stroke="#000" stroke-linecap="square" stroke-width=".8"/><path d="m55.296 19.44h1027.6" fill="none" stroke="#000" stroke-linecap="square" stroke-width=".8"/><g transform="translate(209.59 13.44) scale(.12 -.12)"><defs><path id="an" transform="scale(.015625)" d="m4184 4666v-4666h-631v4134h-2294v-4134h-631v4666h3556z"/><path id="ad" transform="scale(.015625)" d="m3603 3500v-3500h-578v3041h-1866v-3041h-578v3500h3022z"/><path id="m" transform="scale(.015625)" d="m3578 3500v-3500h-572v2809l-1687-2809h-738v3500h572v-2803l1685 2803h740z"/><path id="ah" transform="scale(.015625)" d="m2781 1038q0 281-205 428-204 147-598 147h-819v-1154h819q394 0 598 148 205 149 205 431zm-2200 2462h578v-1428h844q669 0 1030-255 361-254 361-779t-361-782q-361-256-1030-256h-1422v3500z"/><path id="ac" transform="scale(.015625)" d="m2625 0v1472h-1072q-478 0-797 297-287 269-287 844v887h575v-834q0-366 162-550 166-185 491-185h928v1569h575v-3500h-575z"/><path id="t" transform="scale(.015625)" d="m581 3500h578v-1428h1866v1428h578v-3500h-578v1613h-1866v-1613h-578v3500z"/><path id="z" transform="scale(.015625)" d="m2194 1759q-697 0-966-159t-269-544q0-306 202-486 202-179 548-179 479 0 768 339t289 901v128h-572zm1147 238v-1997h-575v531q-197-318-491-470t-719-152q-537 0-855 302-317 302-317 808 0 590 395 890 396 300 1180 300h807v57q0 397-261 614t-733 217q-300 0-585-72-284-72-546-216v532q315 122 612 182 297 61 578 61 760 0 1135-394 375-393 375-1193z"/><path id="al" transform="scale(.015625)" d="m2206 1888q388-75 603-304 216-228 216-565 0-541-403-826-403-284-1147-284-250 0-514 44t-545 131v535q222-116 487-174 266-57 556-57 472 0 736 175t264 456q0 275-234 442t-662 167h-463v475h484q363 0 574 139t211 358q0 200-218 344-217 144-588 144-222 0-474-41-251-41-555-131v522q307 75 572 112 266 38 503 38 613 0 967-246 355-245 355-686 0-290-188-492-187-201-537-276z"/><path id="ab" transform="scale(.015625)" d="m684 794h660v-794h-660v794z"/><path id="ap" transform="scale(.015625)" d="m263 0v531q678 147 871 660 272 806 272 2681v794h2775v-4666h-631v4134h-1516v-575q0-1768-318-2593-307-791-1453-966z"/><path id="ag" transform="scale(.015625)" d="m3431 3097q-462 0-731-361t-269-989 267-989q268-361 733-361 460 0 728 362 269 363 269 988 0 622-269 986-268 364-728 364zm-1587-994q59 594 448 1037 389 444 1139 444t1178-488q429-487 429-1349 0-859-429-1349-428-489-1178-489-753 0-1164 472t-439 1247h-650v-1628h-575v3500h575v-1397h666z"/><path id="ar" transform="scale(.015625)" d="m313 2009h1684v-512h-1684v512z"/><path id="aj" transform="scale(.015625)" d="m188 3500h3353v-459h-1394v-3041h-566v3041h-1393v459z"/><path id="ao" transform="scale(.015625)" d="m628 4666h941l1190-3175 1197 3175h941v-4666h-616v4097l-1203-3200h-634l-1203 3200v-4097h-613v4666z"/><path id="ak" transform="scale(.015625)" d="m3578 3500v-3500h-572v2809l-1687-2809h-738v3500h572v-2803l1685 2803h740zm-2476 1333h369q34-234 185-352 152-117 424-117 269 0 419 116t190 353h369q-31-447-278-672t-700-225-700 225-278 672z"/></defs><use xlink:href="#an"/><use x="75.195312" xlink:href="#f"/><use x="136.71875" xlink:href="#w"/><use x="200.195312" xlink:href="#f"/><use x="261.71875" xlink:href="#ad"/><use x="327.099609" xlink:href="#m"/><use x="392.089844" xlink:href="#k"/><use x="447.070312" xlink:href="#ah"/><use x="506.005859" xlink:href="#DejaVuSans-20"/><use x="537.792969" xlink:href="#n"/><use x="598.193359" xlink:href="#g"/><use x="659.375" xlink:href="#k"/><use x="714.355469" xlink:href="#p"/><use x="789.794922" xlink:href="#m"/><use x="854.785156" xlink:href="#ac"/><use x="913.867188" xlink:href="#f"/><use x="975.390625" xlink:href="#k"/><use x="1030.371094" xlink:href="#n"/><use x="1090.771484" xlink:href="#g"/><use x="1151.953125" xlink:href="#y"/><use x="1204.492188" xlink:href="#g"/><use x="1265.673828" xlink:href="#DejaVuSans-20"/><use x="1297.460938" xlink:href="#t"/><use x="1362.841797" xlink:href="#z"/><use x="1424.121094" xlink:href="#k"/><use x="1479.101562" xlink:href="#f"/><use x="1540.625" xlink:href="#q"/><use x="1604.541016" xlink:href="#f"/><use x="1666.064453" xlink:href="#t"/><use x="1731.445312" xlink:href="#m"/><use x="1796.435547" xlink:href="#v"/><use x="1856.591797" xlink:href="#af"/><use x="1888.378906" xlink:href="#DejaVuSans-20"/><use x="1920.166016" xlink:href="#o"/><use x="1983.789062" xlink:href="#u"/><use x="2047.412109" xlink:href="#i"/><use x="2111.035156" xlink:href="#DejaVuSans-20"/><use x="2142.822266" xlink:href="#m"/><use x="2207.8125" xlink:href="#al"/><use x="2260.986328" xlink:href="#p"/><use x="2336.425781" xlink:href="#f"/><use x="2397.949219" xlink:href="#t"/><use x="2463.330078" xlink:href="#f"/><use x="2524.853516" xlink:href="#t"/><use x="2590.234375" xlink:href="#m"/><use x="2655.224609" xlink:href="#v"/><use x="2715.380859" xlink:href="#ab"/><use x="2747.167969" xlink:href="#DejaVuSans-20"/><use x="2778.955078" xlink:href="#ap"/><use x="2854.150391" xlink:href="#ag"/><use x="2938.330078" xlink:href="#x"/><use x="3007.470703" xlink:href="#m"/><use x="3072.460938" xlink:href="#DejaVuSans-20"/><use x="3104.248047" xlink:href="#ad"/><use x="3169.628906" xlink:href="#w"/><use x="3233.105469" xlink:href="#g"/><use x="3294.287109" xlink:href="#r"/><use x="3353.222656" xlink:href="#f"/><use x="3414.746094" xlink:href="#q"/><use x="3478.662109" xlink:href="#m"/><use x="3543.652344" xlink:href="#DejaVuSans-20"/><use x="3575.439453" xlink:href="#r"/><use x="3634.375" xlink:href="#DejaVuSans-20"/><use x="3666.162109" xlink:href="#n"/><use x="3726.5625" xlink:href="#g"/><use x="3787.744141" xlink:href="#k"/><use x="3842.724609" xlink:href="#p"/><use x="3918.164062" xlink:href="#g"/><use x="3979.345703" xlink:href="#k"/><use x="4034.326172" xlink:href="#f"/><use x="4095.849609" xlink:href="#DejaVuSans-20"/><use x="4127.636719" xlink:href="#c"/><use x="4191.259766" xlink:href="#o"/><use x="4254.882812" xlink:href="#s"/><use x="4318.505859" xlink:href="#ab"/><use x="4350.292969" xlink:href="#e"/><use x="4413.916016" xlink:href="#DejaVuSans-20"/><use x="4445.703125" xlink:href="#ac"/><use x="4504.785156" xlink:href="#f"/><use x="4566.308594" xlink:href="#q"/><use x="4630.224609" xlink:href="#g"/><use x="4691.40625" xlink:href="#r"/><use x="4750.341797" xlink:href="#f"/><use x="4811.865234" xlink:href="#n"/><use x="4872.265625" xlink:href="#g"/><use x="4933.447266" xlink:href="#ar"/><use x="4969.53125" xlink:href="#q"/><use x="5033.447266" xlink:href="#f"/><use x="5094.970703" xlink:href="#aj"/><use x="5153.222656" xlink:href="#ab"/><use x="5185.009766" xlink:href="#DejaVuSans-20"/><use x="5216.796875" xlink:href="#ao"/><use x="5303.076172" xlink:href="#z"/><use x="5364.355469" xlink:href="#ak"/><use x="5429.345703" xlink:href="#DejaVuSans-20"/><use x="5461.132812" xlink:href="#i"/><use x="5524.755859" xlink:href="#e"/><use x="5588.378906" xlink:href="#i"/><use x="5652.001953" xlink:href="#u"/><use x="5715.625" xlink:href="#DejaVuSans-20"/><use x="5747.412109" xlink:href="#y"/><use x="5799.951172" xlink:href="#g"/><use x="5861.132812" xlink:href="#x"/><use x="5930.273438" xlink:href="#z"/></g><defs><clipPath id="b"><rect x="55.296" y="19.44" width="1027.6" height="589.68"/></clipPath></defs></svg>
