<?xml version="1.0" encoding="UTF-8"?>
<!DOCTYPE svg  PUBLIC '-//W3C//DTD SVG 1.1//EN'  'http://www.w3.org/Graphics/SVG/1.1/DTD/svg11.dtd'>
<svg height="648pt" stroke-linejoin="round" viewBox="0 0 1152 648" width="1152pt" xmlns="http://www.w3.org/2000/svg" xmlns:xlink="http://www.w3.org/1999/xlink"><defs stroke-linejoin="round"><clipPath id="a" stroke-linejoin="round"><path d="m55.296 19.44h1085.2v589.68h-1085.2z"/></clipPath><path id="b" d="m0 0v3.5" stroke="#000" stroke-linejoin="round" stroke-width=".8"/><path id="c" d="m12.406 8.2969h16.109v55.625l-17.531-3.5156v8.9844l17.438 3.5156h9.8594v-64.609h16.109v-8.2969h-41.984z" stroke-linejoin="round"/><path id="d" d="m10.984 1.5156v8.9844q3.7188-1.7656 7.5156-2.6875 3.8125-.92188 7.4844-.92188 9.7656 0 14.906 6.5625 5.1562 6.5625 5.8906 19.953-2.8281-4.2031-7.1875-6.4531-4.3438-2.25-9.6094-2.25-10.938 0-17.312 6.6094-6.375 6.625-6.375 18.109 0 11.219 6.6406 18 6.6406 6.7969 17.672 6.7969 12.656 0 19.312-9.7031 6.6719-9.6875 6.6719-28.141 0-17.234-8.1875-27.516-8.1719-10.281-21.984-10.281-3.7188 0-7.5312.73438-3.7969.73438-7.9062 2.2031zm19.625 30.906q6.6406 0 10.516 4.5312 3.8906 4.5469 3.8906 12.469 0 7.8594-3.8906 12.422-3.875 4.5625-10.516 4.5625t-10.516-4.5625-3.875-12.422q0-7.9219 3.875-12.469 3.875-4.5312 10.516-4.5312z" stroke-linejoin="round"/><path id="e" d="m33.016 40.375q-6.6406 0-10.531-4.5469-3.875-4.5312-3.875-12.438 0-7.8594 3.875-12.438 3.8906-4.5625 10.531-4.5625t10.516 4.5625q3.875 4.5781 3.875 12.438 0 7.9062-3.875 12.438-3.875 4.5469-10.516 4.5469zm19.578 30.922v-8.9844q-3.7188 1.75-7.5 2.6719-3.7812.9375-7.5.9375-9.7656 0-14.922-6.5938-5.1406-6.5938-5.875-19.922 2.875 4.25 7.2188 6.5156 4.3594 2.2656 9.5781 2.2656 10.984 0 17.359-6.6719 6.375-6.6562 6.375-18.125 0-11.234-6.6406-18.031-6.6406-6.7812-17.672-6.7812-12.656 0-19.344 9.6875-6.6875 9.7031-6.6875 28.109 0 17.281 8.2031 27.562t22.016 10.281q3.7188 0 7.5-.73438t7.8906-2.1875z" stroke-linejoin="round"/><path id="f" d="m31.781 34.625q-7.0312 0-11.062-3.7656-4.0156-3.7656-4.0156-10.344 0-6.5938 4.0156-10.359 4.0312-3.7656 11.062-3.7656t11.078 3.7812q4.0625 3.7969 4.0625 10.344 0 6.5781-4.0312 10.344-4.0156 3.7656-11.109 3.7656zm-9.8594 4.1875q-6.3438 1.5625-9.8906 5.9062-3.5312 4.3594-3.5312 10.609 0 8.7344 6.2188 13.812 6.2344 5.0781 17.062 5.0781 10.891 0 17.094-5.0781t6.2031-13.812q0-6.25-3.5469-10.609-3.5312-4.3438-9.8281-5.9062 7.125-1.6562 11.094-6.5 3.9844-4.8281 3.9844-11.797 0-10.609-6.4688-16.281-6.4688-5.6562-18.531-5.6562-12.047 0-18.531 5.6562-6.4688 5.6719-6.4688 16.281 0 6.9688 4 11.797 4.0156 4.8438 11.141 6.5zm-3.6094 15.578q0-5.6562 3.5312-8.8281 3.5469-3.1719 9.9375-3.1719 6.3594 0 9.9375 3.1719 3.5938 3.1719 3.5938 8.8281 0 5.6719-3.5938 8.8438-3.5781 3.1719-9.9375 3.1719-6.3906 0-9.9375-3.1719-3.5312-3.1719-3.5312-8.8438z" stroke-linejoin="round"/><path id="g" d="m19.188 8.2969h34.422v-8.2969h-46.281v8.2969q5.6094 5.8125 15.297 15.594 9.7031 9.7969 12.188 12.641 4.7344 5.3125 6.6094 9 1.8906 3.6875 1.8906 7.25 0 5.8125-4.0781 9.4688-4.0781 3.6719-10.625 3.6719-4.6406 0-9.7969-1.6094-5.1406-1.6094-11-4.8906v9.9688q5.9531 2.3906 11.125 3.6094 5.1875 1.2188 9.4844 1.2188 11.328 0 18.062-5.6719 6.7344-5.6562 6.7344-15.125 0-4.5-1.6875-8.5312-1.6719-4.0156-6.125-9.4844-1.2188-1.4219-7.7656-8.1875-6.5312-6.7656-18.453-18.922z" stroke-linejoin="round"/><path id="h" d="m31.781 66.406q-7.6094 0-11.453-7.5-3.8281-7.4844-3.8281-22.531 0-14.984 3.8281-22.484 3.8438-7.5 11.453-7.5 7.6719 0 11.5 7.5 3.8438 7.5 3.8438 22.484 0 15.047-3.8438 22.531-3.8281 7.5-11.5 7.5zm0 7.8125q12.266 0 18.734-9.7031 6.4688-9.6875 6.4688-28.141 0-18.406-6.4688-28.109-6.4688-9.6875-18.734-9.6875-12.25 0-18.719 9.6875-6.4688 9.7031-6.4688 28.109 0 18.453 6.4688 28.141 6.4688 9.7031 18.719 9.7031z" stroke-linejoin="round"/><path id="i" d="m37.797 64.312-24.906-38.922h24.906zm-2.5938 8.5938h12.406v-47.516h10.406v-8.2031h-10.406v-17.188h-9.8125v17.188h-32.906v9.5156z" stroke-linejoin="round"/><path id="j" d="m0 0v2" stroke="#000" stroke-linejoin="round" stroke-width=".6"/><path id="k" d="m18.109 8.2031v-29h-9.0312v75.484h9.0312v-8.2969q2.8438 4.875 7.1562 7.2344 4.3281 2.375 10.328 2.375 9.9688 0 16.188-7.9062 6.2344-7.9062 6.2344-20.797t-6.2344-20.812q-6.2188-7.9062-16.188-7.9062-6 0-10.328 2.375-4.3125 2.375-7.1562 7.25zm30.578 19.094q0 9.9062-4.0781 15.547t-11.203 5.6406q-7.1406 0-11.219-5.6406t-4.0781-15.547 4.0781-15.547 11.219-5.6406q7.125 0 11.203 5.6406t4.0781 15.547z" stroke-linejoin="round"/><path id="l" d="m56.203 29.594v-4.3906h-41.312q.59375-9.2812 5.5938-14.141t13.938-4.8594q5.1719 0 10.031 1.2656t9.6562 3.8125v-8.5q-4.8438-2.0469-9.9219-3.125t-10.297-1.0781q-13.094 0-20.734 7.6094-7.6406 7.625-7.6406 20.625 0 13.422 7.25 21.297 7.25 7.8906 19.562 7.8906 11.031 0 17.453-7.1094 6.4219-7.0938 6.4219-19.297zm-8.9844 2.6406q-.09375 7.3594-4.125 11.75-4.0312 4.4062-10.672 4.4062-7.5156 0-12.031-4.25t-5.2031-11.969z" stroke-linejoin="round"/><path id="m" d="m9.0781 54.688h13.141l15.531-36.625 15.578 36.625h13.031v-54.688h-9.0312v46.094l-15.094-35.594h-8.9844l-15.141 35.594v-46.094h-9.0312z" stroke-linejoin="round"/><path id="n" d="m18.453 38.922q0-4.0625 3.125-6.3594 3.125-2.2812 8.9375-2.2812h12.109v17.234h-12.109q-5.8125 0-8.9375-2.25t-3.125-6.3438zm-12.781-38.922 16.688 23.969q-5.6562 1.2812-9.4219 4.625-3.75 3.3438-3.75 10.328 0 7.9062 5.2344 11.828 5.25 3.9375 15.859 3.9375h21.375v-54.688h-9.0312v23.094h-11.172l-16.125-23.094z" stroke-linejoin="round"/><path id="o" d="m11.719 12.406h10.297v-8.4062l-8-15.625h-6.2969l4 15.625z" stroke-linejoin="round"/><path id="p" d="m9.0781 0v54.688h38.578v-7.1719h-29.547v-47.516z" stroke-linejoin="round"/><path id="q" d="m30.609 48.391q-7.2188 0-11.422-5.6406t-4.2031-15.453 4.1719-15.453q4.1875-5.6406 11.453-5.6406 7.1875 0 11.375 5.6562 4.2031 5.6719 4.2031 15.438 0 9.7188-4.2031 15.406-4.1875 5.6875-11.375 5.6875zm0 7.6094q11.719 0 18.406-7.625 6.7031-7.6094 6.7031-21.078 0-13.422-6.7031-21.078-6.6875-7.6406-18.406-7.6406-11.766 0-18.438 7.6406-6.6562 7.6562-6.6562 21.078 0 13.469 6.6562 21.078 6.6719 7.625 18.438 7.625z" stroke-linejoin="round"/><path id="r" d="m21.625 7.1719h26.078v40.344h-18.891v-6.8438q0-20.109-5.7656-30.859zm-13.031 0q4.4375 1.9531 6.3906 6.1094 4.7969 10.297 4.7969 31.062v10.344h36.953v-47.516h7.1875v-20.984h-7.1875v13.812h-44.328v-13.812h-7.1875v20.984z" stroke-linejoin="round"/><path id="s" d="m0 0h-3.5" stroke="#000" stroke-linejoin="round" stroke-width=".8"/><path id="t" d="m40.578 39.312q7.0781-1.5156 11.047-6.3125 3.9844-4.7812 3.9844-11.812 0-10.781-7.4219-16.703-7.4219-5.9062-21.094-5.9062-4.5781 0-9.4375.90625t-10.031 2.7188v9.5156q4.0938-2.3906 8.9688-3.6094 4.8906-1.2188 10.219-1.2188 9.2656 0 14.125 3.6562t4.8594 10.641q0 6.4531-4.5156 10.078-4.5156 3.6406-12.562 3.6406h-8.5v8.1094h8.8906q7.2656 0 11.125 2.9062t3.8594 8.375q0 5.6094-3.9844 8.6094-3.9688 3.0156-11.391 3.0156-4.0625 0-8.7031-.89062-4.6406-.875-10.203-2.7188v8.7812q5.625 1.5625 10.531 2.3438t9.25.78125q11.234 0 17.766-5.1094 6.5469-5.0938 6.5469-13.781 0-6.0625-3.4688-10.234t-9.8594-5.7812z" stroke-linejoin="round"/><path id="u" d="m10.797 72.906h38.719v-8.3125h-29.688v-17.859q2.1406.73438 4.2812 1.0938 2.1562.35938 4.3125.35938 12.203 0 19.328-6.6875 7.1406-6.6875 7.1406-18.109 0-11.766-7.3281-18.297-7.3281-6.5156-20.656-6.5156-4.5938 0-9.3594.78125-4.75.78125-9.8281 2.3438v9.9219q4.3906-2.3906 9.0781-3.5625t9.9062-1.1719q8.4531 0 13.375 4.4375 4.9375 4.4375 4.9375 12.062 0 7.6094-4.9375 12.047-4.9219 4.4531-13.375 4.4531-3.9531 0-7.8906-.875-3.9219-.875-8.0156-2.7344z" stroke-linejoin="round"/><path id="v" d="m8.2031 72.906h46.875v-4.2031l-26.469-68.703h-10.297l24.906 64.594h-35.016z" stroke-linejoin="round"/><path id="w" d="m3.7188 0v7.4688q8.875 1.375 11.609 7.5156 3.3281 8.6562 3.3281 30.766v8.9375h36.953v-54.688h-8.9844v47.516h-18.984v-5.4219q0-21.094-4.2969-30.562-4.5938-10.109-19.625-11.531z" stroke-linejoin="round"/><path id="x" d="m18.062 25.203v-18.031h12.797q6.1562 0 9.375 2.3125 3.2188 2.3281 3.2188 6.7344 0 4.3906-3.2188 6.6875t-9.375 2.2969zm0 22.312v-15.141h11.828q5.0781 0 8.2969 2.0156 3.2188 2.0312 3.2188 5.6562 0 3.6094-3.2188 5.5312-3.2188 1.9375-8.2969 1.9375zm-8.9844 7.1719h21.391q9.625 0 14.797-3.5156t5.1719-10.016q0-5.0156-2.6406-7.9844-2.625-2.9531-7.8125-3.6719 6.2031-1.1719 9.625-4.8906 3.4219-3.7031 3.4219-9.2812 0-7.3125-5.6406-11.328-5.6406-4-16.094-4h-22.219z" stroke-linejoin="round"/><path id="y" d="m9.0781 54.688h8.9375v-25.688l25.344 25.688h11.031l-20.891-21.141 23.578-33.547h-10.062l-19.375 27.594-9.625-9.7656v-17.828h-8.9375z" stroke-linejoin="round"/><path id="z" d="m48.781 52.594v-8.4062q-3.8125 2.1094-7.6406 3.1562t-7.7344 1.0469q-8.75 0-13.594-5.5469-4.8281-5.5312-4.8281-15.547t4.8281-15.562q4.8438-5.5312 13.594-5.5312 3.9062 0 7.7344 1.0469t7.6406 3.1562v-8.3125q-3.7656-1.75-7.7969-2.625-4.0156-.89062-8.5625-.89062-12.359 0-19.641 7.7656-7.2656 7.7656-7.2656 20.953 0 13.375 7.3438 21.031 7.3594 7.6719 20.156 7.6719 4.1406 0 8.0938-.85938 3.9531-.84375 7.6719-2.5469z" stroke-linejoin="round"/><path id="A" d="m55.906 54.688v-54.688h-8.9375v43.891l-26.359-43.891h-11.531v54.688h8.9375v-43.797l26.328 43.797z" stroke-linejoin="round"/><path id="B" d="m43.453 16.219q0 4.3906-3.2031 6.6875-3.1875 2.2969-9.3438 2.2969h-12.797v-18.031h12.797q6.1562 0 9.3438 2.3125 3.2031 2.3281 3.2031 6.7344zm-34.375 38.469h9.0312v-22.312h13.188q10.453 0 16.094-3.9844 5.6406-3.9688 5.6406-12.172t-5.6406-12.219q-5.6406-4-16.094-4h-22.219z" stroke-linejoin="round"/><path id="C" d="m9.0781 54.688h9.0312v-22.312h29.156v22.312h9.0312v-54.688h-9.0312v25.203h-29.156v-25.203h-9.0312z" stroke-linejoin="round"/><path id="D" d="m34.281 27.484q-10.891 0-15.094-2.4844t-4.2031-8.5q0-4.7812 3.1562-7.5938 3.1562-2.7969 8.5625-2.7969 7.4844 0 12 5.2969t4.5156 14.078v2zm17.922 3.7188v-31.203h-8.9844v8.2969q-3.0781-4.9688-7.6719-7.3438t-11.234-2.375q-8.3906 0-13.359 4.7188-4.9531 4.7188-4.9531 12.625 0 9.2188 6.1719 13.906 6.1875 4.6875 18.438 4.6875h12.609v.89062q0 6.2031-4.0781 9.5938t-11.453 3.3906q-4.6875 0-9.1406-1.125-4.4375-1.125-8.5312-3.375v8.3125q4.9219 1.9062 9.5625 2.8438 4.6406.95312 9.0312.95312 11.875 0 17.734-6.1562 5.8594-6.1406 5.8594-18.641z" stroke-linejoin="round"/></defs><g stroke-linejoin="round"><path d="m0 648h1152v-648h-1152z" fill="#fff"/><path d="m55.296 609.12h1085.2v-589.68h-1085.2z" fill="#fff"/><path clip-path="url(#a)" d="m94.026 609.12v-589.68" fill="none" stroke="#b0b0b0" stroke-dasharray=".8 1.32" stroke-width=".8"/><use stroke="#000" stroke-width=".8" x="94.026044" xlink:href="#b" y="609.12"/><g transform="matrix(.1 0 0 -.1 81.301 623.72)"><use xlink:href="#c"/><use x="63.623047" xlink:href="#d"/><use x="127.246094" xlink:href="#d"/><use x="190.869141" xlink:href="#e"/></g><path clip-path="url(#a)" d="m171.59 609.12v-589.68" fill="none" stroke="#b0b0b0" stroke-dasharray=".8 1.32" stroke-width=".8"/><use stroke="#000" stroke-width=".8" x="171.592242" xlink:href="#b" y="609.12"/><g transform="matrix(.1 0 0 -.1 158.87 623.72)"><use xlink:href="#c"/><use x="63.623047" xlink:href="#d"/><use x="127.246094" xlink:href="#d"/><use x="190.869141" xlink:href="#f"/></g><path clip-path="url(#a)" d="m249.05 609.12v-589.68" fill="none" stroke="#b0b0b0" stroke-dasharray=".8 1.32" stroke-width=".8"/><use stroke="#000" stroke-width=".8" x="249.05233" xlink:href="#b" y="609.12"/><g transform="matrix(.1 0 0 -.1 236.33 623.72)"><use xlink:href="#g"/><use x="63.623047" xlink:href="#h"/><use x="127.246094" xlink:href="#h"/><use x="190.869141" xlink:href="#h"/></g><path clip-path="url(#a)" d="m326.62 609.12v-589.68" fill="none" stroke="#b0b0b0" stroke-dasharray=".8 1.32" stroke-width=".8"/><use stroke="#000" stroke-width=".8" x="326.618527" xlink:href="#b" y="609.12"/><g transform="matrix(.1 0 0 -.1 313.89 623.72)"><use xlink:href="#g"/><use x="63.623047" xlink:href="#h"/><use x="127.246094" xlink:href="#h"/><use x="190.869141" xlink:href="#g"/></g><path clip-path="url(#a)" d="m404.08 609.12v-589.68" fill="none" stroke="#b0b0b0" stroke-dasharray=".8 1.32" stroke-width=".8"/><use stroke="#000" stroke-width=".8" x="404.078615" xlink:href="#b" y="609.12"/><g transform="matrix(.1 0 0 -.1 391.35 623.72)"><use xlink:href="#g"/><use x="63.623047" xlink:href="#h"/><use x="127.246094" xlink:href="#h"/><use x="190.869141" xlink:href="#i"/></g><path clip-path="url(#a)" d="m481.64 609.12v-589.68" fill="none" stroke="#b0b0b0" stroke-dasharray=".8 1.32" stroke-width=".8"/><use stroke="#000" stroke-width=".8" x="481.644813" xlink:href="#b" y="609.12"/><g transform="matrix(.1 0 0 -.1 468.92 623.72)"><use xlink:href="#g"/><use x="63.623047" xlink:href="#h"/><use x="127.246094" xlink:href="#h"/><use x="190.869141" xlink:href="#e"/></g><path clip-path="url(#a)" d="m559.1 609.12v-589.68" fill="none" stroke="#b0b0b0" stroke-dasharray=".8 1.32" stroke-width=".8"/><use stroke="#000" stroke-width=".8" x="559.104901" xlink:href="#b" y="609.12"/><g transform="matrix(.1 0 0 -.1 546.38 623.72)"><use xlink:href="#g"/><use x="63.623047" xlink:href="#h"/><use x="127.246094" xlink:href="#h"/><use x="190.869141" xlink:href="#f"/></g><path clip-path="url(#a)" d="m636.67 609.12v-589.68" fill="none" stroke="#b0b0b0" stroke-dasharray=".8 1.32" stroke-width=".8"/><use stroke="#000" stroke-width=".8" x="636.671099" xlink:href="#b" y="609.12"/><g transform="matrix(.1 0 0 -.1 623.95 623.72)"><use xlink:href="#g"/><use x="63.623047" xlink:href="#h"/><use x="127.246094" xlink:href="#c"/><use x="190.869141" xlink:href="#h"/></g><path clip-path="url(#a)" d="m714.13 609.12v-589.68" fill="none" stroke="#b0b0b0" stroke-dasharray=".8 1.32" stroke-width=".8"/><use stroke="#000" stroke-width=".8" x="714.131187" xlink:href="#b" y="609.12"/><g transform="matrix(.1 0 0 -.1 701.41 623.72)"><use xlink:href="#g"/><use x="63.623047" xlink:href="#h"/><use x="127.246094" xlink:href="#c"/><use x="190.869141" xlink:href="#g"/></g><path clip-path="url(#a)" d="m791.7 609.12v-589.68" fill="none" stroke="#b0b0b0" stroke-dasharray=".8 1.32" stroke-width=".8"/><use stroke="#000" stroke-width=".8" x="791.697385" xlink:href="#b" y="609.12"/><g transform="matrix(.1 0 0 -.1 778.97 623.72)"><use xlink:href="#g"/><use x="63.623047" xlink:href="#h"/><use x="127.246094" xlink:href="#c"/><use x="190.869141" xlink:href="#i"/></g><path clip-path="url(#a)" d="m869.16 609.12v-589.68" fill="none" stroke="#b0b0b0" stroke-dasharray=".8 1.32" stroke-width=".8"/><use stroke="#000" stroke-width=".8" x="869.157473" xlink:href="#b" y="609.12"/><g transform="matrix(.1 0 0 -.1 856.43 623.72)"><use xlink:href="#g"/><use x="63.623047" xlink:href="#h"/><use x="127.246094" xlink:href="#c"/><use x="190.869141" xlink:href="#e"/></g><path clip-path="url(#a)" d="m946.72 609.12v-589.68" fill="none" stroke="#b0b0b0" stroke-dasharray=".8 1.32" stroke-width=".8"/><use stroke="#000" stroke-width=".8" x="946.72367" xlink:href="#b" y="609.12"/><g transform="matrix(.1 0 0 -.1 934 623.72)"><use xlink:href="#g"/><use x="63.623047" xlink:href="#h"/><use x="127.246094" xlink:href="#c"/><use x="190.869141" xlink:href="#f"/></g><path clip-path="url(#a)" d="m1024.2 609.12v-589.68" fill="none" stroke="#b0b0b0" stroke-dasharray=".8 1.32" stroke-width=".8"/><use stroke="#000" stroke-width=".8" x="1024.183758" xlink:href="#b" y="609.12"/><g transform="matrix(.1 0 0 -.1 1011.5 623.72)"><use xlink:href="#g"/><use x="63.623047" xlink:href="#h"/><use x="127.246094" xlink:href="#g"/><use x="190.869141" xlink:href="#h"/></g><path clip-path="url(#a)" d="m1101.7 609.12v-589.68" fill="none" stroke="#b0b0b0" stroke-dasharray=".8 1.32" stroke-width=".8"/><use stroke="#000" stroke-width=".8" x="1101.749956" xlink:href="#b" y="609.12"/><g transform="matrix(.1 0 0 -.1 1089 623.72)"><use xlink:href="#g"/><use x="63.623047" xlink:href="#h"/><use x="127.246094" xlink:href="#g"/><use x="190.869141" xlink:href="#g"/></g><g stroke="#000"><use stroke-width=".6" x="55.296" xlink:href="#j" y="609.12"/><use stroke-width=".6" x="132.862198" xlink:href="#j" y="609.12"/><use stroke-width=".6" x="210.322286" xlink:href="#j" y="609.12"/><use stroke-width=".6" x="287.888483" xlink:href="#j" y="609.12"/><use stroke-width=".6" x="365.348571" xlink:href="#j" y="609.12"/><use stroke-width=".6" x="442.914769" xlink:href="#j" y="609.12"/><use stroke-width=".6" x="520.374857" xlink:href="#j" y="609.12"/><use stroke-width=".6" x="597.941055" xlink:href="#j" y="609.12"/><use stroke-width=".6" x="675.401143" xlink:href="#j" y="609.12"/><use stroke-width=".6" x="752.967341" xlink:href="#j" y="609.12"/><use stroke-width=".6" x="830.427429" xlink:href="#j" y="609.12"/><use stroke-width=".6" x="907.993626" xlink:href="#j" y="609.12"/><use stroke-width=".6" x="985.453714" xlink:href="#j" y="609.12"/><use stroke-width=".6" x="1063.019912" xlink:href="#j" y="609.12"/><use stroke-width=".6" x="1140.48" xlink:href="#j" y="609.12"/></g><g transform="matrix(.14 0 0 -.14 552.07 640.44)"><path d="m19.672 34.812v-26.703h15.828q7.9531 0 11.781 3.2969 3.8438 3.2969 3.8438 10.078 0 6.8438-3.8438 10.078-3.8281 3.25-11.781 3.25zm0 29.984v-21.969h14.609q7.2188 0 10.75 2.7031 3.5469 2.7188 3.5469 8.2812 0 5.5156-3.5469 8.25-3.5312 2.7344-10.75 2.7344zm-9.8594 8.1094h25.203q11.281 0 17.375-4.6875 6.1094-4.6875 6.1094-13.328 0-6.7031-3.125-10.656t-9.1875-4.9219q7.2812-1.5625 11.312-6.5312 4.0312-4.9531 4.0312-12.375 0-9.7656-6.6406-15.094-6.6406-5.3125-18.906-5.3125h-26.172z"/><use x="68.603516" xlink:href="#k"/><use x="132.080078" xlink:href="#l"/><use x="193.603516" xlink:href="#m"/><use x="269.042969" xlink:href="#n"/><use x="329.199219" xlink:href="#o"/><use x="392.773438" xlink:href="#p"/><use x="445.3125" xlink:href="#q"/><use x="506.494141" xlink:href="#r"/><path d="m61.047 54.688h8.9844v-54.688h-8.9844zm-17.594-38.4685q0 4.3906-3.2031 6.6875-3.1875 2.2969-9.3438 2.2969h-12.797v-18.031h12.797q6.1562 0 9.3438 2.3125 3.2031 2.3281 3.2031 6.7344zm-34.375 38.469h9.0312v-22.312h13.188q10.453 0 16.094-3.9844 5.6406-3.9688 5.6406-12.172t-5.6406-12.219q-5.6406-4-16.094-4h-22.219z" transform="translate(575.634766)"/></g><path clip-path="url(#a)" d="m55.296 609.12h1085.2" fill="none" stroke="#b0b0b0" stroke-dasharray=".8 1.32" stroke-width=".8"/><use stroke="#000" stroke-width=".8" x="55.296" xlink:href="#s" y="609.12"/><use transform="matrix(.1 0 0 -.1 41.934 612.92)" xlink:href="#h"/><path clip-path="url(#a)" d="m55.296 579.64h1085.2" fill="none" stroke="#b0b0b0" stroke-dasharray=".8 1.32" stroke-width=".8"/><use stroke="#000" stroke-width=".8" x="55.296" xlink:href="#s" y="579.636"/><use transform="matrix(.1 0 0 -.1 41.934 583.44)" xlink:href="#c"/><path clip-path="url(#a)" d="m55.296 550.15h1085.2" fill="none" stroke="#b0b0b0" stroke-dasharray=".8 1.32" stroke-width=".8"/><use stroke="#000" stroke-width=".8" x="55.296" xlink:href="#s" y="550.152"/><use transform="matrix(.1 0 0 -.1 41.934 553.95)" xlink:href="#g"/><path clip-path="url(#a)" d="m55.296 520.67h1085.2" fill="none" stroke="#b0b0b0" stroke-dasharray=".8 1.32" stroke-width=".8"/><use stroke="#000" stroke-width=".8" x="55.296" xlink:href="#s" y="520.668"/><use transform="matrix(.1 0 0 -.1 41.934 524.47)" xlink:href="#t"/><path clip-path="url(#a)" d="m55.296 491.18h1085.2" fill="none" stroke="#b0b0b0" stroke-dasharray=".8 1.32" stroke-width=".8"/><use stroke="#000" stroke-width=".8" x="55.296" xlink:href="#s" y="491.184"/><use transform="matrix(.1 0 0 -.1 41.934 494.98)" xlink:href="#i"/><path clip-path="url(#a)" d="m55.296 461.7h1085.2" fill="none" stroke="#b0b0b0" stroke-dasharray=".8 1.32" stroke-width=".8"/><use stroke="#000" stroke-width=".8" x="55.296" xlink:href="#s" y="461.7"/><use transform="matrix(.1 0 0 -.1 41.934 465.5)" xlink:href="#u"/><path clip-path="url(#a)" d="m55.296 432.22h1085.2" fill="none" stroke="#b0b0b0" stroke-dasharray=".8 1.32" stroke-width=".8"/><use stroke="#000" stroke-width=".8" x="55.296" xlink:href="#s" y="432.216"/><use transform="matrix(.1 0 0 -.1 41.934 436.02)" xlink:href="#e"/><path clip-path="url(#a)" d="m55.296 402.73h1085.2" fill="none" stroke="#b0b0b0" stroke-dasharray=".8 1.32" stroke-width=".8"/><use stroke="#000" stroke-width=".8" x="55.296" xlink:href="#s" y="402.732"/><use transform="matrix(.1 0 0 -.1 41.934 406.53)" xlink:href="#v"/><path clip-path="url(#a)" d="m55.296 373.25h1085.2" fill="none" stroke="#b0b0b0" stroke-dasharray=".8 1.32" stroke-width=".8"/><use stroke="#000" stroke-width=".8" x="55.296" xlink:href="#s" y="373.248"/><use transform="matrix(.1 0 0 -.1 41.934 377.05)" xlink:href="#f"/><path clip-path="url(#a)" d="m55.296 343.76h1085.2" fill="none" stroke="#b0b0b0" stroke-dasharray=".8 1.32" stroke-width=".8"/><use stroke="#000" stroke-width=".8" x="55.296" xlink:href="#s" y="343.764"/><use transform="matrix(.1 0 0 -.1 41.934 347.56)" xlink:href="#d"/><path clip-path="url(#a)" d="m55.296 314.28h1085.2" fill="none" stroke="#b0b0b0" stroke-dasharray=".8 1.32" stroke-width=".8"/><use stroke="#000" stroke-width=".8" x="55.296" xlink:href="#s" y="314.28"/><g transform="matrix(.1 0 0 -.1 35.571 318.08)"><use xlink:href="#c"/><use x="63.623047" xlink:href="#h"/></g><path clip-path="url(#a)" d="m55.296 284.8h1085.2" fill="none" stroke="#b0b0b0" stroke-dasharray=".8 1.32" stroke-width=".8"/><use stroke="#000" stroke-width=".8" x="55.296" xlink:href="#s" y="284.796"/><g transform="matrix(.1 0 0 -.1 35.571 288.6)"><use xlink:href="#c"/><use x="63.623047" xlink:href="#c"/></g><path clip-path="url(#a)" d="m55.296 255.31h1085.2" fill="none" stroke="#b0b0b0" stroke-dasharray=".8 1.32" stroke-width=".8"/><use stroke="#000" stroke-width=".8" x="55.296" xlink:href="#s" y="255.312"/><g transform="matrix(.1 0 0 -.1 35.571 259.11)"><use xlink:href="#c"/><use x="63.623047" xlink:href="#g"/></g><path clip-path="url(#a)" d="m55.296 225.83h1085.2" fill="none" stroke="#b0b0b0" stroke-dasharray=".8 1.32" stroke-width=".8"/><use stroke="#000" stroke-width=".8" x="55.296" xlink:href="#s" y="225.828"/><g transform="matrix(.1 0 0 -.1 35.571 229.63)"><use xlink:href="#c"/><use x="63.623047" xlink:href="#t"/></g><path clip-path="url(#a)" d="m55.296 196.34h1085.2" fill="none" stroke="#b0b0b0" stroke-dasharray=".8 1.32" stroke-width=".8"/><use stroke="#000" stroke-width=".8" x="55.296" xlink:href="#s" y="196.344"/><g transform="matrix(.1 0 0 -.1 35.571 200.14)"><use xlink:href="#c"/><use x="63.623047" xlink:href="#i"/></g><path clip-path="url(#a)" d="m55.296 166.86h1085.2" fill="none" stroke="#b0b0b0" stroke-dasharray=".8 1.32" stroke-width=".8"/><use stroke="#000" stroke-width=".8" x="55.296" xlink:href="#s" y="166.86"/><g transform="matrix(.1 0 0 -.1 35.571 170.66)"><use xlink:href="#c"/><use x="63.623047" xlink:href="#u"/></g><path clip-path="url(#a)" d="m55.296 137.38h1085.2" fill="none" stroke="#b0b0b0" stroke-dasharray=".8 1.32" stroke-width=".8"/><use stroke="#000" stroke-width=".8" x="55.296" xlink:href="#s" y="137.376"/><g transform="matrix(.1 0 0 -.1 35.571 141.18)"><use xlink:href="#c"/><use x="63.623047" xlink:href="#e"/></g><path clip-path="url(#a)" d="m55.296 107.89h1085.2" fill="none" stroke="#b0b0b0" stroke-dasharray=".8 1.32" stroke-width=".8"/><use stroke="#000" stroke-width=".8" x="55.296" xlink:href="#s" y="107.892"/><g transform="matrix(.1 0 0 -.1 35.571 111.69)"><use xlink:href="#c"/><use x="63.623047" xlink:href="#v"/></g><path clip-path="url(#a)" d="m55.296 78.408h1085.2" fill="none" stroke="#b0b0b0" stroke-dasharray=".8 1.32" stroke-width=".8"/><use stroke="#000" stroke-width=".8" x="55.296" xlink:href="#s" y="78.408"/><g transform="matrix(.1 0 0 -.1 35.571 82.207)"><use xlink:href="#c"/><use x="63.623047" xlink:href="#f"/></g><path clip-path="url(#a)" d="m55.296 48.924h1085.2" fill="none" stroke="#b0b0b0" stroke-dasharray=".8 1.32" stroke-width=".8"/><use stroke="#000" stroke-width=".8" x="55.296" xlink:href="#s" y="48.924"/><g transform="matrix(.1 0 0 -.1 35.571 52.723)"><use xlink:href="#c"/><use x="63.623047" xlink:href="#d"/></g><path clip-path="url(#a)" d="m55.296 19.44h1085.2" fill="none" stroke="#b0b0b0" stroke-dasharray=".8 1.32" stroke-width=".8"/><use stroke="#000" stroke-width=".8" x="55.296" xlink:href="#s" y="19.44"/><g transform="matrix(.1 0 0 -.1 35.571 23.239)"><use xlink:href="#g"/><use x="63.623047" xlink:href="#h"/></g><g transform="matrix(0 -.14 -.14 0 28.659 383.46)"><path d="m48.828 0v29.891h-20.359q-9.0781 0-14.5 5.6875t-5.4219 17.297v20.031h9.8125v-19.25q0-7.75 3.0312-11.609t9.0781-3.8594h18.359v34.719h9.9062v-72.906z"/><use x="68.554688" xlink:href="#l"/><use x="130.078125" xlink:href="#w"/><use x="193.994141" xlink:href="#q"/><use x="255.175781" xlink:href="#x"/><use x="314.111328" xlink:href="#l"/><use x="375.634766" xlink:href="#y"/><use x="467.822266" xlink:href="#x"/><use x="558.544922" xlink:href="#y"/><use x="618.945312" xlink:href="#q"/><use x="680.126953" xlink:href="#z"/><use x="735.107422" xlink:href="#m"/><use x="810.546875" xlink:href="#q"/><use x="871.728516" xlink:href="#z"/><use x="926.708984" xlink:href="#l"/></g><path clip-path="url(#a)" d="m-1 461.7h.29968v88.452h5.54v-147.42h1.0442v147.42h2.7896v-206.39h1.4865v206.39h3.2644v-206.39h1.1494v206.39h2.7795v-88.452h.62876v58.968h2.1393v-176.9h.88052v176.9h2.2043v-147.42h1.4823v147.42h2.3252v-176.9h1.193v176.9h7.62v-58.968h.76179v-206.39l.078814 58.968h1.4859v206.39h5.1452v-176.9h1.162v176.9h1.0171v-176.9h.36892v-88.452h.8238v176.9h2.4403v-176.9l.080962 88.452h1.0799v176.9h8.5498v-176.9h.87749v176.9h1.9931v-206.39h1.2714v-88.452h.49337v206.39h.34612v88.452h10.361v-206.39h1.0406v235.87h.6313v-147.42h.94763v147.42h4.5493v-88.452h.4516v-147.42h.38787v58.968h.76379v147.42h3.4055v-206.39h1.6883v206.39h.74611v-147.42h.86883v147.42h5.4852v-176.9h.9462v176.9h3.4171v-58.968h.14029v-206.39h.70033v88.452h.96945v206.39h1.354v-176.9h.97826v147.42h5.1862v-176.9h1.064v176.9h2.3506v-206.39h1.7941v206.39h4.3536v-88.452h1.673v88.452h1.4909v-176.9h1.0757v176.9h5.764v-147.42h1.8741v147.42h3.8095v-176.9h1.0829v176.9h2.0151l.082956-294.84h1.0594v206.39h.94701v88.452h3.5574v-206.39h.42095v206.39h3.88v-206.39h.97856v206.39h4.0524v-206.39h1.6657v206.39h2.0374v-58.968h.20818v-176.9h.73217v58.968h.52545v176.9h3.9943v-206.39h1.1466v206.39h4.6593v-176.9h1.6649v176.9h5.1572v-206.39h.69748v-88.452h.23886v206.39h1.9568v88.452h6.0887v-206.39h1.6882v206.39h3.2096v-176.9h1.043v206.39h6.5422v-88.452h1.2543v88.452h6.9586v-206.39h.94496v206.39h2.8275v-176.9h1.2525v176.9h7.005v-88.452h.83978v58.968h9.3756v-206.39h1.04v206.39h4.9804v-147.42h.52536v147.42h3.2771v88.452h12.098v-206.39h.84525v206.39h4.8533v-176.9h1.1922v176.9h4.3755v-58.968h4.7978v-206.39h1.0441v206.39h1.8852v58.968h8.9664v-206.39h1.252v206.39h2.2961v-206.39h1.3693v206.39h.68478v-88.452h3.2683v-147.42h1.1493v147.42h6.1551v-147.42h1.3676v147.42h1.6586v-206.39h1.361v206.39h3.1265v-206.39h.90611v-88.452h.35616v206.39h.48418v88.452h7.1243v-147.42h1.3555v147.42h1.7752v-206.39h1.261v206.39h6.3251v-88.452h1.0434v88.452h3.7905v-206.39h1.2538v206.39h7.8231v-206.39h1.1591v206.39h2.9145v-206.39h1.1482v206.39h.59242v-88.452h1.0497v88.452h3.3668v-206.39h1.4704v206.39h11.68v-176.9h1.1494v176.9h1.2179v-88.452h1.1534v88.452h1.4889v-206.39h1.4625v206.39h4.2268v-206.39h1.6905v206.39h8.8685v-58.968h.84081v88.452h17.397v-29.484l.094537 29.484h.24428v-88.452h1.048v88.452h18.466v-88.452h1.1534v88.452h5.5825v-29.484l.001769 29.484h10.611v-29.484l.001782 29.484h.52724v-29.484l.001763 29.484h1.0076v-88.452h1.0499v88.452h18.358v-88.452h1.0495v88.452h9.8351v-206.39h1.4747v206.39h5.5872v-88.452h1.0489v88.452l.10539-58.968h.51086v58.968h17.428v-88.452h1.0491v88.452h9.2087v-206.39h1.3556v176.9h5.7388v-176.9h.9059v-88.452h.34579v176.9h.80851v88.452h7.6424v-206.39h1.365v206.39h11.225v-88.452h1.4634v88.452h5.1424v-206.39h1.4687v206.39h4.9995v-206.39h1.3526v206.39h5.2915v-88.452h1.1549v88.452h.23451v-206.39h1.6022v206.39h9.7698v-206.39h1.3545v206.39h2.0884v-206.39h1.672v206.39h1.3203v-88.452h1.1549v88.452h4.5121v-206.39h1.46v206.39h10.92v-88.452h.30268v88.452h1.474v-88.452h1.2582v88.452h2.3225v-206.39h1.6822v206.39h11.152v-206.39h1.1146v-88.452h.24495v206.39h1.1143v88.452h3.5493v-206.39h1.3689v206.39h.29591v-88.452h5.2501v-206.39h1.6657v206.39h3.0294v-206.39h1.4718v206.39h1.9381v-88.452h1.1552v88.452h3.886v-176.9h1.1463v206.39h.39137v88.452h2.0807v-88.452h5.2496v-176.9h1.4595v176.9h2.4762v58.968h1.6654v-88.452h.3461v-206.39h1.604v206.39h2.5696v-176.9h1.2489v176.9h.70124v88.452h1.4598v-88.452h10.752v88.452h1.352v-88.452h5.2241v88.452h2.0796v-88.452h7.5459v-176.9h1.3576v176.9h.70271v88.452h2.0798v-88.452h4.4152v-176.9h.80247v88.452h.86716v176.9h.69693v-88.452h3.2685v-117.94h1.355v117.94h6.0219v88.452h6.2615v-88.452h.84085v88.452h3.1252v-88.452h13.575v88.452h1.8713v-88.452h3.4291v-88.452h1.3414v88.452h.23968v88.452h1.4609v-88.452h6.792v88.452h3.8552v-88.452h2.8253v88.452h3.2289v-88.452h9.1913v88.452h1.3512v-88.452h4.9066v88.452h1.5652v-88.452h1.4374v-88.452h1.5496v88.452h8.1831v88.452h1.5651v-88.452h4.4887v-88.452h.41816v88.452h12.736v88.452h1.5646v-88.452h5.2201v88.452h1.5651v-88.452h11.17v88.452h1.5653v-88.452h4.8084v88.452h1.4548v-88.452h11.482v88.452h1.6694v-88.452h8.0379v88.452h4.3828v-88.452h4.384v-88.452h1.0444v88.452h9.6045v88.452h.41491v-88.452h8.2473v88.452h1.773v-88.452h9.7082v88.452h1.9823v-88.452h6.5771v88.452h4.2368v-58.968h.25015v-88.452h1.149v88.452h1.9823v-88.452l.042649 58.968h15.197v88.452h1.0429v-58.968h4.5934v58.968h5.9488v-88.452h3.8627v88.452h1.0431v-88.452h9.8123v88.452h.31267v-88.452h7.7247v88.452h2.2956v-88.452h7.8296v88.452h.31195v-88.452h12.736v88.452h.72918v-58.968l.00145 58.968h5.635v-88.452h1.0808v-58.968l.001041 58.968h.69327v88.452h6.8435v-88.452l.001116 88.452h2.1314v-88.452h10.857v88.452h2.7131v-88.452h7.0983v-88.452h.83573v88.452h13.362v88.452h6.68v-88.452h.83647v88.452h4.6251v-58.968h6.7884v58.968h7.6883v-88.452h.83629v88.452h2.6419v-117.94h15.312v-88.452h.83654v88.452h.65831v-117.94h.94229v117.94h2.1597v-58.968l.001253 58.968h2.6954v-88.452h2.6087v-176.9l.001123 176.9h.94399v-117.94l.00075 117.94h6.0955v-117.94h.13052v88.452h.18368v117.94h1.7411v-88.452h.87496v-117.94l.000748 117.94h.21845v-88.452h.16005v88.452h2.4359v117.94h.20564v-117.94h2.8896v-88.452h.35094v-176.9l.000744 176.9h.90214v88.452h9.3938v-88.452h1.2537v88.452h.11712v-176.9l.000733 176.9h.85398v-117.94h.78989v88.452h1.022v117.94h.17146v-117.94h.94099v117.94h3.1157v-176.9l.058877 88.452h6.4161v-176.9l.000753 176.9h5.0924v-88.452h.83578v88.452h.65906v-117.94h.97666v117.94" fill="none" stroke="#00f" stroke-width=".9"/><path d="m55.296 609.12v-589.68" fill="none" stroke="#000" stroke-width=".8"/><path d="m1140.5 609.12v-589.68" fill="none" stroke="#000" stroke-width=".8"/><path d="m55.296 609.12h1085.2" fill="none" stroke="#000" stroke-width=".8"/><path d="m55.296 19.44h1085.2" fill="none" stroke="#000" stroke-width=".8"/><g transform="matrix(.12 0 0 -.12 374.29 13.44)"><path d="m65.375 72.906v-72.906h-9.8594v64.594h-35.844v-64.594h-9.8594v72.906z"/><use x="75.195312" xlink:href="#l"/><use x="136.71875" xlink:href="#k"/><use x="200.195312" xlink:href="#l"/><path d="m56.297 54.688v-54.688h-9.0312v47.516h-29.156v-47.516h-9.0312v54.688z" transform="translate(261.71875)"/><use x="327.099609" xlink:href="#A"/><use x="392.089844" xlink:href="#z"/><use x="447.070312" xlink:href="#B"/><use x="537.792969" xlink:href="#y"/><use x="598.193359" xlink:href="#q"/><use x="659.375" xlink:href="#z"/><use x="714.355469" xlink:href="#m"/><use x="789.794922" xlink:href="#A"/><path d="m41.016 0v23h-16.75q-7.4688 0-12.453 4.6406-4.4844 4.2031-4.4844 13.188v13.859h8.9844v-13.031q0-5.7188 2.5312-8.5938 2.5938-2.8906 7.6719-2.8906h14.5v24.516h8.9844v-54.688z" transform="translate(854.785156)"/><use x="913.867188" xlink:href="#l"/><use x="975.390625" xlink:href="#z"/><use x="1030.371094" xlink:href="#y"/><use x="1090.771484" xlink:href="#q"/><use x="1151.953125" xlink:href="#p"/><use x="1204.492188" xlink:href="#q"/><use x="1297.460938" xlink:href="#C"/><use x="1362.841797" xlink:href="#D"/><use x="1424.121094" xlink:href="#z"/><use x="1479.101562" xlink:href="#l"/><use x="1540.625" xlink:href="#w"/><use x="1604.541016" xlink:href="#l"/><use x="1666.064453" xlink:href="#C"/><use x="1731.445312" xlink:href="#A"/><use x="1796.435547" xlink:href="#n"/><use x="1856.591797" xlink:href="#o"/><use x="1920.166016" xlink:href="#v"/><use x="1983.789062" xlink:href="#g"/><use x="2047.412109" xlink:href="#u"/><use x="2142.822266" xlink:href="#A"/><path d="m34.469 29.5q6.0625-1.1719 9.4219-4.75 3.375-3.5625 3.375-8.8281 0-8.4531-6.2969-12.906-6.2969-4.4375-17.922-4.4375-3.9062 0-8.0312.6875t-8.5156 2.0469v8.3594q3.4688-1.8125 7.6094-2.7188 4.1562-.89062 8.6875-.89062 7.375 0 11.5 2.7344t4.125 7.125q0 4.2969-3.6562 6.9062t-10.344 2.6094h-7.2344v7.4219h7.5625q5.6719 0 8.9688 2.1719t3.2969 5.5938q0 3.125-3.4062 5.375-3.3906 2.25-9.1875 2.25-3.4688 0-7.4062-.64062-3.9219-.64062-8.6719-2.0469v8.1562q4.7969 1.1719 8.9375 1.75 4.1562.59375 7.8594.59375 9.5781 0 15.109-3.8438 5.5469-3.8281 5.5469-10.719 0-4.5312-2.9375-7.6875-2.9219-3.1406-8.3906-4.3125z" transform="translate(2207.8125)"/><use x="2260.986328" xlink:href="#m"/><use x="2336.425781" xlink:href="#l"/><use x="2397.949219" xlink:href="#C"/><use x="2463.330078" xlink:href="#l"/><use x="2524.853516" xlink:href="#C"/><use x="2590.234375" xlink:href="#A"/><path d="m55.906 54.688v-54.688h-8.9375v43.891l-26.359-43.891h-11.531v54.688h8.9375v-43.797l26.328 43.797zm-38.688 20.828h5.7656q.53125-3.6562 2.8906-5.5 2.375-1.8281 6.625-1.8281 4.2031 0 6.5469 1.8125t2.9688 5.5156h5.7656q-.48438-6.9844-4.3438-10.5t-10.938-3.5156-10.938 3.5156-4.3438 10.5z" transform="translate(2655.224609)"/><path d="m10.688 12.406h10.312v-12.406h-10.312z" transform="translate(2720.214844)"/><path d="m9.8125 72.906h9.8594v-29.891h35.844v29.891h9.8594v-72.906h-9.8594v34.719h-35.844v-34.719h-9.8594z" transform="translate(2783.789062)"/><use x="2858.984375" xlink:href="#q"/><use x="2920.166016" xlink:href="#n"/><path d="m31.109 56q11.719 0 18.406-7.625 6.6875-7.6094 6.6875-21.078 0-13.422-6.6875-21.078-6.6875-7.6406-18.406-7.6406-11.766 0-18.266 7.4219t-6.8438 21.297l-.28125 11.188q-.25 5.7969-.25 7.8125 0 7.8125 2.8281 13.562 4.4531 9.0312 12.141 12.938t20.578 4.0156q5.9531.046875 8.5938.875l2.4844-7.125q-2.3906-.98438-4.5781-1.0312l-12.219-.82812q-6.1406-.4375-9.8594-2.5938-9.7188-5.7031-10.641-13.172l-.34375-2.7344q6.3438 5.7969 16.656 5.7969zm0-7.6094q-7.2344 0-11.438-5.6406-4.1875-5.6406-4.1875-15.453t4.1719-15.453 11.453-5.6406q7.1719 0 11.375 5.6562 4.2031 5.6719 4.2031 15.438 0 9.7188-4.2031 15.406t-11.375 5.6875z" transform="translate(2980.322266)"/><use x="3041.992188" xlink:href="#k"/><use x="3105.46875" xlink:href="#B"/><use x="3196.191406" xlink:href="#g"/><use x="3259.814453" xlink:href="#h"/><use x="3323.4375" xlink:href="#g"/><use x="3387.060547" xlink:href="#g"/><use x="3482.470703" xlink:href="#p"/><use x="3535.009766" xlink:href="#q"/><use x="3596.191406" xlink:href="#r"/><use x="3665.332031" xlink:href="#D"/></g></g></svg>