<?xml version="1.0" encoding="UTF-8"?>
<!DOCTYPE svg  PUBLIC '-//W3C//DTD SVG 1.1//EN'  'http://www.w3.org/Graphics/SVG/1.1/DTD/svg11.dtd'>
<svg height="648pt" stroke-linejoin="round" viewBox="0 0 1152 648" width="1152pt" xmlns="http://www.w3.org/2000/svg" xmlns:xlink="http://www.w3.org/1999/xlink"><defs stroke-linejoin="round"><clipPath id="a" stroke-linejoin="round"><path d="m55.296 19.44h1085.2v589.68h-1085.2z"/></clipPath><path id="b" d="m0 0v3.5" stroke="#000" stroke-linejoin="round" stroke-width=".8"/><path id="c" d="m19.188 8.2969h34.422v-8.2969h-46.281v8.2969q5.6094 5.8125 15.297 15.594 9.7031 9.7969 12.188 12.641 4.7344 5.3125 6.6094 9 1.8906 3.6875 1.8906 7.25 0 5.8125-4.0781 9.4688-4.0781 3.6719-10.625 3.6719-4.6406 0-9.7969-1.6094-5.1406-1.6094-11-4.8906v9.9688q5.9531 2.3906 11.125 3.6094 5.1875 1.2188 9.4844 1.2188 11.328 0 18.062-5.6719 6.7344-5.6562 6.7344-15.125 0-4.5-1.6875-8.5312-1.6719-4.0156-6.125-9.4844-1.2188-1.4219-7.7656-8.1875-6.5312-6.7656-18.453-18.922z" stroke-linejoin="round"/><path id="d" d="m31.781 66.406q-7.6094 0-11.453-7.5-3.8281-7.4844-3.8281-22.531 0-14.984 3.8281-22.484 3.8438-7.5 11.453-7.5 7.6719 0 11.5 7.5 3.8438 7.5 3.8438 22.484 0 15.047-3.8438 22.531-3.8281 7.5-11.5 7.5zm0 7.8125q12.266 0 18.734-9.7031 6.4688-9.6875 6.4688-28.141 0-18.406-6.4688-28.109-6.4688-9.6875-18.734-9.6875-12.25 0-18.719 9.6875-6.4688 9.7031-6.4688 28.109 0 18.453 6.4688 28.141 6.4688 9.7031 18.719 9.7031z" stroke-linejoin="round"/><path id="e" d="m12.406 8.2969h16.109v55.625l-17.531-3.5156v8.9844l17.438 3.5156h9.8594v-64.609h16.109v-8.2969h-41.984z" stroke-linejoin="round"/><path id="f" d="m40.578 39.312q7.0781-1.5156 11.047-6.3125 3.9844-4.7812 3.9844-11.812 0-10.781-7.4219-16.703-7.4219-5.9062-21.094-5.9062-4.5781 0-9.4375.90625t-10.031 2.7188v9.5156q4.0938-2.3906 8.9688-3.6094 4.8906-1.2188 10.219-1.2188 9.2656 0 14.125 3.6562t4.8594 10.641q0 6.4531-4.5156 10.078-4.5156 3.6406-12.562 3.6406h-8.5v8.1094h8.8906q7.2656 0 11.125 2.9062t3.8594 8.375q0 5.6094-3.9844 8.6094-3.9688 3.0156-11.391 3.0156-4.0625 0-8.7031-.89062-4.6406-.875-10.203-2.7188v8.7812q5.625 1.5625 10.531 2.3438t9.25.78125q11.234 0 17.766-5.1094 6.5469-5.0938 6.5469-13.781 0-6.0625-3.4688-10.234t-9.8594-5.7812z" stroke-linejoin="round"/><path id="g" d="m37.797 64.312-24.906-38.922h24.906zm-2.5938 8.5938h12.406v-47.516h10.406v-8.2031h-10.406v-17.188h-9.8125v17.188h-32.906v9.5156z" stroke-linejoin="round"/><path id="h" d="m10.797 72.906h38.719v-8.3125h-29.688v-17.859q2.1406.73438 4.2812 1.0938 2.1562.35938 4.3125.35938 12.203 0 19.328-6.6875 7.1406-6.6875 7.1406-18.109 0-11.766-7.3281-18.297-7.3281-6.5156-20.656-6.5156-4.5938 0-9.3594.78125-4.75.78125-9.8281 2.3438v9.9219q4.3906-2.3906 9.0781-3.5625t9.9062-1.1719q8.4531 0 13.375 4.4375 4.9375 4.4375 4.9375 12.062 0 7.6094-4.9375 12.047-4.9219 4.4531-13.375 4.4531-3.9531 0-7.8906-.875-3.9219-.875-8.0156-2.7344z" stroke-linejoin="round"/><path id="i" d="m33.016 40.375q-6.6406 0-10.531-4.5469-3.875-4.5312-3.875-12.438 0-7.8594 3.875-12.438 3.8906-4.5625 10.531-4.5625t10.516 4.5625q3.875 4.5781 3.875 12.438 0 7.9062-3.875 12.438-3.875 4.5469-10.516 4.5469zm19.578 30.922v-8.9844q-3.7188 1.75-7.5 2.6719-3.7812.9375-7.5.9375-9.7656 0-14.922-6.5938-5.1406-6.5938-5.875-19.922 2.875 4.25 7.2188 6.5156 4.3594 2.2656 9.5781 2.2656 10.984 0 17.359-6.6719 6.375-6.6562 6.375-18.125 0-11.234-6.6406-18.031-6.6406-6.7812-17.672-6.7812-12.656 0-19.344 9.6875-6.6875 9.7031-6.6875 28.109 0 17.281 8.2031 27.562t22.016 10.281q3.7188 0 7.5-.73438t7.8906-2.1875z" stroke-linejoin="round"/><path id="j" d="m8.2031 72.906h46.875v-4.2031l-26.469-68.703h-10.297l24.906 64.594h-35.016z" stroke-linejoin="round"/><path id="k" d="m31.781 34.625q-7.0312 0-11.062-3.7656-4.0156-3.7656-4.0156-10.344 0-6.5938 4.0156-10.359 4.0312-3.7656 11.062-3.7656t11.078 3.7812q4.0625 3.7969 4.0625 10.344 0 6.5781-4.0312 10.344-4.0156 3.7656-11.109 3.7656zm-9.8594 4.1875q-6.3438 1.5625-9.8906 5.9062-3.5312 4.3594-3.5312 10.609 0 8.7344 6.2188 13.812 6.2344 5.0781 17.062 5.0781 10.891 0 17.094-5.0781t6.2031-13.812q0-6.25-3.5469-10.609-3.5312-4.3438-9.8281-5.9062 7.125-1.6562 11.094-6.5 3.9844-4.8281 3.9844-11.797 0-10.609-6.4688-16.281-6.4688-5.6562-18.531-5.6562-12.047 0-18.531 5.6562-6.4688 5.6719-6.4688 16.281 0 6.9688 4 11.797 4.0156 4.8438 11.141 6.5zm-3.6094 15.578q0-5.6562 3.5312-8.8281 3.5469-3.1719 9.9375-3.1719 6.3594 0 9.9375 3.1719 3.5938 3.1719 3.5938 8.8281 0 5.6719-3.5938 8.8438-3.5781 3.1719-9.9375 3.1719-6.3906 0-9.9375-3.1719-3.5312-3.1719-3.5312-8.8438z" stroke-linejoin="round"/><path id="l" d="m10.984 1.5156v8.9844q3.7188-1.7656 7.5156-2.6875 3.8125-.92188 7.4844-.92188 9.7656 0 14.906 6.5625 5.1562 6.5625 5.8906 19.953-2.8281-4.2031-7.1875-6.4531-4.3438-2.25-9.6094-2.25-10.938 0-17.312 6.6094-6.375 6.625-6.375 18.109 0 11.219 6.6406 18 6.6406 6.7969 17.672 6.7969 12.656 0 19.312-9.7031 6.6719-9.6875 6.6719-28.141 0-17.234-8.1875-27.516-8.1719-10.281-21.984-10.281-3.7188 0-7.5312.73438-3.7969.73438-7.9062 2.2031zm19.625 30.906q6.6406 0 10.516 4.5312 3.8906 4.5469 3.8906 12.469 0 7.8594-3.8906 12.422-3.875 4.5625-10.516 4.5625t-10.516-4.5625-3.875-12.422q0-7.9219 3.875-12.469 3.875-4.5312 10.516-4.5312z" stroke-linejoin="round"/><path id="m" d="m18.109 8.2031v-29h-9.0312v75.484h9.0312v-8.2969q2.8438 4.875 7.1562 7.2344 4.3281 2.375 10.328 2.375 9.9688 0 16.188-7.9062 6.2344-7.9062 6.2344-20.797t-6.2344-20.812q-6.2188-7.9062-16.188-7.9062-6 0-10.328 2.375-4.3125 2.375-7.1562 7.25zm30.578 19.094q0 9.9062-4.0781 15.547t-11.203 5.6406q-7.1406 0-11.219-5.6406t-4.0781-15.547 4.0781-15.547 11.219-5.6406q7.125 0 11.203 5.6406t4.0781 15.547z" stroke-linejoin="round"/><path id="n" d="m56.203 29.594v-4.3906h-41.312q.59375-9.2812 5.5938-14.141t13.938-4.8594q5.1719 0 10.031 1.2656t9.6562 3.8125v-8.5q-4.8438-2.0469-9.9219-3.125t-10.297-1.0781q-13.094 0-20.734 7.6094-7.6406 7.625-7.6406 20.625 0 13.422 7.25 21.297 7.25 7.8906 19.562 7.8906 11.031 0 17.453-7.1094 6.4219-7.0938 6.4219-19.297zm-8.9844 2.6406q-.09375 7.3594-4.125 11.75-4.0312 4.4062-10.672 4.4062-7.5156 0-12.031-4.25t-5.2031-11.969z" stroke-linejoin="round"/><path id="o" d="m9.0781 54.688h13.141l15.531-36.625 15.578 36.625h13.031v-54.688h-9.0312v46.094l-15.094-35.594h-8.9844l-15.141 35.594v-46.094h-9.0312z" stroke-linejoin="round"/><path id="p" d="m18.453 38.922q0-4.0625 3.125-6.3594 3.125-2.2812 8.9375-2.2812h12.109v17.234h-12.109q-5.8125 0-8.9375-2.25t-3.125-6.3438zm-12.781-38.922 16.688 23.969q-5.6562 1.2812-9.4219 4.625-3.75 3.3438-3.75 10.328 0 7.9062 5.2344 11.828 5.25 3.9375 15.859 3.9375h21.375v-54.688h-9.0312v23.094h-11.172l-16.125-23.094z" stroke-linejoin="round"/><path id="q" d="m11.719 12.406h10.297v-8.4062l-8-15.625h-6.2969l4 15.625z" stroke-linejoin="round"/><path id="r" d="m9.0781 0v54.688h38.578v-7.1719h-29.547v-47.516z" stroke-linejoin="round"/><path id="s" d="m30.609 48.391q-7.2188 0-11.422-5.6406t-4.2031-15.453 4.1719-15.453q4.1875-5.6406 11.453-5.6406 7.1875 0 11.375 5.6562 4.2031 5.6719 4.2031 15.438 0 9.7188-4.2031 15.406-4.1875 5.6875-11.375 5.6875zm0 7.6094q11.719 0 18.406-7.625 6.7031-7.6094 6.7031-21.078 0-13.422-6.7031-21.078-6.6875-7.6406-18.406-7.6406-11.766 0-18.438 7.6406-6.6562 7.6562-6.6562 21.078 0 13.469 6.6562 21.078 6.6719 7.625 18.438 7.625z" stroke-linejoin="round"/><path id="t" d="m21.625 7.1719h26.078v40.344h-18.891v-6.8438q0-20.109-5.7656-30.859zm-13.031 0q4.4375 1.9531 6.3906 6.1094 4.7969 10.297 4.7969 31.062v10.344h36.953v-47.516h7.1875v-20.984h-7.1875v13.812h-44.328v-13.812h-7.1875v20.984z" stroke-linejoin="round"/><path id="u" d="m0 0h-3.5" stroke="#000" stroke-linejoin="round" stroke-width=".8"/><path id="v" d="m3.7188 0v7.4688q8.875 1.375 11.609 7.5156 3.3281 8.6562 3.3281 30.766v8.9375h36.953v-54.688h-8.9844v47.516h-18.984v-5.4219q0-21.094-4.2969-30.562-4.5938-10.109-19.625-11.531z" stroke-linejoin="round"/><path id="w" d="m18.062 25.203v-18.031h12.797q6.1562 0 9.375 2.3125 3.2188 2.3281 3.2188 6.7344 0 4.3906-3.2188 6.6875t-9.375 2.2969zm0 22.312v-15.141h11.828q5.0781 0 8.2969 2.0156 3.2188 2.0312 3.2188 5.6562 0 3.6094-3.2188 5.5312-3.2188 1.9375-8.2969 1.9375zm-8.9844 7.1719h21.391q9.625 0 14.797-3.5156t5.1719-10.016q0-5.0156-2.6406-7.9844-2.625-2.9531-7.8125-3.6719 6.2031-1.1719 9.625-4.8906 3.4219-3.7031 3.4219-9.2812 0-7.3125-5.6406-11.328-5.6406-4-16.094-4h-22.219z" stroke-linejoin="round"/><path id="x" d="m9.0781 54.688h8.9375v-25.688l25.344 25.688h11.031l-20.891-21.141 23.578-33.547h-10.062l-19.375 27.594-9.625-9.7656v-17.828h-8.9375z" stroke-linejoin="round"/><path id="y" d="m48.781 52.594v-8.4062q-3.8125 2.1094-7.6406 3.1562t-7.7344 1.0469q-8.75 0-13.594-5.5469-4.8281-5.5312-4.8281-15.547t4.8281-15.562q4.8438-5.5312 13.594-5.5312 3.9062 0 7.7344 1.0469t7.6406 3.1562v-8.3125q-3.7656-1.75-7.7969-2.625-4.0156-.89062-8.5625-.89062-12.359 0-19.641 7.7656-7.2656 7.7656-7.2656 20.953 0 13.375 7.3438 21.031 7.3594 7.6719 20.156 7.6719 4.1406 0 8.0938-.85938 3.9531-.84375 7.6719-2.5469z" stroke-linejoin="round"/><path id="z" d="m55.906 54.688v-54.688h-8.9375v43.891l-26.359-43.891h-11.531v54.688h8.9375v-43.797l26.328 43.797z" stroke-linejoin="round"/><path id="A" d="m43.453 16.219q0 4.3906-3.2031 6.6875-3.1875 2.2969-9.3438 2.2969h-12.797v-18.031h12.797q6.1562 0 9.3438 2.3125 3.2031 2.3281 3.2031 6.7344zm-34.375 38.469h9.0312v-22.312h13.188q10.453 0 16.094-3.9844 5.6406-3.9688 5.6406-12.172t-5.6406-12.219q-5.6406-4-16.094-4h-22.219z" stroke-linejoin="round"/><path id="B" d="m9.0781 54.688h9.0312v-22.312h29.156v22.312h9.0312v-54.688h-9.0312v25.203h-29.156v-25.203h-9.0312z" stroke-linejoin="round"/><path id="C" d="m34.281 27.484q-10.891 0-15.094-2.4844t-4.2031-8.5q0-4.7812 3.1562-7.5938 3.1562-2.7969 8.5625-2.7969 7.4844 0 12 5.2969t4.5156 14.078v2zm17.922 3.7188v-31.203h-8.9844v8.2969q-3.0781-4.9688-7.6719-7.3438t-11.234-2.375q-8.3906 0-13.359 4.7188-4.9531 4.7188-4.9531 12.625 0 9.2188 6.1719 13.906 6.1875 4.6875 18.438 4.6875h12.609v.89062q0 6.2031-4.0781 9.5938t-11.453 3.3906q-4.6875 0-9.1406-1.125-4.4375-1.125-8.5312-3.375v8.3125q4.9219 1.9062 9.5625 2.8438 4.6406.95312 9.0312.95312 11.875 0 17.734-6.1562 5.8594-6.1406 5.8594-18.641z" stroke-linejoin="round"/></defs><g stroke-linejoin="round"><path d="m0 648h1152v-648h-1152z" fill="#fff"/><path d="m55.296 609.12h1085.2v-589.68h-1085.2z" fill="#fff"/><path clip-path="url(#a)" d="m55.296 609.12v-589.68" fill="none" stroke="#b0b0b0" stroke-dasharray=".8 1.32" stroke-width=".8"/><use stroke="#000" stroke-width=".8" x="55.296" xlink:href="#b" y="609.12"/><g transform="matrix(.1 0 0 -.1 42.571 623.72)"><use xlink:href="#c"/><use x="63.623047" xlink:href="#d"/><use x="127.246094" xlink:href="#e"/><use x="190.869141" xlink:href="#d"/></g><path clip-path="url(#a)" d="m138.72 609.12v-589.68" fill="none" stroke="#b0b0b0" stroke-dasharray=".8 1.32" stroke-width=".8"/><use stroke="#000" stroke-width=".8" x="138.718949" xlink:href="#b" y="609.12"/><g transform="matrix(.1 0 0 -.1 125.99 623.72)"><use xlink:href="#c"/><use x="63.623047" xlink:href="#d"/><use x="127.246094" xlink:href="#e"/><use x="190.869141" xlink:href="#e"/></g><path clip-path="url(#a)" d="m222.14 609.12v-589.68" fill="none" stroke="#b0b0b0" stroke-dasharray=".8 1.32" stroke-width=".8"/><use stroke="#000" stroke-width=".8" x="222.141897" xlink:href="#b" y="609.12"/><g transform="matrix(.1 0 0 -.1 209.42 623.72)"><use xlink:href="#c"/><use x="63.623047" xlink:href="#d"/><use x="127.246094" xlink:href="#e"/><use x="190.869141" xlink:href="#c"/></g><path clip-path="url(#a)" d="m305.79 609.12v-589.68" fill="none" stroke="#b0b0b0" stroke-dasharray=".8 1.32" stroke-width=".8"/><use stroke="#000" stroke-width=".8" x="305.793402" xlink:href="#b" y="609.12"/><g transform="matrix(.1 0 0 -.1 293.07 623.72)"><use xlink:href="#c"/><use x="63.623047" xlink:href="#d"/><use x="127.246094" xlink:href="#e"/><use x="190.869141" xlink:href="#f"/></g><path clip-path="url(#a)" d="m389.22 609.12v-589.68" fill="none" stroke="#b0b0b0" stroke-dasharray=".8 1.32" stroke-width=".8"/><use stroke="#000" stroke-width=".8" x="389.21635" xlink:href="#b" y="609.12"/><g transform="matrix(.1 0 0 -.1 376.49 623.72)"><use xlink:href="#c"/><use x="63.623047" xlink:href="#d"/><use x="127.246094" xlink:href="#e"/><use x="190.869141" xlink:href="#g"/></g><path clip-path="url(#a)" d="m472.64 609.12v-589.68" fill="none" stroke="#b0b0b0" stroke-dasharray=".8 1.32" stroke-width=".8"/><use stroke="#000" stroke-width=".8" x="472.639299" xlink:href="#b" y="609.12"/><g transform="matrix(.1 0 0 -.1 459.91 623.72)"><use xlink:href="#c"/><use x="63.623047" xlink:href="#d"/><use x="127.246094" xlink:href="#e"/><use x="190.869141" xlink:href="#h"/></g><path clip-path="url(#a)" d="m556.06 609.12v-589.68" fill="none" stroke="#b0b0b0" stroke-dasharray=".8 1.32" stroke-width=".8"/><use stroke="#000" stroke-width=".8" x="556.062248" xlink:href="#b" y="609.12"/><g transform="matrix(.1 0 0 -.1 543.34 623.72)"><use xlink:href="#c"/><use x="63.623047" xlink:href="#d"/><use x="127.246094" xlink:href="#e"/><use x="190.869141" xlink:href="#i"/></g><path clip-path="url(#a)" d="m639.71 609.12v-589.68" fill="none" stroke="#b0b0b0" stroke-dasharray=".8 1.32" stroke-width=".8"/><use stroke="#000" stroke-width=".8" x="639.713752" xlink:href="#b" y="609.12"/><g transform="matrix(.1 0 0 -.1 626.99 623.72)"><use xlink:href="#c"/><use x="63.623047" xlink:href="#d"/><use x="127.246094" xlink:href="#e"/><use x="190.869141" xlink:href="#j"/></g><path clip-path="url(#a)" d="m723.14 609.12v-589.68" fill="none" stroke="#b0b0b0" stroke-dasharray=".8 1.32" stroke-width=".8"/><use stroke="#000" stroke-width=".8" x="723.136701" xlink:href="#b" y="609.12"/><g transform="matrix(.1 0 0 -.1 710.41 623.72)"><use xlink:href="#c"/><use x="63.623047" xlink:href="#d"/><use x="127.246094" xlink:href="#e"/><use x="190.869141" xlink:href="#k"/></g><path clip-path="url(#a)" d="m806.56 609.12v-589.68" fill="none" stroke="#b0b0b0" stroke-dasharray=".8 1.32" stroke-width=".8"/><use stroke="#000" stroke-width=".8" x="806.55965" xlink:href="#b" y="609.12"/><g transform="matrix(.1 0 0 -.1 793.83 623.72)"><use xlink:href="#c"/><use x="63.623047" xlink:href="#d"/><use x="127.246094" xlink:href="#e"/><use x="190.869141" xlink:href="#l"/></g><path clip-path="url(#a)" d="m889.98 609.12v-589.68" fill="none" stroke="#b0b0b0" stroke-dasharray=".8 1.32" stroke-width=".8"/><use stroke="#000" stroke-width=".8" x="889.982598" xlink:href="#b" y="609.12"/><g transform="matrix(.1 0 0 -.1 877.26 623.72)"><use xlink:href="#c"/><use x="63.623047" xlink:href="#d"/><use x="127.246094" xlink:href="#c"/><use x="190.869141" xlink:href="#d"/></g><path clip-path="url(#a)" d="m973.63 609.12v-589.68" fill="none" stroke="#b0b0b0" stroke-dasharray=".8 1.32" stroke-width=".8"/><use stroke="#000" stroke-width=".8" x="973.634103" xlink:href="#b" y="609.12"/><g transform="matrix(.1 0 0 -.1 960.91 623.72)"><use xlink:href="#c"/><use x="63.623047" xlink:href="#d"/><use x="127.246094" xlink:href="#c"/><use x="190.869141" xlink:href="#e"/></g><path clip-path="url(#a)" d="m1057.1 609.12v-589.68" fill="none" stroke="#b0b0b0" stroke-dasharray=".8 1.32" stroke-width=".8"/><use stroke="#000" stroke-width=".8" x="1057.057051" xlink:href="#b" y="609.12"/><g transform="matrix(.1 0 0 -.1 1044.3 623.72)"><use xlink:href="#c"/><use x="63.623047" xlink:href="#d"/><use x="127.246094" xlink:href="#c"/><use x="190.869141" xlink:href="#c"/></g><path clip-path="url(#a)" d="m1140.5 609.12v-589.68" fill="none" stroke="#b0b0b0" stroke-dasharray=".8 1.32" stroke-width=".8"/><use stroke="#000" stroke-width=".8" x="1140.48" xlink:href="#b" y="609.12"/><g transform="matrix(.1 0 0 -.1 1127.8 623.72)"><use xlink:href="#c"/><use x="63.623047" xlink:href="#d"/><use x="127.246094" xlink:href="#c"/><use x="190.869141" xlink:href="#f"/></g><g transform="matrix(.14 0 0 -.14 552.07 640.44)"><path d="m19.672 34.812v-26.703h15.828q7.9531 0 11.781 3.2969 3.8438 3.2969 3.8438 10.078 0 6.8438-3.8438 10.078-3.8281 3.25-11.781 3.25zm0 29.984v-21.969h14.609q7.2188 0 10.75 2.7031 3.5469 2.7188 3.5469 8.2812 0 5.5156-3.5469 8.25-3.5312 2.7344-10.75 2.7344zm-9.8594 8.1094h25.203q11.281 0 17.375-4.6875 6.1094-4.6875 6.1094-13.328 0-6.7031-3.125-10.656t-9.1875-4.9219q7.2812-1.5625 11.312-6.5312 4.0312-4.9531 4.0312-12.375 0-9.7656-6.6406-15.094-6.6406-5.3125-18.906-5.3125h-26.172z"/><use x="68.603516" xlink:href="#m"/><use x="132.080078" xlink:href="#n"/><use x="193.603516" xlink:href="#o"/><use x="269.042969" xlink:href="#p"/><use x="329.199219" xlink:href="#q"/><use x="392.773438" xlink:href="#r"/><use x="445.3125" xlink:href="#s"/><use x="506.494141" xlink:href="#t"/><path d="m61.047 54.688h8.9844v-54.688h-8.9844zm-17.594-38.4685q0 4.3906-3.2031 6.6875-3.1875 2.2969-9.3438 2.2969h-12.797v-18.031h12.797q6.1562 0 9.3438 2.3125 3.2031 2.3281 3.2031 6.7344zm-34.375 38.469h9.0312v-22.312h13.188q10.453 0 16.094-3.9844 5.6406-3.9688 5.6406-12.172t-5.6406-12.219q-5.6406-4-16.094-4h-22.219z" transform="translate(575.634766)"/></g><path clip-path="url(#a)" d="m55.296 609.12h1085.2" fill="none" stroke="#b0b0b0" stroke-dasharray=".8 1.32" stroke-width=".8"/><use stroke="#000" stroke-width=".8" x="55.296" xlink:href="#u" y="609.12"/><use transform="matrix(.1 0 0 -.1 41.934 612.92)" xlink:href="#d"/><path clip-path="url(#a)" d="m55.296 579.64h1085.2" fill="none" stroke="#b0b0b0" stroke-dasharray=".8 1.32" stroke-width=".8"/><use stroke="#000" stroke-width=".8" x="55.296" xlink:href="#u" y="579.636"/><use transform="matrix(.1 0 0 -.1 41.934 583.44)" xlink:href="#e"/><path clip-path="url(#a)" d="m55.296 550.15h1085.2" fill="none" stroke="#b0b0b0" stroke-dasharray=".8 1.32" stroke-width=".8"/><use stroke="#000" stroke-width=".8" x="55.296" xlink:href="#u" y="550.152"/><use transform="matrix(.1 0 0 -.1 41.934 553.95)" xlink:href="#c"/><path clip-path="url(#a)" d="m55.296 520.67h1085.2" fill="none" stroke="#b0b0b0" stroke-dasharray=".8 1.32" stroke-width=".8"/><use stroke="#000" stroke-width=".8" x="55.296" xlink:href="#u" y="520.668"/><use transform="matrix(.1 0 0 -.1 41.934 524.47)" xlink:href="#f"/><path clip-path="url(#a)" d="m55.296 491.18h1085.2" fill="none" stroke="#b0b0b0" stroke-dasharray=".8 1.32" stroke-width=".8"/><use stroke="#000" stroke-width=".8" x="55.296" xlink:href="#u" y="491.184"/><use transform="matrix(.1 0 0 -.1 41.934 494.98)" xlink:href="#g"/><path clip-path="url(#a)" d="m55.296 461.7h1085.2" fill="none" stroke="#b0b0b0" stroke-dasharray=".8 1.32" stroke-width=".8"/><use stroke="#000" stroke-width=".8" x="55.296" xlink:href="#u" y="461.7"/><use transform="matrix(.1 0 0 -.1 41.934 465.5)" xlink:href="#h"/><path clip-path="url(#a)" d="m55.296 432.22h1085.2" fill="none" stroke="#b0b0b0" stroke-dasharray=".8 1.32" stroke-width=".8"/><use stroke="#000" stroke-width=".8" x="55.296" xlink:href="#u" y="432.216"/><use transform="matrix(.1 0 0 -.1 41.934 436.02)" xlink:href="#i"/><path clip-path="url(#a)" d="m55.296 402.73h1085.2" fill="none" stroke="#b0b0b0" stroke-dasharray=".8 1.32" stroke-width=".8"/><use stroke="#000" stroke-width=".8" x="55.296" xlink:href="#u" y="402.732"/><use transform="matrix(.1 0 0 -.1 41.934 406.53)" xlink:href="#j"/><path clip-path="url(#a)" d="m55.296 373.25h1085.2" fill="none" stroke="#b0b0b0" stroke-dasharray=".8 1.32" stroke-width=".8"/><use stroke="#000" stroke-width=".8" x="55.296" xlink:href="#u" y="373.248"/><use transform="matrix(.1 0 0 -.1 41.934 377.05)" xlink:href="#k"/><path clip-path="url(#a)" d="m55.296 343.76h1085.2" fill="none" stroke="#b0b0b0" stroke-dasharray=".8 1.32" stroke-width=".8"/><use stroke="#000" stroke-width=".8" x="55.296" xlink:href="#u" y="343.764"/><use transform="matrix(.1 0 0 -.1 41.934 347.56)" xlink:href="#l"/><path clip-path="url(#a)" d="m55.296 314.28h1085.2" fill="none" stroke="#b0b0b0" stroke-dasharray=".8 1.32" stroke-width=".8"/><use stroke="#000" stroke-width=".8" x="55.296" xlink:href="#u" y="314.28"/><g transform="matrix(.1 0 0 -.1 35.571 318.08)"><use xlink:href="#e"/><use x="63.623047" xlink:href="#d"/></g><path clip-path="url(#a)" d="m55.296 284.8h1085.2" fill="none" stroke="#b0b0b0" stroke-dasharray=".8 1.32" stroke-width=".8"/><use stroke="#000" stroke-width=".8" x="55.296" xlink:href="#u" y="284.796"/><g transform="matrix(.1 0 0 -.1 35.571 288.6)"><use xlink:href="#e"/><use x="63.623047" xlink:href="#e"/></g><path clip-path="url(#a)" d="m55.296 255.31h1085.2" fill="none" stroke="#b0b0b0" stroke-dasharray=".8 1.32" stroke-width=".8"/><use stroke="#000" stroke-width=".8" x="55.296" xlink:href="#u" y="255.312"/><g transform="matrix(.1 0 0 -.1 35.571 259.11)"><use xlink:href="#e"/><use x="63.623047" xlink:href="#c"/></g><path clip-path="url(#a)" d="m55.296 225.83h1085.2" fill="none" stroke="#b0b0b0" stroke-dasharray=".8 1.32" stroke-width=".8"/><use stroke="#000" stroke-width=".8" x="55.296" xlink:href="#u" y="225.828"/><g transform="matrix(.1 0 0 -.1 35.571 229.63)"><use xlink:href="#e"/><use x="63.623047" xlink:href="#f"/></g><path clip-path="url(#a)" d="m55.296 196.34h1085.2" fill="none" stroke="#b0b0b0" stroke-dasharray=".8 1.32" stroke-width=".8"/><use stroke="#000" stroke-width=".8" x="55.296" xlink:href="#u" y="196.344"/><g transform="matrix(.1 0 0 -.1 35.571 200.14)"><use xlink:href="#e"/><use x="63.623047" xlink:href="#g"/></g><path clip-path="url(#a)" d="m55.296 166.86h1085.2" fill="none" stroke="#b0b0b0" stroke-dasharray=".8 1.32" stroke-width=".8"/><use stroke="#000" stroke-width=".8" x="55.296" xlink:href="#u" y="166.86"/><g transform="matrix(.1 0 0 -.1 35.571 170.66)"><use xlink:href="#e"/><use x="63.623047" xlink:href="#h"/></g><path clip-path="url(#a)" d="m55.296 137.38h1085.2" fill="none" stroke="#b0b0b0" stroke-dasharray=".8 1.32" stroke-width=".8"/><use stroke="#000" stroke-width=".8" x="55.296" xlink:href="#u" y="137.376"/><g transform="matrix(.1 0 0 -.1 35.571 141.18)"><use xlink:href="#e"/><use x="63.623047" xlink:href="#i"/></g><path clip-path="url(#a)" d="m55.296 107.89h1085.2" fill="none" stroke="#b0b0b0" stroke-dasharray=".8 1.32" stroke-width=".8"/><use stroke="#000" stroke-width=".8" x="55.296" xlink:href="#u" y="107.892"/><g transform="matrix(.1 0 0 -.1 35.571 111.69)"><use xlink:href="#e"/><use x="63.623047" xlink:href="#j"/></g><path clip-path="url(#a)" d="m55.296 78.408h1085.2" fill="none" stroke="#b0b0b0" stroke-dasharray=".8 1.32" stroke-width=".8"/><use stroke="#000" stroke-width=".8" x="55.296" xlink:href="#u" y="78.408"/><g transform="matrix(.1 0 0 -.1 35.571 82.207)"><use xlink:href="#e"/><use x="63.623047" xlink:href="#k"/></g><path clip-path="url(#a)" d="m55.296 48.924h1085.2" fill="none" stroke="#b0b0b0" stroke-dasharray=".8 1.32" stroke-width=".8"/><use stroke="#000" stroke-width=".8" x="55.296" xlink:href="#u" y="48.924"/><g transform="matrix(.1 0 0 -.1 35.571 52.723)"><use xlink:href="#e"/><use x="63.623047" xlink:href="#l"/></g><path clip-path="url(#a)" d="m55.296 19.44h1085.2" fill="none" stroke="#b0b0b0" stroke-dasharray=".8 1.32" stroke-width=".8"/><use stroke="#000" stroke-width=".8" x="55.296" xlink:href="#u" y="19.44"/><g transform="matrix(.1 0 0 -.1 35.571 23.239)"><use xlink:href="#c"/><use x="63.623047" xlink:href="#d"/></g><g transform="matrix(0 -.14 -.14 0 28.659 383.46)"><path d="m48.828 0v29.891h-20.359q-9.0781 0-14.5 5.6875t-5.4219 17.297v20.031h9.8125v-19.25q0-7.75 3.0312-11.609t9.0781-3.8594h18.359v34.719h9.9062v-72.906z"/><use x="68.554688" xlink:href="#n"/><use x="130.078125" xlink:href="#v"/><use x="193.994141" xlink:href="#s"/><use x="255.175781" xlink:href="#w"/><use x="314.111328" xlink:href="#n"/><use x="375.634766" xlink:href="#x"/><use x="467.822266" xlink:href="#w"/><use x="558.544922" xlink:href="#x"/><use x="618.945312" xlink:href="#s"/><use x="680.126953" xlink:href="#y"/><use x="735.107422" xlink:href="#o"/><use x="810.546875" xlink:href="#s"/><use x="871.728516" xlink:href="#y"/><use x="926.708984" xlink:href="#n"/></g><g fill="none"><path clip-path="url(#a)" d="m-1 520.67h2.7571v-206.39h2.9486v206.39h.63738v-88.452h11.308v-206.39h3.5879v206.39h6.5252v-206.39h3.1702v206.39h4.1745v-88.452h2.4882v88.452h8.3703v-176.9h2.4691v206.39h.84299v88.452h4.4817v-88.452h11.308v-176.9h3.1437v176.9h5.3335v58.968h3.5871v-88.452h.74548v-206.39h3.4549v206.39h5.5348v-176.9h2.69v176.9h1.5104v88.452h3.1444v-88.452h23.158v88.452h2.9121v-88.452h11.253v88.452h4.4795v-88.452h16.254v-176.9h2.9242v176.9h1.5136v88.452h4.4798v-88.452h9.5102v-176.9h1.7285v88.452h1.8678v176.9h1.5012v-88.452h7.0402v-117.94h2.9185v117.94h12.971v88.452h13.487v-88.452h1.8112v88.452h6.7315v-88.452h29.241v88.452h4.0308v-88.452h7.3862v-88.452h2.8894v88.452h.51626v88.452h3.1467v-88.452h14.63v88.452h8.3039v-88.452h6.0856v88.452h6.955v-88.452h19.798v88.452h2.9105v-88.452h10.569v88.452h3.3713v-88.452h3.0961v-88.452h3.3377v88.452h17.626v88.452h3.3713v-88.452h9.6685v-88.452h.90069v88.452h27.432v88.452h3.3702v-88.452h11.244v88.452h3.3711v-88.452h24.06v88.452h3.3715v-88.452h10.357v88.452h3.1335v-88.452h24.733v88.452h3.5958v-88.452h17.313v88.452h9.4404v-88.452h9.443v-88.452h2.2497v88.452h20.688v88.452h.8937v-88.452h17.764v88.452h3.8189v-88.452h20.911v88.452h4.2698v-88.452h14.167v88.452h9.1259v-58.968h.53881v-88.452h2.4749v88.452h4.2698v-88.452l.091865 58.968h32.735v88.452h2.2464v-58.968h9.8941v58.968h12.814v-88.452h8.3202v88.452h2.2467v-88.452h21.135v88.452h.67348v-88.452h16.639v88.452h4.9446v-88.452h16.865v88.452h.67192v-88.452h27.432v88.452h1.5706v-58.968l.003125 58.968h12.138v-88.452h2.3281v-58.968l.002243 58.968h1.4933v88.452h14.741v-88.452l.002405 88.452h4.591v-88.452h23.385v88.452h5.844v-88.452h15.289v-88.452h1.8001v88.452h28.781v88.452h14.388v-88.452h1.8017v88.452h9.9622v-58.968h14.622v58.968h16.56v-88.452h1.8013v88.452h5.6906v-117.94h32.981v-88.452h1.8019v88.452h1.418v-117.94h2.0297v117.94h4.652v-58.968l.002699 58.968h5.8059v-88.452h5.6191v-176.9l.002418 176.9h2.0333v-117.94l.001616 117.94h13.13v-117.94h.28113v88.452h.39563v117.94h3.7503v-88.452h1.8846v-117.94l.001611 117.94h.47054v-88.452h.34474v88.452h5.2468v117.94h.44295v-117.94h6.2241v-88.452h.75591v-176.9l.001603 176.9h1.9432v88.452h20.234v-88.452h2.7003v88.452h.25227v-176.9l.001579 176.9h1.8394v-117.94h1.7014v88.452h2.2013v117.94h.36933v-117.94h2.0269v117.94h6.711v-176.9l.001582 176.9h.12524v-88.452h13.82v-176.9l.001622 176.9h10.969v-88.452h1.8002v88.452h1.4196v-117.94h2.1037v117.94" stroke="#00f" stroke-width=".9"/><path d="m55.296 609.12v-589.68" stroke="#000" stroke-width=".8"/><path d="m1140.5 609.12v-589.68" stroke="#000" stroke-width=".8"/><path d="m55.296 609.12h1085.2" stroke="#000" stroke-width=".8"/><path d="m55.296 19.44h1085.2" stroke="#000" stroke-width=".8"/></g><g transform="matrix(.12 0 0 -.12 374.29 13.44)"><path d="m65.375 72.906v-72.906h-9.8594v64.594h-35.844v-64.594h-9.8594v72.906z"/><use x="75.195312" xlink:href="#n"/><use x="136.71875" xlink:href="#m"/><use x="200.195312" xlink:href="#n"/><path d="m56.297 54.688v-54.688h-9.0312v47.516h-29.156v-47.516h-9.0312v54.688z" transform="translate(261.71875)"/><use x="327.099609" xlink:href="#z"/><use x="392.089844" xlink:href="#y"/><use x="447.070312" xlink:href="#A"/><use x="537.792969" xlink:href="#x"/><use x="598.193359" xlink:href="#s"/><use x="659.375" xlink:href="#y"/><use x="714.355469" xlink:href="#o"/><use x="789.794922" xlink:href="#z"/><path d="m41.016 0v23h-16.75q-7.4688 0-12.453 4.6406-4.4844 4.2031-4.4844 13.188v13.859h8.9844v-13.031q0-5.7188 2.5312-8.5938 2.5938-2.8906 7.6719-2.8906h14.5v24.516h8.9844v-54.688z" transform="translate(854.785156)"/><use x="913.867188" xlink:href="#n"/><use x="975.390625" xlink:href="#y"/><use x="1030.371094" xlink:href="#x"/><use x="1090.771484" xlink:href="#s"/><use x="1151.953125" xlink:href="#r"/><use x="1204.492188" xlink:href="#s"/><use x="1297.460938" xlink:href="#B"/><use x="1362.841797" xlink:href="#C"/><use x="1424.121094" xlink:href="#y"/><use x="1479.101562" xlink:href="#n"/><use x="1540.625" xlink:href="#v"/><use x="1604.541016" xlink:href="#n"/><use x="1666.064453" xlink:href="#B"/><use x="1731.445312" xlink:href="#z"/><use x="1796.435547" xlink:href="#p"/><use x="1856.591797" xlink:href="#q"/><use x="1920.166016" xlink:href="#j"/><use x="1983.789062" xlink:href="#c"/><use x="2047.412109" xlink:href="#h"/><use x="2142.822266" xlink:href="#z"/><path d="m34.469 29.5q6.0625-1.1719 9.4219-4.75 3.375-3.5625 3.375-8.8281 0-8.4531-6.2969-12.906-6.2969-4.4375-17.922-4.4375-3.9062 0-8.0312.6875t-8.5156 2.0469v8.3594q3.4688-1.8125 7.6094-2.7188 4.1562-.89062 8.6875-.89062 7.375 0 11.5 2.7344t4.125 7.125q0 4.2969-3.6562 6.9062t-10.344 2.6094h-7.2344v7.4219h7.5625q5.6719 0 8.9688 2.1719t3.2969 5.5938q0 3.125-3.4062 5.375-3.3906 2.25-9.1875 2.25-3.4688 0-7.4062-.64062-3.9219-.64062-8.6719-2.0469v8.1562q4.7969 1.1719 8.9375 1.75 4.1562.59375 7.8594.59375 9.5781 0 15.109-3.8438 5.5469-3.8281 5.5469-10.719 0-4.5312-2.9375-7.6875-2.9219-3.1406-8.3906-4.3125z" transform="translate(2207.8125)"/><use x="2260.986328" xlink:href="#o"/><use x="2336.425781" xlink:href="#n"/><use x="2397.949219" xlink:href="#B"/><use x="2463.330078" xlink:href="#n"/><use x="2524.853516" xlink:href="#B"/><use x="2590.234375" xlink:href="#z"/><path d="m55.906 54.688v-54.688h-8.9375v43.891l-26.359-43.891h-11.531v54.688h8.9375v-43.797l26.328 43.797zm-38.688 20.828h5.7656q.53125-3.6562 2.8906-5.5 2.375-1.8281 6.625-1.8281 4.2031 0 6.5469 1.8125t2.9688 5.5156h5.7656q-.48438-6.9844-4.3438-10.5t-10.938-3.5156-10.938 3.5156-4.3438 10.5z" transform="translate(2655.224609)"/><path d="m10.688 12.406h10.312v-12.406h-10.312z" transform="translate(2720.214844)"/><path d="m9.8125 72.906h9.8594v-29.891h35.844v29.891h9.8594v-72.906h-9.8594v34.719h-35.844v-34.719h-9.8594z" transform="translate(2783.789062)"/><use x="2858.984375" xlink:href="#s"/><use x="2920.166016" xlink:href="#p"/><path d="m31.109 56q11.719 0 18.406-7.625 6.6875-7.6094 6.6875-21.078 0-13.422-6.6875-21.078-6.6875-7.6406-18.406-7.6406-11.766 0-18.266 7.4219t-6.8438 21.297l-.28125 11.188q-.25 5.7969-.25 7.8125 0 7.8125 2.8281 13.562 4.4531 9.0312 12.141 12.938t20.578 4.0156q5.9531.046875 8.5938.875l2.4844-7.125q-2.3906-.98438-4.5781-1.0312l-12.219-.82812q-6.1406-.4375-9.8594-2.5938-9.7188-5.7031-10.641-13.172l-.34375-2.7344q6.3438 5.7969 16.656 5.7969zm0-7.6094q-7.2344 0-11.438-5.6406-4.1875-5.6406-4.1875-15.453t4.1719-15.453 11.453-5.6406q7.1719 0 11.375 5.6562 4.2031 5.6719 4.2031 15.438 0 9.7188-4.2031 15.406t-11.375 5.6875z" transform="translate(2980.322266)"/><use x="3041.992188" xlink:href="#m"/><use x="3105.46875" xlink:href="#A"/><use x="3196.191406" xlink:href="#c"/><use x="3259.814453" xlink:href="#d"/><use x="3323.4375" xlink:href="#c"/><use x="3387.060547" xlink:href="#c"/><use x="3482.470703" xlink:href="#r"/><use x="3535.009766" xlink:href="#s"/><use x="3596.191406" xlink:href="#t"/><use x="3665.332031" xlink:href="#C"/></g></g></svg>