<?xml version="1.0" encoding="UTF-8"?>
<!DOCTYPE svg  PUBLIC '-//W3C//DTD SVG 1.1//EN'  'http://www.w3.org/Graphics/SVG/1.1/DTD/svg11.dtd'>
<svg width="1152pt" height="648pt" version="1.1" viewBox="0 0 1152 648" xmlns="http://www.w3.org/2000/svg" xmlns:xlink="http://www.w3.org/1999/xlink"><defs><style type="text/css">*{stroke-linejoin: round; stroke-linecap: butt}</style></defs><path d="m0 648h1152v-648h-1152z" fill="#fff"/><path d="m55.296 609.12h1085.2v-589.68h-1085.2z" fill="#fff"/><path d="m117.47 609.12v-589.68" clip-path="url(#g)" fill="none" stroke="#b0b0b0" stroke-dasharray="0.8,1.32" stroke-width=".8"/><defs><path id="l" d="m0 0v3.5" stroke="#000" stroke-width=".8"/></defs><use x="117.474569" y="609.12" stroke="#000000" stroke-width=".8" xlink:href="#l"/><g transform="translate(104.75 623.72) scale(.1 -.1)"><defs><path id="p" transform="scale(.015625)" d="m794 531h1031v3560l-1122-225v575l1116 225h631v-4135h1031v-531h-2687v531z"/><path id="r" transform="scale(.015625)" d="m703 97v575q238-113 481-172 244-59 479-59 625 0 954 420 330 420 377 1277-181-269-460-413-278-144-615-144-700 0-1108 423-408 424-408 1159 0 718 425 1152 425 435 1131 435 810 0 1236-621 427-620 427-1801 0-1103-524-1761-523-658-1407-658-238 0-482 47-243 47-506 141zm1256 1978q425 0 673 290 249 291 249 798 0 503-249 795-248 292-673 292t-673-292-248-795q0-507 248-798 248-290 673-290z"/><path id="ae" transform="scale(.015625)" d="m2113 2584q-425 0-674-291-248-290-248-796 0-503 248-796 249-292 674-292t673 292q248 293 248 796 0 506-248 796-248 291-673 291zm1253 1979v-575q-238 112-480 171-242 60-480 60-625 0-955-422-329-422-376-1275 184 272 462 417 279 145 613 145 703 0 1111-427 408-426 408-1160 0-719-425-1154-425-434-1131-434-810 0-1238 620-428 621-428 1799 0 1106 525 1764t1409 658q238 0 480-47t505-140z"/><path id="f" transform="scale(.015625)" d="m2034 4250q-487 0-733-480-245-479-245-1442 0-959 245-1439 246-480 733-480 491 0 736 480 246 480 246 1439 0 963-246 1442-245 480-736 480zm0 500q785 0 1199-621 414-620 414-1801 0-1178-414-1799-414-620-1199-620-784 0-1198 620-414 621-414 1799 0 1181 414 1801 414 621 1198 621z"/></defs><use xlink:href="#p"/><use x="63.623047" xlink:href="#r"/><use x="127.246094" xlink:href="#ae"/><use x="190.869141" xlink:href="#f"/></g><path d="m195.92 609.12v-589.68" clip-path="url(#g)" fill="none" stroke="#b0b0b0" stroke-dasharray="0.8,1.32" stroke-width=".8"/><use x="195.916565" y="609.12" stroke="#000000" stroke-width=".8" xlink:href="#l"/><g transform="translate(183.19 623.72) scale(.1 -.1)"><defs><path id="v" transform="scale(.015625)" d="m691 4666h2478v-532h-1900v-1143q137 47 274 70 138 23 276 23 781 0 1237-428 457-428 457-1159 0-753-469-1171-469-417-1322-417-294 0-599 50-304 50-629 150v635q281-153 581-228t634-75q541 0 856 284 316 284 316 772 0 487-316 771-315 285-856 285-253 0-505-56-251-56-513-175v2344z"/></defs><use xlink:href="#p"/><use x="63.623047" xlink:href="#r"/><use x="127.246094" xlink:href="#ae"/><use x="190.869141" xlink:href="#v"/></g><path d="m274.32 609.12v-589.68" clip-path="url(#g)" fill="none" stroke="#b0b0b0" stroke-dasharray="0.8,1.32" stroke-width=".8"/><use x="274.315627" y="609.12" stroke="#000000" stroke-width=".8" xlink:href="#l"/><g transform="translate(261.59 623.72) scale(.1 -.1)"><defs><path id="ah" transform="scale(.015625)" d="m525 4666h3e3v-269l-1694-4397h-659l1594 4134h-2241v532z"/></defs><use xlink:href="#p"/><use x="63.623047" xlink:href="#r"/><use x="127.246094" xlink:href="#ah"/><use x="190.869141" xlink:href="#f"/></g><path d="m352.71 609.12v-589.68" clip-path="url(#g)" fill="none" stroke="#b0b0b0" stroke-dasharray="0.8,1.32" stroke-width=".8"/><use x="352.714689" y="609.12" stroke="#000000" stroke-width=".8" xlink:href="#l"/><g transform="translate(339.99 623.72) scale(.1 -.1)"><use xlink:href="#p"/><use x="63.623047" xlink:href="#r"/><use x="127.246094" xlink:href="#ah"/><use x="190.869141" xlink:href="#v"/></g><path d="m431.11 609.12v-589.68" clip-path="url(#g)" fill="none" stroke="#b0b0b0" stroke-dasharray="0.8,1.32" stroke-width=".8"/><use x="431.113752" y="609.12" stroke="#000000" stroke-width=".8" xlink:href="#l"/><g transform="translate(418.39 623.72) scale(.1 -.1)"><defs><path id="ap" transform="scale(.015625)" d="m2034 2216q-450 0-708-241-257-241-257-662 0-422 257-663 258-241 708-241t709 242q260 243 260 662 0 421-258 662-257 241-711 241zm-631 268q-406 100-633 378-226 279-226 679 0 559 398 884 399 325 1092 325 697 0 1094-325t397-884q0-400-227-679-226-278-629-378 456-106 710-416 255-309 255-755 0-679-414-1042-414-362-1186-362-771 0-1186 362-414 363-414 1042 0 446 256 755 257 310 713 416zm-231 997q0-362 226-565 227-203 636-203 407 0 636 203 230 203 230 565 0 363-230 566-229 203-636 203-409 0-636-203-226-203-226-566z"/></defs><use xlink:href="#p"/><use x="63.623047" xlink:href="#r"/><use x="127.246094" xlink:href="#ap"/><use x="190.869141" xlink:href="#f"/></g><path d="m509.56 609.12v-589.68" clip-path="url(#g)" fill="none" stroke="#b0b0b0" stroke-dasharray="0.8,1.32" stroke-width=".8"/><use x="509.555748" y="609.12" stroke="#000000" stroke-width=".8" xlink:href="#l"/><g transform="translate(496.83 623.72) scale(.1 -.1)"><use xlink:href="#p"/><use x="63.623047" xlink:href="#r"/><use x="127.246094" xlink:href="#ap"/><use x="190.869141" xlink:href="#v"/></g><path d="m587.95 609.12v-589.68" clip-path="url(#g)" fill="none" stroke="#b0b0b0" stroke-dasharray="0.8,1.32" stroke-width=".8"/><use x="587.95481" y="609.12" stroke="#000000" stroke-width=".8" xlink:href="#l"/><g transform="translate(575.23 623.72) scale(.1 -.1)"><use xlink:href="#p"/><use x="63.623047" xlink:href="#r"/><use x="127.246094" xlink:href="#r"/><use x="190.869141" xlink:href="#f"/></g><path d="m666.35 609.12v-589.68" clip-path="url(#g)" fill="none" stroke="#b0b0b0" stroke-dasharray="0.8,1.32" stroke-width=".8"/><use x="666.353872" y="609.12" stroke="#000000" stroke-width=".8" xlink:href="#l"/><g transform="translate(653.63 623.72) scale(.1 -.1)"><use xlink:href="#p"/><use x="63.623047" xlink:href="#r"/><use x="127.246094" xlink:href="#r"/><use x="190.869141" xlink:href="#v"/></g><path d="m744.75 609.12v-589.68" clip-path="url(#g)" fill="none" stroke="#b0b0b0" stroke-dasharray="0.8,1.32" stroke-width=".8"/><use x="744.752935" y="609.12" stroke="#000000" stroke-width=".8" xlink:href="#l"/><g transform="translate(732.03 623.72) scale(.1 -.1)"><defs><path id="m" transform="scale(.015625)" d="m1228 531h2203v-531h-2962v531q359 372 979 998 621 627 780 809 303 340 423 576 121 236 121 464 0 372-261 606-261 235-680 235-297 0-627-103-329-103-704-313v638q381 153 712 231 332 78 607 78 725 0 1156-363 431-362 431-968 0-288-108-546-107-257-392-607-78-91-497-524-418-433-1181-1211z"/></defs><use xlink:href="#m"/><use x="63.623047" xlink:href="#f"/><use x="127.246094" xlink:href="#f"/><use x="190.869141" xlink:href="#f"/></g><path d="m823.19 609.12v-589.68" clip-path="url(#g)" fill="none" stroke="#b0b0b0" stroke-dasharray="0.8,1.32" stroke-width=".8"/><use x="823.194931" y="609.12" stroke="#000000" stroke-width=".8" xlink:href="#l"/><g transform="translate(810.47 623.72) scale(.1 -.1)"><use xlink:href="#m"/><use x="63.623047" xlink:href="#f"/><use x="127.246094" xlink:href="#f"/><use x="190.869141" xlink:href="#v"/></g><path d="m901.59 609.12v-589.68" clip-path="url(#g)" fill="none" stroke="#b0b0b0" stroke-dasharray="0.8,1.32" stroke-width=".8"/><use x="901.593993" y="609.12" stroke="#000000" stroke-width=".8" xlink:href="#l"/><g transform="translate(888.87 623.72) scale(.1 -.1)"><use xlink:href="#m"/><use x="63.623047" xlink:href="#f"/><use x="127.246094" xlink:href="#p"/><use x="190.869141" xlink:href="#f"/></g><path d="m979.99 609.12v-589.68" clip-path="url(#g)" fill="none" stroke="#b0b0b0" stroke-dasharray="0.8,1.32" stroke-width=".8"/><use x="979.993056" y="609.12" stroke="#000000" stroke-width=".8" xlink:href="#l"/><g transform="translate(967.27 623.72) scale(.1 -.1)"><use xlink:href="#m"/><use x="63.623047" xlink:href="#f"/><use x="127.246094" xlink:href="#p"/><use x="190.869141" xlink:href="#v"/></g><path d="m1058.4 609.12v-589.68" clip-path="url(#g)" fill="none" stroke="#b0b0b0" stroke-dasharray="0.8,1.32" stroke-width=".8"/><use x="1058.392118" y="609.12" stroke="#000000" stroke-width=".8" xlink:href="#l"/><g transform="translate(1045.7 623.72) scale(.1 -.1)"><use xlink:href="#m"/><use x="63.623047" xlink:href="#f"/><use x="127.246094" xlink:href="#m"/><use x="190.869141" xlink:href="#f"/></g><path d="m1136.8 609.12v-589.68" clip-path="url(#g)" fill="none" stroke="#b0b0b0" stroke-dasharray="0.8,1.32" stroke-width=".8"/><use x="1136.834114" y="609.12" stroke="#000000" stroke-width=".8" xlink:href="#l"/><g transform="translate(1124.1 623.72) scale(.1 -.1)"><use xlink:href="#m"/><use x="63.623047" xlink:href="#f"/><use x="127.246094" xlink:href="#m"/><use x="190.869141" xlink:href="#v"/></g><defs><path id="e" d="m0 0v2" stroke="#000" stroke-width=".6"/></defs><use x="70.460892" y="609.12" stroke="#000000" stroke-width=".6" xlink:href="#e"/><use x="86.132118" y="609.12" stroke="#000000" stroke-width=".6" xlink:href="#e"/><use x="101.803343" y="609.12" stroke="#000000" stroke-width=".6" xlink:href="#e"/><use x="133.188729" y="609.12" stroke="#000000" stroke-width=".6" xlink:href="#e"/><use x="148.859954" y="609.12" stroke="#000000" stroke-width=".6" xlink:href="#e"/><use x="164.53118" y="609.12" stroke="#000000" stroke-width=".6" xlink:href="#e"/><use x="180.202405" y="609.12" stroke="#000000" stroke-width=".6" xlink:href="#e"/><use x="211.587791" y="609.12" stroke="#000000" stroke-width=".6" xlink:href="#e"/><use x="227.259016" y="609.12" stroke="#000000" stroke-width=".6" xlink:href="#e"/><use x="242.930242" y="609.12" stroke="#000000" stroke-width=".6" xlink:href="#e"/><use x="258.644402" y="609.12" stroke="#000000" stroke-width=".6" xlink:href="#e"/><use x="289.986853" y="609.12" stroke="#000000" stroke-width=".6" xlink:href="#e"/><use x="305.658078" y="609.12" stroke="#000000" stroke-width=".6" xlink:href="#e"/><use x="321.372239" y="609.12" stroke="#000000" stroke-width=".6" xlink:href="#e"/><use x="337.043464" y="609.12" stroke="#000000" stroke-width=".6" xlink:href="#e"/><use x="368.385915" y="609.12" stroke="#000000" stroke-width=".6" xlink:href="#e"/><use x="384.100075" y="609.12" stroke="#000000" stroke-width=".6" xlink:href="#e"/><use x="399.771301" y="609.12" stroke="#000000" stroke-width=".6" xlink:href="#e"/><use x="415.442526" y="609.12" stroke="#000000" stroke-width=".6" xlink:href="#e"/><use x="446.827912" y="609.12" stroke="#000000" stroke-width=".6" xlink:href="#e"/><use x="462.499137" y="609.12" stroke="#000000" stroke-width=".6" xlink:href="#e"/><use x="478.170363" y="609.12" stroke="#000000" stroke-width=".6" xlink:href="#e"/><use x="493.841588" y="609.12" stroke="#000000" stroke-width=".6" xlink:href="#e"/><use x="525.226974" y="609.12" stroke="#000000" stroke-width=".6" xlink:href="#e"/><use x="540.898199" y="609.12" stroke="#000000" stroke-width=".6" xlink:href="#e"/><use x="556.569425" y="609.12" stroke="#000000" stroke-width=".6" xlink:href="#e"/><use x="572.283585" y="609.12" stroke="#000000" stroke-width=".6" xlink:href="#e"/><use x="603.626036" y="609.12" stroke="#000000" stroke-width=".6" xlink:href="#e"/><use x="619.297261" y="609.12" stroke="#000000" stroke-width=".6" xlink:href="#e"/><use x="635.011422" y="609.12" stroke="#000000" stroke-width=".6" xlink:href="#e"/><use x="650.682647" y="609.12" stroke="#000000" stroke-width=".6" xlink:href="#e"/><use x="682.025098" y="609.12" stroke="#000000" stroke-width=".6" xlink:href="#e"/><use x="697.739258" y="609.12" stroke="#000000" stroke-width=".6" xlink:href="#e"/><use x="713.410484" y="609.12" stroke="#000000" stroke-width=".6" xlink:href="#e"/><use x="729.081709" y="609.12" stroke="#000000" stroke-width=".6" xlink:href="#e"/><use x="760.467095" y="609.12" stroke="#000000" stroke-width=".6" xlink:href="#e"/><use x="776.13832" y="609.12" stroke="#000000" stroke-width=".6" xlink:href="#e"/><use x="791.809546" y="609.12" stroke="#000000" stroke-width=".6" xlink:href="#e"/><use x="807.480771" y="609.12" stroke="#000000" stroke-width=".6" xlink:href="#e"/><use x="838.866157" y="609.12" stroke="#000000" stroke-width=".6" xlink:href="#e"/><use x="854.537382" y="609.12" stroke="#000000" stroke-width=".6" xlink:href="#e"/><use x="870.208608" y="609.12" stroke="#000000" stroke-width=".6" xlink:href="#e"/><use x="885.922768" y="609.12" stroke="#000000" stroke-width=".6" xlink:href="#e"/><use x="917.265219" y="609.12" stroke="#000000" stroke-width=".6" xlink:href="#e"/><use x="932.936444" y="609.12" stroke="#000000" stroke-width=".6" xlink:href="#e"/><use x="948.650605" y="609.12" stroke="#000000" stroke-width=".6" xlink:href="#e"/><use x="964.32183" y="609.12" stroke="#000000" stroke-width=".6" xlink:href="#e"/><use x="995.664281" y="609.12" stroke="#000000" stroke-width=".6" xlink:href="#e"/><use x="1011.378441" y="609.12" stroke="#000000" stroke-width=".6" xlink:href="#e"/><use x="1027.049667" y="609.12" stroke="#000000" stroke-width=".6" xlink:href="#e"/><use x="1042.720892" y="609.12" stroke="#000000" stroke-width=".6" xlink:href="#e"/><use x="1074.106278" y="609.12" stroke="#000000" stroke-width=".6" xlink:href="#e"/><use x="1089.777503" y="609.12" stroke="#000000" stroke-width=".6" xlink:href="#e"/><use x="1105.448729" y="609.12" stroke="#000000" stroke-width=".6" xlink:href="#e"/><use x="1121.119954" y="609.12" stroke="#000000" stroke-width=".6" xlink:href="#e"/><g transform="translate(552.07 640.44) scale(.14 -.14)"><defs><path id="ao" transform="scale(.015625)" d="m1259 2228v-1709h1013q509 0 754 211 246 211 246 645 0 438-246 645-245 208-754 208h-1013zm0 1919v-1406h935q462 0 688 173 227 174 227 530 0 353-227 528-226 175-688 175h-935zm-631 519h1613q722 0 1112-300 391-300 391-853 0-429-200-682t-588-315q466-100 724-418 258-317 258-792 0-625-425-966-425-340-1210-340h-1675v4666z"/><path id="x" transform="scale(.015625)" d="m1159 525v-1856h-578v4831h578v-531q182 312 458 463 277 152 661 152 638 0 1036-506 399-506 399-1331t-399-1332q-398-506-1036-506-384 0-661 152-276 152-458 464zm1957 1222q0 634-261 995t-717 361q-457 0-718-361t-261-995 261-995 718-361q456 0 717 361t261 995z"/><path id="q" transform="scale(.015625)" d="m3597 1894v-281h-2644q38-594 358-905t892-311q331 0 642 81t618 244v-544q-310-131-635-200t-659-69q-838 0-1327 487-489 488-489 1320 0 859 464 1363 464 505 1252 505 706 0 1117-455 411-454 411-1235zm-575 169q-6 471-264 752-258 282-683 282-481 0-770-272t-333-766l2050 4z"/><path id="al" transform="scale(.015625)" d="m581 3500h841l994-2344 997 2344h834v-3500h-578v2950l-966-2278h-575l-969 2278v-2950h-578v3500z"/><path id="ar" transform="scale(.015625)" d="m1181 2491q0-260 200-407 200-146 572-146h775v1103h-775q-372 0-572-144t-200-406zm-818-2491 1068 1534q-362 82-603 296-240 214-240 661 0 506 335 757 336 252 1015 252h1368v-3500h-578v1478h-715l-1032-1478h-618z"/><path id="ai" transform="scale(.015625)" d="m750 794h659v-538l-512-1e3h-403l256 1e3v538z"/><path id="ac" transform="scale(.015625)" d="m581 0v3500h2469v-459h-1891v-3041h-578z"/><path id="i" transform="scale(.015625)" d="m1959 3097q-462 0-731-361t-269-989 267-989q268-361 733-361 460 0 728 362 269 363 269 988 0 622-269 986-268 364-728 364zm0 487q750 0 1178-488 429-487 429-1349 0-859-429-1349-428-489-1178-489-753 0-1180 489-426 490-426 1349 0 862 426 1349 427 488 1180 488z"/><path id="af" transform="scale(.015625)" d="m1384 459h1669v2582h-1209v-438q0-1287-369-1975l-91-169zm-834 0q284 125 409 391 307 659 307 1988v662h2365v-3041h460v-1343h-460v884h-2837v-884h-460v1343h216z"/><path id="u" transform="scale(.015625)" d="m3907 3500h575v-3500h-575v3500zm288 84zm-1414-2546q0 281-205 428-204 147-598 147h-819v-1154h819q394 0 598 148 205 149 205 431zm-2200 2462h578v-1428h844q669 0 1030-255 361-254 361-779t-361-782q-361-256-1030-256h-1422v3500z"/></defs><use xlink:href="#ao"/><use x="68.603516" xlink:href="#x"/><use x="132.080078" xlink:href="#q"/><use x="193.603516" xlink:href="#al"/><use x="269.042969" xlink:href="#ar"/><use x="329.199219" xlink:href="#ai"/><use x="360.986328" xlink:href="#DejaVuSans-20"/><use x="392.773438" xlink:href="#ac"/><use x="445.3125" xlink:href="#i"/><use x="506.494141" xlink:href="#af"/><use x="575.634766" xlink:href="#u"/></g><path d="m55.296 602.67h1085.2" clip-path="url(#g)" fill="none" stroke="#b0b0b0" stroke-dasharray="0.8,1.32" stroke-width=".8"/><defs><path id="ad" d="m0 0h-3.5" stroke="#000" stroke-width=".8"/></defs><use x="55.296" y="602.668359" stroke="#000000" stroke-width=".8" xlink:href="#ad"/><g transform="translate(41.934 606.47) scale(.1 -.1)"><use xlink:href="#f"/></g><path d="m55.296 473.64h1085.2" clip-path="url(#g)" fill="none" stroke="#b0b0b0" stroke-dasharray="0.8,1.32" stroke-width=".8"/><use x="55.296" y="473.635536" stroke="#000000" stroke-width=".8" xlink:href="#ad"/><g transform="translate(29.208 477.43) scale(.1 -.1)"><use xlink:href="#p"/><use x="63.623047" xlink:href="#f"/><use x="127.246094" xlink:href="#f"/></g><path d="m55.296 344.6h1085.2" clip-path="url(#g)" fill="none" stroke="#b0b0b0" stroke-dasharray="0.8,1.32" stroke-width=".8"/><use x="55.296" y="344.602713" stroke="#000000" stroke-width=".8" xlink:href="#ad"/><g transform="translate(29.208 348.4) scale(.1 -.1)"><use xlink:href="#m"/><use x="63.623047" xlink:href="#f"/><use x="127.246094" xlink:href="#f"/></g><path d="m55.296 215.57h1085.2" clip-path="url(#g)" fill="none" stroke="#b0b0b0" stroke-dasharray="0.8,1.32" stroke-width=".8"/><use x="55.296" y="215.569891" stroke="#000000" stroke-width=".8" xlink:href="#ad"/><g transform="translate(29.208 219.37) scale(.1 -.1)"><defs><path id="am" transform="scale(.015625)" d="m2597 2516q453-97 707-404 255-306 255-756 0-690-475-1069-475-378-1350-378-293 0-604 58t-642 174v609q262-153 574-231 313-78 654-78 593 0 904 234t311 681q0 413-289 645-289 233-804 233h-544v519h569q465 0 712 186t247 536q0 359-255 551-254 193-729 193-260 0-557-57-297-56-653-174v562q360 100 674 150t592 50q719 0 1137-327 419-326 419-882 0-388-222-655t-631-370z"/></defs><use xlink:href="#am"/><use x="63.623047" xlink:href="#f"/><use x="127.246094" xlink:href="#f"/></g><path d="m55.296 86.537h1085.2" clip-path="url(#g)" fill="none" stroke="#b0b0b0" stroke-dasharray="0.8,1.32" stroke-width=".8"/><use x="55.296" y="86.537068" stroke="#000000" stroke-width=".8" xlink:href="#ad"/><g transform="translate(29.208 90.336) scale(.1 -.1)"><defs><path id="ba" transform="scale(.015625)" d="m2419 4116-1594-2491h1594v2491zm-166 550h794v-3041h666v-525h-666v-1100h-628v1100h-2106v609l1940 2957z"/></defs><use xlink:href="#ba"/><use x="63.623047" xlink:href="#f"/><use x="127.246094" xlink:href="#f"/></g><g transform="translate(22.713 381.56) rotate(-90) scale(.12 -.12)"><defs><path id="aw" transform="scale(.015625)" d="m628 4666h631v-2307l2257 2307h809l-1803-1844 1897-2822h-688l-1618 2403-854-872v-1531h-631v4666z"/><path id="y" transform="scale(.015625)" d="m238 0v478q568 88 743 481 213 554 213 1969v572h2365v-3500h-575v3041h-1215v-347q0-1350-275-1956-294-647-1256-738z"/><path id="o" transform="scale(.015625)" d="m3578 3500v-3500h-572v2809l-1687-2809h-738v3500h572v-2803l1685 2803h740z"/><path id="ab" transform="scale(.015625)" d="m2625 0v1472h-1072q-478 0-797 297-287 269-287 844v887h575v-834q0-366 162-550 166-185 491-185h928v1569h575v-3500h-575z"/><path id="j" transform="scale(.015625)" d="m3122 3366v-538q-244 135-489 202t-495 67q-560 0-870-355-309-354-309-995t309-996q310-354 870-354 250 0 495 67t489 202v-532q-241-112-499-168-257-57-548-57-791 0-1257 497-465 497-465 1341 0 856 470 1346 471 491 1290 491 265 0 518-55 253-54 491-163z"/><path id="w" transform="scale(.015625)" d="m188 3500h3353v-459h-1394v-3041h-566v3041h-1393v459z"/><path id="aa" transform="scale(.015625)" d="m1156 1613v-1154h819q394 0 600 148 206 149 206 431 0 281-206 428t-600 147h-819zm0 1428v-969h757q325 0 531 129 206 130 206 362 0 231-206 354-206 124-531 124h-757zm-575 459h1369q616 0 947-225t331-641q0-321-169-511-168-189-500-235 397-75 616-313 219-237 219-594 0-468-361-725-361-256-1030-256h-1422v3500z"/><path id="z" transform="scale(.015625)" d="m2206 1888q388-75 603-304 216-228 216-565 0-541-403-826-403-284-1147-284-250 0-514 44t-545 131v535q222-116 487-174 266-57 556-57 472 0 736 175t264 456q0 275-234 442t-662 167h-463v475h484q363 0 574 139t211 358q0 200-218 344-217 144-588 144-222 0-474-41-251-41-555-131v522q307 75 572 112 266 38 503 38 613 0 967-246 355-245 355-686 0-290-188-492-187-201-537-276z"/><path id="h" transform="scale(.015625)" d="m2194 1759q-697 0-966-159t-269-544q0-306 202-486 202-179 548-179 479 0 768 339t289 901v128h-572zm1147 238v-1997h-575v531q-197-318-491-470t-719-152q-537 0-855 302-317 302-317 808 0 590 395 890 396 300 1180 300h807v57q0 397-261 614t-733 217q-300 0-585-72-284-72-546-216v532q315 122 612 182 297 61 578 61 760 0 1135-394 375-393 375-1193z"/><path id="s" transform="scale(.015625)" d="m3603 3500v-3500h-578v3041h-1866v-3041h-578v3500h3022z"/><path id="n" transform="scale(.015625)" d="m2059-325q-243-625-475-815-231-191-618-191h-460v481h338q237 0 368 113 132 112 291 531l103 262-1415 3444h609l1094-2737 1094 2737h609l-1538-3825z"/><path id="k" transform="scale(.015625)" d="m581 3500h572v-1644l1622 1644h706l-1337-1353 1509-2147h-644l-1240 1766-616-625v-1141h-572v3500z"/></defs><use xlink:href="#aw"/><use x="70.996094" xlink:href="#i"/><use x="132.177734" xlink:href="#y"/><use x="196.09375" xlink:href="#o"/><use x="261.083984" xlink:href="#ab"/><use x="320.166016" xlink:href="#q"/><use x="381.689453" xlink:href="#j"/><use x="436.669922" xlink:href="#w"/><use x="494.921875" xlink:href="#aa"/><use x="553.857422" xlink:href="#i"/><use x="615.039062" xlink:href="#DejaVuSans-20"/><use x="646.826172" xlink:href="#z"/><use x="700" xlink:href="#h"/><use x="761.279297" xlink:href="#s"/><use x="826.660156" xlink:href="#n"/><use x="885.839844" xlink:href="#j"/><use x="940.820312" xlink:href="#k"/><use x="1001.220703" xlink:href="#i"/><use x="1062.402344" xlink:href="#aa"/></g><defs><path id="a" d="m0 0.75c0.1989 0 0.38968-0.079025 0.53033-0.21967s0.21967-0.33143 0.21967-0.53033-0.079025-0.38968-0.21967-0.53033-0.33143-0.21967-0.53033-0.21967-0.38968 0.079025-0.53033 0.21967-0.21967 0.33143-0.21967 0.53033 0.079025 0.38968 0.21967 0.53033 0.33143 0.21967 0.53033 0.21967z" stroke="#00f"/></defs><g clip-path="url(#g)" fill="#0000ff" stroke="#0000ff"><use x="82.344964" y="601.378031" xlink:href="#a"/><use x="83.602628" y="600.087702" xlink:href="#a"/><use x="87.468585" y="598.797374" xlink:href="#a"/><use x="89.37373" y="597.507046" xlink:href="#a"/><use x="89.769148" y="596.216718" xlink:href="#a"/><use x="91.897912" y="594.926389" xlink:href="#a"/><use x="95.003534" y="593.636061" xlink:href="#a"/><use x="98.297115" y="592.345733" xlink:href="#a"/><use x="100.696101" y="591.055405" xlink:href="#a"/><use x="101.243401" y="589.765077" xlink:href="#a"/><use x="101.87502" y="588.474748" xlink:href="#a"/><use x="103.848265" y="587.18442" xlink:href="#a"/><use x="104.331252" y="585.894092" xlink:href="#a"/><use x="104.431344" y="584.603764" xlink:href="#a"/><use x="106.220297" y="583.313435" xlink:href="#a"/><use x="111.188248" y="582.023107" xlink:href="#a"/><use x="111.454743" y="580.732779" xlink:href="#a"/><use x="111.712412" y="579.442451" xlink:href="#a"/><use x="112.719622" y="578.152123" xlink:href="#a"/><use x="112.975412" y="576.861794" xlink:href="#a"/><use x="113.653485" y="575.571466" xlink:href="#a"/><use x="114.066703" y="574.281138" xlink:href="#a"/><use x="115.14899" y="572.99081" xlink:href="#a"/><use x="115.705354" y="571.700481" xlink:href="#a"/><use x="120.503265" y="570.410153" xlink:href="#a"/><use x="121.401439" y="569.119825" xlink:href="#a"/><use x="121.918327" y="567.829497" xlink:href="#a"/><use x="122.018598" y="566.539168" xlink:href="#a"/><use x="123.270775" y="565.24884" xlink:href="#a"/><use x="123.687691" y="563.958512" xlink:href="#a"/><use x="124.911394" y="562.668184" xlink:href="#a"/><use x="127.041977" y="561.377856" xlink:href="#a"/><use x="127.108168" y="560.087527" xlink:href="#a"/><use x="127.383726" y="558.797199" xlink:href="#a"/><use x="127.406953" y="557.506871" xlink:href="#a"/><use x="128.505281" y="556.216543" xlink:href="#a"/><use x="129.398087" y="554.926214" xlink:href="#a"/><use x="130.664576" y="553.635886" xlink:href="#a"/><use x="131.077884" y="552.345558" xlink:href="#a"/><use x="131.533977" y="551.05523" xlink:href="#a"/><use x="131.87036" y="549.764902" xlink:href="#a"/><use x="132.151196" y="548.474573" xlink:href="#a"/><use x="132.709379" y="547.184245" xlink:href="#a"/><use x="134.512613" y="545.893917" xlink:href="#a"/><use x="134.650333" y="544.603589" xlink:href="#a"/><use x="134.992083" y="543.31326" xlink:href="#a"/><use x="135.186989" y="542.022932" xlink:href="#a"/><use x="135.242506" y="540.732604" xlink:href="#a"/><use x="135.289108" y="539.442276" xlink:href="#a"/><use x="135.426828" y="538.151947" xlink:href="#a"/><use x="136.076158" y="536.861619" xlink:href="#a"/><use x="136.761416" y="535.571291" xlink:href="#a"/><use x="136.779187" y="534.280963" xlink:href="#a"/><use x="137.38746" y="532.990635" xlink:href="#a"/><use x="137.535884" y="531.700306" xlink:href="#a"/><use x="138.194248" y="530.409978" xlink:href="#a"/><use x="140.357062" y="529.11965" xlink:href="#a"/><use x="140.881285" y="527.829322" xlink:href="#a"/><use x="141.258754" y="526.538993" xlink:href="#a"/><use x="141.450172" y="525.248665" xlink:href="#a"/><use x="141.459087" y="523.958337" xlink:href="#a"/><use x="142.516328" y="522.668009" xlink:href="#a"/><use x="142.940369" y="521.377681" xlink:href="#a"/><use x="143.253377" y="520.087352" xlink:href="#a"/><use x="143.353618" y="518.797024" xlink:href="#a"/><use x="143.57181" y="517.506696" xlink:href="#a"/><use x="144.128323" y="516.216368" xlink:href="#a"/><use x="144.162165" y="514.926039" xlink:href="#a"/><use x="144.346427" y="513.635711" xlink:href="#a"/><use x="145.459215" y="512.345383" xlink:href="#a"/><use x="145.792049" y="511.055055" xlink:href="#a"/><use x="146.448446" y="509.764726" xlink:href="#a"/><use x="146.879643" y="508.474398" xlink:href="#a"/><use x="146.881432" y="507.18407" xlink:href="#a"/><use x="146.985162" y="505.893742" xlink:href="#a"/><use x="147.469938" y="504.603414" xlink:href="#a"/><use x="148.037155" y="503.313085" xlink:href="#a"/><use x="148.464626" y="502.022757" xlink:href="#a"/><use x="149.969194" y="500.732429" xlink:href="#a"/><use x="150.513066" y="499.442101" xlink:href="#a"/><use x="151.031862" y="498.151772" xlink:href="#a"/><use x="151.081953" y="496.861444" xlink:href="#a"/><use x="151.341321" y="495.571116" xlink:href="#a"/><use x="151.679344" y="494.280788" xlink:href="#a"/><use x="151.690107" y="492.99046" xlink:href="#a"/><use x="152.056962" y="491.700131" xlink:href="#a"/><use x="152.969208" y="490.409803" xlink:href="#a"/><use x="153.094405" y="489.119475" xlink:href="#a"/><use x="153.454134" y="487.829147" xlink:href="#a"/><use x="153.704587" y="486.538818" xlink:href="#a"/><use x="153.71875" y="485.24849" xlink:href="#a"/><use x="153.815353" y="483.958162" xlink:href="#a"/><use x="153.829665" y="482.667834" xlink:href="#a"/><use x="153.829814" y="481.377505" xlink:href="#a"/><use x="153.926358" y="480.087177" xlink:href="#a"/><use x="154.647306" y="478.796849" xlink:href="#a"/><use x="155.021227" y="477.506521" xlink:href="#a"/><use x="155.176746" y="476.216193" xlink:href="#a"/><use x="155.259038" y="474.925864" xlink:href="#a"/><use x="155.386143" y="473.635536" xlink:href="#a"/><use x="156.062308" y="472.345208" xlink:href="#a"/><use x="156.10885" y="471.05488" xlink:href="#a"/><use x="156.137444" y="469.764551" xlink:href="#a"/><use x="156.287775" y="468.474223" xlink:href="#a"/><use x="156.504149" y="467.183895" xlink:href="#a"/><use x="156.616853" y="465.893567" xlink:href="#a"/><use x="157.03198" y="464.603239" xlink:href="#a"/><use x="157.396985" y="463.31291" xlink:href="#a"/><use x="157.490011" y="462.022582" xlink:href="#a"/><use x="157.790495" y="460.732254" xlink:href="#a"/><use x="157.806536" y="459.441926" xlink:href="#a"/><use x="158.00511" y="458.151597" xlink:href="#a"/><use x="158.164446" y="456.861269" xlink:href="#a"/><use x="158.405895" y="455.570941" xlink:href="#a"/><use x="158.448741" y="454.280613" xlink:href="#a"/><use x="158.718872" y="452.990284" xlink:href="#a"/><use x="158.92648" y="451.699956" xlink:href="#a"/><use x="158.99619" y="450.409628" xlink:href="#a"/><use x="159.089335" y="449.1193" xlink:href="#a"/><use x="159.166111" y="447.828972" xlink:href="#a"/><use x="159.296734" y="446.538643" xlink:href="#a"/><use x="159.328995" y="445.248315" xlink:href="#a"/><use x="159.765559" y="443.957987" xlink:href="#a"/><use x="160.021349" y="442.667659" xlink:href="#a"/><use x="160.03748" y="441.37733" xlink:href="#a"/><use x="160.425623" y="440.087002" xlink:href="#a"/><use x="160.506036" y="438.796674" xlink:href="#a"/><use x="160.536538" y="437.506346" xlink:href="#a"/><use x="160.663494" y="436.216018" xlink:href="#a"/><use x="160.688539" y="434.925689" xlink:href="#a"/><use x="160.956942" y="433.635361" xlink:href="#a"/><use x="161.284231" y="432.345033" xlink:href="#a"/><use x="161.339837" y="431.054705" xlink:href="#a"/><use x="161.40409" y="429.764376" xlink:href="#a"/><use x="161.599235" y="428.474048" xlink:href="#a"/><use x="161.683197" y="427.18372" xlink:href="#a"/><use x="161.738654" y="425.893392" xlink:href="#a"/><use x="161.88353" y="424.603063" xlink:href="#a"/><use x="161.940806" y="423.312735" xlink:href="#a"/><use x="162.067881" y="422.022407" xlink:href="#a"/><use x="162.123249" y="420.732079" xlink:href="#a"/><use x="162.37731" y="419.441751" xlink:href="#a"/><use x="162.939012" y="418.151422" xlink:href="#a"/><use x="163.366661" y="416.861094" xlink:href="#a"/><use x="163.722573" y="415.570766" xlink:href="#a"/><use x="163.756653" y="414.280438" xlink:href="#a"/><use x="163.79598" y="412.990109" xlink:href="#a"/><use x="163.869357" y="411.699781" xlink:href="#a"/><use x="163.974875" y="410.409453" xlink:href="#a"/><use x="164.117991" y="409.119125" xlink:href="#a"/><use x="164.674415" y="407.828796" xlink:href="#a"/><use x="164.826357" y="406.538468" xlink:href="#a"/><use x="165.21292" y="405.24814" xlink:href="#a"/><use x="166.429348" y="403.957812" xlink:href="#a"/><use x="166.66376" y="402.667484" xlink:href="#a"/><use x="167.937435" y="401.377155" xlink:href="#a"/><use x="168.436463" y="400.086827" xlink:href="#a"/><use x="168.452594" y="398.796499" xlink:href="#a"/><use x="168.484765" y="397.506171" xlink:href="#a"/><use x="168.930214" y="396.215842" xlink:href="#a"/><use x="169.311351" y="394.925514" xlink:href="#a"/><use x="169.56899" y="393.635186" xlink:href="#a"/><use x="169.96074" y="392.344858" xlink:href="#a"/><use x="170.062621" y="391.05453" xlink:href="#a"/><use x="170.307708" y="389.764201" xlink:href="#a"/><use x="170.452673" y="388.473873" xlink:href="#a"/><use x="170.590362" y="387.183545" xlink:href="#a"/><use x="170.688844" y="385.893217" xlink:href="#a"/><use x="171.527923" y="384.602888" xlink:href="#a"/><use x="171.592325" y="383.31256" xlink:href="#a"/><use x="171.640537" y="382.022232" xlink:href="#a"/><use x="171.660275" y="380.731904" xlink:href="#a"/><use x="171.674527" y="379.441575" xlink:href="#a"/><use x="171.803421" y="378.151247" xlink:href="#a"/><use x="172.13074" y="376.860919" xlink:href="#a"/><use x="172.211183" y="375.570591" xlink:href="#a"/><use x="172.255967" y="374.280263" xlink:href="#a"/><use x="172.810572" y="372.989934" xlink:href="#a"/><use x="173.075218" y="371.699606" xlink:href="#a"/><use x="173.080734" y="370.409278" xlink:href="#a"/><use x="173.400896" y="369.11895" xlink:href="#a"/><use x="173.590436" y="367.828621" xlink:href="#a"/><use x="173.858779" y="366.538293" xlink:href="#a"/><use x="174.663867" y="365.247965" xlink:href="#a"/><use x="174.871416" y="363.957637" xlink:href="#a"/><use x="175.213106" y="362.667309" xlink:href="#a"/><use x="175.950065" y="361.37698" xlink:href="#a"/><use x="176.159432" y="360.086652" xlink:href="#a"/><use x="176.943023" y="358.796324" xlink:href="#a"/><use x="176.99845" y="357.505996" xlink:href="#a"/><use x="177.315185" y="356.215667" xlink:href="#a"/><use x="177.492172" y="354.925339" xlink:href="#a"/><use x="177.597839" y="353.635011" xlink:href="#a"/><use x="178.02352" y="352.344683" xlink:href="#a"/><use x="178.24538" y="351.054354" xlink:href="#a"/><use x="178.703352" y="349.764026" xlink:href="#a"/><use x="178.733675" y="348.473698" xlink:href="#a"/><use x="178.737283" y="347.18337" xlink:href="#a"/><use x="179.080881" y="345.893042" xlink:href="#a"/><use x="179.411718" y="344.602713" xlink:href="#a"/><use x="179.639004" y="343.312385" xlink:href="#a"/><use x="179.660412" y="342.022057" xlink:href="#a"/><use x="179.676572" y="340.731729" xlink:href="#a"/><use x="179.746312" y="339.4414" xlink:href="#a"/><use x="179.767809" y="338.151072" xlink:href="#a"/><use x="180.667533" y="336.860744" xlink:href="#a"/><use x="180.993271" y="335.570416" xlink:href="#a"/><use x="181.0987" y="334.280088" xlink:href="#a"/><use x="181.256247" y="332.989759" xlink:href="#a"/><use x="181.433264" y="331.699431" xlink:href="#a"/><use x="181.463736" y="330.409103" xlink:href="#a"/><use x="181.47447" y="329.118775" xlink:href="#a"/><use x="182.172131" y="327.828446" xlink:href="#a"/><use x="182.596173" y="326.538118" xlink:href="#a"/><use x="182.673038" y="325.24779" xlink:href="#a"/><use x="182.698054" y="323.957462" xlink:href="#a"/><use x="183.243654" y="322.667133" xlink:href="#a"/><use x="183.535224" y="321.376805" xlink:href="#a"/><use x="183.90023" y="320.086477" xlink:href="#a"/><use x="183.925275" y="318.796149" xlink:href="#a"/><use x="184.15611" y="317.505821" xlink:href="#a"/><use x="184.254502" y="316.215492" xlink:href="#a"/><use x="184.438645" y="314.925164" xlink:href="#a"/><use x="184.597951" y="313.634836" xlink:href="#a"/><use x="185.086365" y="312.344508" xlink:href="#a"/><use x="185.157864" y="311.054179" xlink:href="#a"/><use x="185.26699" y="309.763851" xlink:href="#a"/><use x="186.143636" y="308.473523" xlink:href="#a"/><use x="186.204401" y="307.183195" xlink:href="#a"/><use x="186.587177" y="305.892867" xlink:href="#a"/><use x="186.862825" y="304.602538" xlink:href="#a"/><use x="186.896815" y="303.31221" xlink:href="#a"/><use x="186.953912" y="302.021882" xlink:href="#a"/><use x="187.134597" y="300.731554" xlink:href="#a"/><use x="187.270676" y="299.441225" xlink:href="#a"/><use x="187.465702" y="298.150897" xlink:href="#a"/><use x="187.542508" y="296.860569" xlink:href="#a"/><use x="187.690961" y="295.570241" xlink:href="#a"/><use x="188.036229" y="294.279912" xlink:href="#a"/><use x="188.10078" y="292.989584" xlink:href="#a"/><use x="188.263575" y="291.699256" xlink:href="#a"/><use x="188.440681" y="290.408928" xlink:href="#a"/><use x="188.44414" y="289.1186" xlink:href="#a"/><use x="188.637377" y="287.828271" xlink:href="#a"/><use x="188.717879" y="286.537943" xlink:href="#a"/><use x="189.204564" y="285.247615" xlink:href="#a"/><use x="189.267118" y="283.957287" xlink:href="#a"/><use x="189.560446" y="282.666958" xlink:href="#a"/><use x="189.921874" y="281.37663" xlink:href="#a"/><use x="189.945041" y="280.086302" xlink:href="#a"/><use x="190.093554" y="278.795974" xlink:href="#a"/><use x="190.141856" y="277.505646" xlink:href="#a"/><use x="190.233182" y="276.215317" xlink:href="#a"/><use x="190.261746" y="274.924989" xlink:href="#a"/><use x="190.268842" y="273.634661" xlink:href="#a"/><use x="190.401344" y="272.344333" xlink:href="#a"/><use x="190.519444" y="271.054004" xlink:href="#a"/><use x="190.535396" y="269.763676" xlink:href="#a"/><use x="190.8521" y="268.473348" xlink:href="#a"/><use x="191.20995" y="267.18302" xlink:href="#a"/><use x="191.276171" y="265.892691" xlink:href="#a"/><use x="191.437088" y="264.602363" xlink:href="#a"/><use x="191.658858" y="263.312035" xlink:href="#a"/><use x="191.687481" y="262.021707" xlink:href="#a"/><use x="192.100849" y="260.731379" xlink:href="#a"/><use x="192.176014" y="259.44105" xlink:href="#a"/><use x="192.193755" y="258.150722" xlink:href="#a"/><use x="192.211644" y="256.860394" xlink:href="#a"/><use x="192.358339" y="255.570066" xlink:href="#a"/><use x="192.451454" y="254.279737" xlink:href="#a"/><use x="192.542601" y="252.989409" xlink:href="#a"/><use x="192.692873" y="251.699081" xlink:href="#a"/><use x="192.943386" y="250.408753" xlink:href="#a"/><use x="192.963034" y="249.118425" xlink:href="#a"/><use x="193.143808" y="247.828096" xlink:href="#a"/><use x="193.378131" y="246.537768" xlink:href="#a"/><use x="193.429951" y="245.24744" xlink:href="#a"/><use x="193.503328" y="243.957112" xlink:href="#a"/><use x="193.53368" y="242.666783" xlink:href="#a"/><use x="194.0633" y="241.376455" xlink:href="#a"/><use x="194.186648" y="240.086127" xlink:href="#a"/><use x="194.481885" y="238.795799" xlink:href="#a"/><use x="194.565966" y="237.50547" xlink:href="#a"/><use x="194.748379" y="236.215142" xlink:href="#a"/><use x="194.970209" y="234.924814" xlink:href="#a"/><use x="195.000771" y="233.634486" xlink:href="#a"/><use x="195.040038" y="232.344158" xlink:href="#a"/><use x="195.100803" y="231.053829" xlink:href="#a"/><use x="195.222511" y="229.763501" xlink:href="#a"/><use x="195.39601" y="228.473173" xlink:href="#a"/><use x="195.460382" y="227.182845" xlink:href="#a"/><use x="195.478272" y="225.892516" xlink:href="#a"/><use x="196.362074" y="224.602188" xlink:href="#a"/><use x="196.555222" y="223.31186" xlink:href="#a"/><use x="196.698338" y="222.021532" xlink:href="#a"/><use x="196.830869" y="220.731204" xlink:href="#a"/><use x="196.896911" y="219.440875" xlink:href="#a"/><use x="197.177866" y="218.150547" xlink:href="#a"/><use x="197.362129" y="216.860219" xlink:href="#a"/><use x="197.703759" y="215.569891" xlink:href="#a"/><use x="197.916704" y="214.279562" xlink:href="#a"/><use x="197.964916" y="212.989234" xlink:href="#a"/><use x="198.125922" y="211.698906" xlink:href="#a"/><use x="198.16179" y="210.408578" xlink:href="#a"/><use x="198.31567" y="209.118249" xlink:href="#a"/><use x="198.329863" y="207.827921" xlink:href="#a"/><use x="198.721792" y="206.537593" xlink:href="#a"/><use x="198.825462" y="205.247265" xlink:href="#a"/><use x="198.902417" y="203.956937" xlink:href="#a"/><use x="198.938166" y="202.666608" xlink:href="#a"/><use x="198.956056" y="201.37628" xlink:href="#a"/><use x="199.070489" y="200.085952" xlink:href="#a"/><use x="199.18689" y="198.795624" xlink:href="#a"/><use x="199.192138" y="197.505295" xlink:href="#a"/><use x="199.346077" y="196.214967" xlink:href="#a"/><use x="199.419394" y="194.924639" xlink:href="#a"/><use x="199.498049" y="193.634311" xlink:href="#a"/><use x="199.517757" y="192.343982" xlink:href="#a"/><use x="199.904201" y="191.053654" xlink:href="#a"/><use x="200.036643" y="189.763326" xlink:href="#a"/><use x="200.483911" y="188.472998" xlink:href="#a"/><use x="200.727208" y="187.18267" xlink:href="#a"/><use x="200.977542" y="185.892341" xlink:href="#a"/><use x="201.007955" y="184.602013" xlink:href="#a"/><use x="201.020567" y="183.311685" xlink:href="#a"/><use x="201.310258" y="182.021357" xlink:href="#a"/><use x="201.342518" y="180.731028" xlink:href="#a"/><use x="201.42487" y="179.4407" xlink:href="#a"/><use x="201.830843" y="178.150372" xlink:href="#a"/><use x="201.913224" y="176.860044" xlink:href="#a"/><use x="202.111798" y="175.569716" xlink:href="#a"/><use x="202.117224" y="174.279387" xlink:href="#a"/><use x="202.220954" y="172.989059" xlink:href="#a"/><use x="202.292393" y="171.698731" xlink:href="#a"/><use x="202.512464" y="170.408403" xlink:href="#a"/><use x="202.712916" y="169.118074" xlink:href="#a"/><use x="202.780926" y="167.827746" xlink:href="#a"/><use x="203.017038" y="166.537418" xlink:href="#a"/><use x="203.154668" y="165.24709" xlink:href="#a"/><use x="203.426678" y="163.956761" xlink:href="#a"/><use x="203.446386" y="162.666433" xlink:href="#a"/><use x="203.464246" y="161.376105" xlink:href="#a"/><use x="203.737866" y="160.085777" xlink:href="#a"/><use x="203.741504" y="158.795449" xlink:href="#a"/><use x="204.337255" y="157.50512" xlink:href="#a"/><use x="204.351507" y="156.214792" xlink:href="#a"/><use x="204.383827" y="154.924464" xlink:href="#a"/><use x="204.442803" y="153.634136" xlink:href="#a"/><use x="204.49996" y="152.343807" xlink:href="#a"/><use x="204.517909" y="151.053479" xlink:href="#a"/><use x="204.639588" y="149.763151" xlink:href="#a"/><use x="204.956143" y="148.472823" xlink:href="#a"/><use x="205.124305" y="147.182495" xlink:href="#a"/><use x="205.138616" y="145.892166" xlink:href="#a"/><use x="205.435732" y="144.601838" xlink:href="#a"/><use x="205.47324" y="143.31151" xlink:href="#a"/><use x="205.573362" y="142.021182" xlink:href="#a"/><use x="205.594948" y="140.730853" xlink:href="#a"/><use x="205.741643" y="139.440525" xlink:href="#a"/><use x="205.902499" y="138.150197" xlink:href="#a"/><use x="206.067113" y="136.859869" xlink:href="#a"/><use x="206.460652" y="135.56954" xlink:href="#a"/><use x="206.709406" y="134.279212" xlink:href="#a"/><use x="206.743426" y="132.988884" xlink:href="#a"/><use x="207.092302" y="131.698556" xlink:href="#a"/><use x="207.289027" y="130.408228" xlink:href="#a"/><use x="207.310405" y="129.117899" xlink:href="#a"/><use x="207.628898" y="127.827571" xlink:href="#a"/><use x="207.7792" y="126.537243" xlink:href="#a"/><use x="207.825623" y="125.246915" xlink:href="#a"/><use x="207.840054" y="123.956586" xlink:href="#a"/><use x="208.20667" y="122.666258" xlink:href="#a"/><use x="208.219223" y="121.37593" xlink:href="#a"/><use x="208.269343" y="120.085602" xlink:href="#a"/><use x="208.296148" y="118.795274" xlink:href="#a"/><use x="208.419675" y="117.504945" xlink:href="#a"/><use x="208.811366" y="116.214617" xlink:href="#a"/><use x="208.834622" y="114.924289" xlink:href="#a"/><use x="209.033226" y="113.633961" xlink:href="#a"/><use x="209.106603" y="112.343632" xlink:href="#a"/><use x="209.215729" y="111.053304" xlink:href="#a"/><use x="209.303388" y="109.762976" xlink:href="#a"/><use x="209.448323" y="108.472648" xlink:href="#a"/><use x="209.619973" y="107.182319" xlink:href="#a"/><use x="209.748867" y="105.891991" xlink:href="#a"/><use x="209.918728" y="104.601663" xlink:href="#a"/><use x="210.063633" y="103.311335" xlink:href="#a"/><use x="210.0673" y="102.021007" xlink:href="#a"/><use x="210.099442" y="100.730678" xlink:href="#a"/><use x="210.178215" y="99.44035" xlink:href="#a"/><use x="210.360689" y="98.150022" xlink:href="#a"/><use x="210.419694" y="96.859694" xlink:href="#a"/><use x="210.509052" y="95.569365" xlink:href="#a"/><use x="210.637887" y="94.279037" xlink:href="#a"/><use x="210.657565" y="92.988709" xlink:href="#a"/><use x="210.881244" y="91.698381" xlink:href="#a"/><use x="210.913445" y="90.408053" xlink:href="#a"/><use x="210.947405" y="89.117724" xlink:href="#a"/><use x="211.126271" y="87.827396" xlink:href="#a"/><use x="211.140553" y="86.537068" xlink:href="#a"/><use x="211.165687" y="85.24674" xlink:href="#a"/><use x="211.28188" y="83.956411" xlink:href="#a"/><use x="211.412533" y="82.666083" xlink:href="#a"/><use x="211.437608" y="81.375755" xlink:href="#a"/><use x="211.859771" y="80.085427" xlink:href="#a"/><use x="212.396397" y="78.795098" xlink:href="#a"/><use x="212.503824" y="77.50477" xlink:href="#a"/><use x="212.639755" y="76.214442" xlink:href="#a"/><use x="212.777444" y="74.924114" xlink:href="#a"/><use x="212.895635" y="73.633786" xlink:href="#a"/><use x="212.999364" y="72.343457" xlink:href="#a"/><use x="213.017283" y="71.053129" xlink:href="#a"/><use x="213.29636" y="69.762801" xlink:href="#a"/><use x="213.319616" y="68.472473" xlink:href="#a"/><use x="213.380321" y="67.182144" xlink:href="#a"/><use x="213.555728" y="65.891816" xlink:href="#a"/><use x="213.620131" y="64.601488" xlink:href="#a"/><use x="213.70603" y="63.31116" xlink:href="#a"/><use x="213.856183" y="62.020832" xlink:href="#a"/><use x="214.101418" y="60.730503" xlink:href="#a"/><use x="214.140626" y="59.440175" xlink:href="#a"/><use x="214.503784" y="58.149847" xlink:href="#a"/><use x="214.791805" y="56.859519" xlink:href="#a"/><use x="214.793713" y="55.56919" xlink:href="#a"/><use x="214.825855" y="54.278862" xlink:href="#a"/><use x="214.88662" y="52.988534" xlink:href="#a"/><use x="214.995865" y="51.698206" xlink:href="#a"/><use x="215.199776" y="50.407877" xlink:href="#a"/><use x="215.382219" y="49.117549" xlink:href="#a"/><use x="215.418058" y="47.827221" xlink:href="#a"/><use x="215.427003" y="46.536893" xlink:href="#a"/><use x="215.686401" y="45.246565" xlink:href="#a"/><use x="215.748895" y="43.956236" xlink:href="#a"/><use x="215.754262" y="42.665908" xlink:href="#a"/><use x="215.786552" y="41.37558" xlink:href="#a"/><use x="216.258776" y="40.085252" xlink:href="#a"/><use x="216.2857" y="38.794923" xlink:href="#a"/><use x="216.369781" y="37.504595" xlink:href="#a"/><use x="216.494918" y="36.214267" xlink:href="#a"/><use x="216.54319" y="34.923939" xlink:href="#a"/><use x="216.972687" y="33.633611" xlink:href="#a"/><use x="217.194398" y="32.343282" xlink:href="#a"/><use x="217.332118" y="31.052954" xlink:href="#a"/><use x="217.353734" y="29.762626" xlink:href="#a"/><use x="217.51644" y="28.472298" xlink:href="#a"/><use x="217.731054" y="27.181969" xlink:href="#a"/><use x="217.736511" y="25.891641" xlink:href="#a"/><use x="217.795457" y="24.601313" xlink:href="#a"/><use x="218.01025" y="23.310985" xlink:href="#a"/><use x="218.09779" y="22.020656" xlink:href="#a"/><use x="218.180171" y="20.730328" xlink:href="#a"/><use x="218.190875" y="19.44" xlink:href="#a"/><use x="218.332262" y="18.149672" xlink:href="#a"/><use x="218.391178" y="16.859344" xlink:href="#a"/><use x="218.450243" y="15.569015" xlink:href="#a"/><use x="218.464555" y="14.278687" xlink:href="#a"/><use x="218.740024" y="12.988359" xlink:href="#a"/><use x="218.777592" y="11.698031" xlink:href="#a"/><use x="218.96731" y="10.407702" xlink:href="#a"/><use x="219.058487" y="9.117374" xlink:href="#a"/><use x="219.119371" y="7.827046" xlink:href="#a"/><use x="219.387625" y="6.536718" xlink:href="#a"/><use x="219.555935" y="5.246389" xlink:href="#a"/><use x="219.595292" y="3.956061" xlink:href="#a"/><use x="219.66858" y="2.665733" xlink:href="#a"/><use x="219.861846" y="1.375405" xlink:href="#a"/><use x="219.920762" y="0.085077" xlink:href="#a"/><use x="219.932822" y="-1" xlink:href="#a"/></g><defs><path id="b" d="m0 0.75c0.1989 0 0.38968-0.079025 0.53033-0.21967s0.21967-0.33143 0.21967-0.53033-0.079025-0.38968-0.21967-0.53033-0.33143-0.21967-0.53033-0.21967-0.38968 0.079025-0.53033 0.21967-0.21967 0.33143-0.21967 0.53033 0.079025 0.38968 0.21967 0.53033 0.33143 0.21967 0.53033 0.21967z" stroke="#f00"/></defs><g clip-path="url(#g)" fill="#ff0000" stroke="#ff0000"><use x="85.044554" y="601.378031" xlink:href="#b"/><use x="87.64745" y="600.087702" xlink:href="#b"/><use x="88.869275" y="598.797374" xlink:href="#b"/><use x="91.128662" y="597.507046" xlink:href="#b"/><use x="91.202159" y="596.216718" xlink:href="#b"/><use x="92.449029" y="594.926389" xlink:href="#b"/><use x="93.697598" y="593.636061" xlink:href="#b"/><use x="94.933765" y="592.345733" xlink:href="#b"/><use x="95.706592" y="591.055405" xlink:href="#b"/><use x="95.942764" y="589.765077" xlink:href="#b"/><use x="96.135941" y="588.474748" xlink:href="#b"/><use x="96.232574" y="587.18442" xlink:href="#b"/><use x="96.264746" y="585.894092" xlink:href="#b"/><use x="96.30768" y="584.603764" xlink:href="#b"/><use x="96.39355" y="583.313435" xlink:href="#b"/><use x="97.522499" y="582.023107" xlink:href="#b"/><use x="98.320371" y="580.732779" xlink:href="#b"/><use x="98.803329" y="579.442451" xlink:href="#b"/><use x="99.497473" y="578.152123" xlink:href="#b"/><use x="100.633398" y="576.861794" xlink:href="#b"/><use x="106.229331" y="575.571466" xlink:href="#b"/><use x="108.408156" y="574.281138" xlink:href="#b"/><use x="109.030712" y="572.99081" xlink:href="#b"/><use x="109.223949" y="571.700481" xlink:href="#b"/><use x="110.249078" y="570.410153" xlink:href="#b"/><use x="111.506712" y="569.119825" xlink:href="#b"/><use x="112.948608" y="567.829497" xlink:href="#b"/><use x="115.941496" y="566.539168" xlink:href="#b"/><use x="118.966704" y="565.24884" xlink:href="#b"/><use x="119.614186" y="563.958512" xlink:href="#b"/><use x="119.909393" y="562.668184" xlink:href="#b"/><use x="121.018573" y="561.377856" xlink:href="#b"/><use x="122.054287" y="560.087527" xlink:href="#b"/><use x="123.201036" y="558.797199" xlink:href="#b"/><use x="125.242201" y="557.506871" xlink:href="#b"/><use x="126.464145" y="556.216543" xlink:href="#b"/><use x="127.383726" y="554.926214" xlink:href="#b"/><use x="129.007976" y="553.635886" xlink:href="#b"/><use x="129.65024" y="552.345558" xlink:href="#b"/><use x="129.703938" y="551.05523" xlink:href="#b"/><use x="129.82028" y="549.764902" xlink:href="#b"/><use x="130.347932" y="548.474573" xlink:href="#b"/><use x="131.848952" y="547.184245" xlink:href="#b"/><use x="132.02415" y="545.893917" xlink:href="#b"/><use x="132.474966" y="544.603589" xlink:href="#b"/><use x="132.772022" y="543.31326" xlink:href="#b"/><use x="135.550176" y="542.022932" xlink:href="#b"/><use x="137.002865" y="540.732604" xlink:href="#b"/><use x="138.111956" y="539.442276" xlink:href="#b"/><use x="139.362524" y="538.151947" xlink:href="#b"/><use x="140.010035" y="536.861619" xlink:href="#b"/><use x="140.947417" y="535.571291" xlink:href="#b"/><use x="141.858083" y="534.280963" xlink:href="#b"/><use x="142.419725" y="532.990635" xlink:href="#b"/><use x="143.999429" y="531.700306" xlink:href="#b"/><use x="145.888563" y="530.409978" xlink:href="#b"/><use x="146.054966" y="529.11965" xlink:href="#b"/><use x="146.267851" y="527.829322" xlink:href="#b"/><use x="147.178458" y="526.538993" xlink:href="#b"/><use x="147.974512" y="525.248665" xlink:href="#b"/><use x="148.409228" y="523.958337" xlink:href="#b"/><use x="149.41286" y="522.668009" xlink:href="#b"/><use x="149.863646" y="521.377681" xlink:href="#b"/><use x="153.815472" y="520.087352" xlink:href="#b"/><use x="154.420019" y="518.797024" xlink:href="#b"/><use x="154.99964" y="517.506696" xlink:href="#b"/><use x="155.359309" y="516.216368" xlink:href="#b"/><use x="157.548957" y="514.926039" xlink:href="#b"/><use x="161.624132" y="513.635711" xlink:href="#b"/><use x="163.923025" y="512.345383" xlink:href="#b"/><use x="165.96419" y="511.055055" xlink:href="#b"/><use x="167.059089" y="509.764726" xlink:href="#b"/><use x="167.831827" y="508.474398" xlink:href="#b"/><use x="168.572424" y="507.18407" xlink:href="#b"/><use x="168.615359" y="505.893742" xlink:href="#b"/><use x="169.468689" y="504.603414" xlink:href="#b"/><use x="169.504498" y="503.313085" xlink:href="#b"/><use x="171.018071" y="502.022757" xlink:href="#b"/><use x="171.486628" y="500.732429" xlink:href="#b"/><use x="174.545737" y="499.442101" xlink:href="#b"/><use x="176.100366" y="498.151772" xlink:href="#b"/><use x="177.247145" y="496.861444" xlink:href="#b"/><use x="177.962696" y="495.571116" xlink:href="#b"/><use x="178.75875" y="494.280788" xlink:href="#b"/><use x="182.315277" y="492.99046" xlink:href="#b"/><use x="183.571033" y="491.700131" xlink:href="#b"/><use x="183.651536" y="490.409803" xlink:href="#b"/><use x="183.805415" y="489.119475" xlink:href="#b"/><use x="184.939552" y="487.829147" xlink:href="#b"/><use x="186.864465" y="486.538818" xlink:href="#b"/><use x="187.760849" y="485.24849" xlink:href="#b"/><use x="187.998661" y="483.958162" xlink:href="#b"/><use x="190.705346" y="482.667834" xlink:href="#b"/><use x="192.258247" y="481.377505" xlink:href="#b"/><use x="192.923737" y="480.087177" xlink:href="#b"/><use x="194.600015" y="478.796849" xlink:href="#b"/><use x="196.81292" y="477.506521" xlink:href="#b"/><use x="197.741297" y="476.216193" xlink:href="#b"/><use x="198.074132" y="474.925864" xlink:href="#b"/><use x="198.515973" y="473.635536" xlink:href="#b"/><use x="200.181518" y="472.345208" xlink:href="#b"/><use x="202.231717" y="471.05488" xlink:href="#b"/><use x="204.194049" y="469.764551" xlink:href="#b"/><use x="204.222673" y="468.474223" xlink:href="#b"/><use x="206.076057" y="467.183895" xlink:href="#b"/><use x="206.428451" y="465.893567" xlink:href="#b"/><use x="208.695054" y="464.603239" xlink:href="#b"/><use x="211.430393" y="463.31291" xlink:href="#b"/><use x="211.852675" y="462.022582" xlink:href="#b"/><use x="213.800815" y="460.732254" xlink:href="#b"/><use x="215.133584" y="459.441926" xlink:href="#b"/><use x="215.249837" y="458.151597" xlink:href="#b"/><use x="216.859894" y="456.861269" xlink:href="#b"/><use x="217.446611" y="455.570941" xlink:href="#b"/><use x="217.453796" y="454.280613" xlink:href="#b"/><use x="221.786759" y="452.990284" xlink:href="#b"/><use x="222.681176" y="451.699956" xlink:href="#b"/><use x="223.098061" y="450.409628" xlink:href="#b"/><use x="225.307269" y="449.1193" xlink:href="#b"/><use x="226.505867" y="447.828972" xlink:href="#b"/><use x="226.747435" y="446.538643" xlink:href="#b"/><use x="228.568649" y="445.248315" xlink:href="#b"/><use x="230.718851" y="443.957987" xlink:href="#b"/><use x="231.64207" y="442.667659" xlink:href="#b"/><use x="232.228727" y="441.37733" xlink:href="#b"/><use x="233.659889" y="440.087002" xlink:href="#b"/><use x="234.577622" y="438.796674" xlink:href="#b"/><use x="234.822798" y="437.506346" xlink:href="#b"/><use x="235.899658" y="436.216018" xlink:href="#b"/><use x="237.710167" y="434.925689" xlink:href="#b"/><use x="238.828173" y="433.635361" xlink:href="#b"/><use x="238.847882" y="432.345033" xlink:href="#b"/><use x="241.246837" y="431.054705" xlink:href="#b"/><use x="244.53684" y="429.764376" xlink:href="#b"/><use x="245.740686" y="428.474048" xlink:href="#b"/><use x="247.780092" y="427.18372" xlink:href="#b"/><use x="248.869624" y="425.893392" xlink:href="#b"/><use x="249.617466" y="424.603063" xlink:href="#b"/><use x="250.078956" y="423.312735" xlink:href="#b"/><use x="252.755319" y="422.022407" xlink:href="#b"/><use x="254.179176" y="420.732079" xlink:href="#b"/><use x="257.268727" y="419.441751" xlink:href="#b"/><use x="259.46735" y="418.151422" xlink:href="#b"/><use x="259.99688" y="416.861094" xlink:href="#b"/><use x="260.759063" y="415.570766" xlink:href="#b"/><use x="260.85021" y="414.280438" xlink:href="#b"/><use x="262.311874" y="412.990109" xlink:href="#b"/><use x="262.569454" y="411.699781" xlink:href="#b"/><use x="265.692876" y="410.409453" xlink:href="#b"/><use x="266.498053" y="409.119125" xlink:href="#b"/><use x="266.537291" y="407.828796" xlink:href="#b"/><use x="267.37628" y="406.538468" xlink:href="#b"/><use x="268.900617" y="405.24814" xlink:href="#b"/><use x="269.982814" y="403.957812" xlink:href="#b"/><use x="272.871943" y="402.667484" xlink:href="#b"/><use x="274.126058" y="401.377155" xlink:href="#b"/><use x="275.587692" y="400.086827" xlink:href="#b"/><use x="275.868468" y="398.796499" xlink:href="#b"/><use x="280.391" y="397.506171" xlink:href="#b"/><use x="281.943811" y="396.215842" xlink:href="#b"/><use x="282.967092" y="394.925514" xlink:href="#b"/><use x="284.791824" y="393.635186" xlink:href="#b"/><use x="285.788181" y="392.344858" xlink:href="#b"/><use x="289.595162" y="391.05453" xlink:href="#b"/><use x="292.040571" y="389.764201" xlink:href="#b"/><use x="292.693538" y="388.473873" xlink:href="#b"/><use x="292.706091" y="387.183545" xlink:href="#b"/><use x="295.484334" y="385.893217" xlink:href="#b"/><use x="297.518433" y="384.602888" xlink:href="#b"/><use x="297.584565" y="383.31256" xlink:href="#b"/><use x="298.683071" y="382.022232" xlink:href="#b"/><use x="299.194592" y="380.731904" xlink:href="#b"/><use x="299.872695" y="379.441575" xlink:href="#b"/><use x="303.234047" y="378.151247" xlink:href="#b"/><use x="304.436224" y="376.860919" xlink:href="#b"/><use x="304.495349" y="375.570591" xlink:href="#b"/><use x="304.52752" y="374.280263" xlink:href="#b"/><use x="307.649332" y="372.989934" xlink:href="#b"/><use x="310.615326" y="371.699606" xlink:href="#b"/><use x="311.695883" y="370.409278" xlink:href="#b"/><use x="314.679826" y="369.11895" xlink:href="#b"/><use x="316.195129" y="367.828621" xlink:href="#b"/><use x="318.143328" y="366.538293" xlink:href="#b"/><use x="319.708542" y="365.247965" xlink:href="#b"/><use x="327.570989" y="363.957637" xlink:href="#b"/><use x="328.959187" y="362.667309" xlink:href="#b"/><use x="329.290292" y="361.37698" xlink:href="#b"/><use x="329.817914" y="360.086652" xlink:href="#b"/><use x="332.556801" y="358.796324" xlink:href="#b"/><use x="338.827169" y="357.505996" xlink:href="#b"/><use x="341.394197" y="356.215667" xlink:href="#b"/><use x="343.161712" y="354.925339" xlink:href="#b"/><use x="345.262062" y="353.635011" xlink:href="#b"/><use x="345.310363" y="352.344683" xlink:href="#b"/><use x="347.406867" y="351.054354" xlink:href="#b"/><use x="350.283622" y="349.764026" xlink:href="#b"/><use x="354.902668" y="348.473698" xlink:href="#b"/><use x="356.770245" y="347.18337" xlink:href="#b"/><use x="357.094195" y="345.893042" xlink:href="#b"/><use x="359.299824" y="344.602713" xlink:href="#b"/><use x="365.087086" y="343.312385" xlink:href="#b"/><use x="367.275065" y="342.022057" xlink:href="#b"/><use x="367.852807" y="340.731729" xlink:href="#b"/><use x="369.856434" y="339.4414" xlink:href="#b"/><use x="380.298551" y="338.151072" xlink:href="#b"/><use x="381.883563" y="336.860744" xlink:href="#b"/><use x="386.348819" y="335.570416" xlink:href="#b"/><use x="393.370428" y="334.280088" xlink:href="#b"/><use x="393.606689" y="332.989759" xlink:href="#b"/><use x="395.089701" y="331.699431" xlink:href="#b"/><use x="395.780147" y="330.409103" xlink:href="#b"/><use x="398.366973" y="329.118775" xlink:href="#b"/><use x="403.367096" y="327.828446" xlink:href="#b"/><use x="406.041639" y="326.538118" xlink:href="#b"/><use x="409.596229" y="325.24779" xlink:href="#b"/><use x="412.2081" y="323.957462" xlink:href="#b"/><use x="417.444364" y="322.667133" xlink:href="#b"/><use x="424.367671" y="321.376805" xlink:href="#b"/><use x="424.934769" y="320.086477" xlink:href="#b"/><use x="437.278542" y="318.796149" xlink:href="#b"/><use x="439.532622" y="317.505821" xlink:href="#b"/><use x="447.792217" y="316.215492" xlink:href="#b"/><use x="450.5365" y="314.925164" xlink:href="#b"/><use x="461.942803" y="313.634836" xlink:href="#b"/><use x="465.189841" y="312.344508" xlink:href="#b"/><use x="468.277514" y="311.054179" xlink:href="#b"/><use x="469.470686" y="309.763851" xlink:href="#b"/><use x="471.211367" y="308.473523" xlink:href="#b"/><use x="472.880579" y="307.183195" xlink:href="#b"/><use x="473.279396" y="305.892867" xlink:href="#b"/><use x="476.558516" y="304.602538" xlink:href="#b"/><use x="477.848351" y="303.31221" xlink:href="#b"/><use x="479.222267" y="302.021882" xlink:href="#b"/><use x="489.710986" y="300.731554" xlink:href="#b"/><use x="513.949416" y="299.441225" xlink:href="#b"/><use x="519.854809" y="298.150897" xlink:href="#b"/><use x="520.502409" y="296.860569" xlink:href="#b"/><use x="522.252005" y="295.570241" xlink:href="#b"/><use x="526.414928" y="294.279912" xlink:href="#b"/><use x="528.851481" y="292.989584" xlink:href="#b"/><use x="529.853325" y="291.699256" xlink:href="#b"/><use x="530.504414" y="290.408928" xlink:href="#b"/><use x="531.667353" y="289.1186" xlink:href="#b"/><use x="537.558284" y="287.828271" xlink:href="#b"/><use x="539.49566" y="286.537943" xlink:href="#b"/><use x="544.429681" y="285.247615" xlink:href="#b"/><use x="544.542356" y="283.957287" xlink:href="#b"/><use x="548.123839" y="282.666958" xlink:href="#b"/><use x="557.315567" y="281.37663" xlink:href="#b"/><use x="564.750365" y="280.086302" xlink:href="#b"/><use x="564.914919" y="278.795974" xlink:href="#b"/><use x="565.515977" y="277.505646" xlink:href="#b"/><use x="570.111886" y="276.215317" xlink:href="#b"/><use x="579.128148" y="274.924989" xlink:href="#b"/><use x="590.228599" y="273.634661" xlink:href="#b"/><use x="591.937019" y="272.344333" xlink:href="#b"/><use x="595.845911" y="271.054004" xlink:href="#b"/><use x="597.436289" y="269.763676" xlink:href="#b"/><use x="599.812048" y="268.473348" xlink:href="#b"/><use x="608.261302" y="267.18302" xlink:href="#b"/><use x="611.162953" y="265.892691" xlink:href="#b"/><use x="613.987799" y="264.602363" xlink:href="#b"/><use x="620.832213" y="263.312035" xlink:href="#b"/><use x="629.383496" y="262.021707" xlink:href="#b"/><use x="641.28176" y="260.731379" xlink:href="#b"/><use x="644.190687" y="259.44105" xlink:href="#b"/><use x="646.269331" y="258.150722" xlink:href="#b"/><use x="646.93494" y="256.860394" xlink:href="#b"/><use x="651.707806" y="255.570066" xlink:href="#b"/><use x="656.883187" y="254.279737" xlink:href="#b"/><use x="658.319716" y="252.989409" xlink:href="#b"/><use x="665.062398" y="251.699081" xlink:href="#b"/><use x="667.423785" y="250.408753" xlink:href="#b"/><use x="670.06416" y="249.118425" xlink:href="#b"/><use x="673.772808" y="247.828096" xlink:href="#b"/><use x="676.096598" y="246.537768" xlink:href="#b"/><use x="679.059014" y="245.24744" xlink:href="#b"/><use x="683.948222" y="243.957112" xlink:href="#b"/><use x="687.79283" y="242.666783" xlink:href="#b"/><use x="688.701559" y="241.376455" xlink:href="#b"/><use x="689.39928" y="240.086127" xlink:href="#b"/><use x="698.454899" y="238.795799" xlink:href="#b"/><use x="703.719727" y="237.50547" xlink:href="#b"/><use x="710.855919" y="236.215142" xlink:href="#b"/><use x="714.333732" y="234.924814" xlink:href="#b"/><use x="723.004726" y="233.634486" xlink:href="#b"/><use x="723.6308" y="232.344158" xlink:href="#b"/><use x="723.806088" y="231.053829" xlink:href="#b"/><use x="724.222973" y="229.763501" xlink:href="#b"/><use x="734.094414" y="228.473173" xlink:href="#b"/><use x="737.048005" y="227.182845" xlink:href="#b"/><use x="741.947887" y="225.892516" xlink:href="#b"/><use x="742.747578" y="224.602188" xlink:href="#b"/><use x="743.883563" y="223.31186" xlink:href="#b"/><use x="747.826474" y="222.021532" xlink:href="#b"/><use x="760.26867" y="220.731204" xlink:href="#b"/><use x="787.190559" y="219.440875" xlink:href="#b"/><use x="788.492887" y="218.150547" xlink:href="#b"/><use x="790.94733" y="216.860219" xlink:href="#b"/><use x="806.071166" y="215.569891" xlink:href="#b"/><use x="818.189591" y="214.279562" xlink:href="#b"/><use x="830.021575" y="212.989234" xlink:href="#b"/><use x="830.536912" y="211.698906" xlink:href="#b"/><use x="830.570903" y="210.408578" xlink:href="#b"/><use x="835.243528" y="209.118249" xlink:href="#b"/><use x="842.426262" y="207.827921" xlink:href="#b"/><use x="847.045248" y="206.537593" xlink:href="#b"/><use x="847.744848" y="205.247265" xlink:href="#b"/><use x="855.823699" y="203.956937" xlink:href="#b"/><use x="857.931055" y="202.666608" xlink:href="#b"/><use x="865.18177" y="201.37628" xlink:href="#b"/><use x="879.44506" y="200.085952" xlink:href="#b"/><use x="880.031836" y="198.795624" xlink:href="#b"/><use x="888.2575" y="197.505295" xlink:href="#b"/><use x="889.962313" y="196.214967" xlink:href="#b"/><use x="896.069708" y="194.924639" xlink:href="#b"/><use x="906.077258" y="193.634311" xlink:href="#b"/><use x="908.477883" y="192.343982" xlink:href="#b"/><use x="916.123927" y="191.053654" xlink:href="#b"/><use x="916.982654" y="189.763326" xlink:href="#b"/><use x="919.94507" y="188.472998" xlink:href="#b"/><use x="927.113463" y="187.18267" xlink:href="#b"/><use x="927.378168" y="185.892341" xlink:href="#b"/><use x="932.571498" y="184.602013" xlink:href="#b"/><use x="937.355247" y="183.311685" xlink:href="#b"/><use x="939.07613" y="182.021357" xlink:href="#b"/><use x="944.314183" y="180.731028" xlink:href="#b"/><use x="949.992468" y="179.4407" xlink:href="#b"/><use x="956.468417" y="178.150372" xlink:href="#b"/><use x="963.339755" y="176.860044" xlink:href="#b"/><use x="970.112789" y="175.569716" xlink:href="#b"/><use x="977.241706" y="174.279387" xlink:href="#b"/><use x="985.798326" y="172.989059" xlink:href="#b"/><use x="987.660566" y="171.698731" xlink:href="#b"/><use x="993.179545" y="170.408403" xlink:href="#b"/><use x="1006.129803" y="169.118074" xlink:href="#b"/><use x="1010.072655" y="167.827746" xlink:href="#b"/><use x="1011.97783" y="166.537418" xlink:href="#b"/><use x="1017.568277" y="165.24709" xlink:href="#b"/><use x="1019.212325" y="163.956761" xlink:href="#b"/><use x="1025.598945" y="162.666433" xlink:href="#b"/><use x="1039.214664" y="161.376105" xlink:href="#b"/><use x="1039.901503" y="160.085777" xlink:href="#b"/><use x="1043.32207" y="158.795449" xlink:href="#b"/><use x="1044.223612" y="157.50512" xlink:href="#b"/><use x="1046.386546" y="156.214792" xlink:href="#b"/><use x="1048.814184" y="154.924464" xlink:href="#b"/><use x="1050.923389" y="153.634136" xlink:href="#b"/><use x="1060.093531" y="152.343807" xlink:href="#b"/><use x="1061.635578" y="151.053479" xlink:href="#b"/><use x="1062.662467" y="149.763151" xlink:href="#b"/><use x="1064.651812" y="148.472823" xlink:href="#b"/><use x="1066.372665" y="147.182495" xlink:href="#b"/><use x="1066.599862" y="145.892166" xlink:href="#b"/><use x="1069.345905" y="144.601838" xlink:href="#b"/><use x="1069.349453" y="143.31151" xlink:href="#b"/><use x="1073.412313" y="142.021182" xlink:href="#b"/><use x="1075.4516" y="140.730853" xlink:href="#b"/><use x="1079.879258" y="139.440525" xlink:href="#b"/><use x="1081.061726" y="138.150197" xlink:href="#b"/><use x="1083.306951" y="136.859869" xlink:href="#b"/><use x="1083.680782" y="135.56954" xlink:href="#b"/><use x="1084.407157" y="134.279212" xlink:href="#b"/><use x="1084.627258" y="132.988884" xlink:href="#b"/><use x="1086.700505" y="131.698556" xlink:href="#b"/><use x="1089.051188" y="130.408228" xlink:href="#b"/><use x="1089.69709" y="129.117899" xlink:href="#b"/><use x="1091.530677" y="127.827571" xlink:href="#b"/><use x="1095.457428" y="126.537243" xlink:href="#b"/><use x="1096.763483" y="125.246915" xlink:href="#b"/><use x="1101.971154" y="123.956586" xlink:href="#b"/><use x="1104.690302" y="122.666258" xlink:href="#b"/><use x="1104.978353" y="121.37593" xlink:href="#b"/><use x="1105.833354" y="120.085602" xlink:href="#b"/><use x="1105.876348" y="118.795274" xlink:href="#b"/><use x="1108.241373" y="117.504945" xlink:href="#b"/><use x="1108.931879" y="116.214617" xlink:href="#b"/><use x="1110.151975" y="114.924289" xlink:href="#b"/><use x="1111.883651" y="113.633961" xlink:href="#b"/></g><defs><path id="c" d="m0 1.5c0.3978 0 0.77937-0.15805 1.0607-0.43934 0.28129-0.28129 0.43934-0.66286 0.43934-1.0607s-0.15805-0.77937-0.43934-1.0607c-0.28129-0.28129-0.66286-0.43934-1.0607-0.43934s-0.77937 0.15805-1.0607 0.43934c-0.28129 0.28129-0.43934 0.66286-0.43934 1.0607s0.15805 0.77937 0.43934 1.0607c0.28129 0.28129 0.66286 0.43934 1.0607 0.43934z" stroke="#000"/></defs><g clip-path="url(#g)" stroke="#000000"><use x="101.846278" y="601.378031" xlink:href="#c"/><use x="104.42237" y="600.087702" xlink:href="#c"/><use x="112.708799" y="598.797374" xlink:href="#c"/><use x="113.653366" y="597.507046" xlink:href="#c"/><use x="120.480009" y="596.216718" xlink:href="#c"/><use x="121.982729" y="594.926389" xlink:href="#c"/><use x="134.991993" y="593.636061" xlink:href="#c"/><use x="136.752323" y="592.345733" xlink:href="#c"/><use x="149.933326" y="591.055405" xlink:href="#c"/><use x="153.668659" y="589.765077" xlink:href="#c"/><use x="159.078452" y="588.474748" xlink:href="#c"/><use x="161.311065" y="587.18442" xlink:href="#c"/><use x="161.912153" y="585.894092" xlink:href="#c"/><use x="168.438252" y="584.603764" xlink:href="#c"/><use x="176.939355" y="583.313435" xlink:href="#c"/><use x="178.699685" y="582.023107" xlink:href="#c"/><use x="181.447516" y="580.732779" xlink:href="#c"/><use x="184.152413" y="579.442451" xlink:href="#c"/><use x="188.703508" y="578.152123" xlink:href="#c"/><use x="189.175792" y="576.861794" xlink:href="#c"/><use x="190.850251" y="575.571466" xlink:href="#c"/><use x="193.469278" y="574.281138" xlink:href="#c"/><use x="194.45678" y="572.99081" xlink:href="#c"/><use x="194.54265" y="571.700481" xlink:href="#c"/><use x="197.934504" y="570.410153" xlink:href="#c"/><use x="199.30842" y="569.119825" xlink:href="#c"/><use x="201.412228" y="567.829497" xlink:href="#c"/><use x="202.270925" y="566.539168" xlink:href="#c"/><use x="202.700274" y="565.24884" xlink:href="#c"/><use x="204.417669" y="563.958512" xlink:href="#c"/><use x="204.503538" y="562.668184" xlink:href="#c"/><use x="205.448105" y="561.377856" xlink:href="#c"/><use x="207.766588" y="560.087527" xlink:href="#c"/><use x="209.441048" y="558.797199" xlink:href="#c"/><use x="209.612787" y="557.506871" xlink:href="#c"/><use x="210.34268" y="556.216543" xlink:href="#c"/><use x="210.900833" y="554.926214" xlink:href="#c"/><use x="212.875837" y="553.635886" xlink:href="#c"/><use x="215.408994" y="552.345558" xlink:href="#c"/><use x="217.985086" y="551.05523" xlink:href="#c"/><use x="219.359001" y="549.764902" xlink:href="#c"/><use x="221.076396" y="548.474573" xlink:href="#c"/><use x="221.37694" y="547.184245" xlink:href="#c"/><use x="221.677484" y="545.893917" xlink:href="#c"/><use x="222.836725" y="544.603589" xlink:href="#c"/><use x="224.210641" y="543.31326" xlink:href="#c"/><use x="224.38238" y="542.022932" xlink:href="#c"/><use x="224.854664" y="540.732604" xlink:href="#c"/><use x="226.786733" y="539.442276" xlink:href="#c"/><use x="228.761737" y="538.151947" xlink:href="#c"/><use x="230.178587" y="536.861619" xlink:href="#c"/><use x="231.810112" y="535.571291" xlink:href="#c"/><use x="232.282395" y="534.280963" xlink:href="#c"/><use x="232.540005" y="532.990635" xlink:href="#c"/><use x="233.398702" y="531.700306" xlink:href="#c"/><use x="234.214464" y="530.409978" xlink:href="#c"/><use x="234.300334" y="529.11965" xlink:href="#c"/><use x="235.58838" y="527.829322" xlink:href="#c"/><use x="235.803054" y="526.538993" xlink:href="#c"/><use x="236.361207" y="525.248665" xlink:href="#c"/><use x="237.992732" y="523.958337" xlink:href="#c"/><use x="240.568824" y="522.668009" xlink:href="#c"/><use x="242.114479" y="521.377681" xlink:href="#c"/><use x="243.187851" y="520.087352" xlink:href="#c"/><use x="245.549268" y="518.797024" xlink:href="#c"/><use x="245.635138" y="517.506696" xlink:href="#c"/><use x="247.094924" y="516.216368" xlink:href="#c"/><use x="253.964502" y="514.926039" xlink:href="#c"/><use x="256.325919" y="513.635711" xlink:href="#c"/><use x="256.411789" y="512.345383" xlink:href="#c"/><use x="257.485161" y="511.055055" xlink:href="#c"/><use x="258.172118" y="509.764726" xlink:href="#c"/><use x="258.816141" y="508.474398" xlink:href="#c"/><use x="259.030816" y="507.18407" xlink:href="#c"/><use x="261.00582" y="505.893742" xlink:href="#c"/><use x="261.263429" y="504.603414" xlink:href="#c"/><use x="262.293865" y="503.313085" xlink:href="#c"/><use x="264.526478" y="502.022757" xlink:href="#c"/><use x="264.741153" y="500.732429" xlink:href="#c"/><use x="265.986264" y="499.442101" xlink:href="#c"/><use x="266.930831" y="498.151772" xlink:href="#c"/><use x="267.059635" y="496.861444" xlink:href="#c"/><use x="267.27431" y="495.571116" xlink:href="#c"/><use x="268.004202" y="494.280788" xlink:href="#c"/><use x="272.254754" y="492.99046" xlink:href="#c"/><use x="272.512363" y="491.700131" xlink:href="#c"/><use x="278.480309" y="490.409803" xlink:href="#c"/><use x="278.609114" y="489.119475" xlink:href="#c"/><use x="284.104776" y="487.829147" xlink:href="#c"/><use x="285.221083" y="486.538818" xlink:href="#c"/><use x="285.607497" y="485.24849" xlink:href="#c"/><use x="286.852608" y="483.958162" xlink:href="#c"/><use x="287.75424" y="482.667834" xlink:href="#c"/><use x="291.274899" y="481.377505" xlink:href="#c"/><use x="291.532508" y="480.087177" xlink:href="#c"/><use x="293.035228" y="478.796849" xlink:href="#c"/><use x="295.911864" y="477.506521" xlink:href="#c"/><use x="296.298278" y="476.216193" xlink:href="#c"/><use x="296.384148" y="474.925864" xlink:href="#c"/><use x="298.831435" y="473.635536" xlink:href="#c"/><use x="299.131979" y="472.345208" xlink:href="#c"/><use x="300.46296" y="471.05488" xlink:href="#c"/><use x="301.579266" y="469.764551" xlink:href="#c"/><use x="306.946124" y="468.474223" xlink:href="#c"/><use x="307.547212" y="467.183895" xlink:href="#c"/><use x="307.890691" y="465.893567" xlink:href="#c"/><use x="308.32004" y="464.603239" xlink:href="#c"/><use x="309.350477" y="463.31291" xlink:href="#c"/><use x="310.123304" y="462.022582" xlink:href="#c"/><use x="310.209174" y="460.732254" xlink:href="#c"/><use x="310.552653" y="459.441926" xlink:href="#c"/><use x="313.386354" y="458.151597" xlink:href="#c"/><use x="317.078752" y="456.861269" xlink:href="#c"/><use x="320.298867" y="455.570941" xlink:href="#c"/><use x="321.672783" y="454.280613" xlink:href="#c"/><use x="323.304307" y="452.990284" xlink:href="#c"/><use x="325.451051" y="451.699956" xlink:href="#c"/><use x="328.241817" y="450.409628" xlink:href="#c"/><use x="330.002146" y="449.1193" xlink:href="#c"/><use x="330.173886" y="447.828972" xlink:href="#c"/><use x="330.646169" y="446.538643" xlink:href="#c"/><use x="330.817909" y="445.248315" xlink:href="#c"/><use x="334.166828" y="443.957987" xlink:href="#c"/><use x="334.510307" y="442.667659" xlink:href="#c"/><use x="343.397824" y="441.37733" xlink:href="#c"/><use x="349.923923" y="440.087002" xlink:href="#c"/><use x="351.770122" y="438.796674" xlink:href="#c"/><use x="359.498398" y="437.506346" xlink:href="#c"/><use x="359.756007" y="436.216018" xlink:href="#c"/><use x="362.632643" y="434.925689" xlink:href="#c"/><use x="363.49134" y="433.635361" xlink:href="#c"/><use x="367.956566" y="432.345033" xlink:href="#c"/><use x="368.987003" y="431.054705" xlink:href="#c"/><use x="377.87452" y="429.764376" xlink:href="#c"/><use x="378.303869" y="428.474048" xlink:href="#c"/><use x="382.511485" y="427.18372" xlink:href="#c"/><use x="394.018029" y="425.893392" xlink:href="#c"/><use x="394.704987" y="424.603063" xlink:href="#c"/><use x="395.434879" y="423.312735" xlink:href="#c"/><use x="405.739247" y="422.022407" xlink:href="#c"/><use x="409.174036" y="420.732079" xlink:href="#c"/><use x="409.345775" y="419.441751" xlink:href="#c"/><use x="410.547952" y="418.151422" xlink:href="#c"/><use x="410.762626" y="416.861094" xlink:href="#c"/><use x="412.73763" y="415.570766" xlink:href="#c"/><use x="446.527368" y="414.280438" xlink:href="#c"/><use x="459.794241" y="412.990109" xlink:href="#c"/><use x="460.008915" y="411.699781" xlink:href="#c"/><use x="481.648087" y="410.409453" xlink:href="#c"/><use x="484.395918" y="409.119125" xlink:href="#c"/><use x="484.696462" y="407.828796" xlink:href="#c"/><use x="484.911136" y="406.538468" xlink:href="#c"/><use x="485.941573" y="405.24814" xlink:href="#c"/><use x="508.825856" y="403.957812" xlink:href="#c"/><use x="509.083465" y="402.667484" xlink:href="#c"/><use x="509.813358" y="401.377155" xlink:href="#c"/><use x="514.493258" y="400.086827" xlink:href="#c"/><use x="517.369894" y="398.796499" xlink:href="#c"/><use x="519.387832" y="397.506171" xlink:href="#c"/><use x="564.641179" y="396.215842" xlink:href="#c"/><use x="564.855854" y="394.925514" xlink:href="#c"/><use x="577.564573" y="393.635186" xlink:href="#c"/><use x="584.734696" y="392.344858" xlink:href="#c"/><use x="586.62383" y="391.05453" xlink:href="#c"/><use x="588.942312" y="389.764201" xlink:href="#c"/><use x="599.890703" y="388.473873" xlink:href="#c"/><use x="628.098908" y="387.183545" xlink:href="#c"/><use x="630.803805" y="385.893217" xlink:href="#c"/><use x="651.713084" y="384.602888" xlink:href="#c"/><use x="663.734846" y="383.31256" xlink:href="#c"/><use x="675.498999" y="382.022232" xlink:href="#c"/><use x="680.737052" y="380.731904" xlink:href="#c"/><use x="684.043037" y="379.441575" xlink:href="#c"/><use x="695.377841" y="378.151247" xlink:href="#c"/><use x="696.537082" y="376.860919" xlink:href="#c"/><use x="707.871886" y="375.570591" xlink:href="#c"/><use x="710.061564" y="374.280263" xlink:href="#c"/><use x="713.067005" y="372.989934" xlink:href="#c"/><use x="713.668093" y="371.699606" xlink:href="#c"/><use x="721.267564" y="370.409278" xlink:href="#c"/><use x="726.119203" y="369.11895" xlink:href="#c"/><use x="728.180077" y="367.828621" xlink:href="#c"/><use x="729.167579" y="366.538293" xlink:href="#c"/><use x="730.670299" y="365.247965" xlink:href="#c"/><use x="764.588842" y="363.957637" xlink:href="#c"/><use x="768.19537" y="362.667309" xlink:href="#c"/><use x="769.86983" y="361.37698" xlink:href="#c"/><use x="783.9954" y="360.086652" xlink:href="#c"/><use x="788.546496" y="358.796324" xlink:href="#c"/><use x="797.305208" y="357.505996" xlink:href="#c"/><use x="798.335645" y="356.215667" xlink:href="#c"/><use x="798.679124" y="354.925339" xlink:href="#c"/><use x="799.8813" y="353.635011" xlink:href="#c"/><use x="801.942174" y="352.344683" xlink:href="#c"/><use x="803.359024" y="351.054354" xlink:href="#c"/><use x="810.099798" y="349.764026" xlink:href="#c"/><use x="816.711767" y="348.473698" xlink:href="#c"/><use x="823.667215" y="347.18337" xlink:href="#c"/><use x="832.769406" y="345.893042" xlink:href="#c"/><use x="836.590609" y="344.602713" xlink:href="#c"/><use x="839.638984" y="343.312385" xlink:href="#c"/><use x="851.660746" y="342.022057" xlink:href="#c"/><use x="856.555321" y="340.731729" xlink:href="#c"/><use x="863.768378" y="339.4414" xlink:href="#c"/><use x="865.528708" y="338.151072" xlink:href="#c"/><use x="866.086861" y="336.860744" xlink:href="#c"/><use x="867.246102" y="335.570416" xlink:href="#c"/><use x="882.745588" y="334.280088" xlink:href="#c"/><use x="882.874393" y="332.989759" xlink:href="#c"/><use x="888.713534" y="331.699431" xlink:href="#c"/><use x="891.633105" y="330.409103" xlink:href="#c"/><use x="893.135825" y="329.118775" xlink:href="#c"/><use x="898.373879" y="327.828446" xlink:href="#c"/><use x="906.359763" y="326.538118" xlink:href="#c"/><use x="907.56194" y="325.24779" xlink:href="#c"/><use x="913.315211" y="323.957462" xlink:href="#c"/><use x="925.766322" y="322.667133" xlink:href="#c"/><use x="926.53915" y="321.376805" xlink:href="#c"/><use x="928.084805" y="320.086477" xlink:href="#c"/><use x="931.390789" y="318.796149" xlink:href="#c"/><use x="950.410934" y="317.505821" xlink:href="#c"/><use x="959.341386" y="316.215492" xlink:href="#c"/><use x="961.874543" y="314.925164" xlink:href="#c"/><use x="962.432696" y="313.634836" xlink:href="#c"/><use x="962.990849" y="312.344508" xlink:href="#c"/><use x="963.763677" y="311.054179" xlink:href="#c"/><use x="968.271838" y="309.763851" xlink:href="#c"/><use x="973.93924" y="308.473523" xlink:href="#c"/><use x="976.987615" y="307.183195" xlink:href="#c"/><use x="978.747944" y="305.892867" xlink:href="#c"/><use x="981.753385" y="304.602538" xlink:href="#c"/><use x="983.041431" y="303.31221" xlink:href="#c"/><use x="983.771324" y="302.021882" xlink:href="#c"/><use x="994.41917" y="300.731554" xlink:href="#c"/><use x="998.798526" y="299.441225" xlink:href="#c"/><use x="1006.440932" y="298.150897" xlink:href="#c"/><use x="1009.188763" y="296.860569" xlink:href="#c"/><use x="1028.595322" y="295.570241" xlink:href="#c"/><use x="1031.643697" y="294.279912" xlink:href="#c"/><use x="1032.37359" y="292.989584" xlink:href="#c"/><use x="1033.017613" y="291.699256" xlink:href="#c"/><use x="1036.624141" y="290.408928" xlink:href="#c"/><use x="1039.586647" y="289.1186" xlink:href="#c"/><use x="1041.647521" y="287.828271" xlink:href="#c"/><use x="1044.953505" y="286.537943" xlink:href="#c"/><use x="1051.007321" y="285.247615" xlink:href="#c"/><use x="1051.393735" y="283.957287" xlink:href="#c"/><use x="1060.109512" y="282.666958" xlink:href="#c"/><use x="1066.97909" y="281.37663" xlink:href="#c"/><use x="1067.15083" y="280.086302" xlink:href="#c"/><use x="1067.451374" y="278.795974" xlink:href="#c"/><use x="1072.431818" y="277.505646" xlink:href="#c"/><use x="1072.861167" y="276.215317" xlink:href="#c"/><use x="1086.471519" y="274.924989" xlink:href="#c"/><use x="1088.145978" y="273.634661" xlink:href="#c"/><use x="1089.476959" y="272.344333" xlink:href="#c"/><use x="1097.419909" y="271.054004" xlink:href="#c"/><use x="1099.008499" y="269.763676" xlink:href="#c"/><use x="1103.473725" y="268.473348" xlink:href="#c"/><use x="1104.547097" y="267.18302" xlink:href="#c"/><use x="1109.87102" y="265.892691" xlink:href="#c"/><use x="1113.219939" y="264.602363" xlink:href="#c"/></g><defs><path id="d" d="m0 0.75c0.1989 0 0.38968-0.079025 0.53033-0.21967s0.21967-0.33143 0.21967-0.53033-0.079025-0.38968-0.21967-0.53033-0.33143-0.21967-0.53033-0.21967-0.38968 0.079025-0.53033 0.21967-0.21967 0.33143-0.21967 0.53033 0.079025 0.38968 0.21967 0.53033 0.33143 0.21967 0.53033 0.21967z" stroke="#008000"/></defs><g clip-path="url(#g)" fill="#008000" stroke="#008000"><use x="82.878013" y="601.378031" xlink:href="#d"/><use x="97.665585" y="600.087702" xlink:href="#d"/><use x="109.356421" y="598.797374" xlink:href="#d"/><use x="122.009564" y="597.507046" xlink:href="#d"/><use x="128.832629" y="596.216718" xlink:href="#d"/><use x="129.39442" y="594.926389" xlink:href="#d"/><use x="137.920658" y="593.636061" xlink:href="#d"/><use x="143.002983" y="592.345733" xlink:href="#d"/><use x="145.713276" y="591.055405" xlink:href="#d"/><use x="147.664934" y="589.765077" xlink:href="#d"/><use x="152.60787" y="588.474748" xlink:href="#d"/><use x="154.235876" y="587.18442" xlink:href="#d"/><use x="159.278874" y="585.894092" xlink:href="#d"/><use x="173.576154" y="584.603764" xlink:href="#d"/><use x="183.257966" y="583.313435" xlink:href="#d"/><use x="184.705318" y="582.023107" xlink:href="#d"/><use x="185.000525" y="580.732779" xlink:href="#d"/><use x="190.088158" y="579.442451" xlink:href="#d"/><use x="193.557026" y="578.152123" xlink:href="#d"/><use x="196.714438" y="576.861794" xlink:href="#d"/><use x="199.723457" y="575.571466" xlink:href="#d"/><use x="200.156413" y="574.281138" xlink:href="#d"/><use x="201.206648" y="572.99081" xlink:href="#d"/><use x="201.569656" y="571.700481" xlink:href="#d"/><use x="202.008098" y="570.410153" xlink:href="#d"/><use x="202.771892" y="569.119825" xlink:href="#d"/><use x="210.925878" y="567.829497" xlink:href="#d"/><use x="213.112008" y="566.539168" xlink:href="#d"/><use x="213.305334" y="565.24884" xlink:href="#d"/><use x="214.020796" y="563.958512" xlink:href="#d"/><use x="214.852659" y="562.668184" xlink:href="#d"/><use x="217.546882" y="561.377856" xlink:href="#d"/><use x="221.750861" y="560.087527" xlink:href="#d"/><use x="222.709859" y="558.797199" xlink:href="#d"/><use x="226.82612" y="557.506871" xlink:href="#d"/><use x="229.157244" y="556.216543" xlink:href="#d"/><use x="230.005059" y="554.926214" xlink:href="#d"/><use x="231.940795" y="553.635886" xlink:href="#d"/><use x="239.783563" y="552.345558" xlink:href="#d"/><use x="248.98048" y="551.05523" xlink:href="#d"/><use x="249.282842" y="549.764902" xlink:href="#d"/><use x="253.003864" y="548.474573" xlink:href="#d"/><use x="259.694547" y="547.184245" xlink:href="#d"/><use x="267.304871" y="545.893917" xlink:href="#d"/><use x="272.537468" y="544.603589" xlink:href="#d"/><use x="281.272894" y="543.31326" xlink:href="#d"/><use x="285.620139" y="542.022932" xlink:href="#d"/><use x="288.652413" y="540.732604" xlink:href="#d"/><use x="291.564828" y="539.442276" xlink:href="#d"/><use x="299.162421" y="538.151947" xlink:href="#d"/><use x="301.277023" y="536.861619" xlink:href="#d"/><use x="307.930197" y="535.571291" xlink:href="#d"/><use x="310.554501" y="534.280963" xlink:href="#d"/><use x="320.638917" y="532.990635" xlink:href="#d"/><use x="326.282944" y="531.700306" xlink:href="#d"/><use x="327.39755" y="530.409978" xlink:href="#d"/><use x="375.661705" y="529.11965" xlink:href="#d"/><use x="378.312873" y="527.829322" xlink:href="#d"/><use x="427.657584" y="526.538993" xlink:href="#d"/><use x="445.852962" y="525.248665" xlink:href="#d"/><use x="546.681973" y="523.958337" xlink:href="#d"/><use x="666.978336" y="522.668009" xlink:href="#d"/><use x="746.472207" y="521.377681" xlink:href="#d"/><use x="771.791285" y="520.087352" xlink:href="#d"/><use x="802.90472" y="518.797024" xlink:href="#d"/><use x="820.90871" y="517.506696" xlink:href="#d"/><use x="954.339623" y="516.216368" xlink:href="#d"/><use x="981.776761" y="514.926039" xlink:href="#d"/><use x="1072.176147" y="513.635711" xlink:href="#d"/><use x="1072.888031" y="512.345383" xlink:href="#d"/><use x="1082.993795" y="511.055055" xlink:href="#d"/><use x="1093.307196" y="509.764726" xlink:href="#d"/><use x="1099.14279" y="508.474398" xlink:href="#d"/><use x="1103.561413" y="507.18407" xlink:href="#d"/><use x="1107.523973" y="505.893742" xlink:href="#d"/><use x="1108.622361" y="504.603414" xlink:href="#d"/></g><path d="m55.296 609.12v-589.68" fill="none" stroke="#000" stroke-linecap="square" stroke-width=".8"/><path d="m1140.5 609.12v-589.68" fill="none" stroke="#000" stroke-linecap="square" stroke-width=".8"/><path d="m55.296 609.12h1085.2" fill="none" stroke="#000" stroke-linecap="square" stroke-width=".8"/><path d="m55.296 19.44h1085.2" fill="none" stroke="#000" stroke-linecap="square" stroke-width=".8"/><g transform="translate(112.89 13.44) scale(.12 -.12)"><defs><path id="at" transform="scale(.015625)" d="m1259 4147v-1753h794q441 0 681 228 241 228 241 650 0 419-241 647-240 228-681 228h-794zm-631 519h1425q785 0 1186-355 402-355 402-1039 0-691-402-1044-401-353-1186-353h-794v-1875h-631v4666z"/><path id="t" transform="scale(.015625)" d="m581 3500h578v-1428h1866v1428h578v-3500h-578v1613h-1866v-1613h-578v3500z"/><path id="ak" transform="scale(.015625)" d="m3513 3500-1266-1703 1331-1797h-678l-1019 1375-1018-1375h-679l1360 1831-1244 1669h678l928-1247 928 1247h679z"/><path id="aq" transform="scale(.015625)" d="m684 794h660v-794h-660v794z"/><path id="ag" transform="scale(.015625)" d="m1991 3584q750 0 1178-488 428-487 428-1349 0-859-428-1349-428-489-1178-489-753 0-1169 475t-438 1363l-18 716q-16 371-16 500 0 500 181 868 285 578 777 828t1317 257q381 3 550 56l159-456q-153-63-293-66l-782-53q-393-28-631-166-622-365-681-843l-22-175q406 371 1066 371zm0-487q-463 0-732-361-268-361-268-989t267-989 733-361q459 0 728 362 269 363 269 988 0 622-269 986t-728 364z"/><path id="aj" transform="scale(.015625)" d="m2781 1038q0 281-205 428-204 147-598 147h-819v-1154h819q394 0 598 148 205 149 205 431zm-2200 2462h578v-1428h844q669 0 1030-255 361-254 361-779t-361-782q-361-256-1030-256h-1422v3500z"/><path id="an" transform="scale(.015625)" d="m3578 3500v-3500h-572v2809l-1687-2809h-738v3500h572v-2803l1685 2803h740zm-2476 1333h369q34-234 185-352 152-117 424-117 269 0 419 116t190 353h369q-31-447-278-672t-700-225-700 225-278 672z"/><path id="ax" transform="scale(.015625)" d="m4159 4666v-4666h-612v3903l-2069-3903h-850v4666h613v-3903l2068 3903h850z"/><path id="as" transform="scale(.015625)" d="m3431 3097q-462 0-731-361t-269-989 267-989q268-361 733-361 460 0 728 362 269 363 269 988 0 622-269 986-268 364-728 364zm-1587-994q59 594 448 1037 389 444 1139 444t1178-488q429-487 429-1349 0-859-429-1349-428-489-1178-489-753 0-1164 472t-439 1247h-650v-1628h-575v3500h575v-1397h666z"/></defs><use xlink:href="#at"/><use x="60.302734" xlink:href="#i"/><use x="121.484375" xlink:href="#j"/><use x="176.464844" xlink:href="#w"/><use x="234.716797" xlink:href="#DejaVuSans-20"/><use x="266.503906" xlink:href="#ab"/><use x="325.585938" xlink:href="#o"/><use x="390.576172" xlink:href="#j"/><use x="445.556641" xlink:href="#y"/><use x="509.472656" xlink:href="#h"/><use x="570.751953" xlink:href="#DejaVuSans-20"/><use x="602.539062" xlink:href="#x"/><use x="666.015625" xlink:href="#h"/><use x="727.294922" xlink:href="#k"/><use x="787.695312" xlink:href="#q"/><use x="849.21875" xlink:href="#w"/><use x="907.470703" xlink:href="#t"/><use x="972.851562" xlink:href="#u"/><use x="1051.806641" xlink:href="#ak"/><use x="1110.986328" xlink:href="#DejaVuSans-20"/><use x="1142.773438" xlink:href="#z"/><use x="1195.947266" xlink:href="#h"/><use x="1257.226562" xlink:href="#s"/><use x="1322.607422" xlink:href="#n"/><use x="1381.787109" xlink:href="#j"/><use x="1436.767578" xlink:href="#k"/><use x="1497.167969" xlink:href="#i"/><use x="1558.349609" xlink:href="#aa"/><use x="1617.285156" xlink:href="#aq"/><use x="1649.072266" xlink:href="#DejaVuSans-20"/><use x="1680.859375" xlink:href="#ao"/><use x="1749.462891" xlink:href="#j"/><use x="1804.443359" xlink:href="#q"/><use x="1865.966797" xlink:href="#ac"/><use x="1918.505859" xlink:href="#i"/><use x="1979.6875" xlink:href="#DejaVuSans-20"/><use x="2011.474609" xlink:href="#ae"/><use x="2075.097656" xlink:href="#f"/><use x="2138.720703" xlink:href="#v"/><use x="2202.34375" xlink:href="#p"/><use x="2265.966797" xlink:href="#DejaVuSans-20"/><use x="2297.753906" xlink:href="#i"/><use x="2358.935547" xlink:href="#x"/><use x="2422.412109" xlink:href="#ag"/><use x="2484.082031" xlink:href="#o"/><use x="2549.072266" xlink:href="#w"/><use x="2607.324219" xlink:href="#h"/><use x="2668.603516" xlink:href="#y"/><use x="2732.519531" xlink:href="#aj"/><use x="2791.455078" xlink:href="#t"/><use x="2856.835938" xlink:href="#u"/><use x="2935.791016" xlink:href="#ak"/><use x="2994.970703" xlink:href="#DejaVuSans-20"/><use x="3026.757812" xlink:href="#z"/><use x="3079.931641" xlink:href="#h"/><use x="3141.210938" xlink:href="#s"/><use x="3206.591797" xlink:href="#n"/><use x="3265.771484" xlink:href="#j"/><use x="3320.751953" xlink:href="#k"/><use x="3381.152344" xlink:href="#i"/><use x="3442.333984" xlink:href="#aa"/><use x="3501.269531" xlink:href="#ai"/><use x="3533.056641" xlink:href="#DejaVuSans-20"/><use x="3564.84375" xlink:href="#am"/><use x="3628.466797" xlink:href="#ah"/><use x="3692.089844" xlink:href="#r"/><use x="3755.712891" xlink:href="#DejaVuSans-20"/><use x="3787.5" xlink:href="#t"/><use x="3852.880859" xlink:href="#q"/><use x="3914.404297" xlink:href="#n"/><use x="3973.583984" xlink:href="#af"/><use x="4042.724609" xlink:href="#h"/><use x="4104.003906" xlink:href="#ab"/><use x="4163.085938" xlink:href="#ai"/><use x="4194.873047" xlink:href="#DejaVuSans-20"/><use x="4226.660156" xlink:href="#ah"/><use x="4290.283203" xlink:href="#ae"/><use x="4353.90625" xlink:href="#DejaVuSans-20"/><use x="4385.693359" xlink:href="#ac"/><use x="4438.232422" xlink:href="#x"/><use x="4501.708984" xlink:href="#h"/><use x="4562.988281" xlink:href="#t"/><use x="4628.369141" xlink:href="#o"/><use x="4693.359375" xlink:href="#ab"/><use x="4752.441406" xlink:href="#t"/><use x="4817.822266" xlink:href="#u"/><use x="4896.777344" xlink:href="#ak"/><use x="4955.957031" xlink:href="#DejaVuSans-20"/><use x="4987.744141" xlink:href="#z"/><use x="5040.917969" xlink:href="#h"/><use x="5102.197266" xlink:href="#s"/><use x="5167.578125" xlink:href="#n"/><use x="5226.757812" xlink:href="#j"/><use x="5281.738281" xlink:href="#k"/><use x="5342.138672" xlink:href="#i"/><use x="5403.320312" xlink:href="#aa"/><use x="5462.255859" xlink:href="#ai"/><use x="5494.042969" xlink:href="#DejaVuSans-20"/><use x="5525.830078" xlink:href="#m"/><use x="5589.453125" xlink:href="#ae"/><use x="5653.076172" xlink:href="#m"/><use x="5716.699219" xlink:href="#DejaVuSans-20"/><use x="5748.486328" xlink:href="#z"/><use x="5801.660156" xlink:href="#h"/><use x="5862.939453" xlink:href="#s"/><use x="5928.320312" xlink:href="#n"/><use x="5987.5" xlink:href="#j"/><use x="6042.480469" xlink:href="#k"/><use x="6102.880859" xlink:href="#h"/><use x="6164.160156" xlink:href="#DejaVuSans-20"/><use x="6195.947266" xlink:href="#aa"/><use x="6254.882812" xlink:href="#DejaVuSans-20"/><use x="6286.669922" xlink:href="#ac"/><use x="6339.208984" xlink:href="#y"/><use x="6403.125" xlink:href="#n"/><use x="6462.304688" xlink:href="#ag"/><use x="6523.974609" xlink:href="#i"/><use x="6585.15625" xlink:href="#k"/><use x="6645.556641" xlink:href="#o"/><use x="6710.546875" xlink:href="#an"/><use x="6775.537109" xlink:href="#DejaVuSans-20"/><use x="6807.324219" xlink:href="#k"/><use x="6867.724609" xlink:href="#i"/><use x="6928.90625" xlink:href="#j"/><use x="6983.886719" xlink:href="#al"/><use x="7059.326172" xlink:href="#i"/><use x="7120.507812" xlink:href="#j"/><use x="7175.488281" xlink:href="#aq"/><use x="7207.275391" xlink:href="#DejaVuSans-20"/><use x="7239.0625" xlink:href="#ax"/><use x="7313.867188" xlink:href="#as"/><use x="7398.046875" xlink:href="#y"/><use x="7461.962891" xlink:href="#aj"/><use x="7520.898438" xlink:href="#DejaVuSans-20"/><use x="7552.685547" xlink:href="#m"/><use x="7616.308594" xlink:href="#f"/><use x="7679.931641" xlink:href="#m"/><use x="7743.554688" xlink:href="#am"/><use x="7807.177734" xlink:href="#DejaVuSans-20"/><use x="7838.964844" xlink:href="#ac"/><use x="7891.503906" xlink:href="#i"/><use x="7952.685547" xlink:href="#af"/><use x="8021.826172" xlink:href="#h"/></g><path d="m867.37 106.61h264.01q2.6 0 2.6-2.6v-75.469q0-2.6-2.6-2.6h-264.01q-2.6 0-2.6 2.6v75.469q0 2.6 2.6 2.6z" fill="#fff" opacity=".8" stroke="#ccc"/><use x="882.96625" y="36.689375" fill="#0000ff" stroke="#0000ff" xlink:href="#a"/><g transform="translate(906.37 41.239) scale(.13 -.13)"><defs><path id="au" transform="scale(.015625)" d="m2522 4238q-688 0-1093-513-404-512-404-1397 0-881 404-1394 405-512 1093-512 687 0 1089 512 402 513 402 1394 0 885-402 1397-402 513-1089 513zm0 512q981 0 1568-658 588-658 588-1764 0-1103-588-1761-587-658-1568-658-984 0-1574 656-589 657-589 1763t589 1764q590 658 1574 658z"/></defs><use xlink:href="#au"/><use x="78.710938" xlink:href="#x"/><use x="142.1875" xlink:href="#ag"/><use x="203.857422" xlink:href="#o"/><use x="268.847656" xlink:href="#w"/><use x="327.099609" xlink:href="#h"/><use x="388.378906" xlink:href="#y"/><use x="452.294922" xlink:href="#aj"/><use x="511.230469" xlink:href="#t"/><use x="576.611328" xlink:href="#u"/><use x="655.566406" xlink:href="#q"/><use x="717.089844" xlink:href="#DejaVuSans-20"/><use x="748.876953" xlink:href="#x"/><use x="812.353516" xlink:href="#h"/><use x="873.632812" xlink:href="#k"/><use x="934.033203" xlink:href="#q"/><use x="995.556641" xlink:href="#w"/><use x="1053.808594" xlink:href="#t"/><use x="1119.189453" xlink:href="#u"/><use x="1198.144531" xlink:href="#q"/><use x="1259.667969" xlink:href="#DejaVuSans-20"/><use x="1291.455078" xlink:href="#z"/><use x="1344.628906" xlink:href="#h"/><use x="1405.908203" xlink:href="#s"/><use x="1471.289062" xlink:href="#n"/><use x="1530.46875" xlink:href="#j"/><use x="1585.449219" xlink:href="#k"/><use x="1645.849609" xlink:href="#o"/></g><use x="882.96625" y="55.770938" fill="#ff0000" stroke="#ff0000" xlink:href="#b"/><g transform="translate(906.37 60.321) scale(.13 -.13)"><defs><path id="av" transform="scale(.015625)" d="m628 4666h631v-1913h2294v1913h631v-4666h-631v2222h-2294v-2222h-631v4666z"/></defs><use xlink:href="#av"/><use x="75.195312" xlink:href="#q"/><use x="136.71875" xlink:href="#n"/><use x="195.898438" xlink:href="#af"/><use x="265.039062" xlink:href="#h"/><use x="326.318359" xlink:href="#ab"/><use x="385.400391" xlink:href="#t"/><use x="450.78125" xlink:href="#u"/><use x="529.736328" xlink:href="#q"/><use x="591.259766" xlink:href="#DejaVuSans-20"/><use x="623.046875" xlink:href="#s"/><use x="688.427734" xlink:href="#i"/><use x="749.609375" xlink:href="#s"/><use x="814.990234" xlink:href="#u"/><use x="893.945312" xlink:href="#w"/><use x="952.197266" xlink:href="#k"/><use x="1012.597656" xlink:href="#o"/></g><use x="882.96625" y="75.073906" stroke="#000000" xlink:href="#c"/><g transform="translate(906.37 79.624) scale(.13 -.13)"><defs><path id="ay" transform="scale(.015625)" d="m1828 4750q769 0 1256-327 488-326 488-882 0-388-222-655t-631-370q453-97 707-404 255-306 255-756 0-718-555-1083-554-364-1298-364-381 0-825 103-444 104-581 191v650q478-278 742-345t652-67q587 0 912 225t325 690q0 413-289 645-289 233-898 233h-638v519h663q559 0 806 186t247 536q0 359-255 551-255 193-873 193-419 0-563-38-144-37-784-278v616q353 125 721 178 369 53 638 53z"/></defs><use xlink:href="#ay"/><use x="64.111328" xlink:href="#h"/><use x="125.390625" xlink:href="#s"/><use x="190.771484" xlink:href="#n"/><use x="249.951172" xlink:href="#j"/><use x="304.931641" xlink:href="#k"/><use x="365.332031" xlink:href="#o"/><use x="430.322266" xlink:href="#DejaVuSans-20"/><use x="462.109375" xlink:href="#aa"/><use x="521.044922" xlink:href="#DejaVuSans-20"/><use x="552.832031" xlink:href="#ac"/><use x="605.371094" xlink:href="#y"/><use x="669.287109" xlink:href="#n"/><use x="728.466797" xlink:href="#ag"/><use x="790.136719" xlink:href="#i"/><use x="851.318359" xlink:href="#k"/><use x="911.71875" xlink:href="#o"/><use x="976.708984" xlink:href="#an"/><use x="1041.699219" xlink:href="#DejaVuSans-20"/><use x="1073.486328" xlink:href="#k"/><use x="1133.886719" xlink:href="#i"/><use x="1195.068359" xlink:href="#j"/><use x="1250.048828" xlink:href="#al"/><use x="1325.488281" xlink:href="#i"/><use x="1386.669922" xlink:href="#j"/></g><use x="882.96625" y="94.155469" fill="#008000" stroke="#008000" xlink:href="#d"/><g transform="translate(906.37 98.705) scale(.13 -.13)"><defs><path id="az" transform="scale(.015625)" d="m628 0v4666h2903v-532h-2272v-4134h-631z"/></defs><use xlink:href="#az"/><use x="60.986328" xlink:href="#x"/><use x="124.462891" xlink:href="#h"/><use x="185.742188" xlink:href="#t"/><use x="251.123047" xlink:href="#o"/><use x="316.113281" xlink:href="#ab"/><use x="375.195312" xlink:href="#t"/><use x="440.576172" xlink:href="#u"/><use x="519.53125" xlink:href="#q"/><use x="581.054688" xlink:href="#DejaVuSans-20"/><use x="612.841797" xlink:href="#z"/><use x="666.015625" xlink:href="#h"/><use x="727.294922" xlink:href="#s"/><use x="792.675781" xlink:href="#n"/><use x="851.855469" xlink:href="#j"/><use x="906.835938" xlink:href="#k"/><use x="967.236328" xlink:href="#o"/></g><defs><clipPath id="g"><rect x="55.296" y="19.44" width="1085.2" height="589.68"/></clipPath></defs></svg>
