<?xml version="1.0" encoding="UTF-8"?>
<!DOCTYPE svg  PUBLIC '-//W3C//DTD SVG 1.1//EN'  'http://www.w3.org/Graphics/SVG/1.1/DTD/svg11.dtd'>
<svg width="1152pt" height="648pt" version="1.1" viewBox="0 0 1152 648" xmlns="http://www.w3.org/2000/svg" xmlns:xlink="http://www.w3.org/1999/xlink"><defs><style type="text/css">*{stroke-linejoin: round; stroke-linecap: butt}</style></defs><path d="m0 648h1152v-648h-1152z" fill="#fff"/><path d="m55.296 609.12h1085.2v-589.68h-1085.2z" fill="#fff"/><path d="m117.94 609.12v-589.68" clip-path="url(#g)" fill="none" stroke="#b0b0b0" stroke-dasharray="0.8,1.32" stroke-width=".8"/><defs><path id="l" d="m0 0v3.5" stroke="#000" stroke-width=".8"/></defs><use x="117.939586" y="609.12" stroke="#000000" stroke-width=".8" xlink:href="#l"/><g transform="translate(105.21 623.72) scale(.1 -.1)"><defs><path id="p" transform="scale(.015625)" d="m794 531h1031v3560l-1122-225v575l1116 225h631v-4135h1031v-531h-2687v531z"/><path id="o" transform="scale(.015625)" d="m703 97v575q238-113 481-172 244-59 479-59 625 0 954 420 330 420 377 1277-181-269-460-413-278-144-615-144-700 0-1108 423-408 424-408 1159 0 718 425 1152 425 435 1131 435 810 0 1236-621 427-620 427-1801 0-1103-524-1761-523-658-1407-658-238 0-482 47-243 47-506 141zm1256 1978q425 0 673 290 249 291 249 798 0 503-249 795-248 292-673 292t-673-292-248-795q0-507 248-798 248-290 673-290z"/><path id="am" transform="scale(.015625)" d="m2113 2584q-425 0-674-291-248-290-248-796 0-503 248-796 249-292 674-292t673 292q248 293 248 796 0 506-248 796-248 291-673 291zm1253 1979v-575q-238 112-480 171-242 60-480 60-625 0-955-422-329-422-376-1275 184 272 462 417 279 145 613 145 703 0 1111-427 408-426 408-1160 0-719-425-1154-425-434-1131-434-810 0-1238 620-428 621-428 1799 0 1106 525 1764t1409 658q238 0 480-47t505-140z"/><path id="f" transform="scale(.015625)" d="m2034 4250q-487 0-733-480-245-479-245-1442 0-959 245-1439 246-480 733-480 491 0 736 480 246 480 246 1439 0 963-246 1442-245 480-736 480zm0 500q785 0 1199-621 414-620 414-1801 0-1178-414-1799-414-620-1199-620-784 0-1198 620-414 621-414 1799 0 1181 414 1801 414 621 1198 621z"/></defs><use xlink:href="#p"/><use x="63.623047" xlink:href="#o"/><use x="127.246094" xlink:href="#am"/><use x="190.869141" xlink:href="#f"/></g><path d="m196.97 609.12v-589.68" clip-path="url(#g)" fill="none" stroke="#b0b0b0" stroke-dasharray="0.8,1.32" stroke-width=".8"/><use x="196.96823" y="609.12" stroke="#000000" stroke-width=".8" xlink:href="#l"/><g transform="translate(184.24 623.72) scale(.1 -.1)"><defs><path id="v" transform="scale(.015625)" d="m691 4666h2478v-532h-1900v-1143q137 47 274 70 138 23 276 23 781 0 1237-428 457-428 457-1159 0-753-469-1171-469-417-1322-417-294 0-599 50-304 50-629 150v635q281-153 581-228t634-75q541 0 856 284 316 284 316 772 0 487-316 771-315 285-856 285-253 0-505-56-251-56-513-175v2344z"/></defs><use xlink:href="#p"/><use x="63.623047" xlink:href="#o"/><use x="127.246094" xlink:href="#am"/><use x="190.869141" xlink:href="#v"/></g><path d="m275.95 609.12v-589.68" clip-path="url(#g)" fill="none" stroke="#b0b0b0" stroke-dasharray="0.8,1.32" stroke-width=".8"/><use x="275.953618" y="609.12" stroke="#000000" stroke-width=".8" xlink:href="#l"/><g transform="translate(263.23 623.72) scale(.1 -.1)"><defs><path id="al" transform="scale(.015625)" d="m525 4666h3e3v-269l-1694-4397h-659l1594 4134h-2241v532z"/></defs><use xlink:href="#p"/><use x="63.623047" xlink:href="#o"/><use x="127.246094" xlink:href="#al"/><use x="190.869141" xlink:href="#f"/></g><path d="m354.94 609.12v-589.68" clip-path="url(#g)" fill="none" stroke="#b0b0b0" stroke-dasharray="0.8,1.32" stroke-width=".8"/><use x="354.939007" y="609.12" stroke="#000000" stroke-width=".8" xlink:href="#l"/><g transform="translate(342.21 623.72) scale(.1 -.1)"><use xlink:href="#p"/><use x="63.623047" xlink:href="#o"/><use x="127.246094" xlink:href="#al"/><use x="190.869141" xlink:href="#v"/></g><path d="m433.92 609.12v-589.68" clip-path="url(#g)" fill="none" stroke="#b0b0b0" stroke-dasharray="0.8,1.32" stroke-width=".8"/><use x="433.924395" y="609.12" stroke="#000000" stroke-width=".8" xlink:href="#l"/><g transform="translate(421.2 623.72) scale(.1 -.1)"><defs><path id="ak" transform="scale(.015625)" d="m2034 2216q-450 0-708-241-257-241-257-662 0-422 257-663 258-241 708-241t709 242q260 243 260 662 0 421-258 662-257 241-711 241zm-631 268q-406 100-633 378-226 279-226 679 0 559 398 884 399 325 1092 325 697 0 1094-325t397-884q0-400-227-679-226-278-629-378 456-106 710-416 255-309 255-755 0-679-414-1042-414-362-1186-362-771 0-1186 362-414 363-414 1042 0 446 256 755 257 310 713 416zm-231 997q0-362 226-565 227-203 636-203 407 0 636 203 230 203 230 565 0 363-230 566-229 203-636 203-409 0-636-203-226-203-226-566z"/></defs><use xlink:href="#p"/><use x="63.623047" xlink:href="#o"/><use x="127.246094" xlink:href="#ak"/><use x="190.869141" xlink:href="#f"/></g><path d="m512.95 609.12v-589.68" clip-path="url(#g)" fill="none" stroke="#b0b0b0" stroke-dasharray="0.8,1.32" stroke-width=".8"/><use x="512.953039" y="609.12" stroke="#000000" stroke-width=".8" xlink:href="#l"/><g transform="translate(500.23 623.72) scale(.1 -.1)"><use xlink:href="#p"/><use x="63.623047" xlink:href="#o"/><use x="127.246094" xlink:href="#ak"/><use x="190.869141" xlink:href="#v"/></g><path d="m591.94 609.12v-589.68" clip-path="url(#g)" fill="none" stroke="#b0b0b0" stroke-dasharray="0.8,1.32" stroke-width=".8"/><use x="591.938428" y="609.12" stroke="#000000" stroke-width=".8" xlink:href="#l"/><g transform="translate(579.21 623.72) scale(.1 -.1)"><use xlink:href="#p"/><use x="63.623047" xlink:href="#o"/><use x="127.246094" xlink:href="#o"/><use x="190.869141" xlink:href="#f"/></g><path d="m670.92 609.12v-589.68" clip-path="url(#g)" fill="none" stroke="#b0b0b0" stroke-dasharray="0.8,1.32" stroke-width=".8"/><use x="670.923816" y="609.12" stroke="#000000" stroke-width=".8" xlink:href="#l"/><g transform="translate(658.2 623.72) scale(.1 -.1)"><use xlink:href="#p"/><use x="63.623047" xlink:href="#o"/><use x="127.246094" xlink:href="#o"/><use x="190.869141" xlink:href="#v"/></g><path d="m749.91 609.12v-589.68" clip-path="url(#g)" fill="none" stroke="#b0b0b0" stroke-dasharray="0.8,1.32" stroke-width=".8"/><use x="749.909204" y="609.12" stroke="#000000" stroke-width=".8" xlink:href="#l"/><g transform="translate(737.18 623.72) scale(.1 -.1)"><defs><path id="r" transform="scale(.015625)" d="m1228 531h2203v-531h-2962v531q359 372 979 998 621 627 780 809 303 340 423 576 121 236 121 464 0 372-261 606-261 235-680 235-297 0-627-103-329-103-704-313v638q381 153 712 231 332 78 607 78 725 0 1156-363 431-362 431-968 0-288-108-546-107-257-392-607-78-91-497-524-418-433-1181-1211z"/></defs><use xlink:href="#r"/><use x="63.623047" xlink:href="#f"/><use x="127.246094" xlink:href="#f"/><use x="190.869141" xlink:href="#f"/></g><path d="m828.94 609.12v-589.68" clip-path="url(#g)" fill="none" stroke="#b0b0b0" stroke-dasharray="0.8,1.32" stroke-width=".8"/><use x="828.937849" y="609.12" stroke="#000000" stroke-width=".8" xlink:href="#l"/><g transform="translate(816.21 623.72) scale(.1 -.1)"><use xlink:href="#r"/><use x="63.623047" xlink:href="#f"/><use x="127.246094" xlink:href="#f"/><use x="190.869141" xlink:href="#v"/></g><path d="m907.92 609.12v-589.68" clip-path="url(#g)" fill="none" stroke="#b0b0b0" stroke-dasharray="0.8,1.32" stroke-width=".8"/><use x="907.923237" y="609.12" stroke="#000000" stroke-width=".8" xlink:href="#l"/><g transform="translate(895.2 623.72) scale(.1 -.1)"><use xlink:href="#r"/><use x="63.623047" xlink:href="#f"/><use x="127.246094" xlink:href="#p"/><use x="190.869141" xlink:href="#f"/></g><path d="m986.91 609.12v-589.68" clip-path="url(#g)" fill="none" stroke="#b0b0b0" stroke-dasharray="0.8,1.32" stroke-width=".8"/><use x="986.908625" y="609.12" stroke="#000000" stroke-width=".8" xlink:href="#l"/><g transform="translate(974.18 623.72) scale(.1 -.1)"><use xlink:href="#r"/><use x="63.623047" xlink:href="#f"/><use x="127.246094" xlink:href="#p"/><use x="190.869141" xlink:href="#v"/></g><path d="m1065.9 609.12v-589.68" clip-path="url(#g)" fill="none" stroke="#b0b0b0" stroke-dasharray="0.8,1.32" stroke-width=".8"/><use x="1065.894013" y="609.12" stroke="#000000" stroke-width=".8" xlink:href="#l"/><g transform="translate(1053.2 623.72) scale(.1 -.1)"><use xlink:href="#r"/><use x="63.623047" xlink:href="#f"/><use x="127.246094" xlink:href="#r"/><use x="190.869141" xlink:href="#f"/></g><defs><path id="e" d="m0 0v2" stroke="#000" stroke-width=".6"/></defs><use x="70.574306" y="609.12" stroke="#000000" stroke-width=".6" xlink:href="#e"/><use x="86.362733" y="609.12" stroke="#000000" stroke-width=".6" xlink:href="#e"/><use x="102.151159" y="609.12" stroke="#000000" stroke-width=".6" xlink:href="#e"/><use x="133.771268" y="609.12" stroke="#000000" stroke-width=".6" xlink:href="#e"/><use x="149.559695" y="609.12" stroke="#000000" stroke-width=".6" xlink:href="#e"/><use x="165.348121" y="609.12" stroke="#000000" stroke-width=".6" xlink:href="#e"/><use x="181.136548" y="609.12" stroke="#000000" stroke-width=".6" xlink:href="#e"/><use x="212.756657" y="609.12" stroke="#000000" stroke-width=".6" xlink:href="#e"/><use x="228.545083" y="609.12" stroke="#000000" stroke-width=".6" xlink:href="#e"/><use x="244.33351" y="609.12" stroke="#000000" stroke-width=".6" xlink:href="#e"/><use x="260.165192" y="609.12" stroke="#000000" stroke-width=".6" xlink:href="#e"/><use x="291.742045" y="609.12" stroke="#000000" stroke-width=".6" xlink:href="#e"/><use x="307.530471" y="609.12" stroke="#000000" stroke-width=".6" xlink:href="#e"/><use x="323.362154" y="609.12" stroke="#000000" stroke-width=".6" xlink:href="#e"/><use x="339.15058" y="609.12" stroke="#000000" stroke-width=".6" xlink:href="#e"/><use x="370.727433" y="609.12" stroke="#000000" stroke-width=".6" xlink:href="#e"/><use x="386.559116" y="609.12" stroke="#000000" stroke-width=".6" xlink:href="#e"/><use x="402.347542" y="609.12" stroke="#000000" stroke-width=".6" xlink:href="#e"/><use x="418.135969" y="609.12" stroke="#000000" stroke-width=".6" xlink:href="#e"/><use x="449.756078" y="609.12" stroke="#000000" stroke-width=".6" xlink:href="#e"/><use x="465.544504" y="609.12" stroke="#000000" stroke-width=".6" xlink:href="#e"/><use x="481.33293" y="609.12" stroke="#000000" stroke-width=".6" xlink:href="#e"/><use x="497.121357" y="609.12" stroke="#000000" stroke-width=".6" xlink:href="#e"/><use x="528.741466" y="609.12" stroke="#000000" stroke-width=".6" xlink:href="#e"/><use x="544.529892" y="609.12" stroke="#000000" stroke-width=".6" xlink:href="#e"/><use x="560.318319" y="609.12" stroke="#000000" stroke-width=".6" xlink:href="#e"/><use x="576.150001" y="609.12" stroke="#000000" stroke-width=".6" xlink:href="#e"/><use x="607.726854" y="609.12" stroke="#000000" stroke-width=".6" xlink:href="#e"/><use x="623.515281" y="609.12" stroke="#000000" stroke-width=".6" xlink:href="#e"/><use x="639.346963" y="609.12" stroke="#000000" stroke-width=".6" xlink:href="#e"/><use x="655.13539" y="609.12" stroke="#000000" stroke-width=".6" xlink:href="#e"/><use x="686.712242" y="609.12" stroke="#000000" stroke-width=".6" xlink:href="#e"/><use x="702.543925" y="609.12" stroke="#000000" stroke-width=".6" xlink:href="#e"/><use x="718.332351" y="609.12" stroke="#000000" stroke-width=".6" xlink:href="#e"/><use x="734.120778" y="609.12" stroke="#000000" stroke-width=".6" xlink:href="#e"/><use x="765.740887" y="609.12" stroke="#000000" stroke-width=".6" xlink:href="#e"/><use x="781.529313" y="609.12" stroke="#000000" stroke-width=".6" xlink:href="#e"/><use x="797.31774" y="609.12" stroke="#000000" stroke-width=".6" xlink:href="#e"/><use x="813.106166" y="609.12" stroke="#000000" stroke-width=".6" xlink:href="#e"/><use x="844.726275" y="609.12" stroke="#000000" stroke-width=".6" xlink:href="#e"/><use x="860.514701" y="609.12" stroke="#000000" stroke-width=".6" xlink:href="#e"/><use x="876.303128" y="609.12" stroke="#000000" stroke-width=".6" xlink:href="#e"/><use x="892.13481" y="609.12" stroke="#000000" stroke-width=".6" xlink:href="#e"/><use x="923.711663" y="609.12" stroke="#000000" stroke-width=".6" xlink:href="#e"/><use x="939.50009" y="609.12" stroke="#000000" stroke-width=".6" xlink:href="#e"/><use x="955.331772" y="609.12" stroke="#000000" stroke-width=".6" xlink:href="#e"/><use x="971.120199" y="609.12" stroke="#000000" stroke-width=".6" xlink:href="#e"/><use x="1002.697052" y="609.12" stroke="#000000" stroke-width=".6" xlink:href="#e"/><use x="1018.528734" y="609.12" stroke="#000000" stroke-width=".6" xlink:href="#e"/><use x="1034.317161" y="609.12" stroke="#000000" stroke-width=".6" xlink:href="#e"/><use x="1050.105587" y="609.12" stroke="#000000" stroke-width=".6" xlink:href="#e"/><use x="1081.725696" y="609.12" stroke="#000000" stroke-width=".6" xlink:href="#e"/><use x="1097.514122" y="609.12" stroke="#000000" stroke-width=".6" xlink:href="#e"/><use x="1113.302549" y="609.12" stroke="#000000" stroke-width=".6" xlink:href="#e"/><use x="1129.090975" y="609.12" stroke="#000000" stroke-width=".6" xlink:href="#e"/><g transform="translate(552.07 640.44) scale(.14 -.14)"><defs><path id="ao" transform="scale(.015625)" d="m1259 2228v-1709h1013q509 0 754 211 246 211 246 645 0 438-246 645-245 208-754 208h-1013zm0 1919v-1406h935q462 0 688 173 227 174 227 530 0 353-227 528-226 175-688 175h-935zm-631 519h1613q722 0 1112-300 391-300 391-853 0-429-200-682t-588-315q466-100 724-418 258-317 258-792 0-625-425-966-425-340-1210-340h-1675v4666z"/><path id="z" transform="scale(.015625)" d="m1159 525v-1856h-578v4831h578v-531q182 312 458 463 277 152 661 152 638 0 1036-506 399-506 399-1331t-399-1332q-398-506-1036-506-384 0-661 152-276 152-458 464zm1957 1222q0 634-261 995t-717 361q-457 0-718-361t-261-995 261-995 718-361q456 0 717 361t261 995z"/><path id="q" transform="scale(.015625)" d="m3597 1894v-281h-2644q38-594 358-905t892-311q331 0 642 81t618 244v-544q-310-131-635-200t-659-69q-838 0-1327 487-489 488-489 1320 0 859 464 1363 464 505 1252 505 706 0 1117-455 411-454 411-1235zm-575 169q-6 471-264 752-258 282-683 282-481 0-770-272t-333-766l2050 4z"/><path id="af" transform="scale(.015625)" d="m581 3500h841l994-2344 997 2344h834v-3500h-578v2950l-966-2278h-575l-969 2278v-2950h-578v3500z"/><path id="aq" transform="scale(.015625)" d="m1181 2491q0-260 200-407 200-146 572-146h775v1103h-775q-372 0-572-144t-200-406zm-818-2491 1068 1534q-362 82-603 296-240 214-240 661 0 506 335 757 336 252 1015 252h1368v-3500h-578v1478h-715l-1032-1478h-618z"/><path id="an" transform="scale(.015625)" d="m750 794h659v-538l-512-1e3h-403l256 1e3v538z"/><path id="ab" transform="scale(.015625)" d="m581 0v3500h2469v-459h-1891v-3041h-578z"/><path id="h" transform="scale(.015625)" d="m1959 3097q-462 0-731-361t-269-989 267-989q268-361 733-361 460 0 728 362 269 363 269 988 0 622-269 986-268 364-728 364zm0 487q750 0 1178-488 429-487 429-1349 0-859-429-1349-428-489-1178-489-753 0-1180 489-426 490-426 1349 0 862 426 1349 427 488 1180 488z"/><path id="ag" transform="scale(.015625)" d="m1384 459h1669v2582h-1209v-438q0-1287-369-1975l-91-169zm-834 0q284 125 409 391 307 659 307 1988v662h2365v-3041h460v-1343h-460v884h-2837v-884h-460v1343h216z"/><path id="w" transform="scale(.015625)" d="m3907 3500h575v-3500h-575v3500zm288 84zm-1414-2546q0 281-205 428-204 147-598 147h-819v-1154h819q394 0 598 148 205 149 205 431zm-2200 2462h578v-1428h844q669 0 1030-255 361-254 361-779t-361-782q-361-256-1030-256h-1422v3500z"/></defs><use xlink:href="#ao"/><use x="68.603516" xlink:href="#z"/><use x="132.080078" xlink:href="#q"/><use x="193.603516" xlink:href="#af"/><use x="269.042969" xlink:href="#aq"/><use x="329.199219" xlink:href="#an"/><use x="360.986328" xlink:href="#DejaVuSans-20"/><use x="392.773438" xlink:href="#ab"/><use x="445.3125" xlink:href="#h"/><use x="506.494141" xlink:href="#ag"/><use x="575.634766" xlink:href="#w"/></g><path d="m55.296 602.64h1085.2" clip-path="url(#g)" fill="none" stroke="#b0b0b0" stroke-dasharray="0.8,1.32" stroke-width=".8"/><defs><path id="ac" d="m0 0h-3.5" stroke="#000" stroke-width=".8"/></defs><use x="55.296" y="602.64" stroke="#000000" stroke-width=".8" xlink:href="#ac"/><g transform="translate(41.934 606.44) scale(.1 -.1)"><use xlink:href="#f"/></g><path d="m55.296 473.04h1085.2" clip-path="url(#g)" fill="none" stroke="#b0b0b0" stroke-dasharray="0.8,1.32" stroke-width=".8"/><use x="55.296" y="473.04" stroke="#000000" stroke-width=".8" xlink:href="#ac"/><g transform="translate(29.208 476.84) scale(.1 -.1)"><use xlink:href="#p"/><use x="63.623047" xlink:href="#f"/><use x="127.246094" xlink:href="#f"/></g><path d="m55.296 343.44h1085.2" clip-path="url(#g)" fill="none" stroke="#b0b0b0" stroke-dasharray="0.8,1.32" stroke-width=".8"/><use x="55.296" y="343.44" stroke="#000000" stroke-width=".8" xlink:href="#ac"/><g transform="translate(29.208 347.24) scale(.1 -.1)"><use xlink:href="#r"/><use x="63.623047" xlink:href="#f"/><use x="127.246094" xlink:href="#f"/></g><path d="m55.296 213.84h1085.2" clip-path="url(#g)" fill="none" stroke="#b0b0b0" stroke-dasharray="0.8,1.32" stroke-width=".8"/><use x="55.296" y="213.84" stroke="#000000" stroke-width=".8" xlink:href="#ac"/><g transform="translate(29.208 217.64) scale(.1 -.1)"><defs><path id="ah" transform="scale(.015625)" d="m2597 2516q453-97 707-404 255-306 255-756 0-690-475-1069-475-378-1350-378-293 0-604 58t-642 174v609q262-153 574-231 313-78 654-78 593 0 904 234t311 681q0 413-289 645-289 233-804 233h-544v519h569q465 0 712 186t247 536q0 359-255 551-254 193-729 193-260 0-557-57-297-56-653-174v562q360 100 674 150t592 50q719 0 1137-327 419-326 419-882 0-388-222-655t-631-370z"/></defs><use xlink:href="#ah"/><use x="63.623047" xlink:href="#f"/><use x="127.246094" xlink:href="#f"/></g><path d="m55.296 84.24h1085.2" clip-path="url(#g)" fill="none" stroke="#b0b0b0" stroke-dasharray="0.8,1.32" stroke-width=".8"/><use x="55.296" y="84.24" stroke="#000000" stroke-width=".8" xlink:href="#ac"/><g transform="translate(29.208 88.039) scale(.1 -.1)"><defs><path id="az" transform="scale(.015625)" d="m2419 4116-1594-2491h1594v2491zm-166 550h794v-3041h666v-525h-666v-1100h-628v1100h-2106v609l1940 2957z"/></defs><use xlink:href="#az"/><use x="63.623047" xlink:href="#f"/><use x="127.246094" xlink:href="#f"/></g><g transform="translate(22.713 381.56) rotate(-90) scale(.12 -.12)"><defs><path id="aw" transform="scale(.015625)" d="m628 4666h631v-2307l2257 2307h809l-1803-1844 1897-2822h-688l-1618 2403-854-872v-1531h-631v4666z"/><path id="x" transform="scale(.015625)" d="m238 0v478q568 88 743 481 213 554 213 1969v572h2365v-3500h-575v3041h-1215v-347q0-1350-275-1956-294-647-1256-738z"/><path id="n" transform="scale(.015625)" d="m3578 3500v-3500h-572v2809l-1687-2809h-738v3500h572v-2803l1685 2803h740z"/><path id="ad" transform="scale(.015625)" d="m2625 0v1472h-1072q-478 0-797 297-287 269-287 844v887h575v-834q0-366 162-550 166-185 491-185h928v1569h575v-3500h-575z"/><path id="i" transform="scale(.015625)" d="m3122 3366v-538q-244 135-489 202t-495 67q-560 0-870-355-309-354-309-995t309-996q310-354 870-354 250 0 495 67t489 202v-532q-241-112-499-168-257-57-548-57-791 0-1257 497-465 497-465 1341 0 856 470 1346 471 491 1290 491 265 0 518-55 253-54 491-163z"/><path id="y" transform="scale(.015625)" d="m188 3500h3353v-459h-1394v-3041h-566v3041h-1393v459z"/><path id="t" transform="scale(.015625)" d="m1156 1613v-1154h819q394 0 600 148 206 149 206 431 0 281-206 428t-600 147h-819zm0 1428v-969h757q325 0 531 129 206 130 206 362 0 231-206 354-206 124-531 124h-757zm-575 459h1369q616 0 947-225t331-641q0-321-169-511-168-189-500-235 397-75 616-313 219-237 219-594 0-468-361-725-361-256-1030-256h-1422v3500z"/><path id="aa" transform="scale(.015625)" d="m2206 1888q388-75 603-304 216-228 216-565 0-541-403-826-403-284-1147-284-250 0-514 44t-545 131v535q222-116 487-174 266-57 556-57 472 0 736 175t264 456q0 275-234 442t-662 167h-463v475h484q363 0 574 139t211 358q0 200-218 344-217 144-588 144-222 0-474-41-251-41-555-131v522q307 75 572 112 266 38 503 38 613 0 967-246 355-245 355-686 0-290-188-492-187-201-537-276z"/><path id="j" transform="scale(.015625)" d="m2194 1759q-697 0-966-159t-269-544q0-306 202-486 202-179 548-179 479 0 768 339t289 901v128h-572zm1147 238v-1997h-575v531q-197-318-491-470t-719-152q-537 0-855 302-317 302-317 808 0 590 395 890 396 300 1180 300h807v57q0 397-261 614t-733 217q-300 0-585-72-284-72-546-216v532q315 122 612 182 297 61 578 61 760 0 1135-394 375-393 375-1193z"/><path id="s" transform="scale(.015625)" d="m3603 3500v-3500h-578v3041h-1866v-3041h-578v3500h3022z"/><path id="m" transform="scale(.015625)" d="m2059-325q-243-625-475-815-231-191-618-191h-460v481h338q237 0 368 113 132 112 291 531l103 262-1415 3444h609l1094-2737 1094 2737h609l-1538-3825z"/><path id="k" transform="scale(.015625)" d="m581 3500h572v-1644l1622 1644h706l-1337-1353 1509-2147h-644l-1240 1766-616-625v-1141h-572v3500z"/></defs><use xlink:href="#aw"/><use x="70.996094" xlink:href="#h"/><use x="132.177734" xlink:href="#x"/><use x="196.09375" xlink:href="#n"/><use x="261.083984" xlink:href="#ad"/><use x="320.166016" xlink:href="#q"/><use x="381.689453" xlink:href="#i"/><use x="436.669922" xlink:href="#y"/><use x="494.921875" xlink:href="#t"/><use x="553.857422" xlink:href="#h"/><use x="615.039062" xlink:href="#DejaVuSans-20"/><use x="646.826172" xlink:href="#aa"/><use x="700" xlink:href="#j"/><use x="761.279297" xlink:href="#s"/><use x="826.660156" xlink:href="#m"/><use x="885.839844" xlink:href="#i"/><use x="940.820312" xlink:href="#k"/><use x="1001.220703" xlink:href="#h"/><use x="1062.402344" xlink:href="#t"/></g><defs><path id="d" d="m0 0.5c0.1326 0 0.25979-0.052683 0.35355-0.14645 0.093764-0.093763 0.14645-0.22095 0.14645-0.35355s-0.052683-0.25979-0.14645-0.35355c-0.093763-0.093764-0.22095-0.14645-0.35355-0.14645s-0.25979 0.052683-0.35355 0.14645c-0.093764 0.093763-0.14645 0.22095-0.14645 0.35355s0.052683 0.25979 0.14645 0.35355c0.093763 0.093764 0.22095 0.14645 0.35355 0.14645z" stroke="#008000"/></defs><g clip-path="url(#g)" fill="#008000" stroke="#008000"><use x="83.084291" y="601.344" xlink:href="#d"/><use x="97.982456" y="600.048" xlink:href="#d"/><use x="109.760724" y="598.752" xlink:href="#d"/><use x="122.508497" y="597.456" xlink:href="#d"/><use x="129.38259" y="596.16" xlink:href="#d"/><use x="129.948583" y="594.864" xlink:href="#d"/><use x="138.538586" y="593.568" xlink:href="#d"/><use x="143.658921" y="592.272" xlink:href="#d"/><use x="146.389483" y="590.976" xlink:href="#d"/><use x="148.355737" y="589.68" xlink:href="#d"/><use x="153.33564" y="588.384" xlink:href="#d"/><use x="154.975822" y="587.088" xlink:href="#d"/><use x="160.056535" y="585.792" xlink:href="#d"/><use x="174.460741" y="584.496" xlink:href="#d"/><use x="184.21496" y="583.2" xlink:href="#d"/><use x="185.673137" y="581.904" xlink:href="#d"/><use x="185.970552" y="580.608" xlink:href="#d"/><use x="191.096233" y="579.312" xlink:href="#d"/><use x="194.591045" y="578.016" xlink:href="#d"/><use x="197.77207" y="576.72" xlink:href="#d"/><use x="200.803592" y="575.424" xlink:href="#d"/><use x="201.239787" y="574.128" xlink:href="#d"/><use x="202.297875" y="572.832" xlink:href="#d"/><use x="202.663599" y="571.536" xlink:href="#d"/><use x="203.10532" y="570.24" xlink:href="#d"/><use x="203.874826" y="568.944" xlink:href="#d"/><use x="212.089794" y="567.648" xlink:href="#d"/><use x="214.292273" y="566.352" xlink:href="#d"/><use x="214.487045" y="565.056" xlink:href="#d"/><use x="215.207858" y="563.76" xlink:href="#d"/><use x="216.045942" y="562.464" xlink:href="#d"/><use x="218.760314" y="561.168" xlink:href="#d"/><use x="222.995734" y="559.872" xlink:href="#d"/><use x="223.961904" y="558.576" xlink:href="#d"/><use x="228.108949" y="557.28" xlink:href="#d"/><use x="230.457507" y="555.984" xlink:href="#d"/><use x="231.311662" y="554.688" xlink:href="#d"/><use x="233.261876" y="553.392" xlink:href="#d"/><use x="241.163298" y="552.096" xlink:href="#d"/><use x="250.428996" y="550.8" xlink:href="#d"/><use x="250.73362" y="549.504" xlink:href="#d"/><use x="254.48247" y="548.208" xlink:href="#d"/><use x="261.223191" y="546.912" xlink:href="#d"/><use x="268.89043" y="545.616" xlink:href="#d"/><use x="274.162161" y="544.32" xlink:href="#d"/><use x="282.962917" y="543.024" xlink:href="#d"/><use x="287.342673" y="541.728" xlink:href="#d"/><use x="290.397626" y="540.432" xlink:href="#d"/><use x="293.331822" y="539.136" xlink:href="#d"/><use x="300.986235" y="537.84" xlink:href="#d"/><use x="303.116651" y="536.544" xlink:href="#d"/><use x="309.819583" y="535.248" xlink:href="#d"/><use x="312.463514" y="533.952" xlink:href="#d"/><use x="322.623348" y="532.656" xlink:href="#d"/><use x="328.309585" y="531.36" xlink:href="#d"/><use x="329.432527" y="530.064" xlink:href="#d"/><use x="378.057637" y="528.768" xlink:href="#d"/><use x="380.728632" y="527.472" xlink:href="#d"/><use x="430.44238" y="526.176" xlink:href="#d"/><use x="448.773837" y="524.88" xlink:href="#d"/><use x="550.356921" y="523.584" xlink:href="#d"/><use x="671.55295" y="522.288" xlink:href="#d"/><use x="751.641335" y="520.992" xlink:href="#d"/><use x="777.149767" y="519.696" xlink:href="#d"/><use x="808.495892" y="518.4" xlink:href="#d"/><use x="826.634529" y="517.104" xlink:href="#d"/><use x="961.063338" y="515.808" xlink:href="#d"/><use x="988.70567" y="514.512" xlink:href="#d"/><use x="1079.78113" y="513.216" xlink:href="#d"/><use x="1080.498338" y="511.92" xlink:href="#d"/><use x="1090.67968" y="510.624" xlink:href="#d"/><use x="1101.070213" y="509.328" xlink:href="#d"/><use x="1106.949449" y="508.032" xlink:href="#d"/><use x="1111.401119" y="506.736" xlink:href="#d"/></g><defs><path id="c" d="m0 1.25c0.3315 0 0.64948-0.13171 0.88388-0.36612 0.23441-0.23441 0.36612-0.55238 0.36612-0.88388s-0.13171-0.64948-0.36612-0.88388c-0.23441-0.23441-0.55238-0.36612-0.88388-0.36612s-0.64948 0.13171-0.88388 0.36612c-0.23441 0.23441-0.36612 0.55238-0.36612 0.88388s0.13171 0.64948 0.36612 0.88388c0.23441 0.23441 0.55238 0.36612 0.88388 0.36612z" stroke="#000"/></defs><g clip-path="url(#g)" stroke="#000000"><use x="102.194415" y="601.344" xlink:href="#c"/><use x="104.789773" y="600.048" xlink:href="#c"/><use x="113.138174" y="598.752" xlink:href="#c"/><use x="114.089805" y="597.456" xlink:href="#c"/><use x="120.967503" y="596.16" xlink:href="#c"/><use x="122.481462" y="594.864" xlink:href="#c"/><use x="135.588019" y="593.568" xlink:href="#c"/><use x="137.361513" y="592.272" xlink:href="#c"/><use x="150.641094" y="590.976" xlink:href="#c"/><use x="154.404363" y="589.68" xlink:href="#c"/><use x="159.854614" y="588.384" xlink:href="#c"/><use x="162.103924" y="587.088" xlink:href="#c"/><use x="162.709508" y="585.792" xlink:href="#c"/><use x="169.284414" y="584.496" xlink:href="#c"/><use x="177.849095" y="583.2" xlink:href="#c"/><use x="179.622589" y="581.904" xlink:href="#c"/><use x="182.390971" y="580.608" xlink:href="#c"/><use x="185.116096" y="579.312" xlink:href="#c"/><use x="189.701228" y="578.016" xlink:href="#c"/><use x="190.177044" y="576.72" xlink:href="#c"/><use x="191.864027" y="575.424" xlink:href="#c"/><use x="194.50264" y="574.128" xlink:href="#c"/><use x="195.497527" y="572.832" xlink:href="#c"/><use x="195.584039" y="571.536" xlink:href="#c"/><use x="199.00126" y="570.24" xlink:href="#c"/><use x="200.385451" y="568.944" xlink:href="#c"/><use x="202.504993" y="567.648" xlink:href="#c"/><use x="203.370113" y="566.352" xlink:href="#c"/><use x="203.802672" y="565.056" xlink:href="#c"/><use x="205.532911" y="563.76" xlink:href="#c"/><use x="205.619423" y="562.464" xlink:href="#c"/><use x="206.571054" y="561.168" xlink:href="#c"/><use x="208.906876" y="559.872" xlink:href="#c"/><use x="210.593858" y="558.576" xlink:href="#c"/><use x="210.766882" y="557.28" xlink:href="#c"/><use x="211.502234" y="555.984" xlink:href="#c"/><use x="212.064561" y="554.688" xlink:href="#c"/><use x="214.054336" y="553.392" xlink:href="#c"/><use x="216.606437" y="552.096" xlink:href="#c"/><use x="219.201795" y="550.8" xlink:href="#c"/><use x="220.585986" y="549.504" xlink:href="#c"/><use x="222.316224" y="548.208" xlink:href="#c"/><use x="222.619016" y="546.912" xlink:href="#c"/><use x="222.921808" y="545.616" xlink:href="#c"/><use x="224.089719" y="544.32" xlink:href="#c"/><use x="225.47391" y="543.024" xlink:href="#c"/><use x="225.646934" y="541.728" xlink:href="#c"/><use x="226.122749" y="540.432" xlink:href="#c"/><use x="228.069268" y="539.136" xlink:href="#c"/><use x="230.059042" y="537.84" xlink:href="#c"/><use x="231.486489" y="536.544" xlink:href="#c"/><use x="233.130215" y="535.248" xlink:href="#c"/><use x="233.606031" y="533.952" xlink:href="#c"/><use x="233.865567" y="532.656" xlink:href="#c"/><use x="234.730686" y="531.36" xlink:href="#c"/><use x="235.552549" y="530.064" xlink:href="#c"/><use x="235.639061" y="528.768" xlink:href="#c"/><use x="236.93674" y="527.472" xlink:href="#c"/><use x="237.15302" y="526.176" xlink:href="#c"/><use x="237.715347" y="524.88" xlink:href="#c"/><use x="239.359074" y="523.584" xlink:href="#c"/><use x="241.954432" y="522.288" xlink:href="#c"/><use x="243.511646" y="520.992" xlink:href="#c"/><use x="244.593045" y="519.696" xlink:href="#c"/><use x="246.972123" y="518.4" xlink:href="#c"/><use x="247.058635" y="517.104" xlink:href="#c"/><use x="248.529338" y="515.808" xlink:href="#c"/><use x="255.450292" y="514.512" xlink:href="#c"/><use x="257.82937" y="513.216" xlink:href="#c"/><use x="257.915882" y="511.92" xlink:href="#c"/><use x="258.997281" y="510.624" xlink:href="#c"/><use x="259.689376" y="509.328" xlink:href="#c"/><use x="260.338216" y="508.032" xlink:href="#c"/><use x="260.554496" y="506.736" xlink:href="#c"/><use x="262.54427" y="505.44" xlink:href="#c"/><use x="262.803806" y="504.144" xlink:href="#c"/><use x="263.841949" y="502.848" xlink:href="#c"/><use x="266.091259" y="501.552" xlink:href="#c"/><use x="266.307539" y="500.256" xlink:href="#c"/><use x="267.561962" y="498.96" xlink:href="#c"/><use x="268.513593" y="497.664" xlink:href="#c"/><use x="268.643361" y="496.368" xlink:href="#c"/><use x="268.859641" y="495.072" xlink:href="#c"/><use x="269.594992" y="493.776" xlink:href="#c"/><use x="273.877332" y="492.48" xlink:href="#c"/><use x="274.136868" y="491.184" xlink:href="#c"/><use x="280.149447" y="489.888" xlink:href="#c"/><use x="280.279215" y="488.592" xlink:href="#c"/><use x="285.815978" y="487.296" xlink:href="#c"/><use x="286.940633" y="486" xlink:href="#c"/><use x="287.329937" y="484.704" xlink:href="#c"/><use x="288.58436" y="483.408" xlink:href="#c"/><use x="289.492735" y="482.112" xlink:href="#c"/><use x="293.039724" y="480.816" xlink:href="#c"/><use x="293.29926" y="479.52" xlink:href="#c"/><use x="294.813218" y="478.224" xlink:href="#c"/><use x="297.711368" y="476.928" xlink:href="#c"/><use x="298.100671" y="475.632" xlink:href="#c"/><use x="298.187183" y="474.336" xlink:href="#c"/><use x="300.652773" y="473.04" xlink:href="#c"/><use x="300.955565" y="471.744" xlink:href="#c"/><use x="302.2965" y="470.448" xlink:href="#c"/><use x="303.421155" y="469.152" xlink:href="#c"/><use x="308.82815" y="467.856" xlink:href="#c"/><use x="309.433734" y="466.56" xlink:href="#c"/><use x="309.779781" y="465.264" xlink:href="#c"/><use x="310.212341" y="463.968" xlink:href="#c"/><use x="311.250484" y="462.672" xlink:href="#c"/><use x="312.029092" y="461.376" xlink:href="#c"/><use x="312.115603" y="460.08" xlink:href="#c"/><use x="312.461651" y="458.784" xlink:href="#c"/><use x="315.316545" y="457.488" xlink:href="#c"/><use x="319.036558" y="456.192" xlink:href="#c"/><use x="322.280755" y="454.896" xlink:href="#c"/><use x="323.664946" y="453.6" xlink:href="#c"/><use x="325.308672" y="452.304" xlink:href="#c"/><use x="327.47147" y="451.008" xlink:href="#c"/><use x="330.283108" y="449.712" xlink:href="#c"/><use x="332.056602" y="448.416" xlink:href="#c"/><use x="332.229626" y="447.12" xlink:href="#c"/><use x="332.705442" y="445.824" xlink:href="#c"/><use x="332.878466" y="444.528" xlink:href="#c"/><use x="336.252431" y="443.232" xlink:href="#c"/><use x="336.598479" y="441.936" xlink:href="#c"/><use x="345.552463" y="440.64" xlink:href="#c"/><use x="352.127369" y="439.344" xlink:href="#c"/><use x="353.987376" y="438.048" xlink:href="#c"/><use x="361.773449" y="436.752" xlink:href="#c"/><use x="362.032985" y="435.456" xlink:href="#c"/><use x="364.931134" y="434.16" xlink:href="#c"/><use x="365.796253" y="432.864" xlink:href="#c"/><use x="370.294874" y="431.568" xlink:href="#c"/><use x="371.333017" y="430.272" xlink:href="#c"/><use x="380.287001" y="428.976" xlink:href="#c"/><use x="380.719561" y="427.68" xlink:href="#c"/><use x="384.958645" y="426.384" xlink:href="#c"/><use x="396.551243" y="425.088" xlink:href="#c"/><use x="397.243339" y="423.792" xlink:href="#c"/><use x="397.97869" y="422.496" xlink:href="#c"/><use x="408.360121" y="421.2" xlink:href="#c"/><use x="411.820598" y="419.904" xlink:href="#c"/><use x="411.993622" y="418.608" xlink:href="#c"/><use x="413.204789" y="417.312" xlink:href="#c"/><use x="413.421069" y="416.016" xlink:href="#c"/><use x="415.410843" y="414.72" xlink:href="#c"/><use x="449.453286" y="413.424" xlink:href="#c"/><use x="462.819378" y="412.128" xlink:href="#c"/><use x="463.035658" y="410.832" xlink:href="#c"/><use x="484.836663" y="409.536" xlink:href="#c"/><use x="487.605045" y="408.24" xlink:href="#c"/><use x="487.907837" y="406.944" xlink:href="#c"/><use x="488.124117" y="405.648" xlink:href="#c"/><use x="489.16226" y="404.352" xlink:href="#c"/><use x="512.217688" y="403.056" xlink:href="#c"/><use x="512.477224" y="401.76" xlink:href="#c"/><use x="513.212575" y="400.464" xlink:href="#c"/><use x="517.927475" y="399.168" xlink:href="#c"/><use x="520.825625" y="397.872" xlink:href="#c"/><use x="522.858655" y="396.576" xlink:href="#c"/><use x="568.45044" y="395.28" xlink:href="#c"/><use x="568.66672" y="393.984" xlink:href="#c"/><use x="581.470485" y="392.688" xlink:href="#c"/><use x="588.69423" y="391.392" xlink:href="#c"/><use x="590.597493" y="390.096" xlink:href="#c"/><use x="592.933315" y="388.8" xlink:href="#c"/><use x="603.963585" y="387.504" xlink:href="#c"/><use x="632.382753" y="386.208" xlink:href="#c"/><use x="635.107879" y="384.912" xlink:href="#c"/><use x="656.173533" y="383.616" xlink:href="#c"/><use x="668.285202" y="382.32" xlink:href="#c"/><use x="680.137336" y="381.024" xlink:href="#c"/><use x="685.414564" y="379.728" xlink:href="#c"/><use x="688.745273" y="378.432" xlink:href="#c"/><use x="700.164847" y="377.136" xlink:href="#c"/><use x="701.332758" y="375.84" xlink:href="#c"/><use x="712.752332" y="374.544" xlink:href="#c"/><use x="714.958386" y="373.248" xlink:href="#c"/><use x="717.986304" y="371.952" xlink:href="#c"/><use x="718.591887" y="370.656" xlink:href="#c"/><use x="726.248193" y="369.36" xlink:href="#c"/><use x="731.136116" y="368.064" xlink:href="#c"/><use x="733.212403" y="366.768" xlink:href="#c"/><use x="734.20729" y="365.472" xlink:href="#c"/><use x="735.721248" y="364.176" xlink:href="#c"/><use x="769.893459" y="362.88" xlink:href="#c"/><use x="773.52696" y="361.584" xlink:href="#c"/><use x="775.213943" y="360.288" xlink:href="#c"/><use x="789.445154" y="358.992" xlink:href="#c"/><use x="794.030286" y="357.696" xlink:href="#c"/><use x="802.854503" y="356.4" xlink:href="#c"/><use x="803.892646" y="355.104" xlink:href="#c"/><use x="804.238694" y="353.808" xlink:href="#c"/><use x="805.449861" y="352.512" xlink:href="#c"/><use x="807.526147" y="351.216" xlink:href="#c"/><use x="808.953594" y="349.92" xlink:href="#c"/><use x="815.74478" y="348.624" xlink:href="#c"/><use x="822.406198" y="347.328" xlink:href="#c"/><use x="829.413664" y="346.032" xlink:href="#c"/><use x="838.583928" y="344.736" xlink:href="#c"/><use x="842.433709" y="343.44" xlink:href="#c"/><use x="845.504882" y="342.144" xlink:href="#c"/><use x="857.616552" y="340.848" xlink:href="#c"/><use x="862.547732" y="339.552" xlink:href="#c"/><use x="869.814734" y="338.256" xlink:href="#c"/><use x="871.588228" y="336.96" xlink:href="#c"/><use x="872.150556" y="335.664" xlink:href="#c"/><use x="873.318467" y="334.368" xlink:href="#c"/><use x="888.933869" y="333.072" xlink:href="#c"/><use x="889.063637" y="331.776" xlink:href="#c"/><use x="894.946448" y="330.48" xlink:href="#c"/><use x="897.887853" y="329.184" xlink:href="#c"/><use x="899.401812" y="327.888" xlink:href="#c"/><use x="904.67904" y="326.592" xlink:href="#c"/><use x="912.724649" y="325.296" xlink:href="#c"/><use x="913.935816" y="324" xlink:href="#c"/><use x="919.732115" y="322.704" xlink:href="#c"/><use x="932.276344" y="321.408" xlink:href="#c"/><use x="933.054951" y="320.112" xlink:href="#c"/><use x="934.612166" y="318.816" xlink:href="#c"/><use x="937.942875" y="317.52" xlink:href="#c"/><use x="957.105267" y="316.224" xlink:href="#c"/><use x="966.102507" y="314.928" xlink:href="#c"/><use x="968.654609" y="313.632" xlink:href="#c"/><use x="969.216936" y="312.336" xlink:href="#c"/><use x="969.779264" y="311.04" xlink:href="#c"/><use x="970.557871" y="309.744" xlink:href="#c"/><use x="975.099747" y="308.448" xlink:href="#c"/><use x="980.809534" y="307.152" xlink:href="#c"/><use x="983.880708" y="305.856" xlink:href="#c"/><use x="985.654202" y="304.56" xlink:href="#c"/><use x="988.68212" y="303.264" xlink:href="#c"/><use x="989.979799" y="301.968" xlink:href="#c"/><use x="990.71515" y="300.672" xlink:href="#c"/><use x="1001.442629" y="299.376" xlink:href="#c"/><use x="1005.854737" y="298.08" xlink:href="#c"/><use x="1013.554298" y="296.784" xlink:href="#c"/><use x="1016.32268" y="295.488" xlink:href="#c"/><use x="1035.874375" y="294.192" xlink:href="#c"/><use x="1038.945549" y="292.896" xlink:href="#c"/><use x="1039.6809" y="291.6" xlink:href="#c"/><use x="1040.329739" y="290.304" xlink:href="#c"/><use x="1043.96324" y="289.008" xlink:href="#c"/><use x="1046.947902" y="287.712" xlink:href="#c"/><use x="1049.024188" y="286.416" xlink:href="#c"/><use x="1052.354897" y="285.12" xlink:href="#c"/><use x="1058.453988" y="283.824" xlink:href="#c"/><use x="1058.843292" y="282.528" xlink:href="#c"/><use x="1067.624252" y="281.232" xlink:href="#c"/><use x="1074.545206" y="279.936" xlink:href="#c"/><use x="1074.71823" y="278.64" xlink:href="#c"/><use x="1075.021022" y="277.344" xlink:href="#c"/><use x="1080.038713" y="276.048" xlink:href="#c"/><use x="1080.471273" y="274.752" xlink:href="#c"/><use x="1094.183413" y="273.456" xlink:href="#c"/><use x="1095.870396" y="272.16" xlink:href="#c"/><use x="1097.211331" y="270.864" xlink:href="#c"/><use x="1105.213684" y="269.568" xlink:href="#c"/><use x="1106.814154" y="268.272" xlink:href="#c"/><use x="1111.312775" y="266.976" xlink:href="#c"/><use x="1112.394174" y="265.68" xlink:href="#c"/></g><defs><path id="a" d="m0 0.75c0.1989 0 0.38968-0.079025 0.53033-0.21967s0.21967-0.33143 0.21967-0.53033-0.079025-0.38968-0.21967-0.53033-0.33143-0.21967-0.53033-0.21967-0.38968 0.079025-0.53033 0.21967-0.21967 0.33143-0.21967 0.53033 0.079025 0.38968 0.21967 0.53033 0.33143 0.21967 0.53033 0.21967z" stroke="#00f"/></defs><g clip-path="url(#g)" fill="#0000ff" stroke="#0000ff"><use x="82.547257" y="601.344" xlink:href="#a"/><use x="83.814326" y="600.048" xlink:href="#a"/><use x="87.709195" y="598.752" xlink:href="#a"/><use x="89.628588" y="597.456" xlink:href="#a"/><use x="90.026964" y="596.16" xlink:href="#a"/><use x="92.171648" y="594.864" xlink:href="#a"/><use x="95.300496" y="593.568" xlink:href="#a"/><use x="98.618709" y="592.272" xlink:href="#a"/><use x="101.035636" y="590.976" xlink:href="#a"/><use x="101.58703" y="589.68" xlink:href="#a"/><use x="102.223373" y="588.384" xlink:href="#a"/><use x="104.211375" y="587.088" xlink:href="#a"/><use x="104.697974" y="585.792" xlink:href="#a"/><use x="104.798815" y="584.496" xlink:href="#a"/><use x="106.601147" y="583.2" xlink:href="#a"/><use x="111.606252" y="581.904" xlink:href="#a"/><use x="111.874739" y="580.608" xlink:href="#a"/><use x="112.134335" y="579.312" xlink:href="#a"/><use x="113.149078" y="578.016" xlink:href="#a"/><use x="113.406782" y="576.72" xlink:href="#a"/><use x="114.089925" y="575.424" xlink:href="#a"/><use x="114.506234" y="574.128" xlink:href="#a"/><use x="115.596615" y="572.832" xlink:href="#a"/><use x="116.15714" y="571.536" xlink:href="#a"/><use x="120.990934" y="570.24" xlink:href="#a"/><use x="121.895824" y="568.944" xlink:href="#a"/><use x="122.416578" y="567.648" xlink:href="#a"/><use x="122.517599" y="566.352" xlink:href="#a"/><use x="123.779141" y="565.056" xlink:href="#a"/><use x="124.199174" y="563.76" xlink:href="#a"/><use x="125.432029" y="562.464" xlink:href="#a"/><use x="127.578546" y="561.168" xlink:href="#a"/><use x="127.645233" y="559.872" xlink:href="#a"/><use x="127.922852" y="558.576" xlink:href="#a"/><use x="127.946252" y="557.28" xlink:href="#a"/><use x="129.052794" y="555.984" xlink:href="#a"/><use x="129.952277" y="554.688" xlink:href="#a"/><use x="131.228238" y="553.392" xlink:href="#a"/><use x="131.644637" y="552.096" xlink:href="#a"/><use x="132.104141" y="550.8" xlink:href="#a"/><use x="132.44304" y="549.504" xlink:href="#a"/><use x="132.725976" y="548.208" xlink:href="#a"/><use x="133.288334" y="546.912" xlink:href="#a"/><use x="135.105054" y="545.616" xlink:href="#a"/><use x="135.243803" y="544.32" xlink:href="#a"/><use x="135.588109" y="543.024" xlink:href="#a"/><use x="135.784473" y="541.728" xlink:href="#a"/><use x="135.840405" y="540.432" xlink:href="#a"/><use x="135.887356" y="539.136" xlink:href="#a"/><use x="136.026106" y="537.84" xlink:href="#a"/><use x="136.680292" y="536.544" xlink:href="#a"/><use x="137.370675" y="535.248" xlink:href="#a"/><use x="137.388578" y="533.952" xlink:href="#a"/><use x="138.001401" y="532.656" xlink:href="#a"/><use x="138.150935" y="531.36" xlink:href="#a"/><use x="138.814223" y="530.064" xlink:href="#a"/><use x="140.993212" y="528.768" xlink:href="#a"/><use x="141.521355" y="527.472" xlink:href="#a"/><use x="141.901647" y="526.176" xlink:href="#a"/><use x="142.094497" y="524.88" xlink:href="#a"/><use x="142.103478" y="523.584" xlink:href="#a"/><use x="143.168626" y="522.288" xlink:href="#a"/><use x="143.595839" y="520.992" xlink:href="#a"/><use x="143.911187" y="519.696" xlink:href="#a"/><use x="144.012178" y="518.4" xlink:href="#a"/><use x="144.232002" y="517.104" xlink:href="#a"/><use x="144.792677" y="515.808" xlink:href="#a"/><use x="144.826772" y="514.512" xlink:href="#a"/><use x="145.012412" y="513.216" xlink:href="#a"/><use x="146.133522" y="511.92" xlink:href="#a"/><use x="146.468846" y="510.624" xlink:href="#a"/><use x="147.130152" y="509.328" xlink:href="#a"/><use x="147.564574" y="508.032" xlink:href="#a"/><use x="147.566376" y="506.736" xlink:href="#a"/><use x="147.670881" y="505.44" xlink:href="#a"/><use x="148.159283" y="504.144" xlink:href="#a"/><use x="148.730742" y="502.848" xlink:href="#a"/><use x="149.16141" y="501.552" xlink:href="#a"/><use x="150.677231" y="500.256" xlink:href="#a"/><use x="151.22517" y="498.96" xlink:href="#a"/><use x="151.747846" y="497.664" xlink:href="#a"/><use x="151.798311" y="496.368" xlink:href="#a"/><use x="152.059619" y="495.072" xlink:href="#a"/><use x="152.40017" y="493.776" xlink:href="#a"/><use x="152.411014" y="492.48" xlink:href="#a"/><use x="152.780612" y="491.184" xlink:href="#a"/><use x="153.699681" y="489.888" xlink:href="#a"/><use x="153.825814" y="488.592" xlink:href="#a"/><use x="154.188233" y="487.296" xlink:href="#a"/><use x="154.440559" y="486" xlink:href="#a"/><use x="154.454828" y="484.704" xlink:href="#a"/><use x="154.552154" y="483.408" xlink:href="#a"/><use x="154.566573" y="482.112" xlink:href="#a"/><use x="154.566723" y="480.816" xlink:href="#a"/><use x="154.663989" y="479.52" xlink:href="#a"/><use x="155.390328" y="478.224" xlink:href="#a"/><use x="155.767046" y="476.928" xlink:href="#a"/><use x="155.923728" y="475.632" xlink:href="#a"/><use x="156.006636" y="474.336" xlink:href="#a"/><use x="156.134691" y="473.04" xlink:href="#a"/><use x="156.815913" y="471.744" xlink:href="#a"/><use x="156.862803" y="470.448" xlink:href="#a"/><use x="156.891611" y="469.152" xlink:href="#a"/><use x="157.043067" y="467.856" xlink:href="#a"/><use x="157.261059" y="466.56" xlink:href="#a"/><use x="157.374605" y="465.264" xlink:href="#a"/><use x="157.792837" y="463.968" xlink:href="#a"/><use x="158.160572" y="462.672" xlink:href="#a"/><use x="158.254294" y="461.376" xlink:href="#a"/><use x="158.557025" y="460.08" xlink:href="#a"/><use x="158.573186" y="458.784" xlink:href="#a"/><use x="158.773245" y="457.488" xlink:href="#a"/><use x="158.933773" y="456.192" xlink:href="#a"/><use x="159.177027" y="454.896" xlink:href="#a"/><use x="159.220193" y="453.6" xlink:href="#a"/><use x="159.492345" y="452.304" xlink:href="#a"/><use x="159.701506" y="451.008" xlink:href="#a"/><use x="159.771737" y="449.712" xlink:href="#a"/><use x="159.865578" y="448.416" xlink:href="#a"/><use x="159.942928" y="447.12" xlink:href="#a"/><use x="160.074528" y="445.824" xlink:href="#a"/><use x="160.107031" y="444.528" xlink:href="#a"/><use x="160.54686" y="443.232" xlink:href="#a"/><use x="160.804563" y="441.936" xlink:href="#a"/><use x="160.820814" y="440.64" xlink:href="#a"/><use x="161.21186" y="439.344" xlink:href="#a"/><use x="161.292875" y="438.048" xlink:href="#a"/><use x="161.323605" y="436.752" xlink:href="#a"/><use x="161.45151" y="435.456" xlink:href="#a"/><use x="161.476743" y="434.16" xlink:href="#a"/><use x="161.747152" y="432.864" xlink:href="#a"/><use x="162.076889" y="431.568" xlink:href="#a"/><use x="162.132912" y="430.272" xlink:href="#a"/><use x="162.197645" y="428.976" xlink:href="#a"/><use x="162.39425" y="427.68" xlink:href="#a"/><use x="162.478839" y="426.384" xlink:href="#a"/><use x="162.534711" y="425.088" xlink:href="#a"/><use x="162.68067" y="423.792" xlink:href="#a"/><use x="162.738375" y="422.496" xlink:href="#a"/><use x="162.866401" y="421.2" xlink:href="#a"/><use x="162.922183" y="419.904" xlink:href="#a"/><use x="163.178144" y="418.608" xlink:href="#a"/><use x="163.744046" y="417.312" xlink:href="#a"/><use x="164.174893" y="416.016" xlink:href="#a"/><use x="164.533467" y="414.72" xlink:href="#a"/><use x="164.567802" y="413.424" xlink:href="#a"/><use x="164.607423" y="412.128" xlink:href="#a"/><use x="164.681349" y="410.832" xlink:href="#a"/><use x="164.787656" y="409.536" xlink:href="#a"/><use x="164.931843" y="408.24" xlink:href="#a"/><use x="165.492428" y="406.944" xlink:href="#a"/><use x="165.645506" y="405.648" xlink:href="#a"/><use x="166.03496" y="404.352" xlink:href="#a"/><use x="167.260485" y="403.056" xlink:href="#a"/><use x="167.496651" y="401.76" xlink:href="#a"/><use x="168.779851" y="400.464" xlink:href="#a"/><use x="169.282612" y="399.168" xlink:href="#a"/><use x="169.298863" y="397.872" xlink:href="#a"/><use x="169.331275" y="396.576" xlink:href="#a"/><use x="169.780055" y="395.28" xlink:href="#a"/><use x="170.164042" y="393.984" xlink:href="#a"/><use x="170.423608" y="392.688" xlink:href="#a"/><use x="170.818288" y="391.392" xlink:href="#a"/><use x="170.920931" y="390.096" xlink:href="#a"/><use x="171.167851" y="388.8" xlink:href="#a"/><use x="171.3139" y="387.504" xlink:href="#a"/><use x="171.452619" y="386.208" xlink:href="#a"/><use x="171.551837" y="384.912" xlink:href="#a"/><use x="172.397191" y="383.616" xlink:href="#a"/><use x="172.462075" y="382.32" xlink:href="#a"/><use x="172.510648" y="381.024" xlink:href="#a"/><use x="172.530534" y="379.728" xlink:href="#a"/><use x="172.544892" y="378.432" xlink:href="#a"/><use x="172.67475" y="377.136" xlink:href="#a"/><use x="173.004517" y="375.84" xlink:href="#a"/><use x="173.085562" y="374.544" xlink:href="#a"/><use x="173.13068" y="373.248" xlink:href="#a"/><use x="173.689433" y="371.952" xlink:href="#a"/><use x="173.956058" y="370.656" xlink:href="#a"/><use x="173.961615" y="369.36" xlink:href="#a"/><use x="174.284172" y="368.064" xlink:href="#a"/><use x="174.475129" y="366.768" xlink:href="#a"/><use x="174.745479" y="365.472" xlink:href="#a"/><use x="175.556589" y="364.176" xlink:href="#a"/><use x="175.765689" y="362.88" xlink:href="#a"/><use x="176.109934" y="361.584" xlink:href="#a"/><use x="176.852405" y="360.288" xlink:href="#a"/><use x="177.063338" y="358.992" xlink:href="#a"/><use x="177.852789" y="357.696" xlink:href="#a"/><use x="177.908632" y="356.4" xlink:href="#a"/><use x="178.227734" y="355.104" xlink:href="#a"/><use x="178.406045" y="353.808" xlink:href="#a"/><use x="178.512503" y="352.512" xlink:href="#a"/><use x="178.941368" y="351.216" xlink:href="#a"/><use x="179.164887" y="349.92" xlink:href="#a"/><use x="179.626284" y="348.624" xlink:href="#a"/><use x="179.656833" y="347.328" xlink:href="#a"/><use x="179.660468" y="346.032" xlink:href="#a"/><use x="180.006636" y="344.736" xlink:href="#a"/><use x="180.339947" y="343.44" xlink:href="#a"/><use x="180.568933" y="342.144" xlink:href="#a"/><use x="180.590501" y="340.848" xlink:href="#a"/><use x="180.606782" y="339.552" xlink:href="#a"/><use x="180.677043" y="338.256" xlink:href="#a"/><use x="180.698701" y="336.96" xlink:href="#a"/><use x="181.605154" y="335.664" xlink:href="#a"/><use x="181.933329" y="334.368" xlink:href="#a"/><use x="182.039546" y="333.072" xlink:href="#a"/><use x="182.198271" y="331.776" xlink:href="#a"/><use x="182.376612" y="330.48" xlink:href="#a"/><use x="182.407312" y="329.184" xlink:href="#a"/><use x="182.418126" y="327.888" xlink:href="#a"/><use x="183.121005" y="326.592" xlink:href="#a"/><use x="183.548218" y="325.296" xlink:href="#a"/><use x="183.625658" y="324" xlink:href="#a"/><use x="183.650861" y="322.704" xlink:href="#a"/><use x="184.200542" y="321.408" xlink:href="#a"/><use x="184.494292" y="320.112" xlink:href="#a"/><use x="184.862028" y="318.816" xlink:href="#a"/><use x="184.88726" y="317.52" xlink:href="#a"/><use x="185.119821" y="316.224" xlink:href="#a"/><use x="185.218949" y="314.928" xlink:href="#a"/><use x="185.404469" y="313.632" xlink:href="#a"/><use x="185.564967" y="312.336" xlink:href="#a"/><use x="186.057034" y="311.04" xlink:href="#a"/><use x="186.129067" y="309.744" xlink:href="#a"/><use x="186.239009" y="308.448" xlink:href="#a"/><use x="187.122212" y="307.152" xlink:href="#a"/><use x="187.183431" y="305.856" xlink:href="#a"/><use x="187.56907" y="304.56" xlink:href="#a"/><use x="187.846779" y="303.264" xlink:href="#a"/><use x="187.881023" y="301.968" xlink:href="#a"/><use x="187.938548" y="300.672" xlink:href="#a"/><use x="188.120583" y="299.376" xlink:href="#a"/><use x="188.257681" y="298.08" xlink:href="#a"/><use x="188.454165" y="296.784" xlink:href="#a"/><use x="188.531545" y="295.488" xlink:href="#a"/><use x="188.681109" y="294.192" xlink:href="#a"/><use x="189.028959" y="292.896" xlink:href="#a"/><use x="189.093993" y="291.6" xlink:href="#a"/><use x="189.258005" y="290.304" xlink:href="#a"/><use x="189.436436" y="289.008" xlink:href="#a"/><use x="189.43992" y="287.712" xlink:href="#a"/><use x="189.634602" y="286.416" xlink:href="#a"/><use x="189.715707" y="285.12" xlink:href="#a"/><use x="190.206031" y="283.824" xlink:href="#a"/><use x="190.269053" y="282.528" xlink:href="#a"/><use x="190.564575" y="281.232" xlink:href="#a"/><use x="190.928706" y="279.936" xlink:href="#a"/><use x="190.952047" y="278.64" xlink:href="#a"/><use x="191.10167" y="277.344" xlink:href="#a"/><use x="191.150333" y="276.048" xlink:href="#a"/><use x="191.242342" y="274.752" xlink:href="#a"/><use x="191.271119" y="273.456" xlink:href="#a"/><use x="191.278269" y="272.16" xlink:href="#a"/><use x="191.411761" y="270.864" xlink:href="#a"/><use x="191.530745" y="269.568" xlink:href="#a"/><use x="191.546816" y="268.272" xlink:href="#a"/><use x="191.865889" y="266.976" xlink:href="#a"/><use x="192.226415" y="265.68" xlink:href="#a"/><use x="192.293132" y="264.384" xlink:href="#a"/><use x="192.455251" y="263.088" xlink:href="#a"/><use x="192.678681" y="261.792" xlink:href="#a"/><use x="192.707518" y="260.496" xlink:href="#a"/><use x="193.123977" y="259.2" xlink:href="#a"/><use x="193.199705" y="257.904" xlink:href="#a"/><use x="193.217578" y="256.608" xlink:href="#a"/><use x="193.235601" y="255.312" xlink:href="#a"/><use x="193.383392" y="254.016" xlink:href="#a"/><use x="193.477204" y="252.72" xlink:href="#a"/><use x="193.569032" y="251.424" xlink:href="#a"/><use x="193.720428" y="250.128" xlink:href="#a"/><use x="193.972815" y="248.832" xlink:href="#a"/><use x="193.99261" y="247.536" xlink:href="#a"/><use x="194.174736" y="246.24" xlink:href="#a"/><use x="194.410811" y="244.944" xlink:href="#a"/><use x="194.463019" y="243.648" xlink:href="#a"/><use x="194.536945" y="242.352" xlink:href="#a"/><use x="194.567524" y="241.056" xlink:href="#a"/><use x="195.101105" y="239.76" xlink:href="#a"/><use x="195.225375" y="238.464" xlink:href="#a"/><use x="195.52282" y="237.168" xlink:href="#a"/><use x="195.60753" y="235.872" xlink:href="#a"/><use x="195.791308" y="234.576" xlink:href="#a"/><use x="196.014797" y="233.28" xlink:href="#a"/><use x="196.045586" y="231.984" xlink:href="#a"/><use x="196.085148" y="230.688" xlink:href="#a"/><use x="196.146367" y="229.392" xlink:href="#a"/><use x="196.268986" y="228.096" xlink:href="#a"/><use x="196.443782" y="226.8" xlink:href="#a"/><use x="196.508636" y="225.504" xlink:href="#a"/><use x="196.526659" y="224.208" xlink:href="#a"/><use x="197.417071" y="222.912" xlink:href="#a"/><use x="197.611663" y="221.616" xlink:href="#a"/><use x="197.755849" y="220.32" xlink:href="#a"/><use x="197.889372" y="219.024" xlink:href="#a"/><use x="197.955908" y="217.728" xlink:href="#a"/><use x="198.238964" y="216.432" xlink:href="#a"/><use x="198.424604" y="215.136" xlink:href="#a"/><use x="198.76879" y="213.84" xlink:href="#a"/><use x="198.983327" y="212.544" xlink:href="#a"/><use x="199.0319" y="211.248" xlink:href="#a"/><use x="199.19411" y="209.952" xlink:href="#a"/><use x="199.230247" y="208.656" xlink:href="#a"/><use x="199.385277" y="207.36" xlink:href="#a"/><use x="199.399576" y="206.064" xlink:href="#a"/><use x="199.794437" y="204.768" xlink:href="#a"/><use x="199.898882" y="203.472" xlink:href="#a"/><use x="199.976412" y="202.176" xlink:href="#a"/><use x="200.012429" y="200.88" xlink:href="#a"/><use x="200.030452" y="199.584" xlink:href="#a"/><use x="200.145741" y="198.288" xlink:href="#a"/><use x="200.263013" y="196.992" xlink:href="#a"/><use x="200.2683" y="195.696" xlink:href="#a"/><use x="200.42339" y="194.4" xlink:href="#a"/><use x="200.497256" y="193.104" xlink:href="#a"/><use x="200.576498" y="191.808" xlink:href="#a"/><use x="200.596354" y="190.512" xlink:href="#a"/><use x="200.985688" y="189.216" xlink:href="#a"/><use x="201.11912" y="187.92" xlink:href="#a"/><use x="201.569733" y="186.624" xlink:href="#a"/><use x="201.814851" y="185.328" xlink:href="#a"/><use x="202.067057" y="184.032" xlink:href="#a"/><use x="202.097696" y="182.736" xlink:href="#a"/><use x="202.110403" y="181.44" xlink:href="#a"/><use x="202.402261" y="180.144" xlink:href="#a"/><use x="202.434763" y="178.848" xlink:href="#a"/><use x="202.51773" y="177.552" xlink:href="#a"/><use x="202.926739" y="176.256" xlink:href="#a"/><use x="203.009736" y="174.96" xlink:href="#a"/><use x="203.209795" y="173.664" xlink:href="#a"/><use x="203.215262" y="172.368" xlink:href="#a"/><use x="203.319768" y="171.072" xlink:href="#a"/><use x="203.391741" y="169.776" xlink:href="#a"/><use x="203.613458" y="168.48" xlink:href="#a"/><use x="203.815409" y="167.184" xlink:href="#a"/><use x="203.883927" y="165.888" xlink:href="#a"/><use x="204.121805" y="164.592" xlink:href="#a"/><use x="204.260465" y="163.296" xlink:href="#a"/><use x="204.534509" y="162" xlink:href="#a"/><use x="204.554365" y="160.704" xlink:href="#a"/><use x="204.572358" y="159.408" xlink:href="#a"/><use x="204.848025" y="158.112" xlink:href="#a"/><use x="204.851689" y="156.816" xlink:href="#a"/><use x="205.451896" y="155.52" xlink:href="#a"/><use x="205.466255" y="154.224" xlink:href="#a"/><use x="205.498817" y="152.928" xlink:href="#a"/><use x="205.558234" y="151.632" xlink:href="#a"/><use x="205.615818" y="150.336" xlink:href="#a"/><use x="205.633901" y="149.04" xlink:href="#a"/><use x="205.75649" y="147.744" xlink:href="#a"/><use x="206.075413" y="146.448" xlink:href="#a"/><use x="206.244832" y="145.152" xlink:href="#a"/><use x="206.259251" y="143.856" xlink:href="#a"/><use x="206.558588" y="142.56" xlink:href="#a"/><use x="206.596377" y="141.264" xlink:href="#a"/><use x="206.697247" y="139.968" xlink:href="#a"/><use x="206.718995" y="138.672" xlink:href="#a"/><use x="206.866787" y="137.376" xlink:href="#a"/><use x="207.028846" y="136.08" xlink:href="#a"/><use x="207.194691" y="134.784" xlink:href="#a"/><use x="207.591174" y="133.488" xlink:href="#a"/><use x="207.841788" y="132.192" xlink:href="#a"/><use x="207.876062" y="130.896" xlink:href="#a"/><use x="208.227547" y="129.6" xlink:href="#a"/><use x="208.425743" y="128.304" xlink:href="#a"/><use x="208.447281" y="127.008" xlink:href="#a"/><use x="208.768156" y="125.712" xlink:href="#a"/><use x="208.919582" y="124.416" xlink:href="#a"/><use x="208.966353" y="123.12" xlink:href="#a"/><use x="208.980892" y="121.824" xlink:href="#a"/><use x="209.35025" y="120.528" xlink:href="#a"/><use x="209.362896" y="119.232" xlink:href="#a"/><use x="209.413391" y="117.936" xlink:href="#a"/><use x="209.440396" y="116.64" xlink:href="#a"/><use x="209.564847" y="115.344" xlink:href="#a"/><use x="209.959468" y="114.048" xlink:href="#a"/><use x="209.982898" y="112.752" xlink:href="#a"/><use x="210.182987" y="111.456" xlink:href="#a"/><use x="210.256913" y="110.16" xlink:href="#a"/><use x="210.366855" y="108.864" xlink:href="#a"/><use x="210.455169" y="107.568" xlink:href="#a"/><use x="210.601188" y="106.272" xlink:href="#a"/><use x="210.774122" y="104.976" xlink:href="#a"/><use x="210.90398" y="103.68" xlink:href="#a"/><use x="211.075111" y="102.384" xlink:href="#a"/><use x="211.2211" y="101.088" xlink:href="#a"/><use x="211.224795" y="99.792" xlink:href="#a"/><use x="211.257177" y="98.496" xlink:href="#a"/><use x="211.336539" y="97.2" xlink:href="#a"/><use x="211.520377" y="95.904" xlink:href="#a"/><use x="211.579824" y="94.608" xlink:href="#a"/><use x="211.669851" y="93.312" xlink:href="#a"/><use x="211.799648" y="92.016" xlink:href="#a"/><use x="211.819474" y="90.72" xlink:href="#a"/><use x="212.044826" y="89.424" xlink:href="#a"/><use x="212.077268" y="88.128" xlink:href="#a"/><use x="212.111482" y="86.832" xlink:href="#a"/><use x="212.291685" y="85.536" xlink:href="#a"/><use x="212.306074" y="84.24" xlink:href="#a"/><use x="212.331396" y="82.944" xlink:href="#a"/><use x="212.448458" y="81.648" xlink:href="#a"/><use x="212.580088" y="80.352" xlink:href="#a"/><use x="212.605351" y="79.056" xlink:href="#a"/><use x="213.030671" y="77.76" xlink:href="#a"/><use x="213.571311" y="76.464" xlink:href="#a"/><use x="213.679541" y="75.168" xlink:href="#a"/><use x="213.816488" y="73.872" xlink:href="#a"/><use x="213.955207" y="72.576" xlink:href="#a"/><use x="214.074281" y="71.28" xlink:href="#a"/><use x="214.178787" y="69.984" xlink:href="#a"/><use x="214.19684" y="68.688" xlink:href="#a"/><use x="214.478004" y="67.392" xlink:href="#a"/><use x="214.501434" y="66.096" xlink:href="#a"/><use x="214.562593" y="64.8" xlink:href="#a"/><use x="214.739312" y="63.504" xlink:href="#a"/><use x="214.804196" y="62.208" xlink:href="#a"/><use x="214.890738" y="60.912" xlink:href="#a"/><use x="215.042013" y="59.616" xlink:href="#a"/><use x="215.289083" y="58.32" xlink:href="#a"/><use x="215.328584" y="57.024" xlink:href="#a"/><use x="215.694457" y="55.728" xlink:href="#a"/><use x="215.984633" y="54.432" xlink:href="#a"/><use x="215.986555" y="53.136" xlink:href="#a"/><use x="216.018937" y="51.84" xlink:href="#a"/><use x="216.080156" y="50.544" xlink:href="#a"/><use x="216.190219" y="49.248" xlink:href="#a"/><use x="216.395655" y="47.952" xlink:href="#a"/><use x="216.579462" y="46.656" xlink:href="#a"/><use x="216.615569" y="45.36" xlink:href="#a"/><use x="216.624581" y="44.064" xlink:href="#a"/><use x="216.885919" y="42.768" xlink:href="#a"/><use x="216.94888" y="41.472" xlink:href="#a"/><use x="216.954287" y="40.176" xlink:href="#a"/><use x="216.986819" y="38.88" xlink:href="#a"/><use x="217.462575" y="37.584" xlink:href="#a"/><use x="217.4897" y="36.288" xlink:href="#a"/><use x="217.57441" y="34.992" xlink:href="#a"/><use x="217.700483" y="33.696" xlink:href="#a"/><use x="217.749116" y="32.4" xlink:href="#a"/><use x="218.181826" y="31.104" xlink:href="#a"/><use x="218.405195" y="29.808" xlink:href="#a"/><use x="218.543944" y="28.512" xlink:href="#a"/><use x="218.565722" y="27.216" xlink:href="#a"/><use x="218.729644" y="25.92" xlink:href="#a"/><use x="218.945864" y="24.624" xlink:href="#a"/><use x="218.951361" y="23.328" xlink:href="#a"/><use x="219.010748" y="22.032" xlink:href="#a"/><use x="219.227148" y="20.736" xlink:href="#a"/><use x="219.315342" y="19.44" xlink:href="#a"/><use x="219.398339" y="18.144" xlink:href="#a"/><use x="219.409123" y="16.848" xlink:href="#a"/><use x="219.551568" y="15.552" xlink:href="#a"/><use x="219.610924" y="14.256" xlink:href="#a"/><use x="219.670431" y="12.96" xlink:href="#a"/><use x="219.68485" y="11.664" xlink:href="#a"/><use x="219.962379" y="10.368" xlink:href="#a"/><use x="220.000228" y="9.072" xlink:href="#a"/><use x="220.191365" y="7.776" xlink:href="#a"/><use x="220.283224" y="6.48" xlink:href="#a"/><use x="220.344564" y="5.184" xlink:href="#a"/><use x="220.614823" y="3.888" xlink:href="#a"/><use x="220.784393" y="2.592" xlink:href="#a"/><use x="220.824044" y="1.296" xlink:href="#a"/><use x="220.897879" xlink:href="#a"/><use x="221.04812" y="-1" xlink:href="#a"/></g><defs><path id="b" d="m0 0.75c0.1989 0 0.38968-0.079025 0.53033-0.21967s0.21967-0.33143 0.21967-0.53033-0.079025-0.38968-0.21967-0.53033-0.33143-0.21967-0.53033-0.21967-0.38968 0.079025-0.53033 0.21967-0.21967 0.33143-0.21967 0.53033 0.079025 0.38968 0.21967 0.53033 0.33143 0.21967 0.53033 0.21967z" stroke="#f00"/></defs><g clip-path="url(#g)" fill="#ff0000" stroke="#ff0000"><use x="85.267035" y="601.344" xlink:href="#b"/><use x="87.889398" y="600.048" xlink:href="#b"/><use x="89.120361" y="598.752" xlink:href="#b"/><use x="91.396646" y="597.456" xlink:href="#b"/><use x="91.470691" y="596.16" xlink:href="#b"/><use x="92.726887" y="594.864" xlink:href="#b"/><use x="93.984794" y="593.568" xlink:href="#b"/><use x="95.230205" y="592.272" xlink:href="#b"/><use x="96.008813" y="590.976" xlink:href="#b"/><use x="96.246751" y="589.68" xlink:href="#b"/><use x="96.441372" y="588.384" xlink:href="#b"/><use x="96.538728" y="587.088" xlink:href="#b"/><use x="96.57114" y="585.792" xlink:href="#b"/><use x="96.614396" y="584.496" xlink:href="#b"/><use x="96.700908" y="583.2" xlink:href="#b"/><use x="97.8383" y="581.904" xlink:href="#b"/><use x="98.64214" y="580.608" xlink:href="#b"/><use x="99.128709" y="579.312" xlink:href="#b"/><use x="99.828044" y="578.016" xlink:href="#b"/><use x="100.972464" y="576.72" xlink:href="#b"/><use x="106.610248" y="575.424" xlink:href="#b"/><use x="108.805368" y="574.128" xlink:href="#b"/><use x="109.43258" y="572.832" xlink:href="#b"/><use x="109.627262" y="571.536" xlink:href="#b"/><use x="110.660058" y="570.24" xlink:href="#b"/><use x="111.927097" y="568.944" xlink:href="#b"/><use x="113.379777" y="567.648" xlink:href="#b"/><use x="116.395048" y="566.352" xlink:href="#b"/><use x="119.442881" y="565.056" xlink:href="#b"/><use x="120.095205" y="563.76" xlink:href="#b"/><use x="120.39262" y="562.464" xlink:href="#b"/><use x="121.510095" y="561.168" xlink:href="#b"/><use x="122.553555" y="559.872" xlink:href="#b"/><use x="123.70888" y="558.576" xlink:href="#b"/><use x="125.765311" y="557.28" xlink:href="#b"/><use x="126.996393" y="555.984" xlink:href="#b"/><use x="127.922852" y="554.688" xlink:href="#b"/><use x="129.559249" y="553.392" xlink:href="#b"/><use x="130.206316" y="552.096" xlink:href="#b"/><use x="130.260416" y="550.8" xlink:href="#b"/><use x="130.377628" y="549.504" xlink:href="#b"/><use x="130.909226" y="548.208" xlink:href="#b"/><use x="132.421472" y="546.912" xlink:href="#b"/><use x="132.59798" y="545.616" xlink:href="#b"/><use x="133.052168" y="544.32" xlink:href="#b"/><use x="133.351445" y="543.024" xlink:href="#b"/><use x="136.150376" y="541.728" xlink:href="#b"/><use x="137.61393" y="540.432" xlink:href="#b"/><use x="138.731315" y="539.136" xlink:href="#b"/><use x="139.991235" y="537.84" xlink:href="#b"/><use x="140.643589" y="536.544" xlink:href="#b"/><use x="141.587981" y="535.248" xlink:href="#b"/><use x="142.505458" y="533.952" xlink:href="#b"/><use x="143.0713" y="532.656" xlink:href="#b"/><use x="144.662819" y="531.36" xlink:href="#b"/><use x="146.566082" y="530.064" xlink:href="#b"/><use x="146.733729" y="528.768" xlink:href="#b"/><use x="146.948206" y="527.472" xlink:href="#b"/><use x="147.865623" y="526.176" xlink:href="#b"/><use x="148.667631" y="524.88" xlink:href="#b"/><use x="149.105597" y="523.584" xlink:href="#b"/><use x="150.116735" y="522.288" xlink:href="#b"/><use x="150.570893" y="520.992" xlink:href="#b"/><use x="154.552274" y="519.696" xlink:href="#b"/><use x="155.161342" y="518.4" xlink:href="#b"/><use x="155.745298" y="517.104" xlink:href="#b"/><use x="156.107656" y="515.808" xlink:href="#b"/><use x="158.31368" y="514.512" xlink:href="#b"/><use x="162.419332" y="513.216" xlink:href="#b"/><use x="164.735419" y="511.92" xlink:href="#b"/><use x="166.791849" y="510.624" xlink:href="#b"/><use x="167.894936" y="509.328" xlink:href="#b"/><use x="168.673453" y="508.032" xlink:href="#b"/><use x="169.419589" y="506.736" xlink:href="#b"/><use x="169.462845" y="505.44" xlink:href="#b"/><use x="170.322557" y="504.144" xlink:href="#b"/><use x="170.358634" y="502.848" xlink:href="#b"/><use x="171.883527" y="501.552" xlink:href="#b"/><use x="172.355587" y="500.256" xlink:href="#b"/><use x="175.437575" y="498.96" xlink:href="#b"/><use x="177.003831" y="497.664" xlink:href="#b"/><use x="178.159186" y="496.368" xlink:href="#b"/><use x="178.880088" y="495.072" xlink:href="#b"/><use x="179.682096" y="493.776" xlink:href="#b"/><use x="183.265222" y="492.48" xlink:href="#b"/><use x="184.530369" y="491.184" xlink:href="#b"/><use x="184.611473" y="489.888" xlink:href="#b"/><use x="184.766504" y="488.592" xlink:href="#b"/><use x="185.909122" y="487.296" xlink:href="#b"/><use x="187.848431" y="486" xlink:href="#b"/><use x="188.75152" y="484.704" xlink:href="#b"/><use x="188.99111" y="483.408" xlink:href="#b"/><use x="191.718038" y="482.112" xlink:href="#b"/><use x="193.282552" y="480.816" xlink:href="#b"/><use x="193.953019" y="479.52" xlink:href="#b"/><use x="195.641834" y="478.224" xlink:href="#b"/><use x="197.871289" y="476.928" xlink:href="#b"/><use x="198.806609" y="475.632" xlink:href="#b"/><use x="199.141932" y="474.336" xlink:href="#b"/><use x="199.587078" y="473.04" xlink:href="#b"/><use x="201.265079" y="471.744" xlink:href="#b"/><use x="203.330612" y="470.448" xlink:href="#b"/><use x="205.307619" y="469.152" xlink:href="#b"/><use x="205.336457" y="467.856" xlink:href="#b"/><use x="207.203702" y="466.56" xlink:href="#b"/><use x="207.558732" y="465.264" xlink:href="#b"/><use x="209.842286" y="463.968" xlink:href="#b"/><use x="212.598081" y="462.672" xlink:href="#b"/><use x="213.023522" y="461.376" xlink:href="#b"/><use x="214.986231" y="460.08" xlink:href="#b"/><use x="216.328968" y="458.784" xlink:href="#b"/><use x="216.44609" y="457.488" xlink:href="#b"/><use x="218.068188" y="456.192" xlink:href="#b"/><use x="218.659293" y="454.896" xlink:href="#b"/><use x="218.666533" y="453.6" xlink:href="#b"/><use x="223.0319" y="452.304" xlink:href="#b"/><use x="223.933006" y="451.008" xlink:href="#b"/><use x="224.35301" y="449.712" xlink:href="#b"/><use x="226.578739" y="448.416" xlink:href="#b"/><use x="227.786301" y="447.12" xlink:href="#b"/><use x="228.029676" y="445.824" xlink:href="#b"/><use x="229.86451" y="444.528" xlink:href="#b"/><use x="232.030793" y="443.232" xlink:href="#b"/><use x="232.960916" y="441.936" xlink:href="#b"/><use x="233.551961" y="440.64" xlink:href="#b"/><use x="234.993826" y="439.344" xlink:href="#b"/><use x="235.918422" y="438.048" xlink:href="#b"/><use x="236.165432" y="436.752" xlink:href="#b"/><use x="237.250346" y="435.456" xlink:href="#b"/><use x="239.074396" y="434.16" xlink:href="#b"/><use x="240.200763" y="432.864" xlink:href="#b"/><use x="240.220618" y="431.568" xlink:href="#b"/><use x="242.637515" y="430.272" xlink:href="#b"/><use x="245.952124" y="428.976" xlink:href="#b"/><use x="247.164973" y="427.68" xlink:href="#b"/><use x="249.219631" y="426.384" xlink:href="#b"/><use x="250.317311" y="425.088" xlink:href="#b"/><use x="251.070746" y="423.792" xlink:href="#b"/><use x="251.535687" y="422.496" xlink:href="#b"/><use x="254.232066" y="421.2" xlink:href="#b"/><use x="255.666572" y="419.904" xlink:href="#b"/><use x="258.779229" y="418.608" xlink:href="#b"/><use x="260.994295" y="417.312" xlink:href="#b"/><use x="261.527785" y="416.016" xlink:href="#b"/><use x="262.295668" y="414.72" xlink:href="#b"/><use x="262.387497" y="413.424" xlink:href="#b"/><use x="263.860092" y="412.128" xlink:href="#b"/><use x="264.119598" y="410.832" xlink:href="#b"/><use x="267.266379" y="409.536" xlink:href="#b"/><use x="268.077579" y="408.24" xlink:href="#b"/><use x="268.11711" y="406.944" xlink:href="#b"/><use x="268.962373" y="405.648" xlink:href="#b"/><use x="270.49811" y="404.352" xlink:href="#b"/><use x="271.588401" y="403.056" xlink:href="#b"/><use x="274.499137" y="401.76" xlink:href="#b"/><use x="275.762631" y="400.464" xlink:href="#b"/><use x="277.235197" y="399.168" xlink:href="#b"/><use x="277.518073" y="397.872" xlink:href="#b"/><use x="282.074427" y="396.576" xlink:href="#b"/><use x="283.638851" y="395.28" xlink:href="#b"/><use x="284.669785" y="393.984" xlink:href="#b"/><use x="286.508164" y="392.688" xlink:href="#b"/><use x="287.511972" y="391.392" xlink:href="#b"/><use x="291.347424" y="390.096" xlink:href="#b"/><use x="293.811122" y="388.8" xlink:href="#b"/><use x="294.468973" y="387.504" xlink:href="#b"/><use x="294.481619" y="386.208" xlink:href="#b"/><use x="297.280641" y="384.912" xlink:href="#b"/><use x="299.329952" y="383.616" xlink:href="#b"/><use x="299.396578" y="382.32" xlink:href="#b"/><use x="300.5033" y="381.024" xlink:href="#b"/><use x="301.018647" y="379.728" xlink:href="#b"/><use x="301.701821" y="378.432" xlink:href="#b"/><use x="305.088312" y="377.136" xlink:href="#b"/><use x="306.299479" y="375.84" xlink:href="#b"/><use x="306.359046" y="374.544" xlink:href="#b"/><use x="306.391458" y="373.248" xlink:href="#b"/><use x="309.536617" y="371.952" xlink:href="#b"/><use x="312.524793" y="370.656" xlink:href="#b"/><use x="313.613431" y="369.36" xlink:href="#b"/><use x="316.619691" y="368.064" xlink:href="#b"/><use x="318.146326" y="366.768" xlink:href="#b"/><use x="320.109095" y="365.472" xlink:href="#b"/><use x="321.686015" y="364.176" xlink:href="#b"/><use x="329.607264" y="362.88" xlink:href="#b"/><use x="331.005843" y="361.584" xlink:href="#b"/><use x="331.339425" y="360.288" xlink:href="#b"/><use x="331.870992" y="358.992" xlink:href="#b"/><use x="334.630362" y="357.696" xlink:href="#b"/><use x="340.947625" y="356.4" xlink:href="#b"/><use x="343.533851" y="355.104" xlink:href="#b"/><use x="345.314585" y="353.808" xlink:href="#b"/><use x="347.430643" y="352.512" xlink:href="#b"/><use x="347.479306" y="351.216" xlink:href="#b"/><use x="349.591488" y="349.92" xlink:href="#b"/><use x="352.489758" y="348.624" xlink:href="#b"/><use x="357.143349" y="347.328" xlink:href="#b"/><use x="359.024893" y="346.032" xlink:href="#b"/><use x="359.351265" y="344.736" xlink:href="#b"/><use x="361.57339" y="343.44" xlink:href="#b"/><use x="367.403933" y="342.144" xlink:href="#b"/><use x="369.608275" y="340.848" xlink:href="#b"/><use x="370.190338" y="339.552" xlink:href="#b"/><use x="372.20895" y="338.256" xlink:href="#b"/><use x="382.729161" y="336.96" xlink:href="#b"/><use x="384.326027" y="335.664" xlink:href="#b"/><use x="388.824677" y="334.368" xlink:href="#b"/><use x="395.898799" y="333.072" xlink:href="#b"/><use x="396.136827" y="331.776" xlink:href="#b"/><use x="397.63093" y="330.48" xlink:href="#b"/><use x="398.32654" y="329.184" xlink:href="#b"/><use x="400.932712" y="327.888" xlink:href="#b"/><use x="405.970229" y="326.592" xlink:href="#b"/><use x="408.664775" y="325.296" xlink:href="#b"/><use x="412.245948" y="324" xlink:href="#b"/><use x="414.877353" y="322.704" xlink:href="#b"/><use x="420.152778" y="321.408" xlink:href="#b"/><use x="427.127862" y="320.112" xlink:href="#b"/><use x="427.699201" y="318.816" xlink:href="#b"/><use x="440.135291" y="317.52" xlink:href="#b"/><use x="442.406229" y="316.224" xlink:href="#b"/><use x="450.727594" y="314.928" xlink:href="#b"/><use x="453.492401" y="313.632" xlink:href="#b"/><use x="464.984009" y="312.336" xlink:href="#b"/><use x="468.255331" y="311.04" xlink:href="#b"/><use x="471.366096" y="309.744" xlink:href="#b"/><use x="472.568191" y="308.448" xlink:href="#b"/><use x="474.32189" y="307.152" xlink:href="#b"/><use x="476.003586" y="305.856" xlink:href="#b"/><use x="476.405385" y="304.56" xlink:href="#b"/><use x="479.70903" y="303.264" xlink:href="#b"/><use x="481.008511" y="301.968" xlink:href="#b"/><use x="482.392702" y="300.672" xlink:href="#b"/><use x="492.959863" y="299.376" xlink:href="#b"/><use x="517.379566" y="298.08" xlink:href="#b"/><use x="523.329124" y="296.784" xlink:href="#b"/><use x="523.981568" y="295.488" xlink:href="#b"/><use x="525.744248" y="294.192" xlink:href="#b"/><use x="529.938304" y="292.896" xlink:href="#b"/><use x="532.39308" y="291.6" xlink:href="#b"/><use x="533.402416" y="290.304" xlink:href="#b"/><use x="534.058375" y="289.008" xlink:href="#b"/><use x="535.23001" y="287.712" xlink:href="#b"/><use x="541.164999" y="286.416" xlink:href="#b"/><use x="543.116864" y="285.12" xlink:href="#b"/><use x="548.087785" y="283.824" xlink:href="#b"/><use x="548.201302" y="282.528" xlink:href="#b"/><use x="551.80957" y="281.232" xlink:href="#b"/><use x="561.070041" y="279.936" xlink:href="#b"/><use x="568.560442" y="278.64" xlink:href="#b"/><use x="568.726227" y="277.344" xlink:href="#b"/><use x="569.33178" y="276.048" xlink:href="#b"/><use x="573.962061" y="274.752" xlink:href="#b"/><use x="583.045753" y="273.456" xlink:href="#b"/><use x="594.229221" y="272.16" xlink:href="#b"/><use x="595.950418" y="270.864" xlink:href="#b"/><use x="599.888543" y="269.568" xlink:href="#b"/><use x="601.490816" y="268.272" xlink:href="#b"/><use x="603.884343" y="266.976" xlink:href="#b"/><use x="612.396786" y="265.68" xlink:href="#b"/><use x="615.320138" y="264.384" xlink:href="#b"/><use x="618.16611" y="263.088" xlink:href="#b"/><use x="625.061711" y="261.792" xlink:href="#b"/><use x="633.676947" y="260.496" xlink:href="#b"/><use x="645.664196" y="259.2" xlink:href="#b"/><use x="648.594878" y="257.904" xlink:href="#b"/><use x="650.689067" y="256.608" xlink:href="#b"/><use x="651.359655" y="255.312" xlink:href="#b"/><use x="656.168216" y="254.016" xlink:href="#b"/><use x="661.382302" y="252.72" xlink:href="#b"/><use x="662.829574" y="251.424" xlink:href="#b"/><use x="669.622683" y="250.128" xlink:href="#b"/><use x="672.001731" y="248.832" xlink:href="#b"/><use x="674.661852" y="247.536" xlink:href="#b"/><use x="678.398236" y="246.24" xlink:href="#b"/><use x="680.739405" y="244.944" xlink:href="#b"/><use x="683.723976" y="243.648" xlink:href="#b"/><use x="688.649749" y="242.352" xlink:href="#b"/><use x="692.52311" y="241.056" xlink:href="#b"/><use x="693.438635" y="239.76" xlink:href="#b"/><use x="694.141574" y="238.464" xlink:href="#b"/><use x="703.264918" y="237.168" xlink:href="#b"/><use x="708.56912" y="235.872" xlink:href="#b"/><use x="715.758682" y="234.576" xlink:href="#b"/><use x="719.262505" y="233.28" xlink:href="#b"/><use x="727.998347" y="231.984" xlink:href="#b"/><use x="728.629103" y="230.688" xlink:href="#b"/><use x="728.805701" y="229.392" xlink:href="#b"/><use x="729.225705" y="228.096" xlink:href="#b"/><use x="739.170972" y="226.8" xlink:href="#b"/><use x="742.146651" y="225.504" xlink:href="#b"/><use x="747.083178" y="224.208" xlink:href="#b"/><use x="747.88885" y="222.912" xlink:href="#b"/><use x="749.033331" y="221.616" xlink:href="#b"/><use x="753.00573" y="220.32" xlink:href="#b"/><use x="765.540978" y="219.024" xlink:href="#b"/><use x="792.664209" y="217.728" xlink:href="#b"/><use x="793.976277" y="216.432" xlink:href="#b"/><use x="796.449076" y="215.136" xlink:href="#b"/><use x="811.686019" y="213.84" xlink:href="#b"/><use x="823.895074" y="212.544" xlink:href="#b"/><use x="835.815547" y="211.248" xlink:href="#b"/><use x="836.334738" y="209.952" xlink:href="#b"/><use x="836.368983" y="208.656" xlink:href="#b"/><use x="841.076553" y="207.36" xlink:href="#b"/><use x="848.313005" y="206.064" xlink:href="#b"/><use x="852.966536" y="204.768" xlink:href="#b"/><use x="853.671368" y="203.472" xlink:href="#b"/><use x="861.810638" y="202.176" xlink:href="#b"/><use x="863.933755" y="200.88" xlink:href="#b"/><use x="871.238696" y="199.584" xlink:href="#b"/><use x="885.608657" y="198.288" xlink:href="#b"/><use x="886.199822" y="196.992" xlink:href="#b"/><use x="894.487004" y="195.696" xlink:href="#b"/><use x="896.204566" y="194.4" xlink:href="#b"/><use x="902.357636" y="193.104" xlink:href="#b"/><use x="912.440031" y="191.808" xlink:href="#b"/><use x="914.85861" y="190.512" xlink:href="#b"/><use x="922.561836" y="189.216" xlink:href="#b"/><use x="923.426985" y="187.92" xlink:href="#b"/><use x="926.411556" y="186.624" xlink:href="#b"/><use x="933.63356" y="185.328" xlink:href="#b"/><use x="933.900245" y="184.032" xlink:href="#b"/><use x="939.132414" y="182.736" xlink:href="#b"/><use x="943.951939" y="181.44" xlink:href="#b"/><use x="945.685692" y="180.144" xlink:href="#b"/><use x="950.96292" y="178.848" xlink:href="#b"/><use x="956.683671" y="177.552" xlink:href="#b"/><use x="963.208052" y="176.256" xlink:href="#b"/><use x="970.130779" y="174.96" xlink:href="#b"/><use x="976.954467" y="173.664" xlink:href="#b"/><use x="984.136699" y="172.368" xlink:href="#b"/><use x="992.757312" y="171.072" xlink:href="#b"/><use x="994.633479" y="169.776" xlink:href="#b"/><use x="1000.193733" y="168.48" xlink:href="#b"/><use x="1013.240843" y="167.184" xlink:href="#b"/><use x="1017.213182" y="165.888" xlink:href="#b"/><use x="1019.132605" y="164.592" xlink:href="#b"/><use x="1024.764862" y="163.296" xlink:href="#b"/><use x="1026.421205" y="162" xlink:href="#b"/><use x="1032.85559" y="160.704" xlink:href="#b"/><use x="1046.573137" y="159.408" xlink:href="#b"/><use x="1047.265112" y="158.112" xlink:href="#b"/><use x="1050.711261" y="156.816" xlink:href="#b"/><use x="1051.619546" y="155.52" xlink:href="#b"/><use x="1053.798655" y="154.224" xlink:href="#b"/><use x="1056.244449" y="152.928" xlink:href="#b"/><use x="1058.369428" y="151.632" xlink:href="#b"/><use x="1067.608151" y="150.336" xlink:href="#b"/><use x="1069.161731" y="149.04" xlink:href="#b"/><use x="1070.1963" y="147.744" xlink:href="#b"/><use x="1072.200523" y="146.448" xlink:href="#b"/><use x="1073.934246" y="145.152" xlink:href="#b"/><use x="1074.163142" y="143.856" xlink:href="#b"/><use x="1076.929721" y="142.56" xlink:href="#b"/><use x="1076.933296" y="141.264" xlink:href="#b"/><use x="1081.026541" y="139.968" xlink:href="#b"/><use x="1083.081079" y="138.672" xlink:href="#b"/><use x="1087.541851" y="137.376" xlink:href="#b"/><use x="1088.733162" y="136.08" xlink:href="#b"/><use x="1090.995178" y="134.784" xlink:href="#b"/><use x="1091.371806" y="133.488" xlink:href="#b"/><use x="1092.103612" y="132.192" xlink:href="#b"/><use x="1092.325359" y="130.896" xlink:href="#b"/><use x="1094.414112" y="129.6" xlink:href="#b"/><use x="1096.782376" y="128.304" xlink:href="#b"/><use x="1097.433108" y="127.008" xlink:href="#b"/><use x="1099.280408" y="125.712" xlink:href="#b"/><use x="1103.236526" y="124.416" xlink:href="#b"/><use x="1104.552348" y="123.12" xlink:href="#b"/><use x="1109.798966" y="121.824" xlink:href="#b"/><use x="1112.53845" y="120.528" xlink:href="#b"/><use x="1112.828656" y="119.232" xlink:href="#b"/></g><path d="m55.296 609.12v-589.68" fill="none" stroke="#000" stroke-linecap="square" stroke-width=".8"/><path d="m1140.5 609.12v-589.68" fill="none" stroke="#000" stroke-linecap="square" stroke-width=".8"/><path d="m55.296 609.12h1085.2" fill="none" stroke="#000" stroke-linecap="square" stroke-width=".8"/><path d="m55.296 19.44h1085.2" fill="none" stroke="#000" stroke-linecap="square" stroke-width=".8"/><g transform="translate(153.31 13.44) scale(.12 -.12)"><defs><path id="at" transform="scale(.015625)" d="m1259 4147v-1753h794q441 0 681 228 241 228 241 650 0 419-241 647-240 228-681 228h-794zm-631 519h1425q785 0 1186-355 402-355 402-1039 0-691-402-1044-401-353-1186-353h-794v-1875h-631v4666z"/><path id="ae" transform="scale(.015625)" d="m1991 3584q750 0 1178-488 428-487 428-1349 0-859-428-1349-428-489-1178-489-753 0-1169 475t-438 1363l-18 716q-16 371-16 500 0 500 181 868 285 578 777 828t1317 257q381 3 550 56l159-456q-153-63-293-66l-782-53q-393-28-631-166-622-365-681-843l-22-175q406 371 1066 371zm0-487q-463 0-732-361-268-361-268-989t267-989 733-361q459 0 728 362 269 363 269 988 0 622-269 986t-728 364z"/><path id="aj" transform="scale(.015625)" d="m3578 3500v-3500h-572v2809l-1687-2809h-738v3500h572v-2803l1685 2803h740zm-2476 1333h369q34-234 185-352 152-117 424-117 269 0 419 116t190 353h369q-31-447-278-672t-700-225-700 225-278 672z"/><path id="ap" transform="scale(.015625)" d="m684 794h660v-794h-660v794z"/><path id="ai" transform="scale(.015625)" d="m2781 1038q0 281-205 428-204 147-598 147h-819v-1154h819q394 0 598 148 205 149 205 431zm-2200 2462h578v-1428h844q669 0 1030-255 361-254 361-779t-361-782q-361-256-1030-256h-1422v3500z"/><path id="u" transform="scale(.015625)" d="m581 3500h578v-1428h1866v1428h578v-3500h-578v1613h-1866v-1613h-578v3500z"/><path id="ar" transform="scale(.015625)" d="m3513 3500-1266-1703 1331-1797h-678l-1019 1375-1018-1375h-679l1360 1831-1244 1669h678l928-1247 928 1247h679z"/><path id="as" transform="scale(.015625)" d="m1284 3322q0-409 233-620t689-211h982v1656h-982q-456 0-689-208t-233-617zm-859-3322 1275 2041q-312 81-712 345t-400 936q0 644 406 994t1212 350h1613v-4666h-631v1972h-844l-1231-1972h-688z"/></defs><use xlink:href="#at"/><use x="60.302734" xlink:href="#h"/><use x="121.484375" xlink:href="#i"/><use x="176.464844" xlink:href="#y"/><use x="234.716797" xlink:href="#DejaVuSans-20"/><use x="266.503906" xlink:href="#ad"/><use x="325.585938" xlink:href="#n"/><use x="390.576172" xlink:href="#i"/><use x="445.556641" xlink:href="#x"/><use x="509.472656" xlink:href="#j"/><use x="570.751953" xlink:href="#DejaVuSans-20"/><use x="602.539062" xlink:href="#aa"/><use x="655.712891" xlink:href="#j"/><use x="716.992188" xlink:href="#s"/><use x="782.373047" xlink:href="#m"/><use x="841.552734" xlink:href="#i"/><use x="896.533203" xlink:href="#k"/><use x="956.933594" xlink:href="#h"/><use x="1018.115234" xlink:href="#t"/><use x="1077.050781" xlink:href="#DejaVuSans-20"/><use x="1108.837891" xlink:href="#t"/><use x="1167.773438" xlink:href="#DejaVuSans-20"/><use x="1199.560547" xlink:href="#ab"/><use x="1252.099609" xlink:href="#x"/><use x="1316.015625" xlink:href="#m"/><use x="1375.195312" xlink:href="#ae"/><use x="1436.865234" xlink:href="#h"/><use x="1498.046875" xlink:href="#k"/><use x="1558.447266" xlink:href="#n"/><use x="1623.4375" xlink:href="#aj"/><use x="1688.427734" xlink:href="#DejaVuSans-20"/><use x="1720.214844" xlink:href="#k"/><use x="1780.615234" xlink:href="#h"/><use x="1841.796875" xlink:href="#i"/><use x="1896.777344" xlink:href="#af"/><use x="1972.216797" xlink:href="#h"/><use x="2033.398438" xlink:href="#i"/><use x="2088.378906" xlink:href="#ap"/><use x="2120.166016" xlink:href="#DejaVuSans-20"/><use x="2151.953125" xlink:href="#ao"/><use x="2220.556641" xlink:href="#i"/><use x="2275.537109" xlink:href="#q"/><use x="2337.060547" xlink:href="#ab"/><use x="2389.599609" xlink:href="#h"/><use x="2450.78125" xlink:href="#DejaVuSans-20"/><use x="2482.568359" xlink:href="#v"/><use x="2546.191406" xlink:href="#o"/><use x="2609.814453" xlink:href="#v"/><use x="2673.4375" xlink:href="#ak"/><use x="2737.060547" xlink:href="#DejaVuSans-20"/><use x="2768.847656" xlink:href="#h"/><use x="2830.029297" xlink:href="#z"/><use x="2893.505859" xlink:href="#ae"/><use x="2955.175781" xlink:href="#n"/><use x="3020.166016" xlink:href="#y"/><use x="3078.417969" xlink:href="#j"/><use x="3139.697266" xlink:href="#x"/><use x="3203.613281" xlink:href="#ai"/><use x="3262.548828" xlink:href="#u"/><use x="3327.929688" xlink:href="#w"/><use x="3406.884766" xlink:href="#ar"/><use x="3466.064453" xlink:href="#DejaVuSans-20"/><use x="3497.851562" xlink:href="#aa"/><use x="3551.025391" xlink:href="#j"/><use x="3612.304688" xlink:href="#s"/><use x="3677.685547" xlink:href="#m"/><use x="3736.865234" xlink:href="#i"/><use x="3791.845703" xlink:href="#k"/><use x="3852.246094" xlink:href="#h"/><use x="3913.427734" xlink:href="#t"/><use x="3972.363281" xlink:href="#an"/><use x="4004.150391" xlink:href="#DejaVuSans-20"/><use x="4035.9375" xlink:href="#ah"/><use x="4099.560547" xlink:href="#al"/><use x="4163.183594" xlink:href="#ah"/><use x="4226.806641" xlink:href="#DejaVuSans-20"/><use x="4258.59375" xlink:href="#u"/><use x="4323.974609" xlink:href="#q"/><use x="4385.498047" xlink:href="#m"/><use x="4444.677734" xlink:href="#ag"/><use x="4513.818359" xlink:href="#j"/><use x="4575.097656" xlink:href="#ad"/><use x="4634.179688" xlink:href="#an"/><use x="4665.966797" xlink:href="#DejaVuSans-20"/><use x="4697.753906" xlink:href="#r"/><use x="4761.376953" xlink:href="#am"/><use x="4825" xlink:href="#f"/><use x="4888.623047" xlink:href="#DejaVuSans-20"/><use x="4920.410156" xlink:href="#aa"/><use x="4973.583984" xlink:href="#j"/><use x="5034.863281" xlink:href="#s"/><use x="5100.244141" xlink:href="#m"/><use x="5159.423828" xlink:href="#i"/><use x="5214.404297" xlink:href="#k"/><use x="5274.804688" xlink:href="#h"/><use x="5335.986328" xlink:href="#t"/><use x="5394.921875" xlink:href="#DejaVuSans-20"/><use x="5426.708984" xlink:href="#t"/><use x="5485.644531" xlink:href="#DejaVuSans-20"/><use x="5517.431641" xlink:href="#ab"/><use x="5569.970703" xlink:href="#x"/><use x="5633.886719" xlink:href="#m"/><use x="5693.066406" xlink:href="#ae"/><use x="5754.736328" xlink:href="#h"/><use x="5815.917969" xlink:href="#k"/><use x="5876.318359" xlink:href="#n"/><use x="5941.308594" xlink:href="#aj"/><use x="6006.298828" xlink:href="#DejaVuSans-20"/><use x="6038.085938" xlink:href="#k"/><use x="6098.486328" xlink:href="#h"/><use x="6159.667969" xlink:href="#i"/><use x="6214.648438" xlink:href="#af"/><use x="6290.087891" xlink:href="#h"/><use x="6351.269531" xlink:href="#i"/><use x="6406.25" xlink:href="#ap"/><use x="6438.037109" xlink:href="#DejaVuSans-20"/><use x="6469.824219" xlink:href="#as"/><use x="6539.306641" xlink:href="#u"/><use x="6604.6875" xlink:href="#t"/><use x="6663.623047" xlink:href="#j"/><use x="6724.902344" xlink:href="#z"/><use x="6788.378906" xlink:href="#ai"/><use x="6847.314453" xlink:href="#DejaVuSans-20"/><use x="6879.101562" xlink:href="#r"/><use x="6942.724609" xlink:href="#f"/><use x="7006.347656" xlink:href="#r"/><use x="7069.970703" xlink:href="#ah"/><use x="7133.59375" xlink:href="#DejaVuSans-20"/><use x="7165.380859" xlink:href="#ab"/><use x="7217.919922" xlink:href="#h"/><use x="7279.101562" xlink:href="#ag"/><use x="7348.242188" xlink:href="#j"/></g><path d="m867.37 106.61h264.01q2.6 0 2.6-2.6v-75.469q0-2.6-2.6-2.6h-264.01q-2.6 0-2.6 2.6v75.469q0 2.6 2.6 2.6z" fill="#fff" opacity=".8" stroke="#ccc"/><use x="882.96625" y="36.467969" fill="#008000" stroke="#008000" xlink:href="#d"/><g transform="translate(906.37 41.018) scale(.13 -.13)"><defs><path id="ay" transform="scale(.015625)" d="m628 0v4666h2903v-532h-2272v-4134h-631z"/></defs><use xlink:href="#ay"/><use x="60.986328" xlink:href="#z"/><use x="124.462891" xlink:href="#j"/><use x="185.742188" xlink:href="#u"/><use x="251.123047" xlink:href="#n"/><use x="316.113281" xlink:href="#ad"/><use x="375.195312" xlink:href="#u"/><use x="440.576172" xlink:href="#w"/><use x="519.53125" xlink:href="#q"/><use x="581.054688" xlink:href="#DejaVuSans-20"/><use x="612.841797" xlink:href="#aa"/><use x="666.015625" xlink:href="#j"/><use x="727.294922" xlink:href="#s"/><use x="792.675781" xlink:href="#m"/><use x="851.855469" xlink:href="#i"/><use x="906.835938" xlink:href="#k"/><use x="967.236328" xlink:href="#n"/></g><use x="882.96625" y="55.770938" stroke="#000000" xlink:href="#c"/><g transform="translate(906.37 60.321) scale(.13 -.13)"><defs><path id="ax" transform="scale(.015625)" d="m1828 4750q769 0 1256-327 488-326 488-882 0-388-222-655t-631-370q453-97 707-404 255-306 255-756 0-718-555-1083-554-364-1298-364-381 0-825 103-444 104-581 191v650q478-278 742-345t652-67q587 0 912 225t325 690q0 413-289 645-289 233-898 233h-638v519h663q559 0 806 186t247 536q0 359-255 551-255 193-873 193-419 0-563-38-144-37-784-278v616q353 125 721 178 369 53 638 53z"/></defs><use xlink:href="#ax"/><use x="64.111328" xlink:href="#j"/><use x="125.390625" xlink:href="#s"/><use x="190.771484" xlink:href="#m"/><use x="249.951172" xlink:href="#i"/><use x="304.931641" xlink:href="#k"/><use x="365.332031" xlink:href="#n"/><use x="430.322266" xlink:href="#DejaVuSans-20"/><use x="462.109375" xlink:href="#t"/><use x="521.044922" xlink:href="#DejaVuSans-20"/><use x="552.832031" xlink:href="#ab"/><use x="605.371094" xlink:href="#x"/><use x="669.287109" xlink:href="#m"/><use x="728.466797" xlink:href="#ae"/><use x="790.136719" xlink:href="#h"/><use x="851.318359" xlink:href="#k"/><use x="911.71875" xlink:href="#n"/><use x="976.708984" xlink:href="#aj"/><use x="1041.699219" xlink:href="#DejaVuSans-20"/><use x="1073.486328" xlink:href="#k"/><use x="1133.886719" xlink:href="#h"/><use x="1195.068359" xlink:href="#i"/><use x="1250.048828" xlink:href="#af"/><use x="1325.488281" xlink:href="#h"/><use x="1386.669922" xlink:href="#i"/></g><use x="882.96625" y="75.073906" fill="#0000ff" stroke="#0000ff" xlink:href="#a"/><g transform="translate(906.37 79.624) scale(.13 -.13)"><defs><path id="au" transform="scale(.015625)" d="m2522 4238q-688 0-1093-513-404-512-404-1397 0-881 404-1394 405-512 1093-512 687 0 1089 512 402 513 402 1394 0 885-402 1397-402 513-1089 513zm0 512q981 0 1568-658 588-658 588-1764 0-1103-588-1761-587-658-1568-658-984 0-1574 656-589 657-589 1763t589 1764q590 658 1574 658z"/></defs><use xlink:href="#au"/><use x="78.710938" xlink:href="#z"/><use x="142.1875" xlink:href="#ae"/><use x="203.857422" xlink:href="#n"/><use x="268.847656" xlink:href="#y"/><use x="327.099609" xlink:href="#j"/><use x="388.378906" xlink:href="#x"/><use x="452.294922" xlink:href="#ai"/><use x="511.230469" xlink:href="#u"/><use x="576.611328" xlink:href="#w"/><use x="655.566406" xlink:href="#q"/><use x="717.089844" xlink:href="#DejaVuSans-20"/><use x="748.876953" xlink:href="#z"/><use x="812.353516" xlink:href="#j"/><use x="873.632812" xlink:href="#k"/><use x="934.033203" xlink:href="#q"/><use x="995.556641" xlink:href="#y"/><use x="1053.808594" xlink:href="#u"/><use x="1119.189453" xlink:href="#w"/><use x="1198.144531" xlink:href="#q"/><use x="1259.667969" xlink:href="#DejaVuSans-20"/><use x="1291.455078" xlink:href="#aa"/><use x="1344.628906" xlink:href="#j"/><use x="1405.908203" xlink:href="#s"/><use x="1471.289062" xlink:href="#m"/><use x="1530.46875" xlink:href="#i"/><use x="1585.449219" xlink:href="#k"/><use x="1645.849609" xlink:href="#n"/></g><use x="882.96625" y="94.155469" fill="#ff0000" stroke="#ff0000" xlink:href="#b"/><g transform="translate(906.37 98.705) scale(.13 -.13)"><defs><path id="av" transform="scale(.015625)" d="m628 4666h631v-1913h2294v1913h631v-4666h-631v2222h-2294v-2222h-631v4666z"/></defs><use xlink:href="#av"/><use x="75.195312" xlink:href="#q"/><use x="136.71875" xlink:href="#m"/><use x="195.898438" xlink:href="#ag"/><use x="265.039062" xlink:href="#j"/><use x="326.318359" xlink:href="#ad"/><use x="385.400391" xlink:href="#u"/><use x="450.78125" xlink:href="#w"/><use x="529.736328" xlink:href="#q"/><use x="591.259766" xlink:href="#DejaVuSans-20"/><use x="623.046875" xlink:href="#s"/><use x="688.427734" xlink:href="#h"/><use x="749.609375" xlink:href="#s"/><use x="814.990234" xlink:href="#w"/><use x="893.945312" xlink:href="#y"/><use x="952.197266" xlink:href="#k"/><use x="1012.597656" xlink:href="#n"/></g><defs><clipPath id="g"><rect x="55.296" y="19.44" width="1085.2" height="589.68"/></clipPath></defs></svg>
