<?xml version="1.0" encoding="UTF-8"?>
<!DOCTYPE svg  PUBLIC '-//W3C//DTD SVG 1.1//EN'  'http://www.w3.org/Graphics/SVG/1.1/DTD/svg11.dtd'>
<svg width="1152pt" height="648pt" version="1.1" viewBox="0 0 1152 648" xmlns="http://www.w3.org/2000/svg" xmlns:xlink="http://www.w3.org/1999/xlink"><defs><style type="text/css">*{stroke-linejoin: round; stroke-linecap: butt}</style></defs><path d="m0 648h1152v-648h-1152z" fill="#fff"/><path d="m55.296 609.12h1085.2v-589.68h-1085.2z" fill="#fff"/><path d="m117.59 609.12v-589.68" clip-path="url(#g)" fill="none" stroke="#b0b0b0" stroke-dasharray="0.8,1.32" stroke-width=".8"/><defs><path id="l" d="m0 0v3.5" stroke="#000" stroke-width=".8"/></defs><use x="117.585567" y="609.12" stroke="#000000" stroke-width=".8" xlink:href="#l"/><g transform="translate(104.86 623.72) scale(.1 -.1)"><defs><path id="p" transform="scale(.015625)" d="m794 531h1031v3560l-1122-225v575l1116 225h631v-4135h1031v-531h-2687v531z"/><path id="r" transform="scale(.015625)" d="m703 97v575q238-113 481-172 244-59 479-59 625 0 954 420 330 420 377 1277-181-269-460-413-278-144-615-144-700 0-1108 423-408 424-408 1159 0 718 425 1152 425 435 1131 435 810 0 1236-621 427-620 427-1801 0-1103-524-1761-523-658-1407-658-238 0-482 47-243 47-506 141zm1256 1978q425 0 673 290 249 291 249 798 0 503-249 795-248 292-673 292t-673-292-248-795q0-507 248-798 248-290 673-290z"/><path id="aj" transform="scale(.015625)" d="m2113 2584q-425 0-674-291-248-290-248-796 0-503 248-796 249-292 674-292t673 292q248 293 248 796 0 506-248 796-248 291-673 291zm1253 1979v-575q-238 112-480 171-242 60-480 60-625 0-955-422-329-422-376-1275 184 272 462 417 279 145 613 145 703 0 1111-427 408-426 408-1160 0-719-425-1154-425-434-1131-434-810 0-1238 620-428 621-428 1799 0 1106 525 1764t1409 658q238 0 480-47t505-140z"/><path id="f" transform="scale(.015625)" d="m2034 4250q-487 0-733-480-245-479-245-1442 0-959 245-1439 246-480 733-480 491 0 736 480 246 480 246 1439 0 963-246 1442-245 480-736 480zm0 500q785 0 1199-621 414-620 414-1801 0-1178-414-1799-414-620-1199-620-784 0-1198 620-414 621-414 1799 0 1181 414 1801 414 621 1198 621z"/></defs><use xlink:href="#p"/><use x="63.623047" xlink:href="#r"/><use x="127.246094" xlink:href="#aj"/><use x="190.869141" xlink:href="#f"/></g><path d="m196.17 609.12v-589.68" clip-path="url(#g)" fill="none" stroke="#b0b0b0" stroke-dasharray="0.8,1.32" stroke-width=".8"/><use x="196.167595" y="609.12" stroke="#000000" stroke-width=".8" xlink:href="#l"/><g transform="translate(183.44 623.72) scale(.1 -.1)"><defs><path id="x" transform="scale(.015625)" d="m691 4666h2478v-532h-1900v-1143q137 47 274 70 138 23 276 23 781 0 1237-428 457-428 457-1159 0-753-469-1171-469-417-1322-417-294 0-599 50-304 50-629 150v635q281-153 581-228t634-75q541 0 856 284 316 284 316 772 0 487-316 771-315 285-856 285-253 0-505-56-251-56-513-175v2344z"/></defs><use xlink:href="#p"/><use x="63.623047" xlink:href="#r"/><use x="127.246094" xlink:href="#aj"/><use x="190.869141" xlink:href="#x"/></g><path d="m274.71 609.12v-589.68" clip-path="url(#g)" fill="none" stroke="#b0b0b0" stroke-dasharray="0.8,1.32" stroke-width=".8"/><use x="274.706611" y="609.12" stroke="#000000" stroke-width=".8" xlink:href="#l"/><g transform="translate(261.98 623.72) scale(.1 -.1)"><defs><path id="ak" transform="scale(.015625)" d="m525 4666h3e3v-269l-1694-4397h-659l1594 4134h-2241v532z"/></defs><use xlink:href="#p"/><use x="63.623047" xlink:href="#r"/><use x="127.246094" xlink:href="#ak"/><use x="190.869141" xlink:href="#f"/></g><path d="m353.25 609.12v-589.68" clip-path="url(#g)" fill="none" stroke="#b0b0b0" stroke-dasharray="0.8,1.32" stroke-width=".8"/><use x="353.245628" y="609.12" stroke="#000000" stroke-width=".8" xlink:href="#l"/><g transform="translate(340.52 623.72) scale(.1 -.1)"><use xlink:href="#p"/><use x="63.623047" xlink:href="#r"/><use x="127.246094" xlink:href="#ak"/><use x="190.869141" xlink:href="#x"/></g><path d="m431.78 609.12v-589.68" clip-path="url(#g)" fill="none" stroke="#b0b0b0" stroke-dasharray="0.8,1.32" stroke-width=".8"/><use x="431.784644" y="609.12" stroke="#000000" stroke-width=".8" xlink:href="#l"/><g transform="translate(419.06 623.72) scale(.1 -.1)"><defs><path id="ai" transform="scale(.015625)" d="m2034 2216q-450 0-708-241-257-241-257-662 0-422 257-663 258-241 708-241t709 242q260 243 260 662 0 421-258 662-257 241-711 241zm-631 268q-406 100-633 378-226 279-226 679 0 559 398 884 399 325 1092 325 697 0 1094-325t397-884q0-400-227-679-226-278-629-378 456-106 710-416 255-309 255-755 0-679-414-1042-414-362-1186-362-771 0-1186 362-414 363-414 1042 0 446 256 755 257 310 713 416zm-231 997q0-362 226-565 227-203 636-203 407 0 636 203 230 203 230 565 0 363-230 566-229 203-636 203-409 0-636-203-226-203-226-566z"/></defs><use xlink:href="#p"/><use x="63.623047" xlink:href="#r"/><use x="127.246094" xlink:href="#ai"/><use x="190.869141" xlink:href="#f"/></g><path d="m510.37 609.12v-589.68" clip-path="url(#g)" fill="none" stroke="#b0b0b0" stroke-dasharray="0.8,1.32" stroke-width=".8"/><use x="510.366672" y="609.12" stroke="#000000" stroke-width=".8" xlink:href="#l"/><g transform="translate(497.64 623.72) scale(.1 -.1)"><use xlink:href="#p"/><use x="63.623047" xlink:href="#r"/><use x="127.246094" xlink:href="#ai"/><use x="190.869141" xlink:href="#x"/></g><path d="m588.91 609.12v-589.68" clip-path="url(#g)" fill="none" stroke="#b0b0b0" stroke-dasharray="0.8,1.32" stroke-width=".8"/><use x="588.905688" y="609.12" stroke="#000000" stroke-width=".8" xlink:href="#l"/><g transform="translate(576.18 623.72) scale(.1 -.1)"><use xlink:href="#p"/><use x="63.623047" xlink:href="#r"/><use x="127.246094" xlink:href="#r"/><use x="190.869141" xlink:href="#f"/></g><path d="m667.44 609.12v-589.68" clip-path="url(#g)" fill="none" stroke="#b0b0b0" stroke-dasharray="0.8,1.32" stroke-width=".8"/><use x="667.444705" y="609.12" stroke="#000000" stroke-width=".8" xlink:href="#l"/><g transform="translate(654.72 623.72) scale(.1 -.1)"><use xlink:href="#p"/><use x="63.623047" xlink:href="#r"/><use x="127.246094" xlink:href="#r"/><use x="190.869141" xlink:href="#x"/></g><path d="m745.98 609.12v-589.68" clip-path="url(#g)" fill="none" stroke="#b0b0b0" stroke-dasharray="0.8,1.32" stroke-width=".8"/><use x="745.983721" y="609.12" stroke="#000000" stroke-width=".8" xlink:href="#l"/><g transform="translate(733.26 623.72) scale(.1 -.1)"><defs><path id="m" transform="scale(.015625)" d="m1228 531h2203v-531h-2962v531q359 372 979 998 621 627 780 809 303 340 423 576 121 236 121 464 0 372-261 606-261 235-680 235-297 0-627-103-329-103-704-313v638q381 153 712 231 332 78 607 78 725 0 1156-363 431-362 431-968 0-288-108-546-107-257-392-607-78-91-497-524-418-433-1181-1211z"/></defs><use xlink:href="#m"/><use x="63.623047" xlink:href="#f"/><use x="127.246094" xlink:href="#f"/><use x="190.869141" xlink:href="#f"/></g><path d="m824.57 609.12v-589.68" clip-path="url(#g)" fill="none" stroke="#b0b0b0" stroke-dasharray="0.8,1.32" stroke-width=".8"/><use x="824.565749" y="609.12" stroke="#000000" stroke-width=".8" xlink:href="#l"/><g transform="translate(811.84 623.72) scale(.1 -.1)"><use xlink:href="#m"/><use x="63.623047" xlink:href="#f"/><use x="127.246094" xlink:href="#f"/><use x="190.869141" xlink:href="#x"/></g><path d="m903.1 609.12v-589.68" clip-path="url(#g)" fill="none" stroke="#b0b0b0" stroke-dasharray="0.8,1.32" stroke-width=".8"/><use x="903.104766" y="609.12" stroke="#000000" stroke-width=".8" xlink:href="#l"/><g transform="translate(890.38 623.72) scale(.1 -.1)"><use xlink:href="#m"/><use x="63.623047" xlink:href="#f"/><use x="127.246094" xlink:href="#p"/><use x="190.869141" xlink:href="#f"/></g><path d="m981.64 609.12v-589.68" clip-path="url(#g)" fill="none" stroke="#b0b0b0" stroke-dasharray="0.8,1.32" stroke-width=".8"/><use x="981.643782" y="609.12" stroke="#000000" stroke-width=".8" xlink:href="#l"/><g transform="translate(968.92 623.72) scale(.1 -.1)"><use xlink:href="#m"/><use x="63.623047" xlink:href="#f"/><use x="127.246094" xlink:href="#p"/><use x="190.869141" xlink:href="#x"/></g><path d="m1060.2 609.12v-589.68" clip-path="url(#g)" fill="none" stroke="#b0b0b0" stroke-dasharray="0.8,1.32" stroke-width=".8"/><use x="1060.182799" y="609.12" stroke="#000000" stroke-width=".8" xlink:href="#l"/><g transform="translate(1047.5 623.72) scale(.1 -.1)"><use xlink:href="#m"/><use x="63.623047" xlink:href="#f"/><use x="127.246094" xlink:href="#m"/><use x="190.869141" xlink:href="#f"/></g><path d="m1138.8 609.12v-589.68" clip-path="url(#g)" fill="none" stroke="#b0b0b0" stroke-dasharray="0.8,1.32" stroke-width=".8"/><use x="1138.764826" y="609.12" stroke="#000000" stroke-width=".8" xlink:href="#l"/><g transform="translate(1126 623.72) scale(.1 -.1)"><use xlink:href="#m"/><use x="63.623047" xlink:href="#f"/><use x="127.246094" xlink:href="#m"/><use x="190.869141" xlink:href="#x"/></g><defs><path id="e" d="m0 0v2" stroke="#000" stroke-width=".6"/></defs><use x="70.487964" y="609.12" stroke="#000000" stroke-width=".6" xlink:href="#e"/><use x="86.187165" y="609.12" stroke="#000000" stroke-width=".6" xlink:href="#e"/><use x="101.886366" y="609.12" stroke="#000000" stroke-width=".6" xlink:href="#e"/><use x="133.327779" y="609.12" stroke="#000000" stroke-width=".6" xlink:href="#e"/><use x="149.02698" y="609.12" stroke="#000000" stroke-width=".6" xlink:href="#e"/><use x="164.726181" y="609.12" stroke="#000000" stroke-width=".6" xlink:href="#e"/><use x="180.425382" y="609.12" stroke="#000000" stroke-width=".6" xlink:href="#e"/><use x="211.866796" y="609.12" stroke="#000000" stroke-width=".6" xlink:href="#e"/><use x="227.565997" y="609.12" stroke="#000000" stroke-width=".6" xlink:href="#e"/><use x="243.265198" y="609.12" stroke="#000000" stroke-width=".6" xlink:href="#e"/><use x="259.00741" y="609.12" stroke="#000000" stroke-width=".6" xlink:href="#e"/><use x="290.405812" y="609.12" stroke="#000000" stroke-width=".6" xlink:href="#e"/><use x="306.105013" y="609.12" stroke="#000000" stroke-width=".6" xlink:href="#e"/><use x="321.847226" y="609.12" stroke="#000000" stroke-width=".6" xlink:href="#e"/><use x="337.546427" y="609.12" stroke="#000000" stroke-width=".6" xlink:href="#e"/><use x="368.944829" y="609.12" stroke="#000000" stroke-width=".6" xlink:href="#e"/><use x="384.687041" y="609.12" stroke="#000000" stroke-width=".6" xlink:href="#e"/><use x="400.386242" y="609.12" stroke="#000000" stroke-width=".6" xlink:href="#e"/><use x="416.085443" y="609.12" stroke="#000000" stroke-width=".6" xlink:href="#e"/><use x="447.526857" y="609.12" stroke="#000000" stroke-width=".6" xlink:href="#e"/><use x="463.226058" y="609.12" stroke="#000000" stroke-width=".6" xlink:href="#e"/><use x="478.925259" y="609.12" stroke="#000000" stroke-width=".6" xlink:href="#e"/><use x="494.624459" y="609.12" stroke="#000000" stroke-width=".6" xlink:href="#e"/><use x="526.065873" y="609.12" stroke="#000000" stroke-width=".6" xlink:href="#e"/><use x="541.765074" y="609.12" stroke="#000000" stroke-width=".6" xlink:href="#e"/><use x="557.464275" y="609.12" stroke="#000000" stroke-width=".6" xlink:href="#e"/><use x="573.206487" y="609.12" stroke="#000000" stroke-width=".6" xlink:href="#e"/><use x="604.604889" y="609.12" stroke="#000000" stroke-width=".6" xlink:href="#e"/><use x="620.30409" y="609.12" stroke="#000000" stroke-width=".6" xlink:href="#e"/><use x="636.046303" y="609.12" stroke="#000000" stroke-width=".6" xlink:href="#e"/><use x="651.745504" y="609.12" stroke="#000000" stroke-width=".6" xlink:href="#e"/><use x="683.143906" y="609.12" stroke="#000000" stroke-width=".6" xlink:href="#e"/><use x="698.886118" y="609.12" stroke="#000000" stroke-width=".6" xlink:href="#e"/><use x="714.585319" y="609.12" stroke="#000000" stroke-width=".6" xlink:href="#e"/><use x="730.28452" y="609.12" stroke="#000000" stroke-width=".6" xlink:href="#e"/><use x="761.725934" y="609.12" stroke="#000000" stroke-width=".6" xlink:href="#e"/><use x="777.425135" y="609.12" stroke="#000000" stroke-width=".6" xlink:href="#e"/><use x="793.124336" y="609.12" stroke="#000000" stroke-width=".6" xlink:href="#e"/><use x="808.823537" y="609.12" stroke="#000000" stroke-width=".6" xlink:href="#e"/><use x="840.26495" y="609.12" stroke="#000000" stroke-width=".6" xlink:href="#e"/><use x="855.964151" y="609.12" stroke="#000000" stroke-width=".6" xlink:href="#e"/><use x="871.663352" y="609.12" stroke="#000000" stroke-width=".6" xlink:href="#e"/><use x="887.405565" y="609.12" stroke="#000000" stroke-width=".6" xlink:href="#e"/><use x="918.803967" y="609.12" stroke="#000000" stroke-width=".6" xlink:href="#e"/><use x="934.503168" y="609.12" stroke="#000000" stroke-width=".6" xlink:href="#e"/><use x="950.24538" y="609.12" stroke="#000000" stroke-width=".6" xlink:href="#e"/><use x="965.944581" y="609.12" stroke="#000000" stroke-width=".6" xlink:href="#e"/><use x="997.342983" y="609.12" stroke="#000000" stroke-width=".6" xlink:href="#e"/><use x="1013.085196" y="609.12" stroke="#000000" stroke-width=".6" xlink:href="#e"/><use x="1028.784397" y="609.12" stroke="#000000" stroke-width=".6" xlink:href="#e"/><use x="1044.483598" y="609.12" stroke="#000000" stroke-width=".6" xlink:href="#e"/><use x="1075.925011" y="609.12" stroke="#000000" stroke-width=".6" xlink:href="#e"/><use x="1091.624212" y="609.12" stroke="#000000" stroke-width=".6" xlink:href="#e"/><use x="1107.323413" y="609.12" stroke="#000000" stroke-width=".6" xlink:href="#e"/><use x="1123.022614" y="609.12" stroke="#000000" stroke-width=".6" xlink:href="#e"/><g transform="translate(552.07 640.44) scale(.14 -.14)"><defs><path id="ao" transform="scale(.015625)" d="m1259 2228v-1709h1013q509 0 754 211 246 211 246 645 0 438-246 645-245 208-754 208h-1013zm0 1919v-1406h935q462 0 688 173 227 174 227 530 0 353-227 528-226 175-688 175h-935zm-631 519h1613q722 0 1112-300 391-300 391-853 0-429-200-682t-588-315q466-100 724-418 258-317 258-792 0-625-425-966-425-340-1210-340h-1675v4666z"/><path id="ad" transform="scale(.015625)" d="m1159 525v-1856h-578v4831h578v-531q182 312 458 463 277 152 661 152 638 0 1036-506 399-506 399-1331t-399-1332q-398-506-1036-506-384 0-661 152-276 152-458 464zm1957 1222q0 634-261 995t-717 361q-457 0-718-361t-261-995 261-995 718-361q456 0 717 361t261 995z"/><path id="q" transform="scale(.015625)" d="m3597 1894v-281h-2644q38-594 358-905t892-311q331 0 642 81t618 244v-544q-310-131-635-200t-659-69q-838 0-1327 487-489 488-489 1320 0 859 464 1363 464 505 1252 505 706 0 1117-455 411-454 411-1235zm-575 169q-6 471-264 752-258 282-683 282-481 0-770-272t-333-766l2050 4z"/><path id="af" transform="scale(.015625)" d="m581 3500h841l994-2344 997 2344h834v-3500h-578v2950l-966-2278h-575l-969 2278v-2950h-578v3500z"/><path id="aq" transform="scale(.015625)" d="m1181 2491q0-260 200-407 200-146 572-146h775v1103h-775q-372 0-572-144t-200-406zm-818-2491 1068 1534q-362 82-603 296-240 214-240 661 0 506 335 757 336 252 1015 252h1368v-3500h-578v1478h-715l-1032-1478h-618z"/><path id="am" transform="scale(.015625)" d="m750 794h659v-538l-512-1e3h-403l256 1e3v538z"/><path id="aa" transform="scale(.015625)" d="m581 0v3500h2469v-459h-1891v-3041h-578z"/><path id="h" transform="scale(.015625)" d="m1959 3097q-462 0-731-361t-269-989 267-989q268-361 733-361 460 0 728 362 269 363 269 988 0 622-269 986-268 364-728 364zm0 487q750 0 1178-488 429-487 429-1349 0-859-429-1349-428-489-1178-489-753 0-1180 489-426 490-426 1349 0 862 426 1349 427 488 1180 488z"/><path id="ah" transform="scale(.015625)" d="m1384 459h1669v2582h-1209v-438q0-1287-369-1975l-91-169zm-834 0q284 125 409 391 307 659 307 1988v662h2365v-3041h460v-1343h-460v884h-2837v-884h-460v1343h216z"/><path id="u" transform="scale(.015625)" d="m3907 3500h575v-3500h-575v3500zm288 84zm-1414-2546q0 281-205 428-204 147-598 147h-819v-1154h819q394 0 598 148 205 149 205 431zm-2200 2462h578v-1428h844q669 0 1030-255 361-254 361-779t-361-782q-361-256-1030-256h-1422v3500z"/></defs><use xlink:href="#ao"/><use x="68.603516" xlink:href="#ad"/><use x="132.080078" xlink:href="#q"/><use x="193.603516" xlink:href="#af"/><use x="269.042969" xlink:href="#aq"/><use x="329.199219" xlink:href="#am"/><use x="360.986328" xlink:href="#DejaVuSans-20"/><use x="392.773438" xlink:href="#aa"/><use x="445.3125" xlink:href="#h"/><use x="506.494141" xlink:href="#ah"/><use x="575.634766" xlink:href="#u"/></g><path d="m55.296 602.65h1085.2" clip-path="url(#g)" fill="none" stroke="#b0b0b0" stroke-dasharray="0.8,1.32" stroke-width=".8"/><defs><path id="ab" d="m0 0h-3.5" stroke="#000" stroke-width=".8"/></defs><use x="55.296" y="602.654211" stroke="#000000" stroke-width=".8" xlink:href="#ab"/><g transform="translate(41.934 606.45) scale(.1 -.1)"><use xlink:href="#f"/></g><path d="m55.296 473.34h1085.2" clip-path="url(#g)" fill="none" stroke="#b0b0b0" stroke-dasharray="0.8,1.32" stroke-width=".8"/><use x="55.296" y="473.338421" stroke="#000000" stroke-width=".8" xlink:href="#ab"/><g transform="translate(29.208 477.14) scale(.1 -.1)"><use xlink:href="#p"/><use x="63.623047" xlink:href="#f"/><use x="127.246094" xlink:href="#f"/></g><path d="m55.296 344.02h1085.2" clip-path="url(#g)" fill="none" stroke="#b0b0b0" stroke-dasharray="0.8,1.32" stroke-width=".8"/><use x="55.296" y="344.022632" stroke="#000000" stroke-width=".8" xlink:href="#ab"/><g transform="translate(29.208 347.82) scale(.1 -.1)"><use xlink:href="#m"/><use x="63.623047" xlink:href="#f"/><use x="127.246094" xlink:href="#f"/></g><path d="m55.296 214.71h1085.2" clip-path="url(#g)" fill="none" stroke="#b0b0b0" stroke-dasharray="0.8,1.32" stroke-width=".8"/><use x="55.296" y="214.706842" stroke="#000000" stroke-width=".8" xlink:href="#ab"/><g transform="translate(29.208 218.51) scale(.1 -.1)"><defs><path id="al" transform="scale(.015625)" d="m2597 2516q453-97 707-404 255-306 255-756 0-690-475-1069-475-378-1350-378-293 0-604 58t-642 174v609q262-153 574-231 313-78 654-78 593 0 904 234t311 681q0 413-289 645-289 233-804 233h-544v519h569q465 0 712 186t247 536q0 359-255 551-254 193-729 193-260 0-557-57-297-56-653-174v562q360 100 674 150t592 50q719 0 1137-327 419-326 419-882 0-388-222-655t-631-370z"/></defs><use xlink:href="#al"/><use x="63.623047" xlink:href="#f"/><use x="127.246094" xlink:href="#f"/></g><path d="m55.296 85.391h1085.2" clip-path="url(#g)" fill="none" stroke="#b0b0b0" stroke-dasharray="0.8,1.32" stroke-width=".8"/><use x="55.296" y="85.391053" stroke="#000000" stroke-width=".8" xlink:href="#ab"/><g transform="translate(29.208 89.19) scale(.1 -.1)"><defs><path id="az" transform="scale(.015625)" d="m2419 4116-1594-2491h1594v2491zm-166 550h794v-3041h666v-525h-666v-1100h-628v1100h-2106v609l1940 2957z"/></defs><use xlink:href="#az"/><use x="63.623047" xlink:href="#f"/><use x="127.246094" xlink:href="#f"/></g><g transform="translate(22.713 381.56) rotate(-90) scale(.12 -.12)"><defs><path id="aw" transform="scale(.015625)" d="m628 4666h631v-2307l2257 2307h809l-1803-1844 1897-2822h-688l-1618 2403-854-872v-1531h-631v4666z"/><path id="w" transform="scale(.015625)" d="m238 0v478q568 88 743 481 213 554 213 1969v572h2365v-3500h-575v3041h-1215v-347q0-1350-275-1956-294-647-1256-738z"/><path id="o" transform="scale(.015625)" d="m3578 3500v-3500h-572v2809l-1687-2809h-738v3500h572v-2803l1685 2803h740z"/><path id="ac" transform="scale(.015625)" d="m2625 0v1472h-1072q-478 0-797 297-287 269-287 844v887h575v-834q0-366 162-550 166-185 491-185h928v1569h575v-3500h-575z"/><path id="i" transform="scale(.015625)" d="m3122 3366v-538q-244 135-489 202t-495 67q-560 0-870-355-309-354-309-995t309-996q310-354 870-354 250 0 495 67t489 202v-532q-241-112-499-168-257-57-548-57-791 0-1257 497-465 497-465 1341 0 856 470 1346 471 491 1290 491 265 0 518-55 253-54 491-163z"/><path id="y" transform="scale(.015625)" d="m188 3500h3353v-459h-1394v-3041h-566v3041h-1393v459z"/><path id="t" transform="scale(.015625)" d="m1156 1613v-1154h819q394 0 600 148 206 149 206 431 0 281-206 428t-600 147h-819zm0 1428v-969h757q325 0 531 129 206 130 206 362 0 231-206 354-206 124-531 124h-757zm-575 459h1369q616 0 947-225t331-641q0-321-169-511-168-189-500-235 397-75 616-313 219-237 219-594 0-468-361-725-361-256-1030-256h-1422v3500z"/><path id="z" transform="scale(.015625)" d="m2206 1888q388-75 603-304 216-228 216-565 0-541-403-826-403-284-1147-284-250 0-514 44t-545 131v535q222-116 487-174 266-57 556-57 472 0 736 175t264 456q0 275-234 442t-662 167h-463v475h484q363 0 574 139t211 358q0 200-218 344-217 144-588 144-222 0-474-41-251-41-555-131v522q307 75 572 112 266 38 503 38 613 0 967-246 355-245 355-686 0-290-188-492-187-201-537-276z"/><path id="j" transform="scale(.015625)" d="m2194 1759q-697 0-966-159t-269-544q0-306 202-486 202-179 548-179 479 0 768 339t289 901v128h-572zm1147 238v-1997h-575v531q-197-318-491-470t-719-152q-537 0-855 302-317 302-317 808 0 590 395 890 396 300 1180 300h807v57q0 397-261 614t-733 217q-300 0-585-72-284-72-546-216v532q315 122 612 182 297 61 578 61 760 0 1135-394 375-393 375-1193z"/><path id="s" transform="scale(.015625)" d="m3603 3500v-3500h-578v3041h-1866v-3041h-578v3500h3022z"/><path id="n" transform="scale(.015625)" d="m2059-325q-243-625-475-815-231-191-618-191h-460v481h338q237 0 368 113 132 112 291 531l103 262-1415 3444h609l1094-2737 1094 2737h609l-1538-3825z"/><path id="k" transform="scale(.015625)" d="m581 3500h572v-1644l1622 1644h706l-1337-1353 1509-2147h-644l-1240 1766-616-625v-1141h-572v3500z"/></defs><use xlink:href="#aw"/><use x="70.996094" xlink:href="#h"/><use x="132.177734" xlink:href="#w"/><use x="196.09375" xlink:href="#o"/><use x="261.083984" xlink:href="#ac"/><use x="320.166016" xlink:href="#q"/><use x="381.689453" xlink:href="#i"/><use x="436.669922" xlink:href="#y"/><use x="494.921875" xlink:href="#t"/><use x="553.857422" xlink:href="#h"/><use x="615.039062" xlink:href="#DejaVuSans-20"/><use x="646.826172" xlink:href="#z"/><use x="700" xlink:href="#j"/><use x="761.279297" xlink:href="#s"/><use x="826.660156" xlink:href="#n"/><use x="885.839844" xlink:href="#i"/><use x="940.820312" xlink:href="#k"/><use x="1001.220703" xlink:href="#h"/><use x="1062.402344" xlink:href="#t"/></g><defs><path id="d" d="m0 0.75c0.1989 0 0.38968-0.079025 0.53033-0.21967s0.21967-0.33143 0.21967-0.53033-0.079025-0.38968-0.21967-0.53033-0.33143-0.21967-0.53033-0.21967-0.38968 0.079025-0.53033 0.21967-0.21967 0.33143-0.21967 0.53033 0.079025 0.38968 0.21967 0.53033 0.33143 0.21967 0.53033 0.21967z" stroke="#008000"/></defs><g clip-path="url(#g)" fill="#008000" stroke="#008000"><use x="82.927251" y="601.361053" xlink:href="#d"/><use x="97.741221" y="600.067895" xlink:href="#d"/><use x="109.452927" y="598.774737" xlink:href="#d"/><use x="122.128658" y="597.481579" xlink:href="#d"/><use x="128.963903" y="596.188421" xlink:href="#d"/><use x="129.526697" y="594.895263" xlink:href="#d"/><use x="138.068155" y="593.602105" xlink:href="#d"/><use x="143.159553" y="592.308947" xlink:href="#d"/><use x="145.874685" y="591.015789" xlink:href="#d"/><use x="147.829827" y="589.722632" xlink:href="#d"/><use x="152.781586" y="588.429474" xlink:href="#d"/><use x="154.412499" y="587.136316" xlink:href="#d"/><use x="159.4645" y="585.843158" xlink:href="#d"/><use x="173.787302" y="584.55" xlink:href="#d"/><use x="183.486398" y="583.256842" xlink:href="#d"/><use x="184.936334" y="581.963684" xlink:href="#d"/><use x="185.232068" y="580.670526" xlink:href="#d"/><use x="190.328782" y="579.377368" xlink:href="#d"/><use x="193.803843" y="578.084211" xlink:href="#d"/><use x="196.966892" y="576.791053" xlink:href="#d"/><use x="199.981282" y="575.497895" xlink:href="#d"/><use x="200.415011" y="574.204737" xlink:href="#d"/><use x="201.467121" y="572.911579" xlink:href="#d"/><use x="201.830777" y="571.618421" xlink:href="#d"/><use x="202.270002" y="570.325263" xlink:href="#d"/><use x="203.035159" y="569.032105" xlink:href="#d"/><use x="211.203702" y="567.738947" xlink:href="#d"/><use x="213.393734" y="566.445789" xlink:href="#d"/><use x="213.587405" y="565.152632" xlink:href="#d"/><use x="214.304144" y="563.859474" xlink:href="#d"/><use x="215.137492" y="562.566316" xlink:href="#d"/><use x="217.836524" y="561.273158" xlink:href="#d"/><use x="222.048008" y="559.98" xlink:href="#d"/><use x="223.008718" y="558.686842" xlink:href="#d"/><use x="227.132327" y="557.393684" xlink:href="#d"/><use x="229.467613" y="556.100526" xlink:href="#d"/><use x="230.316941" y="554.807368" xlink:href="#d"/><use x="232.256133" y="553.514211" xlink:href="#d"/><use x="240.112902" y="552.221053" xlink:href="#d"/><use x="249.326236" y="550.927895" xlink:href="#d"/><use x="249.629139" y="549.634737" xlink:href="#d"/><use x="253.356803" y="548.341579" xlink:href="#d"/><use x="260.05943" y="547.048421" xlink:href="#d"/><use x="267.683339" y="545.755263" xlink:href="#d"/><use x="272.925278" y="544.462105" xlink:href="#d"/><use x="281.676298" y="543.168947" xlink:href="#d"/><use x="286.031303" y="541.875789" xlink:href="#d"/><use x="289.068991" y="540.582632" xlink:href="#d"/><use x="291.986605" y="539.289474" xlink:href="#d"/><use x="299.59776" y="537.996316" xlink:href="#d"/><use x="301.716137" y="536.703158" xlink:href="#d"/><use x="308.381188" y="535.41" xlink:href="#d"/><use x="311.010177" y="534.116842" xlink:href="#d"/><use x="321.112595" y="532.823684" xlink:href="#d"/><use x="326.766697" y="531.530526" xlink:href="#d"/><use x="327.883294" y="530.237368" xlink:href="#d"/><use x="376.233607" y="528.944211" xlink:href="#d"/><use x="378.889508" y="527.651053" xlink:href="#d"/><use x="428.322307" y="526.357895" xlink:href="#d"/><use x="446.550167" y="525.064737" xlink:href="#d"/><use x="547.559172" y="523.771579" xlink:href="#d"/><use x="668.070283" y="522.478421" xlink:href="#d"/><use x="747.706063" y="521.185263" xlink:href="#d"/><use x="773.070339" y="519.892105" xlink:href="#d"/><use x="804.239316" y="518.598947" xlink:href="#d"/><use x="822.275446" y="517.305789" xlink:href="#d"/><use x="955.944554" y="516.012632" xlink:href="#d"/><use x="983.430671" y="514.719474" xlink:href="#d"/><use x="1073.991435" y="513.426316" xlink:href="#d"/><use x="1074.704589" y="512.133158" xlink:href="#d"/><use x="1084.828393" y="510.84" xlink:href="#d"/><use x="1095.160206" y="509.546842" xlink:href="#d"/><use x="1101.006217" y="508.253684" xlink:href="#d"/><use x="1105.432729" y="506.960526" xlink:href="#d"/><use x="1109.402362" y="505.667368" xlink:href="#d"/><use x="1110.50271" y="504.374211" xlink:href="#d"/></g><defs><path id="a" d="m0 0.75c0.1989 0 0.38968-0.079025 0.53033-0.21967s0.21967-0.33143 0.21967-0.53033-0.079025-0.38968-0.21967-0.53033-0.33143-0.21967-0.53033-0.21967-0.38968 0.079025-0.53033 0.21967-0.21967 0.33143-0.21967 0.53033 0.079025 0.38968 0.21967 0.53033 0.33143 0.21967 0.53033 0.21967z" stroke="#00f"/></defs><g clip-path="url(#g)" fill="#0000ff" stroke="#0000ff"><use x="82.393251" y="601.361053" xlink:href="#a"/><use x="83.65316" y="600.067895" xlink:href="#a"/><use x="87.526018" y="598.774737" xlink:href="#a"/><use x="89.434564" y="597.481579" xlink:href="#a"/><use x="89.830688" y="596.188421" xlink:href="#a"/><use x="91.963252" y="594.895263" xlink:href="#a"/><use x="95.074418" y="593.602105" xlink:href="#a"/><use x="98.373879" y="592.308947" xlink:href="#a"/><use x="100.777147" y="591.015789" xlink:href="#a"/><use x="101.325424" y="589.722632" xlink:href="#a"/><use x="101.958171" y="588.429474" xlink:href="#a"/><use x="103.934938" y="587.136316" xlink:href="#a"/><use x="104.418788" y="585.843158" xlink:href="#a"/><use x="104.519059" y="584.55" xlink:href="#a"/><use x="106.311205" y="583.256842" xlink:href="#a"/><use x="111.288025" y="581.963684" xlink:href="#a"/><use x="111.554995" y="580.670526" xlink:href="#a"/><use x="111.813124" y="579.377368" xlink:href="#a"/><use x="112.822132" y="578.084211" xlink:href="#a"/><use x="113.078379" y="576.791053" xlink:href="#a"/><use x="113.757662" y="575.497895" xlink:href="#a"/><use x="114.171618" y="574.204737" xlink:href="#a"/><use x="115.255836" y="572.911579" xlink:href="#a"/><use x="115.813194" y="571.618421" xlink:href="#a"/><use x="120.61967" y="570.325263" xlink:href="#a"/><use x="121.519447" y="569.032105" xlink:href="#a"/><use x="122.037258" y="567.738947" xlink:href="#a"/><use x="122.137708" y="566.445789" xlink:href="#a"/><use x="123.392121" y="565.152632" xlink:href="#a"/><use x="123.80978" y="563.859474" xlink:href="#a"/><use x="125.035668" y="562.566316" xlink:href="#a"/><use x="127.170054" y="561.273158" xlink:href="#a"/><use x="127.236364" y="559.98" xlink:href="#a"/><use x="127.512414" y="558.686842" xlink:href="#a"/><use x="127.535682" y="557.393684" xlink:href="#a"/><use x="128.63597" y="556.100526" xlink:href="#a"/><use x="129.530371" y="554.807368" xlink:href="#a"/><use x="130.799121" y="553.514211" xlink:href="#a"/><use x="131.213166" y="552.221053" xlink:href="#a"/><use x="131.670074" y="550.927895" xlink:href="#a"/><use x="132.007057" y="549.634737" xlink:href="#a"/><use x="132.288394" y="548.341579" xlink:href="#a"/><use x="132.847574" y="547.048421" xlink:href="#a"/><use x="134.654027" y="545.755263" xlink:href="#a"/><use x="134.791993" y="544.462105" xlink:href="#a"/><use x="135.134352" y="543.168947" xlink:href="#a"/><use x="135.329607" y="541.875789" xlink:href="#a"/><use x="135.385223" y="540.582632" xlink:href="#a"/><use x="135.431908" y="539.289474" xlink:href="#a"/><use x="135.569874" y="537.996316" xlink:href="#a"/><use x="136.220363" y="536.703158" xlink:href="#a"/><use x="136.906845" y="535.41" xlink:href="#a"/><use x="136.924647" y="534.116842" xlink:href="#a"/><use x="137.534006" y="532.823684" xlink:href="#a"/><use x="137.682695" y="531.530526" xlink:href="#a"/><use x="138.342234" y="530.237368" xlink:href="#a"/><use x="140.508909" y="528.944211" xlink:href="#a"/><use x="141.034068" y="527.651053" xlink:href="#a"/><use x="141.412211" y="526.357895" xlink:href="#a"/><use x="141.60397" y="525.064737" xlink:href="#a"/><use x="141.612901" y="523.771579" xlink:href="#a"/><use x="142.67203" y="522.478421" xlink:href="#a"/><use x="143.096828" y="521.185263" xlink:href="#a"/><use x="143.410394" y="519.892105" xlink:href="#a"/><use x="143.510814" y="518.598947" xlink:href="#a"/><use x="143.729396" y="517.305789" xlink:href="#a"/><use x="144.286903" y="516.012632" xlink:href="#a"/><use x="144.320804" y="514.719474" xlink:href="#a"/><use x="144.505395" y="513.426316" xlink:href="#a"/><use x="145.62017" y="512.133158" xlink:href="#a"/><use x="145.953599" y="510.84" xlink:href="#a"/><use x="146.611167" y="509.546842" xlink:href="#a"/><use x="147.043134" y="508.253684" xlink:href="#a"/><use x="147.044926" y="506.960526" xlink:href="#a"/><use x="147.148841" y="505.667368" xlink:href="#a"/><use x="147.634483" y="504.374211" xlink:href="#a"/><use x="148.202713" y="503.081053" xlink:href="#a"/><use x="148.630946" y="501.787895" xlink:href="#a"/><use x="150.138201" y="500.494737" xlink:href="#a"/><use x="150.683043" y="499.201579" xlink:href="#a"/><use x="151.202765" y="497.908421" xlink:href="#a"/><use x="151.252945" y="496.615263" xlink:href="#a"/><use x="151.512777" y="495.322105" xlink:href="#a"/><use x="151.851403" y="494.028947" xlink:href="#a"/><use x="151.862185" y="492.735789" xlink:href="#a"/><use x="152.229695" y="491.442632" xlink:href="#a"/><use x="153.14357" y="490.149474" xlink:href="#a"/><use x="153.26899" y="488.856316" xlink:href="#a"/><use x="153.629361" y="487.563158" xlink:href="#a"/><use x="153.880262" y="486.27" xlink:href="#a"/><use x="153.894449" y="484.976842" xlink:href="#a"/><use x="153.991225" y="483.683684" xlink:href="#a"/><use x="154.005563" y="482.390526" xlink:href="#a"/><use x="154.005712" y="481.097368" xlink:href="#a"/><use x="154.102428" y="479.804211" xlink:href="#a"/><use x="154.824663" y="478.511053" xlink:href="#a"/><use x="155.199251" y="477.217895" xlink:href="#a"/><use x="155.355049" y="475.924737" xlink:href="#a"/><use x="155.437487" y="474.631579" xlink:href="#a"/><use x="155.564819" y="473.338421" xlink:href="#a"/><use x="156.242191" y="472.045263" xlink:href="#a"/><use x="156.288817" y="470.752105" xlink:href="#a"/><use x="156.317461" y="469.458947" xlink:href="#a"/><use x="156.468061" y="468.165789" xlink:href="#a"/><use x="156.684821" y="466.872632" xlink:href="#a"/><use x="156.797726" y="465.579474" xlink:href="#a"/><use x="157.213594" y="464.286316" xlink:href="#a"/><use x="157.579251" y="462.993158" xlink:href="#a"/><use x="157.672443" y="461.7" xlink:href="#a"/><use x="157.973464" y="460.406842" xlink:href="#a"/><use x="157.989533" y="459.113684" xlink:href="#a"/><use x="158.188462" y="457.820526" xlink:href="#a"/><use x="158.348082" y="456.527368" xlink:href="#a"/><use x="158.589962" y="455.234211" xlink:href="#a"/><use x="158.632884" y="453.941053" xlink:href="#a"/><use x="158.903498" y="452.647895" xlink:href="#a"/><use x="159.111477" y="451.354737" xlink:href="#a"/><use x="159.181311" y="450.061579" xlink:href="#a"/><use x="159.274622" y="448.768421" xlink:href="#a"/><use x="159.351535" y="447.475263" xlink:href="#a"/><use x="159.482391" y="446.182105" xlink:href="#a"/><use x="159.51471" y="444.888947" xlink:href="#a"/><use x="159.952053" y="443.595789" xlink:href="#a"/><use x="160.2083" y="442.302632" xlink:href="#a"/><use x="160.224459" y="441.009474" xlink:href="#a"/><use x="160.613295" y="439.716316" xlink:href="#a"/><use x="160.693852" y="438.423158" xlink:href="#a"/><use x="160.724408" y="437.13" xlink:href="#a"/><use x="160.851591" y="435.836842" xlink:href="#a"/><use x="160.876681" y="434.543684" xlink:href="#a"/><use x="161.145563" y="433.250526" xlink:href="#a"/><use x="161.473436" y="431.957368" xlink:href="#a"/><use x="161.529142" y="430.664211" xlink:href="#a"/><use x="161.59351" y="429.371053" xlink:href="#a"/><use x="161.789003" y="428.077895" xlink:href="#a"/><use x="161.873114" y="426.784737" xlink:href="#a"/><use x="161.928671" y="425.491579" xlink:href="#a"/><use x="162.073805" y="424.198421" xlink:href="#a"/><use x="162.131183" y="422.905263" xlink:href="#a"/><use x="162.258486" y="421.612105" xlink:href="#a"/><use x="162.313952" y="420.318947" xlink:href="#a"/><use x="162.568467" y="419.025789" xlink:href="#a"/><use x="163.131171" y="417.732632" xlink:href="#a"/><use x="163.559584" y="416.439474" xlink:href="#a"/><use x="163.916131" y="415.146316" xlink:href="#a"/><use x="163.950272" y="413.853158" xlink:href="#a"/><use x="163.989669" y="412.56" xlink:href="#a"/><use x="164.063177" y="411.266842" xlink:href="#a"/><use x="164.168884" y="409.973684" xlink:href="#a"/><use x="164.312255" y="408.680526" xlink:href="#a"/><use x="164.869672" y="407.387368" xlink:href="#a"/><use x="165.021885" y="406.094211" xlink:href="#a"/><use x="165.409138" y="404.801053" xlink:href="#a"/><use x="166.627738" y="403.507895" xlink:href="#a"/><use x="166.862569" y="402.214737" xlink:href="#a"/><use x="168.138517" y="400.921579" xlink:href="#a"/><use x="168.638436" y="399.628421" xlink:href="#a"/><use x="168.654596" y="398.335263" xlink:href="#a"/><use x="168.686824" y="397.042105" xlink:href="#a"/><use x="169.133069" y="395.748947" xlink:href="#a"/><use x="169.514886" y="394.455789" xlink:href="#a"/><use x="169.772985" y="393.162632" xlink:href="#a"/><use x="170.165435" y="391.869474" xlink:href="#a"/><use x="170.267497" y="390.576316" xlink:href="#a"/><use x="170.513021" y="389.283158" xlink:href="#a"/><use x="170.658245" y="387.99" xlink:href="#a"/><use x="170.796181" y="386.696842" xlink:href="#a"/><use x="170.894838" y="385.403684" xlink:href="#a"/><use x="171.735415" y="384.110526" xlink:href="#a"/><use x="171.799932" y="382.817368" xlink:href="#a"/><use x="171.84823" y="381.524211" xlink:href="#a"/><use x="171.868003" y="380.231053" xlink:href="#a"/><use x="171.882281" y="378.937895" xlink:href="#a"/><use x="172.011405" y="377.644737" xlink:href="#a"/><use x="172.339308" y="376.351579" xlink:href="#a"/><use x="172.419895" y="375.058421" xlink:href="#a"/><use x="172.464758" y="373.765263" xlink:href="#a"/><use x="173.020354" y="372.472105" xlink:href="#a"/><use x="173.285472" y="371.178947" xlink:href="#a"/><use x="173.290997" y="369.885789" xlink:href="#a"/><use x="173.611732" y="368.592632" xlink:href="#a"/><use x="173.80161" y="367.299474" xlink:href="#a"/><use x="174.070432" y="366.006316" xlink:href="#a"/><use x="174.876957" y="364.713158" xlink:href="#a"/><use x="175.084876" y="363.42" xlink:href="#a"/><use x="175.427176" y="362.126842" xlink:href="#a"/><use x="176.165451" y="360.833684" xlink:href="#a"/><use x="176.375192" y="359.540526" xlink:href="#a"/><use x="177.160181" y="358.247368" xlink:href="#a"/><use x="177.215708" y="356.954211" xlink:href="#a"/><use x="177.533008" y="355.661053" xlink:href="#a"/><use x="177.710311" y="354.367895" xlink:href="#a"/><use x="177.816167" y="353.074737" xlink:href="#a"/><use x="178.242608" y="351.781579" xlink:href="#a"/><use x="178.464864" y="350.488421" xlink:href="#a"/><use x="178.923653" y="349.195263" xlink:href="#a"/><use x="178.95403" y="347.902105" xlink:href="#a"/><use x="178.957644" y="346.608947" xlink:href="#a"/><use x="179.301856" y="345.315789" xlink:href="#a"/><use x="179.633283" y="344.022632" xlink:href="#a"/><use x="179.860976" y="342.729474" xlink:href="#a"/><use x="179.882422" y="341.436316" xlink:href="#a"/><use x="179.898611" y="340.143158" xlink:href="#a"/><use x="179.968475" y="338.85" xlink:href="#a"/><use x="179.99001" y="337.556842" xlink:href="#a"/><use x="180.89134" y="336.263684" xlink:href="#a"/><use x="181.21766" y="334.970526" xlink:href="#a"/><use x="181.323277" y="333.677368" xlink:href="#a"/><use x="181.481106" y="332.384211" xlink:href="#a"/><use x="181.658439" y="331.091053" xlink:href="#a"/><use x="181.688965" y="329.797895" xlink:href="#a"/><use x="181.699718" y="328.504737" xlink:href="#a"/><use x="182.398625" y="327.211579" xlink:href="#a"/><use x="182.823423" y="325.918421" xlink:href="#a"/><use x="182.900426" y="324.625263" xlink:href="#a"/><use x="182.925486" y="323.332105" xlink:href="#a"/><use x="183.472061" y="322.038947" xlink:href="#a"/><use x="183.764151" y="320.745789" xlink:href="#a"/><use x="184.129808" y="319.452632" xlink:href="#a"/><use x="184.154898" y="318.159474" xlink:href="#a"/><use x="184.386145" y="316.866316" xlink:href="#a"/><use x="184.484713" y="315.573158" xlink:href="#a"/><use x="184.669185" y="314.28" xlink:href="#a"/><use x="184.828775" y="312.986842" xlink:href="#a"/><use x="185.318061" y="311.693684" xlink:href="#a"/><use x="185.389687" y="310.400526" xlink:href="#a"/><use x="185.499008" y="309.107368" xlink:href="#a"/><use x="186.377219" y="307.814211" xlink:href="#a"/><use x="186.438093" y="306.521053" xlink:href="#a"/><use x="186.821552" y="305.227895" xlink:href="#a"/><use x="187.097692" y="303.934737" xlink:href="#a"/><use x="187.131743" y="302.641579" xlink:href="#a"/><use x="187.188942" y="301.348421" xlink:href="#a"/><use x="187.369949" y="300.055263" xlink:href="#a"/><use x="187.506271" y="298.762105" xlink:href="#a"/><use x="187.701645" y="297.468947" xlink:href="#a"/><use x="187.778588" y="296.175789" xlink:href="#a"/><use x="187.927306" y="294.882632" xlink:href="#a"/><use x="188.273191" y="293.589474" xlink:href="#a"/><use x="188.337857" y="292.296316" xlink:href="#a"/><use x="188.500943" y="291.003158" xlink:href="#a"/><use x="188.678365" y="289.71" xlink:href="#a"/><use x="188.68183" y="288.416842" xlink:href="#a"/><use x="188.875411" y="287.123684" xlink:href="#a"/><use x="188.956058" y="285.830526" xlink:href="#a"/><use x="189.443611" y="284.537368" xlink:href="#a"/><use x="189.506277" y="283.244211" xlink:href="#a"/><use x="189.800129" y="281.951053" xlink:href="#a"/><use x="190.162202" y="280.657895" xlink:href="#a"/><use x="190.185411" y="279.364737" xlink:href="#a"/><use x="190.334189" y="278.071579" xlink:href="#a"/><use x="190.382577" y="276.778421" xlink:href="#a"/><use x="190.474066" y="275.485263" xlink:href="#a"/><use x="190.50268" y="274.192105" xlink:href="#a"/><use x="190.509789" y="272.898947" xlink:href="#a"/><use x="190.642527" y="271.605789" xlink:href="#a"/><use x="190.760839" y="270.312632" xlink:href="#a"/><use x="190.776819" y="269.019474" xlink:href="#a"/><use x="191.094089" y="267.726316" xlink:href="#a"/><use x="191.452577" y="266.433158" xlink:href="#a"/><use x="191.518917" y="265.14" xlink:href="#a"/><use x="191.68012" y="263.846842" xlink:href="#a"/><use x="191.902287" y="262.553684" xlink:href="#a"/><use x="191.930961" y="261.260526" xlink:href="#a"/><use x="192.345066" y="259.967368" xlink:href="#a"/><use x="192.420366" y="258.674211" xlink:href="#a"/><use x="192.438138" y="257.381053" xlink:href="#a"/><use x="192.45606" y="256.087895" xlink:href="#a"/><use x="192.603016" y="254.794737" xlink:href="#a"/><use x="192.696297" y="253.501579" xlink:href="#a"/><use x="192.787607" y="252.208421" xlink:href="#a"/><use x="192.938147" y="250.915263" xlink:href="#a"/><use x="193.189107" y="249.622105" xlink:href="#a"/><use x="193.208791" y="248.328947" xlink:href="#a"/><use x="193.389888" y="247.035789" xlink:href="#a"/><use x="193.624629" y="245.742632" xlink:href="#a"/><use x="193.676541" y="244.449474" xlink:href="#a"/><use x="193.750049" y="243.156316" xlink:href="#a"/><use x="193.780456" y="241.863158" xlink:href="#a"/><use x="194.311021" y="240.57" xlink:href="#a"/><use x="194.434589" y="239.276842" xlink:href="#a"/><use x="194.730353" y="237.983684" xlink:href="#a"/><use x="194.814584" y="236.690526" xlink:href="#a"/><use x="194.997323" y="235.397368" xlink:href="#a"/><use x="195.219549" y="234.104211" xlink:href="#a"/><use x="195.250165" y="232.811053" xlink:href="#a"/><use x="195.289503" y="231.517895" xlink:href="#a"/><use x="195.350376" y="230.224737" xlink:href="#a"/><use x="195.472302" y="228.931579" xlink:href="#a"/><use x="195.64611" y="227.638421" xlink:href="#a"/><use x="195.710597" y="226.345263" xlink:href="#a"/><use x="195.728519" y="225.052105" xlink:href="#a"/><use x="196.613899" y="223.758947" xlink:href="#a"/><use x="196.807391" y="222.465789" xlink:href="#a"/><use x="196.950763" y="221.172632" xlink:href="#a"/><use x="197.083531" y="219.879474" xlink:href="#a"/><use x="197.149691" y="218.586316" xlink:href="#a"/><use x="197.431147" y="217.293158" xlink:href="#a"/><use x="197.615739" y="216" xlink:href="#a"/><use x="197.957979" y="214.706842" xlink:href="#a"/><use x="198.171304" y="213.413684" xlink:href="#a"/><use x="198.219602" y="212.120526" xlink:href="#a"/><use x="198.380895" y="210.827368" xlink:href="#a"/><use x="198.416828" y="209.534211" xlink:href="#a"/><use x="198.570982" y="208.241053" xlink:href="#a"/><use x="198.5852" y="206.947895" xlink:href="#a"/><use x="198.977829" y="205.654737" xlink:href="#a"/><use x="199.081684" y="204.361579" xlink:href="#a"/><use x="199.158776" y="203.068421" xlink:href="#a"/><use x="199.194589" y="201.775263" xlink:href="#a"/><use x="199.212511" y="200.482105" xlink:href="#a"/><use x="199.327149" y="199.188947" xlink:href="#a"/><use x="199.443758" y="197.895789" xlink:href="#a"/><use x="199.449015" y="196.602632" xlink:href="#a"/><use x="199.603229" y="195.309474" xlink:href="#a"/><use x="199.676677" y="194.016316" xlink:href="#a"/><use x="199.755472" y="192.723158" xlink:href="#a"/><use x="199.775215" y="191.43" xlink:href="#a"/><use x="200.162348" y="190.136842" xlink:href="#a"/><use x="200.295027" y="188.843684" xlink:href="#a"/><use x="200.743093" y="187.550526" xlink:href="#a"/><use x="200.986825" y="186.257368" xlink:href="#a"/><use x="201.237606" y="184.964211" xlink:href="#a"/><use x="201.268073" y="183.671053" xlink:href="#a"/><use x="201.280707" y="182.377895" xlink:href="#a"/><use x="201.570916" y="181.084737" xlink:href="#a"/><use x="201.603234" y="179.791579" xlink:href="#a"/><use x="201.685732" y="178.498421" xlink:href="#a"/><use x="202.09243" y="177.205263" xlink:href="#a"/><use x="202.174959" y="175.912105" xlink:href="#a"/><use x="202.373887" y="174.618947" xlink:href="#a"/><use x="202.379323" y="173.325789" xlink:href="#a"/><use x="202.483238" y="172.032632" xlink:href="#a"/><use x="202.554804" y="170.739474" xlink:href="#a"/><use x="202.775268" y="169.446316" xlink:href="#a"/><use x="202.976078" y="168.153158" xlink:href="#a"/><use x="203.044209" y="166.86" xlink:href="#a"/><use x="203.280743" y="165.566842" xlink:href="#a"/><use x="203.418618" y="164.273684" xlink:href="#a"/><use x="203.691114" y="162.980526" xlink:href="#a"/><use x="203.710858" y="161.687368" xlink:href="#a"/><use x="203.728749" y="160.394211" xlink:href="#a"/><use x="204.002858" y="159.101053" xlink:href="#a"/><use x="204.006502" y="157.807895" xlink:href="#a"/><use x="204.603317" y="156.514737" xlink:href="#a"/><use x="204.617594" y="155.221579" xlink:href="#a"/><use x="204.649972" y="153.928421" xlink:href="#a"/><use x="204.709053" y="152.635263" xlink:href="#a"/><use x="204.766312" y="151.342105" xlink:href="#a"/><use x="204.784294" y="150.048947" xlink:href="#a"/><use x="204.906189" y="148.755789" xlink:href="#a"/><use x="205.22331" y="147.462632" xlink:href="#a"/><use x="205.391771" y="146.169474" xlink:href="#a"/><use x="205.406109" y="144.876316" xlink:href="#a"/><use x="205.703754" y="143.583158" xlink:href="#a"/><use x="205.74133" y="142.29" xlink:href="#a"/><use x="205.84163" y="140.996842" xlink:href="#a"/><use x="205.863255" y="139.703684" xlink:href="#a"/><use x="206.010211" y="138.410526" xlink:href="#a"/><use x="206.171355" y="137.117368" xlink:href="#a"/><use x="206.336262" y="135.824211" xlink:href="#a"/><use x="206.730505" y="134.531053" xlink:href="#a"/><use x="206.979703" y="133.237895" xlink:href="#a"/><use x="207.013783" y="131.944737" xlink:href="#a"/><use x="207.363282" y="130.651579" xlink:href="#a"/><use x="207.560358" y="129.358421" xlink:href="#a"/><use x="207.581774" y="128.065263" xlink:href="#a"/><use x="207.900836" y="126.772105" xlink:href="#a"/><use x="208.051406" y="125.478947" xlink:href="#a"/><use x="208.097912" y="124.185789" xlink:href="#a"/><use x="208.112369" y="122.892632" xlink:href="#a"/><use x="208.479639" y="121.599474" xlink:href="#a"/><use x="208.492214" y="120.306316" xlink:href="#a"/><use x="208.542424" y="119.013158" xlink:href="#a"/><use x="208.569277" y="117.72" xlink:href="#a"/><use x="208.693024" y="116.426842" xlink:href="#a"/><use x="209.085415" y="115.133684" xlink:href="#a"/><use x="209.108713" y="113.840526" xlink:href="#a"/><use x="209.307671" y="112.547368" xlink:href="#a"/><use x="209.381179" y="111.254211" xlink:href="#a"/><use x="209.490499" y="109.961053" xlink:href="#a"/><use x="209.578315" y="108.667895" xlink:href="#a"/><use x="209.723508" y="107.374737" xlink:href="#a"/><use x="209.895465" y="106.081579" xlink:href="#a"/><use x="210.024589" y="104.788421" xlink:href="#a"/><use x="210.194753" y="103.495263" xlink:href="#a"/><use x="210.339917" y="102.202105" xlink:href="#a"/><use x="210.343591" y="100.908947" xlink:href="#a"/><use x="210.37579" y="99.615789" xlink:href="#a"/><use x="210.454704" y="98.322632" xlink:href="#a"/><use x="210.637503" y="97.029474" xlink:href="#a"/><use x="210.696614" y="95.736316" xlink:href="#a"/><use x="210.786132" y="94.443158" xlink:href="#a"/><use x="210.915196" y="93.15" xlink:href="#a"/><use x="210.93491" y="91.856842" xlink:href="#a"/><use x="211.158988" y="90.563684" xlink:href="#a"/><use x="211.191246" y="89.270526" xlink:href="#a"/><use x="211.225267" y="87.977368" xlink:href="#a"/><use x="211.404452" y="86.684211" xlink:href="#a"/><use x="211.418759" y="85.391053" xlink:href="#a"/><use x="211.443939" y="84.097895" xlink:href="#a"/><use x="211.560339" y="82.804737" xlink:href="#a"/><use x="211.691225" y="81.511579" xlink:href="#a"/><use x="211.716345" y="80.218421" xlink:href="#a"/><use x="212.139262" y="78.925263" xlink:href="#a"/><use x="212.676846" y="77.632105" xlink:href="#a"/><use x="212.784464" y="76.338947" xlink:href="#a"/><use x="212.920637" y="75.045789" xlink:href="#a"/><use x="213.058573" y="73.752632" xlink:href="#a"/><use x="213.176974" y="72.459474" xlink:href="#a"/><use x="213.280889" y="71.166316" xlink:href="#a"/><use x="213.29884" y="69.873158" xlink:href="#a"/><use x="213.578415" y="68.58" xlink:href="#a"/><use x="213.601713" y="67.286842" xlink:href="#a"/><use x="213.662526" y="65.993684" xlink:href="#a"/><use x="213.838246" y="64.700526" xlink:href="#a"/><use x="213.902763" y="63.407368" xlink:href="#a"/><use x="213.988816" y="62.114211" xlink:href="#a"/><use x="214.139237" y="60.821053" xlink:href="#a"/><use x="214.384911" y="59.527895" xlink:href="#a"/><use x="214.424188" y="58.234737" xlink:href="#a"/><use x="214.787994" y="56.941579" xlink:href="#a"/><use x="215.07653" y="55.648421" xlink:href="#a"/><use x="215.078441" y="54.355263" xlink:href="#a"/><use x="215.11064" y="53.062105" xlink:href="#a"/><use x="215.171513" y="51.768947" xlink:href="#a"/><use x="215.280954" y="50.475789" xlink:href="#a"/><use x="215.485229" y="49.182632" xlink:href="#a"/><use x="215.667998" y="47.889474" xlink:href="#a"/><use x="215.7039" y="46.596316" xlink:href="#a"/><use x="215.712861" y="45.303158" xlink:href="#a"/><use x="215.972722" y="44.01" xlink:href="#a"/><use x="216.035328" y="42.716842" xlink:href="#a"/><use x="216.040704" y="41.423684" xlink:href="#a"/><use x="216.073053" y="40.130526" xlink:href="#a"/><use x="216.546119" y="38.837368" xlink:href="#a"/><use x="216.573091" y="37.544211" xlink:href="#a"/><use x="216.657322" y="36.251053" xlink:href="#a"/><use x="216.782683" y="34.957895" xlink:href="#a"/><use x="216.831041" y="33.664737" xlink:href="#a"/><use x="217.261305" y="32.371579" xlink:href="#a"/><use x="217.483412" y="31.078421" xlink:href="#a"/><use x="217.621377" y="29.785263" xlink:href="#a"/><use x="217.643032" y="28.492105" xlink:href="#a"/><use x="217.806028" y="27.198947" xlink:href="#a"/><use x="218.021026" y="25.905789" xlink:href="#a"/><use x="218.026492" y="24.612632" xlink:href="#a"/><use x="218.085543" y="23.319474" xlink:href="#a"/><use x="218.30072" y="22.026316" xlink:href="#a"/><use x="218.388416" y="20.733158" xlink:href="#a"/><use x="218.470944" y="19.44" xlink:href="#a"/><use x="218.481667" y="18.146842" xlink:href="#a"/><use x="218.623307" y="16.853684" xlink:href="#a"/><use x="218.682328" y="15.560526" xlink:href="#a"/><use x="218.741499" y="14.267368" xlink:href="#a"/><use x="218.755836" y="12.974211" xlink:href="#a"/><use x="219.031796" y="11.681053" xlink:href="#a"/><use x="219.069431" y="10.387895" xlink:href="#a"/><use x="219.259489" y="9.094737" xlink:href="#a"/><use x="219.350828" y="7.801579" xlink:href="#a"/><use x="219.411821" y="6.508421" xlink:href="#a"/><use x="219.680553" y="5.215263" xlink:href="#a"/><use x="219.849164" y="3.922105" xlink:href="#a"/><use x="219.888592" y="2.628947" xlink:href="#a"/><use x="219.96201" y="1.335789" xlink:href="#a"/><use x="220.155621" y="0.042632" xlink:href="#a"/><use x="220.203208" y="-1" xlink:href="#a"/></g><defs><path id="b" d="m0 0.75c0.1989 0 0.38968-0.079025 0.53033-0.21967s0.21967-0.33143 0.21967-0.53033-0.079025-0.38968-0.21967-0.53033-0.33143-0.21967-0.53033-0.21967-0.38968 0.079025-0.53033 0.21967-0.21967 0.33143-0.21967 0.53033 0.079025 0.38968 0.21967 0.53033 0.33143 0.21967 0.53033 0.21967z" stroke="#f00"/></defs><g clip-path="url(#g)" fill="#ff0000" stroke="#ff0000"><use x="85.097659" y="601.361053" xlink:href="#b"/><use x="87.705202" y="600.067895" xlink:href="#b"/><use x="88.929208" y="598.774737" xlink:href="#b"/><use x="91.192629" y="597.481579" xlink:href="#b"/><use x="91.266257" y="596.188421" xlink:href="#b"/><use x="92.515353" y="594.895263" xlink:href="#b"/><use x="93.766151" y="593.602105" xlink:href="#b"/><use x="95.004524" y="592.308947" xlink:href="#b"/><use x="95.778731" y="591.015789" xlink:href="#b"/><use x="96.015325" y="589.722632" xlink:href="#b"/><use x="96.208847" y="588.429474" xlink:href="#b"/><use x="96.305652" y="587.136316" xlink:href="#b"/><use x="96.337881" y="585.843158" xlink:href="#b"/><use x="96.380893" y="584.55" xlink:href="#b"/><use x="96.466916" y="583.256842" xlink:href="#b"/><use x="97.597879" y="581.963684" xlink:href="#b"/><use x="98.397177" y="580.670526" xlink:href="#b"/><use x="98.880996" y="579.377368" xlink:href="#b"/><use x="99.576379" y="578.084211" xlink:href="#b"/><use x="100.714332" y="576.791053" xlink:href="#b"/><use x="106.320255" y="575.497895" xlink:href="#b"/><use x="108.50297" y="574.204737" xlink:href="#b"/><use x="109.126637" y="572.911579" xlink:href="#b"/><use x="109.320218" y="571.618421" xlink:href="#b"/><use x="110.347178" y="570.325263" xlink:href="#b"/><use x="111.607057" y="569.032105" xlink:href="#b"/><use x="113.051526" y="567.738947" xlink:href="#b"/><use x="116.049757" y="566.445789" xlink:href="#b"/><use x="119.080366" y="565.152632" xlink:href="#b"/><use x="119.729004" y="563.859474" xlink:href="#b"/><use x="120.024738" y="562.566316" xlink:href="#b"/><use x="121.135898" y="561.273158" xlink:href="#b"/><use x="122.173461" y="559.98" xlink:href="#b"/><use x="123.322257" y="558.686842" xlink:href="#b"/><use x="125.367066" y="557.393684" xlink:href="#b"/><use x="126.591191" y="556.100526" xlink:href="#b"/><use x="127.512414" y="554.807368" xlink:href="#b"/><use x="129.139563" y="553.514211" xlink:href="#b"/><use x="129.782974" y="552.221053" xlink:href="#b"/><use x="129.836768" y="550.927895" xlink:href="#b"/><use x="129.953317" y="549.634737" xlink:href="#b"/><use x="130.481911" y="548.341579" xlink:href="#b"/><use x="131.985611" y="547.048421" xlink:href="#b"/><use x="132.161122" y="545.755263" xlink:href="#b"/><use x="132.612743" y="544.462105" xlink:href="#b"/><use x="132.910329" y="543.168947" xlink:href="#b"/><use x="135.693442" y="541.875789" xlink:href="#b"/><use x="137.148725" y="540.582632" xlink:href="#b"/><use x="138.259796" y="539.289474" xlink:href="#b"/><use x="139.512595" y="537.996316" xlink:href="#b"/><use x="140.161263" y="536.703158" xlink:href="#b"/><use x="141.100318" y="535.41" xlink:href="#b"/><use x="142.01261" y="534.116842" xlink:href="#b"/><use x="142.575254" y="532.823684" xlink:href="#b"/><use x="144.157779" y="531.530526" xlink:href="#b"/><use x="146.050285" y="530.237368" xlink:href="#b"/><use x="146.216985" y="528.944211" xlink:href="#b"/><use x="146.43025" y="527.651053" xlink:href="#b"/><use x="147.342482" y="526.357895" xlink:href="#b"/><use x="148.139958" y="525.064737" xlink:href="#b"/><use x="148.575449" y="523.771579" xlink:href="#b"/><use x="149.580873" y="522.478421" xlink:href="#b"/><use x="150.032464" y="521.185263" xlink:href="#b"/><use x="153.991345" y="519.892105" xlink:href="#b"/><use x="154.596971" y="518.598947" xlink:href="#b"/><use x="155.177626" y="517.305789" xlink:href="#b"/><use x="155.537937" y="516.012632" xlink:href="#b"/><use x="157.731494" y="514.719474" xlink:href="#b"/><use x="161.813944" y="513.426316" xlink:href="#b"/><use x="164.116941" y="512.133158" xlink:href="#b"/><use x="166.16175" y="510.84" xlink:href="#b"/><use x="167.258603" y="509.546842" xlink:href="#b"/><use x="168.032721" y="508.253684" xlink:href="#b"/><use x="168.77464" y="506.960526" xlink:href="#b"/><use x="168.817651" y="505.667368" xlink:href="#b"/><use x="169.672505" y="504.374211" xlink:href="#b"/><use x="169.708378" y="503.081053" xlink:href="#b"/><use x="171.224653" y="501.787895" xlink:href="#b"/><use x="171.694046" y="500.494737" xlink:href="#b"/><use x="174.758616" y="499.201579" xlink:href="#b"/><use x="176.316021" y="497.908421" xlink:href="#b"/><use x="177.464846" y="496.615263" xlink:href="#b"/><use x="178.181675" y="495.322105" xlink:href="#b"/><use x="178.97915" y="494.028947" xlink:href="#b"/><use x="182.542026" y="492.735789" xlink:href="#b"/><use x="183.800023" y="491.442632" xlink:href="#b"/><use x="183.88067" y="490.149474" xlink:href="#b"/><use x="184.034825" y="488.856316" xlink:href="#b"/><use x="185.170985" y="487.563158" xlink:href="#b"/><use x="187.099335" y="486.27" xlink:href="#b"/><use x="187.99732" y="484.976842" xlink:href="#b"/><use x="188.235556" y="483.683684" xlink:href="#b"/><use x="190.947073" y="482.390526" xlink:href="#b"/><use x="192.502745" y="481.097368" xlink:href="#b"/><use x="193.169424" y="479.804211" xlink:href="#b"/><use x="194.848695" y="478.511053" xlink:href="#b"/><use x="197.06555" y="477.217895" xlink:href="#b"/><use x="197.995584" y="475.924737" xlink:href="#b"/><use x="198.329013" y="474.631579" xlink:href="#b"/><use x="198.771643" y="473.338421" xlink:href="#b"/><use x="200.440161" y="472.045263" xlink:href="#b"/><use x="202.49402" y="470.752105" xlink:href="#b"/><use x="204.459855" y="469.458947" xlink:href="#b"/><use x="204.48853" y="468.165789" xlink:href="#b"/><use x="206.345223" y="466.872632" xlink:href="#b"/><use x="206.698246" y="465.579474" xlink:href="#b"/><use x="208.968895" y="464.286316" xlink:href="#b"/><use x="211.709117" y="462.993158" xlink:href="#b"/><use x="212.132153" y="461.7" xlink:href="#b"/><use x="214.08377" y="460.406842" xlink:href="#b"/><use x="215.418919" y="459.113684" xlink:href="#b"/><use x="215.535379" y="457.820526" xlink:href="#b"/><use x="217.14831" y="456.527368" xlink:href="#b"/><use x="217.736075" y="455.234211" xlink:href="#b"/><use x="217.743273" y="453.941053" xlink:href="#b"/><use x="222.083971" y="452.647895" xlink:href="#b"/><use x="222.979984" y="451.354737" xlink:href="#b"/><use x="223.397614" y="450.061579" xlink:href="#b"/><use x="225.610765" y="448.768421" xlink:href="#b"/><use x="226.811503" y="447.475263" xlink:href="#b"/><use x="227.053503" y="446.182105" xlink:href="#b"/><use x="228.877967" y="444.888947" xlink:href="#b"/><use x="231.032008" y="443.595789" xlink:href="#b"/><use x="231.956874" y="442.302632" xlink:href="#b"/><use x="232.544579" y="441.009474" xlink:href="#b"/><use x="233.978296" y="439.716316" xlink:href="#b"/><use x="234.897667" y="438.423158" xlink:href="#b"/><use x="235.143281" y="437.13" xlink:href="#b"/><use x="236.222063" y="435.836842" xlink:href="#b"/><use x="238.035805" y="434.543684" xlink:href="#b"/><use x="239.155806" y="433.250526" xlink:href="#b"/><use x="239.17555" y="431.957368" xlink:href="#b"/><use x="241.578788" y="430.664211" xlink:href="#b"/><use x="244.874664" y="429.371053" xlink:href="#b"/><use x="246.080659" y="428.077895" xlink:href="#b"/><use x="248.123706" y="426.784737" xlink:href="#b"/><use x="249.215183" y="425.491579" xlink:href="#b"/><use x="249.96436" y="424.198421" xlink:href="#b"/><use x="250.426674" y="422.905263" xlink:href="#b"/><use x="253.107814" y="421.612105" xlink:href="#b"/><use x="254.534213" y="420.318947" xlink:href="#b"/><use x="257.62928" y="419.025789" xlink:href="#b"/><use x="259.831827" y="417.732632" xlink:href="#b"/><use x="260.362303" y="416.439474" xlink:href="#b"/><use x="261.125847" y="415.146316" xlink:href="#b"/><use x="261.217156" y="413.853158" xlink:href="#b"/><use x="262.681429" y="412.56" xlink:href="#b"/><use x="262.939469" y="411.266842" xlink:href="#b"/><use x="266.068466" y="409.973684" xlink:href="#b"/><use x="266.875082" y="408.680526" xlink:href="#b"/><use x="266.914389" y="407.387368" xlink:href="#b"/><use x="267.754876" y="406.094211" xlink:href="#b"/><use x="269.281934" y="404.801053" xlink:href="#b"/><use x="270.366063" y="403.507895" xlink:href="#b"/><use x="273.260349" y="402.214737" xlink:href="#b"/><use x="274.516703" y="400.921579" xlink:href="#b"/><use x="275.980947" y="399.628421" xlink:href="#b"/><use x="276.262224" y="398.335263" xlink:href="#b"/><use x="280.792829" y="397.042105" xlink:href="#b"/><use x="282.348412" y="395.748947" xlink:href="#b"/><use x="283.37352" y="394.455789" xlink:href="#b"/><use x="285.201509" y="393.162632" xlink:href="#b"/><use x="286.199645" y="391.869474" xlink:href="#b"/><use x="290.013422" y="390.576316" xlink:href="#b"/><use x="292.463196" y="389.283158" xlink:href="#b"/><use x="293.117329" y="387.99" xlink:href="#b"/><use x="293.129904" y="386.696842" xlink:href="#b"/><use x="295.913107" y="385.403684" xlink:href="#b"/><use x="297.950837" y="384.110526" xlink:href="#b"/><use x="298.017087" y="382.817368" xlink:href="#b"/><use x="299.117554" y="381.524211" xlink:href="#b"/><use x="299.629989" y="380.231053" xlink:href="#b"/><use x="300.309302" y="378.937895" xlink:href="#b"/><use x="303.676655" y="377.644737" xlink:href="#b"/><use x="304.880977" y="376.351579" xlink:href="#b"/><use x="304.940208" y="375.058421" xlink:href="#b"/><use x="304.972436" y="373.765263" xlink:href="#b"/><use x="308.099821" y="372.472105" xlink:href="#b"/><use x="311.07111" y="371.178947" xlink:href="#b"/><use x="312.153596" y="369.885789" xlink:href="#b"/><use x="315.142866" y="368.592632" xlink:href="#b"/><use x="316.660874" y="367.299474" xlink:href="#b"/><use x="318.612551" y="366.006316" xlink:href="#b"/><use x="320.18056" y="364.713158" xlink:href="#b"/><use x="328.057042" y="363.42" xlink:href="#b"/><use x="329.447718" y="362.126842" xlink:href="#b"/><use x="329.779414" y="360.833684" xlink:href="#b"/><use x="330.307978" y="359.540526" xlink:href="#b"/><use x="333.051754" y="358.247368" xlink:href="#b"/><use x="339.333316" y="356.954211" xlink:href="#b"/><use x="341.904926" y="355.661053" xlink:href="#b"/><use x="343.675597" y="354.367895" xlink:href="#b"/><use x="345.779696" y="353.074737" xlink:href="#b"/><use x="345.828084" y="351.781579" xlink:href="#b"/><use x="347.92833" y="350.488421" xlink:href="#b"/><use x="350.81022" y="349.195263" xlink:href="#b"/><use x="355.437512" y="347.902105" xlink:href="#b"/><use x="357.308423" y="346.608947" xlink:href="#b"/><use x="357.632951" y="345.315789" xlink:href="#b"/><use x="359.842518" y="344.022632" xlink:href="#b"/><use x="365.640111" y="342.729474" xlink:href="#b"/><use x="367.831995" y="341.436316" xlink:href="#b"/><use x="368.410769" y="340.143158" xlink:href="#b"/><use x="370.417973" y="338.85" xlink:href="#b"/><use x="380.87873" y="337.556842" xlink:href="#b"/><use x="382.466572" y="336.263684" xlink:href="#b"/><use x="386.939799" y="334.970526" xlink:href="#b"/><use x="393.973943" y="333.677368" xlink:href="#b"/><use x="394.210626" y="332.384211" xlink:href="#b"/><use x="395.696285" y="331.091053" xlink:href="#b"/><use x="396.387964" y="329.797895" xlink:href="#b"/><use x="398.979407" y="328.504737" xlink:href="#b"/><use x="403.988456" y="327.211579" xlink:href="#b"/><use x="406.667774" y="325.918421" xlink:href="#b"/><use x="410.228709" y="324.625263" xlink:href="#b"/><use x="412.845243" y="323.332105" xlink:href="#b"/><use x="418.090855" y="322.038947" xlink:href="#b"/><use x="425.02652" y="320.745789" xlink:href="#b"/><use x="425.594631" y="319.452632" xlink:href="#b"/><use x="437.96044" y="318.159474" xlink:href="#b"/><use x="440.218544" y="316.866316" xlink:href="#b"/><use x="448.492883" y="315.573158" xlink:href="#b"/><use x="451.242065" y="314.28" xlink:href="#b"/><use x="462.66873" y="312.986842" xlink:href="#b"/><use x="465.921565" y="311.693684" xlink:href="#b"/><use x="469.01475" y="310.400526" xlink:href="#b"/><use x="470.210051" y="309.107368" xlink:href="#b"/><use x="471.95384" y="307.814211" xlink:href="#b"/><use x="473.626031" y="306.521053" xlink:href="#b"/><use x="474.025561" y="305.227895" xlink:href="#b"/><use x="477.310535" y="303.934737" xlink:href="#b"/><use x="478.602672" y="302.641579" xlink:href="#b"/><use x="479.97904" y="301.348421" xlink:href="#b"/><use x="490.486483" y="300.055263" xlink:href="#b"/><use x="514.768183" y="298.762105" xlink:href="#b"/><use x="520.684118" y="297.468947" xlink:href="#b"/><use x="521.332875" y="296.175789" xlink:href="#b"/><use x="523.085594" y="294.882632" xlink:href="#b"/><use x="527.255948" y="293.589474" xlink:href="#b"/><use x="529.696851" y="292.296316" xlink:href="#b"/><use x="530.700483" y="291.003158" xlink:href="#b"/><use x="531.352734" y="289.71" xlink:href="#b"/><use x="532.517749" y="288.416842" xlink:href="#b"/><use x="538.419197" y="287.123684" xlink:href="#b"/><use x="540.360031" y="285.830526" xlink:href="#b"/><use x="545.30286" y="284.537368" xlink:href="#b"/><use x="545.415736" y="283.244211" xlink:href="#b"/><use x="549.003612" y="281.951053" xlink:href="#b"/><use x="558.211749" y="280.657895" xlink:href="#b"/><use x="565.659819" y="279.364737" xlink:href="#b"/><use x="565.824667" y="278.071579" xlink:href="#b"/><use x="566.426798" y="276.778421" xlink:href="#b"/><use x="571.030912" y="275.485263" xlink:href="#b"/><use x="580.063269" y="274.192105" xlink:href="#b"/><use x="591.183536" y="272.898947" xlink:href="#b"/><use x="592.895006" y="271.605789" xlink:href="#b"/><use x="596.810875" y="270.312632" xlink:href="#b"/><use x="598.404093" y="269.019474" xlink:href="#b"/><use x="600.784093" y="267.726316" xlink:href="#b"/><use x="609.24843" y="266.433158" xlink:href="#b"/><use x="612.155261" y="265.14" xlink:href="#b"/><use x="614.98515" y="263.846842" xlink:href="#b"/><use x="621.841782" y="262.553684" xlink:href="#b"/><use x="630.40833" y="261.260526" xlink:href="#b"/><use x="642.327835" y="259.967368" xlink:href="#b"/><use x="645.241955" y="258.674211" xlink:href="#b"/><use x="647.324309" y="257.381053" xlink:href="#b"/><use x="647.991107" y="256.087895" xlink:href="#b"/><use x="652.772493" y="254.794737" xlink:href="#b"/><use x="657.957113" y="253.501579" xlink:href="#b"/><use x="659.396206" y="252.208421" xlink:href="#b"/><use x="666.150925" y="250.915263" xlink:href="#b"/><use x="668.516528" y="249.622105" xlink:href="#b"/><use x="671.161616" y="248.328947" xlink:href="#b"/><use x="674.876885" y="247.035789" xlink:href="#b"/><use x="677.204823" y="245.742632" xlink:href="#b"/><use x="680.172527" y="244.449474" xlink:href="#b"/><use x="685.070463" y="243.156316" xlink:href="#b"/><use x="688.921935" y="241.863158" xlink:href="#b"/><use x="689.832285" y="240.57" xlink:href="#b"/><use x="690.531252" y="239.276842" xlink:href="#b"/><use x="699.603037" y="237.983684" xlink:href="#b"/><use x="704.877263" y="236.690526" xlink:href="#b"/><use x="712.026194" y="235.397368" xlink:href="#b"/><use x="715.510216" y="234.104211" xlink:href="#b"/><use x="724.196689" y="232.811053" xlink:href="#b"/><use x="724.823881" y="231.517895" xlink:href="#b"/><use x="724.999481" y="230.224737" xlink:href="#b"/><use x="725.417111" y="228.931579" xlink:href="#b"/><use x="735.306174" y="227.638421" xlink:href="#b"/><use x="738.265037" y="226.345263" xlink:href="#b"/><use x="743.173666" y="225.052105" xlink:href="#b"/><use x="743.974785" y="223.758947" xlink:href="#b"/><use x="745.112798" y="222.465789" xlink:href="#b"/><use x="749.062748" y="221.172632" xlink:href="#b"/><use x="761.527155" y="219.879474" xlink:href="#b"/><use x="788.497104" y="218.586316" xlink:href="#b"/><use x="789.801756" y="217.293158" xlink:href="#b"/><use x="792.260581" y="216" xlink:href="#b"/><use x="807.411415" y="214.706842" xlink:href="#b"/><use x="819.551473" y="213.413684" xlink:href="#b"/><use x="831.404579" y="212.120526" xlink:href="#b"/><use x="831.920837" y="210.827368" xlink:href="#b"/><use x="831.954888" y="209.534211" xlink:href="#b"/><use x="836.635854" y="208.241053" xlink:href="#b"/><use x="843.831411" y="206.947895" xlink:href="#b"/><use x="848.458643" y="205.654737" xlink:href="#b"/><use x="849.159491" y="204.361579" xlink:href="#b"/><use x="857.252764" y="203.068421" xlink:href="#b"/><use x="859.363882" y="201.775263" xlink:href="#b"/><use x="866.627541" y="200.482105" xlink:href="#b"/><use x="880.916293" y="199.188947" xlink:href="#b"/><use x="881.504117" y="197.895789" xlink:href="#b"/><use x="889.744465" y="196.602632" xlink:href="#b"/><use x="891.45232" y="195.309474" xlink:href="#b"/><use x="897.570618" y="194.016316" xlink:href="#b"/><use x="907.596033" y="192.723158" xlink:href="#b"/><use x="910.000944" y="191.43" xlink:href="#b"/><use x="917.660637" y="190.136842" xlink:href="#b"/><use x="918.520897" y="188.843684" xlink:href="#b"/><use x="921.488602" y="187.550526" xlink:href="#b"/><use x="928.669791" y="186.257368" xlink:href="#b"/><use x="928.934969" y="184.964211" xlink:href="#b"/><use x="934.13757" y="183.671053" xlink:href="#b"/><use x="938.929858" y="182.377895" xlink:href="#b"/><use x="940.653813" y="181.084737" xlink:href="#b"/><use x="945.901218" y="179.791579" xlink:href="#b"/><use x="951.589639" y="178.498421" xlink:href="#b"/><use x="958.077149" y="177.205263" xlink:href="#b"/><use x="964.960753" y="175.912105" xlink:href="#b"/><use x="971.745878" y="174.618947" xlink:href="#b"/><use x="978.887521" y="173.325789" xlink:href="#b"/><use x="987.459416" y="172.032632" xlink:href="#b"/><use x="989.324981" y="170.739474" xlink:href="#b"/><use x="994.853811" y="169.446316" xlink:href="#b"/><use x="1007.827188" y="168.153158" xlink:href="#b"/><use x="1011.777078" y="166.86" xlink:href="#b"/><use x="1013.685654" y="165.566842" xlink:href="#b"/><use x="1019.286081" y="164.273684" xlink:href="#b"/><use x="1020.933064" y="162.980526" xlink:href="#b"/><use x="1027.331085" y="161.687368" xlink:href="#b"/><use x="1040.97111" y="160.394211" xlink:href="#b"/><use x="1041.659175" y="159.101053" xlink:href="#b"/><use x="1045.085848" y="157.807895" xlink:href="#b"/><use x="1045.989" y="156.514737" xlink:href="#b"/><use x="1048.155795" y="155.221579" xlink:href="#b"/><use x="1050.587767" y="153.928421" xlink:href="#b"/><use x="1052.700737" y="152.635263" xlink:href="#b"/><use x="1061.887249" y="151.342105" xlink:href="#b"/><use x="1063.432049" y="150.048947" xlink:href="#b"/><use x="1064.460771" y="148.755789" xlink:href="#b"/><use x="1066.453668" y="147.462632" xlink:href="#b"/><use x="1068.177593" y="146.169474" xlink:href="#b"/><use x="1068.405195" y="144.876316" xlink:href="#b"/><use x="1071.15614" y="143.583158" xlink:href="#b"/><use x="1071.159694" y="142.29" xlink:href="#b"/><use x="1075.229808" y="140.996842" xlink:href="#b"/><use x="1077.272735" y="139.703684" xlink:href="#b"/><use x="1081.708297" y="138.410526" xlink:href="#b"/><use x="1082.892876" y="137.117368" xlink:href="#b"/><use x="1085.142109" y="135.824211" xlink:href="#b"/><use x="1085.516608" y="134.531053" xlink:href="#b"/><use x="1086.244279" y="133.237895" xlink:href="#b"/><use x="1086.464772" y="131.944737" xlink:href="#b"/><use x="1088.54172" y="130.651579" xlink:href="#b"/><use x="1090.896601" y="129.358421" xlink:href="#b"/><use x="1091.543655" y="128.065263" xlink:href="#b"/><use x="1093.380515" y="126.772105" xlink:href="#b"/><use x="1097.314276" y="125.478947" xlink:href="#b"/><use x="1098.622662" y="124.185789" xlink:href="#b"/><use x="1103.83963" y="122.892632" xlink:href="#b"/><use x="1106.563633" y="121.599474" xlink:href="#b"/><use x="1106.852198" y="120.306316" xlink:href="#b"/><use x="1107.708724" y="119.013158" xlink:href="#b"/><use x="1107.751796" y="117.72" xlink:href="#b"/><use x="1110.121043" y="116.426842" xlink:href="#b"/><use x="1110.812781" y="115.133684" xlink:href="#b"/><use x="1112.035055" y="113.840526" xlink:href="#b"/></g><defs><path id="c" d="m0 1.5c0.3978 0 0.77937-0.15805 1.0607-0.43934 0.28129-0.28129 0.43934-0.66286 0.43934-1.0607s-0.15805-0.77937-0.43934-1.0607c-0.28129-0.28129-0.66286-0.43934-1.0607-0.43934s-0.77937 0.15805-1.0607 0.43934c-0.28129 0.28129-0.43934 0.66286-0.43934 1.0607s0.15805 0.77937 0.43934 1.0607c0.28129 0.28129 0.66286 0.43934 1.0607 0.43934z" stroke="#000"/></defs><g clip-path="url(#g)" stroke="#000000"><use x="101.929377" y="601.361053" xlink:href="#c"/><use x="104.510068" y="600.067895" xlink:href="#c"/><use x="112.811289" y="598.774737" xlink:href="#c"/><use x="113.757542" y="597.481579" xlink:href="#c"/><use x="120.596372" y="596.188421" xlink:href="#c"/><use x="122.101775" y="594.895263" xlink:href="#c"/><use x="135.134263" y="593.602105" xlink:href="#c"/><use x="136.897735" y="592.308947" xlink:href="#c"/><use x="150.102268" y="591.015789" xlink:href="#c"/><use x="153.844269" y="589.722632" xlink:href="#c"/><use x="159.26372" y="588.429474" xlink:href="#c"/><use x="161.500318" y="587.136316" xlink:href="#c"/><use x="162.102479" y="585.843158" xlink:href="#c"/><use x="168.640229" y="584.55" xlink:href="#c"/><use x="177.156508" y="583.256842" xlink:href="#c"/><use x="178.919979" y="581.963684" xlink:href="#c"/><use x="181.672716" y="580.670526" xlink:href="#c"/><use x="184.382441" y="579.377368" xlink:href="#c"/><use x="188.941661" y="578.084211" xlink:href="#c"/><use x="189.414788" y="576.791053" xlink:href="#c"/><use x="191.092237" y="575.497895" xlink:href="#c"/><use x="193.715939" y="574.204737" xlink:href="#c"/><use x="194.705203" y="572.911579" xlink:href="#c"/><use x="194.791226" y="571.618421" xlink:href="#c"/><use x="198.189136" y="570.325263" xlink:href="#c"/><use x="199.565504" y="569.032105" xlink:href="#c"/><use x="201.673068" y="567.738947" xlink:href="#c"/><use x="202.533298" y="566.445789" xlink:href="#c"/><use x="202.963413" y="565.152632" xlink:href="#c"/><use x="204.683874" y="563.859474" xlink:href="#c"/><use x="204.769897" y="562.566316" xlink:href="#c"/><use x="205.71615" y="561.273158" xlink:href="#c"/><use x="208.038771" y="559.98" xlink:href="#c"/><use x="209.71622" y="558.686842" xlink:href="#c"/><use x="209.888266" y="557.393684" xlink:href="#c"/><use x="210.619462" y="556.100526" xlink:href="#c"/><use x="211.178612" y="554.807368" xlink:href="#c"/><use x="213.157141" y="553.514211" xlink:href="#c"/><use x="215.69482" y="552.221053" xlink:href="#c"/><use x="218.275511" y="550.927895" xlink:href="#c"/><use x="219.651879" y="549.634737" xlink:href="#c"/><use x="221.372339" y="548.341579" xlink:href="#c"/><use x="221.67342" y="547.048421" xlink:href="#c"/><use x="221.9745" y="545.755263" xlink:href="#c"/><use x="223.135811" y="544.462105" xlink:href="#c"/><use x="224.51218" y="543.168947" xlink:href="#c"/><use x="224.684226" y="541.875789" xlink:href="#c"/><use x="225.157352" y="540.582632" xlink:href="#c"/><use x="227.09287" y="539.289474" xlink:href="#c"/><use x="229.0714" y="537.996316" xlink:href="#c"/><use x="230.490779" y="536.703158" xlink:href="#c"/><use x="232.125217" y="535.41" xlink:href="#c"/><use x="232.598343" y="534.116842" xlink:href="#c"/><use x="232.856412" y="532.823684" xlink:href="#c"/><use x="233.716643" y="531.530526" xlink:href="#c"/><use x="234.533861" y="530.237368" xlink:href="#c"/><use x="234.619884" y="528.944211" xlink:href="#c"/><use x="235.91023" y="527.651053" xlink:href="#c"/><use x="236.125287" y="526.357895" xlink:href="#c"/><use x="236.684437" y="525.064737" xlink:href="#c"/><use x="238.318874" y="523.771579" xlink:href="#c"/><use x="240.899565" y="522.478421" xlink:href="#c"/><use x="242.447979" y="521.185263" xlink:href="#c"/><use x="243.523267" y="519.892105" xlink:href="#c"/><use x="245.8889" y="518.598947" xlink:href="#c"/><use x="245.974923" y="517.305789" xlink:href="#c"/><use x="247.437314" y="516.012632" xlink:href="#c"/><use x="254.319156" y="514.719474" xlink:href="#c"/><use x="256.684789" y="513.426316" xlink:href="#c"/><use x="256.770812" y="512.133158" xlink:href="#c"/><use x="257.846099" y="510.84" xlink:href="#c"/><use x="258.534284" y="509.546842" xlink:href="#c"/><use x="259.179456" y="508.253684" xlink:href="#c"/><use x="259.394514" y="506.960526" xlink:href="#c"/><use x="261.373043" y="505.667368" xlink:href="#c"/><use x="261.631112" y="504.374211" xlink:href="#c"/><use x="262.663389" y="503.081053" xlink:href="#c"/><use x="264.899987" y="501.787895" xlink:href="#c"/><use x="265.115045" y="500.494737" xlink:href="#c"/><use x="266.362378" y="499.201579" xlink:href="#c"/><use x="267.308632" y="497.908421" xlink:href="#c"/><use x="267.437666" y="496.615263" xlink:href="#c"/><use x="267.652724" y="495.322105" xlink:href="#c"/><use x="268.383919" y="494.028947" xlink:href="#c"/><use x="272.642059" y="492.735789" xlink:href="#c"/><use x="272.900128" y="491.442632" xlink:href="#c"/><use x="278.878728" y="490.149474" xlink:href="#c"/><use x="279.007762" y="488.856316" xlink:href="#c"/><use x="284.513235" y="487.563158" xlink:href="#c"/><use x="285.631535" y="486.27" xlink:href="#c"/><use x="286.018638" y="484.976842" xlink:href="#c"/><use x="287.265972" y="483.683684" xlink:href="#c"/><use x="288.169214" y="482.390526" xlink:href="#c"/><use x="291.696157" y="481.097368" xlink:href="#c"/><use x="291.954227" y="479.804211" xlink:href="#c"/><use x="293.459629" y="478.511053" xlink:href="#c"/><use x="296.3414" y="477.217895" xlink:href="#c"/><use x="296.728504" y="475.924737" xlink:href="#c"/><use x="296.814527" y="474.631579" xlink:href="#c"/><use x="299.266183" y="473.338421" xlink:href="#c"/><use x="299.567264" y="472.045263" xlink:href="#c"/><use x="300.90062" y="470.752105" xlink:href="#c"/><use x="302.01892" y="469.458947" xlink:href="#c"/><use x="307.395358" y="468.165789" xlink:href="#c"/><use x="307.99752" y="466.872632" xlink:href="#c"/><use x="308.341612" y="465.579474" xlink:href="#c"/><use x="308.771727" y="464.286316" xlink:href="#c"/><use x="309.804003" y="462.993158" xlink:href="#c"/><use x="310.57821" y="461.7" xlink:href="#c"/><use x="310.664233" y="460.406842" xlink:href="#c"/><use x="311.008325" y="459.113684" xlink:href="#c"/><use x="313.847085" y="457.820526" xlink:href="#c"/><use x="317.546075" y="456.527368" xlink:href="#c"/><use x="320.771938" y="455.234211" xlink:href="#c"/><use x="322.148306" y="453.941053" xlink:href="#c"/><use x="323.782744" y="452.647895" xlink:href="#c"/><use x="325.933319" y="451.354737" xlink:href="#c"/><use x="328.729067" y="450.061579" xlink:href="#c"/><use x="330.492539" y="448.768421" xlink:href="#c"/><use x="330.664585" y="447.475263" xlink:href="#c"/><use x="331.137712" y="446.182105" xlink:href="#c"/><use x="331.309758" y="444.888947" xlink:href="#c"/><use x="334.664655" y="443.595789" xlink:href="#c"/><use x="335.008748" y="442.302632" xlink:href="#c"/><use x="343.91213" y="441.009474" xlink:href="#c"/><use x="350.449879" y="439.716316" xlink:href="#c"/><use x="352.299374" y="438.423158" xlink:href="#c"/><use x="360.041446" y="437.13" xlink:href="#c"/><use x="360.299515" y="435.836842" xlink:href="#c"/><use x="363.181286" y="434.543684" xlink:href="#c"/><use x="364.041517" y="433.250526" xlink:href="#c"/><use x="368.514714" y="431.957368" xlink:href="#c"/><use x="369.54699" y="430.664211" xlink:href="#c"/><use x="378.450372" y="429.371053" xlink:href="#c"/><use x="378.880487" y="428.077895" xlink:href="#c"/><use x="383.095615" y="426.784737" xlink:href="#c"/><use x="394.6227" y="425.491579" xlink:href="#c"/><use x="395.310884" y="424.198421" xlink:href="#c"/><use x="396.04208" y="422.905263" xlink:href="#c"/><use x="406.364842" y="421.612105" xlink:href="#c"/><use x="409.805763" y="420.318947" xlink:href="#c"/><use x="409.977809" y="419.025789" xlink:href="#c"/><use x="411.182131" y="417.732632" xlink:href="#c"/><use x="411.397189" y="416.439474" xlink:href="#c"/><use x="413.375718" y="415.146316" xlink:href="#c"/><use x="447.225776" y="413.853158" xlink:href="#c"/><use x="460.516332" y="412.56" xlink:href="#c"/><use x="460.73139" y="411.266842" xlink:href="#c"/><use x="482.409191" y="409.973684" xlink:href="#c"/><use x="485.161927" y="408.680526" xlink:href="#c"/><use x="485.463008" y="407.387368" xlink:href="#c"/><use x="485.678066" y="406.094211" xlink:href="#c"/><use x="486.710342" y="404.801053" xlink:href="#c"/><use x="509.635476" y="403.507895" xlink:href="#c"/><use x="509.893545" y="402.214737" xlink:href="#c"/><use x="510.624741" y="400.921579" xlink:href="#c"/><use x="515.312996" y="399.628421" xlink:href="#c"/><use x="518.194767" y="398.335263" xlink:href="#c"/><use x="520.216308" y="397.042105" xlink:href="#c"/><use x="565.550439" y="395.748947" xlink:href="#c"/><use x="565.765496" y="394.455789" xlink:href="#c"/><use x="578.496903" y="393.162632" xlink:href="#c"/><use x="585.679825" y="391.869474" xlink:href="#c"/><use x="587.572332" y="390.576316" xlink:href="#c"/><use x="589.894953" y="389.283158" xlink:href="#c"/><use x="600.862888" y="387.99" xlink:href="#c"/><use x="629.12145" y="386.696842" xlink:href="#c"/><use x="631.831175" y="385.403684" xlink:href="#c"/><use x="652.77778" y="384.110526" xlink:href="#c"/><use x="664.821003" y="382.817368" xlink:href="#c"/><use x="676.606156" y="381.524211" xlink:href="#c"/><use x="681.853561" y="380.231053" xlink:href="#c"/><use x="685.165447" y="378.937895" xlink:href="#c"/><use x="696.520485" y="377.644737" xlink:href="#c"/><use x="697.681796" y="376.351579" xlink:href="#c"/><use x="709.036835" y="375.058421" xlink:href="#c"/><use x="711.230422" y="373.765263" xlink:href="#c"/><use x="714.241227" y="372.472105" xlink:href="#c"/><use x="714.843388" y="371.178947" xlink:href="#c"/><use x="722.456426" y="369.885789" xlink:href="#c"/><use x="727.316726" y="368.592632" xlink:href="#c"/><use x="729.381279" y="367.299474" xlink:href="#c"/><use x="730.370543" y="366.006316" xlink:href="#c"/><use x="731.875946" y="364.713158" xlink:href="#c"/><use x="765.855039" y="363.42" xlink:href="#c"/><use x="769.468005" y="362.126842" xlink:href="#c"/><use x="771.145454" y="360.833684" xlink:href="#c"/><use x="785.296241" y="359.540526" xlink:href="#c"/><use x="789.855461" y="358.247368" xlink:href="#c"/><use x="798.629809" y="356.954211" xlink:href="#c"/><use x="799.662085" y="355.661053" xlink:href="#c"/><use x="800.006177" y="354.367895" xlink:href="#c"/><use x="801.2105" y="353.074737" xlink:href="#c"/><use x="803.275052" y="351.781579" xlink:href="#c"/><use x="804.694432" y="350.488421" xlink:href="#c"/><use x="811.447239" y="349.195263" xlink:href="#c"/><use x="818.071011" y="347.902105" xlink:href="#c"/><use x="825.038876" y="346.608947" xlink:href="#c"/><use x="834.157316" y="345.315789" xlink:href="#c"/><use x="837.98534" y="344.022632" xlink:href="#c"/><use x="841.039157" y="342.729474" xlink:href="#c"/><use x="853.08238" y="341.436316" xlink:href="#c"/><use x="857.985692" y="340.143158" xlink:href="#c"/><use x="865.211626" y="338.85" xlink:href="#c"/><use x="866.975098" y="337.556842" xlink:href="#c"/><use x="867.534247" y="336.263684" xlink:href="#c"/><use x="868.695558" y="334.970526" xlink:href="#c"/><use x="884.222713" y="333.677368" xlink:href="#c"/><use x="884.351747" y="332.384211" xlink:href="#c"/><use x="890.201313" y="331.091053" xlink:href="#c"/><use x="893.126095" y="329.797895" xlink:href="#c"/><use x="894.631498" y="328.504737" xlink:href="#c"/><use x="899.878902" y="327.211579" xlink:href="#c"/><use x="907.879043" y="325.918421" xlink:href="#c"/><use x="909.083365" y="324.625263" xlink:href="#c"/><use x="914.846908" y="323.332105" xlink:href="#c"/><use x="927.320246" y="322.038947" xlink:href="#c"/><use x="928.094453" y="320.745789" xlink:href="#c"/><use x="929.642867" y="319.452632" xlink:href="#c"/><use x="932.954753" y="318.159474" xlink:href="#c"/><use x="952.008852" y="316.866316" xlink:href="#c"/><use x="960.955246" y="315.573158" xlink:href="#c"/><use x="963.492925" y="314.28" xlink:href="#c"/><use x="964.052075" y="312.986842" xlink:href="#c"/><use x="964.611224" y="311.693684" xlink:href="#c"/><use x="965.385431" y="310.400526" xlink:href="#c"/><use x="969.90164" y="309.107368" xlink:href="#c"/><use x="975.579159" y="307.814211" xlink:href="#c"/><use x="978.632976" y="306.521053" xlink:href="#c"/><use x="980.396448" y="305.227895" xlink:href="#c"/><use x="983.407254" y="303.934737" xlink:href="#c"/><use x="984.697599" y="302.641579" xlink:href="#c"/><use x="985.428795" y="301.348421" xlink:href="#c"/><use x="996.095649" y="300.055263" xlink:href="#c"/><use x="1000.482823" y="298.762105" xlink:href="#c"/><use x="1008.138872" y="297.468947" xlink:href="#c"/><use x="1010.891609" y="296.175789" xlink:href="#c"/><use x="1030.332811" y="294.882632" xlink:href="#c"/><use x="1033.386628" y="293.589474" xlink:href="#c"/><use x="1034.117824" y="292.296316" xlink:href="#c"/><use x="1034.762996" y="291.003158" xlink:href="#c"/><use x="1038.375963" y="289.71" xlink:href="#c"/><use x="1041.343757" y="288.416842" xlink:href="#c"/><use x="1043.40831" y="287.123684" xlink:href="#c"/><use x="1046.720196" y="285.830526" xlink:href="#c"/><use x="1052.784819" y="284.537368" xlink:href="#c"/><use x="1053.171922" y="283.244211" xlink:href="#c"/><use x="1061.903259" y="281.951053" xlink:href="#c"/><use x="1068.7851" y="280.657895" xlink:href="#c"/><use x="1068.957146" y="279.364737" xlink:href="#c"/><use x="1069.258227" y="278.071579" xlink:href="#c"/><use x="1074.247562" y="276.778421" xlink:href="#c"/><use x="1074.677677" y="275.485263" xlink:href="#c"/><use x="1088.312326" y="274.192105" xlink:href="#c"/><use x="1089.989775" y="272.898947" xlink:href="#c"/><use x="1091.323131" y="271.605789" xlink:href="#c"/><use x="1099.280261" y="270.312632" xlink:href="#c"/><use x="1100.871687" y="269.019474" xlink:href="#c"/><use x="1105.344884" y="267.726316" xlink:href="#c"/><use x="1106.420171" y="266.433158" xlink:href="#c"/><use x="1111.753598" y="265.14" xlink:href="#c"/></g><path d="m55.296 609.12v-589.68" fill="none" stroke="#000" stroke-linecap="square" stroke-width=".8"/><path d="m1140.5 609.12v-589.68" fill="none" stroke="#000" stroke-linecap="square" stroke-width=".8"/><path d="m55.296 609.12h1085.2" fill="none" stroke="#000" stroke-linecap="square" stroke-width=".8"/><path d="m55.296 19.44h1085.2" fill="none" stroke="#000" stroke-linecap="square" stroke-width=".8"/><g transform="translate(163.21 13.44) scale(.12 -.12)"><defs><path id="as" transform="scale(.015625)" d="m1259 4147v-1753h794q441 0 681 228 241 228 241 650 0 419-241 647-240 228-681 228h-794zm-631 519h1425q785 0 1186-355 402-355 402-1039 0-691-402-1044-401-353-1186-353h-794v-1875h-631v4666z"/><path id="ae" transform="scale(.015625)" d="m1991 3584q750 0 1178-488 428-487 428-1349 0-859-428-1349-428-489-1178-489-753 0-1169 475t-438 1363l-18 716q-16 371-16 500 0 500 181 868 285 578 777 828t1317 257q381 3 550 56l159-456q-153-63-293-66l-782-53q-393-28-631-166-622-365-681-843l-22-175q406 371 1066 371zm0-487q-463 0-732-361-268-361-268-989t267-989 733-361q459 0 728 362 269 363 269 988 0 622-269 986t-728 364z"/><path id="ag" transform="scale(.015625)" d="m3578 3500v-3500h-572v2809l-1687-2809h-738v3500h572v-2803l1685 2803h740zm-2476 1333h369q34-234 185-352 152-117 424-117 269 0 419 116t190 353h369q-31-447-278-672t-700-225-700 225-278 672z"/><path id="ap" transform="scale(.015625)" d="m684 794h660v-794h-660v794z"/><path id="an" transform="scale(.015625)" d="m2781 1038q0 281-205 428-204 147-598 147h-819v-1154h819q394 0 598 148 205 149 205 431zm-2200 2462h578v-1428h844q669 0 1030-255 361-254 361-779t-361-782q-361-256-1030-256h-1422v3500z"/><path id="v" transform="scale(.015625)" d="m581 3500h578v-1428h1866v1428h578v-3500h-578v1613h-1866v-1613h-578v3500z"/><path id="ar" transform="scale(.015625)" d="m3513 3500-1266-1703 1331-1797h-678l-1019 1375-1018-1375h-679l1360 1831-1244 1669h678l928-1247 928 1247h679z"/><path id="av" transform="scale(.015625)" d="m628 4666h941l1190-3175 1197 3175h941v-4666h-616v4097l-1203-3200h-634l-1203 3200v-4097h-613v4666z"/></defs><use xlink:href="#as"/><use x="60.302734" xlink:href="#h"/><use x="121.484375" xlink:href="#i"/><use x="176.464844" xlink:href="#y"/><use x="234.716797" xlink:href="#DejaVuSans-20"/><use x="266.503906" xlink:href="#ac"/><use x="325.585938" xlink:href="#o"/><use x="390.576172" xlink:href="#i"/><use x="445.556641" xlink:href="#w"/><use x="509.472656" xlink:href="#j"/><use x="570.751953" xlink:href="#DejaVuSans-20"/><use x="602.539062" xlink:href="#z"/><use x="655.712891" xlink:href="#j"/><use x="716.992188" xlink:href="#s"/><use x="782.373047" xlink:href="#n"/><use x="841.552734" xlink:href="#i"/><use x="896.533203" xlink:href="#k"/><use x="956.933594" xlink:href="#h"/><use x="1018.115234" xlink:href="#t"/><use x="1077.050781" xlink:href="#DejaVuSans-20"/><use x="1108.837891" xlink:href="#t"/><use x="1167.773438" xlink:href="#DejaVuSans-20"/><use x="1199.560547" xlink:href="#aa"/><use x="1252.099609" xlink:href="#w"/><use x="1316.015625" xlink:href="#n"/><use x="1375.195312" xlink:href="#ae"/><use x="1436.865234" xlink:href="#h"/><use x="1498.046875" xlink:href="#k"/><use x="1558.447266" xlink:href="#o"/><use x="1623.4375" xlink:href="#ag"/><use x="1688.427734" xlink:href="#DejaVuSans-20"/><use x="1720.214844" xlink:href="#k"/><use x="1780.615234" xlink:href="#h"/><use x="1841.796875" xlink:href="#i"/><use x="1896.777344" xlink:href="#af"/><use x="1972.216797" xlink:href="#h"/><use x="2033.398438" xlink:href="#i"/><use x="2088.378906" xlink:href="#ap"/><use x="2120.166016" xlink:href="#DejaVuSans-20"/><use x="2151.953125" xlink:href="#ao"/><use x="2220.556641" xlink:href="#i"/><use x="2275.537109" xlink:href="#q"/><use x="2337.060547" xlink:href="#aa"/><use x="2389.599609" xlink:href="#h"/><use x="2450.78125" xlink:href="#DejaVuSans-20"/><use x="2482.568359" xlink:href="#aj"/><use x="2546.191406" xlink:href="#f"/><use x="2609.814453" xlink:href="#m"/><use x="2673.4375" xlink:href="#ai"/><use x="2737.060547" xlink:href="#DejaVuSans-20"/><use x="2768.847656" xlink:href="#h"/><use x="2830.029297" xlink:href="#ad"/><use x="2893.505859" xlink:href="#ae"/><use x="2955.175781" xlink:href="#o"/><use x="3020.166016" xlink:href="#y"/><use x="3078.417969" xlink:href="#j"/><use x="3139.697266" xlink:href="#w"/><use x="3203.613281" xlink:href="#an"/><use x="3262.548828" xlink:href="#v"/><use x="3327.929688" xlink:href="#u"/><use x="3406.884766" xlink:href="#ar"/><use x="3466.064453" xlink:href="#DejaVuSans-20"/><use x="3497.851562" xlink:href="#z"/><use x="3551.025391" xlink:href="#j"/><use x="3612.304688" xlink:href="#s"/><use x="3677.685547" xlink:href="#n"/><use x="3736.865234" xlink:href="#i"/><use x="3791.845703" xlink:href="#k"/><use x="3852.246094" xlink:href="#h"/><use x="3913.427734" xlink:href="#t"/><use x="3972.363281" xlink:href="#am"/><use x="4004.150391" xlink:href="#DejaVuSans-20"/><use x="4035.9375" xlink:href="#al"/><use x="4099.560547" xlink:href="#ak"/><use x="4163.183594" xlink:href="#ai"/><use x="4226.806641" xlink:href="#DejaVuSans-20"/><use x="4258.59375" xlink:href="#v"/><use x="4323.974609" xlink:href="#q"/><use x="4385.498047" xlink:href="#n"/><use x="4444.677734" xlink:href="#ah"/><use x="4513.818359" xlink:href="#j"/><use x="4575.097656" xlink:href="#ac"/><use x="4634.179688" xlink:href="#am"/><use x="4665.966797" xlink:href="#DejaVuSans-20"/><use x="4697.753906" xlink:href="#m"/><use x="4761.376953" xlink:href="#aj"/><use x="4825" xlink:href="#p"/><use x="4888.623047" xlink:href="#DejaVuSans-20"/><use x="4920.410156" xlink:href="#z"/><use x="4973.583984" xlink:href="#j"/><use x="5034.863281" xlink:href="#s"/><use x="5100.244141" xlink:href="#n"/><use x="5159.423828" xlink:href="#i"/><use x="5214.404297" xlink:href="#k"/><use x="5274.804688" xlink:href="#h"/><use x="5335.986328" xlink:href="#t"/><use x="5394.921875" xlink:href="#DejaVuSans-20"/><use x="5426.708984" xlink:href="#t"/><use x="5485.644531" xlink:href="#DejaVuSans-20"/><use x="5517.431641" xlink:href="#aa"/><use x="5569.970703" xlink:href="#w"/><use x="5633.886719" xlink:href="#n"/><use x="5693.066406" xlink:href="#ae"/><use x="5754.736328" xlink:href="#h"/><use x="5815.917969" xlink:href="#k"/><use x="5876.318359" xlink:href="#o"/><use x="5941.308594" xlink:href="#ag"/><use x="6006.298828" xlink:href="#DejaVuSans-20"/><use x="6038.085938" xlink:href="#k"/><use x="6098.486328" xlink:href="#h"/><use x="6159.667969" xlink:href="#i"/><use x="6214.648438" xlink:href="#af"/><use x="6290.087891" xlink:href="#h"/><use x="6351.269531" xlink:href="#i"/><use x="6406.25" xlink:href="#ap"/><use x="6438.037109" xlink:href="#DejaVuSans-20"/><use x="6469.824219" xlink:href="#av"/><use x="6556.103516" xlink:href="#j"/><use x="6617.382812" xlink:href="#ag"/><use x="6682.373047" xlink:href="#DejaVuSans-20"/><use x="6714.160156" xlink:href="#m"/><use x="6777.783203" xlink:href="#f"/><use x="6841.40625" xlink:href="#m"/><use x="6905.029297" xlink:href="#al"/><use x="6968.652344" xlink:href="#DejaVuSans-20"/><use x="7000.439453" xlink:href="#aa"/><use x="7052.978516" xlink:href="#h"/><use x="7114.160156" xlink:href="#ah"/><use x="7183.300781" xlink:href="#j"/></g><path d="m867.37 106.61h264.01q2.6 0 2.6-2.6v-75.469q0-2.6-2.6-2.6h-264.01q-2.6 0-2.6 2.6v75.469q0 2.6 2.6 2.6z" fill="#fff" opacity=".8" stroke="#ccc"/><use x="882.96625" y="36.689375" fill="#0000ff" stroke="#0000ff" xlink:href="#a"/><g transform="translate(906.37 41.239) scale(.13 -.13)"><defs><path id="at" transform="scale(.015625)" d="m2522 4238q-688 0-1093-513-404-512-404-1397 0-881 404-1394 405-512 1093-512 687 0 1089 512 402 513 402 1394 0 885-402 1397-402 513-1089 513zm0 512q981 0 1568-658 588-658 588-1764 0-1103-588-1761-587-658-1568-658-984 0-1574 656-589 657-589 1763t589 1764q590 658 1574 658z"/></defs><use xlink:href="#at"/><use x="78.710938" xlink:href="#ad"/><use x="142.1875" xlink:href="#ae"/><use x="203.857422" xlink:href="#o"/><use x="268.847656" xlink:href="#y"/><use x="327.099609" xlink:href="#j"/><use x="388.378906" xlink:href="#w"/><use x="452.294922" xlink:href="#an"/><use x="511.230469" xlink:href="#v"/><use x="576.611328" xlink:href="#u"/><use x="655.566406" xlink:href="#q"/><use x="717.089844" xlink:href="#DejaVuSans-20"/><use x="748.876953" xlink:href="#ad"/><use x="812.353516" xlink:href="#j"/><use x="873.632812" xlink:href="#k"/><use x="934.033203" xlink:href="#q"/><use x="995.556641" xlink:href="#y"/><use x="1053.808594" xlink:href="#v"/><use x="1119.189453" xlink:href="#u"/><use x="1198.144531" xlink:href="#q"/><use x="1259.667969" xlink:href="#DejaVuSans-20"/><use x="1291.455078" xlink:href="#z"/><use x="1344.628906" xlink:href="#j"/><use x="1405.908203" xlink:href="#s"/><use x="1471.289062" xlink:href="#n"/><use x="1530.46875" xlink:href="#i"/><use x="1585.449219" xlink:href="#k"/><use x="1645.849609" xlink:href="#o"/></g><use x="882.96625" y="55.770938" fill="#ff0000" stroke="#ff0000" xlink:href="#b"/><g transform="translate(906.37 60.321) scale(.13 -.13)"><defs><path id="au" transform="scale(.015625)" d="m628 4666h631v-1913h2294v1913h631v-4666h-631v2222h-2294v-2222h-631v4666z"/></defs><use xlink:href="#au"/><use x="75.195312" xlink:href="#q"/><use x="136.71875" xlink:href="#n"/><use x="195.898438" xlink:href="#ah"/><use x="265.039062" xlink:href="#j"/><use x="326.318359" xlink:href="#ac"/><use x="385.400391" xlink:href="#v"/><use x="450.78125" xlink:href="#u"/><use x="529.736328" xlink:href="#q"/><use x="591.259766" xlink:href="#DejaVuSans-20"/><use x="623.046875" xlink:href="#s"/><use x="688.427734" xlink:href="#h"/><use x="749.609375" xlink:href="#s"/><use x="814.990234" xlink:href="#u"/><use x="893.945312" xlink:href="#y"/><use x="952.197266" xlink:href="#k"/><use x="1012.597656" xlink:href="#o"/></g><use x="882.96625" y="75.073906" stroke="#000000" xlink:href="#c"/><g transform="translate(906.37 79.624) scale(.13 -.13)"><defs><path id="ax" transform="scale(.015625)" d="m1828 4750q769 0 1256-327 488-326 488-882 0-388-222-655t-631-370q453-97 707-404 255-306 255-756 0-718-555-1083-554-364-1298-364-381 0-825 103-444 104-581 191v650q478-278 742-345t652-67q587 0 912 225t325 690q0 413-289 645-289 233-898 233h-638v519h663q559 0 806 186t247 536q0 359-255 551-255 193-873 193-419 0-563-38-144-37-784-278v616q353 125 721 178 369 53 638 53z"/></defs><use xlink:href="#ax"/><use x="64.111328" xlink:href="#j"/><use x="125.390625" xlink:href="#s"/><use x="190.771484" xlink:href="#n"/><use x="249.951172" xlink:href="#i"/><use x="304.931641" xlink:href="#k"/><use x="365.332031" xlink:href="#o"/><use x="430.322266" xlink:href="#DejaVuSans-20"/><use x="462.109375" xlink:href="#t"/><use x="521.044922" xlink:href="#DejaVuSans-20"/><use x="552.832031" xlink:href="#aa"/><use x="605.371094" xlink:href="#w"/><use x="669.287109" xlink:href="#n"/><use x="728.466797" xlink:href="#ae"/><use x="790.136719" xlink:href="#h"/><use x="851.318359" xlink:href="#k"/><use x="911.71875" xlink:href="#o"/><use x="976.708984" xlink:href="#ag"/><use x="1041.699219" xlink:href="#DejaVuSans-20"/><use x="1073.486328" xlink:href="#k"/><use x="1133.886719" xlink:href="#h"/><use x="1195.068359" xlink:href="#i"/><use x="1250.048828" xlink:href="#af"/><use x="1325.488281" xlink:href="#h"/><use x="1386.669922" xlink:href="#i"/></g><use x="882.96625" y="94.155469" fill="#008000" stroke="#008000" xlink:href="#d"/><g transform="translate(906.37 98.705) scale(.13 -.13)"><defs><path id="ay" transform="scale(.015625)" d="m628 0v4666h2903v-532h-2272v-4134h-631z"/></defs><use xlink:href="#ay"/><use x="60.986328" xlink:href="#ad"/><use x="124.462891" xlink:href="#j"/><use x="185.742188" xlink:href="#v"/><use x="251.123047" xlink:href="#o"/><use x="316.113281" xlink:href="#ac"/><use x="375.195312" xlink:href="#v"/><use x="440.576172" xlink:href="#u"/><use x="519.53125" xlink:href="#q"/><use x="581.054688" xlink:href="#DejaVuSans-20"/><use x="612.841797" xlink:href="#z"/><use x="666.015625" xlink:href="#j"/><use x="727.294922" xlink:href="#s"/><use x="792.675781" xlink:href="#n"/><use x="851.855469" xlink:href="#i"/><use x="906.835938" xlink:href="#k"/><use x="967.236328" xlink:href="#o"/></g><defs><clipPath id="g"><rect x="55.296" y="19.44" width="1085.2" height="589.68"/></clipPath></defs></svg>
