<?xml version="1.0" encoding="UTF-8"?>
<!DOCTYPE svg  PUBLIC '-//W3C//DTD SVG 1.1//EN'  'http://www.w3.org/Graphics/SVG/1.1/DTD/svg11.dtd'>
<svg width="1152pt" height="648pt" version="1.1" viewBox="0 0 1152 648" xmlns="http://www.w3.org/2000/svg" xmlns:xlink="http://www.w3.org/1999/xlink"><defs><style type="text/css">*{stroke-linejoin: round; stroke-linecap: butt}</style></defs><path d="m0 648h1152v-648h-1152z" fill="#fff"/><path d="m55.296 609.12h1085.2v-589.68h-1085.2z" fill="#fff"/><path d="m118.08 609.12v-589.68" clip-path="url(#f)" fill="none" stroke="#b0b0b0" stroke-dasharray="0.8,1.32" stroke-width=".8"/><defs><path id="j" d="m0 0v3.5" stroke="#000" stroke-width=".8"/></defs><use x="118.076801" y="609.12" stroke="#000000" stroke-width=".8" xlink:href="#j"/><g transform="translate(105.35 623.72) scale(.1 -.1)"><defs><path id="m" transform="scale(.015625)" d="m794 531h1031v3560l-1122-225v575l1116 225h631v-4135h1031v-531h-2687v531z"/><path id="p" transform="scale(.015625)" d="m703 97v575q238-113 481-172 244-59 479-59 625 0 954 420 330 420 377 1277-181-269-460-413-278-144-615-144-700 0-1108 423-408 424-408 1159 0 718 425 1152 425 435 1131 435 810 0 1236-621 427-620 427-1801 0-1103-524-1761-523-658-1407-658-238 0-482 47-243 47-506 141zm1256 1978q425 0 673 290 249 291 249 798 0 503-249 795-248 292-673 292t-673-292-248-795q0-507 248-798 248-290 673-290z"/><path id="ap" transform="scale(.015625)" d="m2113 2584q-425 0-674-291-248-290-248-796 0-503 248-796 249-292 674-292t673 292q248 293 248 796 0 506-248 796-248 291-673 291zm1253 1979v-575q-238 112-480 171-242 60-480 60-625 0-955-422-329-422-376-1275 184 272 462 417 279 145 613 145 703 0 1111-427 408-426 408-1160 0-719-425-1154-425-434-1131-434-810 0-1238 620-428 621-428 1799 0 1106 525 1764t1409 658q238 0 480-47t505-140z"/><path id="e" transform="scale(.015625)" d="m2034 4250q-487 0-733-480-245-479-245-1442 0-959 245-1439 246-480 733-480 491 0 736 480 246 480 246 1439 0 963-246 1442-245 480-736 480zm0 500q785 0 1199-621 414-620 414-1801 0-1178-414-1799-414-620-1199-620-784 0-1198 620-414 621-414 1799 0 1181 414 1801 414 621 1198 621z"/></defs><use xlink:href="#m"/><use x="63.623047" xlink:href="#p"/><use x="127.246094" xlink:href="#ap"/><use x="190.869141" xlink:href="#e"/></g><path d="m197.28 609.12v-589.68" clip-path="url(#f)" fill="none" stroke="#b0b0b0" stroke-dasharray="0.8,1.32" stroke-width=".8"/><use x="197.278551" y="609.12" stroke="#000000" stroke-width=".8" xlink:href="#j"/><g transform="translate(184.55 623.72) scale(.1 -.1)"><defs><path id="n" transform="scale(.015625)" d="m691 4666h2478v-532h-1900v-1143q137 47 274 70 138 23 276 23 781 0 1237-428 457-428 457-1159 0-753-469-1171-469-417-1322-417-294 0-599 50-304 50-629 150v635q281-153 581-228t634-75q541 0 856 284 316 284 316 772 0 487-316 771-315 285-856 285-253 0-505-56-251-56-513-175v2344z"/></defs><use xlink:href="#m"/><use x="63.623047" xlink:href="#p"/><use x="127.246094" xlink:href="#ap"/><use x="190.869141" xlink:href="#n"/></g><path d="m276.44 609.12v-589.68" clip-path="url(#f)" fill="none" stroke="#b0b0b0" stroke-dasharray="0.8,1.32" stroke-width=".8"/><use x="276.43695" y="609.12" stroke="#000000" stroke-width=".8" xlink:href="#j"/><g transform="translate(263.71 623.72) scale(.1 -.1)"><defs><path id="ag" transform="scale(.015625)" d="m525 4666h3e3v-269l-1694-4397h-659l1594 4134h-2241v532z"/></defs><use xlink:href="#m"/><use x="63.623047" xlink:href="#p"/><use x="127.246094" xlink:href="#ag"/><use x="190.869141" xlink:href="#e"/></g><path d="m355.6 609.12v-589.68" clip-path="url(#f)" fill="none" stroke="#b0b0b0" stroke-dasharray="0.8,1.32" stroke-width=".8"/><use x="355.595349" y="609.12" stroke="#000000" stroke-width=".8" xlink:href="#j"/><g transform="translate(342.87 623.72) scale(.1 -.1)"><use xlink:href="#m"/><use x="63.623047" xlink:href="#p"/><use x="127.246094" xlink:href="#ag"/><use x="190.869141" xlink:href="#n"/></g><path d="m434.75 609.12v-589.68" clip-path="url(#f)" fill="none" stroke="#b0b0b0" stroke-dasharray="0.8,1.32" stroke-width=".8"/><use x="434.753749" y="609.12" stroke="#000000" stroke-width=".8" xlink:href="#j"/><g transform="translate(422.03 623.72) scale(.1 -.1)"><defs><path id="aj" transform="scale(.015625)" d="m2034 2216q-450 0-708-241-257-241-257-662 0-422 257-663 258-241 708-241t709 242q260 243 260 662 0 421-258 662-257 241-711 241zm-631 268q-406 100-633 378-226 279-226 679 0 559 398 884 399 325 1092 325 697 0 1094-325t397-884q0-400-227-679-226-278-629-378 456-106 710-416 255-309 255-755 0-679-414-1042-414-362-1186-362-771 0-1186 362-414 363-414 1042 0 446 256 755 257 310 713 416zm-231 997q0-362 226-565 227-203 636-203 407 0 636 203 230 203 230 565 0 363-230 566-229 203-636 203-409 0-636-203-226-203-226-566z"/></defs><use xlink:href="#m"/><use x="63.623047" xlink:href="#p"/><use x="127.246094" xlink:href="#aj"/><use x="190.869141" xlink:href="#e"/></g><path d="m513.96 609.12v-589.68" clip-path="url(#f)" fill="none" stroke="#b0b0b0" stroke-dasharray="0.8,1.32" stroke-width=".8"/><use x="513.955498" y="609.12" stroke="#000000" stroke-width=".8" xlink:href="#j"/><g transform="translate(501.23 623.72) scale(.1 -.1)"><use xlink:href="#m"/><use x="63.623047" xlink:href="#p"/><use x="127.246094" xlink:href="#aj"/><use x="190.869141" xlink:href="#n"/></g><path d="m593.11 609.12v-589.68" clip-path="url(#f)" fill="none" stroke="#b0b0b0" stroke-dasharray="0.8,1.32" stroke-width=".8"/><use x="593.113898" y="609.12" stroke="#000000" stroke-width=".8" xlink:href="#j"/><g transform="translate(580.39 623.72) scale(.1 -.1)"><use xlink:href="#m"/><use x="63.623047" xlink:href="#p"/><use x="127.246094" xlink:href="#p"/><use x="190.869141" xlink:href="#e"/></g><path d="m672.27 609.12v-589.68" clip-path="url(#f)" fill="none" stroke="#b0b0b0" stroke-dasharray="0.8,1.32" stroke-width=".8"/><use x="672.272297" y="609.12" stroke="#000000" stroke-width=".8" xlink:href="#j"/><g transform="translate(659.55 623.72) scale(.1 -.1)"><use xlink:href="#m"/><use x="63.623047" xlink:href="#p"/><use x="127.246094" xlink:href="#p"/><use x="190.869141" xlink:href="#n"/></g><path d="m751.43 609.12v-589.68" clip-path="url(#f)" fill="none" stroke="#b0b0b0" stroke-dasharray="0.8,1.32" stroke-width=".8"/><use x="751.430696" y="609.12" stroke="#000000" stroke-width=".8" xlink:href="#j"/><g transform="translate(738.71 623.72) scale(.1 -.1)"><defs><path id="l" transform="scale(.015625)" d="m1228 531h2203v-531h-2962v531q359 372 979 998 621 627 780 809 303 340 423 576 121 236 121 464 0 372-261 606-261 235-680 235-297 0-627-103-329-103-704-313v638q381 153 712 231 332 78 607 78 725 0 1156-363 431-362 431-968 0-288-108-546-107-257-392-607-78-91-497-524-418-433-1181-1211z"/></defs><use xlink:href="#l"/><use x="63.623047" xlink:href="#e"/><use x="127.246094" xlink:href="#e"/><use x="190.869141" xlink:href="#e"/></g><path d="m830.63 609.12v-589.68" clip-path="url(#f)" fill="none" stroke="#b0b0b0" stroke-dasharray="0.8,1.32" stroke-width=".8"/><use x="830.632446" y="609.12" stroke="#000000" stroke-width=".8" xlink:href="#j"/><g transform="translate(817.91 623.72) scale(.1 -.1)"><use xlink:href="#l"/><use x="63.623047" xlink:href="#e"/><use x="127.246094" xlink:href="#e"/><use x="190.869141" xlink:href="#n"/></g><path d="m909.79 609.12v-589.68" clip-path="url(#f)" fill="none" stroke="#b0b0b0" stroke-dasharray="0.8,1.32" stroke-width=".8"/><use x="909.790845" y="609.12" stroke="#000000" stroke-width=".8" xlink:href="#j"/><g transform="translate(897.07 623.72) scale(.1 -.1)"><use xlink:href="#l"/><use x="63.623047" xlink:href="#e"/><use x="127.246094" xlink:href="#m"/><use x="190.869141" xlink:href="#e"/></g><path d="m988.95 609.12v-589.68" clip-path="url(#f)" fill="none" stroke="#b0b0b0" stroke-dasharray="0.8,1.32" stroke-width=".8"/><use x="988.949244" y="609.12" stroke="#000000" stroke-width=".8" xlink:href="#j"/><g transform="translate(976.22 623.72) scale(.1 -.1)"><use xlink:href="#l"/><use x="63.623047" xlink:href="#e"/><use x="127.246094" xlink:href="#m"/><use x="190.869141" xlink:href="#n"/></g><path d="m1068.1 609.12v-589.68" clip-path="url(#f)" fill="none" stroke="#b0b0b0" stroke-dasharray="0.8,1.32" stroke-width=".8"/><use x="1068.107643" y="609.12" stroke="#000000" stroke-width=".8" xlink:href="#j"/><g transform="translate(1055.4 623.72) scale(.1 -.1)"><use xlink:href="#l"/><use x="63.623047" xlink:href="#e"/><use x="127.246094" xlink:href="#l"/><use x="190.869141" xlink:href="#e"/></g><defs><path id="d" d="m0 0v2" stroke="#000" stroke-width=".6"/></defs><use x="70.607772" y="609.12" stroke="#000000" stroke-width=".6" xlink:href="#d"/><use x="86.430782" y="609.12" stroke="#000000" stroke-width=".6" xlink:href="#d"/><use x="102.253792" y="609.12" stroke="#000000" stroke-width=".6" xlink:href="#d"/><use x="133.943162" y="609.12" stroke="#000000" stroke-width=".6" xlink:href="#d"/><use x="149.766171" y="609.12" stroke="#000000" stroke-width=".6" xlink:href="#d"/><use x="165.589181" y="609.12" stroke="#000000" stroke-width=".6" xlink:href="#d"/><use x="181.412191" y="609.12" stroke="#000000" stroke-width=".6" xlink:href="#d"/><use x="213.101561" y="609.12" stroke="#000000" stroke-width=".6" xlink:href="#d"/><use x="228.924571" y="609.12" stroke="#000000" stroke-width=".6" xlink:href="#d"/><use x="244.74758" y="609.12" stroke="#000000" stroke-width=".6" xlink:href="#d"/><use x="260.613941" y="609.12" stroke="#000000" stroke-width=".6" xlink:href="#d"/><use x="292.25996" y="609.12" stroke="#000000" stroke-width=".6" xlink:href="#d"/><use x="308.08297" y="609.12" stroke="#000000" stroke-width=".6" xlink:href="#d"/><use x="323.94933" y="609.12" stroke="#000000" stroke-width=".6" xlink:href="#d"/><use x="339.77234" y="609.12" stroke="#000000" stroke-width=".6" xlink:href="#d"/><use x="371.418359" y="609.12" stroke="#000000" stroke-width=".6" xlink:href="#d"/><use x="387.28472" y="609.12" stroke="#000000" stroke-width=".6" xlink:href="#d"/><use x="403.107729" y="609.12" stroke="#000000" stroke-width=".6" xlink:href="#d"/><use x="418.930739" y="609.12" stroke="#000000" stroke-width=".6" xlink:href="#d"/><use x="450.620109" y="609.12" stroke="#000000" stroke-width=".6" xlink:href="#d"/><use x="466.443119" y="609.12" stroke="#000000" stroke-width=".6" xlink:href="#d"/><use x="482.266128" y="609.12" stroke="#000000" stroke-width=".6" xlink:href="#d"/><use x="498.089138" y="609.12" stroke="#000000" stroke-width=".6" xlink:href="#d"/><use x="529.778508" y="609.12" stroke="#000000" stroke-width=".6" xlink:href="#d"/><use x="545.601518" y="609.12" stroke="#000000" stroke-width=".6" xlink:href="#d"/><use x="561.424527" y="609.12" stroke="#000000" stroke-width=".6" xlink:href="#d"/><use x="577.290888" y="609.12" stroke="#000000" stroke-width=".6" xlink:href="#d"/><use x="608.936907" y="609.12" stroke="#000000" stroke-width=".6" xlink:href="#d"/><use x="624.759917" y="609.12" stroke="#000000" stroke-width=".6" xlink:href="#d"/><use x="640.626277" y="609.12" stroke="#000000" stroke-width=".6" xlink:href="#d"/><use x="656.449287" y="609.12" stroke="#000000" stroke-width=".6" xlink:href="#d"/><use x="688.095306" y="609.12" stroke="#000000" stroke-width=".6" xlink:href="#d"/><use x="703.961667" y="609.12" stroke="#000000" stroke-width=".6" xlink:href="#d"/><use x="719.784676" y="609.12" stroke="#000000" stroke-width=".6" xlink:href="#d"/><use x="735.607686" y="609.12" stroke="#000000" stroke-width=".6" xlink:href="#d"/><use x="767.297056" y="609.12" stroke="#000000" stroke-width=".6" xlink:href="#d"/><use x="783.120066" y="609.12" stroke="#000000" stroke-width=".6" xlink:href="#d"/><use x="798.943076" y="609.12" stroke="#000000" stroke-width=".6" xlink:href="#d"/><use x="814.766085" y="609.12" stroke="#000000" stroke-width=".6" xlink:href="#d"/><use x="846.455455" y="609.12" stroke="#000000" stroke-width=".6" xlink:href="#d"/><use x="862.278465" y="609.12" stroke="#000000" stroke-width=".6" xlink:href="#d"/><use x="878.101475" y="609.12" stroke="#000000" stroke-width=".6" xlink:href="#d"/><use x="893.967835" y="609.12" stroke="#000000" stroke-width=".6" xlink:href="#d"/><use x="925.613854" y="609.12" stroke="#000000" stroke-width=".6" xlink:href="#d"/><use x="941.436864" y="609.12" stroke="#000000" stroke-width=".6" xlink:href="#d"/><use x="957.303224" y="609.12" stroke="#000000" stroke-width=".6" xlink:href="#d"/><use x="973.126234" y="609.12" stroke="#000000" stroke-width=".6" xlink:href="#d"/><use x="1004.772254" y="609.12" stroke="#000000" stroke-width=".6" xlink:href="#d"/><use x="1020.638614" y="609.12" stroke="#000000" stroke-width=".6" xlink:href="#d"/><use x="1036.461624" y="609.12" stroke="#000000" stroke-width=".6" xlink:href="#d"/><use x="1052.284633" y="609.12" stroke="#000000" stroke-width=".6" xlink:href="#d"/><use x="1083.974003" y="609.12" stroke="#000000" stroke-width=".6" xlink:href="#d"/><use x="1099.797013" y="609.12" stroke="#000000" stroke-width=".6" xlink:href="#d"/><use x="1115.620023" y="609.12" stroke="#000000" stroke-width=".6" xlink:href="#d"/><use x="1131.443032" y="609.12" stroke="#000000" stroke-width=".6" xlink:href="#d"/><g transform="translate(552.07 640.44) scale(.14 -.14)"><defs><path id="ao" transform="scale(.015625)" d="m1259 2228v-1709h1013q509 0 754 211 246 211 246 645 0 438-246 645-245 208-754 208h-1013zm0 1919v-1406h935q462 0 688 173 227 174 227 530 0 353-227 528-226 175-688 175h-935zm-631 519h1613q722 0 1112-300 391-300 391-853 0-429-200-682t-588-315q466-100 724-418 258-317 258-792 0-625-425-966-425-340-1210-340h-1675v4666z"/><path id="aa" transform="scale(.015625)" d="m1159 525v-1856h-578v4831h578v-531q182 312 458 463 277 152 661 152 638 0 1036-506 399-506 399-1331t-399-1332q-398-506-1036-506-384 0-661 152-276 152-458 464zm1957 1222q0 634-261 995t-717 361q-457 0-718-361t-261-995 261-995 718-361q456 0 717 361t261 995z"/><path id="r" transform="scale(.015625)" d="m3597 1894v-281h-2644q38-594 358-905t892-311q331 0 642 81t618 244v-544q-310-131-635-200t-659-69q-838 0-1327 487-489 488-489 1320 0 859 464 1363 464 505 1252 505 706 0 1117-455 411-454 411-1235zm-575 169q-6 471-264 752-258 282-683 282-481 0-770-272t-333-766l2050 4z"/><path id="ae" transform="scale(.015625)" d="m581 3500h841l994-2344 997 2344h834v-3500h-578v2950l-966-2278h-575l-969 2278v-2950h-578v3500z"/><path id="am" transform="scale(.015625)" d="m1181 2491q0-260 200-407 200-146 572-146h775v1103h-775q-372 0-572-144t-200-406zm-818-2491 1068 1534q-362 82-603 296-240 214-240 661 0 506 335 757 336 252 1015 252h1368v-3500h-578v1478h-715l-1032-1478h-618z"/><path id="al" transform="scale(.015625)" d="m750 794h659v-538l-512-1e3h-403l256 1e3v538z"/><path id="y" transform="scale(.015625)" d="m581 0v3500h2469v-459h-1891v-3041h-578z"/><path id="g" transform="scale(.015625)" d="m1959 3097q-462 0-731-361t-269-989 267-989q268-361 733-361 460 0 728 362 269 363 269 988 0 622-269 986-268 364-728 364zm0 487q750 0 1178-488 429-487 429-1349 0-859-429-1349-428-489-1178-489-753 0-1180 489-426 490-426 1349 0 862 426 1349 427 488 1180 488z"/><path id="af" transform="scale(.015625)" d="m1384 459h1669v2582h-1209v-438q0-1287-369-1975l-91-169zm-834 0q284 125 409 391 307 659 307 1988v662h2365v-3041h460v-1343h-460v884h-2837v-884h-460v1343h216z"/><path id="w" transform="scale(.015625)" d="m3907 3500h575v-3500h-575v3500zm288 84zm-1414-2546q0 281-205 428-204 147-598 147h-819v-1154h819q394 0 598 148 205 149 205 431zm-2200 2462h578v-1428h844q669 0 1030-255 361-254 361-779t-361-782q-361-256-1030-256h-1422v3500z"/></defs><use xlink:href="#ao"/><use x="68.603516" xlink:href="#aa"/><use x="132.080078" xlink:href="#r"/><use x="193.603516" xlink:href="#ae"/><use x="269.042969" xlink:href="#am"/><use x="329.199219" xlink:href="#al"/><use x="360.986328" xlink:href="#DejaVuSans-20"/><use x="392.773438" xlink:href="#y"/><use x="445.3125" xlink:href="#g"/><use x="506.494141" xlink:href="#af"/><use x="575.634766" xlink:href="#w"/></g><path d="m55.296 570.63h1085.2" clip-path="url(#f)" fill="none" stroke="#b0b0b0" stroke-dasharray="0.8,1.32" stroke-width=".8"/><defs><path id="s" d="m0 0h-3.5" stroke="#000" stroke-width=".8"/></defs><use x="55.296" y="570.629138" stroke="#000000" stroke-width=".8" xlink:href="#s"/><g transform="translate(41.934 574.43) scale(.1 -.1)"><use xlink:href="#e"/></g><path d="m55.296 493.65h1085.2" clip-path="url(#f)" fill="none" stroke="#b0b0b0" stroke-dasharray="0.8,1.32" stroke-width=".8"/><use x="55.296" y="493.647415" stroke="#000000" stroke-width=".8" xlink:href="#s"/><g transform="translate(35.571 497.45) scale(.1 -.1)"><use xlink:href="#n"/><use x="63.623047" xlink:href="#e"/></g><path d="m55.296 416.67h1085.2" clip-path="url(#f)" fill="none" stroke="#b0b0b0" stroke-dasharray="0.8,1.32" stroke-width=".8"/><use x="55.296" y="416.665692" stroke="#000000" stroke-width=".8" xlink:href="#s"/><g transform="translate(29.208 420.46) scale(.1 -.1)"><use xlink:href="#m"/><use x="63.623047" xlink:href="#e"/><use x="127.246094" xlink:href="#e"/></g><path d="m55.296 339.68h1085.2" clip-path="url(#f)" fill="none" stroke="#b0b0b0" stroke-dasharray="0.8,1.32" stroke-width=".8"/><use x="55.296" y="339.683969" stroke="#000000" stroke-width=".8" xlink:href="#s"/><g transform="translate(29.208 343.48) scale(.1 -.1)"><use xlink:href="#m"/><use x="63.623047" xlink:href="#n"/><use x="127.246094" xlink:href="#e"/></g><path d="m55.296 262.7h1085.2" clip-path="url(#f)" fill="none" stroke="#b0b0b0" stroke-dasharray="0.8,1.32" stroke-width=".8"/><use x="55.296" y="262.702245" stroke="#000000" stroke-width=".8" xlink:href="#s"/><g transform="translate(29.208 266.5) scale(.1 -.1)"><use xlink:href="#l"/><use x="63.623047" xlink:href="#e"/><use x="127.246094" xlink:href="#e"/></g><path d="m55.296 185.72h1085.2" clip-path="url(#f)" fill="none" stroke="#b0b0b0" stroke-dasharray="0.8,1.32" stroke-width=".8"/><use x="55.296" y="185.720522" stroke="#000000" stroke-width=".8" xlink:href="#s"/><g transform="translate(29.208 189.52) scale(.1 -.1)"><use xlink:href="#l"/><use x="63.623047" xlink:href="#n"/><use x="127.246094" xlink:href="#e"/></g><path d="m55.296 108.74h1085.2" clip-path="url(#f)" fill="none" stroke="#b0b0b0" stroke-dasharray="0.8,1.32" stroke-width=".8"/><use x="55.296" y="108.738799" stroke="#000000" stroke-width=".8" xlink:href="#s"/><g transform="translate(29.208 112.54) scale(.1 -.1)"><defs><path id="ak" transform="scale(.015625)" d="m2597 2516q453-97 707-404 255-306 255-756 0-690-475-1069-475-378-1350-378-293 0-604 58t-642 174v609q262-153 574-231 313-78 654-78 593 0 904 234t311 681q0 413-289 645-289 233-804 233h-544v519h569q465 0 712 186t247 536q0 359-255 551-254 193-729 193-260 0-557-57-297-56-653-174v562q360 100 674 150t592 50q719 0 1137-327 419-326 419-882 0-388-222-655t-631-370z"/></defs><use xlink:href="#ak"/><use x="63.623047" xlink:href="#e"/><use x="127.246094" xlink:href="#e"/></g><path d="m55.296 31.757h1085.2" clip-path="url(#f)" fill="none" stroke="#b0b0b0" stroke-dasharray="0.8,1.32" stroke-width=".8"/><use x="55.296" y="31.757076" stroke="#000000" stroke-width=".8" xlink:href="#s"/><g transform="translate(29.208 35.556) scale(.1 -.1)"><use xlink:href="#ak"/><use x="63.623047" xlink:href="#n"/><use x="127.246094" xlink:href="#e"/></g><g transform="translate(22.713 381.56) rotate(-90) scale(.12 -.12)"><defs><path id="au" transform="scale(.015625)" d="m628 4666h631v-2307l2257 2307h809l-1803-1844 1897-2822h-688l-1618 2403-854-872v-1531h-631v4666z"/><path id="v" transform="scale(.015625)" d="m238 0v478q568 88 743 481 213 554 213 1969v572h2365v-3500h-575v3041h-1215v-347q0-1350-275-1956-294-647-1256-738z"/><path id="q" transform="scale(.015625)" d="m3578 3500v-3500h-572v2809l-1687-2809h-738v3500h572v-2803l1685 2803h740z"/><path id="ad" transform="scale(.015625)" d="m2625 0v1472h-1072q-478 0-797 297-287 269-287 844v887h575v-834q0-366 162-550 166-185 491-185h928v1569h575v-3500h-575z"/><path id="h" transform="scale(.015625)" d="m3122 3366v-538q-244 135-489 202t-495 67q-560 0-870-355-309-354-309-995t309-996q310-354 870-354 250 0 495 67t489 202v-532q-241-112-499-168-257-57-548-57-791 0-1257 497-465 497-465 1341 0 856 470 1346 471 491 1290 491 265 0 518-55 253-54 491-163z"/><path id="x" transform="scale(.015625)" d="m188 3500h3353v-459h-1394v-3041h-566v3041h-1393v459z"/><path id="u" transform="scale(.015625)" d="m1156 1613v-1154h819q394 0 600 148 206 149 206 431 0 281-206 428t-600 147h-819zm0 1428v-969h757q325 0 531 129 206 130 206 362 0 231-206 354-206 124-531 124h-757zm-575 459h1369q616 0 947-225t331-641q0-321-169-511-168-189-500-235 397-75 616-313 219-237 219-594 0-468-361-725-361-256-1030-256h-1422v3500z"/><path id="ac" transform="scale(.015625)" d="m2206 1888q388-75 603-304 216-228 216-565 0-541-403-826-403-284-1147-284-250 0-514 44t-545 131v535q222-116 487-174 266-57 556-57 472 0 736 175t264 456q0 275-234 442t-662 167h-463v475h484q363 0 574 139t211 358q0 200-218 344-217 144-588 144-222 0-474-41-251-41-555-131v522q307 75 572 112 266 38 503 38 613 0 967-246 355-245 355-686 0-290-188-492-187-201-537-276z"/><path id="k" transform="scale(.015625)" d="m2194 1759q-697 0-966-159t-269-544q0-306 202-486 202-179 548-179 479 0 768 339t289 901v128h-572zm1147 238v-1997h-575v531q-197-318-491-470t-719-152q-537 0-855 302-317 302-317 808 0 590 395 890 396 300 1180 300h807v57q0 397-261 614t-733 217q-300 0-585-72-284-72-546-216v532q315 122 612 182 297 61 578 61 760 0 1135-394 375-393 375-1193z"/><path id="t" transform="scale(.015625)" d="m3603 3500v-3500h-578v3041h-1866v-3041h-578v3500h3022z"/><path id="o" transform="scale(.015625)" d="m2059-325q-243-625-475-815-231-191-618-191h-460v481h338q237 0 368 113 132 112 291 531l103 262-1415 3444h609l1094-2737 1094 2737h609l-1538-3825z"/><path id="i" transform="scale(.015625)" d="m581 3500h572v-1644l1622 1644h706l-1337-1353 1509-2147h-644l-1240 1766-616-625v-1141h-572v3500z"/></defs><use xlink:href="#au"/><use x="70.996094" xlink:href="#g"/><use x="132.177734" xlink:href="#v"/><use x="196.09375" xlink:href="#q"/><use x="261.083984" xlink:href="#ad"/><use x="320.166016" xlink:href="#r"/><use x="381.689453" xlink:href="#h"/><use x="436.669922" xlink:href="#x"/><use x="494.921875" xlink:href="#u"/><use x="553.857422" xlink:href="#g"/><use x="615.039062" xlink:href="#DejaVuSans-20"/><use x="646.826172" xlink:href="#ac"/><use x="700" xlink:href="#k"/><use x="761.279297" xlink:href="#t"/><use x="826.660156" xlink:href="#o"/><use x="885.839844" xlink:href="#h"/><use x="940.820312" xlink:href="#i"/><use x="1001.220703" xlink:href="#g"/><use x="1062.402344" xlink:href="#u"/></g><defs><path id="c" d="m0 1.25c0.3315 0 0.64948-0.13171 0.88388-0.36612 0.23441-0.23441 0.36612-0.55238 0.36612-0.88388s-0.13171-0.64948-0.36612-0.88388c-0.23441-0.23441-0.55238-0.36612-0.88388-0.36612s-0.64948 0.13171-0.88388 0.36612c-0.23441 0.23441-0.36612 0.55238-0.36612 0.88388s0.13171 0.64948 0.36612 0.88388c0.23441 0.23441 0.55238 0.36612 0.88388 0.36612z" stroke="#000"/></defs><g clip-path="url(#f)" stroke="#000000"><use x="102.297142" y="569.089504" xlink:href="#c"/><use x="104.898185" y="567.549869" xlink:href="#c"/><use x="113.264872" y="566.010235" xlink:href="#c"/><use x="114.218588" y="564.470601" xlink:href="#c"/><use x="121.111351" y="562.930966" xlink:href="#c"/><use x="122.628626" y="561.391332" xlink:href="#c"/><use x="135.763892" y="559.851697" xlink:href="#c"/><use x="137.541271" y="558.312063" xlink:href="#c"/><use x="150.849939" y="556.772428" xlink:href="#c"/><use x="154.621451" y="555.232794" xlink:href="#c"/><use x="160.083641" y="553.693159" xlink:href="#c"/><use x="162.337878" y="552.153525" xlink:href="#c"/><use x="162.944788" y="550.61389" xlink:href="#c"/><use x="169.534096" y="549.074256" xlink:href="#c"/><use x="178.117537" y="547.534621" xlink:href="#c"/><use x="179.894916" y="545.994987" xlink:href="#c"/><use x="182.669361" y="544.455352" xlink:href="#c"/><use x="185.400456" y="542.915718" xlink:href="#c"/><use x="189.995632" y="541.376084" xlink:href="#c"/><use x="190.47249" y="539.836449" xlink:href="#c"/><use x="192.163167" y="538.296815" xlink:href="#c"/><use x="194.807561" y="536.75718" xlink:href="#c"/><use x="195.804627" y="535.217546" xlink:href="#c"/><use x="195.891328" y="533.677911" xlink:href="#c"/><use x="199.316035" y="532.138277" xlink:href="#c"/><use x="200.703257" y="530.598642" xlink:href="#c"/><use x="202.827442" y="529.059008" xlink:href="#c"/><use x="203.694457" y="527.519373" xlink:href="#c"/><use x="204.127964" y="525.979739" xlink:href="#c"/><use x="205.861992" y="524.440104" xlink:href="#c"/><use x="205.948694" y="522.90047" xlink:href="#c"/><use x="206.902409" y="521.360836" xlink:href="#c"/><use x="209.243348" y="519.821201" xlink:href="#c"/><use x="210.934025" y="518.281567" xlink:href="#c"/><use x="211.107428" y="516.741932" xlink:href="#c"/><use x="211.84439" y="515.202298" xlink:href="#c"/><use x="212.40795" y="513.662663" xlink:href="#c"/><use x="214.402082" y="512.123029" xlink:href="#c"/><use x="216.959774" y="510.583394" xlink:href="#c"/><use x="219.560817" y="509.04376" xlink:href="#c"/><use x="220.94804" y="507.504125" xlink:href="#c"/><use x="222.682068" y="505.964491" xlink:href="#c"/><use x="222.985523" y="504.424856" xlink:href="#c"/><use x="223.288978" y="502.885222" xlink:href="#c"/><use x="224.459447" y="501.345587" xlink:href="#c"/><use x="225.84667" y="499.805953" xlink:href="#c"/><use x="226.020073" y="498.266319" xlink:href="#c"/><use x="226.496931" y="496.726684" xlink:href="#c"/><use x="228.447713" y="495.18705" xlink:href="#c"/><use x="230.441845" y="493.647415" xlink:href="#c"/><use x="231.872419" y="492.107781" xlink:href="#c"/><use x="233.519746" y="490.568146" xlink:href="#c"/><use x="233.996604" y="489.028512" xlink:href="#c"/><use x="234.256708" y="487.488877" xlink:href="#c"/><use x="235.123722" y="485.949243" xlink:href="#c"/><use x="235.947386" y="484.409608" xlink:href="#c"/><use x="236.034087" y="482.869974" xlink:href="#c"/><use x="237.334609" y="481.330339" xlink:href="#c"/><use x="237.551362" y="479.790705" xlink:href="#c"/><use x="238.114921" y="478.25107" xlink:href="#c"/><use x="239.762248" y="476.711436" xlink:href="#c"/><use x="242.363291" y="475.171802" xlink:href="#c"/><use x="243.923917" y="473.632167" xlink:href="#c"/><use x="245.007685" y="472.092533" xlink:href="#c"/><use x="247.391974" y="470.552898" xlink:href="#c"/><use x="247.478675" y="469.013264" xlink:href="#c"/><use x="248.952599" y="467.473629" xlink:href="#c"/><use x="255.888713" y="465.933995" xlink:href="#c"/><use x="258.273002" y="464.39436" xlink:href="#c"/><use x="258.359704" y="462.854726" xlink:href="#c"/><use x="259.443471" y="461.315091" xlink:href="#c"/><use x="260.137083" y="459.775457" xlink:href="#c"/><use x="260.787343" y="458.235822" xlink:href="#c"/><use x="261.004097" y="456.696188" xlink:href="#c"/><use x="262.99823" y="455.156554" xlink:href="#c"/><use x="263.258334" y="453.616919" xlink:href="#c"/><use x="264.298751" y="452.077285" xlink:href="#c"/><use x="266.552988" y="450.53765" xlink:href="#c"/><use x="266.769742" y="448.998016" xlink:href="#c"/><use x="268.026912" y="447.458381" xlink:href="#c"/><use x="268.980628" y="445.918747" xlink:href="#c"/><use x="269.11068" y="444.379112" xlink:href="#c"/><use x="269.327434" y="442.839478" xlink:href="#c"/><use x="270.064396" y="441.299843" xlink:href="#c"/><use x="274.356116" y="439.760209" xlink:href="#c"/><use x="274.61622" y="438.220574" xlink:href="#c"/><use x="280.641969" y="436.68094" xlink:href="#c"/><use x="280.772021" y="435.141305" xlink:href="#c"/><use x="286.320913" y="433.601671" xlink:href="#c"/><use x="287.448031" y="432.062037" xlink:href="#c"/><use x="287.838187" y="430.522402" xlink:href="#c"/><use x="289.095358" y="428.982768" xlink:href="#c"/><use x="290.005723" y="427.443133" xlink:href="#c"/><use x="293.560481" y="425.903499" xlink:href="#c"/><use x="293.820586" y="424.363864" xlink:href="#c"/><use x="295.337861" y="422.82423" xlink:href="#c"/><use x="298.242358" y="421.284595" xlink:href="#c"/><use x="298.632515" y="419.744961" xlink:href="#c"/><use x="298.719216" y="418.205326" xlink:href="#c"/><use x="301.190207" y="416.665692" xlink:href="#c"/><use x="301.493662" y="415.126057" xlink:href="#c"/><use x="302.837534" y="413.586423" xlink:href="#c"/><use x="303.964652" y="412.046789" xlink:href="#c"/><use x="309.383491" y="410.507154" xlink:href="#c"/><use x="309.990401" y="408.96752" xlink:href="#c"/><use x="310.337207" y="407.427885" xlink:href="#c"/><use x="310.770714" y="405.888251" xlink:href="#c"/><use x="311.811131" y="404.348616" xlink:href="#c"/><use x="312.591444" y="402.808982" xlink:href="#c"/><use x="312.678145" y="401.269347" xlink:href="#c"/><use x="313.024951" y="399.729713" xlink:href="#c"/><use x="315.886098" y="398.190078" xlink:href="#c"/><use x="319.614259" y="396.650444" xlink:href="#c"/><use x="322.865562" y="395.110809" xlink:href="#c"/><use x="324.252785" y="393.571175" xlink:href="#c"/><use x="325.900112" y="392.03154" xlink:href="#c"/><use x="328.067648" y="390.491906" xlink:href="#c"/><use x="330.885444" y="388.952272" xlink:href="#c"/><use x="332.662823" y="387.412637" xlink:href="#c"/><use x="332.836226" y="385.873003" xlink:href="#c"/><use x="333.313084" y="384.333368" xlink:href="#c"/><use x="333.486487" y="382.793734" xlink:href="#c"/><use x="336.867842" y="381.254099" xlink:href="#c"/><use x="337.214648" y="379.714465" xlink:href="#c"/><use x="346.188245" y="378.17483" xlink:href="#c"/><use x="352.777553" y="376.635196" xlink:href="#c"/><use x="354.641634" y="375.095561" xlink:href="#c"/><use x="362.444762" y="373.555927" xlink:href="#c"/><use x="362.704866" y="372.016292" xlink:href="#c"/><use x="365.609364" y="370.476658" xlink:href="#c"/><use x="366.476378" y="368.937023" xlink:href="#c"/><use x="370.984852" y="367.397389" xlink:href="#c"/><use x="372.025269" y="365.857755" xlink:href="#c"/><use x="380.998866" y="364.31812" xlink:href="#c"/><use x="381.432373" y="362.778486" xlink:href="#c"/><use x="385.680743" y="361.238851" xlink:href="#c"/><use x="397.298734" y="359.699217" xlink:href="#c"/><use x="397.992345" y="358.159582" xlink:href="#c"/><use x="398.729307" y="356.619948" xlink:href="#c"/><use x="409.133478" y="355.080313" xlink:href="#c"/><use x="412.601535" y="353.540679" xlink:href="#c"/><use x="412.774938" y="352.001044" xlink:href="#c"/><use x="413.988758" y="350.46141" xlink:href="#c"/><use x="414.205511" y="348.921775" xlink:href="#c"/><use x="416.199644" y="347.382141" xlink:href="#c"/><use x="450.316654" y="345.842507" xlink:href="#c"/><use x="463.712024" y="344.302872" xlink:href="#c"/><use x="463.928777" y="342.763238" xlink:href="#c"/><use x="485.777536" y="341.223603" xlink:href="#c"/><use x="488.551981" y="339.683969" xlink:href="#c"/><use x="488.855436" y="338.144334" xlink:href="#c"/><use x="489.07219" y="336.6047" xlink:href="#c"/><use x="490.112607" y="335.065065" xlink:href="#c"/><use x="513.218536" y="333.525431" xlink:href="#c"/><use x="513.478641" y="331.985796" xlink:href="#c"/><use x="514.215603" y="330.446162" xlink:href="#c"/><use x="518.94083" y="328.906527" xlink:href="#c"/><use x="521.845328" y="327.366893" xlink:href="#c"/><use x="523.882811" y="325.827258" xlink:href="#c"/><use x="569.574461" y="324.287624" xlink:href="#c"/><use x="569.791215" y="322.74799" xlink:href="#c"/><use x="582.623025" y="321.208355" xlink:href="#c"/><use x="589.862594" y="319.668721" xlink:href="#c"/><use x="591.770025" y="318.129086" xlink:href="#c"/><use x="594.110964" y="316.589452" xlink:href="#c"/><use x="605.165395" y="315.049817" xlink:href="#c"/><use x="633.646813" y="313.510183" xlink:href="#c"/><use x="636.377908" y="311.970548" xlink:href="#c"/><use x="657.489704" y="310.430914" xlink:href="#c"/><use x="669.627903" y="308.891279" xlink:href="#c"/><use x="681.505998" y="307.351645" xlink:href="#c"/><use x="686.794785" y="305.81201" xlink:href="#c"/><use x="690.13279" y="304.272376" xlink:href="#c"/><use x="701.577378" y="302.732742" xlink:href="#c"/><use x="702.747847" y="301.193107" xlink:href="#c"/><use x="714.192435" y="299.653473" xlink:href="#c"/><use x="716.403321" y="298.113838" xlink:href="#c"/><use x="719.437871" y="296.574204" xlink:href="#c"/><use x="720.044781" y="295.034569" xlink:href="#c"/><use x="727.717857" y="293.494935" xlink:href="#c"/><use x="732.616487" y="291.9553" xlink:href="#c"/><use x="734.697321" y="290.415666" xlink:href="#c"/><use x="735.694388" y="288.876031" xlink:href="#c"/><use x="737.211662" y="287.336397" xlink:href="#c"/><use x="771.458724" y="285.796762" xlink:href="#c"/><use x="775.100184" y="284.257128" xlink:href="#c"/><use x="776.790862" y="282.717493" xlink:href="#c"/><use x="791.053246" y="281.177859" xlink:href="#c"/><use x="795.648421" y="279.638225" xlink:href="#c"/><use x="804.491967" y="278.09859" xlink:href="#c"/><use x="805.532384" y="276.558956" xlink:href="#c"/><use x="805.879189" y="275.019321" xlink:href="#c"/><use x="807.093009" y="273.479687" xlink:href="#c"/><use x="809.173843" y="271.940052" xlink:href="#c"/><use x="810.604417" y="270.400418" xlink:href="#c"/><use x="817.410479" y="268.860783" xlink:href="#c"/><use x="824.086488" y="267.321149" xlink:href="#c"/><use x="831.109303" y="265.781514" xlink:href="#c"/><use x="840.299654" y="264.24188" xlink:href="#c"/><use x="844.157868" y="262.702245" xlink:href="#c"/><use x="847.235768" y="261.162611" xlink:href="#c"/><use x="859.373967" y="259.622977" xlink:href="#c"/><use x="864.315948" y="258.083342" xlink:href="#c"/><use x="871.598868" y="256.543708" xlink:href="#c"/><use x="873.376247" y="255.004073" xlink:href="#c"/><use x="873.939806" y="253.464439" xlink:href="#c"/><use x="875.110276" y="251.924804" xlink:href="#c"/><use x="890.759882" y="250.38517" xlink:href="#c"/><use x="890.889935" y="248.845535" xlink:href="#c"/><use x="896.785631" y="247.305901" xlink:href="#c"/><use x="899.73348" y="245.766266" xlink:href="#c"/><use x="901.250755" y="244.226632" xlink:href="#c"/><use x="906.539541" y="242.686997" xlink:href="#c"/><use x="914.602774" y="241.147363" xlink:href="#c"/><use x="915.816594" y="239.607728" xlink:href="#c"/><use x="921.625589" y="238.068094" xlink:href="#c"/><use x="934.197295" y="236.52846" xlink:href="#c"/><use x="934.977608" y="234.988825" xlink:href="#c"/><use x="936.538234" y="233.449191" xlink:href="#c"/><use x="939.876238" y="231.909556" xlink:href="#c"/><use x="959.080604" y="230.369922" xlink:href="#c"/><use x="968.097552" y="228.830287" xlink:href="#c"/><use x="970.655244" y="227.290653" xlink:href="#c"/><use x="971.218803" y="225.751018" xlink:href="#c"/><use x="971.782362" y="224.211384" xlink:href="#c"/><use x="972.562675" y="222.671749" xlink:href="#c"/><use x="977.1145" y="221.132115" xlink:href="#c"/><use x="982.836794" y="219.59248" xlink:href="#c"/><use x="985.914694" y="218.052846" xlink:href="#c"/><use x="987.692073" y="216.513211" xlink:href="#c"/><use x="990.726623" y="214.973577" xlink:href="#c"/><use x="992.027144" y="213.433943" xlink:href="#c"/><use x="992.764106" y="211.894308" xlink:href="#c"/><use x="1003.515083" y="210.354674" xlink:href="#c"/><use x="1007.936855" y="208.815039" xlink:href="#c"/><use x="1015.653282" y="207.275405" xlink:href="#c"/><use x="1018.427728" y="205.73577" xlink:href="#c"/><use x="1038.022249" y="204.196136" xlink:href="#c"/><use x="1041.10015" y="202.656501" xlink:href="#c"/><use x="1041.837112" y="201.116867" xlink:href="#c"/><use x="1042.487373" y="199.577232" xlink:href="#c"/><use x="1046.128832" y="198.037598" xlink:href="#c"/><use x="1049.120031" y="196.497963" xlink:href="#c"/><use x="1051.200866" y="194.958329" xlink:href="#c"/><use x="1054.53887" y="193.418695" xlink:href="#c"/><use x="1060.651321" y="191.87906" xlink:href="#c"/><use x="1061.041477" y="190.339426" xlink:href="#c"/><use x="1069.841671" y="188.799791" xlink:href="#c"/><use x="1076.777785" y="187.260157" xlink:href="#c"/><use x="1076.951188" y="185.720522" xlink:href="#c"/><use x="1077.254643" y="184.180888" xlink:href="#c"/><use x="1082.283326" y="182.641253" xlink:href="#c"/><use x="1082.716833" y="181.101619" xlink:href="#c"/><use x="1096.459008" y="179.561984" xlink:href="#c"/><use x="1098.149686" y="178.02235" xlink:href="#c"/><use x="1099.493558" y="176.482715" xlink:href="#c"/><use x="1107.51344" y="174.943081" xlink:href="#c"/><use x="1109.117416" y="173.403446" xlink:href="#c"/></g><defs><path id="a" d="m0 0.75c0.1989 0 0.38968-0.079025 0.53033-0.21967s0.21967-0.33143 0.21967-0.53033-0.079025-0.38968-0.21967-0.53033-0.33143-0.21967-0.53033-0.21967-0.38968 0.079025-0.53033 0.21967-0.21967 0.33143-0.21967 0.53033 0.079025 0.38968 0.21967 0.53033 0.33143 0.21967 0.53033 0.21967z" stroke="#00f"/></defs><g clip-path="url(#f)" fill="#0000ff" stroke="#0000ff"><use x="82.606948" y="569.089504" xlink:href="#a"/><use x="83.876793" y="567.549869" xlink:href="#a"/><use x="87.780193" y="566.010235" xlink:href="#a"/><use x="89.703791" y="564.470601" xlink:href="#a"/><use x="90.103039" y="562.930966" xlink:href="#a"/><use x="92.252421" y="561.391332" xlink:href="#a"/><use x="95.388123" y="559.851697" xlink:href="#a"/><use x="98.713604" y="558.312063" xlink:href="#a"/><use x="101.135825" y="556.772428" xlink:href="#a"/><use x="101.688426" y="555.232794" xlink:href="#a"/><use x="102.326163" y="553.693159" xlink:href="#a"/><use x="104.31852" y="552.153525" xlink:href="#a"/><use x="104.806185" y="550.61389" xlink:href="#a"/><use x="104.907247" y="549.074256" xlink:href="#a"/><use x="106.713526" y="547.534621" xlink:href="#a"/><use x="111.729595" y="545.994987" xlink:href="#a"/><use x="111.99867" y="544.455352" xlink:href="#a"/><use x="112.258835" y="542.915718" xlink:href="#a"/><use x="113.2758" y="541.376084" xlink:href="#a"/><use x="113.534068" y="539.836449" xlink:href="#a"/><use x="114.218708" y="538.296815" xlink:href="#a"/><use x="114.635929" y="536.75718" xlink:href="#a"/><use x="115.728698" y="535.217546" xlink:href="#a"/><use x="116.290451" y="533.677911" xlink:href="#a"/><use x="121.134833" y="532.138277" xlink:href="#a"/><use x="122.041706" y="530.598642" xlink:href="#a"/><use x="122.5636" y="529.059008" xlink:href="#a"/><use x="122.664842" y="527.519373" xlink:href="#a"/><use x="123.929147" y="525.979739" xlink:href="#a"/><use x="124.350101" y="524.440104" xlink:href="#a"/><use x="125.585656" y="522.90047" xlink:href="#a"/><use x="127.736875" y="521.360836" xlink:href="#a"/><use x="127.803708" y="519.821201" xlink:href="#a"/><use x="128.081935" y="518.281567" xlink:href="#a"/><use x="128.105386" y="516.741932" xlink:href="#a"/><use x="129.214352" y="515.202298" xlink:href="#a"/><use x="130.115806" y="513.662663" xlink:href="#a"/><use x="131.394561" y="512.123029" xlink:href="#a"/><use x="131.811872" y="510.583394" xlink:href="#a"/><use x="132.272383" y="509.04376" xlink:href="#a"/><use x="132.612024" y="507.504125" xlink:href="#a"/><use x="132.89558" y="505.964491" xlink:href="#a"/><use x="133.459169" y="504.424856" xlink:href="#a"/><use x="135.279869" y="502.885222" xlink:href="#a"/><use x="135.418922" y="501.345587" xlink:href="#a"/><use x="135.763982" y="499.805953" xlink:href="#a"/><use x="135.960776" y="498.266319" xlink:href="#a"/><use x="136.016831" y="496.726684" xlink:href="#a"/><use x="136.063885" y="495.18705" xlink:href="#a"/><use x="136.202938" y="493.647415" xlink:href="#a"/><use x="136.858557" y="492.107781" xlink:href="#a"/><use x="137.550453" y="490.568146" xlink:href="#a"/><use x="137.568395" y="489.028512" xlink:href="#a"/><use x="138.18256" y="487.488877" xlink:href="#a"/><use x="138.332421" y="485.949243" xlink:href="#a"/><use x="138.997162" y="484.409608" xlink:href="#a"/><use x="141.180924" y="482.869974" xlink:href="#a"/><use x="141.710224" y="481.330339" xlink:href="#a"/><use x="142.091349" y="479.790705" xlink:href="#a"/><use x="142.284621" y="478.25107" xlink:href="#a"/><use x="142.293623" y="476.711436" xlink:href="#a"/><use x="143.361104" y="475.171802" xlink:href="#a"/><use x="143.789252" y="473.632167" xlink:href="#a"/><use x="144.105291" y="472.092533" xlink:href="#a"/><use x="144.206503" y="470.552898" xlink:href="#a"/><use x="144.426809" y="469.013264" xlink:href="#a"/><use x="144.988712" y="467.473629" xlink:href="#a"/><use x="145.022881" y="465.933995" xlink:href="#a"/><use x="145.208928" y="464.39436" xlink:href="#a"/><use x="146.332494" y="462.854726" xlink:href="#a"/><use x="146.668552" y="461.315091" xlink:href="#a"/><use x="147.331306" y="459.775457" xlink:href="#a"/><use x="147.76668" y="458.235822" xlink:href="#a"/><use x="147.768486" y="456.696188" xlink:href="#a"/><use x="147.87322" y="455.156554" xlink:href="#a"/><use x="148.362692" y="453.616919" xlink:href="#a"/><use x="148.935403" y="452.077285" xlink:href="#a"/><use x="149.367014" y="450.53765" xlink:href="#a"/><use x="150.886155" y="448.998016" xlink:href="#a"/><use x="151.435294" y="447.458381" xlink:href="#a"/><use x="151.959115" y="445.918747" xlink:href="#a"/><use x="152.009691" y="444.379112" xlink:href="#a"/><use x="152.271572" y="442.839478" xlink:href="#a"/><use x="152.612868" y="441.299843" xlink:href="#a"/><use x="152.623736" y="439.760209" xlink:href="#a"/><use x="152.994144" y="438.220574" xlink:href="#a"/><use x="153.915226" y="436.68094" xlink:href="#a"/><use x="154.041635" y="435.141305" xlink:href="#a"/><use x="154.404848" y="433.601671" xlink:href="#a"/><use x="154.657727" y="432.062037" xlink:href="#a"/><use x="154.672027" y="430.522402" xlink:href="#a"/><use x="154.769566" y="428.982768" xlink:href="#a"/><use x="154.784016" y="427.443133" xlink:href="#a"/><use x="154.784167" y="425.903499" xlink:href="#a"/><use x="154.881646" y="424.363864" xlink:href="#a"/><use x="155.609576" y="422.82423" xlink:href="#a"/><use x="155.987119" y="421.284595" xlink:href="#a"/><use x="156.144145" y="419.744961" xlink:href="#a"/><use x="156.227234" y="418.205326" xlink:href="#a"/><use x="156.35557" y="416.665692" xlink:href="#a"/><use x="157.038283" y="415.126057" xlink:href="#a"/><use x="157.085277" y="413.586423" xlink:href="#a"/><use x="157.114147" y="412.046789" xlink:href="#a"/><use x="157.265935" y="410.507154" xlink:href="#a"/><use x="157.484404" y="408.96752" xlink:href="#a"/><use x="157.5982" y="407.427885" xlink:href="#a"/><use x="158.017347" y="405.888251" xlink:href="#a"/><use x="158.385888" y="404.348616" xlink:href="#a"/><use x="158.479815" y="402.808982" xlink:href="#a"/><use x="158.78321" y="401.269347" xlink:href="#a"/><use x="158.799406" y="399.729713" xlink:href="#a"/><use x="158.999903" y="398.190078" xlink:href="#a"/><use x="159.160782" y="396.650444" xlink:href="#a"/><use x="159.40457" y="395.110809" xlink:href="#a"/><use x="159.44783" y="393.571175" xlink:href="#a"/><use x="159.720579" y="392.03154" xlink:href="#a"/><use x="159.930197" y="390.491906" xlink:href="#a"/><use x="160.000582" y="388.952272" xlink:href="#a"/><use x="160.094629" y="387.412637" xlink:href="#a"/><use x="160.172148" y="385.873003" xlink:href="#a"/><use x="160.304037" y="384.333368" xlink:href="#a"/><use x="160.33661" y="382.793734" xlink:href="#a"/><use x="160.777403" y="381.254099" xlink:href="#a"/><use x="161.035671" y="379.714465" xlink:href="#a"/><use x="161.051957" y="378.17483" xlink:href="#a"/><use x="161.44386" y="376.635196" xlink:href="#a"/><use x="161.525052" y="375.095561" xlink:href="#a"/><use x="161.555849" y="373.555927" xlink:href="#a"/><use x="161.684035" y="372.016292" xlink:href="#a"/><use x="161.709323" y="370.476658" xlink:href="#a"/><use x="161.980325" y="368.937023" xlink:href="#a"/><use x="162.310784" y="367.397389" xlink:href="#a"/><use x="162.366929" y="365.857755" xlink:href="#a"/><use x="162.431804" y="364.31812" xlink:href="#a"/><use x="162.628839" y="362.778486" xlink:href="#a"/><use x="162.713614" y="361.238851" xlink:href="#a"/><use x="162.769609" y="359.699217" xlink:href="#a"/><use x="162.915887" y="358.159582" xlink:href="#a"/><use x="162.973718" y="356.619948" xlink:href="#a"/><use x="163.102024" y="355.080313" xlink:href="#a"/><use x="163.157929" y="353.540679" xlink:href="#a"/><use x="163.414451" y="352.001044" xlink:href="#a"/><use x="163.981592" y="350.46141" xlink:href="#a"/><use x="164.413383" y="348.921775" xlink:href="#a"/><use x="164.772743" y="347.382141" xlink:href="#a"/><use x="164.807152" y="345.842507" xlink:href="#a"/><use x="164.84686" y="344.302872" xlink:href="#a"/><use x="164.920948" y="342.763238" xlink:href="#a"/><use x="165.027488" y="341.223603" xlink:href="#a"/><use x="165.171991" y="339.683969" xlink:href="#a"/><use x="165.733804" y="338.144334" xlink:href="#a"/><use x="165.887217" y="336.6047" xlink:href="#a"/><use x="166.277524" y="335.065065" xlink:href="#a"/><use x="167.505734" y="333.525431" xlink:href="#a"/><use x="167.742417" y="331.985796" xlink:href="#a"/><use x="169.028428" y="330.446162" xlink:href="#a"/><use x="169.53229" y="328.906527" xlink:href="#a"/><use x="169.548576" y="327.366893" xlink:href="#a"/><use x="169.581059" y="325.827258" xlink:href="#a"/><use x="170.030823" y="324.287624" xlink:href="#a"/><use x="170.415651" y="322.74799" xlink:href="#a"/><use x="170.675785" y="321.208355" xlink:href="#a"/><use x="171.07133" y="319.668721" xlink:href="#a"/><use x="171.174198" y="318.129086" xlink:href="#a"/><use x="171.421658" y="316.589452" xlink:href="#a"/><use x="171.568027" y="315.049817" xlink:href="#a"/><use x="171.70705" y="313.510183" xlink:href="#a"/><use x="171.806486" y="311.970548" xlink:href="#a"/><use x="172.653691" y="310.430914" xlink:href="#a"/><use x="172.718717" y="308.891279" xlink:href="#a"/><use x="172.767397" y="307.351645" xlink:href="#a"/><use x="172.787326" y="305.81201" xlink:href="#a"/><use x="172.801716" y="304.272376" xlink:href="#a"/><use x="172.931858" y="302.732742" xlink:href="#a"/><use x="173.262347" y="301.193107" xlink:href="#a"/><use x="173.34357" y="299.653473" xlink:href="#a"/><use x="173.388787" y="298.113838" xlink:href="#a"/><use x="173.948764" y="296.574204" xlink:href="#a"/><use x="174.215973" y="295.034569" xlink:href="#a"/><use x="174.221542" y="293.494935" xlink:href="#a"/><use x="174.544806" y="291.9553" xlink:href="#a"/><use x="174.736181" y="290.415666" xlink:href="#a"/><use x="175.007123" y="288.876031" xlink:href="#a"/><use x="175.820009" y="287.336397" xlink:href="#a"/><use x="176.029568" y="285.796762" xlink:href="#a"/><use x="176.374567" y="284.257128" xlink:href="#a"/><use x="177.118664" y="282.717493" xlink:href="#a"/><use x="177.330059" y="281.177859" xlink:href="#a"/><use x="178.12124" y="279.638225" xlink:href="#a"/><use x="178.177204" y="278.09859" xlink:href="#a"/><use x="178.497006" y="276.558956" xlink:href="#a"/><use x="178.675707" y="275.019321" xlink:href="#a"/><use x="178.782398" y="273.479687" xlink:href="#a"/><use x="179.212202" y="271.940052" xlink:href="#a"/><use x="179.436211" y="270.400418" xlink:href="#a"/><use x="179.898619" y="268.860783" xlink:href="#a"/><use x="179.929235" y="267.321149" xlink:href="#a"/><use x="179.932878" y="265.781514" xlink:href="#a"/><use x="180.279804" y="264.24188" xlink:href="#a"/><use x="180.613845" y="262.702245" xlink:href="#a"/><use x="180.843333" y="261.162611" xlink:href="#a"/><use x="180.864948" y="259.622977" xlink:href="#a"/><use x="180.881265" y="258.083342" xlink:href="#a"/><use x="180.95168" y="256.543708" xlink:href="#a"/><use x="180.973385" y="255.004073" xlink:href="#a"/><use x="181.881824" y="253.464439" xlink:href="#a"/><use x="182.210717" y="251.924804" xlink:href="#a"/><use x="182.317167" y="250.38517" xlink:href="#a"/><use x="182.47624" y="248.845535" xlink:href="#a"/><use x="182.654971" y="247.305901" xlink:href="#a"/><use x="182.685738" y="245.766266" xlink:href="#a"/><use x="182.696576" y="244.226632" xlink:href="#a"/><use x="183.400995" y="242.686997" xlink:href="#a"/><use x="183.829144" y="241.147363" xlink:href="#a"/><use x="183.906753" y="239.607728" xlink:href="#a"/><use x="183.932011" y="238.068094" xlink:href="#a"/><use x="184.482896" y="236.52846" xlink:href="#a"/><use x="184.77729" y="234.988825" xlink:href="#a"/><use x="185.145831" y="233.449191" xlink:href="#a"/><use x="185.171119" y="231.909556" xlink:href="#a"/><use x="185.404189" y="230.369922" xlink:href="#a"/><use x="185.503535" y="228.830287" xlink:href="#a"/><use x="185.689461" y="227.290653" xlink:href="#a"/><use x="185.85031" y="225.751018" xlink:href="#a"/><use x="186.343455" y="224.211384" xlink:href="#a"/><use x="186.415646" y="222.671749" xlink:href="#a"/><use x="186.525829" y="221.132115" xlink:href="#a"/><use x="187.410966" y="219.59248" xlink:href="#a"/><use x="187.472319" y="218.052846" xlink:href="#a"/><use x="187.858803" y="216.513211" xlink:href="#a"/><use x="188.13712" y="214.973577" xlink:href="#a"/><use x="188.17144" y="213.433943" xlink:href="#a"/><use x="188.22909" y="211.894308" xlink:href="#a"/><use x="188.411524" y="210.354674" xlink:href="#a"/><use x="188.548922" y="208.815039" xlink:href="#a"/><use x="188.745837" y="207.275405" xlink:href="#a"/><use x="188.823386" y="205.73577" xlink:href="#a"/><use x="188.973277" y="204.196136" xlink:href="#a"/><use x="189.321889" y="202.656501" xlink:href="#a"/><use x="189.387066" y="201.116867" xlink:href="#a"/><use x="189.551437" y="199.577232" xlink:href="#a"/><use x="189.730259" y="198.037598" xlink:href="#a"/><use x="189.733751" y="196.497963" xlink:href="#a"/><use x="189.92886" y="194.958329" xlink:href="#a"/><use x="190.010142" y="193.418695" xlink:href="#a"/><use x="190.501541" y="191.87906" xlink:href="#a"/><use x="190.5647" y="190.339426" xlink:href="#a"/><use x="190.86087" y="188.799791" xlink:href="#a"/><use x="191.225798" y="187.260157" xlink:href="#a"/><use x="191.24919" y="185.720522" xlink:href="#a"/><use x="191.399141" y="184.180888" xlink:href="#a"/><use x="191.447911" y="182.641253" xlink:href="#a"/><use x="191.540121" y="181.101619" xlink:href="#a"/><use x="191.568961" y="179.561984" xlink:href="#a"/><use x="191.576126" y="178.02235" xlink:href="#a"/><use x="191.709911" y="176.482715" xlink:href="#a"/><use x="191.829156" y="174.943081" xlink:href="#a"/><use x="191.845262" y="173.403446" xlink:href="#a"/><use x="192.165034" y="171.863812" xlink:href="#a"/><use x="192.52635" y="170.324178" xlink:href="#a"/><use x="192.593212" y="168.784543" xlink:href="#a"/><use x="192.755687" y="167.244909" xlink:href="#a"/><use x="192.979606" y="165.705274" xlink:href="#a"/><use x="193.008506" y="164.16564" xlink:href="#a"/><use x="193.425877" y="162.626005" xlink:href="#a"/><use x="193.501771" y="161.086371" xlink:href="#a"/><use x="193.519683" y="159.546736" xlink:href="#a"/><use x="193.537746" y="158.007102" xlink:href="#a"/><use x="193.685861" y="156.467467" xlink:href="#a"/><use x="193.779878" y="154.927833" xlink:href="#a"/><use x="193.871908" y="153.388198" xlink:href="#a"/><use x="194.023635" y="151.848564" xlink:href="#a"/><use x="194.276575" y="150.30893" xlink:href="#a"/><use x="194.296414" y="148.769295" xlink:href="#a"/><use x="194.478938" y="147.229661" xlink:href="#a"/><use x="194.715531" y="145.690026" xlink:href="#a"/><use x="194.767853" y="144.150392" xlink:href="#a"/><use x="194.84194" y="142.610757" xlink:href="#a"/><use x="194.872587" y="141.071123" xlink:href="#a"/><use x="195.407336" y="139.531488" xlink:href="#a"/><use x="195.531879" y="137.991854" xlink:href="#a"/><use x="195.829975" y="136.452219" xlink:href="#a"/><use x="195.91487" y="134.912585" xlink:href="#a"/><use x="196.099051" y="133.37295" xlink:href="#a"/><use x="196.323029" y="131.833316" xlink:href="#a"/><use x="196.353887" y="130.293681" xlink:href="#a"/><use x="196.393534" y="128.754047" xlink:href="#a"/><use x="196.454888" y="127.214413" xlink:href="#a"/><use x="196.577775" y="125.674778" xlink:href="#a"/><use x="196.752954" y="124.135144" xlink:href="#a"/><use x="196.81795" y="122.595509" xlink:href="#a"/><use x="196.836013" y="121.055875" xlink:href="#a"/><use x="197.728375" y="119.51624" xlink:href="#a"/><use x="197.923393" y="117.976606" xlink:href="#a"/><use x="198.067895" y="116.436971" xlink:href="#a"/><use x="198.201711" y="114.897337" xlink:href="#a"/><use x="198.268392" y="113.357702" xlink:href="#a"/><use x="198.552069" y="111.818068" xlink:href="#a"/><use x="198.738115" y="110.278433" xlink:href="#a"/><use x="199.083055" y="108.738799" xlink:href="#a"/><use x="199.298062" y="107.199164" xlink:href="#a"/><use x="199.346741" y="105.65953" xlink:href="#a"/><use x="199.509307" y="104.119896" xlink:href="#a"/><use x="199.545522" y="102.580261" xlink:href="#a"/><use x="199.700893" y="101.040627" xlink:href="#a"/><use x="199.715222" y="99.500992" xlink:href="#a"/><use x="200.110948" y="97.961358" xlink:href="#a"/><use x="200.215622" y="96.421723" xlink:href="#a"/><use x="200.293322" y="94.882089" xlink:href="#a"/><use x="200.329418" y="93.342454" xlink:href="#a"/><use x="200.347481" y="91.80282" xlink:href="#a"/><use x="200.463022" y="90.263185" xlink:href="#a"/><use x="200.580551" y="88.723551" xlink:href="#a"/><use x="200.585849" y="87.183916" xlink:href="#a"/><use x="200.74128" y="85.644282" xlink:href="#a"/><use x="200.815307" y="84.104648" xlink:href="#a"/><use x="200.894723" y="82.565013" xlink:href="#a"/><use x="200.914622" y="81.025379" xlink:href="#a"/><use x="201.304809" y="79.485744" xlink:href="#a"/><use x="201.438534" y="77.94611" xlink:href="#a"/><use x="201.890134" y="76.406475" xlink:href="#a"/><use x="202.135788" y="74.866841" xlink:href="#a"/><use x="202.388546" y="73.327206" xlink:href="#a"/><use x="202.419253" y="71.787572" xlink:href="#a"/><use x="202.431987" y="70.247937" xlink:href="#a"/><use x="202.724484" y="68.708303" xlink:href="#a"/><use x="202.757058" y="67.168668" xlink:href="#a"/><use x="202.840207" y="65.629034" xlink:href="#a"/><use x="203.250112" y="64.089399" xlink:href="#a"/><use x="203.333291" y="62.549765" xlink:href="#a"/><use x="203.533788" y="61.010131" xlink:href="#a"/><use x="203.539267" y="59.470496" xlink:href="#a"/><use x="203.644001" y="57.930862" xlink:href="#a"/><use x="203.716132" y="56.391227" xlink:href="#a"/><use x="203.938334" y="54.851593" xlink:href="#a"/><use x="204.140728" y="53.311958" xlink:href="#a"/><use x="204.209397" y="51.772324" xlink:href="#a"/><use x="204.447796" y="50.232689" xlink:href="#a"/><use x="204.586759" y="48.693055" xlink:href="#a"/><use x="204.861403" y="47.15342" xlink:href="#a"/><use x="204.881303" y="45.613786" xlink:href="#a"/><use x="204.899335" y="44.074151" xlink:href="#a"/><use x="205.175606" y="42.534517" xlink:href="#a"/><use x="205.179279" y="40.994883" xlink:href="#a"/><use x="205.7808" y="39.455248" xlink:href="#a"/><use x="205.79519" y="37.915614" xlink:href="#a"/><use x="205.827823" y="36.375979" xlink:href="#a"/><use x="205.88737" y="34.836345" xlink:href="#a"/><use x="205.945081" y="33.29671" xlink:href="#a"/><use x="205.963204" y="31.757076" xlink:href="#a"/><use x="206.086061" y="30.217441" xlink:href="#a"/><use x="206.405682" y="28.677807" xlink:href="#a"/><use x="206.575473" y="27.138172" xlink:href="#a"/><use x="206.589923" y="25.598538" xlink:href="#a"/><use x="206.889916" y="24.058903" xlink:href="#a"/><use x="206.927787" y="22.519269" xlink:href="#a"/><use x="207.028879" y="20.979634" xlink:href="#a"/><use x="207.050675" y="19.44" xlink:href="#a"/><use x="207.19879" y="17.900366" xlink:href="#a"/><use x="207.361204" y="16.360731" xlink:href="#a"/><use x="207.527412" y="14.821097" xlink:href="#a"/><use x="207.924763" y="13.281462" xlink:href="#a"/><use x="208.175927" y="11.741828" xlink:href="#a"/><use x="208.210276" y="10.202193" xlink:href="#a"/><use x="208.562531" y="8.662559" xlink:href="#a"/><use x="208.761161" y="7.122924" xlink:href="#a"/><use x="208.782746" y="5.58329" xlink:href="#a"/><use x="209.104324" y="4.043655" xlink:href="#a"/><use x="209.256082" y="2.504021" xlink:href="#a"/><use x="209.302955" y="0.964386" xlink:href="#a"/><use x="209.317525" y="-0.575248" xlink:href="#a"/><use x="209.419647" y="-1" xlink:href="#a"/></g><defs><path id="b" d="m0 0.75c0.1989 0 0.38968-0.079025 0.53033-0.21967s0.21967-0.33143 0.21967-0.53033-0.079025-0.38968-0.21967-0.53033-0.33143-0.21967-0.53033-0.21967-0.38968 0.079025-0.53033 0.21967-0.21967 0.33143-0.21967 0.53033 0.079025 0.38968 0.21967 0.53033 0.33143 0.21967 0.53033 0.21967z" stroke="#f00"/></defs><g clip-path="url(#f)" fill="#ff0000" stroke="#ff0000"><use x="85.332684" y="569.089504" xlink:href="#b"/><use x="87.960791" y="567.549869" xlink:href="#b"/><use x="89.19445" y="566.010235" xlink:href="#b"/><use x="91.475721" y="564.470601" xlink:href="#b"/><use x="91.549929" y="562.930966" xlink:href="#b"/><use x="92.808876" y="561.391332" xlink:href="#b"/><use x="94.069539" y="559.851697" xlink:href="#b"/><use x="95.317678" y="558.312063" xlink:href="#b"/><use x="96.097991" y="556.772428" xlink:href="#b"/><use x="96.33645" y="555.232794" xlink:href="#b"/><use x="96.531498" y="553.693159" xlink:href="#b"/><use x="96.629067" y="552.153525" xlink:href="#b"/><use x="96.66155" y="550.61389" xlink:href="#b"/><use x="96.704901" y="549.074256" xlink:href="#b"/><use x="96.791602" y="547.534621" xlink:href="#b"/><use x="97.931485" y="545.994987" xlink:href="#b"/><use x="98.737086" y="544.455352" xlink:href="#b"/><use x="99.224721" y="542.915718" xlink:href="#b"/><use x="99.925588" y="541.376084" xlink:href="#b"/><use x="101.072515" y="539.836449" xlink:href="#b"/><use x="106.722648" y="538.296815" xlink:href="#b"/><use x="108.922576" y="536.75718" xlink:href="#b"/><use x="109.551161" y="535.217546" xlink:href="#b"/><use x="109.74627" y="533.677911" xlink:href="#b"/><use x="110.781328" y="532.138277" xlink:href="#b"/><use x="112.051143" y="530.598642" xlink:href="#b"/><use x="113.507004" y="529.059008" xlink:href="#b"/><use x="116.52888" y="527.519373" xlink:href="#b"/><use x="119.583389" y="525.979739" xlink:href="#b"/><use x="120.237142" y="524.440104" xlink:href="#b"/><use x="120.535208" y="522.90047" xlink:href="#b"/><use x="121.655132" y="521.360836" xlink:href="#b"/><use x="122.700877" y="519.821201" xlink:href="#b"/><use x="123.858733" y="518.281567" xlink:href="#b"/><use x="125.919668" y="516.741932" xlink:href="#b"/><use x="127.153447" y="515.202298" xlink:href="#b"/><use x="128.081935" y="513.662663" xlink:href="#b"/><use x="129.721916" y="512.123029" xlink:href="#b"/><use x="130.370401" y="510.583394" xlink:href="#b"/><use x="130.424619" y="509.04376" xlink:href="#b"/><use x="130.542088" y="507.504125" xlink:href="#b"/><use x="131.07485" y="505.964491" xlink:href="#b"/><use x="132.590409" y="504.424856" xlink:href="#b"/><use x="132.767304" y="502.885222" xlink:href="#b"/><use x="133.222486" y="501.345587" xlink:href="#b"/><use x="133.522419" y="499.805953" xlink:href="#b"/><use x="136.327481" y="498.266319" xlink:href="#b"/><use x="137.79424" y="496.726684" xlink:href="#b"/><use x="138.914073" y="495.18705" xlink:href="#b"/><use x="140.176753" y="493.647415" xlink:href="#b"/><use x="140.830536" y="492.107781" xlink:href="#b"/><use x="141.776997" y="490.568146" xlink:href="#b"/><use x="142.696483" y="489.028512" xlink:href="#b"/><use x="143.263565" y="487.488877" xlink:href="#b"/><use x="144.85857" y="485.949243" xlink:href="#b"/><use x="146.766001" y="484.409608" xlink:href="#b"/><use x="146.934015" y="482.869974" xlink:href="#b"/><use x="147.148963" y="481.330339" xlink:href="#b"/><use x="148.068389" y="479.790705" xlink:href="#b"/><use x="148.872153" y="478.25107" xlink:href="#b"/><use x="149.311079" y="476.711436" xlink:href="#b"/><use x="150.324432" y="475.171802" xlink:href="#b"/><use x="150.779585" y="473.632167" xlink:href="#b"/><use x="154.769686" y="472.092533" xlink:href="#b"/><use x="155.380089" y="470.552898" xlink:href="#b"/><use x="155.965323" y="469.013264" xlink:href="#b"/><use x="156.328476" y="467.473629" xlink:href="#b"/><use x="158.539332" y="465.933995" xlink:href="#b"/><use x="162.653977" y="464.39436" xlink:href="#b"/><use x="164.975136" y="462.854726" xlink:href="#b"/><use x="167.036071" y="461.315091" xlink:href="#b"/><use x="168.141575" y="459.775457" xlink:href="#b"/><use x="168.921797" y="458.235822" xlink:href="#b"/><use x="169.669567" y="456.696188" xlink:href="#b"/><use x="169.712918" y="455.156554" xlink:href="#b"/><use x="170.574513" y="453.616919" xlink:href="#b"/><use x="170.610669" y="452.077285" xlink:href="#b"/><use x="172.138902" y="450.53765" xlink:href="#b"/><use x="172.611996" y="448.998016" xlink:href="#b"/><use x="175.700735" y="447.458381" xlink:href="#b"/><use x="177.270422" y="445.918747" xlink:href="#b"/><use x="178.428307" y="444.379112" xlink:href="#b"/><use x="179.150789" y="442.839478" xlink:href="#b"/><use x="179.954553" y="441.299843" xlink:href="#b"/><use x="183.545527" y="439.760209" xlink:href="#b"/><use x="184.813445" y="438.220574" xlink:href="#b"/><use x="184.894728" y="436.68094" xlink:href="#b"/><use x="185.050098" y="435.141305" xlink:href="#b"/><use x="186.195219" y="433.601671" xlink:href="#b"/><use x="188.138776" y="432.062037" xlink:href="#b"/><use x="189.043843" y="430.522402" xlink:href="#b"/><use x="189.283958" y="428.982768" xlink:href="#b"/><use x="192.016859" y="427.443133" xlink:href="#b"/><use x="193.5848" y="425.903499" xlink:href="#b"/><use x="194.256736" y="424.363864" xlink:href="#b"/><use x="195.94925" y="422.82423" xlink:href="#b"/><use x="198.183588" y="421.284595" xlink:href="#b"/><use x="199.120956" y="419.744961" xlink:href="#b"/><use x="199.457015" y="418.205326" xlink:href="#b"/><use x="199.903136" y="416.665692" xlink:href="#b"/><use x="201.584812" y="415.126057" xlink:href="#b"/><use x="203.654869" y="413.586423" xlink:href="#b"/><use x="205.636207" y="412.046789" xlink:href="#b"/><use x="205.665108" y="410.507154" xlink:href="#b"/><use x="207.536443" y="408.96752" xlink:href="#b"/><use x="207.89225" y="407.427885" xlink:href="#b"/><use x="210.180807" y="405.888251" xlink:href="#b"/><use x="212.942638" y="404.348616" xlink:href="#b"/><use x="213.369011" y="402.808982" xlink:href="#b"/><use x="215.336019" y="401.269347" xlink:href="#b"/><use x="216.681697" y="399.729713" xlink:href="#b"/><use x="216.799076" y="398.190078" xlink:href="#b"/><use x="218.424727" y="396.650444" xlink:href="#b"/><use x="219.017127" y="395.110809" xlink:href="#b"/><use x="219.024382" y="393.571175" xlink:href="#b"/><use x="223.399312" y="392.03154" xlink:href="#b"/><use x="224.302391" y="390.491906" xlink:href="#b"/><use x="224.723315" y="388.952272" xlink:href="#b"/><use x="226.953919" y="387.412637" xlink:href="#b"/><use x="228.164127" y="385.873003" xlink:href="#b"/><use x="228.408035" y="384.333368" xlink:href="#b"/><use x="230.246888" y="382.793734" xlink:href="#b"/><use x="232.417915" y="381.254099" xlink:href="#b"/><use x="233.350076" y="379.714465" xlink:href="#b"/><use x="233.942415" y="378.17483" xlink:href="#b"/><use x="235.387439" y="376.635196" xlink:href="#b"/><use x="236.314061" y="375.095561" xlink:href="#b"/><use x="236.561611" y="373.555927" xlink:href="#b"/><use x="237.648901" y="372.016292" xlink:href="#b"/><use x="239.476947" y="370.476658" xlink:href="#b"/><use x="240.605781" y="368.937023" xlink:href="#b"/><use x="240.62568" y="367.397389" xlink:href="#b"/><use x="243.047871" y="365.857755" xlink:href="#b"/><use x="246.36974" y="364.31812" xlink:href="#b"/><use x="247.585246" y="362.778486" xlink:href="#b"/><use x="249.644404" y="361.238851" xlink:href="#b"/><use x="250.744489" y="359.699217" xlink:href="#b"/><use x="251.499574" y="358.159582" xlink:href="#b"/><use x="251.965534" y="356.619948" xlink:href="#b"/><use x="254.667819" y="355.080313" xlink:href="#b"/><use x="256.105467" y="353.540679" xlink:href="#b"/><use x="259.224942" y="352.001044" xlink:href="#b"/><use x="261.444859" y="350.46141" xlink:href="#b"/><use x="261.979518" y="348.921775" xlink:href="#b"/><use x="262.749084" y="347.382141" xlink:href="#b"/><use x="262.841114" y="345.842507" xlink:href="#b"/><use x="264.316934" y="344.302872" xlink:href="#b"/><use x="264.577009" y="342.763238" xlink:href="#b"/><use x="267.730682" y="341.223603" xlink:href="#b"/><use x="268.543659" y="339.683969" xlink:href="#b"/><use x="268.583277" y="338.144334" xlink:href="#b"/><use x="269.430392" y="336.6047" xlink:href="#b"/><use x="270.969492" y="335.065065" xlink:href="#b"/><use x="272.062171" y="333.525431" xlink:href="#b"/><use x="274.979283" y="331.985796" xlink:href="#b"/><use x="276.245545" y="330.446162" xlink:href="#b"/><use x="277.721336" y="328.906527" xlink:href="#b"/><use x="278.004831" y="327.366893" xlink:href="#b"/><use x="282.571166" y="325.827258" xlink:href="#b"/><use x="284.139017" y="324.287624" xlink:href="#b"/><use x="285.172209" y="322.74799" xlink:href="#b"/><use x="287.014614" y="321.208355" xlink:href="#b"/><use x="288.020622" y="319.668721" xlink:href="#b"/><use x="291.864475" y="318.129086" xlink:href="#b"/><use x="294.333569" y="316.589452" xlink:href="#b"/><use x="294.992861" y="315.049817" xlink:href="#b"/><use x="295.005535" y="313.510183" xlink:href="#b"/><use x="297.810687" y="311.970548" xlink:href="#b"/><use x="299.864488" y="310.430914" xlink:href="#b"/><use x="299.93126" y="308.891279" xlink:href="#b"/><use x="301.040406" y="307.351645" xlink:href="#b"/><use x="301.556881" y="305.81201" xlink:href="#b"/><use x="302.241552" y="304.272376" xlink:href="#b"/><use x="305.635461" y="302.732742" xlink:href="#b"/><use x="306.849281" y="301.193107" xlink:href="#b"/><use x="306.908978" y="299.653473" xlink:href="#b"/><use x="306.941461" y="298.113838" xlink:href="#b"/><use x="310.093509" y="296.574204" xlink:href="#b"/><use x="313.088231" y="295.034569" xlink:href="#b"/><use x="314.179254" y="293.494935" xlink:href="#b"/><use x="317.192098" y="291.9553" xlink:href="#b"/><use x="318.722077" y="290.415666" xlink:href="#b"/><use x="320.689146" y="288.876031" xlink:href="#b"/><use x="322.26952" y="287.336397" xlink:href="#b"/><use x="330.208119" y="285.796762" xlink:href="#b"/><use x="331.609762" y="284.257128" xlink:href="#b"/><use x="331.944074" y="282.717493" xlink:href="#b"/><use x="332.476806" y="281.177859" xlink:href="#b"/><use x="335.242221" y="279.638225" xlink:href="#b"/><use x="341.573321" y="278.09859" xlink:href="#b"/><use x="344.165212" y="276.558956" xlink:href="#b"/><use x="345.949846" y="275.019321" xlink:href="#b"/><use x="348.070539" y="273.479687" xlink:href="#b"/><use x="348.119309" y="271.940052" xlink:href="#b"/><use x="350.236118" y="270.400418" xlink:href="#b"/><use x="353.140736" y="268.860783" xlink:href="#b"/><use x="357.80452" y="267.321149" xlink:href="#b"/><use x="359.690185" y="265.781514" xlink:href="#b"/><use x="360.017273" y="264.24188" xlink:href="#b"/><use x="362.244265" y="262.702245" xlink:href="#b"/><use x="368.087579" y="261.162611" xlink:href="#b"/><use x="370.29675" y="259.622977" xlink:href="#b"/><use x="370.880088" y="258.083342" xlink:href="#b"/><use x="372.903121" y="256.543708" xlink:href="#b"/><use x="383.446375" y="255.004073" xlink:href="#b"/><use x="385.046739" y="253.464439" xlink:href="#b"/><use x="389.555243" y="251.924804" xlink:href="#b"/><use x="396.644861" y="250.38517" xlink:href="#b"/><use x="396.88341" y="248.845535" xlink:href="#b"/><use x="398.380786" y="247.305901" xlink:href="#b"/><use x="399.077919" y="245.766266" xlink:href="#b"/><use x="401.6898" y="244.226632" xlink:href="#b"/><use x="406.738351" y="242.686997" xlink:href="#b"/><use x="409.4388" y="241.147363" xlink:href="#b"/><use x="413.027817" y="239.607728" xlink:href="#b"/><use x="415.664985" y="238.068094" xlink:href="#b"/><use x="420.951966" y="236.52846" xlink:href="#b"/><use x="427.942328" y="234.988825" xlink:href="#b"/><use x="428.514919" y="233.449191" xlink:href="#b"/><use x="440.978248" y="231.909556" xlink:href="#b"/><use x="443.254161" y="230.369922" xlink:href="#b"/><use x="451.593754" y="228.830287" xlink:href="#b"/><use x="454.364617" y="227.290653" xlink:href="#b"/><use x="465.881396" y="225.751018" xlink:href="#b"/><use x="469.159884" y="224.211384" xlink:href="#b"/><use x="472.277462" y="222.671749" xlink:href="#b"/><use x="473.48219" y="221.132115" xlink:href="#b"/><use x="475.239731" y="219.59248" xlink:href="#b"/><use x="476.92511" y="218.052846" xlink:href="#b"/><use x="477.32779" y="216.513211" xlink:href="#b"/><use x="480.63867" y="214.973577" xlink:href="#b"/><use x="481.940998" y="213.433943" xlink:href="#b"/><use x="483.328221" y="211.894308" xlink:href="#b"/><use x="493.918529" y="210.354674" xlink:href="#b"/><use x="518.391721" y="208.815039" xlink:href="#b"/><use x="524.354311" y="207.275405" xlink:href="#b"/><use x="525.008184" y="205.73577" xlink:href="#b"/><use x="526.774725" y="204.196136" xlink:href="#b"/><use x="530.977968" y="202.656501" xlink:href="#b"/><use x="533.438121" y="201.116867" xlink:href="#b"/><use x="534.449668" y="199.577232" xlink:href="#b"/><use x="535.107063" y="198.037598" xlink:href="#b"/><use x="536.281265" y="196.497963" xlink:href="#b"/><use x="542.229254" y="194.958329" xlink:href="#b"/><use x="544.185395" y="193.418695" xlink:href="#b"/><use x="549.167204" y="191.87906" xlink:href="#b"/><use x="549.28097" y="190.339426" xlink:href="#b"/><use x="552.897141" y="188.799791" xlink:href="#b"/><use x="562.177897" y="187.260157" xlink:href="#b"/><use x="569.684704" y="185.720522" xlink:href="#b"/><use x="569.850852" y="184.180888" xlink:href="#b"/><use x="570.457732" y="182.641253" xlink:href="#b"/><use x="575.098155" y="181.101619" xlink:href="#b"/><use x="584.201744" y="179.561984" xlink:href="#b"/><use x="595.409709" y="178.02235" xlink:href="#b"/><use x="597.134676" y="176.482715" xlink:href="#b"/><use x="601.081427" y="174.943081" xlink:href="#b"/><use x="602.68721" y="173.403446" xlink:href="#b"/><use x="605.085979" y="171.863812" xlink:href="#b"/><use x="613.617068" y="170.324178" xlink:href="#b"/><use x="616.546824" y="168.784543" xlink:href="#b"/><use x="619.399029" y="167.244909" xlink:href="#b"/><use x="626.309735" y="165.705274" xlink:href="#b"/><use x="634.943842" y="164.16564" xlink:href="#b"/><use x="646.957348" y="162.626005" xlink:href="#b"/><use x="649.894449" y="161.086371" xlink:href="#b"/><use x="651.993225" y="159.546736" xlink:href="#b"/><use x="652.665282" y="158.007102" xlink:href="#b"/><use x="657.484376" y="156.467467" xlink:href="#b"/><use x="662.709882" y="154.927833" xlink:href="#b"/><use x="664.160325" y="153.388198" xlink:href="#b"/><use x="670.968313" y="151.848564" xlink:href="#b"/><use x="673.352572" y="150.30893" xlink:href="#b"/><use x="676.018521" y="148.769295" xlink:href="#b"/><use x="679.763089" y="147.229661" xlink:href="#b"/><use x="682.109386" y="145.690026" xlink:href="#b"/><use x="685.100495" y="144.150392" xlink:href="#b"/><use x="690.037057" y="142.610757" xlink:href="#b"/><use x="693.918902" y="141.071123" xlink:href="#b"/><use x="694.836432" y="139.531488" xlink:href="#b"/><use x="695.540911" y="137.991854" xlink:href="#b"/><use x="704.684239" y="136.452219" xlink:href="#b"/><use x="710.00006" y="134.912585" xlink:href="#b"/><use x="717.205369" y="133.37295" xlink:href="#b"/><use x="720.716867" y="131.833316" xlink:href="#b"/><use x="729.471844" y="130.293681" xlink:href="#b"/><use x="730.103982" y="128.754047" xlink:href="#b"/><use x="730.280967" y="127.214413" xlink:href="#b"/><use x="730.701891" y="125.674778" xlink:href="#b"/><use x="740.668942" y="124.135144" xlink:href="#b"/><use x="743.65114" y="122.595509" xlink:href="#b"/><use x="748.598479" y="121.055875" xlink:href="#b"/><use x="749.405917" y="119.51624" xlink:href="#b"/><use x="750.552904" y="117.976606" xlink:href="#b"/><use x="754.534005" y="116.436971" xlink:href="#b"/><use x="767.09671" y="114.897337" xlink:href="#b"/><use x="794.279352" y="113.357702" xlink:href="#b"/><use x="795.594293" y="111.818068" xlink:href="#b"/><use x="798.072509" y="110.278433" xlink:href="#b"/><use x="813.342827" y="108.738799" xlink:href="#b"/><use x="825.578626" y="107.199164" xlink:href="#b"/><use x="837.525209" y="105.65953" xlink:href="#b"/><use x="838.045538" y="104.119896" xlink:href="#b"/><use x="838.079857" y="102.580261" xlink:href="#b"/><use x="842.797739" y="101.040627" xlink:href="#b"/><use x="850.050042" y="99.500992" xlink:href="#b"/><use x="854.713766" y="97.961358" xlink:href="#b"/><use x="855.420142" y="96.421723" xlink:href="#b"/><use x="863.57724" y="94.882089" xlink:href="#b"/><use x="865.705008" y="93.342454" xlink:href="#b"/><use x="873.025949" y="91.80282" xlink:href="#b"/><use x="887.427387" y="90.263185" xlink:href="#b"/><use x="888.019846" y="88.723551" xlink:href="#b"/><use x="896.325181" y="87.183916" xlink:href="#b"/><use x="898.046505" y="85.644282" xlink:href="#b"/><use x="904.213053" y="84.104648" xlink:href="#b"/><use x="914.317532" y="82.565013" xlink:href="#b"/><use x="916.741409" y="81.025379" xlink:href="#b"/><use x="924.461508" y="79.485744" xlink:href="#b"/><use x="925.328553" y="77.94611" xlink:href="#b"/><use x="928.319661" y="76.406475" xlink:href="#b"/><use x="935.557484" y="74.866841" xlink:href="#b"/><use x="935.824753" y="73.327206" xlink:href="#b"/><use x="941.068383" y="71.787572" xlink:href="#b"/><use x="945.898465" y="70.247937" xlink:href="#b"/><use x="947.636016" y="68.708303" xlink:href="#b"/><use x="952.924803" y="67.168668" xlink:href="#b"/><use x="958.658085" y="65.629034" xlink:href="#b"/><use x="965.196757" y="64.089399" xlink:href="#b"/><use x="972.134647" y="62.549765" xlink:href="#b"/><use x="978.973282" y="61.010131" xlink:href="#b"/><use x="986.171246" y="59.470496" xlink:href="#b"/><use x="994.810742" y="57.930862" xlink:href="#b"/><use x="996.691019" y="56.391227" xlink:href="#b"/><use x="1002.263452" y="54.851593" xlink:href="#b"/><use x="1015.33914" y="53.311958" xlink:href="#b"/><use x="1019.32018" y="51.772324" xlink:href="#b"/><use x="1021.243808" y="50.232689" xlink:href="#b"/><use x="1026.888402" y="48.693055" xlink:href="#b"/><use x="1028.548373" y="47.15342" xlink:href="#b"/><use x="1034.996851" y="45.613786" xlink:href="#b"/><use x="1048.744446" y="44.074151" xlink:href="#b"/><use x="1049.437937" y="42.534517" xlink:href="#b"/><use x="1052.891634" y="40.994883" xlink:href="#b"/><use x="1053.801908" y="39.455248" xlink:href="#b"/><use x="1055.985791" y="37.915614" xlink:href="#b"/><use x="1058.436942" y="36.375979" xlink:href="#b"/><use x="1060.566576" y="34.836345" xlink:href="#b"/><use x="1069.825535" y="33.29671" xlink:href="#b"/><use x="1071.382518" y="31.757076" xlink:href="#b"/><use x="1072.419353" y="30.217441" xlink:href="#b"/><use x="1074.427966" y="28.677807" xlink:href="#b"/><use x="1076.165487" y="27.138172" xlink:href="#b"/><use x="1076.394884" y="25.598538" xlink:href="#b"/><use x="1079.167523" y="24.058903" xlink:href="#b"/><use x="1079.171106" y="22.519269" xlink:href="#b"/><use x="1083.273317" y="20.979634" xlink:href="#b"/><use x="1085.332356" y="19.44" xlink:href="#b"/><use x="1089.802898" y="17.900366" xlink:href="#b"/><use x="1090.996819" y="16.360731" xlink:href="#b"/><use x="1093.26379" y="14.821097" xlink:href="#b"/><use x="1093.641242" y="13.281462" xlink:href="#b"/><use x="1094.374652" y="11.741828" xlink:href="#b"/><use x="1094.596884" y="10.202193" xlink:href="#b"/><use x="1096.690212" y="8.662559" xlink:href="#b"/><use x="1099.063664" y="7.122924" xlink:href="#b"/><use x="1099.715821" y="5.58329" xlink:href="#b"/><use x="1101.567167" y="4.043655" xlink:href="#b"/><use x="1105.531951" y="2.504021" xlink:href="#b"/><use x="1106.850655" y="0.964386" xlink:href="#b"/><use x="1112.108766" y="-0.575248" xlink:href="#b"/></g><path d="m55.296 609.12v-589.68" fill="none" stroke="#000" stroke-linecap="square" stroke-width=".8"/><path d="m1140.5 609.12v-589.68" fill="none" stroke="#000" stroke-linecap="square" stroke-width=".8"/><path d="m55.296 609.12h1085.2" fill="none" stroke="#000" stroke-linecap="square" stroke-width=".8"/><path d="m55.296 19.44h1085.2" fill="none" stroke="#000" stroke-linecap="square" stroke-width=".8"/><g transform="translate(153.12 13.44) scale(.12 -.12)"><defs><path id="as" transform="scale(.015625)" d="m1259 4147v-1753h794q441 0 681 228 241 228 241 650 0 419-241 647-240 228-681 228h-794zm-631 519h1425q785 0 1186-355 402-355 402-1039 0-691-402-1044-401-353-1186-353h-794v-1875h-631v4666z"/><path id="z" transform="scale(.015625)" d="m1991 3584q750 0 1178-488 428-487 428-1349 0-859-428-1349-428-489-1178-489-753 0-1169 475t-438 1363l-18 716q-16 371-16 500 0 500 181 868 285 578 777 828t1317 257q381 3 550 56l159-456q-153-63-293-66l-782-53q-393-28-631-166-622-365-681-843l-22-175q406 371 1066 371zm0-487q-463 0-732-361-268-361-268-989t267-989 733-361q459 0 728 362 269 363 269 988 0 622-269 986t-728 364z"/><path id="ai" transform="scale(.015625)" d="m3578 3500v-3500h-572v2809l-1687-2809h-738v3500h572v-2803l1685 2803h740zm-2476 1333h369q34-234 185-352 152-117 424-117 269 0 419 116t190 353h369q-31-447-278-672t-700-225-700 225-278 672z"/><path id="aq" transform="scale(.015625)" d="m684 794h660v-794h-660v794z"/><path id="ah" transform="scale(.015625)" d="m2781 1038q0 281-205 428-204 147-598 147h-819v-1154h819q394 0 598 148 205 149 205 431zm-2200 2462h578v-1428h844q669 0 1030-255 361-254 361-779t-361-782q-361-256-1030-256h-1422v3500z"/><path id="ab" transform="scale(.015625)" d="m581 3500h578v-1428h1866v1428h578v-3500h-578v1613h-1866v-1613h-578v3500z"/><path id="ar" transform="scale(.015625)" d="m3513 3500-1266-1703 1331-1797h-678l-1019 1375-1018-1375h-679l1360 1831-1244 1669h678l928-1247 928 1247h679z"/><path id="an" transform="scale(.015625)" d="m628 4666h631v-1913h2294v1913h631v-4666h-631v2222h-2294v-2222h-631v4666z"/></defs><use xlink:href="#as"/><use x="60.302734" xlink:href="#g"/><use x="121.484375" xlink:href="#h"/><use x="176.464844" xlink:href="#x"/><use x="234.716797" xlink:href="#DejaVuSans-20"/><use x="266.503906" xlink:href="#ad"/><use x="325.585938" xlink:href="#q"/><use x="390.576172" xlink:href="#h"/><use x="445.556641" xlink:href="#v"/><use x="509.472656" xlink:href="#k"/><use x="570.751953" xlink:href="#DejaVuSans-20"/><use x="602.539062" xlink:href="#ac"/><use x="655.712891" xlink:href="#k"/><use x="716.992188" xlink:href="#t"/><use x="782.373047" xlink:href="#o"/><use x="841.552734" xlink:href="#h"/><use x="896.533203" xlink:href="#i"/><use x="956.933594" xlink:href="#g"/><use x="1018.115234" xlink:href="#u"/><use x="1077.050781" xlink:href="#DejaVuSans-20"/><use x="1108.837891" xlink:href="#u"/><use x="1167.773438" xlink:href="#DejaVuSans-20"/><use x="1199.560547" xlink:href="#y"/><use x="1252.099609" xlink:href="#v"/><use x="1316.015625" xlink:href="#o"/><use x="1375.195312" xlink:href="#z"/><use x="1436.865234" xlink:href="#g"/><use x="1498.046875" xlink:href="#i"/><use x="1558.447266" xlink:href="#q"/><use x="1623.4375" xlink:href="#ai"/><use x="1688.427734" xlink:href="#DejaVuSans-20"/><use x="1720.214844" xlink:href="#i"/><use x="1780.615234" xlink:href="#g"/><use x="1841.796875" xlink:href="#h"/><use x="1896.777344" xlink:href="#ae"/><use x="1972.216797" xlink:href="#g"/><use x="2033.398438" xlink:href="#h"/><use x="2088.378906" xlink:href="#aq"/><use x="2120.166016" xlink:href="#DejaVuSans-20"/><use x="2151.953125" xlink:href="#ao"/><use x="2220.556641" xlink:href="#h"/><use x="2275.537109" xlink:href="#r"/><use x="2337.060547" xlink:href="#y"/><use x="2389.599609" xlink:href="#g"/><use x="2450.78125" xlink:href="#DejaVuSans-20"/><use x="2482.568359" xlink:href="#n"/><use x="2546.191406" xlink:href="#p"/><use x="2609.814453" xlink:href="#l"/><use x="2673.4375" xlink:href="#ag"/><use x="2737.060547" xlink:href="#DejaVuSans-20"/><use x="2768.847656" xlink:href="#g"/><use x="2830.029297" xlink:href="#aa"/><use x="2893.505859" xlink:href="#z"/><use x="2955.175781" xlink:href="#q"/><use x="3020.166016" xlink:href="#x"/><use x="3078.417969" xlink:href="#k"/><use x="3139.697266" xlink:href="#v"/><use x="3203.613281" xlink:href="#ah"/><use x="3262.548828" xlink:href="#ab"/><use x="3327.929688" xlink:href="#w"/><use x="3406.884766" xlink:href="#ar"/><use x="3466.064453" xlink:href="#DejaVuSans-20"/><use x="3497.851562" xlink:href="#ac"/><use x="3551.025391" xlink:href="#k"/><use x="3612.304688" xlink:href="#t"/><use x="3677.685547" xlink:href="#o"/><use x="3736.865234" xlink:href="#h"/><use x="3791.845703" xlink:href="#i"/><use x="3852.246094" xlink:href="#g"/><use x="3913.427734" xlink:href="#u"/><use x="3972.363281" xlink:href="#al"/><use x="4004.150391" xlink:href="#DejaVuSans-20"/><use x="4035.9375" xlink:href="#ak"/><use x="4099.560547" xlink:href="#ag"/><use x="4163.183594" xlink:href="#m"/><use x="4226.806641" xlink:href="#DejaVuSans-20"/><use x="4258.59375" xlink:href="#ab"/><use x="4323.974609" xlink:href="#r"/><use x="4385.498047" xlink:href="#o"/><use x="4444.677734" xlink:href="#af"/><use x="4513.818359" xlink:href="#k"/><use x="4575.097656" xlink:href="#ad"/><use x="4634.179688" xlink:href="#al"/><use x="4665.966797" xlink:href="#DejaVuSans-20"/><use x="4697.753906" xlink:href="#l"/><use x="4761.376953" xlink:href="#n"/><use x="4825" xlink:href="#aj"/><use x="4888.623047" xlink:href="#DejaVuSans-20"/><use x="4920.410156" xlink:href="#ac"/><use x="4973.583984" xlink:href="#k"/><use x="5034.863281" xlink:href="#t"/><use x="5100.244141" xlink:href="#o"/><use x="5159.423828" xlink:href="#h"/><use x="5214.404297" xlink:href="#i"/><use x="5274.804688" xlink:href="#g"/><use x="5335.986328" xlink:href="#u"/><use x="5394.921875" xlink:href="#DejaVuSans-20"/><use x="5426.708984" xlink:href="#u"/><use x="5485.644531" xlink:href="#DejaVuSans-20"/><use x="5517.431641" xlink:href="#y"/><use x="5569.970703" xlink:href="#v"/><use x="5633.886719" xlink:href="#o"/><use x="5693.066406" xlink:href="#z"/><use x="5754.736328" xlink:href="#g"/><use x="5815.917969" xlink:href="#i"/><use x="5876.318359" xlink:href="#q"/><use x="5941.308594" xlink:href="#ai"/><use x="6006.298828" xlink:href="#DejaVuSans-20"/><use x="6038.085938" xlink:href="#i"/><use x="6098.486328" xlink:href="#g"/><use x="6159.667969" xlink:href="#h"/><use x="6214.648438" xlink:href="#ae"/><use x="6290.087891" xlink:href="#g"/><use x="6351.269531" xlink:href="#h"/><use x="6406.25" xlink:href="#aq"/><use x="6438.037109" xlink:href="#DejaVuSans-20"/><use x="6469.824219" xlink:href="#an"/><use x="6545.019531" xlink:href="#g"/><use x="6606.201172" xlink:href="#am"/><use x="6666.357422" xlink:href="#z"/><use x="6728.027344" xlink:href="#aa"/><use x="6791.503906" xlink:href="#ah"/><use x="6850.439453" xlink:href="#DejaVuSans-20"/><use x="6882.226562" xlink:href="#l"/><use x="6945.849609" xlink:href="#e"/><use x="7009.472656" xlink:href="#l"/><use x="7073.095703" xlink:href="#l"/><use x="7136.71875" xlink:href="#DejaVuSans-20"/><use x="7168.505859" xlink:href="#y"/><use x="7221.044922" xlink:href="#g"/><use x="7282.226562" xlink:href="#af"/><use x="7351.367188" xlink:href="#k"/></g><path d="m867.37 602.62h264.01q2.6 0 2.6-2.6v-56.388q0-2.6-2.6-2.6h-264.01q-2.6 0-2.6 2.6v56.388q0 2.6 2.6 2.6z" fill="#fff" opacity=".8" stroke="#ccc"/><use x="882.96625" y="551.781875" stroke="#000000" xlink:href="#c"/><g transform="translate(906.37 556.33) scale(.13 -.13)"><defs><path id="av" transform="scale(.015625)" d="m1828 4750q769 0 1256-327 488-326 488-882 0-388-222-655t-631-370q453-97 707-404 255-306 255-756 0-718-555-1083-554-364-1298-364-381 0-825 103-444 104-581 191v650q478-278 742-345t652-67q587 0 912 225t325 690q0 413-289 645-289 233-898 233h-638v519h663q559 0 806 186t247 536q0 359-255 551-255 193-873 193-419 0-563-38-144-37-784-278v616q353 125 721 178 369 53 638 53z"/></defs><use xlink:href="#av"/><use x="64.111328" xlink:href="#k"/><use x="125.390625" xlink:href="#t"/><use x="190.771484" xlink:href="#o"/><use x="249.951172" xlink:href="#h"/><use x="304.931641" xlink:href="#i"/><use x="365.332031" xlink:href="#q"/><use x="430.322266" xlink:href="#DejaVuSans-20"/><use x="462.109375" xlink:href="#u"/><use x="521.044922" xlink:href="#DejaVuSans-20"/><use x="552.832031" xlink:href="#y"/><use x="605.371094" xlink:href="#v"/><use x="669.287109" xlink:href="#o"/><use x="728.466797" xlink:href="#z"/><use x="790.136719" xlink:href="#g"/><use x="851.318359" xlink:href="#i"/><use x="911.71875" xlink:href="#q"/><use x="976.708984" xlink:href="#ai"/><use x="1041.699219" xlink:href="#DejaVuSans-20"/><use x="1073.486328" xlink:href="#i"/><use x="1133.886719" xlink:href="#g"/><use x="1195.068359" xlink:href="#h"/><use x="1250.048828" xlink:href="#ae"/><use x="1325.488281" xlink:href="#g"/><use x="1386.669922" xlink:href="#h"/></g><use x="882.96625" y="571.084844" fill="#0000ff" stroke="#0000ff" xlink:href="#a"/><g transform="translate(906.37 575.63) scale(.13 -.13)"><defs><path id="at" transform="scale(.015625)" d="m2522 4238q-688 0-1093-513-404-512-404-1397 0-881 404-1394 405-512 1093-512 687 0 1089 512 402 513 402 1394 0 885-402 1397-402 513-1089 513zm0 512q981 0 1568-658 588-658 588-1764 0-1103-588-1761-587-658-1568-658-984 0-1574 656-589 657-589 1763t589 1764q590 658 1574 658z"/></defs><use xlink:href="#at"/><use x="78.710938" xlink:href="#aa"/><use x="142.1875" xlink:href="#z"/><use x="203.857422" xlink:href="#q"/><use x="268.847656" xlink:href="#x"/><use x="327.099609" xlink:href="#k"/><use x="388.378906" xlink:href="#v"/><use x="452.294922" xlink:href="#ah"/><use x="511.230469" xlink:href="#ab"/><use x="576.611328" xlink:href="#w"/><use x="655.566406" xlink:href="#r"/><use x="717.089844" xlink:href="#DejaVuSans-20"/><use x="748.876953" xlink:href="#aa"/><use x="812.353516" xlink:href="#k"/><use x="873.632812" xlink:href="#i"/><use x="934.033203" xlink:href="#r"/><use x="995.556641" xlink:href="#x"/><use x="1053.808594" xlink:href="#ab"/><use x="1119.189453" xlink:href="#w"/><use x="1198.144531" xlink:href="#r"/><use x="1259.667969" xlink:href="#DejaVuSans-20"/><use x="1291.455078" xlink:href="#ac"/><use x="1344.628906" xlink:href="#k"/><use x="1405.908203" xlink:href="#t"/><use x="1471.289062" xlink:href="#o"/><use x="1530.46875" xlink:href="#h"/><use x="1585.449219" xlink:href="#i"/><use x="1645.849609" xlink:href="#q"/></g><use x="882.96625" y="590.166406" fill="#ff0000" stroke="#ff0000" xlink:href="#b"/><g transform="translate(906.37 594.72) scale(.13 -.13)"><use xlink:href="#an"/><use x="75.195312" xlink:href="#r"/><use x="136.71875" xlink:href="#o"/><use x="195.898438" xlink:href="#af"/><use x="265.039062" xlink:href="#k"/><use x="326.318359" xlink:href="#ad"/><use x="385.400391" xlink:href="#ab"/><use x="450.78125" xlink:href="#w"/><use x="529.736328" xlink:href="#r"/><use x="591.259766" xlink:href="#DejaVuSans-20"/><use x="623.046875" xlink:href="#t"/><use x="688.427734" xlink:href="#g"/><use x="749.609375" xlink:href="#t"/><use x="814.990234" xlink:href="#w"/><use x="893.945312" xlink:href="#x"/><use x="952.197266" xlink:href="#i"/><use x="1012.597656" xlink:href="#q"/></g><defs><clipPath id="f"><rect x="55.296" y="19.44" width="1085.2" height="589.68"/></clipPath></defs></svg>