<?xml version="1.0" encoding="UTF-8"?>
<!DOCTYPE svg  PUBLIC '-//W3C//DTD SVG 1.1//EN'  'http://www.w3.org/Graphics/SVG/1.1/DTD/svg11.dtd'>
<svg width="1152pt" height="648pt" version="1.1" viewBox="0 0 1152 648" xmlns="http://www.w3.org/2000/svg" xmlns:xlink="http://www.w3.org/1999/xlink"><defs><style type="text/css">*{stroke-linejoin: round; stroke-linecap: butt}</style></defs><path d="m0 648h1152v-648h-1152z" fill="#fff"/><path d="m69.12 609.12h1048.3v-579.96h-1048.3z" fill="#fff"/><path d="m111.59 609.12v-579.96" clip-path="url(#c)" fill="none" stroke="#b0b0b0" stroke-dasharray="0.8,1.32" stroke-width=".8"/><defs><path id="g" d="m0 0v3.5" stroke="#000" stroke-width=".8"/></defs><use x="111.594384" y="609.12" stroke="#000000" stroke-width=".8" xlink:href="#g"/><g transform="translate(98.869 623.72) scale(.1 -.1)"><defs><path id="l" transform="scale(.015625)" d="m794 531h1031v3560l-1122-225v575l1116 225h631v-4135h1031v-531h-2687v531z"/><path id="m" transform="scale(.015625)" d="m703 97v575q238-113 481-172 244-59 479-59 625 0 954 420 330 420 377 1277-181-269-460-413-278-144-615-144-700 0-1108 423-408 424-408 1159 0 718 425 1152 425 435 1131 435 810 0 1236-621 427-620 427-1801 0-1103-524-1761-523-658-1407-658-238 0-482 47-243 47-506 141zm1256 1978q425 0 673 290 249 291 249 798 0 503-249 795-248 292-673 292t-673-292-248-795q0-507 248-798 248-290 673-290z"/><path id="n" transform="scale(.015625)" d="m691 4666h2478v-532h-1900v-1143q137 47 274 70 138 23 276 23 781 0 1237-428 457-428 457-1159 0-753-469-1171-469-417-1322-417-294 0-599 50-304 50-629 150v635q281-153 581-228t634-75q541 0 856 284 316 284 316 772 0 487-316 771-315 285-856 285-253 0-505-56-251-56-513-175v2344z"/><path id="d" transform="scale(.015625)" d="m2034 4250q-487 0-733-480-245-479-245-1442 0-959 245-1439 246-480 733-480 491 0 736 480 246 480 246 1439 0 963-246 1442-245 480-736 480zm0 500q785 0 1199-621 414-620 414-1801 0-1178-414-1799-414-620-1199-620-784 0-1198 620-414 621-414 1799 0 1181 414 1801 414 621 1198 621z"/></defs><use xlink:href="#l"/><use x="63.623047" xlink:href="#m"/><use x="127.246094" xlink:href="#n"/><use x="190.869141" xlink:href="#d"/></g><path d="m178.98 609.12v-579.96" clip-path="url(#c)" fill="none" stroke="#b0b0b0" stroke-dasharray="0.8,1.32" stroke-width=".8"/><use x="178.977725" y="609.12" stroke="#000000" stroke-width=".8" xlink:href="#g"/><g transform="translate(166.25 623.72) scale(.1 -.1)"><use xlink:href="#l"/><use x="63.623047" xlink:href="#m"/><use x="127.246094" xlink:href="#n"/><use x="190.869141" xlink:href="#n"/></g><path d="m246.36 609.12v-579.96" clip-path="url(#c)" fill="none" stroke="#b0b0b0" stroke-dasharray="0.8,1.32" stroke-width=".8"/><use x="246.361066" y="609.12" stroke="#000000" stroke-width=".8" xlink:href="#g"/><g transform="translate(233.64 623.72) scale(.1 -.1)"><defs><path id="ah" transform="scale(.015625)" d="m2113 2584q-425 0-674-291-248-290-248-796 0-503 248-796 249-292 674-292t673 292q248 293 248 796 0 506-248 796-248 291-673 291zm1253 1979v-575q-238 112-480 171-242 60-480 60-625 0-955-422-329-422-376-1275 184 272 462 417 279 145 613 145 703 0 1111-427 408-426 408-1160 0-719-425-1154-425-434-1131-434-810 0-1238 620-428 621-428 1799 0 1106 525 1764t1409 658q238 0 480-47t505-140z"/></defs><use xlink:href="#l"/><use x="63.623047" xlink:href="#m"/><use x="127.246094" xlink:href="#ah"/><use x="190.869141" xlink:href="#d"/></g><path d="m313.78 609.12v-579.96" clip-path="url(#c)" fill="none" stroke="#b0b0b0" stroke-dasharray="0.8,1.32" stroke-width=".8"/><use x="313.78131" y="609.12" stroke="#000000" stroke-width=".8" xlink:href="#g"/><g transform="translate(301.06 623.72) scale(.1 -.1)"><use xlink:href="#l"/><use x="63.623047" xlink:href="#m"/><use x="127.246094" xlink:href="#ah"/><use x="190.869141" xlink:href="#n"/></g><path d="m381.16 609.12v-579.96" clip-path="url(#c)" fill="none" stroke="#b0b0b0" stroke-dasharray="0.8,1.32" stroke-width=".8"/><use x="381.164651" y="609.12" stroke="#000000" stroke-width=".8" xlink:href="#g"/><g transform="translate(368.44 623.72) scale(.1 -.1)"><defs><path id="ae" transform="scale(.015625)" d="m525 4666h3e3v-269l-1694-4397h-659l1594 4134h-2241v532z"/></defs><use xlink:href="#l"/><use x="63.623047" xlink:href="#m"/><use x="127.246094" xlink:href="#ae"/><use x="190.869141" xlink:href="#d"/></g><path d="m448.55 609.12v-579.96" clip-path="url(#c)" fill="none" stroke="#b0b0b0" stroke-dasharray="0.8,1.32" stroke-width=".8"/><use x="448.547992" y="609.12" stroke="#000000" stroke-width=".8" xlink:href="#g"/><g transform="translate(435.82 623.72) scale(.1 -.1)"><use xlink:href="#l"/><use x="63.623047" xlink:href="#m"/><use x="127.246094" xlink:href="#ae"/><use x="190.869141" xlink:href="#n"/></g><path d="m515.93 609.12v-579.96" clip-path="url(#c)" fill="none" stroke="#b0b0b0" stroke-dasharray="0.8,1.32" stroke-width=".8"/><use x="515.931333" y="609.12" stroke="#000000" stroke-width=".8" xlink:href="#g"/><g transform="translate(503.21 623.72) scale(.1 -.1)"><defs><path id="ad" transform="scale(.015625)" d="m2034 2216q-450 0-708-241-257-241-257-662 0-422 257-663 258-241 708-241t709 242q260 243 260 662 0 421-258 662-257 241-711 241zm-631 268q-406 100-633 378-226 279-226 679 0 559 398 884 399 325 1092 325 697 0 1094-325t397-884q0-400-227-679-226-278-629-378 456-106 710-416 255-309 255-755 0-679-414-1042-414-362-1186-362-771 0-1186 362-414 363-414 1042 0 446 256 755 257 310 713 416zm-231 997q0-362 226-565 227-203 636-203 407 0 636 203 230 203 230 565 0 363-230 566-229 203-636 203-409 0-636-203-226-203-226-566z"/></defs><use xlink:href="#l"/><use x="63.623047" xlink:href="#m"/><use x="127.246094" xlink:href="#ad"/><use x="190.869141" xlink:href="#d"/></g><path d="m583.35 609.12v-579.96" clip-path="url(#c)" fill="none" stroke="#b0b0b0" stroke-dasharray="0.8,1.32" stroke-width=".8"/><use x="583.351576" y="609.12" stroke="#000000" stroke-width=".8" xlink:href="#g"/><g transform="translate(570.63 623.72) scale(.1 -.1)"><use xlink:href="#l"/><use x="63.623047" xlink:href="#m"/><use x="127.246094" xlink:href="#ad"/><use x="190.869141" xlink:href="#n"/></g><path d="m650.73 609.12v-579.96" clip-path="url(#c)" fill="none" stroke="#b0b0b0" stroke-dasharray="0.8,1.32" stroke-width=".8"/><use x="650.734917" y="609.12" stroke="#000000" stroke-width=".8" xlink:href="#g"/><g transform="translate(638.01 623.72) scale(.1 -.1)"><use xlink:href="#l"/><use x="63.623047" xlink:href="#m"/><use x="127.246094" xlink:href="#m"/><use x="190.869141" xlink:href="#d"/></g><path d="m718.12 609.12v-579.96" clip-path="url(#c)" fill="none" stroke="#b0b0b0" stroke-dasharray="0.8,1.32" stroke-width=".8"/><use x="718.118258" y="609.12" stroke="#000000" stroke-width=".8" xlink:href="#g"/><g transform="translate(705.39 623.72) scale(.1 -.1)"><use xlink:href="#l"/><use x="63.623047" xlink:href="#m"/><use x="127.246094" xlink:href="#m"/><use x="190.869141" xlink:href="#n"/></g><path d="m785.5 609.12v-579.96" clip-path="url(#c)" fill="none" stroke="#b0b0b0" stroke-dasharray="0.8,1.32" stroke-width=".8"/><use x="785.501599" y="609.12" stroke="#000000" stroke-width=".8" xlink:href="#g"/><g transform="translate(772.78 623.72) scale(.1 -.1)"><defs><path id="k" transform="scale(.015625)" d="m1228 531h2203v-531h-2962v531q359 372 979 998 621 627 780 809 303 340 423 576 121 236 121 464 0 372-261 606-261 235-680 235-297 0-627-103-329-103-704-313v638q381 153 712 231 332 78 607 78 725 0 1156-363 431-362 431-968 0-288-108-546-107-257-392-607-78-91-497-524-418-433-1181-1211z"/></defs><use xlink:href="#k"/><use x="63.623047" xlink:href="#d"/><use x="127.246094" xlink:href="#d"/><use x="190.869141" xlink:href="#d"/></g><path d="m852.92 609.12v-579.96" clip-path="url(#c)" fill="none" stroke="#b0b0b0" stroke-dasharray="0.8,1.32" stroke-width=".8"/><use x="852.921843" y="609.12" stroke="#000000" stroke-width=".8" xlink:href="#g"/><g transform="translate(840.2 623.72) scale(.1 -.1)"><use xlink:href="#k"/><use x="63.623047" xlink:href="#d"/><use x="127.246094" xlink:href="#d"/><use x="190.869141" xlink:href="#n"/></g><path d="m920.31 609.12v-579.96" clip-path="url(#c)" fill="none" stroke="#b0b0b0" stroke-dasharray="0.8,1.32" stroke-width=".8"/><use x="920.305184" y="609.12" stroke="#000000" stroke-width=".8" xlink:href="#g"/><g transform="translate(907.58 623.72) scale(.1 -.1)"><use xlink:href="#k"/><use x="63.623047" xlink:href="#d"/><use x="127.246094" xlink:href="#l"/><use x="190.869141" xlink:href="#d"/></g><path d="m987.69 609.12v-579.96" clip-path="url(#c)" fill="none" stroke="#b0b0b0" stroke-dasharray="0.8,1.32" stroke-width=".8"/><use x="987.688525" y="609.12" stroke="#000000" stroke-width=".8" xlink:href="#g"/><g transform="translate(974.96 623.72) scale(.1 -.1)"><use xlink:href="#k"/><use x="63.623047" xlink:href="#d"/><use x="127.246094" xlink:href="#l"/><use x="190.869141" xlink:href="#n"/></g><path d="m1055.1 609.12v-579.96" clip-path="url(#c)" fill="none" stroke="#b0b0b0" stroke-dasharray="0.8,1.32" stroke-width=".8"/><use x="1055.071866" y="609.12" stroke="#000000" stroke-width=".8" xlink:href="#g"/><g transform="translate(1042.3 623.72) scale(.1 -.1)"><use xlink:href="#k"/><use x="63.623047" xlink:href="#d"/><use x="127.246094" xlink:href="#k"/><use x="190.869141" xlink:href="#d"/></g><defs><path id="a" d="m0 0v2" stroke="#000" stroke-width=".6"/></defs><use x="71.149619" y="609.12" stroke="#000000" stroke-width=".6" xlink:href="#a"/><use x="84.618906" y="609.12" stroke="#000000" stroke-width=".6" xlink:href="#a"/><use x="98.125096" y="609.12" stroke="#000000" stroke-width=".6" xlink:href="#a"/><use x="125.063672" y="609.12" stroke="#000000" stroke-width=".6" xlink:href="#a"/><use x="138.53296" y="609.12" stroke="#000000" stroke-width=".6" xlink:href="#a"/><use x="152.03915" y="609.12" stroke="#000000" stroke-width=".6" xlink:href="#a"/><use x="165.508438" y="609.12" stroke="#000000" stroke-width=".6" xlink:href="#a"/><use x="192.447013" y="609.12" stroke="#000000" stroke-width=".6" xlink:href="#a"/><use x="205.953203" y="609.12" stroke="#000000" stroke-width=".6" xlink:href="#a"/><use x="219.422491" y="609.12" stroke="#000000" stroke-width=".6" xlink:href="#a"/><use x="232.891779" y="609.12" stroke="#000000" stroke-width=".6" xlink:href="#a"/><use x="259.867256" y="609.12" stroke="#000000" stroke-width=".6" xlink:href="#a"/><use x="273.336544" y="609.12" stroke="#000000" stroke-width=".6" xlink:href="#a"/><use x="286.805832" y="609.12" stroke="#000000" stroke-width=".6" xlink:href="#a"/><use x="300.27512" y="609.12" stroke="#000000" stroke-width=".6" xlink:href="#a"/><use x="327.250597" y="609.12" stroke="#000000" stroke-width=".6" xlink:href="#a"/><use x="340.719885" y="609.12" stroke="#000000" stroke-width=".6" xlink:href="#a"/><use x="354.189173" y="609.12" stroke="#000000" stroke-width=".6" xlink:href="#a"/><use x="367.695363" y="609.12" stroke="#000000" stroke-width=".6" xlink:href="#a"/><use x="394.633939" y="609.12" stroke="#000000" stroke-width=".6" xlink:href="#a"/><use x="408.103226" y="609.12" stroke="#000000" stroke-width=".6" xlink:href="#a"/><use x="421.609416" y="609.12" stroke="#000000" stroke-width=".6" xlink:href="#a"/><use x="435.078704" y="609.12" stroke="#000000" stroke-width=".6" xlink:href="#a"/><use x="462.01728" y="609.12" stroke="#000000" stroke-width=".6" xlink:href="#a"/><use x="475.52347" y="609.12" stroke="#000000" stroke-width=".6" xlink:href="#a"/><use x="488.992757" y="609.12" stroke="#000000" stroke-width=".6" xlink:href="#a"/><use x="502.462045" y="609.12" stroke="#000000" stroke-width=".6" xlink:href="#a"/><use x="529.437523" y="609.12" stroke="#000000" stroke-width=".6" xlink:href="#a"/><use x="542.906811" y="609.12" stroke="#000000" stroke-width=".6" xlink:href="#a"/><use x="556.376098" y="609.12" stroke="#000000" stroke-width=".6" xlink:href="#a"/><use x="569.845386" y="609.12" stroke="#000000" stroke-width=".6" xlink:href="#a"/><use x="596.820864" y="609.12" stroke="#000000" stroke-width=".6" xlink:href="#a"/><use x="610.290152" y="609.12" stroke="#000000" stroke-width=".6" xlink:href="#a"/><use x="623.75944" y="609.12" stroke="#000000" stroke-width=".6" xlink:href="#a"/><use x="637.265629" y="609.12" stroke="#000000" stroke-width=".6" xlink:href="#a"/><use x="664.204205" y="609.12" stroke="#000000" stroke-width=".6" xlink:href="#a"/><use x="677.673493" y="609.12" stroke="#000000" stroke-width=".6" xlink:href="#a"/><use x="691.179683" y="609.12" stroke="#000000" stroke-width=".6" xlink:href="#a"/><use x="704.648971" y="609.12" stroke="#000000" stroke-width=".6" xlink:href="#a"/><use x="731.587546" y="609.12" stroke="#000000" stroke-width=".6" xlink:href="#a"/><use x="745.093736" y="609.12" stroke="#000000" stroke-width=".6" xlink:href="#a"/><use x="758.563024" y="609.12" stroke="#000000" stroke-width=".6" xlink:href="#a"/><use x="772.032312" y="609.12" stroke="#000000" stroke-width=".6" xlink:href="#a"/><use x="799.007789" y="609.12" stroke="#000000" stroke-width=".6" xlink:href="#a"/><use x="812.477077" y="609.12" stroke="#000000" stroke-width=".6" xlink:href="#a"/><use x="825.946365" y="609.12" stroke="#000000" stroke-width=".6" xlink:href="#a"/><use x="839.415653" y="609.12" stroke="#000000" stroke-width=".6" xlink:href="#a"/><use x="866.39113" y="609.12" stroke="#000000" stroke-width=".6" xlink:href="#a"/><use x="879.860418" y="609.12" stroke="#000000" stroke-width=".6" xlink:href="#a"/><use x="893.329706" y="609.12" stroke="#000000" stroke-width=".6" xlink:href="#a"/><use x="906.835896" y="609.12" stroke="#000000" stroke-width=".6" xlink:href="#a"/><use x="933.774472" y="609.12" stroke="#000000" stroke-width=".6" xlink:href="#a"/><use x="947.243759" y="609.12" stroke="#000000" stroke-width=".6" xlink:href="#a"/><use x="960.749949" y="609.12" stroke="#000000" stroke-width=".6" xlink:href="#a"/><use x="974.219237" y="609.12" stroke="#000000" stroke-width=".6" xlink:href="#a"/><use x="1001.157813" y="609.12" stroke="#000000" stroke-width=".6" xlink:href="#a"/><use x="1014.664003" y="609.12" stroke="#000000" stroke-width=".6" xlink:href="#a"/><use x="1028.13329" y="609.12" stroke="#000000" stroke-width=".6" xlink:href="#a"/><use x="1041.602578" y="609.12" stroke="#000000" stroke-width=".6" xlink:href="#a"/><use x="1068.578056" y="609.12" stroke="#000000" stroke-width=".6" xlink:href="#a"/><use x="1082.047344" y="609.12" stroke="#000000" stroke-width=".6" xlink:href="#a"/><use x="1095.516631" y="609.12" stroke="#000000" stroke-width=".6" xlink:href="#a"/><use x="1108.985919" y="609.12" stroke="#000000" stroke-width=".6" xlink:href="#a"/><g transform="translate(579.89 640.44) scale(.14 -.14)"><defs><path id="ay" transform="scale(.015625)" d="m628 0v4666h2903v-532h-2272v-4134h-631z"/><path id="o" transform="scale(.015625)" d="m1959 3097q-462 0-731-361t-269-989 267-989q268-361 733-361 460 0 728 362 269 363 269 988 0 622-269 986-268 364-728 364zm0 487q750 0 1178-488 429-487 429-1349 0-859-429-1349-428-489-1178-489-753 0-1180 489-426 490-426 1349 0 862 426 1349 427 488 1180 488z"/><path id="p" transform="scale(.015625)" d="m1384 459h1669v2582h-1209v-438q0-1287-369-1975l-91-169zm-834 0q284 125 409 391 307 659 307 1988v662h2365v-3041h460v-1343h-460v884h-2837v-884h-460v1343h216z"/></defs><use xlink:href="#ay"/><use x="60.986328" xlink:href="#o"/><use x="122.167969" xlink:href="#p"/></g><path d="m69.12 609.12h1048.3" clip-path="url(#c)" fill="none" stroke="#b0b0b0" stroke-dasharray="2.96,1.28" stroke-width=".8"/><defs><path id="r" d="m0 0h-3.5" stroke="#000" stroke-width=".8"/></defs><use x="69.12" y="609.12" stroke="#000000" stroke-width=".8" xlink:href="#r"/><g transform="translate(55.758 612.92) scale(.1 -.1)"><use xlink:href="#d"/></g><path d="m69.12 512.46h1048.3" clip-path="url(#c)" fill="none" stroke="#b0b0b0" stroke-dasharray="2.96,1.28" stroke-width=".8"/><use x="69.12" y="512.46" stroke="#000000" stroke-width=".8" xlink:href="#r"/><g transform="translate(49.395 516.26) scale(.1 -.1)"><use xlink:href="#l"/><use x="63.623047" xlink:href="#d"/></g><path d="m69.12 415.8h1048.3" clip-path="url(#c)" fill="none" stroke="#b0b0b0" stroke-dasharray="2.96,1.28" stroke-width=".8"/><use x="69.12" y="415.8" stroke="#000000" stroke-width=".8" xlink:href="#r"/><g transform="translate(49.395 419.6) scale(.1 -.1)"><use xlink:href="#k"/><use x="63.623047" xlink:href="#d"/></g><path d="m69.12 319.14h1048.3" clip-path="url(#c)" fill="none" stroke="#b0b0b0" stroke-dasharray="2.96,1.28" stroke-width=".8"/><use x="69.12" y="319.14" stroke="#000000" stroke-width=".8" xlink:href="#r"/><g transform="translate(49.395 322.94) scale(.1 -.1)"><defs><path id="w" transform="scale(.015625)" d="m2597 2516q453-97 707-404 255-306 255-756 0-690-475-1069-475-378-1350-378-293 0-604 58t-642 174v609q262-153 574-231 313-78 654-78 593 0 904 234t311 681q0 413-289 645-289 233-804 233h-544v519h569q465 0 712 186t247 536q0 359-255 551-254 193-729 193-260 0-557-57-297-56-653-174v562q360 100 674 150t592 50q719 0 1137-327 419-326 419-882 0-388-222-655t-631-370z"/></defs><use xlink:href="#w"/><use x="63.623047" xlink:href="#d"/></g><path d="m69.12 222.48h1048.3" clip-path="url(#c)" fill="none" stroke="#b0b0b0" stroke-dasharray="2.96,1.28" stroke-width=".8"/><use x="69.12" y="222.48" stroke="#000000" stroke-width=".8" xlink:href="#r"/><g transform="translate(49.395 226.28) scale(.1 -.1)"><defs><path id="ba" transform="scale(.015625)" d="m2419 4116-1594-2491h1594v2491zm-166 550h794v-3041h666v-525h-666v-1100h-628v1100h-2106v609l1940 2957z"/></defs><use xlink:href="#ba"/><use x="63.623047" xlink:href="#d"/></g><path d="m69.12 125.82h1048.3" clip-path="url(#c)" fill="none" stroke="#b0b0b0" stroke-dasharray="2.96,1.28" stroke-width=".8"/><use x="69.12" y="125.82" stroke="#000000" stroke-width=".8" xlink:href="#r"/><g transform="translate(49.395 129.62) scale(.1 -.1)"><use xlink:href="#n"/><use x="63.623047" xlink:href="#d"/></g><path d="m69.12 29.16h1048.3" clip-path="url(#c)" fill="none" stroke="#b0b0b0" stroke-dasharray="2.96,1.28" stroke-width=".8"/><use x="69.12" y="29.16" stroke="#000000" stroke-width=".8" xlink:href="#r"/><g transform="translate(49.395 32.959) scale(.1 -.1)"><use xlink:href="#ah"/><use x="63.623047" xlink:href="#d"/></g><defs><path id="e" d="m0 0h-2" stroke="#000" stroke-width=".6"/></defs><use x="69.12" y="589.788" stroke="#000000" stroke-width=".6" xlink:href="#e"/><use x="69.12" y="570.456" stroke="#000000" stroke-width=".6" xlink:href="#e"/><use x="69.12" y="551.124" stroke="#000000" stroke-width=".6" xlink:href="#e"/><use x="69.12" y="531.792" stroke="#000000" stroke-width=".6" xlink:href="#e"/><use x="69.12" y="493.128" stroke="#000000" stroke-width=".6" xlink:href="#e"/><use x="69.12" y="473.796" stroke="#000000" stroke-width=".6" xlink:href="#e"/><use x="69.12" y="454.464" stroke="#000000" stroke-width=".6" xlink:href="#e"/><use x="69.12" y="435.132" stroke="#000000" stroke-width=".6" xlink:href="#e"/><use x="69.12" y="396.468" stroke="#000000" stroke-width=".6" xlink:href="#e"/><use x="69.12" y="377.136" stroke="#000000" stroke-width=".6" xlink:href="#e"/><use x="69.12" y="357.804" stroke="#000000" stroke-width=".6" xlink:href="#e"/><use x="69.12" y="338.472" stroke="#000000" stroke-width=".6" xlink:href="#e"/><use x="69.12" y="299.808" stroke="#000000" stroke-width=".6" xlink:href="#e"/><use x="69.12" y="280.476" stroke="#000000" stroke-width=".6" xlink:href="#e"/><use x="69.12" y="261.144" stroke="#000000" stroke-width=".6" xlink:href="#e"/><use x="69.12" y="241.812" stroke="#000000" stroke-width=".6" xlink:href="#e"/><use x="69.12" y="203.148" stroke="#000000" stroke-width=".6" xlink:href="#e"/><use x="69.12" y="183.816" stroke="#000000" stroke-width=".6" xlink:href="#e"/><use x="69.12" y="164.484" stroke="#000000" stroke-width=".6" xlink:href="#e"/><use x="69.12" y="145.152" stroke="#000000" stroke-width=".6" xlink:href="#e"/><use x="69.12" y="106.488" stroke="#000000" stroke-width=".6" xlink:href="#e"/><use x="69.12" y="87.156" stroke="#000000" stroke-width=".6" xlink:href="#e"/><use x="69.12" y="67.824" stroke="#000000" stroke-width=".6" xlink:href="#e"/><use x="69.12" y="48.492" stroke="#000000" stroke-width=".6" xlink:href="#e"/><g transform="translate(42.483 462.89) rotate(-90) scale(.14 -.14)"><defs><path id="ac" transform="scale(.015625)" d="m628 4666h631v-2307l2257 2307h809l-1803-1844 1897-2822h-688l-1618 2403-854-872v-1531h-631v4666z"/><path id="aa" transform="scale(.015625)" d="m238 0v478q568 88 743 481 213 554 213 1969v572h2365v-3500h-575v3041h-1215v-347q0-1350-275-1956-294-647-1256-738z"/><path id="ab" transform="scale(.015625)" d="m3578 3500v-3500h-572v2809l-1687-2809h-738v3500h572v-2803l1685 2803h740z"/><path id="af" transform="scale(.015625)" d="m2625 0v1472h-1072q-478 0-797 297-287 269-287 844v887h575v-834q0-366 162-550 166-185 491-185h928v1569h575v-3500h-575z"/><path id="b" transform="scale(.015625)" d="m3597 1894v-281h-2644q38-594 358-905t892-311q331 0 642 81t618 244v-544q-310-131-635-200t-659-69q-838 0-1327 487-489 488-489 1320 0 859 464 1363 464 505 1252 505 706 0 1117-455 411-454 411-1235zm-575 169q-6 471-264 752-258 282-683 282-481 0-770-272t-333-766l2050 4z"/><path id="s" transform="scale(.015625)" d="m3122 3366v-538q-244 135-489 202t-495 67q-560 0-870-355-309-354-309-995t309-996q310-354 870-354 250 0 495 67t489 202v-532q-241-112-499-168-257-57-548-57-791 0-1257 497-465 497-465 1341 0 856 470 1346 471 491 1290 491 265 0 518-55 253-54 491-163z"/><path id="y" transform="scale(.015625)" d="m188 3500h3353v-459h-1394v-3041h-566v3041h-1393v459z"/><path id="j" transform="scale(.015625)" d="m1156 1613v-1154h819q394 0 600 148 206 149 206 431 0 281-206 428t-600 147h-819zm0 1428v-969h757q325 0 531 129 206 130 206 362 0 231-206 354-206 124-531 124h-757zm-575 459h1369q616 0 947-225t331-641q0-321-169-511-168-189-500-235 397-75 616-313 219-237 219-594 0-468-361-725-361-256-1030-256h-1422v3500z"/><path id="z" transform="scale(.015625)" d="m3603 3500v-3500h-578v3041h-1866v-3041h-578v3500h3022z"/><path id="u" transform="scale(.015625)" d="m1159 525v-1856h-578v4831h578v-531q182 312 458 463 277 152 661 152 638 0 1036-506 399-506 399-1331t-399-1332q-398-506-1036-506-384 0-661 152-276 152-458 464zm1957 1222q0 634-261 995t-717 361q-457 0-718-361t-261-995 261-995 718-361q456 0 717 361t261 995z"/><path id="t" transform="scale(.015625)" d="m581 3500h841l994-2344 997 2344h834v-3500h-578v2950l-966-2278h-575l-969 2278v-2950h-578v3500z"/><path id="h" transform="scale(.015625)" d="m581 3500h578v-1428h1866v1428h578v-3500h-578v1613h-1866v-1613h-578v3500z"/><path id="q" transform="scale(.015625)" d="m3907 3500h575v-3500h-575v3500zm288 84zm-1414-2546q0 281-205 428-204 147-598 147h-819v-1154h819q394 0 598 148 205 149 205 431zm-2200 2462h578v-1428h844q669 0 1030-255 361-254 361-779t-361-782q-361-256-1030-256h-1422v3500z"/><path id="x" transform="scale(.015625)" d="m3513 3500-1266-1703 1331-1797h-678l-1019 1375-1018-1375h-679l1360 1831-1244 1669h678l928-1247 928 1247h679z"/><path id="i" transform="scale(.015625)" d="m2206 1888q388-75 603-304 216-228 216-565 0-541-403-826-403-284-1147-284-250 0-514 44t-545 131v535q222-116 487-174 266-57 556-57 472 0 736 175t264 456q0 275-234 442t-662 167h-463v475h484q363 0 574 139t211 358q0 200-218 344-217 144-588 144-222 0-474-41-251-41-555-131v522q307 75 572 112 266 38 503 38 613 0 967-246 355-245 355-686 0-290-188-492-187-201-537-276z"/><path id="bc" transform="scale(.015625)" d="m1984 4856q-418-718-622-1422-203-703-203-1425 0-721 205-1429t620-1424h-500q-468 735-701 1444t-233 1409q0 697 231 1403 232 707 703 1444h500z"/><path id="as" transform="scale(.015625)" d="m1181 2491q0-260 200-407 200-146 572-146h775v1103h-775q-372 0-572-144t-200-406zm-818-2491 1068 1534q-362 82-603 296-240 214-240 661 0 506 335 757 336 252 1015 252h1368v-3500h-578v1478h-715l-1032-1478h-618z"/><path id="bb" transform="scale(.015625)" d="m513 4856h500q468-737 701-1444 233-706 233-1403 0-700-233-1409t-701-1444h-500q415 716 620 1424t205 1429q0 722-205 1425-205 704-620 1422z"/></defs><use xlink:href="#ac"/><use x="70.996094" xlink:href="#o"/><use x="132.177734" xlink:href="#aa"/><use x="196.09375" xlink:href="#ab"/><use x="261.083984" xlink:href="#af"/><use x="320.166016" xlink:href="#b"/><use x="381.689453" xlink:href="#s"/><use x="436.669922" xlink:href="#y"/><use x="494.921875" xlink:href="#j"/><use x="553.857422" xlink:href="#o"/><use x="615.039062" xlink:href="#DejaVuSans-20"/><use x="646.826172" xlink:href="#z"/><use x="712.207031" xlink:href="#b"/><use x="773.730469" xlink:href="#u"/><use x="837.207031" xlink:href="#b"/><use x="898.730469" xlink:href="#t"/><use x="974.169922" xlink:href="#b"/><use x="1035.693359" xlink:href="#h"/><use x="1101.074219" xlink:href="#h"/><use x="1166.455078" xlink:href="#q"/><use x="1245.410156" xlink:href="#x"/><use x="1304.589844" xlink:href="#DejaVuSans-20"/><use x="1336.376953" xlink:href="#i"/><use x="1389.550781" xlink:href="#j"/><use x="1448.486328" xlink:href="#b"/><use x="1510.009766" xlink:href="#i"/><use x="1563.183594" xlink:href="#p"/><use x="1632.324219" xlink:href="#DejaVuSans-20"/><use x="1664.111328" xlink:href="#bc"/><use x="1703.125" xlink:href="#y"/><use x="1761.376953" xlink:href="#q"/><use x="1840.332031" xlink:href="#s"/><use x="1895.3125" xlink:href="#as"/><use x="1955.46875" xlink:href="#af"/><use x="2014.550781" xlink:href="#bb"/></g><path d="m84.619 505.09 134.8-36.798 134.77-55.29 188.72-79.213 215.66-33.193 80.853-64.82 73.214-29.143 24.54-19.68 12.141-20.879 15.831-20.627 49.486-39.07h23.064l24.282-28.689 23.359-31.154h16.609" clip-path="url(#c)" fill="none" stroke="#00f" stroke-dasharray="5.55,2.4" stroke-width="1.5"/><defs><path id="f" d="m0 3c0.79561 0 1.5587-0.3161 2.1213-0.87868 0.56258-0.56258 0.87868-1.3257 0.87868-2.1213s-0.3161-1.5587-0.87868-2.1213c-0.56258-0.56258-1.3257-0.87868-2.1213-0.87868s-1.5587 0.3161-2.1213 0.87868c-0.56258 0.56258-0.87868 1.3257-0.87868 2.1213s0.3161 1.5587 0.87868 2.1213c0.56258 0.56258 1.3257 0.87868 2.1213 0.87868z" stroke="#00f"/></defs><g clip-path="url(#c)" fill="#0000ff" stroke="#0000ff"><use x="84.618906" y="505.094508" xlink:href="#f"/><use x="219.422491" y="468.296046" xlink:href="#f"/><use x="354.189173" y="413.006526" xlink:href="#f"/><use x="542.906811" y="333.793656" xlink:href="#f"/><use x="758.563024" y="300.600612" xlink:href="#f"/><use x="839.415653" y="235.780416" xlink:href="#f"/><use x="912.629535" y="206.637426" xlink:href="#f"/><use x="937.16947" y="186.95745" xlink:href="#f"/><use x="949.31028" y="166.07889" xlink:href="#f"/><use x="965.141306" y="145.451646" xlink:href="#f"/><use x="1014.6271" y="106.381674" xlink:href="#f"/><use x="1037.690949" y="106.381674" xlink:href="#f"/><use x="1061.97257" y="77.692986" xlink:href="#f"/><use x="1085.331636" y="46.539468" xlink:href="#f"/><use x="1101.941094" y="46.539468" xlink:href="#f"/></g><defs><path id="aj" d="m0-6-1.3471 4.1459h-4.3593l3.5267 2.5623-1.3471 4.1459 3.5267-2.5623 3.5267 2.5623-1.3471-4.1459 3.5267-2.5623h-4.3593z" stroke="#f00" stroke-linejoin="bevel"/></defs><g clip-path="url(#c)"><use x="1080.718866" y="48.15369" fill="#ff0000" stroke="#ff0000" stroke-linejoin="bevel" xlink:href="#aj"/></g><path d="m69.12 609.12v-579.96" fill="none" stroke="#000" stroke-linecap="square" stroke-width=".8"/><path d="m1117.4 609.12v-579.96" fill="none" stroke="#000" stroke-linecap="square" stroke-width=".8"/><path d="m69.12 609.12h1048.3" fill="none" stroke="#000" stroke-linecap="square" stroke-width=".8"/><path d="m69.12 29.16h1048.3" fill="none" stroke="#000" stroke-linecap="square" stroke-width=".8"/><g transform="translate(102.12 23.16) scale(.16 -.16)"><defs><path id="ai" transform="scale(.015625)" d="m684 794h660v-794h-660v794z"/><path id="az" transform="scale(.015625)" d="m1259 2228v-1709h1013q509 0 754 211 246 211 246 645 0 438-246 645-245 208-754 208h-1013zm0 1919v-1406h935q462 0 688 173 227 174 227 530 0 353-227 528-226 175-688 175h-935zm-631 519h1613q722 0 1112-300 391-300 391-853 0-429-200-682t-588-315q466-100 724-418 258-317 258-792 0-625-425-966-425-340-1210-340h-1675v4666z"/><path id="ag" transform="scale(.015625)" d="m581 0v3500h2469v-459h-1891v-3041h-578z"/><path id="aq" transform="scale(.015625)" d="m1831 0-1781 4666h659l1479-3928 1481 3928h656l-1778-4666h-716z"/><path id="ar" transform="scale(.015625)" d="m3425 4513v-616q-359 172-678 256-319 85-616 85-515 0-795-200t-280-569q0-310 186-468 186-157 705-254l381-78q706-135 1042-474t336-907q0-679-455-1029-454-350-1332-350-331 0-705 75-373 75-773 222v650q384-215 753-325 369-109 725-109 540 0 834 212 294 213 294 607 0 343-211 537t-692 291l-385 75q-706 140-1022 440-315 300-315 835 0 619 436 975t1201 356q329 0 669-60 341-59 697-177z"/><path id="ap" transform="scale(.015625)" d="m403 4666h678l1160-1735 1165 1735h678l-1500-2241 1600-2425h-678l-1312 1984-1322-1984h-681l1665 2491-1453 2175z"/><path id="ao" transform="scale(.015625)" d="m750 794h659v-538l-512-1e3h-403l256 1e3v538z"/><path id="bd" transform="scale(.015625)" d="m4653 2053q-272 0-427-231-154-231-154-644 0-406 154-639 155-233 427-233 266 0 420 233 155 233 155 639 0 410-155 642-154 233-420 233zm0 397q494 0 784-344 291-343 291-928 0-584-292-927-292-342-783-342-500 0-791 342-290 343-290 927 0 588 292 930t789 342zm-3225 1903q-269 0-424-233-154-232-154-639 0-412 153-644 153-231 425-231t426 231q155 232 155 644 0 403-156 637-156 235-425 235zm2822 397h500l-2919-4841h-500l2919 4841zm-2822 0q494 0 787-342 294-342 294-927 0-590-292-931t-789-341-786 342q-289 343-289 930 0 582 290 925 291 344 785 344z"/><path id="v" transform="scale(.015625)" d="m2194 1759q-697 0-966-159t-269-544q0-306 202-486 202-179 548-179 479 0 768 339t289 901v128h-572zm1147 238v-1997h-575v531q-197-318-491-470t-719-152q-537 0-855 302-317 302-317 808 0 590 395 890 396 300 1180 300h807v57q0 397-261 614t-733 217q-300 0-585-72-284-72-546-216v532q315 122 612 182 297 61 578 61 760 0 1135-394 375-393 375-1193z"/><path id="am" transform="scale(.015625)" d="m4159 4666v-4666h-612v3903l-2069-3903h-850v4666h613v-3903l2068 3903h850z"/><path id="at" transform="scale(.015625)" d="m3431 3097q-462 0-731-361t-269-989 267-989q268-361 733-361 460 0 728 362 269 363 269 988 0 622-269 986-268 364-728 364zm-1587-994q59 594 448 1037 389 444 1139 444t1178-488q429-487 429-1349 0-859-429-1349-428-489-1178-489-753 0-1164 472t-439 1247h-650v-1628h-575v3500h575v-1397h666z"/><path id="au" transform="scale(.015625)" d="m2781 1038q0 281-205 428-204 147-598 147h-819v-1154h819q394 0 598 148 205 149 205 431zm-2200 2462h578v-1428h844q669 0 1030-255 361-254 361-779t-361-782q-361-256-1030-256h-1422v3500z"/></defs><use xlink:href="#ac"/><use x="70.996094" xlink:href="#o"/><use x="132.177734" xlink:href="#aa"/><use x="196.09375" xlink:href="#ab"/><use x="261.083984" xlink:href="#af"/><use x="320.166016" xlink:href="#b"/><use x="381.689453" xlink:href="#s"/><use x="436.669922" xlink:href="#y"/><use x="494.921875" xlink:href="#j"/><use x="553.857422" xlink:href="#o"/><use x="615.039062" xlink:href="#DejaVuSans-20"/><use x="646.826172" xlink:href="#z"/><use x="712.207031" xlink:href="#b"/><use x="773.730469" xlink:href="#u"/><use x="837.207031" xlink:href="#b"/><use x="898.730469" xlink:href="#t"/><use x="974.169922" xlink:href="#b"/><use x="1035.693359" xlink:href="#h"/><use x="1101.074219" xlink:href="#h"/><use x="1166.455078" xlink:href="#q"/><use x="1245.410156" xlink:href="#x"/><use x="1304.589844" xlink:href="#DejaVuSans-20"/><use x="1336.376953" xlink:href="#i"/><use x="1389.550781" xlink:href="#j"/><use x="1448.486328" xlink:href="#b"/><use x="1510.009766" xlink:href="#i"/><use x="1563.183594" xlink:href="#p"/><use x="1632.324219" xlink:href="#ai"/><use x="1664.111328" xlink:href="#DejaVuSans-20"/><use x="1695.898438" xlink:href="#az"/><use x="1764.501953" xlink:href="#s"/><use x="1819.482422" xlink:href="#b"/><use x="1881.005859" xlink:href="#ag"/><use x="1933.544922" xlink:href="#o"/><use x="1994.726562" xlink:href="#DejaVuSans-20"/><use x="2026.513672" xlink:href="#k"/><use x="2090.136719" xlink:href="#k"/><use x="2153.759766" xlink:href="#ae"/><use x="2217.382812" xlink:href="#ae"/><use x="2281.005859" xlink:href="#w"/><use x="2344.628906" xlink:href="#k"/><use x="2408.251953" xlink:href="#ad"/><use x="2471.875" xlink:href="#DejaVuSans-20"/><use x="2503.662109" xlink:href="#i"/><use x="2556.835938" xlink:href="#j"/><use x="2615.771484" xlink:href="#b"/><use x="2677.294922" xlink:href="#i"/><use x="2730.46875" xlink:href="#p"/><use x="2799.609375" xlink:href="#DejaVuSans-20"/><use x="2831.396484" xlink:href="#j"/><use x="2890.332031" xlink:href="#DejaVuSans-20"/><use x="2922.119141" xlink:href="#aq"/><use x="2990.527344" xlink:href="#ar"/><use x="3054.003906" xlink:href="#ap"/><use x="3122.509766" xlink:href="#ao"/><use x="3154.296875" xlink:href="#DejaVuSans-20"/><use x="3186.083984" xlink:href="#d"/><use x="3249.707031" xlink:href="#ai"/><use x="3281.494141" xlink:href="#k"/><use x="3345.117188" xlink:href="#w"/><use x="3408.740234" xlink:href="#bd"/><use x="3503.759766" xlink:href="#DejaVuSans-20"/><use x="3535.546875" xlink:href="#z"/><use x="3600.927734" xlink:href="#b"/><use x="3662.451172" xlink:href="#u"/><use x="3725.927734" xlink:href="#b"/><use x="3787.451172" xlink:href="#t"/><use x="3862.890625" xlink:href="#b"/><use x="3924.414062" xlink:href="#h"/><use x="3989.794922" xlink:href="#h"/><use x="4055.175781" xlink:href="#q"/><use x="4134.130859" xlink:href="#x"/><use x="4193.310547" xlink:href="#DejaVuSans-20"/><use x="4225.097656" xlink:href="#i"/><use x="4278.271484" xlink:href="#j"/><use x="4337.207031" xlink:href="#b"/><use x="4398.730469" xlink:href="#i"/><use x="4451.904297" xlink:href="#p"/><use x="4521.044922" xlink:href="#DejaVuSans-20"/><use x="4552.832031" xlink:href="#ab"/><use x="4617.822266" xlink:href="#s"/><use x="4672.802734" xlink:href="#s"/><use x="4727.783203" xlink:href="#aa"/><use x="4791.699219" xlink:href="#b"/><use x="4853.222656" xlink:href="#p"/><use x="4922.363281" xlink:href="#o"/><use x="4983.544922" xlink:href="#j"/><use x="5042.480469" xlink:href="#v"/><use x="5103.759766" xlink:href="#h"/><use x="5169.140625" xlink:href="#o"/><use x="5230.322266" xlink:href="#ai"/><use x="5262.109375" xlink:href="#DejaVuSans-20"/><use x="5293.896484" xlink:href="#am"/><use x="5368.701172" xlink:href="#at"/><use x="5452.880859" xlink:href="#h"/><use x="5518.261719" xlink:href="#au"/><use x="5577.197266" xlink:href="#DejaVuSans-20"/><use x="5608.984375" xlink:href="#k"/><use x="5672.607422" xlink:href="#d"/><use x="5736.230469" xlink:href="#k"/><use x="5799.853516" xlink:href="#w"/><use x="5863.476562" xlink:href="#DejaVuSans-20"/><use x="5895.263672" xlink:href="#ag"/><use x="5947.802734" xlink:href="#o"/><use x="6008.984375" xlink:href="#p"/><use x="6078.125" xlink:href="#v"/></g><path d="m78.92 81.697h457.71q2.8 0 2.8-2.8v-39.937q0-2.8-2.8-2.8h-457.71q-2.8 0-2.8 2.8v39.937q0 2.8 2.8 2.8z" fill="#fff" opacity=".8" stroke="#ccc"/><path d="m81.72 47.736h14 14" fill="none" stroke="#00f" stroke-dasharray="5.55,2.4" stroke-width="1.5"/><use x="95.72" y="47.73625" fill="#0000ff" stroke="#0000ff" xlink:href="#f"/><g transform="translate(120.92 52.636) scale(.14 -.14)"><defs><path id="al" transform="scale(.015625)" d="m2522 4238q-688 0-1093-513-404-512-404-1397 0-881 404-1394 405-512 1093-512 687 0 1089 512 402 513 402 1394 0 885-402 1397-402 513-1089 513zm0 512q981 0 1568-658 588-658 588-1764 0-1103-588-1761-587-658-1568-658-984 0-1574 656-589 657-589 1763t589 1764q590 658 1574 658z"/><path id="ax" transform="scale(.015625)" d="m1991 3584q750 0 1178-488 428-487 428-1349 0-859-428-1349-428-489-1178-489-753 0-1169 475t-438 1363l-18 716q-16 371-16 500 0 500 181 868 285 578 777 828t1317 257q381 3 550 56l159-456q-153-63-293-66l-782-53q-393-28-631-166-622-365-681-843l-22-175q406 371 1066 371zm0-487q-463 0-732-361-268-361-268-989t267-989 733-361q459 0 728 362 269 363 269 988 0 622-269 986t-728 364z"/><path id="av" transform="scale(.015625)" d="m5275 0h-4694v3500h578v-3041h1479v3041h578v-3041h1481v3041h578v-3041h459v-1343h-459v884z"/><path id="aw" transform="scale(.015625)" d="m3578 3500v-3500h-572v2809l-1687-2809h-738v3500h572v-2803l1685 2803h740zm-2476 1333h369q34-234 185-352 152-117 424-117 269 0 419 116t190 353h369q-31-447-278-672t-700-225-700 225-278 672z"/><path id="ak" transform="scale(.015625)" d="m4184 4666v-4666h-631v4134h-2294v-4134h-631v4666h3556z"/><path id="an" transform="scale(.015625)" d="m1828 4750q769 0 1256-327 488-326 488-882 0-388-222-655t-631-370q453-97 707-404 255-306 255-756 0-718-555-1083-554-364-1298-364-381 0-825 103-444 104-581 191v650q478-278 742-345t652-67q587 0 912 225t325 690q0 413-289 645-289 233-898 233h-638v519h663q559 0 806 186t247 536q0 359-255 551-255 193-873 193-419 0-563-38-144-37-784-278v616q353 125 721 178 369 53 638 53z"/></defs><use xlink:href="#al"/><use x="78.710938" xlink:href="#ax"/><use x="140.380859" xlink:href="#av"/><use x="234.570312" xlink:href="#ab"/><use x="299.560547" xlink:href="#aw"/><use x="364.550781" xlink:href="#DejaVuSans-20"/><use x="396.337891" xlink:href="#ac"/><use x="467.333984" xlink:href="#v"/><use x="528.613281" xlink:href="#y"/><use x="586.865234" xlink:href="#v"/><use x="648.144531" xlink:href="#aa"/><use x="712.060547" xlink:href="#o"/><use x="773.242188" xlink:href="#ag"/><use x="825.78125" xlink:href="#DejaVuSans-20"/><use x="857.568359" xlink:href="#ak"/><use x="932.763672" xlink:href="#b"/><use x="994.287109" xlink:href="#u"/><use x="1057.763672" xlink:href="#b"/><use x="1119.287109" xlink:href="#t"/><use x="1194.726562" xlink:href="#b"/><use x="1256.25" xlink:href="#h"/><use x="1321.630859" xlink:href="#h"/><use x="1387.011719" xlink:href="#q"/><use x="1465.966797" xlink:href="#x"/><use x="1525.146484" xlink:href="#DejaVuSans-20"/><use x="1556.933594" xlink:href="#an"/><use x="1621.044922" xlink:href="#j"/><use x="1679.980469" xlink:href="#b"/><use x="1741.503906" xlink:href="#i"/><use x="1794.677734" xlink:href="#p"/></g><use x="95.72" y="68.285625" fill="#ff0000" stroke="#ff0000" stroke-linejoin="bevel" xlink:href="#aj"/><g transform="translate(120.92 73.186) scale(.14 -.14)"><use xlink:href="#am"/><use x="74.804688" xlink:href="#t"/><use x="150.244141" xlink:href="#b"/><use x="211.767578" xlink:href="#h"/><use x="277.148438" xlink:href="#o"/><use x="338.330078" xlink:href="#j"/><use x="397.265625" xlink:href="#v"/><use x="458.544922" xlink:href="#h"/><use x="523.925781" xlink:href="#h"/><use x="589.306641" xlink:href="#q"/><use x="668.261719" xlink:href="#b"/><use x="729.785156" xlink:href="#DejaVuSans-20"/><use x="761.572266" xlink:href="#z"/><use x="826.953125" xlink:href="#b"/><use x="888.476562" xlink:href="#u"/><use x="951.953125" xlink:href="#b"/><use x="1013.476562" xlink:href="#t"/><use x="1088.916016" xlink:href="#b"/><use x="1150.439453" xlink:href="#h"/><use x="1215.820312" xlink:href="#h"/><use x="1281.201172" xlink:href="#q"/><use x="1360.15625" xlink:href="#b"/><use x="1421.679688" xlink:href="#DejaVuSans-20"/><use x="1453.466797" xlink:href="#i"/><use x="1506.640625" xlink:href="#j"/><use x="1565.576172" xlink:href="#b"/><use x="1627.099609" xlink:href="#i"/><use x="1680.273438" xlink:href="#p"/><use x="1749.414062" xlink:href="#q"/><use x="1828.369141" xlink:href="#DejaVuSans-20"/><use x="1860.15625" xlink:href="#j"/><use x="1919.091797" xlink:href="#DejaVuSans-20"/><use x="1950.878906" xlink:href="#al"/><use x="2029.589844" xlink:href="#ac"/><use x="2100.585938" xlink:href="#ak"/><use x="2175.78125" xlink:href="#an"/><use x="2239.892578" xlink:href="#ao"/><use x="2271.679688" xlink:href="#DejaVuSans-20"/><use x="2303.466797" xlink:href="#n"/><use x="2367.089844" xlink:href="#ad"/><use x="2430.712891" xlink:href="#d"/><use x="2494.335938" xlink:href="#w"/><use x="2557.958984" xlink:href="#n"/><use x="2621.582031" xlink:href="#DejaVuSans-20"/><use x="2653.369141" xlink:href="#i"/><use x="2706.542969" xlink:href="#j"/><use x="2765.478516" xlink:href="#b"/><use x="2827.001953" xlink:href="#i"/><use x="2880.175781" xlink:href="#p"/></g><defs><clipPath id="c"><rect x="69.12" y="29.16" width="1048.3" height="579.96"/></clipPath></defs></svg>
