<?xml version="1.0" encoding="UTF-8"?>
<!DOCTYPE svg  PUBLIC '-//W3C//DTD SVG 1.1//EN'  'http://www.w3.org/Graphics/SVG/1.1/DTD/svg11.dtd'>
<svg width="1152pt" height="648pt" version="1.1" viewBox="0 0 1152 648" xmlns="http://www.w3.org/2000/svg" xmlns:xlink="http://www.w3.org/1999/xlink"><defs><style type="text/css">*{stroke-linejoin: round; stroke-linecap: butt}</style></defs><path d="m0 648h1152v-648h-1152z" fill="#fff"/><path d="m46.08 589.68h1088.6v-560.52h-1088.6z" fill="#fff"/><path d="m53.361 589.68h25.629v-9.8469h-25.629z" clip-path="url(#b)" fill="#1f77b4"/><path d="m82.484 589.68h25.629v-11.372h-25.629z" clip-path="url(#b)" fill="#1f77b4"/><path d="m111.61 589.68h25.629v-12.769h-25.629z" clip-path="url(#b)" fill="#1f77b4"/><path d="m140.73 589.68h25.629v-13.532h-25.629z" clip-path="url(#b)" fill="#1f77b4"/><path d="m169.86 589.68h25.629v-13.913h-25.629z" clip-path="url(#b)" fill="#1f77b4"/><path d="m198.98 589.68h25.629v-16.009h-25.629z" clip-path="url(#b)" fill="#1f77b4"/><path d="m228.1 589.68h25.629v-16.517h-25.629z" clip-path="url(#b)" fill="#1f77b4"/><path d="m257.23 589.68h25.629v-17.788h-25.629z" clip-path="url(#b)" fill="#1f77b4"/><path d="m286.35 589.68h25.629v-19.567h-25.629z" clip-path="url(#b)" fill="#1f77b4"/><path d="m315.47 589.68h25.629v-19.884h-25.629z" clip-path="url(#b)" fill="#1f77b4"/><path d="m344.6 589.68h25.629v-20.329h-25.629z" clip-path="url(#b)" fill="#1f77b4"/><path d="m373.72 589.68h25.629v-22.68h-25.629z" clip-path="url(#b)" fill="#1f77b4"/><path d="m402.84 589.68h25.629v-26.555h-25.629z" clip-path="url(#b)" fill="#1f77b4"/><path d="m431.97 589.68h25.629v-28.016h-25.629z" clip-path="url(#b)" fill="#1f77b4"/><path d="m461.09 589.68h25.629v-31.891h-25.629z" clip-path="url(#b)" fill="#1f77b4"/><path d="m490.21 589.68h25.629v-33.924h-25.629z" clip-path="url(#b)" fill="#1f77b4"/><path d="m519.34 589.68h25.629v-34.115h-25.629z" clip-path="url(#b)" fill="#1f77b4"/><path d="m548.46 589.68h25.629v-34.814h-25.629z" clip-path="url(#b)" fill="#1f77b4"/><path d="m577.59 589.68h25.629v-35.576h-25.629z" clip-path="url(#b)" fill="#1f77b4"/><path d="m606.71 589.68h25.629v-35.639h-25.629z" clip-path="url(#b)" fill="#1f77b4"/><path d="m635.83 589.68h25.629v-41.357h-25.629z" clip-path="url(#b)" fill="#1f77b4"/><path d="m664.96 589.68h25.629v-46.058h-25.629z" clip-path="url(#b)" fill="#1f77b4"/><path d="m694.08 589.68h25.629v-48.663h-25.629z" clip-path="url(#b)" fill="#1f77b4"/><path d="m723.2 589.68h25.629v-60.606h-25.629z" clip-path="url(#b)" fill="#1f77b4"/><path d="m752.33 589.68h25.629v-65.752h-25.629z" clip-path="url(#b)" fill="#1f77b4"/><path d="m781.45 589.68h25.629v-66.006h-25.629z" clip-path="url(#b)" fill="#1f77b4"/><path d="m810.57 589.68h25.629v-68.928h-25.629z" clip-path="url(#b)" fill="#1f77b4"/><path d="m839.7 589.68h25.629v-69.945h-25.629z" clip-path="url(#b)" fill="#1f77b4"/><path d="m868.82 589.68h25.629v-75.726h-25.629z" clip-path="url(#b)" fill="#1f77b4"/><path d="m897.95 589.68h25.629v-109.78h-25.629z" clip-path="url(#b)" fill="#1f77b4"/><path d="m927.07 589.68h25.629v-143.96h-25.629z" clip-path="url(#b)" fill="#1f77b4"/><path d="m956.19 589.68h25.629v-166.44h-25.629z" clip-path="url(#b)" fill="#1f77b4"/><path d="m985.32 589.68h25.629v-196.05h-25.629z" clip-path="url(#b)" fill="#1f77b4"/><path d="m1014.4 589.68h25.629v-217.97h-25.629z" clip-path="url(#b)" fill="#1f77b4"/><path d="m1043.6 589.68h25.629v-231.94h-25.629z" clip-path="url(#b)" fill="#1f77b4"/><path d="m1072.7 589.68h25.629v-367.26h-25.629z" clip-path="url(#b)" fill="#1f77b4"/><path d="m1101.8 589.68h25.629v-533.83h-25.629z" clip-path="url(#b)" fill="#1f77b4"/><defs><path id="c" d="m0 0v3.5" stroke="#000" stroke-width=".8"/></defs><use x="66.175281" y="589.68" stroke="#000000" stroke-width=".8" xlink:href="#c"/><g transform="translate(57.723 622.86) rotate(-45) scale(.1 -.1)"><defs><path id="j" transform="scale(.015625)" d="m628 4666h2950v-532h-2319v-1381h2222v-531h-2222v-1691h2375v-531h-3006v4666z"/><path id="p" transform="scale(.015625)" d="m1259 2228v-1709h1013q509 0 754 211 246 211 246 645 0 438-246 645-245 208-754 208h-1013zm0 1919v-1406h935q462 0 688 173 227 174 227 530 0 353-227 528-226 175-688 175h-935zm-631 519h1613q722 0 1112-300 391-300 391-853 0-429-200-682t-588-315q466-100 724-418 258-317 258-792 0-625-425-966-425-340-1210-340h-1675v4666z"/><path id="ak" transform="scale(.015625)" d="m1625 4666h531l-1625-5260h-531l1625 5260z"/><path id="av" transform="scale(.015625)" d="m628 4666h631v-1972l2094 1972h813l-2316-2175 2481-2491h-831l-2241 2247v-2247h-631v4666z"/></defs><use xlink:href="#j"/><use x="63.183594" xlink:href="#p"/><use x="131.787109" xlink:href="#ak"/><use x="165.478516" xlink:href="#av"/><use x="231.054688" xlink:href="#j"/></g><use x="95.298876" y="589.68" stroke="#000000" stroke-width=".8" xlink:href="#c"/><g transform="translate(90.415 615.72) rotate(-45) scale(.1 -.1)"><defs><path id="w" transform="scale(.015625)" d="m4122 4306v-665q-319 297-680 443-361 147-767 147-800 0-1225-489t-425-1414q0-922 425-1411t1225-489q406 0 767 147t680 444v-660q-331-225-702-338-370-112-782-112-1060 0-1670 648-609 649-609 1771 0 1125 609 1773 610 649 1670 649 418 0 788-111 371-111 696-333z"/><path id="as" transform="scale(.015625)" d="m1259 4147v-1753h794q441 0 681 228 241 228 241 650 0 419-241 647-240 228-681 228h-794zm-631 519h1425q785 0 1186-355 402-355 402-1039 0-691-402-1044-401-353-1186-353h-794v-1875h-631v4666z"/></defs><use xlink:href="#w"/><use x="69.824219" xlink:href="#j"/><use x="133.007812" xlink:href="#as"/></g><use x="124.422472" y="589.68" stroke="#000000" stroke-width=".8" xlink:href="#c"/><g transform="translate(125.33 604.14) rotate(-45) scale(.1 -.1)"><defs><path id="y" transform="scale(.015625)" d="m628 4666h631v-4666h-631v4666z"/></defs><use xlink:href="#y"/></g><use x="153.546067" y="589.68" stroke="#000000" stroke-width=".8" xlink:href="#c"/><g transform="translate(150.43 612.18) rotate(-45) scale(.1 -.1)"><defs><path id="v" transform="scale(.015625)" d="m628 4666h850l2069-3903v3903h612v-4666h-850l-2068 3903v-3903h-613v4666z"/><path id="x" transform="scale(.015625)" d="m2188 4044-857-2322h1716l-859 2322zm-357 622h716l1778-4666h-656l-425 1197h-2103l-425-1197h-666l1781 4666z"/></defs><use xlink:href="#v"/><use x="74.804688" xlink:href="#x"/></g><use x="182.669663" y="589.68" stroke="#000000" stroke-width=".8" xlink:href="#c"/><g transform="translate(173 625.29) rotate(-45) scale(.1 -.1)"><defs><path id="aa" transform="scale(.015625)" d="m1259 4147v-3628h763q966 0 1414 437 448 438 448 1382 0 937-448 1373t-1414 436h-763zm-631 519h1297q1356 0 1990-564 635-564 635-1764 0-1207-638-1773-637-565-1987-565h-1297v4666z"/><path id="at" transform="scale(.015625)" d="m628 4666h941l1190-3175 1197 3175h941v-4666h-616v4097l-1203-3200h-634l-1203 3200v-4097h-613v4666z"/></defs><use xlink:href="#j"/><use x="63.183594" xlink:href="#x"/><use x="131.591797" xlink:href="#ak"/><use x="165.283203" xlink:href="#aa"/><use x="242.285156" xlink:href="#at"/></g><use x="211.793258" y="589.68" stroke="#000000" stroke-width=".8" xlink:href="#c"/><g transform="translate(206.32 616.9) rotate(-45) scale(.1 -.1)"><defs><path id="l" transform="scale(.015625)" d="m3425 4513v-616q-359 172-678 256-319 85-616 85-515 0-795-200t-280-569q0-310 186-468 186-157 705-254l381-78q706-135 1042-474t336-907q0-679-455-1029-454-350-1332-350-331 0-705 75-373 75-773 222v650q384-215 753-325 369-109 725-109 540 0 834 212 294 213 294 607 0 343-211 537t-692 291l-385 75q-706 140-1022 440-315 300-315 835 0 619 436 975t1201 356q329 0 669-60 341-59 697-177z"/><path id="k" transform="scale(.015625)" d="m2841 2188q203-69 395-294t386-619l641-1275h-679l-596 1197q-232 469-449 622t-592 153h-688v-1972h-631v4666h1425q800 0 1194-335 394-334 394-1009 0-441-205-732-205-290-595-402zm-1582 1959v-1656h794q456 0 689 211t233 620-233 617-689 208h-794z"/></defs><use xlink:href="#l"/><use x="63.476562" xlink:href="#k"/><use x="132.958984" xlink:href="#aa"/></g><use x="240.916854" y="589.68" stroke="#000000" stroke-width=".8" xlink:href="#c"/><g transform="translate(237.54 612.71) rotate(-45) scale(.1 -.1)"><defs><path id="an" transform="scale(.015625)" d="m556 4666h635v-2835q0-750 271-1080 272-329 882-329 606 0 878 329 272 330 272 1080v2835h634v-2913q0-912-452-1378-451-466-1332-466-885 0-1337 466-451 466-451 1378v2913z"/><path id="bb" transform="scale(.015625)" d="m3809 666v1253h-1031v519h1656v-2004q-365-259-806-392-440-133-940-133-1094 0-1712 639-617 640-617 1780 0 1144 617 1783 618 639 1712 639 456 0 867-113 411-112 758-331v-672q-350 297-744 447t-828 150q-857 0-1287-478-429-478-429-1425 0-944 429-1422 430-478 1287-478 334 0 596 58 263 58 472 180z"/></defs><use xlink:href="#an"/><use x="73.193359" xlink:href="#bb"/></g><use x="270.040449" y="589.68" stroke="#000000" stroke-width=".8" xlink:href="#c"/><g transform="translate(259.38 627.27) rotate(-45) scale(.1 -.1)"><defs><path id="al" transform="scale(.015625)" d="m213 4666h637l981-3944 978 3944h710l981-3944 978 3944h641l-1172-4666h-794l-984 4050-994-4050h-794l-1168 4666z"/></defs><use xlink:href="#j"/><use x="63.183594" xlink:href="#al"/><use x="162.060547" xlink:href="#ak"/><use x="195.751953" xlink:href="#av"/><use x="257.703125" xlink:href="#al"/></g><use x="299.164045" y="589.68" stroke="#000000" stroke-width=".8" xlink:href="#c"/><g transform="translate(296.46 611.37) rotate(-45) scale(.1 -.1)"><use xlink:href="#p"/><use x="68.603516" xlink:href="#j"/></g><use x="328.28764" y="589.68" stroke="#000000" stroke-width=".8" xlink:href="#c"/><g transform="translate(320.64 621.24) rotate(-45) scale(.1 -.1)"><defs><path id="ao" transform="scale(.015625)" d="m-19 4666h3947v-532h-1656v-4134h-634v4134h-1657v532z"/></defs><use xlink:href="#aa"/><use x="77.001953" xlink:href="#l"/><use x="140.478516" xlink:href="#w"/><use x="210.302734" xlink:href="#ao"/></g><use x="357.411236" y="589.68" stroke="#000000" stroke-width=".8" xlink:href="#c"/><g transform="translate(353.51 613.75) rotate(-45) scale(.1 -.1)"><use xlink:href="#y"/><use x="29.492188" xlink:href="#v"/><use x="104.296875" xlink:href="#ao"/></g><use x="386.534831" y="589.68" stroke="#000000" stroke-width=".8" xlink:href="#c"/><g transform="translate(382.55 613.92) rotate(-45) scale(.1 -.1)"><use xlink:href="#y"/><use x="29.492188" xlink:href="#v"/><use x="104.296875" xlink:href="#l"/></g><use x="415.658427" y="589.68" stroke="#000000" stroke-width=".8" xlink:href="#c"/><g transform="translate(410.37 616.54) rotate(-45) scale(.1 -.1)"><defs><path id="am" transform="scale(.015625)" d="m1831 0-1781 4666h659l1479-3928 1481 3928h656l-1778-4666h-716z"/></defs><use xlink:href="#x"/><use x="66.658203" xlink:href="#w"/><use x="136.482422" xlink:href="#am"/></g><use x="444.782022" y="589.68" stroke="#000000" stroke-width=".8" xlink:href="#c"/><g transform="translate(438.37 618.77) rotate(-45) scale(.1 -.1)"><use xlink:href="#y"/><use x="29.492188" xlink:href="#v"/><use x="104.296875" xlink:href="#l"/><use x="167.773438" xlink:href="#p"/></g><use x="473.905618" y="589.68" stroke="#000000" stroke-width=".8" xlink:href="#c"/><g transform="translate(464 625.77) rotate(-45) scale(.1 -.1)"><use xlink:href="#aa"/><use x="77.001953" xlink:href="#l"/><use x="140.478516" xlink:href="#w"/><use x="210.302734" xlink:href="#ao"/><use x="265.511719" xlink:href="#w"/></g><use x="503.029213" y="589.68" stroke="#000000" stroke-width=".8" xlink:href="#c"/><g transform="translate(503.01 605.99) rotate(-45) scale(.1 -.1)"><defs><path id="au" transform="scale(.015625)" d="m628 4666h631v-4135h2272v-531h-2903v4666z"/></defs><use xlink:href="#au"/></g><use x="532.152809" y="589.68" stroke="#000000" stroke-width=".8" xlink:href="#c"/><g transform="translate(530.42 609.43) rotate(-45) scale(.1 -.1)"><use xlink:href="#y"/><use x="29.492188" xlink:href="#v"/></g><use x="561.276404" y="589.68" stroke="#000000" stroke-width=".8" xlink:href="#c"/><g transform="translate(555.58 617.36) rotate(-45) scale(.1 -.1)"><use xlink:href="#an"/><use x="73.193359" xlink:href="#am"/><use x="141.601562" xlink:href="#v"/></g><use x="590.4" y="589.68" stroke="#000000" stroke-width=".8" xlink:href="#c"/><g transform="translate(582.79 621.17) rotate(-45) scale(.1 -.1)"><use xlink:href="#aa"/><use x="77.001953" xlink:href="#w"/><use x="146.826172" xlink:href="#j"/><use x="210.009766" xlink:href="#as"/></g><use x="619.523596" y="589.68" stroke="#000000" stroke-width=".8" xlink:href="#c"/><use x="648.647191" y="589.68" stroke="#000000" stroke-width=".8" xlink:href="#c"/><g transform="translate(645.9 611.46) rotate(-45) scale(.1 -.1)"><use xlink:href="#k"/><use x="69.482422" xlink:href="#l"/></g><use x="677.770787" y="589.68" stroke="#000000" stroke-width=".8" xlink:href="#c"/><g transform="translate(673.61 614.28) rotate(-45) scale(.1 -.1)"><use xlink:href="#y"/><use x="29.492188" xlink:href="#v"/><use x="104.296875" xlink:href="#p"/></g><use x="706.894382" y="589.68" stroke="#000000" stroke-width=".8" xlink:href="#c"/><g transform="translate(706.61 606.52) rotate(-45) scale(.1 -.1)"><use xlink:href="#j"/></g><use x="736.017978" y="589.68" stroke="#000000" stroke-width=".8" xlink:href="#c"/><g transform="translate(730.76 616.46) rotate(-45) scale(.1 -.1)"><use xlink:href="#k"/><use x="69.482422" xlink:href="#k"/><use x="133.964844" xlink:href="#w"/></g><use x="765.141573" y="589.68" stroke="#000000" stroke-width=".8" xlink:href="#c"/><g transform="translate(762.09 612.07) rotate(-45) scale(.1 -.1)"><use xlink:href="#an"/><use x="73.193359" xlink:href="#am"/></g><use x="794.265169" y="589.68" stroke="#000000" stroke-width=".8" xlink:href="#c"/><g transform="translate(785.41 623.67) rotate(-45) scale(.1 -.1)"><use xlink:href="#j"/><use x="63.183594" xlink:href="#x"/><use x="131.591797" xlink:href="#ak"/><use x="165.283203" xlink:href="#l"/><use x="228.759766" xlink:href="#aa"/></g><use x="823.388764" y="589.68" stroke="#000000" stroke-width=".8" xlink:href="#c"/><g transform="translate(820.68 611.37) rotate(-45) scale(.1 -.1)"><use xlink:href="#j"/><use x="63.183594" xlink:href="#p"/></g><use x="852.51236" y="589.68" stroke="#000000" stroke-width=".8" xlink:href="#c"/><g transform="translate(847.49 616.01) rotate(-45) scale(.1 -.1)"><use xlink:href="#l"/><use x="63.476562" xlink:href="#k"/><use x="128.958984" xlink:href="#x"/></g><use x="881.635955" y="589.68" stroke="#000000" stroke-width=".8" xlink:href="#c"/><g transform="translate(879.2 610.83) rotate(-45) scale(.1 -.1)"><defs><path id="ba" transform="scale(.015625)" d="m-13 4666h679l1293-1919 1285 1919h678l-1650-2444v-2222h-634v2222l-1651 2444z"/></defs><use xlink:href="#p"/><use x="63.103516" xlink:href="#ba"/></g><use x="910.759551" y="589.68" stroke="#000000" stroke-width=".8" xlink:href="#c"/><g transform="translate(907.8 611.88) rotate(-45) scale(.1 -.1)"><use xlink:href="#k"/><use x="69.482422" xlink:href="#k"/></g><use x="939.883146" y="589.68" stroke="#000000" stroke-width=".8" xlink:href="#c"/><g transform="translate(934.71 616.31) rotate(-45) scale(.1 -.1)"><use xlink:href="#l"/><use x="63.476562" xlink:href="#k"/><use x="132.958984" xlink:href="#p"/></g><use x="969.006742" y="589.68" stroke="#000000" stroke-width=".8" xlink:href="#c"/><g transform="translate(965.23 613.51) rotate(-45) scale(.1 -.1)"><use xlink:href="#j"/><use x="63.183594" xlink:href="#al"/></g><use x="998.130337" y="589.68" stroke="#000000" stroke-width=".8" xlink:href="#c"/><g transform="translate(995.38 611.46) rotate(-45) scale(.1 -.1)"><use xlink:href="#l"/><use x="63.476562" xlink:href="#k"/></g><use x="1027.253933" y="589.68" stroke="#000000" stroke-width=".8" xlink:href="#c"/><g transform="translate(1024.6 611.36) rotate(-45) scale(.1 -.1)"><use xlink:href="#j"/><use x="63.183594" xlink:href="#x"/></g><use x="1056.377528" y="589.68" stroke="#000000" stroke-width=".8" xlink:href="#c"/><g transform="translate(1053.9 610.84) rotate(-45) scale(.1 -.1)"><use xlink:href="#au"/><use x="55.712891" xlink:href="#p"/></g><use x="1085.501124" y="589.68" stroke="#000000" stroke-width=".8" xlink:href="#c"/><g transform="translate(1077.8 621.29) rotate(-45) scale(.1 -.1)"><use xlink:href="#k"/><use x="69.482422" xlink:href="#k"/><use x="134.964844" xlink:href="#x"/><use x="203.373047" xlink:href="#p"/></g><use x="1114.624719" y="589.68" stroke="#000000" stroke-width=".8" xlink:href="#c"/><g transform="translate(1113.5 608.15) rotate(-45) scale(.1 -.1)"><use xlink:href="#at"/></g><g transform="translate(500.26 639.38) scale(.14 -.14)"><defs><path id="bg" transform="scale(.015625)" d="m-19 4666h3947v-532h-1656v-4134h-634v4134h-1657v532z"/><path id="af" transform="scale(.015625)" d="m3578 3500v-3500h-572v2809l-1687-2809h-738v3500h572v-2803l1685 2803h740z"/><path id="r" transform="scale(.015625)" d="m3603 3500v-3500h-578v3041h-1866v-3041h-578v3500h3022z"/><path id="ad" transform="scale(.015625)" d="m3907 3500h575v-3500h-575v3500zm288 84zm-1414-2546q0 281-205 428-204 147-598 147h-819v-1154h819q394 0 598 148 205 149 205 431zm-2200 2462h578v-1428h844q669 0 1030-255 361-254 361-779t-361-782q-361-256-1030-256h-1422v3500z"/><path id="e" transform="scale(.015625)" d="m3597 1894v-281h-2644q38-594 358-905t892-311q331 0 642 81t618 244v-544q-310-131-635-200t-659-69q-838 0-1327 487-489 488-489 1320 0 859 464 1363 464 505 1252 505 706 0 1117-455 411-454 411-1235zm-575 169q-6 471-264 752-258 282-683 282-481 0-770-272t-333-766l2050 4z"/><path id="z" transform="scale(.015625)" d="m1159 525v-1856h-578v4831h578v-531q182 312 458 463 277 152 661 152 638 0 1036-506 399-506 399-1331t-399-1332q-398-506-1036-506-384 0-661 152-276 152-458 464zm1957 1222q0 634-261 995t-717 361q-457 0-718-361t-261-995 261-995 718-361q456 0 717 361t261 995z"/><path id="ae" transform="scale(.015625)" d="m581 3500h841l994-2344 997 2344h834v-3500h-578v2950l-966-2278h-575l-969 2278v-2950h-578v3500z"/><path id="o" transform="scale(.015625)" d="m581 3500h578v-1428h1866v1428h578v-3500h-578v1613h-1866v-1613h-578v3500z"/><path id="ah" transform="scale(.015625)" d="m3513 3500-1266-1703 1331-1797h-678l-1019 1375-1018-1375h-679l1360 1831-1244 1669h678l928-1247 928 1247h679z"/><path id="s" transform="scale(.015625)" d="m2206 1888q388-75 603-304 216-228 216-565 0-541-403-826-403-284-1147-284-250 0-514 44t-545 131v535q222-116 487-174 266-57 556-57 472 0 736 175t264 456q0 275-234 442t-662 167h-463v475h484q363 0 574 139t211 358q0 200-218 344-217 144-588 144-222 0-474-41-251-41-555-131v522q307 75 572 112 266 38 503 38 613 0 967-246 355-245 355-686 0-290-188-492-187-201-537-276z"/><path id="t" transform="scale(.015625)" d="m1156 1613v-1154h819q394 0 600 148 206 149 206 431 0 281-206 428t-600 147h-819zm0 1428v-969h757q325 0 531 129 206 130 206 362 0 231-206 354-206 124-531 124h-757zm-575 459h1369q616 0 947-225t331-641q0-321-169-511-168-189-500-235 397-75 616-313 219-237 219-594 0-468-361-725-361-256-1030-256h-1422v3500z"/><path id="ac" transform="scale(.015625)" d="m1384 459h1669v2582h-1209v-438q0-1287-369-1975l-91-169zm-834 0q284 125 409 391 307 659 307 1988v662h2365v-3041h460v-1343h-460v884h-2837v-884h-460v1343h216z"/></defs><use xlink:href="#bg"/><use x="61.083984" xlink:href="#af"/><use x="126.074219" xlink:href="#r"/><use x="191.455078" xlink:href="#ad"/><use x="270.410156" xlink:href="#DejaVuSans-20"/><use x="302.197266" xlink:href="#r"/><use x="367.578125" xlink:href="#e"/><use x="429.101562" xlink:href="#z"/><use x="492.578125" xlink:href="#e"/><use x="554.101562" xlink:href="#ae"/><use x="629.541016" xlink:href="#e"/><use x="691.064453" xlink:href="#o"/><use x="756.445312" xlink:href="#o"/><use x="821.826172" xlink:href="#ad"/><use x="900.78125" xlink:href="#ah"/><use x="959.960938" xlink:href="#DejaVuSans-20"/><use x="991.748047" xlink:href="#s"/><use x="1044.921875" xlink:href="#t"/><use x="1103.857422" xlink:href="#e"/><use x="1165.380859" xlink:href="#s"/><use x="1218.554688" xlink:href="#ac"/></g><defs><path id="n" d="m0 0h-3.5" stroke="#000" stroke-width=".8"/></defs><use x="46.08" y="589.68" stroke="#000000" stroke-width=".8" xlink:href="#n"/><g transform="translate(32.718 593.48) scale(.1 -.1)"><defs><path id="a" transform="scale(.015625)" d="m2034 4250q-487 0-733-480-245-479-245-1442 0-959 245-1439 246-480 733-480 491 0 736 480 246 480 246 1439 0 963-246 1442-245 480-736 480zm0 500q785 0 1199-621 414-620 414-1801 0-1178-414-1799-414-620-1199-620-784 0-1198 620-414 621-414 1799 0 1181 414 1801 414 621 1198 621z"/></defs><use xlink:href="#a"/></g><use x="46.08" y="526.151668" stroke="#000000" stroke-width=".8" xlink:href="#n"/><g transform="translate(13.63 529.95) scale(.1 -.1)"><defs><path id="d" transform="scale(.015625)" d="m794 531h1031v3560l-1122-225v575l1116 225h631v-4135h1031v-531h-2687v531z"/></defs><use xlink:href="#d"/><use x="63.623047" xlink:href="#a"/><use x="127.246094" xlink:href="#a"/><use x="190.869141" xlink:href="#a"/></g><use x="46.08" y="462.623337" stroke="#000000" stroke-width=".8" xlink:href="#n"/><g transform="translate(13.63 466.42) scale(.1 -.1)"><defs><path id="g" transform="scale(.015625)" d="m1228 531h2203v-531h-2962v531q359 372 979 998 621 627 780 809 303 340 423 576 121 236 121 464 0 372-261 606-261 235-680 235-297 0-627-103-329-103-704-313v638q381 153 712 231 332 78 607 78 725 0 1156-363 431-362 431-968 0-288-108-546-107-257-392-607-78-91-497-524-418-433-1181-1211z"/></defs><use xlink:href="#g"/><use x="63.623047" xlink:href="#a"/><use x="127.246094" xlink:href="#a"/><use x="190.869141" xlink:href="#a"/></g><use x="46.08" y="399.095005" stroke="#000000" stroke-width=".8" xlink:href="#n"/><g transform="translate(13.63 402.89) scale(.1 -.1)"><defs><path id="h" transform="scale(.015625)" d="m2597 2516q453-97 707-404 255-306 255-756 0-690-475-1069-475-378-1350-378-293 0-604 58t-642 174v609q262-153 574-231 313-78 654-78 593 0 904 234t311 681q0 413-289 645-289 233-804 233h-544v519h569q465 0 712 186t247 536q0 359-255 551-254 193-729 193-260 0-557-57-297-56-653-174v562q360 100 674 150t592 50q719 0 1137-327 419-326 419-882 0-388-222-655t-631-370z"/></defs><use xlink:href="#h"/><use x="63.623047" xlink:href="#a"/><use x="127.246094" xlink:href="#a"/><use x="190.869141" xlink:href="#a"/></g><use x="46.08" y="335.566673" stroke="#000000" stroke-width=".8" xlink:href="#n"/><g transform="translate(13.63 339.37) scale(.1 -.1)"><defs><path id="q" transform="scale(.015625)" d="m2419 4116-1594-2491h1594v2491zm-166 550h794v-3041h666v-525h-666v-1100h-628v1100h-2106v609l1940 2957z"/></defs><use xlink:href="#q"/><use x="63.623047" xlink:href="#a"/><use x="127.246094" xlink:href="#a"/><use x="190.869141" xlink:href="#a"/></g><use x="46.08" y="272.038341" stroke="#000000" stroke-width=".8" xlink:href="#n"/><g transform="translate(13.63 275.84) scale(.1 -.1)"><defs><path id="f" transform="scale(.015625)" d="m691 4666h2478v-532h-1900v-1143q137 47 274 70 138 23 276 23 781 0 1237-428 457-428 457-1159 0-753-469-1171-469-417-1322-417-294 0-599 50-304 50-629 150v635q281-153 581-228t634-75q541 0 856 284 316 284 316 772 0 487-316 771-315 285-856 285-253 0-505-56-251-56-513-175v2344z"/></defs><use xlink:href="#f"/><use x="63.623047" xlink:href="#a"/><use x="127.246094" xlink:href="#a"/><use x="190.869141" xlink:href="#a"/></g><use x="46.08" y="208.51001" stroke="#000000" stroke-width=".8" xlink:href="#n"/><g transform="translate(13.63 212.31) scale(.1 -.1)"><defs><path id="i" transform="scale(.015625)" d="m2113 2584q-425 0-674-291-248-290-248-796 0-503 248-796 249-292 674-292t673 292q248 293 248 796 0 506-248 796-248 291-673 291zm1253 1979v-575q-238 112-480 171-242 60-480 60-625 0-955-422-329-422-376-1275 184 272 462 417 279 145 613 145 703 0 1111-427 408-426 408-1160 0-719-425-1154-425-434-1131-434-810 0-1238 620-428 621-428 1799 0 1106 525 1764t1409 658q238 0 480-47t505-140z"/></defs><use xlink:href="#i"/><use x="63.623047" xlink:href="#a"/><use x="127.246094" xlink:href="#a"/><use x="190.869141" xlink:href="#a"/></g><use x="46.08" y="144.981678" stroke="#000000" stroke-width=".8" xlink:href="#n"/><g transform="translate(13.63 148.78) scale(.1 -.1)"><defs><path id="u" transform="scale(.015625)" d="m525 4666h3e3v-269l-1694-4397h-659l1594 4134h-2241v532z"/></defs><use xlink:href="#u"/><use x="63.623047" xlink:href="#a"/><use x="127.246094" xlink:href="#a"/><use x="190.869141" xlink:href="#a"/></g><use x="46.08" y="81.453346" stroke="#000000" stroke-width=".8" xlink:href="#n"/><g transform="translate(13.63 85.253) scale(.1 -.1)"><defs><path id="m" transform="scale(.015625)" d="m2034 2216q-450 0-708-241-257-241-257-662 0-422 257-663 258-241 708-241t709 242q260 243 260 662 0 421-258 662-257 241-711 241zm-631 268q-406 100-633 378-226 279-226 679 0 559 398 884 399 325 1092 325 697 0 1094-325t397-884q0-400-227-679-226-278-629-378 456-106 710-416 255-309 255-755 0-679-414-1042-414-362-1186-362-771 0-1186 362-414 363-414 1042 0 446 256 755 257 310 713 416zm-231 997q0-362 226-565 227-203 636-203 407 0 636 203 230 203 230 565 0 363-230 566-229 203-636 203-409 0-636-203-226-203-226-566z"/></defs><use xlink:href="#m"/><use x="63.623047" xlink:href="#a"/><use x="127.246094" xlink:href="#a"/><use x="190.869141" xlink:href="#a"/></g><g transform="translate(10.718 423.69) rotate(-90) scale(.14 -.14)"><defs><path id="aj" transform="scale(.015625)" d="m628 4666h631v-2307l2257 2307h809l-1803-1844 1897-2822h-688l-1618 2403-854-872v-1531h-631v4666z"/><path id="ab" transform="scale(.015625)" d="m1959 3097q-462 0-731-361t-269-989 267-989q268-361 733-361 460 0 728 362 269 363 269 988 0 622-269 986-268 364-728 364zm0 487q750 0 1178-488 429-487 429-1349 0-859-429-1349-428-489-1178-489-753 0-1180 489-426 490-426 1349 0 862 426 1349 427 488 1180 488z"/><path id="ar" transform="scale(.015625)" d="m238 0v478q568 88 743 481 213 554 213 1969v572h2365v-3500h-575v3041h-1215v-347q0-1350-275-1956-294-647-1256-738z"/><path id="aw" transform="scale(.015625)" d="m2625 0v1472h-1072q-478 0-797 297-287 269-287 844v887h575v-834q0-366 162-550 166-185 491-185h928v1569h575v-3500h-575z"/><path id="aq" transform="scale(.015625)" d="m3122 3366v-538q-244 135-489 202t-495 67q-560 0-870-355-309-354-309-995t309-996q310-354 870-354 250 0 495 67t489 202v-532q-241-112-499-168-257-57-548-57-791 0-1257 497-465 497-465 1341 0 856 470 1346 471 491 1290 491 265 0 518-55 253-54 491-163z"/><path id="ap" transform="scale(.015625)" d="m188 3500h3353v-459h-1394v-3041h-566v3041h-1393v459z"/></defs><use xlink:href="#aj"/><use x="70.996094" xlink:href="#ab"/><use x="132.177734" xlink:href="#ar"/><use x="196.09375" xlink:href="#af"/><use x="261.083984" xlink:href="#aw"/><use x="320.166016" xlink:href="#e"/><use x="381.689453" xlink:href="#aq"/><use x="436.669922" xlink:href="#ap"/><use x="494.921875" xlink:href="#t"/><use x="553.857422" xlink:href="#ab"/><use x="615.039062" xlink:href="#DejaVuSans-20"/><use x="646.826172" xlink:href="#r"/><use x="712.207031" xlink:href="#e"/><use x="773.730469" xlink:href="#z"/><use x="837.207031" xlink:href="#e"/><use x="898.730469" xlink:href="#ae"/><use x="974.169922" xlink:href="#e"/><use x="1035.693359" xlink:href="#o"/><use x="1101.074219" xlink:href="#o"/><use x="1166.455078" xlink:href="#ad"/><use x="1245.410156" xlink:href="#ah"/><use x="1304.589844" xlink:href="#DejaVuSans-20"/><use x="1336.376953" xlink:href="#s"/><use x="1389.550781" xlink:href="#t"/><use x="1448.486328" xlink:href="#e"/><use x="1510.009766" xlink:href="#s"/><use x="1563.183594" xlink:href="#ac"/></g><path d="m46.08 589.68v-560.52" fill="none" stroke="#000" stroke-linecap="square" stroke-width=".8"/><path d="m1134.7 589.68v-560.52" fill="none" stroke="#000" stroke-linecap="square" stroke-width=".8"/><path d="m46.08 589.68h1088.6" fill="none" stroke="#000" stroke-linecap="square" stroke-width=".8"/><path d="m46.08 29.16h1088.6" fill="none" stroke="#000" stroke-linecap="square" stroke-width=".8"/><g transform="translate(56.632 577.75) scale(.1 -.1)"><use xlink:href="#d"/><use x="63.623047" xlink:href="#f"/><use x="127.246094" xlink:href="#f"/></g><g transform="translate(85.755 576.23) scale(.1 -.1)"><defs><path id="ag" transform="scale(.015625)" d="m703 97v575q238-113 481-172 244-59 479-59 625 0 954 420 330 420 377 1277-181-269-460-413-278-144-615-144-700 0-1108 423-408 424-408 1159 0 718 425 1152 425 435 1131 435 810 0 1236-621 427-620 427-1801 0-1103-524-1761-523-658-1407-658-238 0-482 47-243 47-506 141zm1256 1978q425 0 673 290 249 291 249 798 0 503-249 795-248 292-673 292t-673-292-248-795q0-507 248-798 248-290 673-290z"/></defs><use xlink:href="#d"/><use x="63.623047" xlink:href="#u"/><use x="127.246094" xlink:href="#ag"/></g><g transform="translate(114.88 574.83) scale(.1 -.1)"><use xlink:href="#g"/><use x="63.623047" xlink:href="#a"/><use x="127.246094" xlink:href="#d"/></g><g transform="translate(144 574.07) scale(.1 -.1)"><use xlink:href="#g"/><use x="63.623047" xlink:href="#d"/><use x="127.246094" xlink:href="#h"/></g><g transform="translate(173.13 573.69) scale(.1 -.1)"><use xlink:href="#g"/><use x="63.623047" xlink:href="#d"/><use x="127.246094" xlink:href="#ag"/></g><g transform="translate(202.25 571.59) scale(.1 -.1)"><use xlink:href="#g"/><use x="63.623047" xlink:href="#f"/><use x="127.246094" xlink:href="#g"/></g><g transform="translate(231.37 571.08) scale(.1 -.1)"><use xlink:href="#g"/><use x="63.623047" xlink:href="#i"/><use x="127.246094" xlink:href="#a"/></g><g transform="translate(260.5 569.81) scale(.1 -.1)"><use xlink:href="#g"/><use x="63.623047" xlink:href="#m"/><use x="127.246094" xlink:href="#a"/></g><g transform="translate(289.62 568.03) scale(.1 -.1)"><use xlink:href="#h"/><use x="63.623047" xlink:href="#a"/><use x="127.246094" xlink:href="#m"/></g><g transform="translate(318.74 567.72) scale(.1 -.1)"><use xlink:href="#h"/><use x="63.623047" xlink:href="#d"/><use x="127.246094" xlink:href="#h"/></g><g transform="translate(347.87 567.27) scale(.1 -.1)"><use xlink:href="#h"/><use x="63.623047" xlink:href="#g"/><use x="127.246094" xlink:href="#a"/></g><g transform="translate(376.99 564.92) scale(.1 -.1)"><use xlink:href="#h"/><use x="63.623047" xlink:href="#f"/><use x="127.246094" xlink:href="#u"/></g><g transform="translate(406.11 561.05) scale(.1 -.1)"><use xlink:href="#q"/><use x="63.623047" xlink:href="#d"/><use x="127.246094" xlink:href="#m"/></g><g transform="translate(435.24 559.58) scale(.1 -.1)"><use xlink:href="#q"/><use x="63.623047" xlink:href="#q"/><use x="127.246094" xlink:href="#d"/></g><g transform="translate(464.36 555.71) scale(.1 -.1)"><use xlink:href="#f"/><use x="63.623047" xlink:href="#a"/><use x="127.246094" xlink:href="#g"/></g><g transform="translate(493.49 553.68) scale(.1 -.1)"><use xlink:href="#f"/><use x="63.623047" xlink:href="#h"/><use x="127.246094" xlink:href="#q"/></g><g transform="translate(522.61 553.49) scale(.1 -.1)"><use xlink:href="#f"/><use x="63.623047" xlink:href="#h"/><use x="127.246094" xlink:href="#u"/></g><g transform="translate(551.73 552.79) scale(.1 -.1)"><use xlink:href="#f"/><use x="63.623047" xlink:href="#q"/><use x="127.246094" xlink:href="#m"/></g><g transform="translate(580.86 552.02) scale(.1 -.1)"><use xlink:href="#f"/><use x="63.623047" xlink:href="#i"/><use x="127.246094" xlink:href="#a"/></g><g transform="translate(609.98 551.96) scale(.1 -.1)"><use xlink:href="#f"/><use x="63.623047" xlink:href="#i"/><use x="127.246094" xlink:href="#d"/></g><g transform="translate(639.1 546.24) scale(.1 -.1)"><use xlink:href="#i"/><use x="63.623047" xlink:href="#f"/><use x="127.246094" xlink:href="#d"/></g><g transform="translate(668.23 541.54) scale(.1 -.1)"><use xlink:href="#u"/><use x="63.623047" xlink:href="#g"/><use x="127.246094" xlink:href="#f"/></g><g transform="translate(697.35 538.94) scale(.1 -.1)"><use xlink:href="#u"/><use x="63.623047" xlink:href="#i"/><use x="127.246094" xlink:href="#i"/></g><g transform="translate(726.47 526.99) scale(.1 -.1)"><use xlink:href="#ag"/><use x="63.623047" xlink:href="#f"/><use x="127.246094" xlink:href="#q"/></g><g transform="translate(752.42 521.85) scale(.1 -.1)"><use xlink:href="#d"/><use x="63.623047" xlink:href="#a"/><use x="127.246094" xlink:href="#h"/><use x="190.869141" xlink:href="#f"/></g><g transform="translate(781.54 521.59) scale(.1 -.1)"><use xlink:href="#d"/><use x="63.623047" xlink:href="#a"/><use x="127.246094" xlink:href="#h"/><use x="190.869141" xlink:href="#ag"/></g><g transform="translate(810.66 518.67) scale(.1 -.1)"><use xlink:href="#d"/><use x="63.623047" xlink:href="#a"/><use x="127.246094" xlink:href="#m"/><use x="190.869141" xlink:href="#f"/></g><g transform="translate(839.79 517.66) scale(.1 -.1)"><use xlink:href="#d"/><use x="63.623047" xlink:href="#d"/><use x="127.246094" xlink:href="#a"/><use x="190.869141" xlink:href="#d"/></g><g transform="translate(868.91 511.87) scale(.1 -.1)"><use xlink:href="#d"/><use x="63.623047" xlink:href="#d"/><use x="127.246094" xlink:href="#ag"/><use x="190.869141" xlink:href="#g"/></g><g transform="translate(898.03 477.82) scale(.1 -.1)"><use xlink:href="#d"/><use x="63.623047" xlink:href="#u"/><use x="127.246094" xlink:href="#g"/><use x="190.869141" xlink:href="#m"/></g><g transform="translate(927.16 443.65) scale(.1 -.1)"><use xlink:href="#g"/><use x="63.623047" xlink:href="#g"/><use x="127.246094" xlink:href="#i"/><use x="190.869141" xlink:href="#i"/></g><g transform="translate(956.28 421.16) scale(.1 -.1)"><use xlink:href="#g"/><use x="63.623047" xlink:href="#i"/><use x="127.246094" xlink:href="#g"/><use x="190.869141" xlink:href="#a"/></g><g transform="translate(985.41 391.55) scale(.1 -.1)"><use xlink:href="#h"/><use x="63.623047" xlink:href="#a"/><use x="127.246094" xlink:href="#m"/><use x="190.869141" xlink:href="#i"/></g><g transform="translate(1014.5 369.63) scale(.1 -.1)"><use xlink:href="#h"/><use x="63.623047" xlink:href="#q"/><use x="127.246094" xlink:href="#h"/><use x="190.869141" xlink:href="#d"/></g><g transform="translate(1043.7 355.66) scale(.1 -.1)"><use xlink:href="#h"/><use x="63.623047" xlink:href="#i"/><use x="127.246094" xlink:href="#f"/><use x="190.869141" xlink:href="#d"/></g><g transform="translate(1072.8 220.34) scale(.1 -.1)"><use xlink:href="#f"/><use x="63.623047" xlink:href="#u"/><use x="127.246094" xlink:href="#m"/><use x="190.869141" xlink:href="#d"/></g><g transform="translate(1101.9 53.772) scale(.1 -.1)"><use xlink:href="#m"/><use x="63.623047" xlink:href="#q"/><use x="127.246094" xlink:href="#a"/><use x="190.869141" xlink:href="#h"/></g><g transform="translate(283.96 23.16) scale(.16 -.16)"><defs><path id="bh" transform="scale(.015625)" d="m1259 4147v-1753h794q441 0 681 228 241 228 241 650 0 419-241 647-240 228-681 228h-794zm-631 519h1425q785 0 1186-355 402-355 402-1039 0-691-402-1044-401-353-1186-353h-794v-1875h-631v4666z"/><path id="ai" transform="scale(.015625)" d="m2194 1759q-697 0-966-159t-269-544q0-306 202-486 202-179 548-179 479 0 768 339t289 901v128h-572zm1147 238v-1997h-575v531q-197-318-491-470t-719-152q-537 0-855 302-317 302-317 808 0 590 395 890 396 300 1180 300h807v57q0 397-261 614t-733 217q-300 0-585-72-284-72-546-216v532q315 122 612 182 297 61 578 61 760 0 1135-394 375-393 375-1193z"/><path id="ay" transform="scale(.015625)" d="m2522 4238q-688 0-1093-513-404-512-404-1397 0-881 404-1394 405-512 1093-512 687 0 1089 512 402 513 402 1394 0 885-402 1397-402 513-1089 513zm0 512q981 0 1568-658 588-658 588-1764 0-1103-588-1761-587-658-1568-658-984 0-1574 656-589 657-589 1763t589 1764q590 658 1574 658z"/><path id="ax" transform="scale(.015625)" d="m4184 4666v-4666h-631v4134h-2294v-4134h-631v4666h3556z"/><path id="az" transform="scale(.015625)" d="m1828 4750q769 0 1256-327 488-326 488-882 0-388-222-655t-631-370q453-97 707-404 255-306 255-756 0-718-555-1083-554-364-1298-364-381 0-825 103-444 104-581 191v650q478-278 742-345t652-67q587 0 912 225t325 690q0 413-289 645-289 233-898 233h-638v519h663q559 0 806 186t247 536q0 359-255 551-255 193-873 193-419 0-563-38-144-37-784-278v616q353 125 721 178 369 53 638 53z"/><path id="bj" transform="scale(.015625)" d="m684 794h660v-794h-660v794z"/><path id="bi" transform="scale(.015625)" d="m1459 531h2063v3603h-1516v-662q0-1559-350-2594-72-212-197-347zm-921 0q418 197 537 572 303 963 303 2681v882h2775v-4135h531v-1534h-531v1003h-3306v-1003h-531v1534h222z"/><path id="bd" transform="scale(.015625)" d="m581 3500h572v-1644l1622 1644h706l-1337-1353 1509-2147h-644l-1240 1766-616-625v-1141h-572v3500z"/><path id="bf" transform="scale(.015625)" d="m1991 3584q750 0 1178-488 428-487 428-1349 0-859-428-1349-428-489-1178-489-753 0-1169 475t-438 1363l-18 716q-16 371-16 500 0 500 181 868 285 578 777 828t1317 257q381 3 550 56l159-456q-153-63-293-66l-782-53q-393-28-631-166-622-365-681-843l-22-175q406 371 1066 371zm0-487q-463 0-732-361-268-361-268-989t267-989 733-361q459 0 728 362 269 363 269 988 0 622-269 986t-728 364z"/><path id="bc" transform="scale(.015625)" d="m2781 1038q0 281-205 428-204 147-598 147h-819v-1154h819q394 0 598 148 205 149 205 431zm-2200 2462h578v-1428h844q669 0 1030-255 361-254 361-779t-361-782q-361-256-1030-256h-1422v3500z"/><path id="be" transform="scale(.015625)" d="m581 0v3500h2469v-459h-1891v-3041h-578z"/></defs><use xlink:href="#bh"/><use x="60.302734" xlink:href="#ai"/><use x="121.582031" xlink:href="#aq"/><use x="176.5625" xlink:href="#r"/><use x="241.943359" xlink:href="#z"/><use x="305.419922" xlink:href="#e"/><use x="366.943359" xlink:href="#ac"/><use x="436.083984" xlink:href="#e"/><use x="497.607422" xlink:href="#ar"/><use x="561.523438" xlink:href="#e"/><use x="623.046875" xlink:href="#o"/><use x="688.427734" xlink:href="#af"/><use x="753.417969" xlink:href="#e"/><use x="814.941406" xlink:href="#DejaVuSans-20"/><use x="846.728516" xlink:href="#r"/><use x="912.109375" xlink:href="#ab"/><use x="973.291016" xlink:href="#DejaVuSans-20"/><use x="1005.078125" xlink:href="#ap"/><use x="1063.330078" xlink:href="#af"/><use x="1128.320312" xlink:href="#r"/><use x="1193.701172" xlink:href="#ai"/><use x="1254.980469" xlink:href="#ae"/><use x="1330.419922" xlink:href="#DejaVuSans-20"/><use x="1362.207031" xlink:href="#r"/><use x="1427.587891" xlink:href="#e"/><use x="1489.111328" xlink:href="#z"/><use x="1552.587891" xlink:href="#e"/><use x="1614.111328" xlink:href="#ae"/><use x="1689.550781" xlink:href="#e"/><use x="1751.074219" xlink:href="#o"/><use x="1816.455078" xlink:href="#o"/><use x="1881.835938" xlink:href="#ad"/><use x="1960.791016" xlink:href="#ah"/><use x="2019.970703" xlink:href="#DejaVuSans-20"/><use x="2051.757812" xlink:href="#s"/><use x="2104.931641" xlink:href="#t"/><use x="2163.867188" xlink:href="#e"/><use x="2225.390625" xlink:href="#s"/><use x="2278.564453" xlink:href="#ac"/><use x="2347.705078" xlink:href="#DejaVuSans-20"/><use x="2379.492188" xlink:href="#t"/><use x="2438.427734" xlink:href="#DejaVuSans-20"/><use x="2470.214844" xlink:href="#ay"/><use x="2548.925781" xlink:href="#aj"/><use x="2619.921875" xlink:href="#ax"/><use x="2695.117188" xlink:href="#az"/><use x="2759.228516" xlink:href="#bj"/><use x="2791.015625" xlink:href="#DejaVuSans-20"/><use x="2822.802734" xlink:href="#bi"/><use x="2900.927734" xlink:href="#e"/><use x="2962.451172" xlink:href="#bd"/><use x="3022.851562" xlink:href="#ai"/><use x="3084.130859" xlink:href="#bf"/><use x="3145.800781" xlink:href="#z"/><use x="3209.277344" xlink:href="#bc"/><use x="3268.212891" xlink:href="#DejaVuSans-20"/><use x="3300" xlink:href="#g"/><use x="3363.623047" xlink:href="#a"/><use x="3427.246094" xlink:href="#d"/><use x="3490.869141" xlink:href="#i"/><use x="3554.492188" xlink:href="#DejaVuSans-20"/><use x="3586.279297" xlink:href="#be"/><use x="3638.818359" xlink:href="#ab"/><use x="3700" xlink:href="#ac"/><use x="3769.140625" xlink:href="#ai"/></g><path d="m55.88 60.909h330.94q2.8 0 2.8-2.8v-19.149q0-2.8-2.8-2.8h-330.94q-2.8 0-2.8 2.8v19.149q0 2.8 2.8 2.8z" fill="#fff" opacity=".8" stroke="#ccc"/><path d="m58.68 52.398h28v-9.8h-28z" fill="#1f77b4"/><g transform="translate(97.88 52.398) scale(.14 -.14)"><use xlink:href="#aj"/><use x="70.996094" xlink:href="#ab"/><use x="132.177734" xlink:href="#ar"/><use x="196.09375" xlink:href="#af"/><use x="261.083984" xlink:href="#aw"/><use x="320.166016" xlink:href="#e"/><use x="381.689453" xlink:href="#aq"/><use x="436.669922" xlink:href="#ap"/><use x="494.921875" xlink:href="#t"/><use x="553.857422" xlink:href="#ab"/><use x="615.039062" xlink:href="#DejaVuSans-20"/><use x="646.826172" xlink:href="#r"/><use x="712.207031" xlink:href="#e"/><use x="773.730469" xlink:href="#z"/><use x="837.207031" xlink:href="#e"/><use x="898.730469" xlink:href="#ae"/><use x="974.169922" xlink:href="#e"/><use x="1035.693359" xlink:href="#o"/><use x="1101.074219" xlink:href="#o"/><use x="1166.455078" xlink:href="#ad"/><use x="1245.410156" xlink:href="#ah"/><use x="1304.589844" xlink:href="#DejaVuSans-20"/><use x="1336.376953" xlink:href="#s"/><use x="1389.550781" xlink:href="#t"/><use x="1448.486328" xlink:href="#e"/><use x="1510.009766" xlink:href="#s"/><use x="1563.183594" xlink:href="#ac"/><use x="1632.324219" xlink:href="#DejaVuSans-20"/><use x="1664.111328" xlink:href="#t"/><use x="1723.046875" xlink:href="#DejaVuSans-20"/><use x="1754.833984" xlink:href="#ay"/><use x="1833.544922" xlink:href="#aj"/><use x="1904.541016" xlink:href="#ax"/><use x="1979.736328" xlink:href="#az"/></g><defs><clipPath id="b"><rect x="46.08" y="29.16" width="1088.6" height="560.52"/></clipPath></defs></svg>
