<?xml version="1.0" encoding="UTF-8"?>
<!DOCTYPE svg  PUBLIC '-//W3C//DTD SVG 1.1//EN'  'http://www.w3.org/Graphics/SVG/1.1/DTD/svg11.dtd'>
<svg width="1152pt" height="648pt" version="1.1" viewBox="0 0 1152 648" xmlns="http://www.w3.org/2000/svg" xmlns:xlink="http://www.w3.org/1999/xlink"><defs><style type="text/css">*{stroke-linejoin: round; stroke-linecap: butt}</style></defs><path d="m0 648h1152v-648h-1152z" fill="#fff"/><path d="m69.12 609.12h1048.3v-579.96h-1048.3z" fill="#fff"/><path d="m78.702 609.12h32.58v-23.014h-32.58z" clip-path="url(#a)" fill="#1f77b4"/><path d="m117.03 609.12h32.58v-19.179h-32.58z" clip-path="url(#a)" fill="#1f77b4"/><path d="m155.36 609.12h32.58v-53.7h-32.58z" clip-path="url(#a)" fill="#1f77b4"/><path d="m193.69 609.12h32.58v-195.62h-32.58z" clip-path="url(#a)" fill="#1f77b4"/><path d="m232.02 609.12h32.58v-84.386h-32.58z" clip-path="url(#a)" fill="#1f77b4"/><path d="m270.35 609.12h32.58v-138.09h-32.58z" clip-path="url(#a)" fill="#1f77b4"/><path d="m308.68 609.12h32.58v-84.386h-32.58z" clip-path="url(#a)" fill="#1f77b4"/><path d="m347.01 609.12h32.58v-103.56h-32.58z" clip-path="url(#a)" fill="#1f77b4"/><path d="m385.34 609.12h32.58v-241.65h-32.58z" clip-path="url(#a)" fill="#1f77b4"/><path d="m423.67 609.12h32.58v-195.62h-32.58z" clip-path="url(#a)" fill="#1f77b4"/><path d="m462 609.12h32.58v-184.11h-32.58z" clip-path="url(#a)" fill="#1f77b4"/><path d="m500.33 609.12h32.58v-222.47h-32.58z" clip-path="url(#a)" fill="#1f77b4"/><path d="m538.66 609.12h32.58v-256.99h-32.58z" clip-path="url(#a)" fill="#1f77b4"/><path d="m576.99 609.12h32.58v-218.64h-32.58z" clip-path="url(#a)" fill="#1f77b4"/><path d="m615.32 609.12h32.58v-260.83h-32.58z" clip-path="url(#a)" fill="#1f77b4"/><path d="m653.65 609.12h32.58v-295.35h-32.58z" clip-path="url(#a)" fill="#1f77b4"/><path d="m691.98 609.12h32.58v-310.69h-32.58z" clip-path="url(#a)" fill="#1f77b4"/><path d="m730.31 609.12h32.58v-303.02h-32.58z" clip-path="url(#a)" fill="#1f77b4"/><path d="m768.64 609.12h32.58v-383.57h-32.58z" clip-path="url(#a)" fill="#1f77b4"/><path d="m806.97 609.12h32.58v-268.5h-32.58z" clip-path="url(#a)" fill="#1f77b4"/><path d="m845.3 609.12h32.58v-337.54h-32.58z" clip-path="url(#a)" fill="#1f77b4"/><path d="m883.63 609.12h32.58v-345.21h-32.58z" clip-path="url(#a)" fill="#1f77b4"/><path d="m921.96 609.12h32.58v-287.68h-32.58z" clip-path="url(#a)" fill="#1f77b4"/><path d="m960.29 609.12h32.58v-326.04h-32.58z" clip-path="url(#a)" fill="#1f77b4"/><path d="m998.62 609.12h32.58v-379.74h-32.58z" clip-path="url(#a)" fill="#1f77b4"/><path d="m1036.9 609.12h32.58v-326.04h-32.58z" clip-path="url(#a)" fill="#1f77b4"/><path d="m1075.3 609.12h32.58v-69.043h-32.58z" clip-path="url(#a)" fill="#1f77b4"/><path d="m78.702 586.11h32.58v-15.343h-32.58z" clip-path="url(#a)" fill="#ff7f0e"/><path d="m117.03 589.94h32.58v-23.014h-32.58z" clip-path="url(#a)" fill="#ff7f0e"/><path d="m155.36 555.42h32.58v-26.85h-32.58z" clip-path="url(#a)" fill="#ff7f0e"/><path d="m193.69 413.5h32.58v-30.686h-32.58z" clip-path="url(#a)" fill="#ff7f0e"/><path d="m232.02 524.73h32.58v-15.343h-32.58z" clip-path="url(#a)" fill="#ff7f0e"/><path d="m270.35 471.03h32.58v-38.357h-32.58z" clip-path="url(#a)" fill="#ff7f0e"/><path d="m308.68 524.73h32.58v-57.536h-32.58z" clip-path="url(#a)" fill="#ff7f0e"/><path d="m347.01 505.56h32.58v-42.193h-32.58z" clip-path="url(#a)" fill="#ff7f0e"/><path d="m385.34 367.47h32.58v-180.28h-32.58z" clip-path="url(#a)" fill="#ff7f0e"/><path d="m423.67 413.5h32.58v-249.32h-32.58z" clip-path="url(#a)" fill="#ff7f0e"/><path d="m462 425.01h32.58v-184.11h-32.58z" clip-path="url(#a)" fill="#ff7f0e"/><path d="m500.33 386.65h32.58v-272.34h-32.58z" clip-path="url(#a)" fill="#ff7f0e"/><path d="m538.66 352.13h32.58v-191.79h-32.58z" clip-path="url(#a)" fill="#ff7f0e"/><path d="m576.99 390.48h32.58v-176.44h-32.58z" clip-path="url(#a)" fill="#ff7f0e"/><path d="m615.32 348.29h32.58v-149.59h-32.58z" clip-path="url(#a)" fill="#ff7f0e"/><path d="m653.65 313.77h32.58v-176.44h-32.58z" clip-path="url(#a)" fill="#ff7f0e"/><path d="m691.98 298.43h32.58v-187.95h-32.58z" clip-path="url(#a)" fill="#ff7f0e"/><path d="m730.31 306.1h32.58v-249.32h-32.58z" clip-path="url(#a)" fill="#ff7f0e"/><path d="m768.64 225.55h32.58v-149.59h-32.58z" clip-path="url(#a)" fill="#ff7f0e"/><path d="m806.97 340.62h32.58v-207.13h-32.58z" clip-path="url(#a)" fill="#ff7f0e"/><path d="m845.3 271.58h32.58v-149.59h-32.58z" clip-path="url(#a)" fill="#ff7f0e"/><path d="m883.63 263.91h32.58v-153.43h-32.58z" clip-path="url(#a)" fill="#ff7f0e"/><path d="m921.96 321.44h32.58v-118.91h-32.58z" clip-path="url(#a)" fill="#ff7f0e"/><path d="m960.29 283.08h32.58v-153.43h-32.58z" clip-path="url(#a)" fill="#ff7f0e"/><path d="m998.62 229.38h32.58v-149.59h-32.58z" clip-path="url(#a)" fill="#ff7f0e"/><path d="m1036.9 283.08h32.58v-103.56h-32.58z" clip-path="url(#a)" fill="#ff7f0e"/><path d="m1075.3 540.08h32.58v-49.864h-32.58z" clip-path="url(#a)" fill="#ff7f0e"/><defs><path id="e" d="m0 0v3.5" stroke="#000" stroke-width=".8"/></defs><use x="94.992614" y="609.12" stroke="#000000" stroke-width=".8" xlink:href="#e"/><g transform="translate(82.268 623.72) scale(.1 -.1)"><defs><path id="c" transform="scale(.015625)" d="m794 531h1031v3560l-1122-225v575l1116 225h631v-4135h1031v-531h-2687v531z"/><path id="k" transform="scale(.015625)" d="m703 97v575q238-113 481-172 244-59 479-59 625 0 954 420 330 420 377 1277-181-269-460-413-278-144-615-144-700 0-1108 423-408 424-408 1159 0 718 425 1152 425 435 1131 435 810 0 1236-621 427-620 427-1801 0-1103-524-1761-523-658-1407-658-238 0-482 47-243 47-506 141zm1256 1978q425 0 673 290 249 291 249 798 0 503-249 795-248 292-673 292t-673-292-248-795q0-507 248-798 248-290 673-290z"/><path id="v" transform="scale(.015625)" d="m525 4666h3e3v-269l-1694-4397h-659l1594 4134h-2241v532z"/></defs><use xlink:href="#c"/><use x="63.623047" xlink:href="#k"/><use x="127.246094" xlink:href="#k"/><use x="190.869141" xlink:href="#v"/></g><use x="133.322413" y="609.12" stroke="#000000" stroke-width=".8" xlink:href="#e"/><g transform="translate(120.6 623.72) scale(.1 -.1)"><defs><path id="x" transform="scale(.015625)" d="m2034 2216q-450 0-708-241-257-241-257-662 0-422 257-663 258-241 708-241t709 242q260 243 260 662 0 421-258 662-257 241-711 241zm-631 268q-406 100-633 378-226 279-226 679 0 559 398 884 399 325 1092 325 697 0 1094-325t397-884q0-400-227-679-226-278-629-378 456-106 710-416 255-309 255-755 0-679-414-1042-414-362-1186-362-771 0-1186 362-414 363-414 1042 0 446 256 755 257 310 713 416zm-231 997q0-362 226-565 227-203 636-203 407 0 636 203 230 203 230 565 0 363-230 566-229 203-636 203-409 0-636-203-226-203-226-566z"/></defs><use xlink:href="#c"/><use x="63.623047" xlink:href="#k"/><use x="127.246094" xlink:href="#k"/><use x="190.869141" xlink:href="#x"/></g><use x="171.652212" y="609.12" stroke="#000000" stroke-width=".8" xlink:href="#e"/><g transform="translate(158.93 623.72) scale(.1 -.1)"><use xlink:href="#c"/><use x="63.623047" xlink:href="#k"/><use x="127.246094" xlink:href="#k"/><use x="190.869141" xlink:href="#k"/></g><use x="209.982011" y="609.12" stroke="#000000" stroke-width=".8" xlink:href="#e"/><g transform="translate(197.26 623.72) scale(.1 -.1)"><defs><path id="d" transform="scale(.015625)" d="m1228 531h2203v-531h-2962v531q359 372 979 998 621 627 780 809 303 340 423 576 121 236 121 464 0 372-261 606-261 235-680 235-297 0-627-103-329-103-704-313v638q381 153 712 231 332 78 607 78 725 0 1156-363 431-362 431-968 0-288-108-546-107-257-392-607-78-91-497-524-418-433-1181-1211z"/><path id="b" transform="scale(.015625)" d="m2034 4250q-487 0-733-480-245-479-245-1442 0-959 245-1439 246-480 733-480 491 0 736 480 246 480 246 1439 0 963-246 1442-245 480-736 480zm0 500q785 0 1199-621 414-620 414-1801 0-1178-414-1799-414-620-1199-620-784 0-1198 620-414 621-414 1799 0 1181 414 1801 414 621 1198 621z"/></defs><use xlink:href="#d"/><use x="63.623047" xlink:href="#b"/><use x="127.246094" xlink:href="#b"/><use x="190.869141" xlink:href="#b"/></g><use x="248.31181" y="609.12" stroke="#000000" stroke-width=".8" xlink:href="#e"/><g transform="translate(235.59 623.72) scale(.1 -.1)"><use xlink:href="#d"/><use x="63.623047" xlink:href="#b"/><use x="127.246094" xlink:href="#b"/><use x="190.869141" xlink:href="#c"/></g><use x="286.641609" y="609.12" stroke="#000000" stroke-width=".8" xlink:href="#e"/><g transform="translate(273.92 623.72) scale(.1 -.1)"><use xlink:href="#d"/><use x="63.623047" xlink:href="#b"/><use x="127.246094" xlink:href="#b"/><use x="190.869141" xlink:href="#d"/></g><use x="324.971408" y="609.12" stroke="#000000" stroke-width=".8" xlink:href="#e"/><g transform="translate(312.25 623.72) scale(.1 -.1)"><defs><path id="l" transform="scale(.015625)" d="m2597 2516q453-97 707-404 255-306 255-756 0-690-475-1069-475-378-1350-378-293 0-604 58t-642 174v609q262-153 574-231 313-78 654-78 593 0 904 234t311 681q0 413-289 645-289 233-804 233h-544v519h569q465 0 712 186t247 536q0 359-255 551-254 193-729 193-260 0-557-57-297-56-653-174v562q360 100 674 150t592 50q719 0 1137-327 419-326 419-882 0-388-222-655t-631-370z"/></defs><use xlink:href="#d"/><use x="63.623047" xlink:href="#b"/><use x="127.246094" xlink:href="#b"/><use x="190.869141" xlink:href="#l"/></g><use x="363.301207" y="609.12" stroke="#000000" stroke-width=".8" xlink:href="#e"/><g transform="translate(350.58 623.72) scale(.1 -.1)"><defs><path id="q" transform="scale(.015625)" d="m2419 4116-1594-2491h1594v2491zm-166 550h794v-3041h666v-525h-666v-1100h-628v1100h-2106v609l1940 2957z"/></defs><use xlink:href="#d"/><use x="63.623047" xlink:href="#b"/><use x="127.246094" xlink:href="#b"/><use x="190.869141" xlink:href="#q"/></g><use x="401.631005" y="609.12" stroke="#000000" stroke-width=".8" xlink:href="#e"/><g transform="translate(388.91 623.72) scale(.1 -.1)"><defs><path id="y" transform="scale(.015625)" d="m691 4666h2478v-532h-1900v-1143q137 47 274 70 138 23 276 23 781 0 1237-428 457-428 457-1159 0-753-469-1171-469-417-1322-417-294 0-599 50-304 50-629 150v635q281-153 581-228t634-75q541 0 856 284 316 284 316 772 0 487-316 771-315 285-856 285-253 0-505-56-251-56-513-175v2344z"/></defs><use xlink:href="#d"/><use x="63.623047" xlink:href="#b"/><use x="127.246094" xlink:href="#b"/><use x="190.869141" xlink:href="#y"/></g><use x="439.960804" y="609.12" stroke="#000000" stroke-width=".8" xlink:href="#e"/><g transform="translate(427.24 623.72) scale(.1 -.1)"><defs><path id="t" transform="scale(.015625)" d="m2113 2584q-425 0-674-291-248-290-248-796 0-503 248-796 249-292 674-292t673 292q248 293 248 796 0 506-248 796-248 291-673 291zm1253 1979v-575q-238 112-480 171-242 60-480 60-625 0-955-422-329-422-376-1275 184 272 462 417 279 145 613 145 703 0 1111-427 408-426 408-1160 0-719-425-1154-425-434-1131-434-810 0-1238 620-428 621-428 1799 0 1106 525 1764t1409 658q238 0 480-47t505-140z"/></defs><use xlink:href="#d"/><use x="63.623047" xlink:href="#b"/><use x="127.246094" xlink:href="#b"/><use x="190.869141" xlink:href="#t"/></g><use x="478.290603" y="609.12" stroke="#000000" stroke-width=".8" xlink:href="#e"/><g transform="translate(465.57 623.72) scale(.1 -.1)"><use xlink:href="#d"/><use x="63.623047" xlink:href="#b"/><use x="127.246094" xlink:href="#b"/><use x="190.869141" xlink:href="#v"/></g><use x="516.620402" y="609.12" stroke="#000000" stroke-width=".8" xlink:href="#e"/><g transform="translate(503.9 623.72) scale(.1 -.1)"><use xlink:href="#d"/><use x="63.623047" xlink:href="#b"/><use x="127.246094" xlink:href="#b"/><use x="190.869141" xlink:href="#x"/></g><use x="554.950201" y="609.12" stroke="#000000" stroke-width=".8" xlink:href="#e"/><g transform="translate(542.23 623.72) scale(.1 -.1)"><use xlink:href="#d"/><use x="63.623047" xlink:href="#b"/><use x="127.246094" xlink:href="#b"/><use x="190.869141" xlink:href="#k"/></g><use x="593.28" y="609.12" stroke="#000000" stroke-width=".8" xlink:href="#e"/><g transform="translate(580.56 623.72) scale(.1 -.1)"><use xlink:href="#d"/><use x="63.623047" xlink:href="#b"/><use x="127.246094" xlink:href="#c"/><use x="190.869141" xlink:href="#b"/></g><use x="631.609799" y="609.12" stroke="#000000" stroke-width=".8" xlink:href="#e"/><g transform="translate(618.88 623.72) scale(.1 -.1)"><use xlink:href="#d"/><use x="63.623047" xlink:href="#b"/><use x="127.246094" xlink:href="#c"/><use x="190.869141" xlink:href="#c"/></g><use x="669.939598" y="609.12" stroke="#000000" stroke-width=".8" xlink:href="#e"/><g transform="translate(657.21 623.72) scale(.1 -.1)"><use xlink:href="#d"/><use x="63.623047" xlink:href="#b"/><use x="127.246094" xlink:href="#c"/><use x="190.869141" xlink:href="#d"/></g><use x="708.269397" y="609.12" stroke="#000000" stroke-width=".8" xlink:href="#e"/><g transform="translate(695.54 623.72) scale(.1 -.1)"><use xlink:href="#d"/><use x="63.623047" xlink:href="#b"/><use x="127.246094" xlink:href="#c"/><use x="190.869141" xlink:href="#l"/></g><use x="746.599196" y="609.12" stroke="#000000" stroke-width=".8" xlink:href="#e"/><g transform="translate(733.87 623.72) scale(.1 -.1)"><use xlink:href="#d"/><use x="63.623047" xlink:href="#b"/><use x="127.246094" xlink:href="#c"/><use x="190.869141" xlink:href="#q"/></g><use x="784.928995" y="609.12" stroke="#000000" stroke-width=".8" xlink:href="#e"/><g transform="translate(772.2 623.72) scale(.1 -.1)"><use xlink:href="#d"/><use x="63.623047" xlink:href="#b"/><use x="127.246094" xlink:href="#c"/><use x="190.869141" xlink:href="#y"/></g><use x="823.258793" y="609.12" stroke="#000000" stroke-width=".8" xlink:href="#e"/><g transform="translate(810.53 623.72) scale(.1 -.1)"><use xlink:href="#d"/><use x="63.623047" xlink:href="#b"/><use x="127.246094" xlink:href="#c"/><use x="190.869141" xlink:href="#t"/></g><use x="861.588592" y="609.12" stroke="#000000" stroke-width=".8" xlink:href="#e"/><g transform="translate(848.86 623.72) scale(.1 -.1)"><use xlink:href="#d"/><use x="63.623047" xlink:href="#b"/><use x="127.246094" xlink:href="#c"/><use x="190.869141" xlink:href="#v"/></g><use x="899.918391" y="609.12" stroke="#000000" stroke-width=".8" xlink:href="#e"/><g transform="translate(887.19 623.72) scale(.1 -.1)"><use xlink:href="#d"/><use x="63.623047" xlink:href="#b"/><use x="127.246094" xlink:href="#c"/><use x="190.869141" xlink:href="#x"/></g><use x="938.24819" y="609.12" stroke="#000000" stroke-width=".8" xlink:href="#e"/><g transform="translate(925.52 623.72) scale(.1 -.1)"><use xlink:href="#d"/><use x="63.623047" xlink:href="#b"/><use x="127.246094" xlink:href="#c"/><use x="190.869141" xlink:href="#k"/></g><use x="976.577989" y="609.12" stroke="#000000" stroke-width=".8" xlink:href="#e"/><g transform="translate(963.85 623.72) scale(.1 -.1)"><use xlink:href="#d"/><use x="63.623047" xlink:href="#b"/><use x="127.246094" xlink:href="#d"/><use x="190.869141" xlink:href="#b"/></g><use x="1014.907788" y="609.12" stroke="#000000" stroke-width=".8" xlink:href="#e"/><g transform="translate(1002.2 623.72) scale(.1 -.1)"><use xlink:href="#d"/><use x="63.623047" xlink:href="#b"/><use x="127.246094" xlink:href="#d"/><use x="190.869141" xlink:href="#c"/></g><use x="1053.237587" y="609.12" stroke="#000000" stroke-width=".8" xlink:href="#e"/><g transform="translate(1040.5 623.72) scale(.1 -.1)"><use xlink:href="#d"/><use x="63.623047" xlink:href="#b"/><use x="127.246094" xlink:href="#d"/><use x="190.869141" xlink:href="#d"/></g><use x="1091.567386" y="609.12" stroke="#000000" stroke-width=".8" xlink:href="#e"/><g transform="translate(1078.8 623.72) scale(.1 -.1)"><use xlink:href="#d"/><use x="63.623047" xlink:href="#b"/><use x="127.246094" xlink:href="#d"/><use x="190.869141" xlink:href="#l"/></g><g transform="translate(579.89 640.44) scale(.14 -.14)"><defs><path id="af" transform="scale(.015625)" d="m628 0v4666h2903v-532h-2272v-4134h-631z"/><path id="i" transform="scale(.015625)" d="m1959 3097q-462 0-731-361t-269-989 267-989q268-361 733-361 460 0 728 362 269 363 269 988 0 622-269 986-268 364-728 364zm0 487q750 0 1178-488 429-487 429-1349 0-859-429-1349-428-489-1178-489-753 0-1180 489-426 490-426 1349 0 862 426 1349 427 488 1180 488z"/><path id="ab" transform="scale(.015625)" d="m1384 459h1669v2582h-1209v-438q0-1287-369-1975l-91-169zm-834 0q284 125 409 391 307 659 307 1988v662h2365v-3041h460v-1343h-460v884h-2837v-884h-460v1343h216z"/></defs><use xlink:href="#af"/><use x="60.986328" xlink:href="#i"/><use x="122.167969" xlink:href="#ab"/></g><defs><path id="r" d="m0 0h-3.5" stroke="#000" stroke-width=".8"/></defs><use x="69.12" y="609.12" stroke="#000000" stroke-width=".8" xlink:href="#r"/><g transform="translate(55.758 612.92) scale(.1 -.1)"><use xlink:href="#b"/></g><use x="69.12" y="532.405714" stroke="#000000" stroke-width=".8" xlink:href="#r"/><g transform="translate(49.395 536.2) scale(.1 -.1)"><use xlink:href="#d"/><use x="63.623047" xlink:href="#b"/></g><use x="69.12" y="455.691429" stroke="#000000" stroke-width=".8" xlink:href="#r"/><g transform="translate(49.395 459.49) scale(.1 -.1)"><use xlink:href="#q"/><use x="63.623047" xlink:href="#b"/></g><use x="69.12" y="378.977143" stroke="#000000" stroke-width=".8" xlink:href="#r"/><g transform="translate(49.395 382.78) scale(.1 -.1)"><use xlink:href="#t"/><use x="63.623047" xlink:href="#b"/></g><use x="69.12" y="302.262857" stroke="#000000" stroke-width=".8" xlink:href="#r"/><g transform="translate(49.395 306.06) scale(.1 -.1)"><use xlink:href="#x"/><use x="63.623047" xlink:href="#b"/></g><use x="69.12" y="225.548571" stroke="#000000" stroke-width=".8" xlink:href="#r"/><g transform="translate(43.032 229.35) scale(.1 -.1)"><use xlink:href="#c"/><use x="63.623047" xlink:href="#b"/><use x="127.246094" xlink:href="#b"/></g><use x="69.12" y="148.834286" stroke="#000000" stroke-width=".8" xlink:href="#r"/><g transform="translate(43.032 152.63) scale(.1 -.1)"><use xlink:href="#c"/><use x="63.623047" xlink:href="#d"/><use x="127.246094" xlink:href="#b"/></g><use x="69.12" y="72.12" stroke="#000000" stroke-width=".8" xlink:href="#r"/><g transform="translate(43.032 75.919) scale(.1 -.1)"><use xlink:href="#c"/><use x="63.623047" xlink:href="#q"/><use x="127.246094" xlink:href="#b"/></g><defs><path id="f" d="m0 0h-2" stroke="#000" stroke-width=".6"/></defs><use x="69.12" y="589.941429" stroke="#000000" stroke-width=".6" xlink:href="#f"/><use x="69.12" y="570.762857" stroke="#000000" stroke-width=".6" xlink:href="#f"/><use x="69.12" y="551.584286" stroke="#000000" stroke-width=".6" xlink:href="#f"/><use x="69.12" y="513.227143" stroke="#000000" stroke-width=".6" xlink:href="#f"/><use x="69.12" y="494.048571" stroke="#000000" stroke-width=".6" xlink:href="#f"/><use x="69.12" y="474.87" stroke="#000000" stroke-width=".6" xlink:href="#f"/><use x="69.12" y="436.512857" stroke="#000000" stroke-width=".6" xlink:href="#f"/><use x="69.12" y="417.334286" stroke="#000000" stroke-width=".6" xlink:href="#f"/><use x="69.12" y="398.155714" stroke="#000000" stroke-width=".6" xlink:href="#f"/><use x="69.12" y="359.798571" stroke="#000000" stroke-width=".6" xlink:href="#f"/><use x="69.12" y="340.62" stroke="#000000" stroke-width=".6" xlink:href="#f"/><use x="69.12" y="321.441429" stroke="#000000" stroke-width=".6" xlink:href="#f"/><use x="69.12" y="283.084286" stroke="#000000" stroke-width=".6" xlink:href="#f"/><use x="69.12" y="263.905714" stroke="#000000" stroke-width=".6" xlink:href="#f"/><use x="69.12" y="244.727143" stroke="#000000" stroke-width=".6" xlink:href="#f"/><use x="69.12" y="206.37" stroke="#000000" stroke-width=".6" xlink:href="#f"/><use x="69.12" y="187.191429" stroke="#000000" stroke-width=".6" xlink:href="#f"/><use x="69.12" y="168.012857" stroke="#000000" stroke-width=".6" xlink:href="#f"/><use x="69.12" y="129.655714" stroke="#000000" stroke-width=".6" xlink:href="#f"/><use x="69.12" y="110.477143" stroke="#000000" stroke-width=".6" xlink:href="#f"/><use x="69.12" y="91.298571" stroke="#000000" stroke-width=".6" xlink:href="#f"/><use x="69.12" y="52.941429" stroke="#000000" stroke-width=".6" xlink:href="#f"/><use x="69.12" y="33.762857" stroke="#000000" stroke-width=".6" xlink:href="#f"/><g transform="translate(36.121 408.16) rotate(-90) scale(.14 -.14)"><defs><path id="g" transform="scale(.015625)" d="m2194 1759q-697 0-966-159t-269-544q0-306 202-486 202-179 548-179 479 0 768 339t289 901v128h-572zm1147 238v-1997h-575v531q-197-318-491-470t-719-152q-537 0-855 302-317 302-317 808 0 590 395 890 396 300 1180 300h807v57q0 397-261 614t-733 217q-300 0-585-72-284-72-546-216v532q315 122 612 182 297 61 578 61 760 0 1135-394 375-393 375-1193z"/><path id="n" transform="scale(.015625)" d="m581 3500h841l994-2344 997 2344h834v-3500h-578v2950l-966-2278h-575l-969 2278v-2950h-578v3500z"/><path id="ad" transform="scale(.015625)" d="m313 2009h1684v-512h-1684v512z"/><path id="p" transform="scale(.015625)" d="m1156 1613v-1154h819q394 0 600 148 206 149 206 431 0 281-206 428t-600 147h-819zm0 1428v-969h757q325 0 531 129 206 130 206 362 0 231-206 354-206 124-531 124h-757zm-575 459h1369q616 0 947-225t331-641q0-321-169-511-168-189-500-235 397-75 616-313 219-237 219-594 0-468-361-725-361-256-1030-256h-1422v3500z"/><path id="h" transform="scale(.015625)" d="m3122 3366v-538q-244 135-489 202t-495 67q-560 0-870-355-309-354-309-995t309-996q310-354 870-354 250 0 495 67t489 202v-532q-241-112-499-168-257-57-548-57-791 0-1257 497-465 497-465 1341 0 856 470 1346 471 491 1290 491 265 0 518-55 253-54 491-163z"/><path id="u" transform="scale(.015625)" d="m3603 3500v-3500h-578v3041h-1866v-3041h-578v3500h3022z"/><path id="o" transform="scale(.015625)" d="m238 0v478q568 88 743 481 213 554 213 1969v572h2365v-3500h-575v3041h-1215v-347q0-1350-275-1956-294-647-1256-738z"/><path id="j" transform="scale(.015625)" d="m3597 1894v-281h-2644q38-594 358-905t892-311q331 0 642 81t618 244v-544q-310-131-635-200t-659-69q-838 0-1327 487-489 488-489 1320 0 859 464 1363 464 505 1252 505 706 0 1117-455 411-454 411-1235zm-575 169q-6 471-264 752-258 282-683 282-481 0-770-272t-333-766l2050 4z"/><path id="s" transform="scale(.015625)" d="m581 3500h572v-1644l1622 1644h706l-1337-1353 1509-2147h-644l-1240 1766-616-625v-1141h-572v3500z"/><path id="ac" transform="scale(.015625)" d="m2206 1888q388-75 603-304 216-228 216-565 0-541-403-826-403-284-1147-284-250 0-514 44t-545 131v535q222-116 487-174 266-57 556-57 472 0 736 175t264 456q0 275-234 442t-662 167h-463v475h484q363 0 574 139t211 358q0 200-218 344-217 144-588 144-222 0-474-41-251-41-555-131v522q307 75 572 112 266 38 503 38 613 0 967-246 355-245 355-686 0-290-188-492-187-201-537-276z"/><path id="w" transform="scale(.015625)" d="m581 0v3500h2469v-459h-1891v-3041h-578z"/></defs><use xlink:href="#af"/><use x="60.986328" xlink:href="#g"/><use x="122.265625" xlink:href="#n"/><use x="197.705078" xlink:href="#n"/><use x="273.144531" xlink:href="#g"/><use x="334.423828" xlink:href="#ad"/><use x="370.507812" xlink:href="#p"/><use x="429.443359" xlink:href="#h"/><use x="484.423828" xlink:href="#u"/><use x="549.804688" xlink:href="#o"/><use x="613.720703" xlink:href="#j"/><use x="675.244141" xlink:href="#h"/><use x="730.224609" xlink:href="#s"/><use x="790.625" xlink:href="#i"/><use x="851.806641" xlink:href="#p"/><use x="910.742188" xlink:href="#DejaVuSans-20"/><use x="942.529297" xlink:href="#ac"/><use x="995.703125" xlink:href="#g"/><use x="1056.982422" xlink:href="#DejaVuSans-20"/><use x="1088.769531" xlink:href="#w"/><use x="1141.308594" xlink:href="#i"/><use x="1202.490234" xlink:href="#ab"/></g><path d="m69.12 609.12v-579.96" fill="none" stroke="#000" stroke-linecap="square" stroke-width=".8"/><path d="m1117.4 609.12v-579.96" fill="none" stroke="#000" stroke-linecap="square" stroke-width=".8"/><path d="m69.12 609.12h1048.3" fill="none" stroke="#000" stroke-linecap="square" stroke-width=".8"/><path d="m69.12 29.16h1048.3" fill="none" stroke="#000" stroke-linecap="square" stroke-width=".8"/><g transform="translate(88.63 568.68) scale(.1 -.1)"><use xlink:href="#c"/><use x="63.623047" xlink:href="#b"/></g><g transform="translate(126.96 564.85) scale(.1 -.1)"><use xlink:href="#c"/><use x="63.623047" xlink:href="#c"/></g><g transform="translate(165.29 526.49) scale(.1 -.1)"><use xlink:href="#d"/><use x="63.623047" xlink:href="#c"/></g><g transform="translate(203.62 380.73) scale(.1 -.1)"><use xlink:href="#y"/><use x="63.623047" xlink:href="#k"/></g><g transform="translate(241.95 507.31) scale(.1 -.1)"><use xlink:href="#d"/><use x="63.623047" xlink:href="#t"/></g><g transform="translate(280.28 430.6) scale(.1 -.1)"><use xlink:href="#q"/><use x="63.623047" xlink:href="#t"/></g><g transform="translate(318.61 465.12) scale(.1 -.1)"><use xlink:href="#l"/><use x="63.623047" xlink:href="#v"/></g><g transform="translate(356.94 461.28) scale(.1 -.1)"><use xlink:href="#l"/><use x="63.623047" xlink:href="#x"/></g><g transform="translate(392.09 185.11) scale(.1 -.1)"><use xlink:href="#c"/><use x="63.623047" xlink:href="#c"/><use x="127.246094" xlink:href="#b"/></g><g transform="translate(430.42 162.1) scale(.1 -.1)"><use xlink:href="#c"/><use x="63.623047" xlink:href="#c"/><use x="127.246094" xlink:href="#t"/></g><g transform="translate(471.93 238.81) scale(.1 -.1)"><use xlink:href="#k"/><use x="63.623047" xlink:href="#t"/></g><g transform="translate(507.08 112.23) scale(.1 -.1)"><use xlink:href="#c"/><use x="63.623047" xlink:href="#d"/><use x="127.246094" xlink:href="#k"/></g><g transform="translate(545.41 158.26) scale(.1 -.1)"><use xlink:href="#c"/><use x="63.623047" xlink:href="#c"/><use x="127.246094" xlink:href="#v"/></g><g transform="translate(583.74 211.96) scale(.1 -.1)"><use xlink:href="#c"/><use x="63.623047" xlink:href="#b"/><use x="127.246094" xlink:href="#l"/></g><g transform="translate(622.07 196.62) scale(.1 -.1)"><use xlink:href="#c"/><use x="63.623047" xlink:href="#b"/><use x="127.246094" xlink:href="#v"/></g><g transform="translate(660.4 135.25) scale(.1 -.1)"><use xlink:href="#c"/><use x="63.623047" xlink:href="#d"/><use x="127.246094" xlink:href="#l"/></g><g transform="translate(698.73 108.4) scale(.1 -.1)"><use xlink:href="#c"/><use x="63.623047" xlink:href="#l"/><use x="127.246094" xlink:href="#b"/></g><g transform="translate(737.06 54.697) scale(.1 -.1)"><use xlink:href="#c"/><use x="63.623047" xlink:href="#q"/><use x="127.246094" xlink:href="#q"/></g><g transform="translate(775.39 73.876) scale(.1 -.1)"><use xlink:href="#c"/><use x="63.623047" xlink:href="#l"/><use x="127.246094" xlink:href="#k"/></g><g transform="translate(813.72 131.41) scale(.1 -.1)"><use xlink:href="#c"/><use x="63.623047" xlink:href="#d"/><use x="127.246094" xlink:href="#q"/></g><g transform="translate(852.04 119.9) scale(.1 -.1)"><use xlink:href="#c"/><use x="63.623047" xlink:href="#d"/><use x="127.246094" xlink:href="#v"/></g><g transform="translate(890.37 108.4) scale(.1 -.1)"><use xlink:href="#c"/><use x="63.623047" xlink:href="#l"/><use x="127.246094" xlink:href="#b"/></g><g transform="translate(928.7 200.45) scale(.1 -.1)"><use xlink:href="#c"/><use x="63.623047" xlink:href="#b"/><use x="127.246094" xlink:href="#t"/></g><g transform="translate(967.03 127.58) scale(.1 -.1)"><use xlink:href="#c"/><use x="63.623047" xlink:href="#d"/><use x="127.246094" xlink:href="#y"/></g><g transform="translate(1005.4 77.712) scale(.1 -.1)"><use xlink:href="#c"/><use x="63.623047" xlink:href="#l"/><use x="127.246094" xlink:href="#x"/></g><g transform="translate(1043.7 177.44) scale(.1 -.1)"><use xlink:href="#c"/><use x="63.623047" xlink:href="#c"/><use x="127.246094" xlink:href="#d"/></g><g transform="translate(1085.2 488.13) scale(.1 -.1)"><use xlink:href="#l"/><use x="63.623047" xlink:href="#c"/></g><g transform="translate(137.32 23.16) scale(.16 -.16)"><defs><path id="az" transform="scale(.015625)" d="m4122 4306v-665q-319 297-680 443-361 147-767 147-800 0-1225-489t-425-1414q0-922 425-1411t1225-489q406 0 767 147t680 444v-660q-331-225-702-338-370-112-782-112-1060 0-1670 648-609 649-609 1771 0 1125 609 1773 610 649 1670 649 418 0 788-111 371-111 696-333z"/><path id="z" transform="scale(.015625)" d="m188 3500h3353v-459h-1394v-3041h-566v3041h-1393v459z"/><path id="m" transform="scale(.015625)" d="m3578 3500v-3500h-572v2809l-1687-2809h-738v3500h572v-2803l1685 2803h740z"/><path id="bd" transform="scale(.015625)" d="m750 794h659v-538l-512-1e3h-403l256 1e3v538z"/><path id="aa" transform="scale(.015625)" d="m581 3500h578v-1428h1866v1428h578v-3500h-578v1613h-1866v-1613h-578v3500z"/><path id="ae" transform="scale(.015625)" d="m3907 3500h575v-3500h-575v3500zm288 84zm-1414-2546q0 281-205 428-204 147-598 147h-819v-1154h819q394 0 598 148 205 149 205 431zm-2200 2462h578v-1428h844q669 0 1030-255 361-254 361-779t-361-782q-361-256-1030-256h-1422v3500z"/><path id="ah" transform="scale(.015625)" d="m3513 3500-1266-1703 1331-1797h-678l-1019 1375-1018-1375h-679l1360 1831-1244 1669h678l928-1247 928 1247h679z"/><path id="ai" transform="scale(.015625)" d="m1159 525v-1856h-578v4831h578v-531q182 312 458 463 277 152 661 152 638 0 1036-506 399-506 399-1331t-399-1332q-398-506-1036-506-384 0-661 152-276 152-458 464zm1957 1222q0 634-261 995t-717 361q-457 0-718-361t-261-995 261-995 718-361q456 0 717 361t261 995z"/><path id="ax" transform="scale(.015625)" d="m2059-325q-243-625-475-815-231-191-618-191h-460v481h338q237 0 368 113 132 112 291 531l103 262-1415 3444h609l1094-2737 1094 2737h609l-1538-3825z"/><path id="ak" transform="scale(.015625)" d="m684 794h660v-794h-660v794z"/><path id="bc" transform="scale(.015625)" d="m1259 2228v-1709h1013q509 0 754 211 246 211 246 645 0 438-246 645-245 208-754 208h-1013zm0 1919v-1406h935q462 0 688 173 227 174 227 530 0 353-227 528-226 175-688 175h-935zm-631 519h1613q722 0 1112-300 391-300 391-853 0-429-200-682t-588-315q466-100 724-418 258-317 258-792 0-625-425-966-425-340-1210-340h-1675v4666z"/><path id="aj" transform="scale(.015625)" d="m1991 3584q750 0 1178-488 428-487 428-1349 0-859-428-1349-428-489-1178-489-753 0-1169 475t-438 1363l-18 716q-16 371-16 500 0 500 181 868 285 578 777 828t1317 257q381 3 550 56l159-456q-153-63-293-66l-782-53q-393-28-631-166-622-365-681-843l-22-175q406 371 1066 371zm0-487q-463 0-732-361-268-361-268-989t267-989 733-361q459 0 728 362 269 363 269 988 0 622-269 986t-728 364z"/><path id="ay" transform="scale(.015625)" d="m3578 3500v-3500h-572v2809l-1687-2809h-738v3500h572v-2803l1685 2803h740zm-2476 1333h369q34-234 185-352 152-117 424-117 269 0 419 116t190 353h369q-31-447-278-672t-700-225-700 225-278 672z"/><path id="bb" transform="scale(.015625)" d="m4159 4666v-4666h-612v3903l-2069-3903h-850v4666h613v-3903l2068 3903h850z"/><path id="av" transform="scale(.015625)" d="m3431 3097q-462 0-731-361t-269-989 267-989q268-361 733-361 460 0 728 362 269 363 269 988 0 622-269 986-268 364-728 364zm-1587-994q59 594 448 1037 389 444 1139 444t1178-488q429-487 429-1349 0-859-429-1349-428-489-1178-489-753 0-1164 472t-439 1247h-650v-1628h-575v3500h575v-1397h666z"/><path id="aw" transform="scale(.015625)" d="m2781 1038q0 281-205 428-204 147-598 147h-819v-1154h819q394 0 598 148 205 149 205 431zm-2200 2462h578v-1428h844q669 0 1030-255 361-254 361-779t-361-782q-361-256-1030-256h-1422v3500z"/></defs><use xlink:href="#az"/><use x="69.824219" xlink:href="#z"/><use x="128.076172" xlink:href="#g"/><use x="189.355469" xlink:href="#z"/><use x="247.607422" xlink:href="#m"/><use x="312.597656" xlink:href="#h"/><use x="367.578125" xlink:href="#z"/><use x="425.830078" xlink:href="#m"/><use x="490.820312" xlink:href="#s"/><use x="551.220703" xlink:href="#g"/><use x="612.5" xlink:href="#DejaVuSans-20"/><use x="644.287109" xlink:href="#w"/><use x="696.826172" xlink:href="#g"/><use x="758.105469" xlink:href="#n"/><use x="833.544922" xlink:href="#n"/><use x="908.984375" xlink:href="#g"/><use x="970.263672" xlink:href="#ad"/><use x="1006.347656" xlink:href="#p"/><use x="1065.283203" xlink:href="#h"/><use x="1120.263672" xlink:href="#u"/><use x="1185.644531" xlink:href="#o"/><use x="1249.560547" xlink:href="#j"/><use x="1311.083984" xlink:href="#h"/><use x="1366.064453" xlink:href="#s"/><use x="1426.464844" xlink:href="#i"/><use x="1487.646484" xlink:href="#p"/><use x="1546.582031" xlink:href="#bd"/><use x="1578.369141" xlink:href="#DejaVuSans-20"/><use x="1610.15625" xlink:href="#o"/><use x="1674.072266" xlink:href="#i"/><use x="1735.253906" xlink:href="#s"/><use x="1795.654297" xlink:href="#g"/><use x="1856.933594" xlink:href="#o"/><use x="1920.849609" xlink:href="#m"/><use x="1985.839844" xlink:href="#ac"/><use x="2039.013672" xlink:href="#i"/><use x="2100.195312" xlink:href="#p"/><use x="2159.130859" xlink:href="#g"/><use x="2220.410156" xlink:href="#aa"/><use x="2285.791016" xlink:href="#aa"/><use x="2351.171875" xlink:href="#ae"/><use x="2430.126953" xlink:href="#ah"/><use x="2489.306641" xlink:href="#DejaVuSans-20"/><use x="2521.09375" xlink:href="#p"/><use x="2580.029297" xlink:href="#DejaVuSans-20"/><use x="2611.816406" xlink:href="#u"/><use x="2677.197266" xlink:href="#ai"/><use x="2740.673828" xlink:href="#j"/><use x="2802.197266" xlink:href="#ab"/><use x="2871.337891" xlink:href="#j"/><use x="2932.861328" xlink:href="#o"/><use x="2996.777344" xlink:href="#g"/><use x="3058.056641" xlink:href="#ah"/><use x="3117.236328" xlink:href="#DejaVuSans-20"/><use x="3149.023438" xlink:href="#c"/><use x="3212.646484" xlink:href="#DejaVuSans-20"/><use x="3244.433594" xlink:href="#w"/><use x="3296.972656" xlink:href="#ai"/><use x="3360.449219" xlink:href="#g"/><use x="3421.728516" xlink:href="#ab"/><use x="3490.869141" xlink:href="#ax"/><use x="3550.048828" xlink:href="#h"/><use x="3605.029297" xlink:href="#g"/><use x="3666.308594" xlink:href="#ak"/><use x="3698.095703" xlink:href="#DejaVuSans-20"/><use x="3729.882812" xlink:href="#bc"/><use x="3798.486328" xlink:href="#h"/><use x="3853.466797" xlink:href="#j"/><use x="3914.990234" xlink:href="#w"/><use x="3967.529297" xlink:href="#i"/><use x="4028.710938" xlink:href="#DejaVuSans-20"/><use x="4060.498047" xlink:href="#d"/><use x="4124.121094" xlink:href="#q"/><use x="4187.744141" xlink:href="#y"/><use x="4251.367188" xlink:href="#y"/><use x="4314.990234" xlink:href="#DejaVuSans-20"/><use x="4346.777344" xlink:href="#h"/><use x="4401.757812" xlink:href="#i"/><use x="4462.939453" xlink:href="#aj"/><use x="4524.609375" xlink:href="#ae"/><use x="4603.564453" xlink:href="#z"/><use x="4661.816406" xlink:href="#m"/><use x="4726.806641" xlink:href="#ay"/><use x="4791.796875" xlink:href="#ak"/><use x="4823.583984" xlink:href="#DejaVuSans-20"/><use x="4855.371094" xlink:href="#bb"/><use x="4930.175781" xlink:href="#av"/><use x="5014.355469" xlink:href="#o"/><use x="5078.271484" xlink:href="#aw"/><use x="5137.207031" xlink:href="#DejaVuSans-20"/><use x="5168.994141" xlink:href="#d"/><use x="5232.617188" xlink:href="#b"/><use x="5296.240234" xlink:href="#d"/><use x="5359.863281" xlink:href="#l"/><use x="5423.486328" xlink:href="#DejaVuSans-20"/><use x="5455.273438" xlink:href="#w"/><use x="5507.8125" xlink:href="#i"/><use x="5568.994141" xlink:href="#ab"/><use x="5638.134766" xlink:href="#g"/></g><path d="m78.92 81.697h413.16q2.8 0 2.8-2.8v-39.937q0-2.8-2.8-2.8h-413.16q-2.8 0-2.8 2.8v39.937q0 2.8 2.8 2.8z" fill="#fff" opacity=".8" stroke="#ccc"/><path d="m81.72 52.636h28v-9.8h-28z" fill="#1f77b4"/><g transform="translate(120.92 52.636) scale(.14 -.14)"><defs><path id="ba" transform="scale(.015625)" d="m263 0v531q678 147 871 660 272 806 272 2681v794h2775v-4666h-631v4134h-1516v-575q0-1768-318-2593-307-791-1453-966z"/><path id="at" transform="scale(.015625)" d="m2194 1759q-697 0-966-159t-269-544q0-306 202-486 202-179 548-179 479 0 768 339t289 901v128h-572zm1147 238v-1997h-575v531q-197-318-491-470t-719-152q-537 0-855 302-317 302-317 808 0 590 395 890 396 300 1180 300h807v57q0 397-261 614t-733 217q-300 0-585-72-284-72-546-216v532q315 122 612 182 297 61 578 61 760 0 1135-394 375-393 375-1193z"/><path id="ar" transform="scale(.015625)" d="m2375 4863v-479h-550q-309 0-430-125-120-125-120-450v-309h947v-447h-947v-3053h-578v3053h-550v447h550v244q0 584 272 851 272 268 862 268h544z"/><path id="am" transform="scale(.015625)" d="m1172 4494v-994h1184v-447h-1184v-1900q0-428 117-550t477-122h590v-481h-590q-666 0-919 248-253 249-253 905v1900h-422v447h422v994h578z"/><path id="as" transform="scale(.015625)" d="m3597 1894v-281h-2644q38-594 358-905t892-311q331 0 642 81t618 244v-544q-310-131-635-200t-659-69q-838 0-1327 487-489 488-489 1320 0 859 464 1363 464 505 1252 505 706 0 1117-455 411-454 411-1235zm-575 169q-6 471-264 752-258 282-683 282-481 0-770-272t-333-766l2050 4z"/><path id="an" transform="scale(.015625)" d="m2631 2963q-97 56-211 82-114 27-251 27-488 0-749-317t-261-911v-1844h-578v3500h578v-544q182 319 472 473 291 155 707 155 59 0 131-8 72-7 159-23l3-590z"/><path id="aq" transform="scale(.015625)" d="m2906 1791q0 625-258 968-257 344-723 344-462 0-720-344-258-343-258-968 0-622 258-966t720-344q466 0 723 344 258 344 258 966zm575-1357q0-893-397-1329-396-436-1215-436-303 0-572 45t-522 139v559q253-137 500-202 247-66 503-66 566 0 847 295t281 892v285q-178-310-456-463t-666-153q-643 0-1037 490-394 491-394 1301 0 812 394 1302 394 491 1037 491 388 0 666-153t456-462v531h575v-3066z"/><path id="ap" transform="scale(.015625)" d="m603 4863h575v-4863h-575v4863z"/><path id="ao" transform="scale(.015625)" d="m1959 3097q-462 0-731-361t-269-989 267-989q268-361 733-361 460 0 728 362 269 363 269 988 0 622-269 986-268 364-728 364zm0 487q750 0 1178-488 429-487 429-1349 0-859-429-1349-428-489-1178-489-753 0-1180 489-426 490-426 1349 0 862 426 1349 427 488 1180 488z"/><path id="al" transform="scale(.015625)" d="m269 3500h575l719-2731 715 2731h678l719-2731 716 2731h575l-916-3500h-678l-753 2869-756-2869h-679l-915 3500z"/></defs><use xlink:href="#ba"/><use x="75.195312" xlink:href="#i"/><use x="136.376953" xlink:href="#s"/><use x="196.777344" xlink:href="#g"/><use x="258.056641" xlink:href="#o"/><use x="321.972656" xlink:href="#m"/><use x="386.962891" xlink:href="#ac"/><use x="440.136719" xlink:href="#i"/><use x="501.318359" xlink:href="#p"/><use x="560.253906" xlink:href="#g"/><use x="621.533203" xlink:href="#aa"/><use x="686.914062" xlink:href="#aa"/><use x="752.294922" xlink:href="#ae"/><use x="831.25" xlink:href="#j"/><use x="892.773438" xlink:href="#DejaVuSans-20"/><use x="924.560547" xlink:href="#w"/><use x="977.099609" xlink:href="#g"/><use x="1038.378906" xlink:href="#n"/><use x="1113.818359" xlink:href="#n"/><use x="1189.257812" xlink:href="#g"/><use x="1250.537109" xlink:href="#ad"/><use x="1286.621094" xlink:href="#p"/><use x="1345.556641" xlink:href="#h"/><use x="1400.537109" xlink:href="#u"/><use x="1465.917969" xlink:href="#o"/><use x="1529.833984" xlink:href="#j"/><use x="1591.357422" xlink:href="#h"/><use x="1646.337891" xlink:href="#s"/><use x="1706.738281" xlink:href="#m"/><use x="1771.728516" xlink:href="#DejaVuSans-20"/><use x="1803.515625" xlink:href="#aj"/><use x="1865.185547" xlink:href="#j"/><use x="1926.708984" xlink:href="#ac"/><use x="1979.882812" xlink:href="#DejaVuSans-20"/><use x="2011.669922" xlink:href="#at"/><use x="2072.949219" xlink:href="#ar"/><use x="2106.404297" xlink:href="#am"/><use x="2145.613281" xlink:href="#as"/><use x="2207.136719" xlink:href="#an"/><use x="2246.5" xlink:href="#aq"/><use x="2309.976562" xlink:href="#ap"/><use x="2337.759766" xlink:href="#ao"/><use x="2398.941406" xlink:href="#al"/></g><path d="m81.72 73.186h28v-9.8h-28z" fill="#ff7f0e"/><g transform="translate(120.92 73.186) scale(.14 -.14)"><defs><path id="ag" transform="scale(.015625)" d="m2625 0v1472h-1072q-478 0-797 297-287 269-287 844v887h575v-834q0-366 162-550 166-185 491-185h928v1569h575v-3500h-575z"/><path id="au" transform="scale(.015625)" d="m1181 2491q0-260 200-407 200-146 572-146h775v1103h-775q-372 0-572-144t-200-406zm-818-2491 1068 1534q-362 82-603 296-240 214-240 661 0 506 335 757 336 252 1015 252h1368v-3500h-578v1478h-715l-1032-1478h-618z"/></defs><use xlink:href="#af"/><use x="60.986328" xlink:href="#g"/><use x="122.265625" xlink:href="#n"/><use x="197.705078" xlink:href="#n"/><use x="273.144531" xlink:href="#g"/><use x="334.423828" xlink:href="#ad"/><use x="370.507812" xlink:href="#p"/><use x="429.443359" xlink:href="#h"/><use x="484.423828" xlink:href="#u"/><use x="549.804688" xlink:href="#o"/><use x="613.720703" xlink:href="#j"/><use x="675.244141" xlink:href="#h"/><use x="730.224609" xlink:href="#s"/><use x="790.625" xlink:href="#m"/><use x="855.615234" xlink:href="#DejaVuSans-20"/><use x="887.402344" xlink:href="#h"/><use x="942.382812" xlink:href="#DejaVuSans-20"/><use x="974.169922" xlink:href="#i"/><use x="1035.351562" xlink:href="#u"/><use x="1100.732422" xlink:href="#z"/><use x="1158.984375" xlink:href="#m"/><use x="1223.974609" xlink:href="#ag"/><use x="1283.056641" xlink:href="#j"/><use x="1344.580078" xlink:href="#h"/><use x="1399.560547" xlink:href="#s"/><use x="1459.960938" xlink:href="#m"/><use x="1524.951172" xlink:href="#n"/><use x="1600.390625" xlink:href="#m"/><use x="1665.380859" xlink:href="#DejaVuSans-20"/><use x="1697.167969" xlink:href="#u"/><use x="1762.548828" xlink:href="#i"/><use x="1823.730469" xlink:href="#h"/><use x="1878.710938" xlink:href="#o"/><use x="1942.626953" xlink:href="#j"/><use x="2004.150391" xlink:href="#h"/><use x="2059.130859" xlink:href="#p"/><use x="2118.066406" xlink:href="#j"/><use x="2179.589844" xlink:href="#ag"/><use x="2238.671875" xlink:href="#j"/><use x="2300.195312" xlink:href="#aa"/><use x="2365.576172" xlink:href="#m"/><use x="2430.566406" xlink:href="#au"/><use x="2490.722656" xlink:href="#n"/><use x="2566.162109" xlink:href="#m"/></g><defs><clipPath id="a"><rect x="69.12" y="29.16" width="1048.3" height="579.96"/></clipPath></defs></svg>
