<?xml version="1.0" encoding="UTF-8"?>
<!DOCTYPE svg  PUBLIC '-//W3C//DTD SVG 1.1//EN'  'http://www.w3.org/Graphics/SVG/1.1/DTD/svg11.dtd'>
<svg width="1152pt" height="648pt" version="1.1" viewBox="0 0 1152 648" xmlns="http://www.w3.org/2000/svg" xmlns:xlink="http://www.w3.org/1999/xlink"><defs><style type="text/css">*{stroke-linejoin: round; stroke-linecap: butt}</style></defs><path d="m0 648h1152v-648h-1152z" fill="#fff"/><path d="m69.12 609.12h1048.3v-579.96h-1048.3z" fill="#fff"/><path d="m80.04 609.12h33.753v-23.014h-33.753z" clip-path="url(#b)" fill="#1f77b4"/><path d="m119.75 609.12h33.753v-19.179h-33.753z" clip-path="url(#b)" fill="#1f77b4"/><path d="m159.46 609.12h33.753v-53.7h-33.753z" clip-path="url(#b)" fill="#1f77b4"/><path d="m199.17 609.12h33.753v-195.62h-33.753z" clip-path="url(#b)" fill="#1f77b4"/><path d="m238.88 609.12h33.753v-84.386h-33.753z" clip-path="url(#b)" fill="#1f77b4"/><path d="m278.59 609.12h33.753v-138.09h-33.753z" clip-path="url(#b)" fill="#1f77b4"/><path d="m318.29 609.12h33.753v-84.386h-33.753z" clip-path="url(#b)" fill="#1f77b4"/><path d="m358 609.12h33.753v-103.56h-33.753z" clip-path="url(#b)" fill="#1f77b4"/><path d="m397.71 609.12h33.753v-241.65h-33.753z" clip-path="url(#b)" fill="#1f77b4"/><path d="m437.42 609.12h33.753v-195.62h-33.753z" clip-path="url(#b)" fill="#1f77b4"/><path d="m477.13 609.12h33.753v-184.11h-33.753z" clip-path="url(#b)" fill="#1f77b4"/><path d="m516.84 609.12h33.753v-218.64h-33.753z" clip-path="url(#b)" fill="#1f77b4"/><path d="m556.55 609.12h33.753v-256.99h-33.753z" clip-path="url(#b)" fill="#1f77b4"/><path d="m596.26 609.12h33.753v-218.64h-33.753z" clip-path="url(#b)" fill="#1f77b4"/><path d="m635.97 609.12h33.753v-260.83h-33.753z" clip-path="url(#b)" fill="#1f77b4"/><path d="m675.68 609.12h33.753v-295.35h-33.753z" clip-path="url(#b)" fill="#1f77b4"/><path d="m715.39 609.12h33.753v-310.69h-33.753z" clip-path="url(#b)" fill="#1f77b4"/><path d="m755.09 609.12h33.753v-303.02h-33.753z" clip-path="url(#b)" fill="#1f77b4"/><path d="m794.8 609.12h33.753v-383.57h-33.753z" clip-path="url(#b)" fill="#1f77b4"/><path d="m834.51 609.12h33.753v-272.34h-33.753z" clip-path="url(#b)" fill="#1f77b4"/><path d="m874.22 609.12h33.753v-341.38h-33.753z" clip-path="url(#b)" fill="#1f77b4"/><path d="m913.93 609.12h33.753v-345.21h-33.753z" clip-path="url(#b)" fill="#1f77b4"/><path d="m953.64 609.12h33.753v-287.68h-33.753z" clip-path="url(#b)" fill="#1f77b4"/><path d="m993.35 609.12h33.753v-326.04h-33.753z" clip-path="url(#b)" fill="#1f77b4"/><path d="m1033.1 609.12h33.753v-379.74h-33.753z" clip-path="url(#b)" fill="#1f77b4"/><path d="m1072.8 609.12h33.753v-283.84h-33.753z" clip-path="url(#b)" fill="#1f77b4"/><path d="m80.04 586.11h33.753v-15.343h-33.753z" clip-path="url(#b)" fill="#ff7f0e"/><path d="m119.75 589.94h33.753v-23.014h-33.753z" clip-path="url(#b)" fill="#ff7f0e"/><path d="m159.46 555.42h33.753v-26.85h-33.753z" clip-path="url(#b)" fill="#ff7f0e"/><path d="m199.17 413.5h33.753v-30.686h-33.753z" clip-path="url(#b)" fill="#ff7f0e"/><path d="m238.88 524.73h33.753v-15.343h-33.753z" clip-path="url(#b)" fill="#ff7f0e"/><path d="m278.59 471.03h33.753v-38.357h-33.753z" clip-path="url(#b)" fill="#ff7f0e"/><path d="m318.29 524.73h33.753v-57.536h-33.753z" clip-path="url(#b)" fill="#ff7f0e"/><path d="m358 505.56h33.753v-42.193h-33.753z" clip-path="url(#b)" fill="#ff7f0e"/><path d="m397.71 367.47h33.753v-180.28h-33.753z" clip-path="url(#b)" fill="#ff7f0e"/><path d="m437.42 413.5h33.753v-249.32h-33.753z" clip-path="url(#b)" fill="#ff7f0e"/><path d="m477.13 425.01h33.753v-184.11h-33.753z" clip-path="url(#b)" fill="#ff7f0e"/><path d="m516.84 390.48h33.753v-272.34h-33.753z" clip-path="url(#b)" fill="#ff7f0e"/><path d="m556.55 352.13h33.753v-191.79h-33.753z" clip-path="url(#b)" fill="#ff7f0e"/><path d="m596.26 390.48h33.753v-176.44h-33.753z" clip-path="url(#b)" fill="#ff7f0e"/><path d="m635.97 348.29h33.753v-149.59h-33.753z" clip-path="url(#b)" fill="#ff7f0e"/><path d="m675.68 313.77h33.753v-176.44h-33.753z" clip-path="url(#b)" fill="#ff7f0e"/><path d="m715.39 298.43h33.753v-187.95h-33.753z" clip-path="url(#b)" fill="#ff7f0e"/><path d="m755.09 306.1h33.753v-249.32h-33.753z" clip-path="url(#b)" fill="#ff7f0e"/><path d="m794.8 225.55h33.753v-149.59h-33.753z" clip-path="url(#b)" fill="#ff7f0e"/><path d="m834.51 336.78h33.753v-203.29h-33.753z" clip-path="url(#b)" fill="#ff7f0e"/><path d="m874.22 267.74h33.753v-145.76h-33.753z" clip-path="url(#b)" fill="#ff7f0e"/><path d="m913.93 263.91h33.753v-153.43h-33.753z" clip-path="url(#b)" fill="#ff7f0e"/><path d="m953.64 321.44h33.753v-118.91h-33.753z" clip-path="url(#b)" fill="#ff7f0e"/><path d="m993.35 283.08h33.753v-153.43h-33.753z" clip-path="url(#b)" fill="#ff7f0e"/><path d="m1033.1 229.38h33.753v-149.59h-33.753z" clip-path="url(#b)" fill="#ff7f0e"/><path d="m1072.8 325.28h33.753v-95.893h-33.753z" clip-path="url(#b)" fill="#ff7f0e"/><defs><path id="e" d="m0 0v3.5" stroke="#000" stroke-width=".8"/></defs><use x="96.916364" y="609.12" stroke="#000000" stroke-width=".8" xlink:href="#e"/><g transform="translate(84.191 623.72) scale(.1 -.1)"><defs><path id="c" transform="scale(.015625)" d="m794 531h1031v3560l-1122-225v575l1116 225h631v-4135h1031v-531h-2687v531z"/><path id="h" transform="scale(.015625)" d="m703 97v575q238-113 481-172 244-59 479-59 625 0 954 420 330 420 377 1277-181-269-460-413-278-144-615-144-700 0-1108 423-408 424-408 1159 0 718 425 1152 425 435 1131 435 810 0 1236-621 427-620 427-1801 0-1103-524-1761-523-658-1407-658-238 0-482 47-243 47-506 141zm1256 1978q425 0 673 290 249 291 249 798 0 503-249 795-248 292-673 292t-673-292-248-795q0-507 248-798 248-290 673-290z"/><path id="u" transform="scale(.015625)" d="m525 4666h3e3v-269l-1694-4397h-659l1594 4134h-2241v532z"/></defs><use xlink:href="#c"/><use x="63.623047" xlink:href="#h"/><use x="127.246094" xlink:href="#h"/><use x="190.869141" xlink:href="#u"/></g><use x="136.625455" y="609.12" stroke="#000000" stroke-width=".8" xlink:href="#e"/><g transform="translate(123.9 623.72) scale(.1 -.1)"><defs><path id="t" transform="scale(.015625)" d="m2034 2216q-450 0-708-241-257-241-257-662 0-422 257-663 258-241 708-241t709 242q260 243 260 662 0 421-258 662-257 241-711 241zm-631 268q-406 100-633 378-226 279-226 679 0 559 398 884 399 325 1092 325 697 0 1094-325t397-884q0-400-227-679-226-278-629-378 456-106 710-416 255-309 255-755 0-679-414-1042-414-362-1186-362-771 0-1186 362-414 363-414 1042 0 446 256 755 257 310 713 416zm-231 997q0-362 226-565 227-203 636-203 407 0 636 203 230 203 230 565 0 363-230 566-229 203-636 203-409 0-636-203-226-203-226-566z"/></defs><use xlink:href="#c"/><use x="63.623047" xlink:href="#h"/><use x="127.246094" xlink:href="#h"/><use x="190.869141" xlink:href="#t"/></g><use x="176.334545" y="609.12" stroke="#000000" stroke-width=".8" xlink:href="#e"/><g transform="translate(163.61 623.72) scale(.1 -.1)"><use xlink:href="#c"/><use x="63.623047" xlink:href="#h"/><use x="127.246094" xlink:href="#h"/><use x="190.869141" xlink:href="#h"/></g><use x="216.043636" y="609.12" stroke="#000000" stroke-width=".8" xlink:href="#e"/><g transform="translate(203.32 623.72) scale(.1 -.1)"><defs><path id="d" transform="scale(.015625)" d="m1228 531h2203v-531h-2962v531q359 372 979 998 621 627 780 809 303 340 423 576 121 236 121 464 0 372-261 606-261 235-680 235-297 0-627-103-329-103-704-313v638q381 153 712 231 332 78 607 78 725 0 1156-363 431-362 431-968 0-288-108-546-107-257-392-607-78-91-497-524-418-433-1181-1211z"/><path id="a" transform="scale(.015625)" d="m2034 4250q-487 0-733-480-245-479-245-1442 0-959 245-1439 246-480 733-480 491 0 736 480 246 480 246 1439 0 963-246 1442-245 480-736 480zm0 500q785 0 1199-621 414-620 414-1801 0-1178-414-1799-414-620-1199-620-784 0-1198 620-414 621-414 1799 0 1181 414 1801 414 621 1198 621z"/></defs><use xlink:href="#d"/><use x="63.623047" xlink:href="#a"/><use x="127.246094" xlink:href="#a"/><use x="190.869141" xlink:href="#a"/></g><use x="255.752727" y="609.12" stroke="#000000" stroke-width=".8" xlink:href="#e"/><g transform="translate(243.03 623.72) scale(.1 -.1)"><use xlink:href="#d"/><use x="63.623047" xlink:href="#a"/><use x="127.246094" xlink:href="#a"/><use x="190.869141" xlink:href="#c"/></g><use x="295.461818" y="609.12" stroke="#000000" stroke-width=".8" xlink:href="#e"/><g transform="translate(282.74 623.72) scale(.1 -.1)"><use xlink:href="#d"/><use x="63.623047" xlink:href="#a"/><use x="127.246094" xlink:href="#a"/><use x="190.869141" xlink:href="#d"/></g><use x="335.170909" y="609.12" stroke="#000000" stroke-width=".8" xlink:href="#e"/><g transform="translate(322.45 623.72) scale(.1 -.1)"><defs><path id="l" transform="scale(.015625)" d="m2597 2516q453-97 707-404 255-306 255-756 0-690-475-1069-475-378-1350-378-293 0-604 58t-642 174v609q262-153 574-231 313-78 654-78 593 0 904 234t311 681q0 413-289 645-289 233-804 233h-544v519h569q465 0 712 186t247 536q0 359-255 551-254 193-729 193-260 0-557-57-297-56-653-174v562q360 100 674 150t592 50q719 0 1137-327 419-326 419-882 0-388-222-655t-631-370z"/></defs><use xlink:href="#d"/><use x="63.623047" xlink:href="#a"/><use x="127.246094" xlink:href="#a"/><use x="190.869141" xlink:href="#l"/></g><use x="374.88" y="609.12" stroke="#000000" stroke-width=".8" xlink:href="#e"/><g transform="translate(362.16 623.72) scale(.1 -.1)"><defs><path id="n" transform="scale(.015625)" d="m2419 4116-1594-2491h1594v2491zm-166 550h794v-3041h666v-525h-666v-1100h-628v1100h-2106v609l1940 2957z"/></defs><use xlink:href="#d"/><use x="63.623047" xlink:href="#a"/><use x="127.246094" xlink:href="#a"/><use x="190.869141" xlink:href="#n"/></g><use x="414.589091" y="609.12" stroke="#000000" stroke-width=".8" xlink:href="#e"/><g transform="translate(401.86 623.72) scale(.1 -.1)"><defs><path id="z" transform="scale(.015625)" d="m691 4666h2478v-532h-1900v-1143q137 47 274 70 138 23 276 23 781 0 1237-428 457-428 457-1159 0-753-469-1171-469-417-1322-417-294 0-599 50-304 50-629 150v635q281-153 581-228t634-75q541 0 856 284 316 284 316 772 0 487-316 771-315 285-856 285-253 0-505-56-251-56-513-175v2344z"/></defs><use xlink:href="#d"/><use x="63.623047" xlink:href="#a"/><use x="127.246094" xlink:href="#a"/><use x="190.869141" xlink:href="#z"/></g><use x="454.298182" y="609.12" stroke="#000000" stroke-width=".8" xlink:href="#e"/><g transform="translate(441.57 623.72) scale(.1 -.1)"><defs><path id="q" transform="scale(.015625)" d="m2113 2584q-425 0-674-291-248-290-248-796 0-503 248-796 249-292 674-292t673 292q248 293 248 796 0 506-248 796-248 291-673 291zm1253 1979v-575q-238 112-480 171-242 60-480 60-625 0-955-422-329-422-376-1275 184 272 462 417 279 145 613 145 703 0 1111-427 408-426 408-1160 0-719-425-1154-425-434-1131-434-810 0-1238 620-428 621-428 1799 0 1106 525 1764t1409 658q238 0 480-47t505-140z"/></defs><use xlink:href="#d"/><use x="63.623047" xlink:href="#a"/><use x="127.246094" xlink:href="#a"/><use x="190.869141" xlink:href="#q"/></g><use x="494.007273" y="609.12" stroke="#000000" stroke-width=".8" xlink:href="#e"/><g transform="translate(481.28 623.72) scale(.1 -.1)"><use xlink:href="#d"/><use x="63.623047" xlink:href="#a"/><use x="127.246094" xlink:href="#a"/><use x="190.869141" xlink:href="#u"/></g><use x="533.716364" y="609.12" stroke="#000000" stroke-width=".8" xlink:href="#e"/><g transform="translate(520.99 623.72) scale(.1 -.1)"><use xlink:href="#d"/><use x="63.623047" xlink:href="#a"/><use x="127.246094" xlink:href="#a"/><use x="190.869141" xlink:href="#t"/></g><use x="573.425455" y="609.12" stroke="#000000" stroke-width=".8" xlink:href="#e"/><g transform="translate(560.7 623.72) scale(.1 -.1)"><use xlink:href="#d"/><use x="63.623047" xlink:href="#a"/><use x="127.246094" xlink:href="#a"/><use x="190.869141" xlink:href="#h"/></g><use x="613.134545" y="609.12" stroke="#000000" stroke-width=".8" xlink:href="#e"/><g transform="translate(600.41 623.72) scale(.1 -.1)"><use xlink:href="#d"/><use x="63.623047" xlink:href="#a"/><use x="127.246094" xlink:href="#c"/><use x="190.869141" xlink:href="#a"/></g><use x="652.843636" y="609.12" stroke="#000000" stroke-width=".8" xlink:href="#e"/><g transform="translate(640.12 623.72) scale(.1 -.1)"><use xlink:href="#d"/><use x="63.623047" xlink:href="#a"/><use x="127.246094" xlink:href="#c"/><use x="190.869141" xlink:href="#c"/></g><use x="692.552727" y="609.12" stroke="#000000" stroke-width=".8" xlink:href="#e"/><g transform="translate(679.83 623.72) scale(.1 -.1)"><use xlink:href="#d"/><use x="63.623047" xlink:href="#a"/><use x="127.246094" xlink:href="#c"/><use x="190.869141" xlink:href="#d"/></g><use x="732.261818" y="609.12" stroke="#000000" stroke-width=".8" xlink:href="#e"/><g transform="translate(719.54 623.72) scale(.1 -.1)"><use xlink:href="#d"/><use x="63.623047" xlink:href="#a"/><use x="127.246094" xlink:href="#c"/><use x="190.869141" xlink:href="#l"/></g><use x="771.970909" y="609.12" stroke="#000000" stroke-width=".8" xlink:href="#e"/><g transform="translate(759.25 623.72) scale(.1 -.1)"><use xlink:href="#d"/><use x="63.623047" xlink:href="#a"/><use x="127.246094" xlink:href="#c"/><use x="190.869141" xlink:href="#n"/></g><use x="811.68" y="609.12" stroke="#000000" stroke-width=".8" xlink:href="#e"/><g transform="translate(798.96 623.72) scale(.1 -.1)"><use xlink:href="#d"/><use x="63.623047" xlink:href="#a"/><use x="127.246094" xlink:href="#c"/><use x="190.869141" xlink:href="#z"/></g><use x="851.389091" y="609.12" stroke="#000000" stroke-width=".8" xlink:href="#e"/><g transform="translate(838.66 623.72) scale(.1 -.1)"><use xlink:href="#d"/><use x="63.623047" xlink:href="#a"/><use x="127.246094" xlink:href="#c"/><use x="190.869141" xlink:href="#q"/></g><use x="891.098182" y="609.12" stroke="#000000" stroke-width=".8" xlink:href="#e"/><g transform="translate(878.37 623.72) scale(.1 -.1)"><use xlink:href="#d"/><use x="63.623047" xlink:href="#a"/><use x="127.246094" xlink:href="#c"/><use x="190.869141" xlink:href="#u"/></g><use x="930.807273" y="609.12" stroke="#000000" stroke-width=".8" xlink:href="#e"/><g transform="translate(918.08 623.72) scale(.1 -.1)"><use xlink:href="#d"/><use x="63.623047" xlink:href="#a"/><use x="127.246094" xlink:href="#c"/><use x="190.869141" xlink:href="#t"/></g><use x="970.516364" y="609.12" stroke="#000000" stroke-width=".8" xlink:href="#e"/><g transform="translate(957.79 623.72) scale(.1 -.1)"><use xlink:href="#d"/><use x="63.623047" xlink:href="#a"/><use x="127.246094" xlink:href="#c"/><use x="190.869141" xlink:href="#h"/></g><use x="1010.225455" y="609.12" stroke="#000000" stroke-width=".8" xlink:href="#e"/><g transform="translate(997.5 623.72) scale(.1 -.1)"><use xlink:href="#d"/><use x="63.623047" xlink:href="#a"/><use x="127.246094" xlink:href="#d"/><use x="190.869141" xlink:href="#a"/></g><use x="1049.934545" y="609.12" stroke="#000000" stroke-width=".8" xlink:href="#e"/><g transform="translate(1037.2 623.72) scale(.1 -.1)"><use xlink:href="#d"/><use x="63.623047" xlink:href="#a"/><use x="127.246094" xlink:href="#d"/><use x="190.869141" xlink:href="#c"/></g><use x="1089.643636" y="609.12" stroke="#000000" stroke-width=".8" xlink:href="#e"/><g transform="translate(1076.9 623.72) scale(.1 -.1)"><use xlink:href="#d"/><use x="63.623047" xlink:href="#a"/><use x="127.246094" xlink:href="#d"/><use x="190.869141" xlink:href="#d"/></g><g transform="translate(579.89 640.44) scale(.14 -.14)"><defs><path id="ac" transform="scale(.015625)" d="m628 0v4666h2903v-532h-2272v-4134h-631z"/><path id="i" transform="scale(.015625)" d="m1959 3097q-462 0-731-361t-269-989 267-989q268-361 733-361 460 0 728 362 269 363 269 988 0 622-269 986-268 364-728 364zm0 487q750 0 1178-488 429-487 429-1349 0-859-429-1349-428-489-1178-489-753 0-1180 489-426 490-426 1349 0 862 426 1349 427 488 1180 488z"/><path id="x" transform="scale(.015625)" d="m1384 459h1669v2582h-1209v-438q0-1287-369-1975l-91-169zm-834 0q284 125 409 391 307 659 307 1988v662h2365v-3041h460v-1343h-460v884h-2837v-884h-460v1343h216z"/></defs><use xlink:href="#ac"/><use x="60.986328" xlink:href="#i"/><use x="122.167969" xlink:href="#x"/></g><defs><path id="o" d="m0 0h-3.5" stroke="#000" stroke-width=".8"/></defs><use x="69.12" y="609.12" stroke="#000000" stroke-width=".8" xlink:href="#o"/><g transform="translate(55.758 612.92) scale(.1 -.1)"><use xlink:href="#a"/></g><use x="69.12" y="532.405714" stroke="#000000" stroke-width=".8" xlink:href="#o"/><g transform="translate(49.395 536.2) scale(.1 -.1)"><use xlink:href="#d"/><use x="63.623047" xlink:href="#a"/></g><use x="69.12" y="455.691429" stroke="#000000" stroke-width=".8" xlink:href="#o"/><g transform="translate(49.395 459.49) scale(.1 -.1)"><use xlink:href="#n"/><use x="63.623047" xlink:href="#a"/></g><use x="69.12" y="378.977143" stroke="#000000" stroke-width=".8" xlink:href="#o"/><g transform="translate(49.395 382.78) scale(.1 -.1)"><use xlink:href="#q"/><use x="63.623047" xlink:href="#a"/></g><use x="69.12" y="302.262857" stroke="#000000" stroke-width=".8" xlink:href="#o"/><g transform="translate(49.395 306.06) scale(.1 -.1)"><use xlink:href="#t"/><use x="63.623047" xlink:href="#a"/></g><use x="69.12" y="225.548571" stroke="#000000" stroke-width=".8" xlink:href="#o"/><g transform="translate(43.032 229.35) scale(.1 -.1)"><use xlink:href="#c"/><use x="63.623047" xlink:href="#a"/><use x="127.246094" xlink:href="#a"/></g><use x="69.12" y="148.834286" stroke="#000000" stroke-width=".8" xlink:href="#o"/><g transform="translate(43.032 152.63) scale(.1 -.1)"><use xlink:href="#c"/><use x="63.623047" xlink:href="#d"/><use x="127.246094" xlink:href="#a"/></g><use x="69.12" y="72.12" stroke="#000000" stroke-width=".8" xlink:href="#o"/><g transform="translate(43.032 75.919) scale(.1 -.1)"><use xlink:href="#c"/><use x="63.623047" xlink:href="#n"/><use x="127.246094" xlink:href="#a"/></g><g transform="translate(36.121 408.16) rotate(-90) scale(.14 -.14)"><defs><path id="f" transform="scale(.015625)" d="m2194 1759q-697 0-966-159t-269-544q0-306 202-486 202-179 548-179 479 0 768 339t289 901v128h-572zm1147 238v-1997h-575v531q-197-318-491-470t-719-152q-537 0-855 302-317 302-317 808 0 590 395 890 396 300 1180 300h807v57q0 397-261 614t-733 217q-300 0-585-72-284-72-546-216v532q315 122 612 182 297 61 578 61 760 0 1135-394 375-393 375-1193z"/><path id="p" transform="scale(.015625)" d="m581 3500h841l994-2344 997 2344h834v-3500h-578v2950l-966-2278h-575l-969 2278v-2950h-578v3500z"/><path id="ad" transform="scale(.015625)" d="m313 2009h1684v-512h-1684v512z"/><path id="m" transform="scale(.015625)" d="m1156 1613v-1154h819q394 0 600 148 206 149 206 431 0 281-206 428t-600 147h-819zm0 1428v-969h757q325 0 531 129 206 130 206 362 0 231-206 354-206 124-531 124h-757zm-575 459h1369q616 0 947-225t331-641q0-321-169-511-168-189-500-235 397-75 616-313 219-237 219-594 0-468-361-725-361-256-1030-256h-1422v3500z"/><path id="g" transform="scale(.015625)" d="m3122 3366v-538q-244 135-489 202t-495 67q-560 0-870-355-309-354-309-995t309-996q310-354 870-354 250 0 495 67t489 202v-532q-241-112-499-168-257-57-548-57-791 0-1257 497-465 497-465 1341 0 856 470 1346 471 491 1290 491 265 0 518-55 253-54 491-163z"/><path id="v" transform="scale(.015625)" d="m3603 3500v-3500h-578v3041h-1866v-3041h-578v3500h3022z"/><path id="r" transform="scale(.015625)" d="m238 0v478q568 88 743 481 213 554 213 1969v572h2365v-3500h-575v3041h-1215v-347q0-1350-275-1956-294-647-1256-738z"/><path id="j" transform="scale(.015625)" d="m3597 1894v-281h-2644q38-594 358-905t892-311q331 0 642 81t618 244v-544q-310-131-635-200t-659-69q-838 0-1327 487-489 488-489 1320 0 859 464 1363 464 505 1252 505 706 0 1117-455 411-454 411-1235zm-575 169q-6 471-264 752-258 282-683 282-481 0-770-272t-333-766l2050 4z"/><path id="s" transform="scale(.015625)" d="m581 3500h572v-1644l1622 1644h706l-1337-1353 1509-2147h-644l-1240 1766-616-625v-1141h-572v3500z"/><path id="ah" transform="scale(.015625)" d="m2206 1888q388-75 603-304 216-228 216-565 0-541-403-826-403-284-1147-284-250 0-514 44t-545 131v535q222-116 487-174 266-57 556-57 472 0 736 175t264 456q0 275-234 442t-662 167h-463v475h484q363 0 574 139t211 358q0 200-218 344-217 144-588 144-222 0-474-41-251-41-555-131v522q307 75 572 112 266 38 503 38 613 0 967-246 355-245 355-686 0-290-188-492-187-201-537-276z"/><path id="y" transform="scale(.015625)" d="m581 0v3500h2469v-459h-1891v-3041h-578z"/></defs><use xlink:href="#ac"/><use x="60.986328" xlink:href="#f"/><use x="122.265625" xlink:href="#p"/><use x="197.705078" xlink:href="#p"/><use x="273.144531" xlink:href="#f"/><use x="334.423828" xlink:href="#ad"/><use x="370.507812" xlink:href="#m"/><use x="429.443359" xlink:href="#g"/><use x="484.423828" xlink:href="#v"/><use x="549.804688" xlink:href="#r"/><use x="613.720703" xlink:href="#j"/><use x="675.244141" xlink:href="#g"/><use x="730.224609" xlink:href="#s"/><use x="790.625" xlink:href="#i"/><use x="851.806641" xlink:href="#m"/><use x="910.742188" xlink:href="#DejaVuSans-20"/><use x="942.529297" xlink:href="#ah"/><use x="995.703125" xlink:href="#f"/><use x="1056.982422" xlink:href="#DejaVuSans-20"/><use x="1088.769531" xlink:href="#y"/><use x="1141.308594" xlink:href="#i"/><use x="1202.490234" xlink:href="#x"/></g><path d="m69.12 609.12v-579.96" fill="none" stroke="#000" stroke-linecap="square" stroke-width=".8"/><path d="m1117.4 609.12v-579.96" fill="none" stroke="#000" stroke-linecap="square" stroke-width=".8"/><path d="m69.12 609.12h1048.3" fill="none" stroke="#000" stroke-linecap="square" stroke-width=".8"/><path d="m69.12 29.16h1048.3" fill="none" stroke="#000" stroke-linecap="square" stroke-width=".8"/><g transform="translate(90.554 565.76) scale(.1 -.1)"><use xlink:href="#c"/><use x="63.623047" xlink:href="#a"/></g><g transform="translate(130.26 561.93) scale(.1 -.1)"><use xlink:href="#c"/><use x="63.623047" xlink:href="#c"/></g><g transform="translate(169.97 523.57) scale(.1 -.1)"><use xlink:href="#d"/><use x="63.623047" xlink:href="#c"/></g><g transform="translate(209.68 377.81) scale(.1 -.1)"><use xlink:href="#z"/><use x="63.623047" xlink:href="#h"/></g><g transform="translate(249.39 504.39) scale(.1 -.1)"><use xlink:href="#d"/><use x="63.623047" xlink:href="#q"/></g><g transform="translate(289.1 427.68) scale(.1 -.1)"><use xlink:href="#n"/><use x="63.623047" xlink:href="#q"/></g><g transform="translate(328.81 462.2) scale(.1 -.1)"><use xlink:href="#l"/><use x="63.623047" xlink:href="#u"/></g><g transform="translate(368.52 458.36) scale(.1 -.1)"><use xlink:href="#l"/><use x="63.623047" xlink:href="#t"/></g><g transform="translate(405.05 182.19) scale(.1 -.1)"><use xlink:href="#c"/><use x="63.623047" xlink:href="#c"/><use x="127.246094" xlink:href="#a"/></g><g transform="translate(444.75 159.18) scale(.1 -.1)"><use xlink:href="#c"/><use x="63.623047" xlink:href="#c"/><use x="127.246094" xlink:href="#q"/></g><g transform="translate(487.64 235.89) scale(.1 -.1)"><use xlink:href="#h"/><use x="63.623047" xlink:href="#q"/></g><g transform="translate(524.17 113.15) scale(.1 -.1)"><use xlink:href="#c"/><use x="63.623047" xlink:href="#d"/><use x="127.246094" xlink:href="#t"/></g><g transform="translate(563.88 155.34) scale(.1 -.1)"><use xlink:href="#c"/><use x="63.623047" xlink:href="#c"/><use x="127.246094" xlink:href="#u"/></g><g transform="translate(603.59 209.04) scale(.1 -.1)"><use xlink:href="#c"/><use x="63.623047" xlink:href="#a"/><use x="127.246094" xlink:href="#l"/></g><g transform="translate(643.3 193.7) scale(.1 -.1)"><use xlink:href="#c"/><use x="63.623047" xlink:href="#a"/><use x="127.246094" xlink:href="#u"/></g><g transform="translate(683.01 132.33) scale(.1 -.1)"><use xlink:href="#c"/><use x="63.623047" xlink:href="#d"/><use x="127.246094" xlink:href="#l"/></g><g transform="translate(722.72 105.48) scale(.1 -.1)"><use xlink:href="#c"/><use x="63.623047" xlink:href="#l"/><use x="127.246094" xlink:href="#a"/></g><g transform="translate(762.43 51.777) scale(.1 -.1)"><use xlink:href="#c"/><use x="63.623047" xlink:href="#n"/><use x="127.246094" xlink:href="#n"/></g><g transform="translate(802.14 70.956) scale(.1 -.1)"><use xlink:href="#c"/><use x="63.623047" xlink:href="#l"/><use x="127.246094" xlink:href="#h"/></g><g transform="translate(841.85 128.49) scale(.1 -.1)"><use xlink:href="#c"/><use x="63.623047" xlink:href="#d"/><use x="127.246094" xlink:href="#n"/></g><g transform="translate(881.55 116.98) scale(.1 -.1)"><use xlink:href="#c"/><use x="63.623047" xlink:href="#d"/><use x="127.246094" xlink:href="#u"/></g><g transform="translate(921.26 105.48) scale(.1 -.1)"><use xlink:href="#c"/><use x="63.623047" xlink:href="#l"/><use x="127.246094" xlink:href="#a"/></g><g transform="translate(960.97 197.53) scale(.1 -.1)"><use xlink:href="#c"/><use x="63.623047" xlink:href="#a"/><use x="127.246094" xlink:href="#q"/></g><g transform="translate(1000.7 124.66) scale(.1 -.1)"><use xlink:href="#c"/><use x="63.623047" xlink:href="#d"/><use x="127.246094" xlink:href="#z"/></g><g transform="translate(1040.4 74.791) scale(.1 -.1)"><use xlink:href="#c"/><use x="63.623047" xlink:href="#l"/><use x="127.246094" xlink:href="#t"/></g><g transform="translate(1083.3 224.38) scale(.1 -.1)"><use xlink:href="#h"/><use x="63.623047" xlink:href="#h"/></g><g transform="translate(124.85 23.16) scale(.16 -.16)"><defs><path id="an" transform="scale(.015625)" d="m4122 4306v-665q-319 297-680 443-361 147-767 147-800 0-1225-489t-425-1414q0-922 425-1411t1225-489q406 0 767 147t680 444v-660q-331-225-702-338-370-112-782-112-1060 0-1670 648-609 649-609 1771 0 1125 609 1773 610 649 1670 649 418 0 788-111 371-111 696-333z"/><path id="w" transform="scale(.015625)" d="m188 3500h3353v-459h-1394v-3041h-566v3041h-1393v459z"/><path id="k" transform="scale(.015625)" d="m3578 3500v-3500h-572v2809l-1687-2809h-738v3500h572v-2803l1685 2803h740z"/><path id="ar" transform="scale(.015625)" d="m750 794h659v-538l-512-1e3h-403l256 1e3v538z"/><path id="ab" transform="scale(.015625)" d="m581 3500h578v-1428h1866v1428h578v-3500h-578v1613h-1866v-1613h-578v3500z"/><path id="ae" transform="scale(.015625)" d="m3907 3500h575v-3500h-575v3500zm288 84zm-1414-2546q0 281-205 428-204 147-598 147h-819v-1154h819q394 0 598 148 205 149 205 431zm-2200 2462h578v-1428h844q669 0 1030-255 361-254 361-779t-361-782q-361-256-1030-256h-1422v3500z"/><path id="ag" transform="scale(.015625)" d="m3513 3500-1266-1703 1331-1797h-678l-1019 1375-1018-1375h-679l1360 1831-1244 1669h678l928-1247 928 1247h679z"/><path id="aa" transform="scale(.015625)" d="m1159 525v-1856h-578v4831h578v-531q182 312 458 463 277 152 661 152 638 0 1036-506 399-506 399-1331t-399-1332q-398-506-1036-506-384 0-661 152-276 152-458 464zm1957 1222q0 634-261 995t-717 361q-457 0-718-361t-261-995 261-995 718-361q456 0 717 361t261 995z"/><path id="al" transform="scale(.015625)" d="m2059-325q-243-625-475-815-231-191-618-191h-460v481h338q237 0 368 113 132 112 291 531l103 262-1415 3444h609l1094-2737 1094 2737h609l-1538-3825z"/><path id="ap" transform="scale(.015625)" d="m750 3309h659v-793h-659v793zm0-2515h659v-538l-512-1e3h-403l256 1e3v538z"/><path id="ai" transform="scale(.015625)" d="m1991 3584q750 0 1178-488 428-487 428-1349 0-859-428-1349-428-489-1178-489-753 0-1169 475t-438 1363l-18 716q-16 371-16 500 0 500 181 868 285 578 777 828t1317 257q381 3 550 56l159-456q-153-63-293-66l-782-53q-393-28-631-166-622-365-681-843l-22-175q406 371 1066 371zm0-487q-463 0-732-361-268-361-268-989t267-989 733-361q459 0 728 362 269 363 269 988 0 622-269 986t-728 364z"/><path id="am" transform="scale(.015625)" d="m3578 3500v-3500h-572v2809l-1687-2809h-738v3500h572v-2803l1685 2803h740zm-2476 1333h369q34-234 185-352 152-117 424-117 269 0 419 116t190 353h369q-31-447-278-672t-700-225-700 225-278 672z"/><path id="aq" transform="scale(.015625)" d="m684 794h660v-794h-660v794z"/><path id="ao" transform="scale(.015625)" d="m1459 531h2063v3603h-1516v-662q0-1559-350-2594-72-212-197-347zm-921 0q418 197 537 572 303 963 303 2681v882h2775v-4135h531v-1534h-531v1003h-3306v-1003h-531v1534h222z"/><path id="ak" transform="scale(.015625)" d="m2781 1038q0 281-205 428-204 147-598 147h-819v-1154h819q394 0 598 148 205 149 205 431zm-2200 2462h578v-1428h844q669 0 1030-255 361-254 361-779t-361-782q-361-256-1030-256h-1422v3500z"/></defs><use xlink:href="#an"/><use x="69.824219" xlink:href="#w"/><use x="128.076172" xlink:href="#f"/><use x="189.355469" xlink:href="#w"/><use x="247.607422" xlink:href="#k"/><use x="312.597656" xlink:href="#g"/><use x="367.578125" xlink:href="#w"/><use x="425.830078" xlink:href="#k"/><use x="490.820312" xlink:href="#s"/><use x="551.220703" xlink:href="#f"/><use x="612.5" xlink:href="#DejaVuSans-20"/><use x="644.287109" xlink:href="#y"/><use x="696.826172" xlink:href="#f"/><use x="758.105469" xlink:href="#p"/><use x="833.544922" xlink:href="#p"/><use x="908.984375" xlink:href="#f"/><use x="970.263672" xlink:href="#ad"/><use x="1006.347656" xlink:href="#m"/><use x="1065.283203" xlink:href="#g"/><use x="1120.263672" xlink:href="#v"/><use x="1185.644531" xlink:href="#r"/><use x="1249.560547" xlink:href="#j"/><use x="1311.083984" xlink:href="#g"/><use x="1366.064453" xlink:href="#s"/><use x="1426.464844" xlink:href="#i"/><use x="1487.646484" xlink:href="#m"/><use x="1546.582031" xlink:href="#ar"/><use x="1578.369141" xlink:href="#DejaVuSans-20"/><use x="1610.15625" xlink:href="#r"/><use x="1674.072266" xlink:href="#i"/><use x="1735.253906" xlink:href="#s"/><use x="1795.654297" xlink:href="#f"/><use x="1856.933594" xlink:href="#r"/><use x="1920.849609" xlink:href="#k"/><use x="1985.839844" xlink:href="#ah"/><use x="2039.013672" xlink:href="#i"/><use x="2100.195312" xlink:href="#m"/><use x="2159.130859" xlink:href="#f"/><use x="2220.410156" xlink:href="#ab"/><use x="2285.791016" xlink:href="#ab"/><use x="2351.171875" xlink:href="#ae"/><use x="2430.126953" xlink:href="#ag"/><use x="2489.306641" xlink:href="#DejaVuSans-20"/><use x="2521.09375" xlink:href="#m"/><use x="2580.029297" xlink:href="#DejaVuSans-20"/><use x="2611.816406" xlink:href="#v"/><use x="2677.197266" xlink:href="#aa"/><use x="2740.673828" xlink:href="#j"/><use x="2802.197266" xlink:href="#x"/><use x="2871.337891" xlink:href="#j"/><use x="2932.861328" xlink:href="#r"/><use x="2996.777344" xlink:href="#f"/><use x="3058.056641" xlink:href="#ag"/><use x="3117.236328" xlink:href="#DejaVuSans-20"/><use x="3149.023438" xlink:href="#c"/><use x="3212.646484" xlink:href="#DejaVuSans-20"/><use x="3244.433594" xlink:href="#y"/><use x="3296.972656" xlink:href="#aa"/><use x="3360.449219" xlink:href="#f"/><use x="3421.728516" xlink:href="#x"/><use x="3490.869141" xlink:href="#al"/><use x="3550.048828" xlink:href="#g"/><use x="3605.029297" xlink:href="#f"/><use x="3666.308594" xlink:href="#ap"/><use x="3700" xlink:href="#DejaVuSans-20"/><use x="3731.787109" xlink:href="#m"/><use x="3790.722656" xlink:href="#g"/><use x="3845.703125" xlink:href="#j"/><use x="3907.226562" xlink:href="#y"/><use x="3959.765625" xlink:href="#i"/><use x="4020.947266" xlink:href="#DejaVuSans-20"/><use x="4052.734375" xlink:href="#d"/><use x="4116.357422" xlink:href="#n"/><use x="4179.980469" xlink:href="#c"/><use x="4243.603516" xlink:href="#a"/><use x="4307.226562" xlink:href="#DejaVuSans-20"/><use x="4339.013672" xlink:href="#g"/><use x="4393.994141" xlink:href="#i"/><use x="4455.175781" xlink:href="#ai"/><use x="4516.845703" xlink:href="#ae"/><use x="4595.800781" xlink:href="#w"/><use x="4654.052734" xlink:href="#k"/><use x="4719.042969" xlink:href="#am"/><use x="4784.033203" xlink:href="#aq"/><use x="4815.820312" xlink:href="#DejaVuSans-20"/><use x="4847.607422" xlink:href="#ao"/><use x="4925.732422" xlink:href="#j"/><use x="4987.255859" xlink:href="#s"/><use x="5047.65625" xlink:href="#f"/><use x="5108.935547" xlink:href="#ai"/><use x="5170.605469" xlink:href="#aa"/><use x="5234.082031" xlink:href="#ak"/><use x="5293.017578" xlink:href="#DejaVuSans-20"/><use x="5324.804688" xlink:href="#d"/><use x="5388.427734" xlink:href="#a"/><use x="5452.050781" xlink:href="#d"/><use x="5515.673828" xlink:href="#d"/><use x="5579.296875" xlink:href="#DejaVuSans-20"/><use x="5611.083984" xlink:href="#y"/><use x="5663.623047" xlink:href="#i"/><use x="5724.804688" xlink:href="#x"/><use x="5793.945312" xlink:href="#f"/></g><path d="m78.92 60.909h413.16q2.8 0 2.8-2.8v-19.149q0-2.8-2.8-2.8h-413.16q-2.8 0-2.8 2.8v19.149q0 2.8 2.8 2.8z" fill="#fff" opacity=".8" stroke="#ccc"/><path d="m81.72 52.398h28v-9.8h-28z" fill="#ff7f0e"/><g transform="translate(120.92 52.398) scale(.14 -.14)"><defs><path id="af" transform="scale(.015625)" d="m2625 0v1472h-1072q-478 0-797 297-287 269-287 844v887h575v-834q0-366 162-550 166-185 491-185h928v1569h575v-3500h-575z"/><path id="aj" transform="scale(.015625)" d="m1181 2491q0-260 200-407 200-146 572-146h775v1103h-775q-372 0-572-144t-200-406zm-818-2491 1068 1534q-362 82-603 296-240 214-240 661 0 506 335 757 336 252 1015 252h1368v-3500h-578v1478h-715l-1032-1478h-618z"/></defs><use xlink:href="#ac"/><use x="60.986328" xlink:href="#f"/><use x="122.265625" xlink:href="#p"/><use x="197.705078" xlink:href="#p"/><use x="273.144531" xlink:href="#f"/><use x="334.423828" xlink:href="#ad"/><use x="370.507812" xlink:href="#m"/><use x="429.443359" xlink:href="#g"/><use x="484.423828" xlink:href="#v"/><use x="549.804688" xlink:href="#r"/><use x="613.720703" xlink:href="#j"/><use x="675.244141" xlink:href="#g"/><use x="730.224609" xlink:href="#s"/><use x="790.625" xlink:href="#k"/><use x="855.615234" xlink:href="#DejaVuSans-20"/><use x="887.402344" xlink:href="#g"/><use x="942.382812" xlink:href="#DejaVuSans-20"/><use x="974.169922" xlink:href="#i"/><use x="1035.351562" xlink:href="#v"/><use x="1100.732422" xlink:href="#w"/><use x="1158.984375" xlink:href="#k"/><use x="1223.974609" xlink:href="#af"/><use x="1283.056641" xlink:href="#j"/><use x="1344.580078" xlink:href="#g"/><use x="1399.560547" xlink:href="#s"/><use x="1459.960938" xlink:href="#k"/><use x="1524.951172" xlink:href="#p"/><use x="1600.390625" xlink:href="#k"/><use x="1665.380859" xlink:href="#DejaVuSans-20"/><use x="1697.167969" xlink:href="#v"/><use x="1762.548828" xlink:href="#i"/><use x="1823.730469" xlink:href="#g"/><use x="1878.710938" xlink:href="#r"/><use x="1942.626953" xlink:href="#j"/><use x="2004.150391" xlink:href="#g"/><use x="2059.130859" xlink:href="#m"/><use x="2118.066406" xlink:href="#j"/><use x="2179.589844" xlink:href="#af"/><use x="2238.671875" xlink:href="#j"/><use x="2300.195312" xlink:href="#ab"/><use x="2365.576172" xlink:href="#k"/><use x="2430.566406" xlink:href="#aj"/><use x="2490.722656" xlink:href="#p"/><use x="2566.162109" xlink:href="#k"/></g><defs><clipPath id="b"><rect x="69.12" y="29.16" width="1048.3" height="579.96"/></clipPath></defs></svg>
