<?xml version="1.0" encoding="UTF-8"?>
<!DOCTYPE svg  PUBLIC '-//W3C//DTD SVG 1.1//EN'  'http://www.w3.org/Graphics/SVG/1.1/DTD/svg11.dtd'>
<svg width="1152pt" height="648pt" version="1.1" viewBox="0 0 1152 648" xmlns="http://www.w3.org/2000/svg" xmlns:xlink="http://www.w3.org/1999/xlink"><defs><style type="text/css">*{stroke-linejoin: round; stroke-linecap: butt}</style></defs><path d="m0 648h1152v-648h-1152z" fill="#fff"/><path d="m69.12 609.12h1048.3v-579.96h-1048.3z" fill="#fff"/><path d="m96.977 609.12v-579.96" clip-path="url(#a)" fill="none" stroke="#b0b0b0" stroke-dasharray="0.8,1.32" stroke-width=".8"/><defs><path id="f" d="m0 0v3.5" stroke="#000" stroke-width=".8"/></defs><use x="96.976605" y="609.12" stroke="#000000" stroke-width=".8" xlink:href="#f"/><g transform="translate(84.252 623.72) scale(.1 -.1)"><defs><path id="g" transform="scale(.015625)" d="m794 531h1031v3560l-1122-225v575l1116 225h631v-4135h1031v-531h-2687v531z"/><path id="j" transform="scale(.015625)" d="m703 97v575q238-113 481-172 244-59 479-59 625 0 954 420 330 420 377 1277-181-269-460-413-278-144-615-144-700 0-1108 423-408 424-408 1159 0 718 425 1152 425 435 1131 435 810 0 1236-621 427-620 427-1801 0-1103-524-1761-523-658-1407-658-238 0-482 47-243 47-506 141zm1256 1978q425 0 673 290 249 291 249 798 0 503-249 795-248 292-673 292t-673-292-248-795q0-507 248-798 248-290 673-290z"/><path id="t" transform="scale(.015625)" d="m2113 2584q-425 0-674-291-248-290-248-796 0-503 248-796 249-292 674-292t673 292q248 293 248 796 0 506-248 796-248 291-673 291zm1253 1979v-575q-238 112-480 171-242 60-480 60-625 0-955-422-329-422-376-1275 184 272 462 417 279 145 613 145 703 0 1111-427 408-426 408-1160 0-719-425-1154-425-434-1131-434-810 0-1238 620-428 621-428 1799 0 1106 525 1764t1409 658q238 0 480-47t505-140z"/></defs><use xlink:href="#g"/><use x="63.623047" xlink:href="#j"/><use x="127.246094" xlink:href="#j"/><use x="190.869141" xlink:href="#t"/></g><path d="m134.05 609.12v-579.96" clip-path="url(#a)" fill="none" stroke="#b0b0b0" stroke-dasharray="0.8,1.32" stroke-width=".8"/><use x="134.051213" y="609.12" stroke="#000000" stroke-width=".8" xlink:href="#f"/><g transform="translate(121.33 623.72) scale(.1 -.1)"><defs><path id="ae" transform="scale(.015625)" d="m525 4666h3e3v-269l-1694-4397h-659l1594 4134h-2241v532z"/></defs><use xlink:href="#g"/><use x="63.623047" xlink:href="#j"/><use x="127.246094" xlink:href="#j"/><use x="190.869141" xlink:href="#ae"/></g><path d="m171.02 609.12v-579.96" clip-path="url(#a)" fill="none" stroke="#b0b0b0" stroke-dasharray="0.8,1.32" stroke-width=".8"/><use x="171.024524" y="609.12" stroke="#000000" stroke-width=".8" xlink:href="#f"/><g transform="translate(158.3 623.72) scale(.1 -.1)"><defs><path id="ad" transform="scale(.015625)" d="m2034 2216q-450 0-708-241-257-241-257-662 0-422 257-663 258-241 708-241t709 242q260 243 260 662 0 421-258 662-257 241-711 241zm-631 268q-406 100-633 378-226 279-226 679 0 559 398 884 399 325 1092 325 697 0 1094-325t397-884q0-400-227-679-226-278-629-378 456-106 710-416 255-309 255-755 0-679-414-1042-414-362-1186-362-771 0-1186 362-414 363-414 1042 0 446 256 755 257 310 713 416zm-231 997q0-362 226-565 227-203 636-203 407 0 636 203 230 203 230 565 0 363-230 566-229 203-636 203-409 0-636-203-226-203-226-566z"/></defs><use xlink:href="#g"/><use x="63.623047" xlink:href="#j"/><use x="127.246094" xlink:href="#j"/><use x="190.869141" xlink:href="#ad"/></g><path d="m208 609.12v-579.96" clip-path="url(#a)" fill="none" stroke="#b0b0b0" stroke-dasharray="0.8,1.32" stroke-width=".8"/><use x="207.997836" y="609.12" stroke="#000000" stroke-width=".8" xlink:href="#f"/><g transform="translate(195.27 623.72) scale(.1 -.1)"><use xlink:href="#g"/><use x="63.623047" xlink:href="#j"/><use x="127.246094" xlink:href="#j"/><use x="190.869141" xlink:href="#j"/></g><path d="m244.97 609.12v-579.96" clip-path="url(#a)" fill="none" stroke="#b0b0b0" stroke-dasharray="0.8,1.32" stroke-width=".8"/><use x="244.971147" y="609.12" stroke="#000000" stroke-width=".8" xlink:href="#f"/><g transform="translate(232.25 623.72) scale(.1 -.1)"><defs><path id="c" transform="scale(.015625)" d="m1228 531h2203v-531h-2962v531q359 372 979 998 621 627 780 809 303 340 423 576 121 236 121 464 0 372-261 606-261 235-680 235-297 0-627-103-329-103-704-313v638q381 153 712 231 332 78 607 78 725 0 1156-363 431-362 431-968 0-288-108-546-107-257-392-607-78-91-497-524-418-433-1181-1211z"/><path id="b" transform="scale(.015625)" d="m2034 4250q-487 0-733-480-245-479-245-1442 0-959 245-1439 246-480 733-480 491 0 736 480 246 480 246 1439 0 963-246 1442-245 480-736 480zm0 500q785 0 1199-621 414-620 414-1801 0-1178-414-1799-414-620-1199-620-784 0-1198 620-414 621-414 1799 0 1181 414 1801 414 621 1198 621z"/></defs><use xlink:href="#c"/><use x="63.623047" xlink:href="#b"/><use x="127.246094" xlink:href="#b"/><use x="190.869141" xlink:href="#b"/></g><path d="m282.05 609.12v-579.96" clip-path="url(#a)" fill="none" stroke="#b0b0b0" stroke-dasharray="0.8,1.32" stroke-width=".8"/><use x="282.045755" y="609.12" stroke="#000000" stroke-width=".8" xlink:href="#f"/><g transform="translate(269.32 623.72) scale(.1 -.1)"><use xlink:href="#c"/><use x="63.623047" xlink:href="#b"/><use x="127.246094" xlink:href="#b"/><use x="190.869141" xlink:href="#g"/></g><path d="m319.02 609.12v-579.96" clip-path="url(#a)" fill="none" stroke="#b0b0b0" stroke-dasharray="0.8,1.32" stroke-width=".8"/><use x="319.019067" y="609.12" stroke="#000000" stroke-width=".8" xlink:href="#f"/><g transform="translate(306.29 623.72) scale(.1 -.1)"><use xlink:href="#c"/><use x="63.623047" xlink:href="#b"/><use x="127.246094" xlink:href="#b"/><use x="190.869141" xlink:href="#c"/></g><path d="m355.99 609.12v-579.96" clip-path="url(#a)" fill="none" stroke="#b0b0b0" stroke-dasharray="0.8,1.32" stroke-width=".8"/><use x="355.992378" y="609.12" stroke="#000000" stroke-width=".8" xlink:href="#f"/><g transform="translate(343.27 623.72) scale(.1 -.1)"><defs><path id="u" transform="scale(.015625)" d="m2597 2516q453-97 707-404 255-306 255-756 0-690-475-1069-475-378-1350-378-293 0-604 58t-642 174v609q262-153 574-231 313-78 654-78 593 0 904 234t311 681q0 413-289 645-289 233-804 233h-544v519h569q465 0 712 186t247 536q0 359-255 551-254 193-729 193-260 0-557-57-297-56-653-174v562q360 100 674 150t592 50q719 0 1137-327 419-326 419-882 0-388-222-655t-631-370z"/></defs><use xlink:href="#c"/><use x="63.623047" xlink:href="#b"/><use x="127.246094" xlink:href="#b"/><use x="190.869141" xlink:href="#u"/></g><path d="m392.97 609.12v-579.96" clip-path="url(#a)" fill="none" stroke="#b0b0b0" stroke-dasharray="0.8,1.32" stroke-width=".8"/><use x="392.965689" y="609.12" stroke="#000000" stroke-width=".8" xlink:href="#f"/><g transform="translate(380.24 623.72) scale(.1 -.1)"><defs><path id="ag" transform="scale(.015625)" d="m2419 4116-1594-2491h1594v2491zm-166 550h794v-3041h666v-525h-666v-1100h-628v1100h-2106v609l1940 2957z"/></defs><use xlink:href="#c"/><use x="63.623047" xlink:href="#b"/><use x="127.246094" xlink:href="#b"/><use x="190.869141" xlink:href="#ag"/></g><path d="m430.04 609.12v-579.96" clip-path="url(#a)" fill="none" stroke="#b0b0b0" stroke-dasharray="0.8,1.32" stroke-width=".8"/><use x="430.040298" y="609.12" stroke="#000000" stroke-width=".8" xlink:href="#f"/><g transform="translate(417.32 623.72) scale(.1 -.1)"><defs><path id="af" transform="scale(.015625)" d="m691 4666h2478v-532h-1900v-1143q137 47 274 70 138 23 276 23 781 0 1237-428 457-428 457-1159 0-753-469-1171-469-417-1322-417-294 0-599 50-304 50-629 150v635q281-153 581-228t634-75q541 0 856 284 316 284 316 772 0 487-316 771-315 285-856 285-253 0-505-56-251-56-513-175v2344z"/></defs><use xlink:href="#c"/><use x="63.623047" xlink:href="#b"/><use x="127.246094" xlink:href="#b"/><use x="190.869141" xlink:href="#af"/></g><path d="m467.01 609.12v-579.96" clip-path="url(#a)" fill="none" stroke="#b0b0b0" stroke-dasharray="0.8,1.32" stroke-width=".8"/><use x="467.013609" y="609.12" stroke="#000000" stroke-width=".8" xlink:href="#f"/><g transform="translate(454.29 623.72) scale(.1 -.1)"><use xlink:href="#c"/><use x="63.623047" xlink:href="#b"/><use x="127.246094" xlink:href="#b"/><use x="190.869141" xlink:href="#t"/></g><path d="m503.99 609.12v-579.96" clip-path="url(#a)" fill="none" stroke="#b0b0b0" stroke-dasharray="0.8,1.32" stroke-width=".8"/><use x="503.98692" y="609.12" stroke="#000000" stroke-width=".8" xlink:href="#f"/><g transform="translate(491.26 623.72) scale(.1 -.1)"><use xlink:href="#c"/><use x="63.623047" xlink:href="#b"/><use x="127.246094" xlink:href="#b"/><use x="190.869141" xlink:href="#ae"/></g><path d="m540.96 609.12v-579.96" clip-path="url(#a)" fill="none" stroke="#b0b0b0" stroke-dasharray="0.8,1.32" stroke-width=".8"/><use x="540.960232" y="609.12" stroke="#000000" stroke-width=".8" xlink:href="#f"/><g transform="translate(528.24 623.72) scale(.1 -.1)"><use xlink:href="#c"/><use x="63.623047" xlink:href="#b"/><use x="127.246094" xlink:href="#b"/><use x="190.869141" xlink:href="#ad"/></g><path d="m578.03 609.12v-579.96" clip-path="url(#a)" fill="none" stroke="#b0b0b0" stroke-dasharray="0.8,1.32" stroke-width=".8"/><use x="578.03484" y="609.12" stroke="#000000" stroke-width=".8" xlink:href="#f"/><g transform="translate(565.31 623.72) scale(.1 -.1)"><use xlink:href="#c"/><use x="63.623047" xlink:href="#b"/><use x="127.246094" xlink:href="#b"/><use x="190.869141" xlink:href="#j"/></g><path d="m615.01 609.12v-579.96" clip-path="url(#a)" fill="none" stroke="#b0b0b0" stroke-dasharray="0.8,1.32" stroke-width=".8"/><use x="615.008152" y="609.12" stroke="#000000" stroke-width=".8" xlink:href="#f"/><g transform="translate(602.28 623.72) scale(.1 -.1)"><use xlink:href="#c"/><use x="63.623047" xlink:href="#b"/><use x="127.246094" xlink:href="#g"/><use x="190.869141" xlink:href="#b"/></g><path d="m651.98 609.12v-579.96" clip-path="url(#a)" fill="none" stroke="#b0b0b0" stroke-dasharray="0.8,1.32" stroke-width=".8"/><use x="651.981463" y="609.12" stroke="#000000" stroke-width=".8" xlink:href="#f"/><g transform="translate(639.26 623.72) scale(.1 -.1)"><use xlink:href="#c"/><use x="63.623047" xlink:href="#b"/><use x="127.246094" xlink:href="#g"/><use x="190.869141" xlink:href="#g"/></g><path d="m688.95 609.12v-579.96" clip-path="url(#a)" fill="none" stroke="#b0b0b0" stroke-dasharray="0.8,1.32" stroke-width=".8"/><use x="688.954774" y="609.12" stroke="#000000" stroke-width=".8" xlink:href="#f"/><g transform="translate(676.23 623.72) scale(.1 -.1)"><use xlink:href="#c"/><use x="63.623047" xlink:href="#b"/><use x="127.246094" xlink:href="#g"/><use x="190.869141" xlink:href="#c"/></g><path d="m726.03 609.12v-579.96" clip-path="url(#a)" fill="none" stroke="#b0b0b0" stroke-dasharray="0.8,1.32" stroke-width=".8"/><use x="726.029383" y="609.12" stroke="#000000" stroke-width=".8" xlink:href="#f"/><g transform="translate(713.3 623.72) scale(.1 -.1)"><use xlink:href="#c"/><use x="63.623047" xlink:href="#b"/><use x="127.246094" xlink:href="#g"/><use x="190.869141" xlink:href="#u"/></g><path d="m763 609.12v-579.96" clip-path="url(#a)" fill="none" stroke="#b0b0b0" stroke-dasharray="0.8,1.32" stroke-width=".8"/><use x="763.002694" y="609.12" stroke="#000000" stroke-width=".8" xlink:href="#f"/><g transform="translate(750.28 623.72) scale(.1 -.1)"><use xlink:href="#c"/><use x="63.623047" xlink:href="#b"/><use x="127.246094" xlink:href="#g"/><use x="190.869141" xlink:href="#ag"/></g><path d="m799.98 609.12v-579.96" clip-path="url(#a)" fill="none" stroke="#b0b0b0" stroke-dasharray="0.8,1.32" stroke-width=".8"/><use x="799.976005" y="609.12" stroke="#000000" stroke-width=".8" xlink:href="#f"/><g transform="translate(787.25 623.72) scale(.1 -.1)"><use xlink:href="#c"/><use x="63.623047" xlink:href="#b"/><use x="127.246094" xlink:href="#g"/><use x="190.869141" xlink:href="#af"/></g><path d="m836.95 609.12v-579.96" clip-path="url(#a)" fill="none" stroke="#b0b0b0" stroke-dasharray="0.8,1.32" stroke-width=".8"/><use x="836.949317" y="609.12" stroke="#000000" stroke-width=".8" xlink:href="#f"/><g transform="translate(824.22 623.72) scale(.1 -.1)"><use xlink:href="#c"/><use x="63.623047" xlink:href="#b"/><use x="127.246094" xlink:href="#g"/><use x="190.869141" xlink:href="#t"/></g><path d="m874.02 609.12v-579.96" clip-path="url(#a)" fill="none" stroke="#b0b0b0" stroke-dasharray="0.8,1.32" stroke-width=".8"/><use x="874.023925" y="609.12" stroke="#000000" stroke-width=".8" xlink:href="#f"/><g transform="translate(861.3 623.72) scale(.1 -.1)"><use xlink:href="#c"/><use x="63.623047" xlink:href="#b"/><use x="127.246094" xlink:href="#g"/><use x="190.869141" xlink:href="#ae"/></g><path d="m911 609.12v-579.96" clip-path="url(#a)" fill="none" stroke="#b0b0b0" stroke-dasharray="0.8,1.32" stroke-width=".8"/><use x="910.997236" y="609.12" stroke="#000000" stroke-width=".8" xlink:href="#f"/><g transform="translate(898.27 623.72) scale(.1 -.1)"><use xlink:href="#c"/><use x="63.623047" xlink:href="#b"/><use x="127.246094" xlink:href="#g"/><use x="190.869141" xlink:href="#ad"/></g><path d="m947.97 609.12v-579.96" clip-path="url(#a)" fill="none" stroke="#b0b0b0" stroke-dasharray="0.8,1.32" stroke-width=".8"/><use x="947.970548" y="609.12" stroke="#000000" stroke-width=".8" xlink:href="#f"/><g transform="translate(935.25 623.72) scale(.1 -.1)"><use xlink:href="#c"/><use x="63.623047" xlink:href="#b"/><use x="127.246094" xlink:href="#g"/><use x="190.869141" xlink:href="#j"/></g><path d="m984.94 609.12v-579.96" clip-path="url(#a)" fill="none" stroke="#b0b0b0" stroke-dasharray="0.8,1.32" stroke-width=".8"/><use x="984.943859" y="609.12" stroke="#000000" stroke-width=".8" xlink:href="#f"/><g transform="translate(972.22 623.72) scale(.1 -.1)"><use xlink:href="#c"/><use x="63.623047" xlink:href="#b"/><use x="127.246094" xlink:href="#c"/><use x="190.869141" xlink:href="#b"/></g><path d="m1022 609.12v-579.96" clip-path="url(#a)" fill="none" stroke="#b0b0b0" stroke-dasharray="0.8,1.32" stroke-width=".8"/><use x="1022.018467" y="609.12" stroke="#000000" stroke-width=".8" xlink:href="#f"/><g transform="translate(1009.3 623.72) scale(.1 -.1)"><use xlink:href="#c"/><use x="63.623047" xlink:href="#b"/><use x="127.246094" xlink:href="#c"/><use x="190.869141" xlink:href="#g"/></g><path d="m1059 609.12v-579.96" clip-path="url(#a)" fill="none" stroke="#b0b0b0" stroke-dasharray="0.8,1.32" stroke-width=".8"/><use x="1058.991779" y="609.12" stroke="#000000" stroke-width=".8" xlink:href="#f"/><g transform="translate(1046.3 623.72) scale(.1 -.1)"><use xlink:href="#c"/><use x="63.623047" xlink:href="#b"/><use x="127.246094" xlink:href="#c"/><use x="190.869141" xlink:href="#c"/></g><path d="m1096 609.12v-579.96" clip-path="url(#a)" fill="none" stroke="#b0b0b0" stroke-dasharray="0.8,1.32" stroke-width=".8"/><use x="1095.96509" y="609.12" stroke="#000000" stroke-width=".8" xlink:href="#f"/><g transform="translate(1083.2 623.72) scale(.1 -.1)"><use xlink:href="#c"/><use x="63.623047" xlink:href="#b"/><use x="127.246094" xlink:href="#c"/><use x="190.869141" xlink:href="#u"/></g><g transform="translate(570.23 640.44) scale(.14 -.14)"><defs><path id="br" transform="scale(.015625)" d="m1259 2228v-1709h1013q509 0 754 211 246 211 246 645 0 438-246 645-245 208-754 208h-1013zm0 1919v-1406h935q462 0 688 173 227 174 227 530 0 353-227 528-226 175-688 175h-935zm-631 519h1613q722 0 1112-300 391-300 391-853 0-429-200-682t-588-315q466-100 724-418 258-317 258-792 0-625-425-966-425-340-1210-340h-1675v4666z"/><path id="o" transform="scale(.015625)" d="m1159 525v-1856h-578v4831h578v-531q182 312 458 463 277 152 661 152 638 0 1036-506 399-506 399-1331t-399-1332q-398-506-1036-506-384 0-661 152-276 152-458 464zm1957 1222q0 634-261 995t-717 361q-457 0-718-361t-261-995 261-995 718-361q456 0 717 361t261 995z"/><path id="m" transform="scale(.015625)" d="m3597 1894v-281h-2644q38-594 358-905t892-311q331 0 642 81t618 244v-544q-310-131-635-200t-659-69q-838 0-1327 487-489 488-489 1320 0 859 464 1363 464 505 1252 505 706 0 1117-455 411-454 411-1235zm-575 169q-6 471-264 752-258 282-683 282-481 0-770-272t-333-766l2050 4z"/><path id="at" transform="scale(.015625)" d="m581 3500h841l994-2344 997 2344h834v-3500h-578v2950l-966-2278h-575l-969 2278v-2950h-578v3500z"/><path id="bf" transform="scale(.015625)" d="m1181 2491q0-260 200-407 200-146 572-146h775v1103h-775q-372 0-572-144t-200-406zm-818-2491 1068 1534q-362 82-603 296-240 214-240 661 0 506 335 757 336 252 1015 252h1368v-3500h-578v1478h-715l-1032-1478h-618z"/></defs><use xlink:href="#br"/><use x="68.603516" xlink:href="#o"/><use x="132.080078" xlink:href="#m"/><use x="193.603516" xlink:href="#at"/><use x="269.042969" xlink:href="#bf"/></g><path d="m69.12 609.12h1048.3" clip-path="url(#a)" fill="none" stroke="#b0b0b0" stroke-linecap="square" stroke-width=".8"/><defs><path id="ah" d="m0 0h-3.5" stroke="#000" stroke-width=".8"/></defs><use x="69.12" y="609.12" stroke="#000000" stroke-width=".8" xlink:href="#ah"/><g transform="translate(44.52 612.92) scale(.1 -.1)"><use transform="translate(0 .76562)" xlink:href="#g"/><use transform="translate(63.623 .76562)" xlink:href="#b"/><use transform="translate(128.2 39.047) scale(.7)" xlink:href="#u"/></g><path d="m69.12 338.88h1048.3" clip-path="url(#a)" fill="none" stroke="#b0b0b0" stroke-linecap="square" stroke-width=".8"/><use x="69.12" y="338.884492" stroke="#000000" stroke-width=".8" xlink:href="#ah"/><g transform="translate(44.52 342.68) scale(.1 -.1)"><use transform="translate(0 .68438)" xlink:href="#g"/><use transform="translate(63.623 .68438)" xlink:href="#b"/><use transform="translate(128.2 38.966) scale(.7)" xlink:href="#ag"/></g><path d="m69.12 68.649h1048.3" clip-path="url(#a)" fill="none" stroke="#b0b0b0" stroke-linecap="square" stroke-width=".8"/><use x="69.12" y="68.648984" stroke="#000000" stroke-width=".8" xlink:href="#ah"/><g transform="translate(44.52 72.448) scale(.1 -.1)"><use transform="translate(0 .68438)" xlink:href="#g"/><use transform="translate(63.623 .68438)" xlink:href="#b"/><use transform="translate(128.2 38.966) scale(.7)" xlink:href="#af"/></g><path d="m69.12 527.77h1048.3" clip-path="url(#a)" fill="none" stroke="#b0b0b0" stroke-dasharray="2.96,1.28" stroke-width=".8"/><defs><path id="h" d="m0 0h-2" stroke="#000" stroke-width=".6"/></defs><use x="69.12" y="527.771006" stroke="#000000" stroke-width=".6" xlink:href="#h"/><path d="m69.12 480.18h1048.3" clip-path="url(#a)" fill="none" stroke="#b0b0b0" stroke-dasharray="2.96,1.28" stroke-width=".8"/><use x="69.12" y="480.184895" stroke="#000000" stroke-width=".6" xlink:href="#h"/><path d="m69.12 446.42h1048.3" clip-path="url(#a)" fill="none" stroke="#b0b0b0" stroke-dasharray="2.96,1.28" stroke-width=".8"/><use x="69.12" y="446.422012" stroke="#000000" stroke-width=".6" xlink:href="#h"/><path d="m69.12 420.23h1048.3" clip-path="url(#a)" fill="none" stroke="#b0b0b0" stroke-dasharray="2.96,1.28" stroke-width=".8"/><use x="69.12" y="420.233486" stroke="#000000" stroke-width=".6" xlink:href="#h"/><path d="m69.12 398.84h1048.3" clip-path="url(#a)" fill="none" stroke="#b0b0b0" stroke-dasharray="2.96,1.28" stroke-width=".8"/><use x="69.12" y="398.835902" stroke="#000000" stroke-width=".6" xlink:href="#h"/><path d="m69.12 380.74h1048.3" clip-path="url(#a)" fill="none" stroke="#b0b0b0" stroke-dasharray="2.96,1.28" stroke-width=".8"/><use x="69.12" y="380.744502" stroke="#000000" stroke-width=".6" xlink:href="#h"/><path d="m69.12 365.07h1048.3" clip-path="url(#a)" fill="none" stroke="#b0b0b0" stroke-dasharray="2.96,1.28" stroke-width=".8"/><use x="69.12" y="365.073019" stroke="#000000" stroke-width=".6" xlink:href="#h"/><path d="m69.12 351.25h1048.3" clip-path="url(#a)" fill="none" stroke="#b0b0b0" stroke-dasharray="2.96,1.28" stroke-width=".8"/><use x="69.12" y="351.249791" stroke="#000000" stroke-width=".6" xlink:href="#h"/><path d="m69.12 257.54h1048.3" clip-path="url(#a)" fill="none" stroke="#b0b0b0" stroke-dasharray="2.96,1.28" stroke-width=".8"/><use x="69.12" y="257.535498" stroke="#000000" stroke-width=".6" xlink:href="#h"/><path d="m69.12 209.95h1048.3" clip-path="url(#a)" fill="none" stroke="#b0b0b0" stroke-dasharray="2.96,1.28" stroke-width=".8"/><use x="69.12" y="209.949387" stroke="#000000" stroke-width=".6" xlink:href="#h"/><path d="m69.12 176.19h1048.3" clip-path="url(#a)" fill="none" stroke="#b0b0b0" stroke-dasharray="2.96,1.28" stroke-width=".8"/><use x="69.12" y="176.186504" stroke="#000000" stroke-width=".6" xlink:href="#h"/><path d="m69.12 150h1048.3" clip-path="url(#a)" fill="none" stroke="#b0b0b0" stroke-dasharray="2.96,1.28" stroke-width=".8"/><use x="69.12" y="149.997978" stroke="#000000" stroke-width=".6" xlink:href="#h"/><path d="m69.12 128.6h1048.3" clip-path="url(#a)" fill="none" stroke="#b0b0b0" stroke-dasharray="2.96,1.28" stroke-width=".8"/><use x="69.12" y="128.600394" stroke="#000000" stroke-width=".6" xlink:href="#h"/><path d="m69.12 110.51h1048.3" clip-path="url(#a)" fill="none" stroke="#b0b0b0" stroke-dasharray="2.96,1.28" stroke-width=".8"/><use x="69.12" y="110.508994" stroke="#000000" stroke-width=".6" xlink:href="#h"/><path d="m69.12 94.838h1048.3" clip-path="url(#a)" fill="none" stroke="#b0b0b0" stroke-dasharray="2.96,1.28" stroke-width=".8"/><use x="69.12" y="94.837511" stroke="#000000" stroke-width=".6" xlink:href="#h"/><path d="m69.12 81.014h1048.3" clip-path="url(#a)" fill="none" stroke="#b0b0b0" stroke-dasharray="2.96,1.28" stroke-width=".8"/><use x="69.12" y="81.014283" stroke="#000000" stroke-width=".6" xlink:href="#h"/><g transform="translate(37.608 446.47) rotate(-90) scale(.14 -.14)"><defs><path id="bq" transform="scale(.015625)" d="m628 4666h631v-2307l2257 2307h809l-1803-1844 1897-2822h-688l-1618 2403-854-872v-1531h-631v4666z"/><path id="l" transform="scale(.015625)" d="m1959 3097q-462 0-731-361t-269-989 267-989q268-361 733-361 460 0 728 362 269 363 269 988 0 622-269 986-268 364-728 364zm0 487q750 0 1178-488 429-487 429-1349 0-859-429-1349-428-489-1178-489-753 0-1180 489-426 490-426 1349 0 862 426 1349 427 488 1180 488z"/><path id="bl" transform="scale(.015625)" d="m238 0v478q568 88 743 481 213 554 213 1969v572h2365v-3500h-575v3041h-1215v-347q0-1350-275-1956-294-647-1256-738z"/><path id="y" transform="scale(.015625)" d="m3578 3500v-3500h-572v2809l-1687-2809h-738v3500h572v-2803l1685 2803h740z"/><path id="bi" transform="scale(.015625)" d="m2625 0v1472h-1072q-478 0-797 297-287 269-287 844v887h575v-834q0-366 162-550 166-185 491-185h928v1569h575v-3500h-575z"/><path id="r" transform="scale(.015625)" d="m3122 3366v-538q-244 135-489 202t-495 67q-560 0-870-355-309-354-309-995t309-996q310-354 870-354 250 0 495 67t489 202v-532q-241-112-499-168-257-57-548-57-791 0-1257 497-465 497-465 1341 0 856 470 1346 471 491 1290 491 265 0 518-55 253-54 491-163z"/><path id="x" transform="scale(.015625)" d="m188 3500h3353v-459h-1394v-3041h-566v3041h-1393v459z"/><path id="k" transform="scale(.015625)" d="m1156 1613v-1154h819q394 0 600 148 206 149 206 431 0 281-206 428t-600 147h-819zm0 1428v-969h757q325 0 531 129 206 130 206 362 0 231-206 354-206 124-531 124h-757zm-575 459h1369q616 0 947-225t331-641q0-321-169-511-168-189-500-235 397-75 616-313 219-237 219-594 0-468-361-725-361-256-1030-256h-1422v3500z"/><path id="ac" transform="scale(.015625)" d="m581 3500h572v-1644l1622 1644h706l-1337-1353 1509-2147h-644l-1240 1766-616-625v-1141h-572v3500z"/><path id="q" transform="scale(.015625)" d="m3907 3500h575v-3500h-575v3500zm288 84zm-1414-2546q0 281-205 428-204 147-598 147h-819v-1154h819q394 0 598 148 205 149 205 431zm-2200 2462h578v-1428h844q669 0 1030-255 361-254 361-779t-361-782q-361-256-1030-256h-1422v3500z"/><path id="n" transform="scale(.015625)" d="m3513 3500-1266-1703 1331-1797h-678l-1019 1375-1018-1375h-679l1360 1831-1244 1669h678l928-1247 928 1247h679z"/><path id="s" transform="scale(.015625)" d="m581 3500h578v-1428h1866v1428h578v-3500h-578v1613h-1866v-1613h-578v3500z"/></defs><use xlink:href="#bq"/><use x="70.996094" xlink:href="#l"/><use x="132.177734" xlink:href="#bl"/><use x="196.09375" xlink:href="#y"/><use x="261.083984" xlink:href="#bi"/><use x="320.166016" xlink:href="#m"/><use x="381.689453" xlink:href="#r"/><use x="436.669922" xlink:href="#x"/><use x="494.921875" xlink:href="#k"/><use x="553.857422" xlink:href="#l"/><use x="615.039062" xlink:href="#DejaVuSans-20"/><use x="646.826172" xlink:href="#l"/><use x="708.007812" xlink:href="#x"/><use x="766.259766" xlink:href="#ac"/><use x="826.660156" xlink:href="#o"/><use x="890.136719" xlink:href="#q"/><use x="969.091797" xlink:href="#x"/><use x="1027.34375" xlink:href="#q"/><use x="1106.298828" xlink:href="#n"/><use x="1165.478516" xlink:href="#DejaVuSans-20"/><use x="1197.265625" xlink:href="#r"/><use x="1252.246094" xlink:href="#k"/><use x="1311.181641" xlink:href="#m"/><use x="1372.705078" xlink:href="#o"/><use x="1436.181641" xlink:href="#n"/><use x="1495.361328" xlink:href="#s"/><use x="1560.742188" xlink:href="#l"/><use x="1621.923828" xlink:href="#k"/><use x="1680.859375" xlink:href="#q"/><use x="1759.814453" xlink:href="#n"/></g><path d="m96.977 597.3 37.075-10.256 36.973-14.867 36.973-13.117 36.973-14.536 37.075-12.568 36.973-17.377 36.973-17.144 36.973-15.87 37.075-12.847 36.973-12.889 36.973-16.491 36.973-15.623 37.075-11.66 36.973-11.641 36.973-11.132 36.973-15.31 37.075-15.652 36.973-19.738 36.973-21.522 36.973-30.091 37.075-45.163 36.973-34.461 36.973-27.068 36.973-40.989 37.075-35.524 36.973-29.393 36.679-21.802" clip-path="url(#a)" fill="none" stroke="#000" stroke-linecap="square" stroke-width="1.5"/><defs><path id="d" d="m0 3c0.79561 0 1.5587-0.3161 2.1213-0.87868 0.56258-0.56258 0.87868-1.3257 0.87868-2.1213s-0.3161-1.5587-0.87868-2.1213c-0.56258-0.56258-1.3257-0.87868-2.1213-0.87868s-1.5587 0.3161-2.1213 0.87868c-0.56258 0.56258-0.87868 1.3257-0.87868 2.1213s0.3161 1.5587 0.87868 2.1213c0.56258 0.56258 1.3257 0.87868 2.1213 0.87868z" stroke="#000"/></defs><g clip-path="url(#a)" stroke="#000000"><use x="96.976605" y="597.295811" xlink:href="#d"/><use x="134.051213" y="587.039794" xlink:href="#d"/><use x="171.024524" y="572.173248" xlink:href="#d"/><use x="207.997836" y="559.056503" xlink:href="#d"/><use x="244.971147" y="544.520447" xlink:href="#d"/><use x="282.045755" y="531.952276" xlink:href="#d"/><use x="319.019067" y="514.575383" xlink:href="#d"/><use x="355.992378" y="497.431728" xlink:href="#d"/><use x="392.965689" y="481.562166" xlink:href="#d"/><use x="430.040298" y="468.714953" xlink:href="#d"/><use x="467.013609" y="455.825748" xlink:href="#d"/><use x="503.98692" y="439.334616" xlink:href="#d"/><use x="540.960232" y="423.71148" xlink:href="#d"/><use x="578.03484" y="412.051889" xlink:href="#d"/><use x="615.008152" y="400.411251" xlink:href="#d"/><use x="651.981463" y="389.279558" xlink:href="#d"/><use x="688.954774" y="373.969243" xlink:href="#d"/><use x="726.029383" y="358.317544" xlink:href="#d"/><use x="763.002694" y="338.579747" xlink:href="#d"/><use x="799.976005" y="317.057368" xlink:href="#d"/><use x="836.949317" y="286.966516" xlink:href="#d"/><use x="874.023925" y="241.803149" xlink:href="#d"/><use x="910.997236" y="207.341842" xlink:href="#d"/><use x="947.970548" y="180.273557" xlink:href="#d"/><use x="984.943859" y="139.284735" xlink:href="#d"/><use x="1022.018467" y="103.760642" xlink:href="#d"/><use x="1058.991779" y="74.367809" xlink:href="#d"/><use x="1095.671052" y="52.566136" xlink:href="#d"/></g><path d="m96.977 595.09 37.075-10.073 36.973-14.628 36.973-12.929 36.973-14.885 37.075-12.432 36.973-17.646 36.973-16.55 36.973-14.621 37.075-9.8822 36.973-12.883 36.973-16.712 36.973-15.173 37.075-6.3702 36.973-8.9505 36.973-7.2979 36.973-6.0577 37.075-5.0927 36.973-6.0347 36.973-3.9941 36.973-3.2497 37.075-81.366 36.973-50.57 36.973-40.781 36.973-56.691 37.075-42.546 36.973-33.351 36.679-23.431" clip-path="url(#a)" fill="none" stroke="#f00" stroke-linecap="square" stroke-width="1.5"/><defs><path id="e" d="m0 3c0.79561 0 1.5587-0.3161 2.1213-0.87868 0.56258-0.56258 0.87868-1.3257 0.87868-2.1213s-0.3161-1.5587-0.87868-2.1213c-0.56258-0.56258-1.3257-0.87868-2.1213-0.87868s-1.5587 0.3161-2.1213 0.87868c-0.56258 0.56258-0.87868 1.3257-0.87868 2.1213s0.3161 1.5587 0.87868 2.1213c0.56258 0.56258 1.3257 0.87868 2.1213 0.87868z" stroke="#f00"/></defs><g clip-path="url(#a)" fill="#ff0000" stroke="#ff0000"><use x="96.976605" y="595.088314" xlink:href="#e"/><use x="134.051213" y="585.015434" xlink:href="#e"/><use x="171.024524" y="570.38792" xlink:href="#e"/><use x="207.997836" y="557.458685" xlink:href="#e"/><use x="244.971147" y="542.573881" xlink:href="#e"/><use x="282.045755" y="530.142032" xlink:href="#e"/><use x="319.019067" y="512.496289" xlink:href="#e"/><use x="355.992378" y="495.945831" xlink:href="#e"/><use x="392.965689" y="481.324912" xlink:href="#e"/><use x="430.040298" y="471.44275" xlink:href="#e"/><use x="467.013609" y="458.559329" xlink:href="#e"/><use x="503.98692" y="441.847215" xlink:href="#e"/><use x="540.960232" y="426.674144" xlink:href="#e"/><use x="578.03484" y="420.303924" xlink:href="#e"/><use x="615.008152" y="411.353435" xlink:href="#e"/><use x="651.981463" y="404.055507" xlink:href="#e"/><use x="688.954774" y="397.997808" xlink:href="#e"/><use x="726.029383" y="392.905062" xlink:href="#e"/><use x="763.002694" y="386.870313" xlink:href="#e"/><use x="799.976005" y="382.876258" xlink:href="#e"/><use x="836.949317" y="379.626524" xlink:href="#e"/><use x="874.023925" y="298.260924" xlink:href="#e"/><use x="910.997236" y="247.691017" xlink:href="#e"/><use x="947.970548" y="206.910287" xlink:href="#e"/><use x="984.943859" y="150.218826" xlink:href="#e"/><use x="1022.018467" y="107.673198" xlink:href="#e"/><use x="1058.991779" y="74.322225" xlink:href="#e"/><use x="1095.671052" y="50.891702" xlink:href="#e"/></g><path d="m69.12 609.12v-579.96" fill="none" stroke="#000" stroke-linecap="square" stroke-width=".8"/><path d="m1117.4 609.12v-579.96" fill="none" stroke="#000" stroke-linecap="square" stroke-width=".8"/><path d="m69.12 609.12h1048.3" fill="none" stroke="#000" stroke-linecap="square" stroke-width=".8"/><path d="m69.12 29.16h1048.3" fill="none" stroke="#000" stroke-linecap="square" stroke-width=".8"/><g transform="translate(161.77 23.16) scale(.16 -.16)"><defs><path id="av" transform="scale(.015625)" d="m1459 531h2063v3603h-1516v-662q0-1559-350-2594-72-212-197-347zm-921 0q418 197 537 572 303 963 303 2681v882h2775v-4135h531v-1534h-531v1003h-3306v-1003h-531v1534h222z"/><path id="z" transform="scale(.015625)" d="m2194 1759q-697 0-966-159t-269-544q0-306 202-486 202-179 548-179 479 0 768 339t289 901v128h-572zm1147 238v-1997h-575v531q-197-318-491-470t-719-152q-537 0-855 302-317 302-317 808 0 590 395 890 396 300 1180 300h807v57q0 397-261 614t-733 217q-300 0-585-72-284-72-546-216v532q315 122 612 182 297 61 578 61 760 0 1135-394 375-393 375-1193z"/><path id="bk" transform="scale(.015625)" d="m3603 3500v-3500h-578v3041h-1866v-3041h-578v3500h3022z"/><path id="bh" transform="scale(.015625)" d="m3216 459h1481v3041h578v-3500h-4694v3500h578v-3041h1479v3041h578v-3041z"/><path id="an" transform="scale(.015625)" d="m750 794h659v-538l-512-1e3h-403l256 1e3v538z"/><path id="au" transform="scale(.015625)" d="m581 0v3500h2469v-459h-1891v-3041h-578z"/><path id="bm" transform="scale(.015625)" d="m2206 1888q388-75 603-304 216-228 216-565 0-541-403-826-403-284-1147-284-250 0-514 44t-545 131v535q222-116 487-174 266-57 556-57 472 0 736 175t264 456q0 275-234 442t-662 167h-463v475h484q363 0 574 139t211 358q0 200-218 344-217 144-588 144-222 0-474-41-251-41-555-131v522q307 75 572 112 266 38 503 38 613 0 967-246 355-245 355-686 0-290-188-492-187-201-537-276z"/><path id="bs" transform="scale(.015625)" d="m684 794h660v-794h-660v794z"/><path id="bo" transform="scale(.015625)" d="m1991 3584q750 0 1178-488 428-487 428-1349 0-859-428-1349-428-489-1178-489-753 0-1169 475t-438 1363l-18 716q-16 371-16 500 0 500 181 868 285 578 777 828t1317 257q381 3 550 56l159-456q-153-63-293-66l-782-53q-393-28-631-166-622-365-681-843l-22-175q406 371 1066 371zm0-487q-463 0-732-361-268-361-268-989t267-989 733-361q459 0 728 362 269 363 269 988 0 622-269 986t-728 364z"/><path id="bg" transform="scale(.015625)" d="m2781 1038q0 281-205 428-204 147-598 147h-819v-1154h819q394 0 598 148 205 149 205 431zm-2200 2462h578v-1428h844q669 0 1030-255 361-254 361-779t-361-782q-361-256-1030-256h-1422v3500z"/><path id="bn" transform="scale(.015625)" d="m1384 459h1669v2582h-1209v-438q0-1287-369-1975l-91-169zm-834 0q284 125 409 391 307 659 307 1988v662h2365v-3041h460v-1343h-460v884h-2837v-884h-460v1343h216z"/></defs><use xlink:href="#av"/><use x="78.125" xlink:href="#y"/><use x="143.115234" xlink:href="#s"/><use x="208.496094" xlink:href="#z"/><use x="269.775391" xlink:href="#at"/><use x="345.214844" xlink:href="#y"/><use x="410.205078" xlink:href="#ac"/><use x="470.605469" xlink:href="#z"/><use x="531.884766" xlink:href="#DejaVuSans-20"/><use x="563.671875" xlink:href="#k"/><use x="622.607422" xlink:href="#r"/><use x="677.587891" xlink:href="#bk"/><use x="742.96875" xlink:href="#q"/><use x="821.923828" xlink:href="#bh"/><use x="913.427734" xlink:href="#m"/><use x="974.951172" xlink:href="#ac"/><use x="1035.351562" xlink:href="#DejaVuSans-20"/><use x="1067.138672" xlink:href="#r"/><use x="1122.119141" xlink:href="#k"/><use x="1181.054688" xlink:href="#m"/><use x="1242.578125" xlink:href="#o"/><use x="1306.054688" xlink:href="#n"/><use x="1365.234375" xlink:href="#s"/><use x="1430.615234" xlink:href="#l"/><use x="1491.796875" xlink:href="#k"/><use x="1550.732422" xlink:href="#q"/><use x="1629.6875" xlink:href="#n"/><use x="1688.867188" xlink:href="#an"/><use x="1720.654297" xlink:href="#DejaVuSans-20"/><use x="1752.441406" xlink:href="#k"/><use x="1811.376953" xlink:href="#r"/><use x="1866.357422" xlink:href="#m"/><use x="1927.880859" xlink:href="#au"/><use x="1980.419922" xlink:href="#l"/><use x="2041.601562" xlink:href="#DejaVuSans-20"/><use x="2073.388672" xlink:href="#g"/><use x="2137.011719" xlink:href="#g"/><use x="2200.634766" xlink:href="#ag"/><use x="2264.257812" xlink:href="#t"/><use x="2327.880859" xlink:href="#ad"/><use x="2391.503906" xlink:href="#ae"/><use x="2455.126953" xlink:href="#DejaVuSans-20"/><use x="2486.914062" xlink:href="#r"/><use x="2541.894531" xlink:href="#k"/><use x="2600.830078" xlink:href="#m"/><use x="2662.353516" xlink:href="#o"/><use x="2725.830078" xlink:href="#n"/><use x="2785.009766" xlink:href="#s"/><use x="2850.390625" xlink:href="#l"/><use x="2911.572266" xlink:href="#k"/><use x="2970.507812" xlink:href="#q"/><use x="3049.462891" xlink:href="#n"/><use x="3108.642578" xlink:href="#DejaVuSans-20"/><use x="3140.429688" xlink:href="#y"/><use x="3205.419922" xlink:href="#DejaVuSans-20"/><use x="3237.207031" xlink:href="#g"/><use x="3300.830078" xlink:href="#g"/><use x="3364.453125" xlink:href="#t"/><use x="3428.076172" xlink:href="#u"/><use x="3491.699219" xlink:href="#u"/><use x="3555.322266" xlink:href="#af"/><use x="3618.945312" xlink:href="#DejaVuSans-20"/><use x="3650.732422" xlink:href="#x"/><use x="3708.984375" xlink:href="#o"/><use x="3772.460938" xlink:href="#z"/><use x="3833.740234" xlink:href="#s"/><use x="3899.121094" xlink:href="#bm"/><use x="3952.294922" xlink:href="#y"/><use x="4017.285156" xlink:href="#m"/><use x="4078.808594" xlink:href="#s"/><use x="4144.189453" xlink:href="#x"/><use x="4202.441406" xlink:href="#l"/><use x="4263.623047" xlink:href="#k"/><use x="4322.558594" xlink:href="#bs"/><use x="4354.345703" xlink:href="#DejaVuSans-20"/><use x="4386.132812" xlink:href="#av"/><use x="4464.257812" xlink:href="#m"/><use x="4525.78125" xlink:href="#ac"/><use x="4586.181641" xlink:href="#z"/><use x="4647.460938" xlink:href="#bo"/><use x="4709.130859" xlink:href="#o"/><use x="4772.607422" xlink:href="#bg"/><use x="4831.542969" xlink:href="#DejaVuSans-20"/><use x="4863.330078" xlink:href="#c"/><use x="4926.953125" xlink:href="#b"/><use x="4990.576172" xlink:href="#c"/><use x="5054.199219" xlink:href="#c"/><use x="5117.822266" xlink:href="#DejaVuSans-20"/><use x="5149.609375" xlink:href="#au"/><use x="5202.148438" xlink:href="#l"/><use x="5263.330078" xlink:href="#bn"/><use x="5332.470703" xlink:href="#z"/></g><path d="m78.92 81.459h422.38q2.8 0 2.8-2.8v-39.699q0-2.8-2.8-2.8h-422.38q-2.8 0-2.8 2.8v39.699q0 2.8 2.8 2.8z" fill="#fff" opacity=".8" stroke="#ccc"/><path d="m81.72 47.498h14 14" fill="none" stroke="#000" stroke-linecap="square" stroke-width="1.5"/><use x="95.72" y="47.497813" stroke="#000000" xlink:href="#d"/><g transform="translate(120.92 52.398) scale(.14 -.14)"><defs><path id="bj" transform="scale(.015625)" d="m1259 4147v-3628h763q966 0 1414 437 448 438 448 1382 0 937-448 1373t-1414 436h-763zm-631 519h1297q1356 0 1990-564 635-564 635-1764 0-1207-638-1773-637-565-1987-565h-1297v4666z"/><path id="w" transform="scale(.015625)" d="m2194 1759q-697 0-966-159t-269-544q0-306 202-486 202-179 548-179 479 0 768 339t289 901v128h-572zm1147 238v-1997h-575v531q-197-318-491-470t-719-152q-537 0-855 302-317 302-317 808 0 590 395 890 396 300 1180 300h807v57q0 397-261 614t-733 217q-300 0-585-72-284-72-546-216v532q315 122 612 182 297 61 578 61 760 0 1135-394 375-393 375-1193z"/><path id="aa" transform="scale(.015625)" d="m191 3500h609l1094-2937 1094 2937h609l-1313-3500h-781l-1312 3500z"/><path id="v" transform="scale(.015625)" d="m603 3500h575v-3500h-575v3500zm0 1363h575v-729h-575v729z"/><path id="ba" transform="scale(.015625)" d="m2906 2969v1894h575v-4863h-575v525q-181-312-458-464-276-152-664-152-634 0-1033 506-398 507-398 1332t398 1331q399 506 1033 506 388 0 664-152 277-151 458-463zm-1959-1222q0-634 261-995t717-361 718 361q263 361 263 995t-263 995q-262 361-718 361t-717-361-261-995z"/><path id="bp" transform="scale(.015625)" d="m1259 2228v-1709h1013q509 0 754 211 246 211 246 645 0 438-246 645-245 208-754 208h-1013zm0 1919v-1406h935q462 0 688 173 227 174 227 530 0 353-227 528-226 175-688 175h-935zm-631 519h1613q722 0 1112-300 391-300 391-853 0-429-200-682t-588-315q466-100 724-418 258-317 258-792 0-625-425-966-425-340-1210-340h-1675v4666z"/><path id="ab" transform="scale(.015625)" d="m2834 3397v-544q-243 125-506 187-262 63-544 63-428 0-642-131t-214-394q0-200 153-314t616-217l197-44q612-131 870-370t258-667q0-488-386-773-386-284-1061-284-281 0-586 55t-642 164v594q319-166 628-249 309-82 613-82 406 0 624 139 219 139 219 392 0 234-158 359-157 125-692 241l-200 47q-534 112-772 345-237 233-237 639 0 494 350 762 350 269 994 269 318 0 599-47 282-46 519-140z"/><path id="ap" transform="scale(.015625)" d="m3513 2113v-2113h-575v2094q0 497-194 743-194 247-581 247-466 0-735-297-269-296-269-809v-1978h-578v4863h578v-1907q207 316 486 472 280 156 646 156 603 0 912-373 310-373 310-1098z"/><path id="ak" transform="scale(.015625)" d="m1959 3097q-462 0-731-361t-269-989 267-989q268-361 733-361 460 0 728 362 269 363 269 988 0 622-269 986-268 364-728 364zm0 487q750 0 1178-488 429-487 429-1349 0-859-429-1349-428-489-1178-489-753 0-1180 489-426 490-426 1349 0 862 426 1349 427 488 1180 488z"/><path id="aj" transform="scale(.015625)" d="m1159 525v-1856h-578v4831h578v-531q182 312 458 463 277 152 661 152 638 0 1036-506 399-506 399-1331t-399-1332q-398-506-1036-506-384 0-661 152-276 152-458 464zm1957 1222q0 634-261 995t-717 361q-457 0-718-361t-261-995 261-995 718-361q456 0 717 361t261 995z"/><path id="bd" transform="scale(.015625)" d="m628 4666h631v-4135h2272v-531h-2903v4666z"/><path id="ai" transform="scale(.015625)" d="m1172 4494v-994h1184v-447h-1184v-1900q0-428 117-550t477-122h590v-481h-590q-666 0-919 248-253 249-253 905v1900h-422v447h422v994h578z"/><path id="i" transform="scale(.015625)" d="m3597 1894v-281h-2644q38-594 358-905t892-311q331 0 642 81t618 244v-544q-310-131-635-200t-659-69q-838 0-1327 487-489 488-489 1320 0 859 464 1363 464 505 1252 505 706 0 1117-455 411-454 411-1235zm-575 169q-6 471-264 752-258 282-683 282-481 0-770-272t-333-766l2050 4z"/><path id="am" transform="scale(.015625)" d="m3425 4513v-616q-359 172-678 256-319 85-616 85-515 0-795-200t-280-569q0-310 186-468 186-157 705-254l381-78q706-135 1042-474t336-907q0-679-455-1029-454-350-1332-350-331 0-705 75-373 75-773 222v650q384-215 753-325 369-109 725-109 540 0 834 212 294 213 294 607 0 343-211 537t-692 291l-385 75q-706 140-1022 440-315 300-315 835 0 619 436 975t1201 356q329 0 669-60 341-59 697-177z"/><path id="ao" transform="scale(.015625)" d="m544 1381v2119h575v-2097q0-497 193-746 194-248 582-248 465 0 735 297 271 297 271 810v1984h575v-3500h-575v538q-209-319-486-474-276-155-642-155-603 0-916 375-312 375-312 1097zm1447 2203z"/><path id="p" transform="scale(.015625)" d="m2631 2963q-97 56-211 82-114 27-251 27-488 0-749-317t-261-911v-1844h-578v3500h578v-544q182 319 472 473 291 155 707 155 59 0 131-8 72-7 159-23l3-590z"/><path id="al" transform="scale(.015625)" d="m3513 2113v-2113h-575v2094q0 497-194 743-194 247-581 247-466 0-735-297-269-296-269-809v-1978h-578v3500h578v-544q207 316 486 472 280 156 646 156 603 0 912-373 310-373 310-1098z"/><path id="aw" transform="scale(.015625)" d="m2188 4044-857-2322h1716l-859 2322zm-357 622h716l1778-4666h-656l-425 1197h-2103l-425-1197h-666l1781 4666z"/><path id="aq" transform="scale(.015625)" d="m3122 3366v-538q-244 135-489 202t-495 67q-560 0-870-355-309-354-309-995t309-996q310-354 870-354 250 0 495 67t489 202v-532q-241-112-499-168-257-57-548-57-791 0-1257 497-465 497-465 1341 0 856 470 1346 471 491 1290 491 265 0 518-55 253-54 491-163z"/></defs><use xlink:href="#bj"/><use x="77.001953" xlink:href="#w"/><use x="138.28125" xlink:href="#aa"/><use x="197.460938" xlink:href="#v"/><use x="225.244141" xlink:href="#ba"/><use x="288.720703" xlink:href="#DejaVuSans-20"/><use x="320.507812" xlink:href="#bp"/><use x="389.111328" xlink:href="#v"/><use x="416.894531" xlink:href="#ab"/><use x="468.994141" xlink:href="#ap"/><use x="532.373047" xlink:href="#ak"/><use x="593.554688" xlink:href="#aj"/><use x="657.03125" xlink:href="#an"/><use x="688.818359" xlink:href="#DejaVuSans-20"/><use x="720.605469" xlink:href="#bd"/><use x="776.318359" xlink:href="#w"/><use x="837.597656" xlink:href="#ai"/><use x="876.806641" xlink:href="#i"/><use x="938.330078" xlink:href="#ab"/><use x="990.429688" xlink:href="#ai"/><use x="1029.638672" xlink:href="#DejaVuSans-20"/><use x="1061.425781" xlink:href="#am"/><use x="1124.902344" xlink:href="#ao"/><use x="1188.28125" xlink:href="#aj"/><use x="1251.757812" xlink:href="#i"/><use x="1313.28125" xlink:href="#p"/><use x="1352.644531" xlink:href="#al"/><use x="1416.023438" xlink:href="#ak"/><use x="1477.205078" xlink:href="#aa"/><use x="1536.384766" xlink:href="#w"/><use x="1597.664062" xlink:href="#i"/><use x="1659.1875" xlink:href="#DejaVuSans-20"/><use x="1690.974609" xlink:href="#aw"/><use x="1759.382812" xlink:href="#p"/><use x="1798.246094" xlink:href="#aq"/><use x="1853.226562" xlink:href="#ap"/><use x="1916.605469" xlink:href="#v"/><use x="1944.388672" xlink:href="#aa"/><use x="2003.568359" xlink:href="#i"/><use x="2065.091797" xlink:href="#ab"/></g><path d="m81.72 68.047h14 14" fill="none" stroke="#f00" stroke-linecap="square" stroke-width="1.5"/><use x="95.72" y="68.047188" fill="#ff0000" stroke="#ff0000" xlink:href="#e"/><g transform="translate(120.92 72.947) scale(.14 -.14)"><defs><path id="bc" transform="scale(.015625)" d="m-19 4666h3947v-532h-1656v-4134h-634v4134h-1657v532z"/><path id="as" transform="scale(.015625)" d="m628 4666h850l2069-3903v3903h612v-4666h-850l-2068 3903v-3903h-613v4666z"/><path id="ax" transform="scale(.015625)" d="m3328 2828q216 388 516 572t706 184q547 0 844-383 297-382 297-1088v-2113h-578v2094q0 503-179 746-178 244-543 244-447 0-707-297-259-296-259-809v-1978h-578v2094q0 506-178 748t-550 242q-441 0-701-298-259-298-259-808v-1978h-578v3500h578v-544q197 322 472 475t653 153q382 0 649-194 267-193 395-562z"/><path id="ar" transform="scale(.015625)" d="m3116 1747q0 634-261 995t-717 361q-457 0-718-361t-261-995 261-995 718-361q456 0 717 361t261 995zm-1957 1222q182 312 458 463 277 152 661 152 638 0 1036-506 399-506 399-1331t-399-1332q-398-506-1036-506-384 0-661 152-276 152-458 464v-525h-578v4863h578v-1894z"/><path id="ay" transform="scale(.015625)" d="m603 4863h575v-4863h-575v4863z"/><path id="bt" transform="scale(.015625)" d="m2944 4013v-1741h1740v-531h-1740v-1741h-525v1741h-1741v531h1741v1741h525z"/><path id="be" transform="scale(.015625)" d="m628 4666h631v-4666h-631v4666z"/><path id="bb" transform="scale(.015625)" d="m556 4666h635v-2835q0-750 271-1080 272-329 882-329 606 0 878 329 272 330 272 1080v2835h634v-2913q0-912-452-1378-451-466-1332-466-885 0-1337 466-451 466-451 1378v2913z"/><path id="az" transform="scale(.015625)" d="m2375 4863v-479h-550q-309 0-430-125-120-125-120-450v-309h947v-447h-947v-3053h-578v3053h-550v447h550v244q0 584 272 851 272 268 862 268h544z"/></defs><use xlink:href="#bc"/><use x="46.333984" xlink:href="#p"/><use x="87.447266" xlink:href="#w"/><use x="148.726562" xlink:href="#al"/><use x="212.105469" xlink:href="#ab"/><use x="264.205078" xlink:href="#v"/><use x="291.988281" xlink:href="#i"/><use x="353.511719" xlink:href="#al"/><use x="416.890625" xlink:href="#ai"/><use x="456.099609" xlink:href="#DejaVuSans-20"/><use x="487.886719" xlink:href="#as"/><use x="562.691406" xlink:href="#w"/><use x="623.970703" xlink:href="#ax"/><use x="721.382812" xlink:href="#i"/><use x="782.90625" xlink:href="#DejaVuSans-20"/><use x="814.693359" xlink:href="#am"/><use x="878.169922" xlink:href="#i"/><use x="939.693359" xlink:href="#p"/><use x="980.806641" xlink:href="#aa"/><use x="1039.986328" xlink:href="#i"/><use x="1101.509766" xlink:href="#p"/><use x="1142.623047" xlink:href="#an"/><use x="1174.410156" xlink:href="#DejaVuSans-20"/><use x="1206.197266" xlink:href="#aj"/><use x="1269.673828" xlink:href="#ao"/><use x="1333.052734" xlink:href="#ar"/><use x="1396.529297" xlink:href="#ay"/><use x="1424.3125" xlink:href="#v"/><use x="1452.095703" xlink:href="#aq"/><use x="1507.076172" xlink:href="#DejaVuSans-20"/><use x="1538.863281" xlink:href="#bt"/><use x="1622.652344" xlink:href="#DejaVuSans-20"/><use x="1654.439453" xlink:href="#be"/><use x="1683.931641" xlink:href="#aw"/><use x="1752.339844" xlink:href="#bb"/><use x="1825.533203" xlink:href="#DejaVuSans-20"/><use x="1857.320312" xlink:href="#am"/><use x="1920.796875" xlink:href="#as"/><use x="1995.601562" xlink:href="#i"/><use x="2057.125" xlink:href="#DejaVuSans-20"/><use x="2088.912109" xlink:href="#ar"/><use x="2152.388672" xlink:href="#i"/><use x="2213.912109" xlink:href="#az"/><use x="2249.117188" xlink:href="#ak"/><use x="2310.298828" xlink:href="#p"/><use x="2349.162109" xlink:href="#i"/><use x="2410.685547" xlink:href="#DejaVuSans-20"/><use x="2442.472656" xlink:href="#c"/><use x="2506.095703" xlink:href="#b"/><use x="2569.71875" xlink:href="#g"/><use x="2633.341797" xlink:href="#t"/></g><defs><clipPath id="a"><rect x="69.12" y="29.16" width="1048.3" height="579.96"/></clipPath></defs></svg>
