<?xml version="1.0" encoding="UTF-8"?>
<!DOCTYPE svg  PUBLIC '-//W3C//DTD SVG 1.1//EN'  'http://www.w3.org/Graphics/SVG/1.1/DTD/svg11.dtd'>
<svg width="1152pt" height="648pt" version="1.1" viewBox="0 0 1152 648" xmlns="http://www.w3.org/2000/svg" xmlns:xlink="http://www.w3.org/1999/xlink"><defs><style type="text/css">*{stroke-linejoin: round; stroke-linecap: butt}</style></defs><path d="m0 648h1152v-648h-1152z" fill="#fff"/><path d="m69.12 609.12h1048.3v-579.96h-1048.3z" fill="#fff"/><path d="m78.926 609.12h30.309v-19.685h-30.309z" clip-path="url(#b)" fill="#1f77b4"/><path d="m114.58 609.12h30.309v-1.8873h-30.309z" clip-path="url(#b)" fill="#1f77b4"/><path d="m150.24 609.12h30.309v-3.6697h-30.309z" clip-path="url(#b)" fill="#1f77b4"/><path d="m185.9 609.12h30.309v-3.7221h-30.309z" clip-path="url(#b)" fill="#1f77b4"/><path d="m221.55 609.12h30.309v-3.6173h-30.309z" clip-path="url(#b)" fill="#1f77b4"/><path d="m257.21 609.12h30.309v-3.2241h-30.309z" clip-path="url(#b)" fill="#1f77b4"/><path d="m292.87 609.12h30.309v-5.6356h-30.309z" clip-path="url(#b)" fill="#1f77b4"/><path d="m328.53 609.12h30.309v-6.4744h-30.309z" clip-path="url(#b)" fill="#1f77b4"/><path d="m364.18 609.12h30.309v-6.4482h-30.309z" clip-path="url(#b)" fill="#1f77b4"/><path d="m399.84 609.12h30.309v-5.3735h-30.309z" clip-path="url(#b)" fill="#1f77b4"/><path d="m435.5 609.12h30.309v-6.5793h-30.309z" clip-path="url(#b)" fill="#1f77b4"/><path d="m471.15 609.12h30.309v-11.088h-30.309z" clip-path="url(#b)" fill="#1f77b4"/><path d="m506.81 609.12h30.309v-12.896h-30.309z" clip-path="url(#b)" fill="#1f77b4"/><path d="m542.47 609.12h30.309v-9.6723h-30.309z" clip-path="url(#b)" fill="#1f77b4"/><path d="m578.13 609.12h30.309v-10.826h-30.309z" clip-path="url(#b)" fill="#1f77b4"/><path d="m613.78 609.12h30.309v-11.455h-30.309z" clip-path="url(#b)" fill="#1f77b4"/><path d="m649.44 609.12h30.309v-19.449h-30.309z" clip-path="url(#b)" fill="#1f77b4"/><path d="m685.1 609.12h30.309v-23.276h-30.309z" clip-path="url(#b)" fill="#1f77b4"/><path d="m720.75 609.12h30.309v-35.098h-30.309z" clip-path="url(#b)" fill="#1f77b4"/><path d="m756.41 609.12h30.309v-47.628h-30.309z" clip-path="url(#b)" fill="#1f77b4"/><path d="m792.07 609.12h30.309v-86.081h-30.309z" clip-path="url(#b)" fill="#1f77b4"/><path d="m827.73 609.12h30.309v-184.32h-30.309z" clip-path="url(#b)" fill="#1f77b4"/><path d="m863.38 609.12h30.309v-197.95h-30.309z" clip-path="url(#b)" fill="#1f77b4"/><path d="m899.04 609.12h30.309v-203.14h-30.309z" clip-path="url(#b)" fill="#1f77b4"/><path d="m934.7 609.12h30.309v-419.03h-30.309z" clip-path="url(#b)" fill="#1f77b4"/><path d="m970.35 609.12h30.309v-504.16h-30.309z" clip-path="url(#b)" fill="#1f77b4"/><path d="m1006 609.12h30.309v-549.25h-30.309z" clip-path="url(#b)" fill="#1f77b4"/><path d="m1041.7 609.12h30.309v-502.51h-30.309z" clip-path="url(#b)" fill="#1f77b4"/><path d="m1077.3 609.12h30.309v-57.038h-30.309z" clip-path="url(#b)" fill="#1f77b4"/><path d="m78.926 589.43h30.309v-9.3053h-30.309z" clip-path="url(#b)" fill="#ff7f0e"/><path d="m114.58 607.23h30.309v-0.76015h-30.309z" clip-path="url(#b)" fill="#ff7f0e"/><path d="m150.24 605.45h30.309v-0.60288h-30.309z" clip-path="url(#b)" fill="#ff7f0e"/><path d="m185.9 605.4h30.309v-0.52424h-30.309z" clip-path="url(#b)" fill="#ff7f0e"/><path d="m221.55 605.5h30.309v-1.6776h-30.309z" clip-path="url(#b)" fill="#ff7f0e"/><path d="m257.21 605.9h30.309v-1.9135h-30.309z" clip-path="url(#b)" fill="#ff7f0e"/><path d="m292.87 603.48h30.309v-2.4377h-30.309z" clip-path="url(#b)" fill="#ff7f0e"/><path d="m328.53 602.65h30.309v-2.7523h-30.309z" clip-path="url(#b)" fill="#ff7f0e"/><path d="m364.18 602.67h30.309v-3.3814h-30.309z" clip-path="url(#b)" fill="#ff7f0e"/><path d="m399.84 603.75h30.309v-3.6173h-30.309z" clip-path="url(#b)" fill="#ff7f0e"/><path d="m435.5 602.54h30.309v-3.4862h-30.309z" clip-path="url(#b)" fill="#ff7f0e"/><path d="m471.15 598.03h30.309v-3.5124h-30.309z" clip-path="url(#b)" fill="#ff7f0e"/><path d="m506.81 596.22h30.309v-2.962h-30.309z" clip-path="url(#b)" fill="#ff7f0e"/><path d="m542.47 599.45h30.309v-3.6173h-30.309z" clip-path="url(#b)" fill="#ff7f0e"/><path d="m578.13 598.29h30.309v-3.827h-30.309z" clip-path="url(#b)" fill="#ff7f0e"/><path d="m613.78 597.67h30.309v-4.0105h-30.309z" clip-path="url(#b)" fill="#ff7f0e"/><path d="m649.44 589.67h30.309v-4.3774h-30.309z" clip-path="url(#b)" fill="#ff7f0e"/><path d="m685.1 585.84h30.309v-4.5347h-30.309z" clip-path="url(#b)" fill="#ff7f0e"/><path d="m720.75 574.02h30.309v-5.5832h-30.309z" clip-path="url(#b)" fill="#ff7f0e"/><path d="m756.41 561.49h30.309v-5.2686h-30.309z" clip-path="url(#b)" fill="#ff7f0e"/><path d="m792.07 523.04h30.309v-6.1599h-30.309z" clip-path="url(#b)" fill="#ff7f0e"/><path d="m827.73 424.8h30.309v-7.1559h-30.309z" clip-path="url(#b)" fill="#ff7f0e"/><path d="m863.38 411.17h30.309v-6.7365h-30.309z" clip-path="url(#b)" fill="#ff7f0e"/><path d="m899.04 405.98h30.309v-5.4783h-30.309z" clip-path="url(#b)" fill="#ff7f0e"/><path d="m934.7 190.09h30.309v-4.4036h-30.309z" clip-path="url(#b)" fill="#ff7f0e"/><path d="m970.35 104.96h30.309v-3.46h-30.309z" clip-path="url(#b)" fill="#ff7f0e"/><path d="m1006 59.87h30.309v-3.093h-30.309z" clip-path="url(#b)" fill="#ff7f0e"/><path d="m1041.7 106.61h30.309v-4.1415h-30.309z" clip-path="url(#b)" fill="#ff7f0e"/><path d="m1077.3 552.08h30.309v-0.60288h-30.309z" clip-path="url(#b)" fill="#ff7f0e"/><defs><path id="e" d="m0 0v3.5" stroke="#000" stroke-width=".8"/></defs><use x="94.08" y="609.12" stroke="#000000" stroke-width=".8" xlink:href="#e"/><g transform="translate(73.25 623.72) scale(.1 -.1)"><defs><path id="w" transform="scale(.015625)" d="m1384 459h1669v2582h-1209v-438q0-1287-369-1975l-91-169zm-834 0q284 125 409 391 307 659 307 1988v662h2365v-3041h460v-1343h-460v884h-2837v-884h-460v1343h216z"/><path id="k" transform="scale(.015625)" d="m1959 3097q-462 0-731-361t-269-989 267-989q268-361 733-361 460 0 728 362 269 363 269 988 0 622-269 986-268 364-728 364zm0 487q750 0 1178-488 429-487 429-1349 0-859-429-1349-428-489-1178-489-753 0-1180 489-426 490-426 1349 0 862 426 1349 427 488 1180 488z"/><path id="d" transform="scale(.015625)" d="m794 531h1031v3560l-1122-225v575l1116 225h631v-4135h1031v-531h-2687v531z"/><path id="f" transform="scale(.015625)" d="m703 97v575q238-113 481-172 244-59 479-59 625 0 954 420 330 420 377 1277-181-269-460-413-278-144-615-144-700 0-1108 423-408 424-408 1159 0 718 425 1152 425 435 1131 435 810 0 1236-621 427-620 427-1801 0-1103-524-1761-523-658-1407-658-238 0-482 47-243 47-506 141zm1256 1978q425 0 673 290 249 291 249 798 0 503-249 795-248 292-673 292t-673-292-248-795q0-507 248-798 248-290 673-290z"/><path id="i" transform="scale(.015625)" d="m2113 2584q-425 0-674-291-248-290-248-796 0-503 248-796 249-292 674-292t673 292q248 293 248 796 0 506-248 796-248 291-673 291zm1253 1979v-575q-238 112-480 171-242 60-480 60-625 0-955-422-329-422-376-1275 184 272 462 417 279 145 613 145 703 0 1111-427 408-426 408-1160 0-719-425-1154-425-434-1131-434-810 0-1238 620-428 621-428 1799 0 1106 525 1764t1409 658q238 0 480-47t505-140z"/></defs><use xlink:href="#w"/><use x="69.140625" xlink:href="#k"/><use x="130.322266" xlink:href="#DejaVuSans-20"/><use x="162.109375" xlink:href="#d"/><use x="225.732422" xlink:href="#f"/><use x="289.355469" xlink:href="#f"/><use x="352.978516" xlink:href="#i"/></g><use x="129.737143" y="609.12" stroke="#000000" stroke-width=".8" xlink:href="#e"/><g transform="translate(117.01 623.72) scale(.1 -.1)"><use xlink:href="#d"/><use x="63.623047" xlink:href="#f"/><use x="127.246094" xlink:href="#f"/><use x="190.869141" xlink:href="#i"/></g><use x="165.394286" y="609.12" stroke="#000000" stroke-width=".8" xlink:href="#e"/><g transform="translate(152.67 623.72) scale(.1 -.1)"><defs><path id="j" transform="scale(.015625)" d="m525 4666h3e3v-269l-1694-4397h-659l1594 4134h-2241v532z"/></defs><use xlink:href="#d"/><use x="63.623047" xlink:href="#f"/><use x="127.246094" xlink:href="#f"/><use x="190.869141" xlink:href="#j"/></g><use x="201.051429" y="609.12" stroke="#000000" stroke-width=".8" xlink:href="#e"/><g transform="translate(188.33 623.72) scale(.1 -.1)"><defs><path id="r" transform="scale(.015625)" d="m2034 2216q-450 0-708-241-257-241-257-662 0-422 257-663 258-241 708-241t709 242q260 243 260 662 0 421-258 662-257 241-711 241zm-631 268q-406 100-633 378-226 279-226 679 0 559 398 884 399 325 1092 325 697 0 1094-325t397-884q0-400-227-679-226-278-629-378 456-106 710-416 255-309 255-755 0-679-414-1042-414-362-1186-362-771 0-1186 362-414 363-414 1042 0 446 256 755 257 310 713 416zm-231 997q0-362 226-565 227-203 636-203 407 0 636 203 230 203 230 565 0 363-230 566-229 203-636 203-409 0-636-203-226-203-226-566z"/></defs><use xlink:href="#d"/><use x="63.623047" xlink:href="#f"/><use x="127.246094" xlink:href="#f"/><use x="190.869141" xlink:href="#r"/></g><use x="236.708571" y="609.12" stroke="#000000" stroke-width=".8" xlink:href="#e"/><g transform="translate(223.98 623.72) scale(.1 -.1)"><use xlink:href="#d"/><use x="63.623047" xlink:href="#f"/><use x="127.246094" xlink:href="#f"/><use x="190.869141" xlink:href="#f"/></g><use x="272.365714" y="609.12" stroke="#000000" stroke-width=".8" xlink:href="#e"/><g transform="translate(259.64 623.72) scale(.1 -.1)"><defs><path id="c" transform="scale(.015625)" d="m1228 531h2203v-531h-2962v531q359 372 979 998 621 627 780 809 303 340 423 576 121 236 121 464 0 372-261 606-261 235-680 235-297 0-627-103-329-103-704-313v638q381 153 712 231 332 78 607 78 725 0 1156-363 431-362 431-968 0-288-108-546-107-257-392-607-78-91-497-524-418-433-1181-1211z"/><path id="a" transform="scale(.015625)" d="m2034 4250q-487 0-733-480-245-479-245-1442 0-959 245-1439 246-480 733-480 491 0 736 480 246 480 246 1439 0 963-246 1442-245 480-736 480zm0 500q785 0 1199-621 414-620 414-1801 0-1178-414-1799-414-620-1199-620-784 0-1198 620-414 621-414 1799 0 1181 414 1801 414 621 1198 621z"/></defs><use xlink:href="#c"/><use x="63.623047" xlink:href="#a"/><use x="127.246094" xlink:href="#a"/><use x="190.869141" xlink:href="#a"/></g><use x="308.022857" y="609.12" stroke="#000000" stroke-width=".8" xlink:href="#e"/><g transform="translate(295.3 623.72) scale(.1 -.1)"><use xlink:href="#c"/><use x="63.623047" xlink:href="#a"/><use x="127.246094" xlink:href="#a"/><use x="190.869141" xlink:href="#d"/></g><use x="343.68" y="609.12" stroke="#000000" stroke-width=".8" xlink:href="#e"/><g transform="translate(330.96 623.72) scale(.1 -.1)"><use xlink:href="#c"/><use x="63.623047" xlink:href="#a"/><use x="127.246094" xlink:href="#a"/><use x="190.869141" xlink:href="#c"/></g><use x="379.337143" y="609.12" stroke="#000000" stroke-width=".8" xlink:href="#e"/><g transform="translate(366.61 623.72) scale(.1 -.1)"><defs><path id="h" transform="scale(.015625)" d="m2597 2516q453-97 707-404 255-306 255-756 0-690-475-1069-475-378-1350-378-293 0-604 58t-642 174v609q262-153 574-231 313-78 654-78 593 0 904 234t311 681q0 413-289 645-289 233-804 233h-544v519h569q465 0 712 186t247 536q0 359-255 551-254 193-729 193-260 0-557-57-297-56-653-174v562q360 100 674 150t592 50q719 0 1137-327 419-326 419-882 0-388-222-655t-631-370z"/></defs><use xlink:href="#c"/><use x="63.623047" xlink:href="#a"/><use x="127.246094" xlink:href="#a"/><use x="190.869141" xlink:href="#h"/></g><use x="414.994286" y="609.12" stroke="#000000" stroke-width=".8" xlink:href="#e"/><g transform="translate(402.27 623.72) scale(.1 -.1)"><defs><path id="x" transform="scale(.015625)" d="m2419 4116-1594-2491h1594v2491zm-166 550h794v-3041h666v-525h-666v-1100h-628v1100h-2106v609l1940 2957z"/></defs><use xlink:href="#c"/><use x="63.623047" xlink:href="#a"/><use x="127.246094" xlink:href="#a"/><use x="190.869141" xlink:href="#x"/></g><use x="450.651429" y="609.12" stroke="#000000" stroke-width=".8" xlink:href="#e"/><g transform="translate(437.93 623.72) scale(.1 -.1)"><defs><path id="g" transform="scale(.015625)" d="m691 4666h2478v-532h-1900v-1143q137 47 274 70 138 23 276 23 781 0 1237-428 457-428 457-1159 0-753-469-1171-469-417-1322-417-294 0-599 50-304 50-629 150v635q281-153 581-228t634-75q541 0 856 284 316 284 316 772 0 487-316 771-315 285-856 285-253 0-505-56-251-56-513-175v2344z"/></defs><use xlink:href="#c"/><use x="63.623047" xlink:href="#a"/><use x="127.246094" xlink:href="#a"/><use x="190.869141" xlink:href="#g"/></g><use x="486.308571" y="609.12" stroke="#000000" stroke-width=".8" xlink:href="#e"/><g transform="translate(473.58 623.72) scale(.1 -.1)"><use xlink:href="#c"/><use x="63.623047" xlink:href="#a"/><use x="127.246094" xlink:href="#a"/><use x="190.869141" xlink:href="#i"/></g><use x="521.965714" y="609.12" stroke="#000000" stroke-width=".8" xlink:href="#e"/><g transform="translate(509.24 623.72) scale(.1 -.1)"><use xlink:href="#c"/><use x="63.623047" xlink:href="#a"/><use x="127.246094" xlink:href="#a"/><use x="190.869141" xlink:href="#j"/></g><use x="557.622857" y="609.12" stroke="#000000" stroke-width=".8" xlink:href="#e"/><g transform="translate(544.9 623.72) scale(.1 -.1)"><use xlink:href="#c"/><use x="63.623047" xlink:href="#a"/><use x="127.246094" xlink:href="#a"/><use x="190.869141" xlink:href="#r"/></g><use x="593.28" y="609.12" stroke="#000000" stroke-width=".8" xlink:href="#e"/><g transform="translate(580.56 623.72) scale(.1 -.1)"><use xlink:href="#c"/><use x="63.623047" xlink:href="#a"/><use x="127.246094" xlink:href="#a"/><use x="190.869141" xlink:href="#f"/></g><use x="628.937143" y="609.12" stroke="#000000" stroke-width=".8" xlink:href="#e"/><g transform="translate(616.21 623.72) scale(.1 -.1)"><use xlink:href="#c"/><use x="63.623047" xlink:href="#a"/><use x="127.246094" xlink:href="#d"/><use x="190.869141" xlink:href="#a"/></g><use x="664.594286" y="609.12" stroke="#000000" stroke-width=".8" xlink:href="#e"/><g transform="translate(651.87 623.72) scale(.1 -.1)"><use xlink:href="#c"/><use x="63.623047" xlink:href="#a"/><use x="127.246094" xlink:href="#d"/><use x="190.869141" xlink:href="#d"/></g><use x="700.251429" y="609.12" stroke="#000000" stroke-width=".8" xlink:href="#e"/><g transform="translate(687.53 623.72) scale(.1 -.1)"><use xlink:href="#c"/><use x="63.623047" xlink:href="#a"/><use x="127.246094" xlink:href="#d"/><use x="190.869141" xlink:href="#c"/></g><use x="735.908571" y="609.12" stroke="#000000" stroke-width=".8" xlink:href="#e"/><g transform="translate(723.18 623.72) scale(.1 -.1)"><use xlink:href="#c"/><use x="63.623047" xlink:href="#a"/><use x="127.246094" xlink:href="#d"/><use x="190.869141" xlink:href="#h"/></g><use x="771.565714" y="609.12" stroke="#000000" stroke-width=".8" xlink:href="#e"/><g transform="translate(758.84 623.72) scale(.1 -.1)"><use xlink:href="#c"/><use x="63.623047" xlink:href="#a"/><use x="127.246094" xlink:href="#d"/><use x="190.869141" xlink:href="#x"/></g><use x="807.222857" y="609.12" stroke="#000000" stroke-width=".8" xlink:href="#e"/><g transform="translate(794.5 623.72) scale(.1 -.1)"><use xlink:href="#c"/><use x="63.623047" xlink:href="#a"/><use x="127.246094" xlink:href="#d"/><use x="190.869141" xlink:href="#g"/></g><use x="842.88" y="609.12" stroke="#000000" stroke-width=".8" xlink:href="#e"/><g transform="translate(830.16 623.72) scale(.1 -.1)"><use xlink:href="#c"/><use x="63.623047" xlink:href="#a"/><use x="127.246094" xlink:href="#d"/><use x="190.869141" xlink:href="#i"/></g><use x="878.537143" y="609.12" stroke="#000000" stroke-width=".8" xlink:href="#e"/><g transform="translate(865.81 623.72) scale(.1 -.1)"><use xlink:href="#c"/><use x="63.623047" xlink:href="#a"/><use x="127.246094" xlink:href="#d"/><use x="190.869141" xlink:href="#j"/></g><use x="914.194286" y="609.12" stroke="#000000" stroke-width=".8" xlink:href="#e"/><g transform="translate(901.47 623.72) scale(.1 -.1)"><use xlink:href="#c"/><use x="63.623047" xlink:href="#a"/><use x="127.246094" xlink:href="#d"/><use x="190.869141" xlink:href="#r"/></g><use x="949.851429" y="609.12" stroke="#000000" stroke-width=".8" xlink:href="#e"/><g transform="translate(937.13 623.72) scale(.1 -.1)"><use xlink:href="#c"/><use x="63.623047" xlink:href="#a"/><use x="127.246094" xlink:href="#d"/><use x="190.869141" xlink:href="#f"/></g><use x="985.508571" y="609.12" stroke="#000000" stroke-width=".8" xlink:href="#e"/><g transform="translate(972.78 623.72) scale(.1 -.1)"><use xlink:href="#c"/><use x="63.623047" xlink:href="#a"/><use x="127.246094" xlink:href="#c"/><use x="190.869141" xlink:href="#a"/></g><use x="1021.165714" y="609.12" stroke="#000000" stroke-width=".8" xlink:href="#e"/><g transform="translate(1008.4 623.72) scale(.1 -.1)"><use xlink:href="#c"/><use x="63.623047" xlink:href="#a"/><use x="127.246094" xlink:href="#c"/><use x="190.869141" xlink:href="#d"/></g><use x="1056.822857" y="609.12" stroke="#000000" stroke-width=".8" xlink:href="#e"/><g transform="translate(1044.1 623.72) scale(.1 -.1)"><use xlink:href="#c"/><use x="63.623047" xlink:href="#a"/><use x="127.246094" xlink:href="#c"/><use x="190.869141" xlink:href="#c"/></g><use x="1092.48" y="609.12" stroke="#000000" stroke-width=".8" xlink:href="#e"/><g transform="translate(1079.8 623.72) scale(.1 -.1)"><use xlink:href="#c"/><use x="63.623047" xlink:href="#a"/><use x="127.246094" xlink:href="#c"/><use x="190.869141" xlink:href="#h"/></g><g transform="translate(579.89 640.44) scale(.14 -.14)"><defs><path id="ap" transform="scale(.015625)" d="m628 0v4666h2903v-532h-2272v-4134h-631z"/></defs><use xlink:href="#ap"/><use x="60.986328" xlink:href="#k"/><use x="122.167969" xlink:href="#w"/></g><defs><path id="l" d="m0 0h-3.5" stroke="#000" stroke-width=".8"/></defs><use x="69.12" y="609.12" stroke="#000000" stroke-width=".8" xlink:href="#l"/><g transform="translate(55.758 612.92) scale(.1 -.1)"><use xlink:href="#a"/></g><use x="69.12" y="543.589574" stroke="#000000" stroke-width=".8" xlink:href="#l"/><g transform="translate(36.67 547.39) scale(.1 -.1)"><use xlink:href="#c"/><use x="63.623047" xlink:href="#g"/><use x="127.246094" xlink:href="#a"/><use x="190.869141" xlink:href="#a"/></g><use x="69.12" y="478.059147" stroke="#000000" stroke-width=".8" xlink:href="#l"/><g transform="translate(36.67 481.86) scale(.1 -.1)"><use xlink:href="#g"/><use x="63.623047" xlink:href="#a"/><use x="127.246094" xlink:href="#a"/><use x="190.869141" xlink:href="#a"/></g><use x="69.12" y="412.528721" stroke="#000000" stroke-width=".8" xlink:href="#l"/><g transform="translate(36.67 416.33) scale(.1 -.1)"><use xlink:href="#j"/><use x="63.623047" xlink:href="#g"/><use x="127.246094" xlink:href="#a"/><use x="190.869141" xlink:href="#a"/></g><use x="69.12" y="346.998295" stroke="#000000" stroke-width=".8" xlink:href="#l"/><g transform="translate(30.308 350.8) scale(.1 -.1)"><use xlink:href="#d"/><use x="63.623047" xlink:href="#a"/><use x="127.246094" xlink:href="#a"/><use x="190.869141" xlink:href="#a"/><use x="254.492188" xlink:href="#a"/></g><use x="69.12" y="281.467869" stroke="#000000" stroke-width=".8" xlink:href="#l"/><g transform="translate(30.308 285.27) scale(.1 -.1)"><use xlink:href="#d"/><use x="63.623047" xlink:href="#c"/><use x="127.246094" xlink:href="#g"/><use x="190.869141" xlink:href="#a"/><use x="254.492188" xlink:href="#a"/></g><use x="69.12" y="215.937442" stroke="#000000" stroke-width=".8" xlink:href="#l"/><g transform="translate(30.308 219.74) scale(.1 -.1)"><use xlink:href="#d"/><use x="63.623047" xlink:href="#g"/><use x="127.246094" xlink:href="#a"/><use x="190.869141" xlink:href="#a"/><use x="254.492188" xlink:href="#a"/></g><use x="69.12" y="150.407016" stroke="#000000" stroke-width=".8" xlink:href="#l"/><g transform="translate(30.308 154.21) scale(.1 -.1)"><use xlink:href="#d"/><use x="63.623047" xlink:href="#j"/><use x="127.246094" xlink:href="#g"/><use x="190.869141" xlink:href="#a"/><use x="254.492188" xlink:href="#a"/></g><use x="69.12" y="84.87659" stroke="#000000" stroke-width=".8" xlink:href="#l"/><g transform="translate(30.308 88.676) scale(.1 -.1)"><use xlink:href="#c"/><use x="63.623047" xlink:href="#a"/><use x="127.246094" xlink:href="#a"/><use x="190.869141" xlink:href="#a"/><use x="254.492188" xlink:href="#a"/></g><g transform="translate(23.396 427.11) rotate(-90) scale(.14 -.14)"><defs><path id="ao" transform="scale(.015625)" d="m2522 4238q-688 0-1093-513-404-512-404-1397 0-881 404-1394 405-512 1093-512 687 0 1089 512 402 513 402 1394 0 885-402 1397-402 513-1089 513zm0 512q981 0 1568-658 588-658 588-1764 0-1103-588-1761-587-658-1568-658-984 0-1574 656-589 657-589 1763t589 1764q590 658 1574 658z"/><path id="m" transform="scale(.015625)" d="m188 3500h3353v-459h-1394v-3041h-566v3041h-1393v459z"/><path id="aa" transform="scale(.015625)" d="m581 3500h572v-1644l1622 1644h706l-1337-1353 1509-2147h-644l-1240 1766-616-625v-1141h-572v3500z"/><path id="o" transform="scale(.015625)" d="m1159 525v-1856h-578v4831h578v-531q182 312 458 463 277 152 661 152 638 0 1036-506 399-506 399-1331t-399-1332q-398-506-1036-506-384 0-661 152-276 152-458 464zm1957 1222q0 634-261 995t-717 361q-457 0-718-361t-261-995 261-995 718-361q456 0 717 361t261 995z"/><path id="s" transform="scale(.015625)" d="m3907 3500h575v-3500h-575v3500zm288 84zm-1414-2546q0 281-205 428-204 147-598 147h-819v-1154h819q394 0 598 148 205 149 205 431zm-2200 2462h578v-1428h844q669 0 1030-255 361-254 361-779t-361-782q-361-256-1030-256h-1422v3500z"/><path id="u" transform="scale(.015625)" d="m3578 3500v-3500h-572v2809l-1687-2809h-738v3500h572v-2803l1685 2803h740z"/><path id="ad" transform="scale(.015625)" d="m3578 3500v-3500h-572v2809l-1687-2809h-738v3500h572v-2803l1685 2803h740zm-2476 1333h369q34-234 185-352 152-117 424-117 269 0 419 116t190 353h369q-31-447-278-672t-700-225-700 225-278 672z"/><path id="y" transform="scale(.015625)" d="m3122 3366v-538q-244 135-489 202t-495 67q-560 0-870-355-309-354-309-995t309-996q310-354 870-354 250 0 495 67t489 202v-532q-241-112-499-168-257-57-548-57-791 0-1257 497-465 497-465 1341 0 856 470 1346 471 491 1290 491 265 0 518-55 253-54 491-163z"/><path id="p" transform="scale(.015625)" d="m1156 1613v-1154h819q394 0 600 148 206 149 206 431 0 281-206 428t-600 147h-819zm0 1428v-969h757q325 0 531 129 206 130 206 362 0 231-206 354-206 124-531 124h-757zm-575 459h1369q616 0 947-225t331-641q0-321-169-511-168-189-500-235 397-75 616-313 219-237 219-594 0-468-361-725-361-256-1030-256h-1422v3500z"/><path id="n" transform="scale(.015625)" d="m3597 1894v-281h-2644q38-594 358-905t892-311q331 0 642 81t618 244v-544q-310-131-635-200t-659-69q-838 0-1327 487-489 488-489 1320 0 859 464 1363 464 505 1252 505 706 0 1117-455 411-454 411-1235zm-575 169q-6 471-264 752-258 282-683 282-481 0-770-272t-333-766l2050 4z"/><path id="v" transform="scale(.015625)" d="m3513 3500-1266-1703 1331-1797h-678l-1019 1375-1018-1375h-679l1360 1831-1244 1669h678l928-1247 928 1247h679z"/><path id="t" transform="scale(.015625)" d="m581 3500h578v-1428h1866v1428h578v-3500h-578v1613h-1866v-1613h-578v3500z"/><path id="al" transform="scale(.015625)" d="m2206 1888q388-75 603-304 216-228 216-565 0-541-403-826-403-284-1147-284-250 0-514 44t-545 131v535q222-116 487-174 266-57 556-57 472 0 736 175t264 456q0 275-234 442t-662 167h-463v475h484q363 0 574 139t211 358q0 200-218 344-217 144-588 144-222 0-474-41-251-41-555-131v522q307 75 572 112 266 38 503 38 613 0 967-246 355-245 355-686 0-290-188-492-187-201-537-276z"/><path id="q" transform="scale(.015625)" d="m2194 1759q-697 0-966-159t-269-544q0-306 202-486 202-179 548-179 479 0 768 339t289 901v128h-572zm1147 238v-1997h-575v531q-197-318-491-470t-719-152q-537 0-855 302-317 302-317 808 0 590 395 890 396 300 1180 300h807v57q0 397-261 614t-733 217q-300 0-585-72-284-72-546-216v532q315 122 612 182 297 61 578 61 760 0 1135-394 375-393 375-1193z"/><path id="ab" transform="scale(.015625)" d="m581 0v3500h2469v-459h-1891v-3041h-578z"/></defs><use xlink:href="#ao"/><use x="78.710938" xlink:href="#m"/><use x="136.962891" xlink:href="#aa"/><use x="197.363281" xlink:href="#o"/><use x="260.839844" xlink:href="#s"/><use x="339.794922" xlink:href="#m"/><use x="398.046875" xlink:href="#u"/><use x="463.037109" xlink:href="#ad"/><use x="528.027344" xlink:href="#DejaVuSans-20"/><use x="559.814453" xlink:href="#y"/><use x="614.794922" xlink:href="#p"/><use x="673.730469" xlink:href="#n"/><use x="735.253906" xlink:href="#o"/><use x="798.730469" xlink:href="#v"/><use x="857.910156" xlink:href="#t"/><use x="923.291016" xlink:href="#k"/><use x="984.472656" xlink:href="#p"/><use x="1043.408203" xlink:href="#s"/><use x="1122.363281" xlink:href="#v"/><use x="1181.542969" xlink:href="#DejaVuSans-20"/><use x="1213.330078" xlink:href="#al"/><use x="1266.503906" xlink:href="#q"/><use x="1327.783203" xlink:href="#DejaVuSans-20"/><use x="1359.570312" xlink:href="#ab"/><use x="1412.109375" xlink:href="#k"/><use x="1473.291016" xlink:href="#w"/></g><path d="m69.12 609.12v-579.96" fill="none" stroke="#000" stroke-linecap="square" stroke-width=".8"/><path d="m1117.4 609.12v-579.96" fill="none" stroke="#000" stroke-linecap="square" stroke-width=".8"/><path d="m69.12 609.12h1048.3" fill="none" stroke="#000" stroke-linecap="square" stroke-width=".8"/><path d="m69.12 29.16h1048.3" fill="none" stroke="#000" stroke-linecap="square" stroke-width=".8"/><g transform="translate(81.355 575.13) scale(.1 -.1)"><use xlink:href="#d"/><use x="63.623047" xlink:href="#d"/><use x="127.246094" xlink:href="#a"/><use x="190.869141" xlink:href="#i"/></g><g transform="translate(120.19 601.47) scale(.1 -.1)"><use xlink:href="#d"/><use x="63.623047" xlink:href="#a"/><use x="127.246094" xlink:href="#d"/></g><g transform="translate(155.85 599.85) scale(.1 -.1)"><use xlink:href="#d"/><use x="63.623047" xlink:href="#i"/><use x="127.246094" xlink:href="#h"/></g><g transform="translate(191.51 599.87) scale(.1 -.1)"><use xlink:href="#d"/><use x="63.623047" xlink:href="#i"/><use x="127.246094" xlink:href="#c"/></g><g transform="translate(227.16 598.83) scale(.1 -.1)"><use xlink:href="#c"/><use x="63.623047" xlink:href="#a"/><use x="127.246094" xlink:href="#c"/></g><g transform="translate(262.82 598.98) scale(.1 -.1)"><use xlink:href="#d"/><use x="63.623047" xlink:href="#f"/><use x="127.246094" xlink:href="#i"/></g><g transform="translate(298.48 596.05) scale(.1 -.1)"><use xlink:href="#h"/><use x="63.623047" xlink:href="#a"/><use x="127.246094" xlink:href="#r"/></g><g transform="translate(334.14 594.89) scale(.1 -.1)"><use xlink:href="#h"/><use x="63.623047" xlink:href="#g"/><use x="127.246094" xlink:href="#c"/></g><g transform="translate(369.79 594.29) scale(.1 -.1)"><use xlink:href="#h"/><use x="63.623047" xlink:href="#j"/><use x="127.246094" xlink:href="#g"/></g><g transform="translate(405.45 595.13) scale(.1 -.1)"><use xlink:href="#h"/><use x="63.623047" xlink:href="#x"/><use x="127.246094" xlink:href="#h"/></g><g transform="translate(441.11 594.05) scale(.1 -.1)"><use xlink:href="#h"/><use x="63.623047" xlink:href="#r"/><use x="127.246094" xlink:href="#x"/></g><g transform="translate(476.76 589.52) scale(.1 -.1)"><use xlink:href="#g"/><use x="63.623047" xlink:href="#g"/><use x="127.246094" xlink:href="#j"/></g><g transform="translate(512.42 588.26) scale(.1 -.1)"><use xlink:href="#i"/><use x="63.623047" xlink:href="#a"/><use x="127.246094" xlink:href="#g"/></g><g transform="translate(548.08 590.83) scale(.1 -.1)"><use xlink:href="#g"/><use x="63.623047" xlink:href="#a"/><use x="127.246094" xlink:href="#j"/></g><g transform="translate(583.74 589.47) scale(.1 -.1)"><use xlink:href="#g"/><use x="63.623047" xlink:href="#g"/><use x="127.246094" xlink:href="#f"/></g><g transform="translate(619.39 588.65) scale(.1 -.1)"><use xlink:href="#g"/><use x="63.623047" xlink:href="#f"/><use x="127.246094" xlink:href="#a"/></g><g transform="translate(655.05 580.29) scale(.1 -.1)"><use xlink:href="#f"/><use x="63.623047" xlink:href="#a"/><use x="127.246094" xlink:href="#f"/></g><g transform="translate(687.53 576.31) scale(.1 -.1)"><use xlink:href="#d"/><use x="63.623047" xlink:href="#a"/><use x="127.246094" xlink:href="#i"/><use x="190.869141" xlink:href="#d"/></g><g transform="translate(723.18 563.44) scale(.1 -.1)"><use xlink:href="#d"/><use x="63.623047" xlink:href="#g"/><use x="127.246094" xlink:href="#g"/><use x="190.869141" xlink:href="#c"/></g><g transform="translate(758.84 551.22) scale(.1 -.1)"><use xlink:href="#c"/><use x="63.623047" xlink:href="#a"/><use x="127.246094" xlink:href="#d"/><use x="190.869141" xlink:href="#r"/></g><g transform="translate(794.5 511.88) scale(.1 -.1)"><use xlink:href="#h"/><use x="63.623047" xlink:href="#g"/><use x="127.246094" xlink:href="#d"/><use x="190.869141" xlink:href="#f"/></g><g transform="translate(830.16 412.64) scale(.1 -.1)"><use xlink:href="#j"/><use x="63.623047" xlink:href="#h"/><use x="127.246094" xlink:href="#a"/><use x="190.869141" xlink:href="#g"/></g><g transform="translate(865.81 399.43) scale(.1 -.1)"><use xlink:href="#j"/><use x="63.623047" xlink:href="#r"/><use x="127.246094" xlink:href="#a"/><use x="190.869141" xlink:href="#f"/></g><g transform="translate(901.47 395.5) scale(.1 -.1)"><use xlink:href="#j"/><use x="63.623047" xlink:href="#f"/><use x="127.246094" xlink:href="#g"/><use x="190.869141" xlink:href="#f"/></g><g transform="translate(933.95 180.69) scale(.1 -.1)"><use xlink:href="#d"/><use x="63.623047" xlink:href="#i"/><use x="127.246094" xlink:href="#d"/><use x="190.869141" xlink:href="#g"/><use x="254.492188" xlink:href="#x"/></g><g transform="translate(969.6 96.495) scale(.1 -.1)"><use xlink:href="#d"/><use x="63.623047" xlink:href="#f"/><use x="127.246094" xlink:href="#h"/><use x="190.869141" xlink:href="#i"/><use x="254.492188" xlink:href="#i"/></g><g transform="translate(1005.3 51.777) scale(.1 -.1)"><use xlink:href="#c"/><use x="63.623047" xlink:href="#d"/><use x="127.246094" xlink:href="#a"/><use x="190.869141" xlink:href="#j"/><use x="254.492188" xlink:href="#c"/></g><g transform="translate(1040.9 97.465) scale(.1 -.1)"><use xlink:href="#d"/><use x="63.623047" xlink:href="#f"/><use x="127.246094" xlink:href="#h"/><use x="190.869141" xlink:href="#c"/><use x="254.492188" xlink:href="#f"/></g><g transform="translate(1079.8 546.48) scale(.1 -.1)"><use xlink:href="#c"/><use x="63.623047" xlink:href="#d"/><use x="127.246094" xlink:href="#f"/><use x="190.869141" xlink:href="#f"/></g><g transform="translate(321.44 23.16) scale(.16 -.16)"><defs><path id="af" transform="scale(.015625)" d="m4122 4306v-665q-319 297-680 443-361 147-767 147-800 0-1225-489t-425-1414q0-922 425-1411t1225-489q406 0 767 147t680 444v-660q-331-225-702-338-370-112-782-112-1060 0-1670 648-609 649-609 1771 0 1125 609 1773 610 649 1670 649 418 0 788-111 371-111 696-333z"/><path id="ak" transform="scale(.015625)" d="m3603 3500v-3500h-578v3041h-1866v-3041h-578v3500h3022z"/><path id="ac" transform="scale(.015625)" d="m581 3500h841l994-2344 997 2344h834v-3500h-578v2950l-966-2278h-575l-969 2278v-2950h-578v3500z"/><path id="aq" transform="scale(.015625)" d="m684 794h660v-794h-660v794z"/><path id="an" transform="scale(.015625)" d="m2441 3706q-678-62-1038-381-359-319-359-934 0-616 359-933 360-317 1038-380v2628zm634-2628q678 63 1034 380 357 317 357 933 0 615-357 934-356 319-1034 381v-2628zm-634-522q-991 72-1527 539-536 468-536 1296t536 1298 1527 542v435h634v-435q991-72 1523-539 533-467 533-1301 0-828-533-1296-532-467-1523-539v-556h-634v556z"/><path id="z" transform="scale(.015625)" d="m238 0v478q568 88 743 481 213 554 213 1969v572h2365v-3500h-575v3041h-1215v-347q0-1350-275-1956-294-647-1256-738z"/><path id="ai" transform="scale(.015625)" d="m2781 1038q0 281-205 428-204 147-598 147h-819v-1154h819q394 0 598 148 205 149 205 431zm-2200 2462h578v-1428h844q669 0 1030-255 361-254 361-779t-361-782q-361-256-1030-256h-1422v3500z"/></defs><use xlink:href="#af"/><use x="69.824219" xlink:href="#m"/><use x="128.076172" xlink:href="#q"/><use x="189.355469" xlink:href="#m"/><use x="247.607422" xlink:href="#u"/><use x="312.597656" xlink:href="#y"/><use x="367.578125" xlink:href="#m"/><use x="425.830078" xlink:href="#u"/><use x="490.820312" xlink:href="#aa"/><use x="551.220703" xlink:href="#q"/><use x="612.5" xlink:href="#DejaVuSans-20"/><use x="644.287109" xlink:href="#k"/><use x="705.46875" xlink:href="#m"/><use x="763.720703" xlink:href="#aa"/><use x="824.121094" xlink:href="#o"/><use x="887.597656" xlink:href="#s"/><use x="966.552734" xlink:href="#m"/><use x="1024.804688" xlink:href="#u"/><use x="1089.794922" xlink:href="#ad"/><use x="1154.785156" xlink:href="#DejaVuSans-20"/><use x="1186.572266" xlink:href="#y"/><use x="1241.552734" xlink:href="#p"/><use x="1300.488281" xlink:href="#n"/><use x="1362.011719" xlink:href="#o"/><use x="1425.488281" xlink:href="#v"/><use x="1484.667969" xlink:href="#t"/><use x="1550.048828" xlink:href="#k"/><use x="1611.230469" xlink:href="#p"/><use x="1670.166016" xlink:href="#s"/><use x="1749.121094" xlink:href="#v"/><use x="1808.300781" xlink:href="#DejaVuSans-20"/><use x="1840.087891" xlink:href="#ak"/><use x="1905.46875" xlink:href="#k"/><use x="1966.650391" xlink:href="#DejaVuSans-20"/><use x="1998.4375" xlink:href="#ab"/><use x="2050.976562" xlink:href="#k"/><use x="2112.158203" xlink:href="#w"/><use x="2181.298828" xlink:href="#q"/><use x="2242.578125" xlink:href="#ac"/><use x="2318.017578" xlink:href="#aq"/><use x="2349.804688" xlink:href="#DejaVuSans-20"/><use x="2381.591797" xlink:href="#an"/><use x="2467.675781" xlink:href="#n"/><use x="2529.199219" xlink:href="#p"/><use x="2588.134766" xlink:href="#o"/><use x="2651.611328" xlink:href="#q"/><use x="2712.890625" xlink:href="#z"/><use x="2776.806641" xlink:href="#ai"/><use x="2835.742188" xlink:href="#DejaVuSans-20"/><use x="2867.529297" xlink:href="#c"/><use x="2931.152344" xlink:href="#a"/><use x="2994.775391" xlink:href="#c"/><use x="3058.398438" xlink:href="#h"/><use x="3122.021484" xlink:href="#DejaVuSans-20"/><use x="3153.808594" xlink:href="#ab"/><use x="3206.347656" xlink:href="#k"/><use x="3267.529297" xlink:href="#w"/><use x="3336.669922" xlink:href="#q"/></g><path d="m78.92 61.148h351.17q2.8 0 2.8-2.8v-19.388q0-2.8-2.8-2.8h-351.17q-2.8 0-2.8 2.8v19.388q0 2.8 2.8 2.8z" fill="#fff" opacity=".8" stroke="#ccc"/><path d="m81.72 52.636h28v-9.8h-28z" fill="#ff7f0e"/><g transform="translate(120.92 52.636) scale(.14 -.14)"><defs><path id="ar" transform="scale(.015625)" d="m750 794h659v-538l-512-1e3h-403l256 1e3v538z"/><path id="ae" transform="scale(.015625)" d="m1991 3584q750 0 1178-488 428-487 428-1349 0-859-428-1349-428-489-1178-489-753 0-1169 475t-438 1363l-18 716q-16 371-16 500 0 500 181 868 285 578 777 828t1317 257q381 3 550 56l159-456q-153-63-293-66l-782-53q-393-28-631-166-622-365-681-843l-22-175q406 371 1066 371zm0-487q-463 0-732-361-268-361-268-989t267-989 733-361q459 0 728 362 269 363 269 988 0 622-269 986t-728 364z"/><path id="aj" transform="scale(.015625)" d="m2059-325q-243-625-475-815-231-191-618-191h-460v481h338q237 0 368 113 132 112 291 531l103 262-1415 3444h609l1094-2737 1094 2737h609l-1538-3825z"/><path id="am" transform="scale(.015625)" d="m2597 3500h572v-1644l1528 1644h669l-1257-1347 1438-2153h-616l-1178 1769-584-628v-1141h-572v1141l-584 628-1179-1769h-615l1437 2153-1256 1347h669l1528-1644v1644z"/><path id="ah" transform="scale(.015625)" d="m3431 3097q-462 0-731-361t-269-989 267-989q268-361 733-361 460 0 728 362 269 363 269 988 0 622-269 986-268 364-728 364zm-1587-994q59 594 448 1037 389 444 1139 444t1178-488q429-487 429-1349 0-859-429-1349-428-489-1178-489-753 0-1164 472t-439 1247h-650v-1628h-575v3500h575v-1397h666z"/><path id="ag" transform="scale(.015625)" d="m1181 2491q0-260 200-407 200-146 572-146h775v1103h-775q-372 0-572-144t-200-406zm-818-2491 1068 1534q-362 82-603 296-240 214-240 661 0 506 335 757 336 252 1015 252h1368v-3500h-578v1478h-715l-1032-1478h-618z"/></defs><use xlink:href="#af"/><use x="69.824219" xlink:href="#p"/><use x="128.759766" xlink:href="#n"/><use x="190.283203" xlink:href="#o"/><use x="253.759766" xlink:href="#v"/><use x="312.939453" xlink:href="#t"/><use x="378.320312" xlink:href="#k"/><use x="439.501953" xlink:href="#p"/><use x="498.4375" xlink:href="#s"/><use x="577.392578" xlink:href="#n"/><use x="638.916016" xlink:href="#ar"/><use x="670.703125" xlink:href="#DejaVuSans-20"/><use x="702.490234" xlink:href="#k"/><use x="763.671875" xlink:href="#ae"/><use x="825.341797" xlink:href="#t"/><use x="890.722656" xlink:href="#q"/><use x="952.001953" xlink:href="#o"/><use x="1015.478516" xlink:href="#aj"/><use x="1074.658203" xlink:href="#am"/><use x="1164.746094" xlink:href="#n"/><use x="1226.269531" xlink:href="#t"/><use x="1291.650391" xlink:href="#t"/><use x="1357.03125" xlink:href="#s"/><use x="1435.986328" xlink:href="#n"/><use x="1497.509766" xlink:href="#DejaVuSans-20"/><use x="1529.296875" xlink:href="#z"/><use x="1593.212891" xlink:href="#ah"/><use x="1677.392578" xlink:href="#ae"/><use x="1739.0625" xlink:href="#u"/><use x="1804.052734" xlink:href="#m"/><use x="1862.304688" xlink:href="#n"/><use x="1923.828125" xlink:href="#z"/><use x="1987.744141" xlink:href="#ag"/><use x="2047.900391" xlink:href="#ac"/><use x="2123.339844" xlink:href="#u"/></g><defs><clipPath id="b"><rect x="69.12" y="29.16" width="1048.3" height="579.96"/></clipPath></defs></svg>
