<?xml version="1.0" encoding="UTF-8"?>
<!DOCTYPE svg  PUBLIC '-//W3C//DTD SVG 1.1//EN'  'http://www.w3.org/Graphics/SVG/1.1/DTD/svg11.dtd'>
<svg width="1152pt" height="648pt" version="1.1" viewBox="0 0 1152 648" xmlns="http://www.w3.org/2000/svg" xmlns:xlink="http://www.w3.org/1999/xlink"><defs><style type="text/css">*{stroke-linejoin: round; stroke-linecap: butt}</style></defs><path d="m0 648h1152v-648h-1152z" fill="#fff"/><path d="m69.12 609.12h1048.3v-579.96h-1048.3z" fill="#fff"/><path d="m96.977 609.12v-579.96" clip-path="url(#a)" fill="none" stroke="#b0b0b0" stroke-dasharray="0.8,1.32" stroke-width=".8"/><defs><path id="e" d="m0 0v3.5" stroke="#000" stroke-width=".8"/></defs><use x="96.976605" y="609.12" stroke="#000000" stroke-width=".8" xlink:href="#e"/><g transform="translate(84.252 623.72) scale(.1 -.1)"><defs><path id="f" transform="scale(.015625)" d="m794 531h1031v3560l-1122-225v575l1116 225h631v-4135h1031v-531h-2687v531z"/><path id="h" transform="scale(.015625)" d="m703 97v575q238-113 481-172 244-59 479-59 625 0 954 420 330 420 377 1277-181-269-460-413-278-144-615-144-700 0-1108 423-408 424-408 1159 0 718 425 1152 425 435 1131 435 810 0 1236-621 427-620 427-1801 0-1103-524-1761-523-658-1407-658-238 0-482 47-243 47-506 141zm1256 1978q425 0 673 290 249 291 249 798 0 503-249 795-248 292-673 292t-673-292-248-795q0-507 248-798 248-290 673-290z"/><path id="y" transform="scale(.015625)" d="m2113 2584q-425 0-674-291-248-290-248-796 0-503 248-796 249-292 674-292t673 292q248 293 248 796 0 506-248 796-248 291-673 291zm1253 1979v-575q-238 112-480 171-242 60-480 60-625 0-955-422-329-422-376-1275 184 272 462 417 279 145 613 145 703 0 1111-427 408-426 408-1160 0-719-425-1154-425-434-1131-434-810 0-1238 620-428 621-428 1799 0 1106 525 1764t1409 658q238 0 480-47t505-140z"/></defs><use xlink:href="#f"/><use x="63.623047" xlink:href="#h"/><use x="127.246094" xlink:href="#h"/><use x="190.869141" xlink:href="#y"/></g><path d="m134.05 609.12v-579.96" clip-path="url(#a)" fill="none" stroke="#b0b0b0" stroke-dasharray="0.8,1.32" stroke-width=".8"/><use x="134.051213" y="609.12" stroke="#000000" stroke-width=".8" xlink:href="#e"/><g transform="translate(121.33 623.72) scale(.1 -.1)"><defs><path id="x" transform="scale(.015625)" d="m525 4666h3e3v-269l-1694-4397h-659l1594 4134h-2241v532z"/></defs><use xlink:href="#f"/><use x="63.623047" xlink:href="#h"/><use x="127.246094" xlink:href="#h"/><use x="190.869141" xlink:href="#x"/></g><path d="m171.02 609.12v-579.96" clip-path="url(#a)" fill="none" stroke="#b0b0b0" stroke-dasharray="0.8,1.32" stroke-width=".8"/><use x="171.024524" y="609.12" stroke="#000000" stroke-width=".8" xlink:href="#e"/><g transform="translate(158.3 623.72) scale(.1 -.1)"><defs><path id="w" transform="scale(.015625)" d="m2034 2216q-450 0-708-241-257-241-257-662 0-422 257-663 258-241 708-241t709 242q260 243 260 662 0 421-258 662-257 241-711 241zm-631 268q-406 100-633 378-226 279-226 679 0 559 398 884 399 325 1092 325 697 0 1094-325t397-884q0-400-227-679-226-278-629-378 456-106 710-416 255-309 255-755 0-679-414-1042-414-362-1186-362-771 0-1186 362-414 363-414 1042 0 446 256 755 257 310 713 416zm-231 997q0-362 226-565 227-203 636-203 407 0 636 203 230 203 230 565 0 363-230 566-229 203-636 203-409 0-636-203-226-203-226-566z"/></defs><use xlink:href="#f"/><use x="63.623047" xlink:href="#h"/><use x="127.246094" xlink:href="#h"/><use x="190.869141" xlink:href="#w"/></g><path d="m208 609.12v-579.96" clip-path="url(#a)" fill="none" stroke="#b0b0b0" stroke-dasharray="0.8,1.32" stroke-width=".8"/><use x="207.997836" y="609.12" stroke="#000000" stroke-width=".8" xlink:href="#e"/><g transform="translate(195.27 623.72) scale(.1 -.1)"><use xlink:href="#f"/><use x="63.623047" xlink:href="#h"/><use x="127.246094" xlink:href="#h"/><use x="190.869141" xlink:href="#h"/></g><path d="m244.97 609.12v-579.96" clip-path="url(#a)" fill="none" stroke="#b0b0b0" stroke-dasharray="0.8,1.32" stroke-width=".8"/><use x="244.971147" y="609.12" stroke="#000000" stroke-width=".8" xlink:href="#e"/><g transform="translate(232.25 623.72) scale(.1 -.1)"><defs><path id="c" transform="scale(.015625)" d="m1228 531h2203v-531h-2962v531q359 372 979 998 621 627 780 809 303 340 423 576 121 236 121 464 0 372-261 606-261 235-680 235-297 0-627-103-329-103-704-313v638q381 153 712 231 332 78 607 78 725 0 1156-363 431-362 431-968 0-288-108-546-107-257-392-607-78-91-497-524-418-433-1181-1211z"/><path id="b" transform="scale(.015625)" d="m2034 4250q-487 0-733-480-245-479-245-1442 0-959 245-1439 246-480 733-480 491 0 736 480 246 480 246 1439 0 963-246 1442-245 480-736 480zm0 500q785 0 1199-621 414-620 414-1801 0-1178-414-1799-414-620-1199-620-784 0-1198 620-414 621-414 1799 0 1181 414 1801 414 621 1198 621z"/></defs><use xlink:href="#c"/><use x="63.623047" xlink:href="#b"/><use x="127.246094" xlink:href="#b"/><use x="190.869141" xlink:href="#b"/></g><path d="m282.05 609.12v-579.96" clip-path="url(#a)" fill="none" stroke="#b0b0b0" stroke-dasharray="0.8,1.32" stroke-width=".8"/><use x="282.045755" y="609.12" stroke="#000000" stroke-width=".8" xlink:href="#e"/><g transform="translate(269.32 623.72) scale(.1 -.1)"><use xlink:href="#c"/><use x="63.623047" xlink:href="#b"/><use x="127.246094" xlink:href="#b"/><use x="190.869141" xlink:href="#f"/></g><path d="m319.02 609.12v-579.96" clip-path="url(#a)" fill="none" stroke="#b0b0b0" stroke-dasharray="0.8,1.32" stroke-width=".8"/><use x="319.019067" y="609.12" stroke="#000000" stroke-width=".8" xlink:href="#e"/><g transform="translate(306.29 623.72) scale(.1 -.1)"><use xlink:href="#c"/><use x="63.623047" xlink:href="#b"/><use x="127.246094" xlink:href="#b"/><use x="190.869141" xlink:href="#c"/></g><path d="m355.99 609.12v-579.96" clip-path="url(#a)" fill="none" stroke="#b0b0b0" stroke-dasharray="0.8,1.32" stroke-width=".8"/><use x="355.992378" y="609.12" stroke="#000000" stroke-width=".8" xlink:href="#e"/><g transform="translate(343.27 623.72) scale(.1 -.1)"><defs><path id="o" transform="scale(.015625)" d="m2597 2516q453-97 707-404 255-306 255-756 0-690-475-1069-475-378-1350-378-293 0-604 58t-642 174v609q262-153 574-231 313-78 654-78 593 0 904 234t311 681q0 413-289 645-289 233-804 233h-544v519h569q465 0 712 186t247 536q0 359-255 551-254 193-729 193-260 0-557-57-297-56-653-174v562q360 100 674 150t592 50q719 0 1137-327 419-326 419-882 0-388-222-655t-631-370z"/></defs><use xlink:href="#c"/><use x="63.623047" xlink:href="#b"/><use x="127.246094" xlink:href="#b"/><use x="190.869141" xlink:href="#o"/></g><path d="m392.97 609.12v-579.96" clip-path="url(#a)" fill="none" stroke="#b0b0b0" stroke-dasharray="0.8,1.32" stroke-width=".8"/><use x="392.965689" y="609.12" stroke="#000000" stroke-width=".8" xlink:href="#e"/><g transform="translate(380.24 623.72) scale(.1 -.1)"><defs><path id="aa" transform="scale(.015625)" d="m2419 4116-1594-2491h1594v2491zm-166 550h794v-3041h666v-525h-666v-1100h-628v1100h-2106v609l1940 2957z"/></defs><use xlink:href="#c"/><use x="63.623047" xlink:href="#b"/><use x="127.246094" xlink:href="#b"/><use x="190.869141" xlink:href="#aa"/></g><path d="m430.04 609.12v-579.96" clip-path="url(#a)" fill="none" stroke="#b0b0b0" stroke-dasharray="0.8,1.32" stroke-width=".8"/><use x="430.040298" y="609.12" stroke="#000000" stroke-width=".8" xlink:href="#e"/><g transform="translate(417.32 623.72) scale(.1 -.1)"><defs><path id="z" transform="scale(.015625)" d="m691 4666h2478v-532h-1900v-1143q137 47 274 70 138 23 276 23 781 0 1237-428 457-428 457-1159 0-753-469-1171-469-417-1322-417-294 0-599 50-304 50-629 150v635q281-153 581-228t634-75q541 0 856 284 316 284 316 772 0 487-316 771-315 285-856 285-253 0-505-56-251-56-513-175v2344z"/></defs><use xlink:href="#c"/><use x="63.623047" xlink:href="#b"/><use x="127.246094" xlink:href="#b"/><use x="190.869141" xlink:href="#z"/></g><path d="m467.01 609.12v-579.96" clip-path="url(#a)" fill="none" stroke="#b0b0b0" stroke-dasharray="0.8,1.32" stroke-width=".8"/><use x="467.013609" y="609.12" stroke="#000000" stroke-width=".8" xlink:href="#e"/><g transform="translate(454.29 623.72) scale(.1 -.1)"><use xlink:href="#c"/><use x="63.623047" xlink:href="#b"/><use x="127.246094" xlink:href="#b"/><use x="190.869141" xlink:href="#y"/></g><path d="m503.99 609.12v-579.96" clip-path="url(#a)" fill="none" stroke="#b0b0b0" stroke-dasharray="0.8,1.32" stroke-width=".8"/><use x="503.98692" y="609.12" stroke="#000000" stroke-width=".8" xlink:href="#e"/><g transform="translate(491.26 623.72) scale(.1 -.1)"><use xlink:href="#c"/><use x="63.623047" xlink:href="#b"/><use x="127.246094" xlink:href="#b"/><use x="190.869141" xlink:href="#x"/></g><path d="m540.96 609.12v-579.96" clip-path="url(#a)" fill="none" stroke="#b0b0b0" stroke-dasharray="0.8,1.32" stroke-width=".8"/><use x="540.960232" y="609.12" stroke="#000000" stroke-width=".8" xlink:href="#e"/><g transform="translate(528.24 623.72) scale(.1 -.1)"><use xlink:href="#c"/><use x="63.623047" xlink:href="#b"/><use x="127.246094" xlink:href="#b"/><use x="190.869141" xlink:href="#w"/></g><path d="m578.03 609.12v-579.96" clip-path="url(#a)" fill="none" stroke="#b0b0b0" stroke-dasharray="0.8,1.32" stroke-width=".8"/><use x="578.03484" y="609.12" stroke="#000000" stroke-width=".8" xlink:href="#e"/><g transform="translate(565.31 623.72) scale(.1 -.1)"><use xlink:href="#c"/><use x="63.623047" xlink:href="#b"/><use x="127.246094" xlink:href="#b"/><use x="190.869141" xlink:href="#h"/></g><path d="m615.01 609.12v-579.96" clip-path="url(#a)" fill="none" stroke="#b0b0b0" stroke-dasharray="0.8,1.32" stroke-width=".8"/><use x="615.008152" y="609.12" stroke="#000000" stroke-width=".8" xlink:href="#e"/><g transform="translate(602.28 623.72) scale(.1 -.1)"><use xlink:href="#c"/><use x="63.623047" xlink:href="#b"/><use x="127.246094" xlink:href="#f"/><use x="190.869141" xlink:href="#b"/></g><path d="m651.98 609.12v-579.96" clip-path="url(#a)" fill="none" stroke="#b0b0b0" stroke-dasharray="0.8,1.32" stroke-width=".8"/><use x="651.981463" y="609.12" stroke="#000000" stroke-width=".8" xlink:href="#e"/><g transform="translate(639.26 623.72) scale(.1 -.1)"><use xlink:href="#c"/><use x="63.623047" xlink:href="#b"/><use x="127.246094" xlink:href="#f"/><use x="190.869141" xlink:href="#f"/></g><path d="m688.95 609.12v-579.96" clip-path="url(#a)" fill="none" stroke="#b0b0b0" stroke-dasharray="0.8,1.32" stroke-width=".8"/><use x="688.954774" y="609.12" stroke="#000000" stroke-width=".8" xlink:href="#e"/><g transform="translate(676.23 623.72) scale(.1 -.1)"><use xlink:href="#c"/><use x="63.623047" xlink:href="#b"/><use x="127.246094" xlink:href="#f"/><use x="190.869141" xlink:href="#c"/></g><path d="m726.03 609.12v-579.96" clip-path="url(#a)" fill="none" stroke="#b0b0b0" stroke-dasharray="0.8,1.32" stroke-width=".8"/><use x="726.029383" y="609.12" stroke="#000000" stroke-width=".8" xlink:href="#e"/><g transform="translate(713.3 623.72) scale(.1 -.1)"><use xlink:href="#c"/><use x="63.623047" xlink:href="#b"/><use x="127.246094" xlink:href="#f"/><use x="190.869141" xlink:href="#o"/></g><path d="m763 609.12v-579.96" clip-path="url(#a)" fill="none" stroke="#b0b0b0" stroke-dasharray="0.8,1.32" stroke-width=".8"/><use x="763.002694" y="609.12" stroke="#000000" stroke-width=".8" xlink:href="#e"/><g transform="translate(750.28 623.72) scale(.1 -.1)"><use xlink:href="#c"/><use x="63.623047" xlink:href="#b"/><use x="127.246094" xlink:href="#f"/><use x="190.869141" xlink:href="#aa"/></g><path d="m799.98 609.12v-579.96" clip-path="url(#a)" fill="none" stroke="#b0b0b0" stroke-dasharray="0.8,1.32" stroke-width=".8"/><use x="799.976005" y="609.12" stroke="#000000" stroke-width=".8" xlink:href="#e"/><g transform="translate(787.25 623.72) scale(.1 -.1)"><use xlink:href="#c"/><use x="63.623047" xlink:href="#b"/><use x="127.246094" xlink:href="#f"/><use x="190.869141" xlink:href="#z"/></g><path d="m836.95 609.12v-579.96" clip-path="url(#a)" fill="none" stroke="#b0b0b0" stroke-dasharray="0.8,1.32" stroke-width=".8"/><use x="836.949317" y="609.12" stroke="#000000" stroke-width=".8" xlink:href="#e"/><g transform="translate(824.22 623.72) scale(.1 -.1)"><use xlink:href="#c"/><use x="63.623047" xlink:href="#b"/><use x="127.246094" xlink:href="#f"/><use x="190.869141" xlink:href="#y"/></g><path d="m874.02 609.12v-579.96" clip-path="url(#a)" fill="none" stroke="#b0b0b0" stroke-dasharray="0.8,1.32" stroke-width=".8"/><use x="874.023925" y="609.12" stroke="#000000" stroke-width=".8" xlink:href="#e"/><g transform="translate(861.3 623.72) scale(.1 -.1)"><use xlink:href="#c"/><use x="63.623047" xlink:href="#b"/><use x="127.246094" xlink:href="#f"/><use x="190.869141" xlink:href="#x"/></g><path d="m911 609.12v-579.96" clip-path="url(#a)" fill="none" stroke="#b0b0b0" stroke-dasharray="0.8,1.32" stroke-width=".8"/><use x="910.997236" y="609.12" stroke="#000000" stroke-width=".8" xlink:href="#e"/><g transform="translate(898.27 623.72) scale(.1 -.1)"><use xlink:href="#c"/><use x="63.623047" xlink:href="#b"/><use x="127.246094" xlink:href="#f"/><use x="190.869141" xlink:href="#w"/></g><path d="m947.97 609.12v-579.96" clip-path="url(#a)" fill="none" stroke="#b0b0b0" stroke-dasharray="0.8,1.32" stroke-width=".8"/><use x="947.970548" y="609.12" stroke="#000000" stroke-width=".8" xlink:href="#e"/><g transform="translate(935.25 623.72) scale(.1 -.1)"><use xlink:href="#c"/><use x="63.623047" xlink:href="#b"/><use x="127.246094" xlink:href="#f"/><use x="190.869141" xlink:href="#h"/></g><path d="m984.94 609.12v-579.96" clip-path="url(#a)" fill="none" stroke="#b0b0b0" stroke-dasharray="0.8,1.32" stroke-width=".8"/><use x="984.943859" y="609.12" stroke="#000000" stroke-width=".8" xlink:href="#e"/><g transform="translate(972.22 623.72) scale(.1 -.1)"><use xlink:href="#c"/><use x="63.623047" xlink:href="#b"/><use x="127.246094" xlink:href="#c"/><use x="190.869141" xlink:href="#b"/></g><path d="m1022 609.12v-579.96" clip-path="url(#a)" fill="none" stroke="#b0b0b0" stroke-dasharray="0.8,1.32" stroke-width=".8"/><use x="1022.018467" y="609.12" stroke="#000000" stroke-width=".8" xlink:href="#e"/><g transform="translate(1009.3 623.72) scale(.1 -.1)"><use xlink:href="#c"/><use x="63.623047" xlink:href="#b"/><use x="127.246094" xlink:href="#c"/><use x="190.869141" xlink:href="#f"/></g><path d="m1059 609.12v-579.96" clip-path="url(#a)" fill="none" stroke="#b0b0b0" stroke-dasharray="0.8,1.32" stroke-width=".8"/><use x="1058.991779" y="609.12" stroke="#000000" stroke-width=".8" xlink:href="#e"/><g transform="translate(1046.3 623.72) scale(.1 -.1)"><use xlink:href="#c"/><use x="63.623047" xlink:href="#b"/><use x="127.246094" xlink:href="#c"/><use x="190.869141" xlink:href="#c"/></g><path d="m1096 609.12v-579.96" clip-path="url(#a)" fill="none" stroke="#b0b0b0" stroke-dasharray="0.8,1.32" stroke-width=".8"/><use x="1095.96509" y="609.12" stroke="#000000" stroke-width=".8" xlink:href="#e"/><g transform="translate(1083.2 623.72) scale(.1 -.1)"><use xlink:href="#c"/><use x="63.623047" xlink:href="#b"/><use x="127.246094" xlink:href="#c"/><use x="190.869141" xlink:href="#o"/></g><g transform="translate(570.23 640.44) scale(.14 -.14)"><defs><path id="al" transform="scale(.015625)" d="m1259 2228v-1709h1013q509 0 754 211 246 211 246 645 0 438-246 645-245 208-754 208h-1013zm0 1919v-1406h935q462 0 688 173 227 174 227 530 0 353-227 528-226 175-688 175h-935zm-631 519h1613q722 0 1112-300 391-300 391-853 0-429-200-682t-588-315q466-100 724-418 258-317 258-792 0-625-425-966-425-340-1210-340h-1675v4666z"/><path id="m" transform="scale(.015625)" d="m1159 525v-1856h-578v4831h578v-531q182 312 458 463 277 152 661 152 638 0 1036-506 399-506 399-1331t-399-1332q-398-506-1036-506-384 0-661 152-276 152-458 464zm1957 1222q0 634-261 995t-717 361q-457 0-718-361t-261-995 261-995 718-361q456 0 717 361t261 995z"/><path id="q" transform="scale(.015625)" d="m3597 1894v-281h-2644q38-594 358-905t892-311q331 0 642 81t618 244v-544q-310-131-635-200t-659-69q-838 0-1327 487-489 488-489 1320 0 859 464 1363 464 505 1252 505 706 0 1117-455 411-454 411-1235zm-575 169q-6 471-264 752-258 282-683 282-481 0-770-272t-333-766l2050 4z"/><path id="ab" transform="scale(.015625)" d="m581 3500h841l994-2344 997 2344h834v-3500h-578v2950l-966-2278h-575l-969 2278v-2950h-578v3500z"/><path id="ad" transform="scale(.015625)" d="m1181 2491q0-260 200-407 200-146 572-146h775v1103h-775q-372 0-572-144t-200-406zm-818-2491 1068 1534q-362 82-603 296-240 214-240 661 0 506 335 757 336 252 1015 252h1368v-3500h-578v1478h-715l-1032-1478h-618z"/></defs><use xlink:href="#al"/><use x="68.603516" xlink:href="#m"/><use x="132.080078" xlink:href="#q"/><use x="193.603516" xlink:href="#ab"/><use x="269.042969" xlink:href="#ad"/></g><path d="m69.12 594.07h1048.3" clip-path="url(#a)" fill="none" stroke="#b0b0b0" stroke-linecap="square" stroke-width=".8"/><defs><path id="s" d="m0 0h-3.5" stroke="#000" stroke-width=".8"/></defs><use x="69.12" y="594.069391" stroke="#000000" stroke-width=".8" xlink:href="#s"/><g transform="translate(44.52 597.87) scale(.1 -.1)"><use transform="translate(0 .76562)" xlink:href="#f"/><use transform="translate(63.623 .76562)" xlink:href="#b"/><use transform="translate(128.2 39.047) scale(.7)" xlink:href="#o"/></g><path d="m69.12 335.56h1048.3" clip-path="url(#a)" fill="none" stroke="#b0b0b0" stroke-linecap="square" stroke-width=".8"/><use x="69.12" y="335.557763" stroke="#000000" stroke-width=".8" xlink:href="#s"/><g transform="translate(44.52 339.36) scale(.1 -.1)"><use transform="translate(0 .68438)" xlink:href="#f"/><use transform="translate(63.623 .68438)" xlink:href="#b"/><use transform="translate(128.2 38.966) scale(.7)" xlink:href="#aa"/></g><path d="m69.12 77.046h1048.3" clip-path="url(#a)" fill="none" stroke="#b0b0b0" stroke-linecap="square" stroke-width=".8"/><use x="69.12" y="77.046136" stroke="#000000" stroke-width=".8" xlink:href="#s"/><g transform="translate(44.52 80.845) scale(.1 -.1)"><use transform="translate(0 .68438)" xlink:href="#f"/><use transform="translate(63.623 .68438)" xlink:href="#b"/><use transform="translate(128.2 38.966) scale(.7)" xlink:href="#z"/></g><path d="m69.12 605.9h1048.3" clip-path="url(#a)" fill="none" stroke="#b0b0b0" stroke-dasharray="2.96,1.28" stroke-width=".8"/><defs><path id="g" d="m0 0h-2" stroke="#000" stroke-width=".6"/></defs><use x="69.12" y="605.898234" stroke="#000000" stroke-width=".6" xlink:href="#g"/><path d="m69.12 516.25h1048.3" clip-path="url(#a)" fill="none" stroke="#b0b0b0" stroke-dasharray="2.96,1.28" stroke-width=".8"/><use x="69.12" y="516.249637" stroke="#000000" stroke-width=".6" xlink:href="#g"/><path d="m69.12 470.73h1048.3" clip-path="url(#a)" fill="none" stroke="#b0b0b0" stroke-dasharray="2.96,1.28" stroke-width=".8"/><use x="69.12" y="470.727999" stroke="#000000" stroke-width=".6" xlink:href="#g"/><path d="m69.12 438.43h1048.3" clip-path="url(#a)" fill="none" stroke="#b0b0b0" stroke-dasharray="2.96,1.28" stroke-width=".8"/><use x="69.12" y="438.429883" stroke="#000000" stroke-width=".6" xlink:href="#g"/><path d="m69.12 413.38h1048.3" clip-path="url(#a)" fill="none" stroke="#b0b0b0" stroke-dasharray="2.96,1.28" stroke-width=".8"/><use x="69.12" y="413.377517" stroke="#000000" stroke-width=".6" xlink:href="#g"/><path d="m69.12 392.91h1048.3" clip-path="url(#a)" fill="none" stroke="#b0b0b0" stroke-dasharray="2.96,1.28" stroke-width=".8"/><use x="69.12" y="392.908245" stroke="#000000" stroke-width=".6" xlink:href="#g"/><path d="m69.12 375.6h1048.3" clip-path="url(#a)" fill="none" stroke="#b0b0b0" stroke-dasharray="2.96,1.28" stroke-width=".8"/><use x="69.12" y="375.601721" stroke="#000000" stroke-width=".6" xlink:href="#g"/><path d="m69.12 360.61h1048.3" clip-path="url(#a)" fill="none" stroke="#b0b0b0" stroke-dasharray="2.96,1.28" stroke-width=".8"/><use x="69.12" y="360.610128" stroke="#000000" stroke-width=".6" xlink:href="#g"/><path d="m69.12 347.39h1048.3" clip-path="url(#a)" fill="none" stroke="#b0b0b0" stroke-dasharray="2.96,1.28" stroke-width=".8"/><use x="69.12" y="347.386607" stroke="#000000" stroke-width=".6" xlink:href="#g"/><path d="m69.12 257.74h1048.3" clip-path="url(#a)" fill="none" stroke="#b0b0b0" stroke-dasharray="2.96,1.28" stroke-width=".8"/><use x="69.12" y="257.738009" stroke="#000000" stroke-width=".6" xlink:href="#g"/><path d="m69.12 212.22h1048.3" clip-path="url(#a)" fill="none" stroke="#b0b0b0" stroke-dasharray="2.96,1.28" stroke-width=".8"/><use x="69.12" y="212.216371" stroke="#000000" stroke-width=".6" xlink:href="#g"/><path d="m69.12 179.92h1048.3" clip-path="url(#a)" fill="none" stroke="#b0b0b0" stroke-dasharray="2.96,1.28" stroke-width=".8"/><use x="69.12" y="179.918255" stroke="#000000" stroke-width=".6" xlink:href="#g"/><path d="m69.12 154.87h1048.3" clip-path="url(#a)" fill="none" stroke="#b0b0b0" stroke-dasharray="2.96,1.28" stroke-width=".8"/><use x="69.12" y="154.86589" stroke="#000000" stroke-width=".6" xlink:href="#g"/><path d="m69.12 134.4h1048.3" clip-path="url(#a)" fill="none" stroke="#b0b0b0" stroke-dasharray="2.96,1.28" stroke-width=".8"/><use x="69.12" y="134.396617" stroke="#000000" stroke-width=".6" xlink:href="#g"/><path d="m69.12 117.09h1048.3" clip-path="url(#a)" fill="none" stroke="#b0b0b0" stroke-dasharray="2.96,1.28" stroke-width=".8"/><use x="69.12" y="117.090093" stroke="#000000" stroke-width=".6" xlink:href="#g"/><path d="m69.12 102.1h1048.3" clip-path="url(#a)" fill="none" stroke="#b0b0b0" stroke-dasharray="2.96,1.28" stroke-width=".8"/><use x="69.12" y="102.098501" stroke="#000000" stroke-width=".6" xlink:href="#g"/><path d="m69.12 88.875h1048.3" clip-path="url(#a)" fill="none" stroke="#b0b0b0" stroke-dasharray="2.96,1.28" stroke-width=".8"/><use x="69.12" y="88.874979" stroke="#000000" stroke-width=".6" xlink:href="#g"/><g transform="translate(37.608 446.47) rotate(-90) scale(.14 -.14)"><defs><path id="aj" transform="scale(.015625)" d="m628 4666h631v-2307l2257 2307h809l-1803-1844 1897-2822h-688l-1618 2403-854-872v-1531h-631v4666z"/><path id="i" transform="scale(.015625)" d="m1959 3097q-462 0-731-361t-269-989 267-989q268-361 733-361 460 0 728 362 269 363 269 988 0 622-269 986-268 364-728 364zm0 487q750 0 1178-488 429-487 429-1349 0-859-429-1349-428-489-1178-489-753 0-1180 489-426 490-426 1349 0 862 426 1349 427 488 1180 488z"/><path id="af" transform="scale(.015625)" d="m238 0v478q568 88 743 481 213 554 213 1969v572h2365v-3500h-575v3041h-1215v-347q0-1350-275-1956-294-647-1256-738z"/><path id="p" transform="scale(.015625)" d="m3578 3500v-3500h-572v2809l-1687-2809h-738v3500h572v-2803l1685 2803h740z"/><path id="ae" transform="scale(.015625)" d="m2625 0v1472h-1072q-478 0-797 297-287 269-287 844v887h575v-834q0-366 162-550 166-185 491-185h928v1569h575v-3500h-575z"/><path id="t" transform="scale(.015625)" d="m3122 3366v-538q-244 135-489 202t-495 67q-560 0-870-355-309-354-309-995t309-996q310-354 870-354 250 0 495 67t489 202v-532q-241-112-499-168-257-57-548-57-791 0-1257 497-465 497-465 1341 0 856 470 1346 471 491 1290 491 265 0 518-55 253-54 491-163z"/><path id="l" transform="scale(.015625)" d="m188 3500h3353v-459h-1394v-3041h-566v3041h-1393v459z"/><path id="n" transform="scale(.015625)" d="m1156 1613v-1154h819q394 0 600 148 206 149 206 431 0 281-206 428t-600 147h-819zm0 1428v-969h757q325 0 531 129 206 130 206 362 0 231-206 354-206 124-531 124h-757zm-575 459h1369q616 0 947-225t331-641q0-321-169-511-168-189-500-235 397-75 616-313 219-237 219-594 0-468-361-725-361-256-1030-256h-1422v3500z"/><path id="v" transform="scale(.015625)" d="m581 3500h572v-1644l1622 1644h706l-1337-1353 1509-2147h-644l-1240 1766-616-625v-1141h-572v3500z"/><path id="j" transform="scale(.015625)" d="m3907 3500h575v-3500h-575v3500zm288 84zm-1414-2546q0 281-205 428-204 147-598 147h-819v-1154h819q394 0 598 148 205 149 205 431zm-2200 2462h578v-1428h844q669 0 1030-255 361-254 361-779t-361-782q-361-256-1030-256h-1422v3500z"/><path id="k" transform="scale(.015625)" d="m3513 3500-1266-1703 1331-1797h-678l-1019 1375-1018-1375h-679l1360 1831-1244 1669h678l928-1247 928 1247h679z"/><path id="u" transform="scale(.015625)" d="m581 3500h578v-1428h1866v1428h578v-3500h-578v1613h-1866v-1613h-578v3500z"/></defs><use xlink:href="#aj"/><use x="70.996094" xlink:href="#i"/><use x="132.177734" xlink:href="#af"/><use x="196.09375" xlink:href="#p"/><use x="261.083984" xlink:href="#ae"/><use x="320.166016" xlink:href="#q"/><use x="381.689453" xlink:href="#t"/><use x="436.669922" xlink:href="#l"/><use x="494.921875" xlink:href="#n"/><use x="553.857422" xlink:href="#i"/><use x="615.039062" xlink:href="#DejaVuSans-20"/><use x="646.826172" xlink:href="#i"/><use x="708.007812" xlink:href="#l"/><use x="766.259766" xlink:href="#v"/><use x="826.660156" xlink:href="#m"/><use x="890.136719" xlink:href="#j"/><use x="969.091797" xlink:href="#l"/><use x="1027.34375" xlink:href="#j"/><use x="1106.298828" xlink:href="#k"/><use x="1165.478516" xlink:href="#DejaVuSans-20"/><use x="1197.265625" xlink:href="#t"/><use x="1252.246094" xlink:href="#n"/><use x="1311.181641" xlink:href="#q"/><use x="1372.705078" xlink:href="#m"/><use x="1436.181641" xlink:href="#k"/><use x="1495.361328" xlink:href="#u"/><use x="1560.742188" xlink:href="#i"/><use x="1621.923828" xlink:href="#n"/><use x="1680.859375" xlink:href="#j"/><use x="1759.814453" xlink:href="#k"/></g><path d="m96.977 582.76 37.075-9.8111 36.973-14.222 36.973-12.548 36.973-13.905 37.075-12.023 36.973-16.623 36.973-16.4 36.973-15.181 37.075-12.29 36.973-12.33 36.973-15.776 36.973-14.945 37.075-11.154 36.973-11.136 36.973-10.666 36.973-14.674 37.075-15.007 36.973-18.903 36.973-20.618 36.973-28.763 37.075-43.194 36.973-32.971 36.973-25.919 36.973-39.218 37.075-33.969 36.973-28.071 36.973-20.786 14.26-6.1353" clip-path="url(#a)" fill="none" stroke="#000" stroke-linecap="square" stroke-width="1.5"/><defs><path id="d" d="m0 3c0.79561 0 1.5587-0.3161 2.1213-0.87868 0.56258-0.56258 0.87868-1.3257 0.87868-2.1213s-0.3161-1.5587-0.87868-2.1213c-0.56258-0.56258-1.3257-0.87868-2.1213-0.87868s-1.5587 0.3161-2.1213 0.87868c-0.56258 0.56258-0.87868 1.3257-0.87868 2.1213s0.3161 1.5587 0.87868 2.1213c0.56258 0.56258 1.3257 0.87868 2.1213 0.87868z" stroke="#000"/></defs><g clip-path="url(#a)" stroke="#000000"><use x="96.976605" y="582.758182" xlink:href="#d"/><use x="134.051213" y="572.947112" xlink:href="#d"/><use x="171.024524" y="558.725535" xlink:href="#d"/><use x="207.997836" y="546.177846" xlink:href="#d"/><use x="244.971147" y="532.272421" xlink:href="#d"/><use x="282.045755" y="520.249506" xlink:href="#d"/><use x="319.019067" y="503.626492" xlink:href="#d"/><use x="355.992378" y="487.226596" xlink:href="#d"/><use x="392.965689" y="472.045518" xlink:href="#d"/><use x="430.040298" y="459.755668" xlink:href="#d"/><use x="467.013609" y="447.425648" xlink:href="#d"/><use x="503.98692" y="431.649965" xlink:href="#d"/><use x="540.960232" y="416.704622" xlink:href="#d"/><use x="578.03484" y="405.55087" xlink:href="#d"/><use x="615.008152" y="394.415249" xlink:href="#d"/><use x="651.981463" y="383.749245" xlink:href="#d"/><use x="688.954774" y="369.074992" xlink:href="#d"/><use x="726.029383" y="354.068268" xlink:href="#d"/><use x="763.002694" y="335.165504" xlink:href="#d"/><use x="799.976005" y="314.547158" xlink:href="#d"/><use x="836.949317" y="285.784044" xlink:href="#d"/><use x="874.023925" y="242.590049" xlink:href="#d"/><use x="910.997236" y="209.619515" xlink:href="#d"/><use x="947.970548" y="183.700195" xlink:href="#d"/><use x="984.943859" y="144.482244" xlink:href="#d"/><use x="1022.018467" y="110.513438" xlink:href="#d"/><use x="1058.991779" y="82.442618" xlink:href="#d"/><use x="1095.96509" y="61.657109" xlink:href="#d"/><use x="1110.225253" y="55.521818" xlink:href="#d"/></g><path d="m69.12 609.12v-579.96" fill="none" stroke="#000" stroke-linecap="square" stroke-width=".8"/><path d="m1117.4 609.12v-579.96" fill="none" stroke="#000" stroke-linecap="square" stroke-width=".8"/><path d="m69.12 609.12h1048.3" fill="none" stroke="#000" stroke-linecap="square" stroke-width=".8"/><path d="m69.12 29.16h1048.3" fill="none" stroke="#000" stroke-linecap="square" stroke-width=".8"/><g transform="translate(388 23.16) scale(.16 -.16)"><defs><path id="ak" transform="scale(.015625)" d="m1459 531h2063v3603h-1516v-662q0-1559-350-2594-72-212-197-347zm-921 0q418 197 537 572 303 963 303 2681v882h2775v-4135h531v-1534h-531v1003h-3306v-1003h-531v1534h222z"/><path id="r" transform="scale(.015625)" d="m2194 1759q-697 0-966-159t-269-544q0-306 202-486 202-179 548-179 479 0 768 339t289 901v128h-572zm1147 238v-1997h-575v531q-197-318-491-470t-719-152q-537 0-855 302-317 302-317 808 0 590 395 890 396 300 1180 300h807v57q0 397-261 614t-733 217q-300 0-585-72-284-72-546-216v532q315 122 612 182 297 61 578 61 760 0 1135-394 375-393 375-1193z"/><path id="ac" transform="scale(.015625)" d="m3578 3500v-3500h-572v2809l-1687-2809h-738v3500h572v-2803l1685 2803h740zm-2476 1333h369q34-234 185-352 152-117 424-117 269 0 419 116t190 353h369q-31-447-278-672t-700-225-700 225-278 672z"/><path id="am" transform="scale(.015625)" d="m684 794h660v-794h-660v794z"/><path id="ai" transform="scale(.015625)" d="m628 4666h941l1190-3175 1197 3175h941v-4666h-616v4097l-1203-3200h-634l-1203 3200v-4097h-613v4666z"/><path id="ah" transform="scale(.015625)" d="m581 0v3500h2469v-459h-1891v-3041h-578z"/><path id="ag" transform="scale(.015625)" d="m1384 459h1669v2582h-1209v-438q0-1287-369-1975l-91-169zm-834 0q284 125 409 391 307 659 307 1988v662h2365v-3041h460v-1343h-460v884h-2837v-884h-460v1343h216z"/></defs><use xlink:href="#ak"/><use x="78.125" xlink:href="#p"/><use x="143.115234" xlink:href="#u"/><use x="208.496094" xlink:href="#r"/><use x="269.775391" xlink:href="#ab"/><use x="345.214844" xlink:href="#p"/><use x="410.205078" xlink:href="#v"/><use x="470.605469" xlink:href="#r"/><use x="531.884766" xlink:href="#DejaVuSans-20"/><use x="563.671875" xlink:href="#i"/><use x="624.853516" xlink:href="#l"/><use x="683.105469" xlink:href="#v"/><use x="743.505859" xlink:href="#m"/><use x="806.982422" xlink:href="#j"/><use x="885.9375" xlink:href="#l"/><use x="944.189453" xlink:href="#p"/><use x="1009.179688" xlink:href="#ac"/><use x="1074.169922" xlink:href="#DejaVuSans-20"/><use x="1105.957031" xlink:href="#t"/><use x="1160.9375" xlink:href="#n"/><use x="1219.873047" xlink:href="#q"/><use x="1281.396484" xlink:href="#m"/><use x="1344.873047" xlink:href="#k"/><use x="1404.052734" xlink:href="#u"/><use x="1469.433594" xlink:href="#i"/><use x="1530.615234" xlink:href="#n"/><use x="1589.550781" xlink:href="#j"/><use x="1668.505859" xlink:href="#k"/><use x="1727.685547" xlink:href="#am"/><use x="1759.472656" xlink:href="#DejaVuSans-20"/><use x="1791.259766" xlink:href="#ai"/><use x="1877.539062" xlink:href="#r"/><use x="1938.818359" xlink:href="#ac"/><use x="2003.808594" xlink:href="#DejaVuSans-20"/><use x="2035.595703" xlink:href="#c"/><use x="2099.21875" xlink:href="#b"/><use x="2162.841797" xlink:href="#c"/><use x="2226.464844" xlink:href="#o"/><use x="2290.087891" xlink:href="#DejaVuSans-20"/><use x="2321.875" xlink:href="#ah"/><use x="2374.414062" xlink:href="#i"/><use x="2435.595703" xlink:href="#ag"/><use x="2504.736328" xlink:href="#r"/></g><defs><clipPath id="a"><rect x="69.12" y="29.16" width="1048.3" height="579.96"/></clipPath></defs></svg>
