<?xml version="1.0" encoding="UTF-8"?>
<!DOCTYPE svg  PUBLIC '-//W3C//DTD SVG 1.1//EN'  'http://www.w3.org/Graphics/SVG/1.1/DTD/svg11.dtd'>
<svg width="1152pt" height="648pt" version="1.1" viewBox="0 0 1152 648" xmlns="http://www.w3.org/2000/svg" xmlns:xlink="http://www.w3.org/1999/xlink"><defs><style type="text/css">*{stroke-linejoin: round; stroke-linecap: butt}</style></defs><path d="m0 648h1152v-648h-1152z" fill="#fff"/><path d="m69.12 609.12h1048.3v-579.96h-1048.3z" fill="#fff"/><path d="m78.049 609.12h30.36v-19.672h-30.36z" clip-path="url(#b)" fill="#1f77b4"/><path d="m113.77 609.12h30.36v-1.886h-30.36z" clip-path="url(#b)" fill="#1f77b4"/><path d="m149.49 609.12h30.36v-3.6673h-30.36z" clip-path="url(#b)" fill="#1f77b4"/><path d="m185.2 609.12h30.36v-3.7197h-30.36z" clip-path="url(#b)" fill="#1f77b4"/><path d="m220.92 609.12h30.36v-3.6149h-30.36z" clip-path="url(#b)" fill="#1f77b4"/><path d="m256.64 609.12h30.36v-3.222h-30.36z" clip-path="url(#b)" fill="#1f77b4"/><path d="m292.36 609.12h30.36v-5.6319h-30.36z" clip-path="url(#b)" fill="#1f77b4"/><path d="m328.07 609.12h30.36v-6.4701h-30.36z" clip-path="url(#b)" fill="#1f77b4"/><path d="m363.79 609.12h30.36v-6.4439h-30.36z" clip-path="url(#b)" fill="#1f77b4"/><path d="m399.51 609.12h30.36v-5.3699h-30.36z" clip-path="url(#b)" fill="#1f77b4"/><path d="m435.23 609.12h30.36v-6.5749h-30.36z" clip-path="url(#b)" fill="#1f77b4"/><path d="m470.95 609.12h30.36v-11.08h-30.36z" clip-path="url(#b)" fill="#1f77b4"/><path d="m506.66 609.12h30.36v-12.888h-30.36z" clip-path="url(#b)" fill="#1f77b4"/><path d="m542.38 609.12h30.36v-9.6659h-30.36z" clip-path="url(#b)" fill="#1f77b4"/><path d="m578.1 609.12h30.36v-10.818h-30.36z" clip-path="url(#b)" fill="#1f77b4"/><path d="m613.82 609.12h30.36v-11.447h-30.36z" clip-path="url(#b)" fill="#1f77b4"/><path d="m649.54 609.12h30.36v-19.437h-30.36z" clip-path="url(#b)" fill="#1f77b4"/><path d="m685.25 609.12h30.36v-23.261h-30.36z" clip-path="url(#b)" fill="#1f77b4"/><path d="m720.97 609.12h30.36v-35.075h-30.36z" clip-path="url(#b)" fill="#1f77b4"/><path d="m756.69 609.12h30.36v-47.596h-30.36z" clip-path="url(#b)" fill="#1f77b4"/><path d="m792.41 609.12h30.36v-86.024h-30.36z" clip-path="url(#b)" fill="#1f77b4"/><path d="m828.13 609.12h30.36v-184.2h-30.36z" clip-path="url(#b)" fill="#1f77b4"/><path d="m863.84 609.12h30.36v-197.82h-30.36z" clip-path="url(#b)" fill="#1f77b4"/><path d="m899.56 609.12h30.36v-203.56h-30.36z" clip-path="url(#b)" fill="#1f77b4"/><path d="m935.28 609.12h30.36v-419.3h-30.36z" clip-path="url(#b)" fill="#1f77b4"/><path d="m971 609.12h30.36v-504.35h-30.36z" clip-path="url(#b)" fill="#1f77b4"/><path d="m1006.7 609.12h30.36v-549.54h-30.36z" clip-path="url(#b)" fill="#1f77b4"/><path d="m1042.4 609.12h30.36v-504.69h-30.36z" clip-path="url(#b)" fill="#1f77b4"/><path d="m1078.2 609.12h30.36v-220.19h-30.36z" clip-path="url(#b)" fill="#1f77b4"/><path d="m78.049 589.45h30.36v-9.2991h-30.36z" clip-path="url(#b)" fill="#ff7f0e"/><path d="m113.77 607.23h30.36v-0.75965h-30.36z" clip-path="url(#b)" fill="#ff7f0e"/><path d="m149.49 605.45h30.36v-0.60248h-30.36z" clip-path="url(#b)" fill="#ff7f0e"/><path d="m185.2 605.4h30.36v-0.5239h-30.36z" clip-path="url(#b)" fill="#ff7f0e"/><path d="m220.92 605.51h30.36v-1.6765h-30.36z" clip-path="url(#b)" fill="#ff7f0e"/><path d="m256.64 605.9h30.36v-1.9384h-30.36z" clip-path="url(#b)" fill="#ff7f0e"/><path d="m292.36 603.49h30.36v-2.4361h-30.36z" clip-path="url(#b)" fill="#ff7f0e"/><path d="m328.07 602.65h30.36v-2.7505h-30.36z" clip-path="url(#b)" fill="#ff7f0e"/><path d="m363.79 602.68h30.36v-3.3791h-30.36z" clip-path="url(#b)" fill="#ff7f0e"/><path d="m399.51 603.75h30.36v-3.6149h-30.36z" clip-path="url(#b)" fill="#ff7f0e"/><path d="m435.23 602.55h30.36v-3.4839h-30.36z" clip-path="url(#b)" fill="#ff7f0e"/><path d="m470.95 598.04h30.36v-3.5101h-30.36z" clip-path="url(#b)" fill="#ff7f0e"/><path d="m506.66 596.23h30.36v-2.96h-30.36z" clip-path="url(#b)" fill="#ff7f0e"/><path d="m542.38 599.45h30.36v-3.6149h-30.36z" clip-path="url(#b)" fill="#ff7f0e"/><path d="m578.1 598.3h30.36v-3.8244h-30.36z" clip-path="url(#b)" fill="#ff7f0e"/><path d="m613.82 597.67h30.36v-4.0078h-30.36z" clip-path="url(#b)" fill="#ff7f0e"/><path d="m649.54 589.68h30.36v-4.3745h-30.36z" clip-path="url(#b)" fill="#ff7f0e"/><path d="m685.25 585.86h30.36v-4.5317h-30.36z" clip-path="url(#b)" fill="#ff7f0e"/><path d="m720.97 574.05h30.36v-5.6581h-30.36z" clip-path="url(#b)" fill="#ff7f0e"/><path d="m756.69 561.52h30.36v-5.3961h-30.36z" clip-path="url(#b)" fill="#ff7f0e"/><path d="m792.41 523.1h30.36v-6.2082h-30.36z" clip-path="url(#b)" fill="#ff7f0e"/><path d="m828.13 424.92h30.36v-7.2821h-30.36z" clip-path="url(#b)" fill="#ff7f0e"/><path d="m863.84 411.3h30.36v-6.8368h-30.36z" clip-path="url(#b)" fill="#ff7f0e"/><path d="m899.56 405.56h30.36v-5.3961h-30.36z" clip-path="url(#b)" fill="#ff7f0e"/><path d="m935.28 189.82h30.36v-4.4007h-30.36z" clip-path="url(#b)" fill="#ff7f0e"/><path d="m971 104.77h30.36v-3.3267h-30.36z" clip-path="url(#b)" fill="#ff7f0e"/><path d="m1006.7 59.58h30.36v-2.8028h-30.36z" clip-path="url(#b)" fill="#ff7f0e"/><path d="m1042.4 104.43h30.36v-3.7982h-30.36z" clip-path="url(#b)" fill="#ff7f0e"/><path d="m1078.2 388.93h30.36v-2.6195h-30.36z" clip-path="url(#b)" fill="#ff7f0e"/><defs><path id="f" d="m0 0v3.5" stroke="#000" stroke-width=".8"/></defs><use x="93.229574" y="609.12" stroke="#000000" stroke-width=".8" xlink:href="#f"/><g transform="translate(72.399 623.72) scale(.1 -.1)"><defs><path id="z" transform="scale(.015625)" d="m1384 459h1669v2582h-1209v-438q0-1287-369-1975l-91-169zm-834 0q284 125 409 391 307 659 307 1988v662h2365v-3041h460v-1343h-460v884h-2837v-884h-460v1343h216z"/><path id="k" transform="scale(.015625)" d="m1959 3097q-462 0-731-361t-269-989 267-989q268-361 733-361 460 0 728 362 269 363 269 988 0 622-269 986-268 364-728 364zm0 487q750 0 1178-488 429-487 429-1349 0-859-429-1349-428-489-1178-489-753 0-1180 489-426 490-426 1349 0 862 426 1349 427 488 1180 488z"/><path id="d" transform="scale(.015625)" d="m794 531h1031v3560l-1122-225v575l1116 225h631v-4135h1031v-531h-2687v531z"/><path id="h" transform="scale(.015625)" d="m703 97v575q238-113 481-172 244-59 479-59 625 0 954 420 330 420 377 1277-181-269-460-413-278-144-615-144-700 0-1108 423-408 424-408 1159 0 718 425 1152 425 435 1131 435 810 0 1236-621 427-620 427-1801 0-1103-524-1761-523-658-1407-658-238 0-482 47-243 47-506 141zm1256 1978q425 0 673 290 249 291 249 798 0 503-249 795-248 292-673 292t-673-292-248-795q0-507 248-798 248-290 673-290z"/><path id="l" transform="scale(.015625)" d="m2113 2584q-425 0-674-291-248-290-248-796 0-503 248-796 249-292 674-292t673 292q248 293 248 796 0 506-248 796-248 291-673 291zm1253 1979v-575q-238 112-480 171-242 60-480 60-625 0-955-422-329-422-376-1275 184 272 462 417 279 145 613 145 703 0 1111-427 408-426 408-1160 0-719-425-1154-425-434-1131-434-810 0-1238 620-428 621-428 1799 0 1106 525 1764t1409 658q238 0 480-47t505-140z"/></defs><use xlink:href="#z"/><use x="69.140625" xlink:href="#k"/><use x="130.322266" xlink:href="#DejaVuSans-20"/><use x="162.109375" xlink:href="#d"/><use x="225.732422" xlink:href="#h"/><use x="289.355469" xlink:href="#h"/><use x="352.978516" xlink:href="#l"/></g><use x="128.947462" y="609.12" stroke="#000000" stroke-width=".8" xlink:href="#f"/><g transform="translate(116.22 623.72) scale(.1 -.1)"><use xlink:href="#d"/><use x="63.623047" xlink:href="#h"/><use x="127.246094" xlink:href="#h"/><use x="190.869141" xlink:href="#l"/></g><use x="164.665349" y="609.12" stroke="#000000" stroke-width=".8" xlink:href="#f"/><g transform="translate(151.94 623.72) scale(.1 -.1)"><defs><path id="j" transform="scale(.015625)" d="m525 4666h3e3v-269l-1694-4397h-659l1594 4134h-2241v532z"/></defs><use xlink:href="#d"/><use x="63.623047" xlink:href="#h"/><use x="127.246094" xlink:href="#h"/><use x="190.869141" xlink:href="#j"/></g><use x="200.383237" y="609.12" stroke="#000000" stroke-width=".8" xlink:href="#f"/><g transform="translate(187.66 623.72) scale(.1 -.1)"><defs><path id="q" transform="scale(.015625)" d="m2034 2216q-450 0-708-241-257-241-257-662 0-422 257-663 258-241 708-241t709 242q260 243 260 662 0 421-258 662-257 241-711 241zm-631 268q-406 100-633 378-226 279-226 679 0 559 398 884 399 325 1092 325 697 0 1094-325t397-884q0-400-227-679-226-278-629-378 456-106 710-416 255-309 255-755 0-679-414-1042-414-362-1186-362-771 0-1186 362-414 363-414 1042 0 446 256 755 257 310 713 416zm-231 997q0-362 226-565 227-203 636-203 407 0 636 203 230 203 230 565 0 363-230 566-229 203-636 203-409 0-636-203-226-203-226-566z"/></defs><use xlink:href="#d"/><use x="63.623047" xlink:href="#h"/><use x="127.246094" xlink:href="#h"/><use x="190.869141" xlink:href="#q"/></g><use x="236.101124" y="609.12" stroke="#000000" stroke-width=".8" xlink:href="#f"/><g transform="translate(223.38 623.72) scale(.1 -.1)"><use xlink:href="#d"/><use x="63.623047" xlink:href="#h"/><use x="127.246094" xlink:href="#h"/><use x="190.869141" xlink:href="#h"/></g><use x="271.819012" y="609.12" stroke="#000000" stroke-width=".8" xlink:href="#f"/><g transform="translate(259.09 623.72) scale(.1 -.1)"><defs><path id="c" transform="scale(.015625)" d="m1228 531h2203v-531h-2962v531q359 372 979 998 621 627 780 809 303 340 423 576 121 236 121 464 0 372-261 606-261 235-680 235-297 0-627-103-329-103-704-313v638q381 153 712 231 332 78 607 78 725 0 1156-363 431-362 431-968 0-288-108-546-107-257-392-607-78-91-497-524-418-433-1181-1211z"/><path id="a" transform="scale(.015625)" d="m2034 4250q-487 0-733-480-245-479-245-1442 0-959 245-1439 246-480 733-480 491 0 736 480 246 480 246 1439 0 963-246 1442-245 480-736 480zm0 500q785 0 1199-621 414-620 414-1801 0-1178-414-1799-414-620-1199-620-784 0-1198 620-414 621-414 1799 0 1181 414 1801 414 621 1198 621z"/></defs><use xlink:href="#c"/><use x="63.623047" xlink:href="#a"/><use x="127.246094" xlink:href="#a"/><use x="190.869141" xlink:href="#a"/></g><use x="307.536899" y="609.12" stroke="#000000" stroke-width=".8" xlink:href="#f"/><g transform="translate(294.81 623.72) scale(.1 -.1)"><use xlink:href="#c"/><use x="63.623047" xlink:href="#a"/><use x="127.246094" xlink:href="#a"/><use x="190.869141" xlink:href="#d"/></g><use x="343.254787" y="609.12" stroke="#000000" stroke-width=".8" xlink:href="#f"/><g transform="translate(330.53 623.72) scale(.1 -.1)"><use xlink:href="#c"/><use x="63.623047" xlink:href="#a"/><use x="127.246094" xlink:href="#a"/><use x="190.869141" xlink:href="#c"/></g><use x="378.972675" y="609.12" stroke="#000000" stroke-width=".8" xlink:href="#f"/><g transform="translate(366.25 623.72) scale(.1 -.1)"><defs><path id="i" transform="scale(.015625)" d="m2597 2516q453-97 707-404 255-306 255-756 0-690-475-1069-475-378-1350-378-293 0-604 58t-642 174v609q262-153 574-231 313-78 654-78 593 0 904 234t311 681q0 413-289 645-289 233-804 233h-544v519h569q465 0 712 186t247 536q0 359-255 551-254 193-729 193-260 0-557-57-297-56-653-174v562q360 100 674 150t592 50q719 0 1137-327 419-326 419-882 0-388-222-655t-631-370z"/></defs><use xlink:href="#c"/><use x="63.623047" xlink:href="#a"/><use x="127.246094" xlink:href="#a"/><use x="190.869141" xlink:href="#i"/></g><use x="414.690562" y="609.12" stroke="#000000" stroke-width=".8" xlink:href="#f"/><g transform="translate(401.97 623.72) scale(.1 -.1)"><defs><path id="x" transform="scale(.015625)" d="m2419 4116-1594-2491h1594v2491zm-166 550h794v-3041h666v-525h-666v-1100h-628v1100h-2106v609l1940 2957z"/></defs><use xlink:href="#c"/><use x="63.623047" xlink:href="#a"/><use x="127.246094" xlink:href="#a"/><use x="190.869141" xlink:href="#x"/></g><use x="450.40845" y="609.12" stroke="#000000" stroke-width=".8" xlink:href="#f"/><g transform="translate(437.68 623.72) scale(.1 -.1)"><defs><path id="g" transform="scale(.015625)" d="m691 4666h2478v-532h-1900v-1143q137 47 274 70 138 23 276 23 781 0 1237-428 457-428 457-1159 0-753-469-1171-469-417-1322-417-294 0-599 50-304 50-629 150v635q281-153 581-228t634-75q541 0 856 284 316 284 316 772 0 487-316 771-315 285-856 285-253 0-505-56-251-56-513-175v2344z"/></defs><use xlink:href="#c"/><use x="63.623047" xlink:href="#a"/><use x="127.246094" xlink:href="#a"/><use x="190.869141" xlink:href="#g"/></g><use x="486.126337" y="609.12" stroke="#000000" stroke-width=".8" xlink:href="#f"/><g transform="translate(473.4 623.72) scale(.1 -.1)"><use xlink:href="#c"/><use x="63.623047" xlink:href="#a"/><use x="127.246094" xlink:href="#a"/><use x="190.869141" xlink:href="#l"/></g><use x="521.844225" y="609.12" stroke="#000000" stroke-width=".8" xlink:href="#f"/><g transform="translate(509.12 623.72) scale(.1 -.1)"><use xlink:href="#c"/><use x="63.623047" xlink:href="#a"/><use x="127.246094" xlink:href="#a"/><use x="190.869141" xlink:href="#j"/></g><use x="557.562112" y="609.12" stroke="#000000" stroke-width=".8" xlink:href="#f"/><g transform="translate(544.84 623.72) scale(.1 -.1)"><use xlink:href="#c"/><use x="63.623047" xlink:href="#a"/><use x="127.246094" xlink:href="#a"/><use x="190.869141" xlink:href="#q"/></g><use x="593.28" y="609.12" stroke="#000000" stroke-width=".8" xlink:href="#f"/><g transform="translate(580.56 623.72) scale(.1 -.1)"><use xlink:href="#c"/><use x="63.623047" xlink:href="#a"/><use x="127.246094" xlink:href="#a"/><use x="190.869141" xlink:href="#h"/></g><use x="628.997888" y="609.12" stroke="#000000" stroke-width=".8" xlink:href="#f"/><g transform="translate(616.27 623.72) scale(.1 -.1)"><use xlink:href="#c"/><use x="63.623047" xlink:href="#a"/><use x="127.246094" xlink:href="#d"/><use x="190.869141" xlink:href="#a"/></g><use x="664.715775" y="609.12" stroke="#000000" stroke-width=".8" xlink:href="#f"/><g transform="translate(651.99 623.72) scale(.1 -.1)"><use xlink:href="#c"/><use x="63.623047" xlink:href="#a"/><use x="127.246094" xlink:href="#d"/><use x="190.869141" xlink:href="#d"/></g><use x="700.433663" y="609.12" stroke="#000000" stroke-width=".8" xlink:href="#f"/><g transform="translate(687.71 623.72) scale(.1 -.1)"><use xlink:href="#c"/><use x="63.623047" xlink:href="#a"/><use x="127.246094" xlink:href="#d"/><use x="190.869141" xlink:href="#c"/></g><use x="736.15155" y="609.12" stroke="#000000" stroke-width=".8" xlink:href="#f"/><g transform="translate(723.43 623.72) scale(.1 -.1)"><use xlink:href="#c"/><use x="63.623047" xlink:href="#a"/><use x="127.246094" xlink:href="#d"/><use x="190.869141" xlink:href="#i"/></g><use x="771.869438" y="609.12" stroke="#000000" stroke-width=".8" xlink:href="#f"/><g transform="translate(759.14 623.72) scale(.1 -.1)"><use xlink:href="#c"/><use x="63.623047" xlink:href="#a"/><use x="127.246094" xlink:href="#d"/><use x="190.869141" xlink:href="#x"/></g><use x="807.587325" y="609.12" stroke="#000000" stroke-width=".8" xlink:href="#f"/><g transform="translate(794.86 623.72) scale(.1 -.1)"><use xlink:href="#c"/><use x="63.623047" xlink:href="#a"/><use x="127.246094" xlink:href="#d"/><use x="190.869141" xlink:href="#g"/></g><use x="843.305213" y="609.12" stroke="#000000" stroke-width=".8" xlink:href="#f"/><g transform="translate(830.58 623.72) scale(.1 -.1)"><use xlink:href="#c"/><use x="63.623047" xlink:href="#a"/><use x="127.246094" xlink:href="#d"/><use x="190.869141" xlink:href="#l"/></g><use x="879.023101" y="609.12" stroke="#000000" stroke-width=".8" xlink:href="#f"/><g transform="translate(866.3 623.72) scale(.1 -.1)"><use xlink:href="#c"/><use x="63.623047" xlink:href="#a"/><use x="127.246094" xlink:href="#d"/><use x="190.869141" xlink:href="#j"/></g><use x="914.740988" y="609.12" stroke="#000000" stroke-width=".8" xlink:href="#f"/><g transform="translate(902.02 623.72) scale(.1 -.1)"><use xlink:href="#c"/><use x="63.623047" xlink:href="#a"/><use x="127.246094" xlink:href="#d"/><use x="190.869141" xlink:href="#q"/></g><use x="950.458876" y="609.12" stroke="#000000" stroke-width=".8" xlink:href="#f"/><g transform="translate(937.73 623.72) scale(.1 -.1)"><use xlink:href="#c"/><use x="63.623047" xlink:href="#a"/><use x="127.246094" xlink:href="#d"/><use x="190.869141" xlink:href="#h"/></g><use x="986.176763" y="609.12" stroke="#000000" stroke-width=".8" xlink:href="#f"/><g transform="translate(973.45 623.72) scale(.1 -.1)"><use xlink:href="#c"/><use x="63.623047" xlink:href="#a"/><use x="127.246094" xlink:href="#c"/><use x="190.869141" xlink:href="#a"/></g><use x="1021.894651" y="609.12" stroke="#000000" stroke-width=".8" xlink:href="#f"/><g transform="translate(1009.2 623.72) scale(.1 -.1)"><use xlink:href="#c"/><use x="63.623047" xlink:href="#a"/><use x="127.246094" xlink:href="#c"/><use x="190.869141" xlink:href="#d"/></g><use x="1057.612538" y="609.12" stroke="#000000" stroke-width=".8" xlink:href="#f"/><g transform="translate(1044.9 623.72) scale(.1 -.1)"><use xlink:href="#c"/><use x="63.623047" xlink:href="#a"/><use x="127.246094" xlink:href="#c"/><use x="190.869141" xlink:href="#c"/></g><use x="1093.330426" y="609.12" stroke="#000000" stroke-width=".8" xlink:href="#f"/><g transform="translate(1080.6 623.72) scale(.1 -.1)"><use xlink:href="#c"/><use x="63.623047" xlink:href="#a"/><use x="127.246094" xlink:href="#c"/><use x="190.869141" xlink:href="#i"/></g><g transform="translate(574.36 640.44) scale(.14 -.14)"><defs><path id="bg" transform="scale(.015625)" d="m628 0v4666h2903v-532h-2272v-4134h-631z"/><path id="p" transform="scale(.015625)" d="m3907 3500h575v-3500h-575v3500zm288 84zm-1414-2546q0 281-205 428-204 147-598 147h-819v-1154h819q394 0 598 148 205 149 205 431zm-2200 2462h578v-1428h844q669 0 1030-255 361-254 361-779t-361-782q-361-256-1030-256h-1422v3500z"/></defs><use xlink:href="#bg"/><use x="60.986328" xlink:href="#k"/><use x="122.167969" xlink:href="#z"/><use x="191.308594" xlink:href="#p"/></g><defs><path id="o" d="m0 0h-3.5" stroke="#000" stroke-width=".8"/></defs><use x="69.12" y="609.12" stroke="#000000" stroke-width=".8" xlink:href="#o"/><g transform="translate(55.758 612.92) scale(.1 -.1)"><use xlink:href="#a"/></g><use x="69.12" y="543.633082" stroke="#000000" stroke-width=".8" xlink:href="#o"/><g transform="translate(36.67 547.43) scale(.1 -.1)"><use xlink:href="#c"/><use x="63.623047" xlink:href="#g"/><use x="127.246094" xlink:href="#a"/><use x="190.869141" xlink:href="#a"/></g><use x="69.12" y="478.146165" stroke="#000000" stroke-width=".8" xlink:href="#o"/><g transform="translate(36.67 481.95) scale(.1 -.1)"><use xlink:href="#g"/><use x="63.623047" xlink:href="#a"/><use x="127.246094" xlink:href="#a"/><use x="190.869141" xlink:href="#a"/></g><use x="69.12" y="412.659247" stroke="#000000" stroke-width=".8" xlink:href="#o"/><g transform="translate(36.67 416.46) scale(.1 -.1)"><use xlink:href="#j"/><use x="63.623047" xlink:href="#g"/><use x="127.246094" xlink:href="#a"/><use x="190.869141" xlink:href="#a"/></g><use x="69.12" y="347.17233" stroke="#000000" stroke-width=".8" xlink:href="#o"/><g transform="translate(30.308 350.97) scale(.1 -.1)"><use xlink:href="#d"/><use x="63.623047" xlink:href="#a"/><use x="127.246094" xlink:href="#a"/><use x="190.869141" xlink:href="#a"/><use x="254.492188" xlink:href="#a"/></g><use x="69.12" y="281.685412" stroke="#000000" stroke-width=".8" xlink:href="#o"/><g transform="translate(30.308 285.48) scale(.1 -.1)"><use xlink:href="#d"/><use x="63.623047" xlink:href="#c"/><use x="127.246094" xlink:href="#g"/><use x="190.869141" xlink:href="#a"/><use x="254.492188" xlink:href="#a"/></g><use x="69.12" y="216.198495" stroke="#000000" stroke-width=".8" xlink:href="#o"/><g transform="translate(30.308 220) scale(.1 -.1)"><use xlink:href="#d"/><use x="63.623047" xlink:href="#g"/><use x="127.246094" xlink:href="#a"/><use x="190.869141" xlink:href="#a"/><use x="254.492188" xlink:href="#a"/></g><use x="69.12" y="150.711577" stroke="#000000" stroke-width=".8" xlink:href="#o"/><g transform="translate(30.308 154.51) scale(.1 -.1)"><use xlink:href="#d"/><use x="63.623047" xlink:href="#j"/><use x="127.246094" xlink:href="#g"/><use x="190.869141" xlink:href="#a"/><use x="254.492188" xlink:href="#a"/></g><use x="69.12" y="85.22466" stroke="#000000" stroke-width=".8" xlink:href="#o"/><g transform="translate(30.308 89.024) scale(.1 -.1)"><use xlink:href="#c"/><use x="63.623047" xlink:href="#a"/><use x="127.246094" xlink:href="#a"/><use x="190.869141" xlink:href="#a"/><use x="254.492188" xlink:href="#a"/></g><defs><path id="e" d="m0 0h-2" stroke="#000" stroke-width=".6"/></defs><use x="69.12" y="596.022616" stroke="#000000" stroke-width=".6" xlink:href="#e"/><use x="69.12" y="582.925233" stroke="#000000" stroke-width=".6" xlink:href="#e"/><use x="69.12" y="569.827849" stroke="#000000" stroke-width=".6" xlink:href="#e"/><use x="69.12" y="556.730466" stroke="#000000" stroke-width=".6" xlink:href="#e"/><use x="69.12" y="530.535699" stroke="#000000" stroke-width=".6" xlink:href="#e"/><use x="69.12" y="517.438315" stroke="#000000" stroke-width=".6" xlink:href="#e"/><use x="69.12" y="504.340932" stroke="#000000" stroke-width=".6" xlink:href="#e"/><use x="69.12" y="491.243548" stroke="#000000" stroke-width=".6" xlink:href="#e"/><use x="69.12" y="465.048781" stroke="#000000" stroke-width=".6" xlink:href="#e"/><use x="69.12" y="451.951398" stroke="#000000" stroke-width=".6" xlink:href="#e"/><use x="69.12" y="438.854014" stroke="#000000" stroke-width=".6" xlink:href="#e"/><use x="69.12" y="425.756631" stroke="#000000" stroke-width=".6" xlink:href="#e"/><use x="69.12" y="399.561864" stroke="#000000" stroke-width=".6" xlink:href="#e"/><use x="69.12" y="386.46448" stroke="#000000" stroke-width=".6" xlink:href="#e"/><use x="69.12" y="373.367097" stroke="#000000" stroke-width=".6" xlink:href="#e"/><use x="69.12" y="360.269713" stroke="#000000" stroke-width=".6" xlink:href="#e"/><use x="69.12" y="334.074946" stroke="#000000" stroke-width=".6" xlink:href="#e"/><use x="69.12" y="320.977563" stroke="#000000" stroke-width=".6" xlink:href="#e"/><use x="69.12" y="307.880179" stroke="#000000" stroke-width=".6" xlink:href="#e"/><use x="69.12" y="294.782796" stroke="#000000" stroke-width=".6" xlink:href="#e"/><use x="69.12" y="268.588029" stroke="#000000" stroke-width=".6" xlink:href="#e"/><use x="69.12" y="255.490645" stroke="#000000" stroke-width=".6" xlink:href="#e"/><use x="69.12" y="242.393262" stroke="#000000" stroke-width=".6" xlink:href="#e"/><use x="69.12" y="229.295878" stroke="#000000" stroke-width=".6" xlink:href="#e"/><use x="69.12" y="203.101111" stroke="#000000" stroke-width=".6" xlink:href="#e"/><use x="69.12" y="190.003728" stroke="#000000" stroke-width=".6" xlink:href="#e"/><use x="69.12" y="176.906344" stroke="#000000" stroke-width=".6" xlink:href="#e"/><use x="69.12" y="163.808961" stroke="#000000" stroke-width=".6" xlink:href="#e"/><use x="69.12" y="137.614194" stroke="#000000" stroke-width=".6" xlink:href="#e"/><use x="69.12" y="124.51681" stroke="#000000" stroke-width=".6" xlink:href="#e"/><use x="69.12" y="111.419427" stroke="#000000" stroke-width=".6" xlink:href="#e"/><use x="69.12" y="98.322043" stroke="#000000" stroke-width=".6" xlink:href="#e"/><use x="69.12" y="72.127276" stroke="#000000" stroke-width=".6" xlink:href="#e"/><use x="69.12" y="59.029893" stroke="#000000" stroke-width=".6" xlink:href="#e"/><use x="69.12" y="45.932509" stroke="#000000" stroke-width=".6" xlink:href="#e"/><use x="69.12" y="32.835126" stroke="#000000" stroke-width=".6" xlink:href="#e"/><g transform="translate(23.396 427.11) rotate(-90) scale(.14 -.14)"><defs><path id="be" transform="scale(.015625)" d="m2522 4238q-688 0-1093-513-404-512-404-1397 0-881 404-1394 405-512 1093-512 687 0 1089 512 402 513 402 1394 0 885-402 1397-402 513-1089 513zm0 512q981 0 1568-658 588-658 588-1764 0-1103-588-1761-587-658-1568-658-984 0-1574 656-589 657-589 1763t589 1764q590 658 1574 658z"/><path id="s" transform="scale(.015625)" d="m188 3500h3353v-459h-1394v-3041h-566v3041h-1393v459z"/><path id="ad" transform="scale(.015625)" d="m581 3500h572v-1644l1622 1644h706l-1337-1353 1509-2147h-644l-1240 1766-616-625v-1141h-572v3500z"/><path id="t" transform="scale(.015625)" d="m1159 525v-1856h-578v4831h578v-531q182 312 458 463 277 152 661 152 638 0 1036-506 399-506 399-1331t-399-1332q-398-506-1036-506-384 0-661 152-276 152-458 464zm1957 1222q0 634-261 995t-717 361q-457 0-718-361t-261-995 261-995 718-361q456 0 717 361t261 995z"/><path id="v" transform="scale(.015625)" d="m3578 3500v-3500h-572v2809l-1687-2809h-738v3500h572v-2803l1685 2803h740z"/><path id="am" transform="scale(.015625)" d="m3578 3500v-3500h-572v2809l-1687-2809h-738v3500h572v-2803l1685 2803h740zm-2476 1333h369q34-234 185-352 152-117 424-117 269 0 419 116t190 353h369q-31-447-278-672t-700-225-700 225-278 672z"/><path id="y" transform="scale(.015625)" d="m3122 3366v-538q-244 135-489 202t-495 67q-560 0-870-355-309-354-309-995t309-996q310-354 870-354 250 0 495 67t489 202v-532q-241-112-499-168-257-57-548-57-791 0-1257 497-465 497-465 1341 0 856 470 1346 471 491 1290 491 265 0 518-55 253-54 491-163z"/><path id="n" transform="scale(.015625)" d="m1156 1613v-1154h819q394 0 600 148 206 149 206 431 0 281-206 428t-600 147h-819zm0 1428v-969h757q325 0 531 129 206 130 206 362 0 231-206 354-206 124-531 124h-757zm-575 459h1369q616 0 947-225t331-641q0-321-169-511-168-189-500-235 397-75 616-313 219-237 219-594 0-468-361-725-361-256-1030-256h-1422v3500z"/><path id="m" transform="scale(.015625)" d="m3597 1894v-281h-2644q38-594 358-905t892-311q331 0 642 81t618 244v-544q-310-131-635-200t-659-69q-838 0-1327 487-489 488-489 1320 0 859 464 1363 464 505 1252 505 706 0 1117-455 411-454 411-1235zm-575 169q-6 471-264 752-258 282-683 282-481 0-770-272t-333-766l2050 4z"/><path id="r" transform="scale(.015625)" d="m3513 3500-1266-1703 1331-1797h-678l-1019 1375-1018-1375h-679l1360 1831-1244 1669h678l928-1247 928 1247h679z"/><path id="u" transform="scale(.015625)" d="m581 3500h578v-1428h1866v1428h578v-3500h-578v1613h-1866v-1613h-578v3500z"/><path id="bc" transform="scale(.015625)" d="m2206 1888q388-75 603-304 216-228 216-565 0-541-403-826-403-284-1147-284-250 0-514 44t-545 131v535q222-116 487-174 266-57 556-57 472 0 736 175t264 456q0 275-234 442t-662 167h-463v475h484q363 0 574 139t211 358q0 200-218 344-217 144-588 144-222 0-474-41-251-41-555-131v522q307 75 572 112 266 38 503 38 613 0 967-246 355-245 355-686 0-290-188-492-187-201-537-276z"/><path id="w" transform="scale(.015625)" d="m2194 1759q-697 0-966-159t-269-544q0-306 202-486 202-179 548-179 479 0 768 339t289 901v128h-572zm1147 238v-1997h-575v531q-197-318-491-470t-719-152q-537 0-855 302-317 302-317 808 0 590 395 890 396 300 1180 300h807v57q0 397-261 614t-733 217q-300 0-585-72-284-72-546-216v532q315 122 612 182 297 61 578 61 760 0 1135-394 375-393 375-1193z"/><path id="ab" transform="scale(.015625)" d="m581 0v3500h2469v-459h-1891v-3041h-578z"/></defs><use xlink:href="#be"/><use x="78.710938" xlink:href="#s"/><use x="136.962891" xlink:href="#ad"/><use x="197.363281" xlink:href="#t"/><use x="260.839844" xlink:href="#p"/><use x="339.794922" xlink:href="#s"/><use x="398.046875" xlink:href="#v"/><use x="463.037109" xlink:href="#am"/><use x="528.027344" xlink:href="#DejaVuSans-20"/><use x="559.814453" xlink:href="#y"/><use x="614.794922" xlink:href="#n"/><use x="673.730469" xlink:href="#m"/><use x="735.253906" xlink:href="#t"/><use x="798.730469" xlink:href="#r"/><use x="857.910156" xlink:href="#u"/><use x="923.291016" xlink:href="#k"/><use x="984.472656" xlink:href="#n"/><use x="1043.408203" xlink:href="#p"/><use x="1122.363281" xlink:href="#r"/><use x="1181.542969" xlink:href="#DejaVuSans-20"/><use x="1213.330078" xlink:href="#bc"/><use x="1266.503906" xlink:href="#w"/><use x="1327.783203" xlink:href="#DejaVuSans-20"/><use x="1359.570312" xlink:href="#ab"/><use x="1412.109375" xlink:href="#k"/><use x="1473.291016" xlink:href="#z"/></g><path d="m69.12 609.12v-579.96" fill="none" stroke="#000" stroke-linecap="square" stroke-width=".8"/><path d="m1117.4 609.12v-579.96" fill="none" stroke="#000" stroke-linecap="square" stroke-width=".8"/><path d="m69.12 609.12h1048.3" fill="none" stroke="#000" stroke-linecap="square" stroke-width=".8"/><path d="m69.12 29.16h1048.3" fill="none" stroke="#000" stroke-linecap="square" stroke-width=".8"/><g transform="translate(80.505 578.07) scale(.1 -.1)"><use xlink:href="#d"/><use x="63.623047" xlink:href="#d"/><use x="127.246094" xlink:href="#a"/><use x="190.869141" xlink:href="#l"/></g><g transform="translate(119.4 604.39) scale(.1 -.1)"><use xlink:href="#d"/><use x="63.623047" xlink:href="#a"/><use x="127.246094" xlink:href="#d"/></g><g transform="translate(155.12 602.77) scale(.1 -.1)"><use xlink:href="#d"/><use x="63.623047" xlink:href="#l"/><use x="127.246094" xlink:href="#i"/></g><g transform="translate(190.84 602.8) scale(.1 -.1)"><use xlink:href="#d"/><use x="63.623047" xlink:href="#l"/><use x="127.246094" xlink:href="#c"/></g><g transform="translate(226.56 601.75) scale(.1 -.1)"><use xlink:href="#c"/><use x="63.623047" xlink:href="#a"/><use x="127.246094" xlink:href="#c"/></g><g transform="translate(262.28 601.88) scale(.1 -.1)"><use xlink:href="#d"/><use x="63.623047" xlink:href="#h"/><use x="127.246094" xlink:href="#j"/></g><g transform="translate(297.99 598.97) scale(.1 -.1)"><use xlink:href="#i"/><use x="63.623047" xlink:href="#a"/><use x="127.246094" xlink:href="#q"/></g><g transform="translate(333.71 597.82) scale(.1 -.1)"><use xlink:href="#i"/><use x="63.623047" xlink:href="#g"/><use x="127.246094" xlink:href="#c"/></g><g transform="translate(369.43 597.22) scale(.1 -.1)"><use xlink:href="#i"/><use x="63.623047" xlink:href="#j"/><use x="127.246094" xlink:href="#g"/></g><g transform="translate(405.15 598.06) scale(.1 -.1)"><use xlink:href="#i"/><use x="63.623047" xlink:href="#x"/><use x="127.246094" xlink:href="#i"/></g><g transform="translate(440.86 596.98) scale(.1 -.1)"><use xlink:href="#i"/><use x="63.623047" xlink:href="#q"/><use x="127.246094" xlink:href="#x"/></g><g transform="translate(476.58 592.45) scale(.1 -.1)"><use xlink:href="#g"/><use x="63.623047" xlink:href="#g"/><use x="127.246094" xlink:href="#j"/></g><g transform="translate(512.3 591.19) scale(.1 -.1)"><use xlink:href="#l"/><use x="63.623047" xlink:href="#a"/><use x="127.246094" xlink:href="#g"/></g><g transform="translate(548.02 593.76) scale(.1 -.1)"><use xlink:href="#g"/><use x="63.623047" xlink:href="#a"/><use x="127.246094" xlink:href="#j"/></g><g transform="translate(583.74 592.4) scale(.1 -.1)"><use xlink:href="#g"/><use x="63.623047" xlink:href="#g"/><use x="127.246094" xlink:href="#h"/></g><g transform="translate(619.45 591.59) scale(.1 -.1)"><use xlink:href="#g"/><use x="63.623047" xlink:href="#h"/><use x="127.246094" xlink:href="#a"/></g><g transform="translate(655.17 583.23) scale(.1 -.1)"><use xlink:href="#h"/><use x="63.623047" xlink:href="#a"/><use x="127.246094" xlink:href="#h"/></g><g transform="translate(687.71 579.25) scale(.1 -.1)"><use xlink:href="#d"/><use x="63.623047" xlink:href="#a"/><use x="127.246094" xlink:href="#l"/><use x="190.869141" xlink:href="#d"/></g><g transform="translate(723.43 566.31) scale(.1 -.1)"><use xlink:href="#d"/><use x="63.623047" xlink:href="#g"/><use x="127.246094" xlink:href="#g"/><use x="190.869141" xlink:href="#g"/></g><g transform="translate(759.14 554.05) scale(.1 -.1)"><use xlink:href="#c"/><use x="63.623047" xlink:href="#a"/><use x="127.246094" xlink:href="#c"/><use x="190.869141" xlink:href="#i"/></g><g transform="translate(794.86 514.81) scale(.1 -.1)"><use xlink:href="#i"/><use x="63.623047" xlink:href="#g"/><use x="127.246094" xlink:href="#c"/><use x="190.869141" xlink:href="#d"/></g><g transform="translate(830.58 415.56) scale(.1 -.1)"><use xlink:href="#j"/><use x="63.623047" xlink:href="#i"/><use x="127.246094" xlink:href="#d"/><use x="190.869141" xlink:href="#a"/></g><g transform="translate(866.3 402.38) scale(.1 -.1)"><use xlink:href="#j"/><use x="63.623047" xlink:href="#q"/><use x="127.246094" xlink:href="#d"/><use x="190.869141" xlink:href="#i"/></g><g transform="translate(902.02 398.08) scale(.1 -.1)"><use xlink:href="#j"/><use x="63.623047" xlink:href="#h"/><use x="127.246094" xlink:href="#j"/><use x="190.869141" xlink:href="#j"/></g><g transform="translate(934.55 183.34) scale(.1 -.1)"><use xlink:href="#d"/><use x="63.623047" xlink:href="#l"/><use x="127.246094" xlink:href="#d"/><use x="190.869141" xlink:href="#j"/><use x="254.492188" xlink:href="#g"/></g><g transform="translate(970.27 99.36) scale(.1 -.1)"><use xlink:href="#d"/><use x="63.623047" xlink:href="#h"/><use x="127.246094" xlink:href="#i"/><use x="190.869141" xlink:href="#q"/><use x="254.492188" xlink:href="#d"/></g><g transform="translate(1006 54.697) scale(.1 -.1)"><use xlink:href="#c"/><use x="63.623047" xlink:href="#d"/><use x="127.246094" xlink:href="#a"/><use x="190.869141" xlink:href="#q"/><use x="254.492188" xlink:href="#l"/></g><g transform="translate(1041.7 98.547) scale(.1 -.1)"><use xlink:href="#d"/><use x="63.623047" xlink:href="#h"/><use x="127.246094" xlink:href="#x"/><use x="190.869141" xlink:href="#d"/><use x="254.492188" xlink:href="#c"/></g><g transform="translate(1080.6 384.23) scale(.1 -.1)"><use xlink:href="#q"/><use x="63.623047" xlink:href="#g"/><use x="127.246094" xlink:href="#a"/><use x="190.869141" xlink:href="#l"/></g><g transform="translate(221.64 23.16) scale(.16 -.16)"><defs><path id="ae" transform="scale(.015625)" d="m4122 4306v-665q-319 297-680 443-361 147-767 147-800 0-1225-489t-425-1414q0-922 425-1411t1225-489q406 0 767 147t680 444v-660q-331-225-702-338-370-112-782-112-1060 0-1670 648-609 649-609 1771 0 1125 609 1773 610 649 1670 649 418 0 788-111 371-111 696-333z"/><path id="bb" transform="scale(.015625)" d="m3603 3500v-3500h-578v3041h-1866v-3041h-578v3500h3022z"/><path id="al" transform="scale(.015625)" d="m581 3500h841l994-2344 997 2344h834v-3500h-578v2950l-966-2278h-575l-969 2278v-2950h-578v3500z"/><path id="ao" transform="scale(.015625)" d="m750 794h659v-538l-512-1e3h-403l256 1e3v538z"/><path id="bi" transform="scale(.015625)" d="m684 794h660v-794h-660v794z"/><path id="bf" transform="scale(.015625)" d="m4159 4666v-4666h-612v3903l-2069-3903h-850v4666h613v-3903l2068 3903h850z"/><path id="ak" transform="scale(.015625)" d="m3431 3097q-462 0-731-361t-269-989 267-989q268-361 733-361 460 0 728 362 269 363 269 988 0 622-269 986-268 364-728 364zm-1587-994q59 594 448 1037 389 444 1139 444t1178-488q429-487 429-1349 0-859-429-1349-428-489-1178-489-753 0-1164 472t-439 1247h-650v-1628h-575v3500h575v-1397h666z"/><path id="ac" transform="scale(.015625)" d="m238 0v478q568 88 743 481 213 554 213 1969v572h2365v-3500h-575v3041h-1215v-347q0-1350-275-1956-294-647-1256-738z"/><path id="az" transform="scale(.015625)" d="m2781 1038q0 281-205 428-204 147-598 147h-819v-1154h819q394 0 598 148 205 149 205 431zm-2200 2462h578v-1428h844q669 0 1030-255 361-254 361-779t-361-782q-361-256-1030-256h-1422v3500z"/></defs><use xlink:href="#ae"/><use x="69.824219" xlink:href="#s"/><use x="128.076172" xlink:href="#w"/><use x="189.355469" xlink:href="#s"/><use x="247.607422" xlink:href="#v"/><use x="312.597656" xlink:href="#y"/><use x="367.578125" xlink:href="#s"/><use x="425.830078" xlink:href="#v"/><use x="490.820312" xlink:href="#ad"/><use x="551.220703" xlink:href="#w"/><use x="612.5" xlink:href="#DejaVuSans-20"/><use x="644.287109" xlink:href="#k"/><use x="705.46875" xlink:href="#s"/><use x="763.720703" xlink:href="#ad"/><use x="824.121094" xlink:href="#t"/><use x="887.597656" xlink:href="#p"/><use x="966.552734" xlink:href="#s"/><use x="1024.804688" xlink:href="#v"/><use x="1089.794922" xlink:href="#am"/><use x="1154.785156" xlink:href="#DejaVuSans-20"/><use x="1186.572266" xlink:href="#y"/><use x="1241.552734" xlink:href="#n"/><use x="1300.488281" xlink:href="#m"/><use x="1362.011719" xlink:href="#t"/><use x="1425.488281" xlink:href="#r"/><use x="1484.667969" xlink:href="#u"/><use x="1550.048828" xlink:href="#k"/><use x="1611.230469" xlink:href="#n"/><use x="1670.166016" xlink:href="#p"/><use x="1749.121094" xlink:href="#r"/><use x="1808.300781" xlink:href="#DejaVuSans-20"/><use x="1840.087891" xlink:href="#bb"/><use x="1905.46875" xlink:href="#k"/><use x="1966.650391" xlink:href="#DejaVuSans-20"/><use x="1998.4375" xlink:href="#ab"/><use x="2050.976562" xlink:href="#k"/><use x="2112.158203" xlink:href="#z"/><use x="2181.298828" xlink:href="#w"/><use x="2242.578125" xlink:href="#al"/><use x="2318.017578" xlink:href="#ao"/><use x="2349.804688" xlink:href="#DejaVuSans-20"/><use x="2381.591797" xlink:href="#n"/><use x="2440.527344" xlink:href="#y"/><use x="2495.507812" xlink:href="#m"/><use x="2557.03125" xlink:href="#ab"/><use x="2609.570312" xlink:href="#k"/><use x="2670.751953" xlink:href="#DejaVuSans-20"/><use x="2702.539062" xlink:href="#d"/><use x="2766.162109" xlink:href="#c"/><use x="2829.785156" xlink:href="#i"/><use x="2893.408203" xlink:href="#c"/><use x="2957.03125" xlink:href="#x"/><use x="3020.654297" xlink:href="#a"/><use x="3084.277344" xlink:href="#DejaVuSans-20"/><use x="3116.064453" xlink:href="#y"/><use x="3171.044922" xlink:href="#n"/><use x="3229.980469" xlink:href="#m"/><use x="3291.503906" xlink:href="#t"/><use x="3354.980469" xlink:href="#r"/><use x="3414.160156" xlink:href="#u"/><use x="3479.541016" xlink:href="#k"/><use x="3540.722656" xlink:href="#n"/><use x="3599.658203" xlink:href="#p"/><use x="3678.613281" xlink:href="#r"/><use x="3737.792969" xlink:href="#bi"/><use x="3769.580078" xlink:href="#DejaVuSans-20"/><use x="3801.367188" xlink:href="#bf"/><use x="3876.171875" xlink:href="#ak"/><use x="3960.351562" xlink:href="#ac"/><use x="4024.267578" xlink:href="#az"/><use x="4083.203125" xlink:href="#DejaVuSans-20"/><use x="4114.990234" xlink:href="#c"/><use x="4178.613281" xlink:href="#a"/><use x="4242.236328" xlink:href="#c"/><use x="4305.859375" xlink:href="#i"/><use x="4369.482422" xlink:href="#DejaVuSans-20"/><use x="4401.269531" xlink:href="#ab"/><use x="4453.808594" xlink:href="#k"/><use x="4514.990234" xlink:href="#z"/><use x="4584.130859" xlink:href="#w"/></g><path d="m78.92 81.697h351.17q2.8 0 2.8-2.8v-39.937q0-2.8-2.8-2.8h-351.17q-2.8 0-2.8 2.8v39.937q0 2.8 2.8 2.8z" fill="#fff" opacity=".8" stroke="#ccc"/><path d="m81.72 52.398h28v-9.8h-28z" fill="#1f77b4"/><g transform="translate(120.92 52.398) scale(.14 -.14)"><defs><path id="ax" transform="scale(.015625)" d="m628 4666h631v-4135h2272v-531h-2903v4666z"/><path id="aj" transform="scale(.015625)" d="m2194 1759q-697 0-966-159t-269-544q0-306 202-486 202-179 548-179 479 0 768 339t289 901v128h-572zm1147 238v-1997h-575v531q-197-318-491-470t-719-152q-537 0-855 302-317 302-317 808 0 590 395 890 396 300 1180 300h807v57q0 397-261 614t-733 217q-300 0-585-72-284-72-546-216v532q315 122 612 182 297 61 578 61 760 0 1135-394 375-393 375-1193z"/><path id="ag" transform="scale(.015625)" d="m1172 4494v-994h1184v-447h-1184v-1900q0-428 117-550t477-122h590v-481h-590q-666 0-919 248-253 249-253 905v1900h-422v447h422v994h578z"/><path id="aa" transform="scale(.015625)" d="m3597 1894v-281h-2644q38-594 358-905t892-311q331 0 642 81t618 244v-544q-310-131-635-200t-659-69q-838 0-1327 487-489 488-489 1320 0 859 464 1363 464 505 1252 505 706 0 1117-455 411-454 411-1235zm-575 169q-6 471-264 752-258 282-683 282-481 0-770-272t-333-766l2050 4z"/><path id="ah" transform="scale(.015625)" d="m2834 3397v-544q-243 125-506 187-262 63-544 63-428 0-642-131t-214-394q0-200 153-314t616-217l197-44q612-131 870-370t258-667q0-488-386-773-386-284-1061-284-281 0-586 55t-642 164v594q319-166 628-249 309-82 613-82 406 0 624 139 219 139 219 392 0 234-158 359-157 125-692 241l-200 47q-534 112-772 345-237 233-237 639 0 494 350 762 350 269 994 269 318 0 599-47 282-46 519-140z"/><path id="aw" transform="scale(.015625)" d="m3425 4513v-616q-359 172-678 256-319 85-616 85-515 0-795-200t-280-569q0-310 186-468 186-157 705-254l381-78q706-135 1042-474t336-907q0-679-455-1029-454-350-1332-350-331 0-705 75-373 75-773 222v650q384-215 753-325 369-109 725-109 540 0 834 212 294 213 294 607 0 343-211 537t-692 291l-385 75q-706 140-1022 440-315 300-315 835 0 619 436 975t1201 356q329 0 669-60 341-59 697-177z"/><path id="ap" transform="scale(.015625)" d="m544 1381v2119h575v-2097q0-497 193-746 194-248 582-248 465 0 735 297 271 297 271 810v1984h575v-3500h-575v538q-209-319-486-474-276-155-642-155-603 0-916 375-312 375-312 1097zm1447 2203z"/><path id="aq" transform="scale(.015625)" d="m1159 525v-1856h-578v4831h578v-531q182 312 458 463 277 152 661 152 638 0 1036-506 399-506 399-1331t-399-1332q-398-506-1036-506-384 0-661 152-276 152-458 464zm1957 1222q0 634-261 995t-717 361q-457 0-718-361t-261-995 261-995 718-361q456 0 717 361t261 995z"/><path id="ai" transform="scale(.015625)" d="m2631 2963q-97 56-211 82-114 27-251 27-488 0-749-317t-261-911v-1844h-578v3500h578v-544q182 319 472 473 291 155 707 155 59 0 131-8 72-7 159-23l3-590z"/><path id="as" transform="scale(.015625)" d="m3513 2113v-2113h-575v2094q0 497-194 743-194 247-581 247-466 0-735-297-269-296-269-809v-1978h-578v3500h578v-544q207 316 486 472 280 156 646 156 603 0 912-373 310-373 310-1098z"/><path id="ar" transform="scale(.015625)" d="m1959 3097q-462 0-731-361t-269-989 267-989q268-361 733-361 460 0 728 362 269 363 269 988 0 622-269 986-268 364-728 364zm0 487q750 0 1178-488 429-487 429-1349 0-859-429-1349-428-489-1178-489-753 0-1180 489-426 490-426 1349 0 862 426 1349 427 488 1180 488z"/><path id="af" transform="scale(.015625)" d="m191 3500h609l1094-2937 1094 2937h609l-1313-3500h-781l-1312 3500z"/><path id="bh" transform="scale(.015625)" d="m2188 4044-857-2322h1716l-859 2322zm-357 622h716l1778-4666h-656l-425 1197h-2103l-425-1197h-666l1781 4666z"/><path id="av" transform="scale(.015625)" d="m3122 3366v-538q-244 135-489 202t-495 67q-560 0-870-355-309-354-309-995t309-996q310-354 870-354 250 0 495 67t489 202v-532q-241-112-499-168-257-57-548-57-791 0-1257 497-465 497-465 1341 0 856 470 1346 471 491 1290 491 265 0 518-55 253-54 491-163z"/><path id="au" transform="scale(.015625)" d="m3513 2113v-2113h-575v2094q0 497-194 743-194 247-581 247-466 0-735-297-269-296-269-809v-1978h-578v4863h578v-1907q207 316 486 472 280 156 646 156 603 0 912-373 310-373 310-1098z"/><path id="at" transform="scale(.015625)" d="m603 3500h575v-3500h-575v3500zm0 1363h575v-729h-575v729z"/></defs><use xlink:href="#ae"/><use x="69.824219" xlink:href="#n"/><use x="128.759766" xlink:href="#m"/><use x="190.283203" xlink:href="#t"/><use x="253.759766" xlink:href="#r"/><use x="312.939453" xlink:href="#u"/><use x="378.320312" xlink:href="#k"/><use x="439.501953" xlink:href="#n"/><use x="498.4375" xlink:href="#p"/><use x="577.392578" xlink:href="#m"/><use x="638.916016" xlink:href="#DejaVuSans-20"/><use x="670.703125" xlink:href="#ax"/><use x="726.416016" xlink:href="#aj"/><use x="787.695312" xlink:href="#ag"/><use x="826.904297" xlink:href="#aa"/><use x="888.427734" xlink:href="#ah"/><use x="940.527344" xlink:href="#ag"/><use x="979.736328" xlink:href="#DejaVuSans-20"/><use x="1011.523438" xlink:href="#aw"/><use x="1075" xlink:href="#ap"/><use x="1138.378906" xlink:href="#aq"/><use x="1201.855469" xlink:href="#aa"/><use x="1263.378906" xlink:href="#ai"/><use x="1302.742188" xlink:href="#as"/><use x="1366.121094" xlink:href="#ar"/><use x="1427.302734" xlink:href="#af"/><use x="1486.482422" xlink:href="#aj"/><use x="1547.761719" xlink:href="#aa"/><use x="1609.285156" xlink:href="#DejaVuSans-20"/><use x="1641.072266" xlink:href="#bh"/><use x="1709.480469" xlink:href="#ai"/><use x="1748.34375" xlink:href="#av"/><use x="1803.324219" xlink:href="#au"/><use x="1866.703125" xlink:href="#at"/><use x="1894.486328" xlink:href="#af"/><use x="1953.666016" xlink:href="#aa"/><use x="2015.189453" xlink:href="#ah"/></g><path d="m81.72 73.186h28v-9.8h-28z" fill="#ff7f0e"/><g transform="translate(120.92 73.186) scale(.14 -.14)"><defs><path id="an" transform="scale(.015625)" d="m1991 3584q750 0 1178-488 428-487 428-1349 0-859-428-1349-428-489-1178-489-753 0-1169 475t-438 1363l-18 716q-16 371-16 500 0 500 181 868 285 578 777 828t1317 257q381 3 550 56l159-456q-153-63-293-66l-782-53q-393-28-631-166-622-365-681-843l-22-175q406 371 1066 371zm0-487q-463 0-732-361-268-361-268-989t267-989 733-361q459 0 728 362 269 363 269 988 0 622-269 986t-728 364z"/><path id="ba" transform="scale(.015625)" d="m2059-325q-243-625-475-815-231-191-618-191h-460v481h338q237 0 368 113 132 112 291 531l103 262-1415 3444h609l1094-2737 1094 2737h609l-1538-3825z"/><path id="bd" transform="scale(.015625)" d="m2597 3500h572v-1644l1528 1644h669l-1257-1347 1438-2153h-616l-1178 1769-584-628v-1141h-572v1141l-584 628-1179-1769h-615l1437 2153-1256 1347h669l1528-1644v1644z"/><path id="ay" transform="scale(.015625)" d="m1181 2491q0-260 200-407 200-146 572-146h775v1103h-775q-372 0-572-144t-200-406zm-818-2491 1068 1534q-362 82-603 296-240 214-240 661 0 506 335 757 336 252 1015 252h1368v-3500h-578v1478h-715l-1032-1478h-618z"/></defs><use xlink:href="#ae"/><use x="69.824219" xlink:href="#n"/><use x="128.759766" xlink:href="#m"/><use x="190.283203" xlink:href="#t"/><use x="253.759766" xlink:href="#r"/><use x="312.939453" xlink:href="#u"/><use x="378.320312" xlink:href="#k"/><use x="439.501953" xlink:href="#n"/><use x="498.4375" xlink:href="#p"/><use x="577.392578" xlink:href="#m"/><use x="638.916016" xlink:href="#ao"/><use x="670.703125" xlink:href="#DejaVuSans-20"/><use x="702.490234" xlink:href="#k"/><use x="763.671875" xlink:href="#an"/><use x="825.341797" xlink:href="#u"/><use x="890.722656" xlink:href="#w"/><use x="952.001953" xlink:href="#t"/><use x="1015.478516" xlink:href="#ba"/><use x="1074.658203" xlink:href="#bd"/><use x="1164.746094" xlink:href="#m"/><use x="1226.269531" xlink:href="#u"/><use x="1291.650391" xlink:href="#u"/><use x="1357.03125" xlink:href="#p"/><use x="1435.986328" xlink:href="#m"/><use x="1497.509766" xlink:href="#DejaVuSans-20"/><use x="1529.296875" xlink:href="#ac"/><use x="1593.212891" xlink:href="#ak"/><use x="1677.392578" xlink:href="#an"/><use x="1739.0625" xlink:href="#v"/><use x="1804.052734" xlink:href="#s"/><use x="1862.304688" xlink:href="#m"/><use x="1923.828125" xlink:href="#ac"/><use x="1987.744141" xlink:href="#ay"/><use x="2047.900391" xlink:href="#al"/><use x="2123.339844" xlink:href="#v"/></g><defs><clipPath id="b"><rect x="69.12" y="29.16" width="1048.3" height="579.96"/></clipPath></defs></svg>
