<?xml version="1.0" encoding="UTF-8"?>
<!DOCTYPE svg  PUBLIC '-//W3C//DTD SVG 1.1//EN'  'http://www.w3.org/Graphics/SVG/1.1/DTD/svg11.dtd'>
<svg width="1152pt" height="648pt" version="1.1" viewBox="0 0 1152 648" xmlns="http://www.w3.org/2000/svg" xmlns:xlink="http://www.w3.org/1999/xlink"><defs><style type="text/css">*{stroke-linejoin: round; stroke-linecap: butt}</style></defs><path d="m0 648h1152v-648h-1152z" fill="#fff"/><path d="m69.12 609.12h1048.3v-579.96h-1048.3z" fill="#fff"/><path d="m103.44 609.12h106.08v-11.171h-106.08z" clip-path="url(#c)" fill="#1f77b4"/><path d="m228.24 609.12h106.08v-158.57h-106.08z" clip-path="url(#c)" fill="#1f77b4"/><path d="m353.04 609.12h106.08v-170.77h-106.08z" clip-path="url(#c)" fill="#1f77b4"/><path d="m477.84 609.12h106.08v-202.7h-106.08z" clip-path="url(#c)" fill="#1f77b4"/><path d="m602.64 609.12h106.08v-428.88h-106.08z" clip-path="url(#c)" fill="#1f77b4"/><path d="m727.44 609.12h106.08v-489.15h-106.08z" clip-path="url(#c)" fill="#1f77b4"/><path d="m852.24 609.12h106.08v-528.7h-106.08z" clip-path="url(#c)" fill="#1f77b4"/><path d="m977.04 609.12h106.08v-456.13h-106.08z" clip-path="url(#c)" fill="#1f77b4"/><path d="m103.44 597.95h106.08-106.08z" clip-path="url(#c)" fill="#ff7f0e"/><path d="m228.24 450.55h106.08-106.08z" clip-path="url(#c)" fill="#ff7f0e"/><path d="m353.04 438.35h106.08-106.08z" clip-path="url(#c)" fill="#ff7f0e"/><path d="m477.84 406.42h106.08v-0.51594h-106.08z" clip-path="url(#c)" fill="#ff7f0e"/><path d="m602.64 180.24h106.08v-8.255h-106.08z" clip-path="url(#c)" fill="#ff7f0e"/><path d="m727.44 119.97h106.08v-19.202h-106.08z" clip-path="url(#c)" fill="#ff7f0e"/><path d="m852.24 80.42h106.08v-23.643h-106.08z" clip-path="url(#c)" fill="#ff7f0e"/><path d="m977.04 152.99h106.08v-6.9988h-106.08z" clip-path="url(#c)" fill="#ff7f0e"/><defs><path id="j" d="m0 0v3.5" stroke="#000" stroke-width=".8"/></defs><use x="156.48" y="609.12" stroke="#000000" stroke-width=".8" xlink:href="#j"/><g transform="translate(135.65 623.72) scale(.1 -.1)"><defs><path id="n" transform="scale(.015625)" d="m1384 459h1669v2582h-1209v-438q0-1287-369-1975l-91-169zm-834 0q284 125 409 391 307 659 307 1988v662h2365v-3041h460v-1343h-460v884h-2837v-884h-460v1343h216z"/><path id="e" transform="scale(.015625)" d="m1959 3097q-462 0-731-361t-269-989 267-989q268-361 733-361 460 0 728 362 269 363 269 988 0 622-269 986-268 364-728 364zm0 487q750 0 1178-488 429-487 429-1349 0-859-429-1349-428-489-1178-489-753 0-1180 489-426 490-426 1349 0 862 426 1349 427 488 1180 488z"/><path id="b" transform="scale(.015625)" d="m1228 531h2203v-531h-2962v531q359 372 979 998 621 627 780 809 303 340 423 576 121 236 121 464 0 372-261 606-261 235-680 235-297 0-627-103-329-103-704-313v638q381 153 712 231 332 78 607 78 725 0 1156-363 431-362 431-968 0-288-108-546-107-257-392-607-78-91-497-524-418-433-1181-1211z"/><path id="a" transform="scale(.015625)" d="m2034 4250q-487 0-733-480-245-479-245-1442 0-959 245-1439 246-480 733-480 491 0 736 480 246 480 246 1439 0 963-246 1442-245 480-736 480zm0 500q785 0 1199-621 414-620 414-1801 0-1178-414-1799-414-620-1199-620-784 0-1198 620-414 621-414 1799 0 1181 414 1801 414 621 1198 621z"/><path id="d" transform="scale(.015625)" d="m794 531h1031v3560l-1122-225v575l1116 225h631v-4135h1031v-531h-2687v531z"/><path id="i" transform="scale(.015625)" d="m2113 2584q-425 0-674-291-248-290-248-796 0-503 248-796 249-292 674-292t673 292q248 293 248 796 0 506-248 796-248 291-673 291zm1253 1979v-575q-238 112-480 171-242 60-480 60-625 0-955-422-329-422-376-1275 184 272 462 417 279 145 613 145 703 0 1111-427 408-426 408-1160 0-719-425-1154-425-434-1131-434-810 0-1238 620-428 621-428 1799 0 1106 525 1764t1409 658q238 0 480-47t505-140z"/></defs><use xlink:href="#n"/><use x="69.140625" xlink:href="#e"/><use x="130.322266" xlink:href="#DejaVuSans-20"/><use x="162.109375" xlink:href="#b"/><use x="225.732422" xlink:href="#a"/><use x="289.355469" xlink:href="#d"/><use x="352.978516" xlink:href="#i"/></g><use x="281.28" y="609.12" stroke="#000000" stroke-width=".8" xlink:href="#j"/><g transform="translate(268.56 623.72) scale(.1 -.1)"><use xlink:href="#b"/><use x="63.623047" xlink:href="#a"/><use x="127.246094" xlink:href="#d"/><use x="190.869141" xlink:href="#i"/></g><use x="406.08" y="609.12" stroke="#000000" stroke-width=".8" xlink:href="#j"/><g transform="translate(393.36 623.72) scale(.1 -.1)"><defs><path id="s" transform="scale(.015625)" d="m525 4666h3e3v-269l-1694-4397h-659l1594 4134h-2241v532z"/></defs><use xlink:href="#b"/><use x="63.623047" xlink:href="#a"/><use x="127.246094" xlink:href="#d"/><use x="190.869141" xlink:href="#s"/></g><use x="530.88" y="609.12" stroke="#000000" stroke-width=".8" xlink:href="#j"/><g transform="translate(518.16 623.72) scale(.1 -.1)"><defs><path id="y" transform="scale(.015625)" d="m2034 2216q-450 0-708-241-257-241-257-662 0-422 257-663 258-241 708-241t709 242q260 243 260 662 0 421-258 662-257 241-711 241zm-631 268q-406 100-633 378-226 279-226 679 0 559 398 884 399 325 1092 325 697 0 1094-325t397-884q0-400-227-679-226-278-629-378 456-106 710-416 255-309 255-755 0-679-414-1042-414-362-1186-362-771 0-1186 362-414 363-414 1042 0 446 256 755 257 310 713 416zm-231 997q0-362 226-565 227-203 636-203 407 0 636 203 230 203 230 565 0 363-230 566-229 203-636 203-409 0-636-203-226-203-226-566z"/></defs><use xlink:href="#b"/><use x="63.623047" xlink:href="#a"/><use x="127.246094" xlink:href="#d"/><use x="190.869141" xlink:href="#y"/></g><use x="655.68" y="609.12" stroke="#000000" stroke-width=".8" xlink:href="#j"/><g transform="translate(642.96 623.72) scale(.1 -.1)"><defs><path id="o" transform="scale(.015625)" d="m703 97v575q238-113 481-172 244-59 479-59 625 0 954 420 330 420 377 1277-181-269-460-413-278-144-615-144-700 0-1108 423-408 424-408 1159 0 718 425 1152 425 435 1131 435 810 0 1236-621 427-620 427-1801 0-1103-524-1761-523-658-1407-658-238 0-482 47-243 47-506 141zm1256 1978q425 0 673 290 249 291 249 798 0 503-249 795-248 292-673 292t-673-292-248-795q0-507 248-798 248-290 673-290z"/></defs><use xlink:href="#b"/><use x="63.623047" xlink:href="#a"/><use x="127.246094" xlink:href="#d"/><use x="190.869141" xlink:href="#o"/></g><use x="780.48" y="609.12" stroke="#000000" stroke-width=".8" xlink:href="#j"/><g transform="translate(767.76 623.72) scale(.1 -.1)"><use xlink:href="#b"/><use x="63.623047" xlink:href="#a"/><use x="127.246094" xlink:href="#b"/><use x="190.869141" xlink:href="#a"/></g><use x="905.28" y="609.12" stroke="#000000" stroke-width=".8" xlink:href="#j"/><g transform="translate(892.56 623.72) scale(.1 -.1)"><use xlink:href="#b"/><use x="63.623047" xlink:href="#a"/><use x="127.246094" xlink:href="#b"/><use x="190.869141" xlink:href="#d"/></g><use x="1030.08" y="609.12" stroke="#000000" stroke-width=".8" xlink:href="#j"/><g transform="translate(1017.4 623.72) scale(.1 -.1)"><use xlink:href="#b"/><use x="63.623047" xlink:href="#a"/><use x="127.246094" xlink:href="#b"/><use x="190.869141" xlink:href="#b"/></g><g transform="translate(574.36 640.44) scale(.14 -.14)"><defs><path id="al" transform="scale(.015625)" d="m628 0v4666h2903v-532h-2272v-4134h-631z"/><path id="z" transform="scale(.015625)" d="m3907 3500h575v-3500h-575v3500zm288 84zm-1414-2546q0 281-205 428-204 147-598 147h-819v-1154h819q394 0 598 148 205 149 205 431zm-2200 2462h578v-1428h844q669 0 1030-255 361-254 361-779t-361-782q-361-256-1030-256h-1422v3500z"/></defs><use xlink:href="#al"/><use x="60.986328" xlink:href="#e"/><use x="122.167969" xlink:href="#n"/><use x="191.308594" xlink:href="#z"/></g><defs><path id="m" d="m0 0h-3.5" stroke="#000" stroke-width=".8"/></defs><use x="69.12" y="609.12" stroke="#000000" stroke-width=".8" xlink:href="#m"/><g transform="translate(55.758 612.92) scale(.1 -.1)"><use xlink:href="#a"/></g><use x="69.12" y="496.960057" stroke="#000000" stroke-width=".8" xlink:href="#m"/><g transform="translate(36.67 500.76) scale(.1 -.1)"><defs><path id="t" transform="scale(.015625)" d="m691 4666h2478v-532h-1900v-1143q137 47 274 70 138 23 276 23 781 0 1237-428 457-428 457-1159 0-753-469-1171-469-417-1322-417-294 0-599 50-304 50-629 150v635q281-153 581-228t634-75q541 0 856 284 316 284 316 772 0 487-316 771-315 285-856 285-253 0-505-56-251-56-513-175v2344z"/></defs><use xlink:href="#t"/><use x="63.623047" xlink:href="#a"/><use x="127.246094" xlink:href="#a"/><use x="190.869141" xlink:href="#a"/></g><use x="69.12" y="384.800113" stroke="#000000" stroke-width=".8" xlink:href="#m"/><g transform="translate(30.308 388.6) scale(.1 -.1)"><use xlink:href="#d"/><use x="63.623047" xlink:href="#a"/><use x="127.246094" xlink:href="#a"/><use x="190.869141" xlink:href="#a"/><use x="254.492188" xlink:href="#a"/></g><use x="69.12" y="272.64017" stroke="#000000" stroke-width=".8" xlink:href="#m"/><g transform="translate(30.308 276.44) scale(.1 -.1)"><use xlink:href="#d"/><use x="63.623047" xlink:href="#t"/><use x="127.246094" xlink:href="#a"/><use x="190.869141" xlink:href="#a"/><use x="254.492188" xlink:href="#a"/></g><use x="69.12" y="160.480227" stroke="#000000" stroke-width=".8" xlink:href="#m"/><g transform="translate(30.308 164.28) scale(.1 -.1)"><use xlink:href="#b"/><use x="63.623047" xlink:href="#a"/><use x="127.246094" xlink:href="#a"/><use x="190.869141" xlink:href="#a"/><use x="254.492188" xlink:href="#a"/></g><use x="69.12" y="48.320283" stroke="#000000" stroke-width=".8" xlink:href="#m"/><g transform="translate(30.308 52.12) scale(.1 -.1)"><use xlink:href="#b"/><use x="63.623047" xlink:href="#t"/><use x="127.246094" xlink:href="#a"/><use x="190.869141" xlink:href="#a"/><use x="254.492188" xlink:href="#a"/></g><g transform="translate(23.396 391.63) rotate(-90) scale(.14 -.14)"><defs><path id="ae" transform="scale(.015625)" d="m-19 4666h3947v-532h-1656v-4134h-634v4134h-1657v532z"/><path id="p" transform="scale(.015625)" d="m1159 525v-1856h-578v4831h578v-531q182 312 458 463 277 152 661 152 638 0 1036-506 399-506 399-1331t-399-1332q-398-506-1036-506-384 0-661 152-276 152-458 464zm1957 1222q0 634-261 995t-717 361q-457 0-718-361t-261-995 261-995 718-361q456 0 717 361t261 995z"/><path id="h" transform="scale(.015625)" d="m2194 1759q-697 0-966-159t-269-544q0-306 202-486 202-179 548-179 479 0 768 339t289 901v128h-572zm1147 238v-1997h-575v531q-197-318-491-470t-719-152q-537 0-855 302-317 302-317 808 0 590 395 890 396 300 1180 300h807v57q0 397-261 614t-733 217q-300 0-585-72-284-72-546-216v532q315 122 612 182 297 61 578 61 760 0 1135-394 375-393 375-1193z"/><path id="g" transform="scale(.015625)" d="m581 3500h578v-1428h1866v1428h578v-3500h-578v1613h-1866v-1613h-578v3500z"/><path id="q" transform="scale(.015625)" d="m2206 1888q388-75 603-304 216-228 216-565 0-541-403-826-403-284-1147-284-250 0-514 44t-545 131v535q222-116 487-174 266-57 556-57 472 0 736 175t264 456q0 275-234 442t-662 167h-463v475h484q363 0 574 139t211 358q0 200-218 344-217 144-588 144-222 0-474-41-251-41-555-131v522q307 75 572 112 266 38 503 38 613 0 967-246 355-245 355-686 0-290-188-492-187-201-537-276z"/><path id="l" transform="scale(.015625)" d="m3578 3500v-3500h-572v2809l-1687-2809h-738v3500h572v-2803l1685 2803h740z"/><path id="k" transform="scale(.015625)" d="m3597 1894v-281h-2644q38-594 358-905t892-311q331 0 642 81t618 244v-544q-310-131-635-200t-659-69q-838 0-1327 487-489 488-489 1320 0 859 464 1363 464 505 1252 505 706 0 1117-455 411-454 411-1235zm-575 169q-6 471-264 752-258 282-683 282-481 0-770-272t-333-766l2050 4z"/><path id="f" transform="scale(.015625)" d="m188 3500h3353v-459h-1394v-3041h-566v3041h-1393v459z"/><path id="r" transform="scale(.015625)" d="m1156 1613v-1154h819q394 0 600 148 206 149 206 431 0 281-206 428t-600 147h-819zm0 1428v-969h757q325 0 531 129 206 130 206 362 0 231-206 354-206 124-531 124h-757zm-575 459h1369q616 0 947-225t331-641q0-321-169-511-168-189-500-235 397-75 616-313 219-237 219-594 0-468-361-725-361-256-1030-256h-1422v3500z"/><path id="u" transform="scale(.015625)" d="m581 0v3500h2469v-459h-1891v-3041h-578z"/></defs><use xlink:href="#ae"/><use x="61.083984" xlink:href="#p"/><use x="124.560547" xlink:href="#h"/><use x="185.839844" xlink:href="#g"/><use x="251.220703" xlink:href="#q"/><use x="304.394531" xlink:href="#l"/><use x="369.384766" xlink:href="#k"/><use x="430.908203" xlink:href="#g"/><use x="496.289062" xlink:href="#f"/><use x="554.541016" xlink:href="#e"/><use x="615.722656" xlink:href="#r"/><use x="674.658203" xlink:href="#DejaVuSans-20"/><use x="706.445312" xlink:href="#q"/><use x="759.619141" xlink:href="#h"/><use x="820.898438" xlink:href="#DejaVuSans-20"/><use x="852.685547" xlink:href="#u"/><use x="905.224609" xlink:href="#e"/><use x="966.40625" xlink:href="#n"/></g><path d="m69.12 609.12v-579.96" fill="none" stroke="#000" stroke-linecap="square" stroke-width=".8"/><path d="m1117.4 609.12v-579.96" fill="none" stroke="#000" stroke-linecap="square" stroke-width=".8"/><path d="m69.12 609.12h1048.3" fill="none" stroke="#000" stroke-linecap="square" stroke-width=".8"/><path d="m69.12 29.16h1048.3" fill="none" stroke="#000" stroke-linecap="square" stroke-width=".8"/><g transform="translate(146.94 592.95) scale(.1 -.1)"><defs><path id="v" transform="scale(.015625)" d="m2419 4116-1594-2491h1594v2491zm-166 550h794v-3041h666v-525h-666v-1100h-628v1100h-2106v609l1940 2957z"/></defs><use xlink:href="#v"/><use x="63.623047" xlink:href="#o"/><use x="127.246094" xlink:href="#y"/></g><g transform="translate(268.56 445.55) scale(.1 -.1)"><use xlink:href="#s"/><use x="63.623047" xlink:href="#a"/><use x="127.246094" xlink:href="#i"/><use x="190.869141" xlink:href="#o"/></g><g transform="translate(393.36 433.35) scale(.1 -.1)"><defs><path id="af" transform="scale(.015625)" d="m2597 2516q453-97 707-404 255-306 255-756 0-690-475-1069-475-378-1350-378-293 0-604 58t-642 174v609q262-153 574-231 313-78 654-78 593 0 904 234t311 681q0 413-289 645-289 233-804 233h-544v519h569q465 0 712 186t247 536q0 359-255 551-254 193-729 193-260 0-557-57-297-56-653-174v562q360 100 674 150t592 50q719 0 1137-327 419-326 419-882 0-388-222-655t-631-370z"/></defs><use xlink:href="#s"/><use x="63.623047" xlink:href="#i"/><use x="127.246094" xlink:href="#d"/><use x="190.869141" xlink:href="#af"/></g><g transform="translate(518.16 400.91) scale(.1 -.1)"><use xlink:href="#o"/><use x="63.623047" xlink:href="#a"/><use x="127.246094" xlink:href="#t"/><use x="190.869141" xlink:href="#o"/></g><g transform="translate(639.77 166.99) scale(.1 -.1)"><use xlink:href="#d"/><use x="63.623047" xlink:href="#o"/><use x="127.246094" xlink:href="#v"/><use x="190.869141" xlink:href="#y"/><use x="254.492188" xlink:href="#s"/></g><g transform="translate(764.57 95.766) scale(.1 -.1)"><use xlink:href="#b"/><use x="63.623047" xlink:href="#b"/><use x="127.246094" xlink:href="#i"/><use x="190.869141" xlink:href="#i"/><use x="254.492188" xlink:href="#b"/></g><g transform="translate(889.37 51.777) scale(.1 -.1)"><use xlink:href="#b"/><use x="63.623047" xlink:href="#v"/><use x="127.246094" xlink:href="#i"/><use x="190.869141" xlink:href="#b"/><use x="254.492188" xlink:href="#af"/></g><g transform="translate(1014.2 140.99) scale(.1 -.1)"><use xlink:href="#b"/><use x="63.623047" xlink:href="#a"/><use x="127.246094" xlink:href="#i"/><use x="190.869141" xlink:href="#v"/><use x="254.492188" xlink:href="#i"/></g><g transform="translate(243.92 23.16) scale(.16 -.16)"><defs><path id="aj" transform="scale(.015625)" d="m4122 4306v-665q-319 297-680 443-361 147-767 147-800 0-1225-489t-425-1414q0-922 425-1411t1225-489q406 0 767 147t680 444v-660q-331-225-702-338-370-112-782-112-1060 0-1670 648-609 649-609 1771 0 1125 609 1773 610 649 1670 649 418 0 788-111 371-111 696-333z"/><path id="w" transform="scale(.015625)" d="m3122 3366v-538q-244 135-489 202t-495 67q-560 0-870-355-309-354-309-995t309-996q310-354 870-354 250 0 495 67t489 202v-532q-241-112-499-168-257-57-548-57-791 0-1257 497-465 497-465 1341 0 856 470 1346 471 491 1290 491 265 0 518-55 253-54 491-163z"/><path id="ac" transform="scale(.015625)" d="m581 3500h572v-1644l1622 1644h706l-1337-1353 1509-2147h-644l-1240 1766-616-625v-1141h-572v3500z"/><path id="x" transform="scale(.015625)" d="m3603 3500v-3500h-578v3041h-1866v-3041h-578v3500h3022z"/><path id="ab" transform="scale(.015625)" d="m581 3500h841l994-2344 997 2344h834v-3500h-578v2950l-966-2278h-575l-969 2278v-2950h-578v3500z"/><path id="an" transform="scale(.015625)" d="m750 794h659v-538l-512-1e3h-403l256 1e3v538z"/><path id="am" transform="scale(.015625)" d="m684 794h660v-794h-660v794z"/><path id="ak" transform="scale(.015625)" d="m1459 531h2063v3603h-1516v-662q0-1559-350-2594-72-212-197-347zm-921 0q418 197 537 572 303 963 303 2681v882h2775v-4135h531v-1534h-531v1003h-3306v-1003h-531v1534h222z"/><path id="ad" transform="scale(.015625)" d="m1991 3584q750 0 1178-488 428-487 428-1349 0-859-428-1349-428-489-1178-489-753 0-1169 475t-438 1363l-18 716q-16 371-16 500 0 500 181 868 285 578 777 828t1317 257q381 3 550 56l159-456q-153-63-293-66l-782-53q-393-28-631-166-622-365-681-843l-22-175q406 371 1066 371zm0-487q-463 0-732-361-268-361-268-989t267-989 733-361q459 0 728 362 269 363 269 988 0 622-269 986t-728 364z"/><path id="ag" transform="scale(.015625)" d="m2781 1038q0 281-205 428-204 147-598 147h-819v-1154h819q394 0 598 148 205 149 205 431zm-2200 2462h578v-1428h844q669 0 1030-255 361-254 361-779t-361-782q-361-256-1030-256h-1422v3500z"/></defs><use xlink:href="#aj"/><use x="69.824219" xlink:href="#f"/><use x="128.076172" xlink:href="#h"/><use x="189.355469" xlink:href="#f"/><use x="247.607422" xlink:href="#l"/><use x="312.597656" xlink:href="#w"/><use x="367.578125" xlink:href="#f"/><use x="425.830078" xlink:href="#l"/><use x="490.820312" xlink:href="#ac"/><use x="551.220703" xlink:href="#h"/><use x="612.5" xlink:href="#DejaVuSans-20"/><use x="644.287109" xlink:href="#f"/><use x="702.539062" xlink:href="#p"/><use x="766.015625" xlink:href="#h"/><use x="827.294922" xlink:href="#g"/><use x="892.675781" xlink:href="#q"/><use x="945.849609" xlink:href="#l"/><use x="1010.839844" xlink:href="#k"/><use x="1072.363281" xlink:href="#g"/><use x="1137.744141" xlink:href="#f"/><use x="1195.996094" xlink:href="#e"/><use x="1257.177734" xlink:href="#r"/><use x="1316.113281" xlink:href="#DejaVuSans-20"/><use x="1347.900391" xlink:href="#x"/><use x="1413.28125" xlink:href="#e"/><use x="1474.462891" xlink:href="#DejaVuSans-20"/><use x="1506.25" xlink:href="#u"/><use x="1558.789062" xlink:href="#e"/><use x="1619.970703" xlink:href="#n"/><use x="1689.111328" xlink:href="#h"/><use x="1750.390625" xlink:href="#ab"/><use x="1825.830078" xlink:href="#an"/><use x="1857.617188" xlink:href="#DejaVuSans-20"/><use x="1889.404297" xlink:href="#r"/><use x="1948.339844" xlink:href="#w"/><use x="2003.320312" xlink:href="#k"/><use x="2064.84375" xlink:href="#u"/><use x="2117.382812" xlink:href="#e"/><use x="2178.564453" xlink:href="#DejaVuSans-20"/><use x="2210.351562" xlink:href="#d"/><use x="2273.974609" xlink:href="#d"/><use x="2337.597656" xlink:href="#d"/><use x="2401.220703" xlink:href="#i"/><use x="2464.84375" xlink:href="#t"/><use x="2528.466797" xlink:href="#s"/><use x="2592.089844" xlink:href="#DejaVuSans-20"/><use x="2623.876953" xlink:href="#f"/><use x="2682.128906" xlink:href="#p"/><use x="2745.605469" xlink:href="#h"/><use x="2806.884766" xlink:href="#g"/><use x="2872.265625" xlink:href="#q"/><use x="2925.439453" xlink:href="#l"/><use x="2990.429688" xlink:href="#k"/><use x="3051.953125" xlink:href="#g"/><use x="3117.333984" xlink:href="#f"/><use x="3175.585938" xlink:href="#e"/><use x="3236.767578" xlink:href="#r"/><use x="3295.703125" xlink:href="#am"/><use x="3327.490234" xlink:href="#DejaVuSans-20"/><use x="3359.277344" xlink:href="#ak"/><use x="3437.402344" xlink:href="#k"/><use x="3498.925781" xlink:href="#ac"/><use x="3559.326172" xlink:href="#h"/><use x="3620.605469" xlink:href="#ad"/><use x="3682.275391" xlink:href="#p"/><use x="3745.751953" xlink:href="#ag"/><use x="3804.6875" xlink:href="#DejaVuSans-20"/><use x="3836.474609" xlink:href="#b"/><use x="3900.097656" xlink:href="#a"/><use x="3963.720703" xlink:href="#b"/><use x="4027.34375" xlink:href="#b"/><use x="4090.966797" xlink:href="#DejaVuSans-20"/><use x="4122.753906" xlink:href="#u"/><use x="4175.292969" xlink:href="#e"/><use x="4236.474609" xlink:href="#n"/><use x="4305.615234" xlink:href="#h"/></g><path d="m78.92 61.148h318.13q2.8 0 2.8-2.8v-19.388q0-2.8-2.8-2.8h-318.13q-2.8 0-2.8 2.8v19.388q0 2.8 2.8 2.8z" fill="#fff" opacity=".8" stroke="#ccc"/><path d="m81.72 52.636h28v-9.8h-28z" fill="#ff7f0e"/><g transform="translate(120.92 52.636) scale(.14 -.14)"><defs><path id="aa" transform="scale(.015625)" d="m2059-325q-243-625-475-815-231-191-618-191h-460v481h338q237 0 368 113 132 112 291 531l103 262-1415 3444h609l1094-2737 1094 2737h609l-1538-3825z"/><path id="ai" transform="scale(.015625)" d="m238 0v478q568 88 743 481 213 554 213 1969v572h2365v-3500h-575v3041h-1215v-347q0-1350-275-1956-294-647-1256-738z"/><path id="ah" transform="scale(.015625)" d="m2625 0v1472h-1072q-478 0-797 297-287 269-287 844v887h575v-834q0-366 162-550 166-185 491-185h928v1569h575v-3500h-575z"/></defs><use xlink:href="#ae"/><use x="61.083984" xlink:href="#p"/><use x="124.560547" xlink:href="#h"/><use x="185.839844" xlink:href="#g"/><use x="251.220703" xlink:href="#q"/><use x="304.394531" xlink:href="#l"/><use x="369.384766" xlink:href="#k"/><use x="430.908203" xlink:href="#g"/><use x="496.289062" xlink:href="#f"/><use x="554.541016" xlink:href="#z"/><use x="633.496094" xlink:href="#DejaVuSans-20"/><use x="665.283203" xlink:href="#g"/><use x="730.664062" xlink:href="#k"/><use x="792.1875" xlink:href="#DejaVuSans-20"/><use x="823.974609" xlink:href="#r"/><use x="882.910156" xlink:href="#DejaVuSans-20"/><use x="914.697266" xlink:href="#x"/><use x="980.078125" xlink:href="#aa"/><use x="1039.257812" xlink:href="#ad"/><use x="1100.927734" xlink:href="#ai"/><use x="1164.84375" xlink:href="#l"/><use x="1229.833984" xlink:href="#ah"/><use x="1288.916016" xlink:href="#g"/><use x="1354.296875" xlink:href="#e"/><use x="1415.478516" xlink:href="#ab"/><use x="1490.917969" xlink:href="#DejaVuSans-20"/><use x="1522.705078" xlink:href="#n"/><use x="1591.845703" xlink:href="#e"/><use x="1653.027344" xlink:href="#w"/><use x="1708.007812" xlink:href="#f"/><use x="1766.259766" xlink:href="#aa"/><use x="1825.439453" xlink:href="#x"/><use x="1890.820312" xlink:href="#k"/></g><defs><clipPath id="c"><rect x="69.12" y="29.16" width="1048.3" height="579.96"/></clipPath></defs></svg>
