<?xml version="1.0" encoding="UTF-8"?>
<!DOCTYPE svg  PUBLIC '-//W3C//DTD SVG 1.1//EN'  'http://www.w3.org/Graphics/SVG/1.1/DTD/svg11.dtd'>
<svg width="1152pt" height="648pt" version="1.1" viewBox="0 0 1152 648" xmlns="http://www.w3.org/2000/svg" xmlns:xlink="http://www.w3.org/1999/xlink"><defs><style type="text/css">*{stroke-linejoin: round; stroke-linecap: butt}</style></defs><path d="m0 648h1152v-648h-1152z" fill="#fff"/><path d="m69.12 609.12h1048.3v-579.96h-1048.3z" fill="#fff"/><path d="m103.84 609.12v-579.96" clip-path="url(#d)" fill="none" stroke="#b0b0b0" stroke-dasharray="0.8,1.32" stroke-width=".8"/><defs><path id="j" d="m0 0v3.5" stroke="#000" stroke-width=".8"/></defs><use x="103.839397" y="609.12" stroke="#000000" stroke-width=".8" xlink:href="#j"/><g transform="translate(91.114 623.72) scale(.1 -.1)"><defs><path id="e" transform="scale(.015625)" d="m1228 531h2203v-531h-2962v531q359 372 979 998 621 627 780 809 303 340 423 576 121 236 121 464 0 372-261 606-261 235-680 235-297 0-627-103-329-103-704-313v638q381 153 712 231 332 78 607 78 725 0 1156-363 431-362 431-968 0-288-108-546-107-257-392-607-78-91-497-524-418-433-1181-1211z"/><path id="b" transform="scale(.015625)" d="m2034 4250q-487 0-733-480-245-479-245-1442 0-959 245-1439 246-480 733-480 491 0 736 480 246 480 246 1439 0 963-246 1442-245 480-736 480zm0 500q785 0 1199-621 414-620 414-1801 0-1178-414-1799-414-620-1199-620-784 0-1198 620-414 621-414 1799 0 1181 414 1801 414 621 1198 621z"/><path id="h" transform="scale(.015625)" d="m794 531h1031v3560l-1122-225v575l1116 225h631v-4135h1031v-531h-2687v531z"/></defs><use xlink:href="#e"/><use x="63.623047" xlink:href="#b"/><use x="127.246094" xlink:href="#h"/><use x="190.869141" xlink:href="#b"/></g><path d="m178.38 609.12v-579.96" clip-path="url(#d)" fill="none" stroke="#b0b0b0" stroke-dasharray="0.8,1.32" stroke-width=".8"/><use x="178.383984" y="609.12" stroke="#000000" stroke-width=".8" xlink:href="#j"/><g transform="translate(165.66 623.72) scale(.1 -.1)"><use xlink:href="#e"/><use x="63.623047" xlink:href="#b"/><use x="127.246094" xlink:href="#h"/><use x="190.869141" xlink:href="#h"/></g><path d="m252.93 609.12v-579.96" clip-path="url(#d)" fill="none" stroke="#b0b0b0" stroke-dasharray="0.8,1.32" stroke-width=".8"/><use x="252.928571" y="609.12" stroke="#000000" stroke-width=".8" xlink:href="#j"/><g transform="translate(240.2 623.72) scale(.1 -.1)"><use xlink:href="#e"/><use x="63.623047" xlink:href="#b"/><use x="127.246094" xlink:href="#h"/><use x="190.869141" xlink:href="#e"/></g><path d="m327.68 609.12v-579.96" clip-path="url(#d)" fill="none" stroke="#b0b0b0" stroke-dasharray="0.8,1.32" stroke-width=".8"/><use x="327.67739" y="609.12" stroke="#000000" stroke-width=".8" xlink:href="#j"/><g transform="translate(314.95 623.72) scale(.1 -.1)"><defs><path id="x" transform="scale(.015625)" d="m2597 2516q453-97 707-404 255-306 255-756 0-690-475-1069-475-378-1350-378-293 0-604 58t-642 174v609q262-153 574-231 313-78 654-78 593 0 904 234t311 681q0 413-289 645-289 233-804 233h-544v519h569q465 0 712 186t247 536q0 359-255 551-254 193-729 193-260 0-557-57-297-56-653-174v562q360 100 674 150t592 50q719 0 1137-327 419-326 419-882 0-388-222-655t-631-370z"/></defs><use xlink:href="#e"/><use x="63.623047" xlink:href="#b"/><use x="127.246094" xlink:href="#h"/><use x="190.869141" xlink:href="#x"/></g><path d="m402.22 609.12v-579.96" clip-path="url(#d)" fill="none" stroke="#b0b0b0" stroke-dasharray="0.8,1.32" stroke-width=".8"/><use x="402.221977" y="609.12" stroke="#000000" stroke-width=".8" xlink:href="#j"/><g transform="translate(389.5 623.72) scale(.1 -.1)"><defs><path id="bc" transform="scale(.015625)" d="m2419 4116-1594-2491h1594v2491zm-166 550h794v-3041h666v-525h-666v-1100h-628v1100h-2106v609l1940 2957z"/></defs><use xlink:href="#e"/><use x="63.623047" xlink:href="#b"/><use x="127.246094" xlink:href="#h"/><use x="190.869141" xlink:href="#bc"/></g><path d="m476.77 609.12v-579.96" clip-path="url(#d)" fill="none" stroke="#b0b0b0" stroke-dasharray="0.8,1.32" stroke-width=".8"/><use x="476.766564" y="609.12" stroke="#000000" stroke-width=".8" xlink:href="#j"/><g transform="translate(464.04 623.72) scale(.1 -.1)"><defs><path id="t" transform="scale(.015625)" d="m691 4666h2478v-532h-1900v-1143q137 47 274 70 138 23 276 23 781 0 1237-428 457-428 457-1159 0-753-469-1171-469-417-1322-417-294 0-599 50-304 50-629 150v635q281-153 581-228t634-75q541 0 856 284 316 284 316 772 0 487-316 771-315 285-856 285-253 0-505-56-251-56-513-175v2344z"/></defs><use xlink:href="#e"/><use x="63.623047" xlink:href="#b"/><use x="127.246094" xlink:href="#h"/><use x="190.869141" xlink:href="#t"/></g><path d="m551.31 609.12v-579.96" clip-path="url(#d)" fill="none" stroke="#b0b0b0" stroke-dasharray="0.8,1.32" stroke-width=".8"/><use x="551.311152" y="609.12" stroke="#000000" stroke-width=".8" xlink:href="#j"/><g transform="translate(538.59 623.72) scale(.1 -.1)"><defs><path id="bt" transform="scale(.015625)" d="m2113 2584q-425 0-674-291-248-290-248-796 0-503 248-796 249-292 674-292t673 292q248 293 248 796 0 506-248 796-248 291-673 291zm1253 1979v-575q-238 112-480 171-242 60-480 60-625 0-955-422-329-422-376-1275 184 272 462 417 279 145 613 145 703 0 1111-427 408-426 408-1160 0-719-425-1154-425-434-1131-434-810 0-1238 620-428 621-428 1799 0 1106 525 1764t1409 658q238 0 480-47t505-140z"/></defs><use xlink:href="#e"/><use x="63.623047" xlink:href="#b"/><use x="127.246094" xlink:href="#h"/><use x="190.869141" xlink:href="#bt"/></g><path d="m626.06 609.12v-579.96" clip-path="url(#d)" fill="none" stroke="#b0b0b0" stroke-dasharray="0.8,1.32" stroke-width=".8"/><use x="626.05997" y="609.12" stroke="#000000" stroke-width=".8" xlink:href="#j"/><g transform="translate(613.33 623.72) scale(.1 -.1)"><defs><path id="ae" transform="scale(.015625)" d="m525 4666h3e3v-269l-1694-4397h-659l1594 4134h-2241v532z"/></defs><use xlink:href="#e"/><use x="63.623047" xlink:href="#b"/><use x="127.246094" xlink:href="#h"/><use x="190.869141" xlink:href="#ae"/></g><path d="m700.6 609.12v-579.96" clip-path="url(#d)" fill="none" stroke="#b0b0b0" stroke-dasharray="0.8,1.32" stroke-width=".8"/><use x="700.604558" y="609.12" stroke="#000000" stroke-width=".8" xlink:href="#j"/><g transform="translate(687.88 623.72) scale(.1 -.1)"><defs><path id="bb" transform="scale(.015625)" d="m2034 2216q-450 0-708-241-257-241-257-662 0-422 257-663 258-241 708-241t709 242q260 243 260 662 0 421-258 662-257 241-711 241zm-631 268q-406 100-633 378-226 279-226 679 0 559 398 884 399 325 1092 325 697 0 1094-325t397-884q0-400-227-679-226-278-629-378 456-106 710-416 255-309 255-755 0-679-414-1042-414-362-1186-362-771 0-1186 362-414 363-414 1042 0 446 256 755 257 310 713 416zm-231 997q0-362 226-565 227-203 636-203 407 0 636 203 230 203 230 565 0 363-230 566-229 203-636 203-409 0-636-203-226-203-226-566z"/></defs><use xlink:href="#e"/><use x="63.623047" xlink:href="#b"/><use x="127.246094" xlink:href="#h"/><use x="190.869141" xlink:href="#bb"/></g><path d="m775.15 609.12v-579.96" clip-path="url(#d)" fill="none" stroke="#b0b0b0" stroke-dasharray="0.8,1.32" stroke-width=".8"/><use x="775.149145" y="609.12" stroke="#000000" stroke-width=".8" xlink:href="#j"/><g transform="translate(762.42 623.72) scale(.1 -.1)"><defs><path id="bs" transform="scale(.015625)" d="m703 97v575q238-113 481-172 244-59 479-59 625 0 954 420 330 420 377 1277-181-269-460-413-278-144-615-144-700 0-1108 423-408 424-408 1159 0 718 425 1152 425 435 1131 435 810 0 1236-621 427-620 427-1801 0-1103-524-1761-523-658-1407-658-238 0-482 47-243 47-506 141zm1256 1978q425 0 673 290 249 291 249 798 0 503-249 795-248 292-673 292t-673-292-248-795q0-507 248-798 248-290 673-290z"/></defs><use xlink:href="#e"/><use x="63.623047" xlink:href="#b"/><use x="127.246094" xlink:href="#h"/><use x="190.869141" xlink:href="#bs"/></g><path d="m849.69 609.12v-579.96" clip-path="url(#d)" fill="none" stroke="#b0b0b0" stroke-dasharray="0.8,1.32" stroke-width=".8"/><use x="849.693732" y="609.12" stroke="#000000" stroke-width=".8" xlink:href="#j"/><g transform="translate(836.97 623.72) scale(.1 -.1)"><use xlink:href="#e"/><use x="63.623047" xlink:href="#b"/><use x="127.246094" xlink:href="#e"/><use x="190.869141" xlink:href="#b"/></g><path d="m924.44 609.12v-579.96" clip-path="url(#d)" fill="none" stroke="#b0b0b0" stroke-dasharray="0.8,1.32" stroke-width=".8"/><use x="924.442551" y="609.12" stroke="#000000" stroke-width=".8" xlink:href="#j"/><g transform="translate(911.72 623.72) scale(.1 -.1)"><use xlink:href="#e"/><use x="63.623047" xlink:href="#b"/><use x="127.246094" xlink:href="#e"/><use x="190.869141" xlink:href="#h"/></g><path d="m998.99 609.12v-579.96" clip-path="url(#d)" fill="none" stroke="#b0b0b0" stroke-dasharray="0.8,1.32" stroke-width=".8"/><use x="998.987138" y="609.12" stroke="#000000" stroke-width=".8" xlink:href="#j"/><g transform="translate(986.26 623.72) scale(.1 -.1)"><use xlink:href="#e"/><use x="63.623047" xlink:href="#b"/><use x="127.246094" xlink:href="#e"/><use x="190.869141" xlink:href="#e"/></g><path d="m1073.5 609.12v-579.96" clip-path="url(#d)" fill="none" stroke="#b0b0b0" stroke-dasharray="0.8,1.32" stroke-width=".8"/><use x="1073.531725" y="609.12" stroke="#000000" stroke-width=".8" xlink:href="#j"/><g transform="translate(1060.8 623.72) scale(.1 -.1)"><use xlink:href="#e"/><use x="63.623047" xlink:href="#b"/><use x="127.246094" xlink:href="#e"/><use x="190.869141" xlink:href="#x"/></g><g transform="translate(579.89 640.44) scale(.14 -.14)"><defs><path id="bq" transform="scale(.015625)" d="m628 0v4666h2903v-532h-2272v-4134h-631z"/><path id="k" transform="scale(.015625)" d="m1959 3097q-462 0-731-361t-269-989 267-989q268-361 733-361 460 0 728 362 269 363 269 988 0 622-269 986-268 364-728 364zm0 487q750 0 1178-488 429-487 429-1349 0-859-429-1349-428-489-1178-489-753 0-1180 489-426 490-426 1349 0 862 426 1349 427 488 1180 488z"/><path id="m" transform="scale(.015625)" d="m1384 459h1669v2582h-1209v-438q0-1287-369-1975l-91-169zm-834 0q284 125 409 391 307 659 307 1988v662h2365v-3041h460v-1343h-460v884h-2837v-884h-460v1343h216z"/></defs><use xlink:href="#bq"/><use x="60.986328" xlink:href="#k"/><use x="122.167969" xlink:href="#m"/></g><path d="m69.12 609.12h1048.3" clip-path="url(#d)" fill="none" stroke="#b0b0b0" stroke-dasharray="2.96,1.28" stroke-width=".8"/><defs><path id="z" d="m0 0h-3.5" stroke="#000" stroke-width=".8"/></defs><use x="69.12" y="609.12" stroke="#000000" stroke-width=".8" xlink:href="#z"/><g transform="translate(55.758 612.92) scale(.1 -.1)"><use xlink:href="#b"/></g><path d="m69.12 485.06h1048.3" clip-path="url(#d)" fill="none" stroke="#b0b0b0" stroke-dasharray="2.96,1.28" stroke-width=".8"/><use x="69.12" y="485.056689" stroke="#000000" stroke-width=".8" xlink:href="#z"/><g transform="translate(43.032 488.86) scale(.1 -.1)"><use xlink:href="#t"/><use x="63.623047" xlink:href="#b"/><use x="127.246094" xlink:href="#b"/></g><path d="m69.12 360.99h1048.3" clip-path="url(#d)" fill="none" stroke="#b0b0b0" stroke-dasharray="2.96,1.28" stroke-width=".8"/><use x="69.12" y="360.993378" stroke="#000000" stroke-width=".8" xlink:href="#z"/><g transform="translate(36.67 364.79) scale(.1 -.1)"><use xlink:href="#h"/><use x="63.623047" xlink:href="#b"/><use x="127.246094" xlink:href="#b"/><use x="190.869141" xlink:href="#b"/></g><path d="m69.12 236.93h1048.3" clip-path="url(#d)" fill="none" stroke="#b0b0b0" stroke-dasharray="2.96,1.28" stroke-width=".8"/><use x="69.12" y="236.930067" stroke="#000000" stroke-width=".8" xlink:href="#z"/><g transform="translate(36.67 240.73) scale(.1 -.1)"><use xlink:href="#h"/><use x="63.623047" xlink:href="#t"/><use x="127.246094" xlink:href="#b"/><use x="190.869141" xlink:href="#b"/></g><path d="m69.12 112.87h1048.3" clip-path="url(#d)" fill="none" stroke="#b0b0b0" stroke-dasharray="2.96,1.28" stroke-width=".8"/><use x="69.12" y="112.866756" stroke="#000000" stroke-width=".8" xlink:href="#z"/><g transform="translate(36.67 116.67) scale(.1 -.1)"><use xlink:href="#e"/><use x="63.623047" xlink:href="#b"/><use x="127.246094" xlink:href="#b"/><use x="190.869141" xlink:href="#b"/></g><path d="m69.12 547.09h1048.3" clip-path="url(#d)" fill="none" stroke="#b0b0b0" stroke-dasharray="0.8,1.32" stroke-width=".8"/><defs><path id="y" d="m0 0h-2" stroke="#000" stroke-width=".6"/></defs><use x="69.12" y="547.088345" stroke="#000000" stroke-width=".6" xlink:href="#y"/><path d="m69.12 423.03h1048.3" clip-path="url(#d)" fill="none" stroke="#b0b0b0" stroke-dasharray="0.8,1.32" stroke-width=".8"/><use x="69.12" y="423.025034" stroke="#000000" stroke-width=".6" xlink:href="#y"/><path d="m69.12 298.96h1048.3" clip-path="url(#d)" fill="none" stroke="#b0b0b0" stroke-dasharray="0.8,1.32" stroke-width=".8"/><use x="69.12" y="298.961723" stroke="#000000" stroke-width=".6" xlink:href="#y"/><path d="m69.12 174.9h1048.3" clip-path="url(#d)" fill="none" stroke="#b0b0b0" stroke-dasharray="0.8,1.32" stroke-width=".8"/><use x="69.12" y="174.898412" stroke="#000000" stroke-width=".6" xlink:href="#y"/><path d="m69.12 50.835h1048.3" clip-path="url(#d)" fill="none" stroke="#b0b0b0" stroke-dasharray="0.8,1.32" stroke-width=".8"/><use x="69.12" y="50.835101" stroke="#000000" stroke-width=".6" xlink:href="#y"/><g transform="translate(29.758 462.89) rotate(-90) scale(.14 -.14)"><defs><path id="ad" transform="scale(.015625)" d="m628 4666h631v-2307l2257 2307h809l-1803-1844 1897-2822h-688l-1618 2403-854-872v-1531h-631v4666z"/><path id="ac" transform="scale(.015625)" d="m238 0v478q568 88 743 481 213 554 213 1969v572h2365v-3500h-575v3041h-1215v-347q0-1350-275-1956-294-647-1256-738z"/><path id="p" transform="scale(.015625)" d="m3578 3500v-3500h-572v2809l-1687-2809h-738v3500h572v-2803l1685 2803h740z"/><path id="ak" transform="scale(.015625)" d="m2625 0v1472h-1072q-478 0-797 297-287 269-287 844v887h575v-834q0-366 162-550 166-185 491-185h928v1569h575v-3500h-575z"/><path id="c" transform="scale(.015625)" d="m3597 1894v-281h-2644q38-594 358-905t892-311q331 0 642 81t618 244v-544q-310-131-635-200t-659-69q-838 0-1327 487-489 488-489 1320 0 859 464 1363 464 505 1252 505 706 0 1117-455 411-454 411-1235zm-575 169q-6 471-264 752-258 282-683 282-481 0-770-272t-333-766l2050 4z"/><path id="o" transform="scale(.015625)" d="m3122 3366v-538q-244 135-489 202t-495 67q-560 0-870-355-309-354-309-995t309-996q310-354 870-354 250 0 495 67t489 202v-532q-241-112-499-168-257-57-548-57-791 0-1257 497-465 497-465 1341 0 856 470 1346 471 491 1290 491 265 0 518-55 253-54 491-163z"/><path id="r" transform="scale(.015625)" d="m188 3500h3353v-459h-1394v-3041h-566v3041h-1393v459z"/><path id="g" transform="scale(.015625)" d="m1156 1613v-1154h819q394 0 600 148 206 149 206 431 0 281-206 428t-600 147h-819zm0 1428v-969h757q325 0 531 129 206 130 206 362 0 231-206 354-206 124-531 124h-757zm-575 459h1369q616 0 947-225t331-641q0-321-169-511-168-189-500-235 397-75 616-313 219-237 219-594 0-468-361-725-361-256-1030-256h-1422v3500z"/><path id="v" transform="scale(.015625)" d="m3603 3500v-3500h-578v3041h-1866v-3041h-578v3500h3022z"/><path id="q" transform="scale(.015625)" d="m1159 525v-1856h-578v4831h578v-531q182 312 458 463 277 152 661 152 638 0 1036-506 399-506 399-1331t-399-1332q-398-506-1036-506-384 0-661 152-276 152-458 464zm1957 1222q0 634-261 995t-717 361q-457 0-718-361t-261-995 261-995 718-361q456 0 717 361t261 995z"/><path id="w" transform="scale(.015625)" d="m581 3500h841l994-2344 997 2344h834v-3500h-578v2950l-966-2278h-575l-969 2278v-2950h-578v3500z"/><path id="f" transform="scale(.015625)" d="m581 3500h578v-1428h1866v1428h578v-3500h-578v1613h-1866v-1613h-578v3500z"/><path id="l" transform="scale(.015625)" d="m3907 3500h575v-3500h-575v3500zm288 84zm-1414-2546q0 281-205 428-204 147-598 147h-819v-1154h819q394 0 598 148 205 149 205 431zm-2200 2462h578v-1428h844q669 0 1030-255 361-254 361-779t-361-782q-361-256-1030-256h-1422v3500z"/><path id="u" transform="scale(.015625)" d="m3513 3500-1266-1703 1331-1797h-678l-1019 1375-1018-1375h-679l1360 1831-1244 1669h678l928-1247 928 1247h679z"/><path id="i" transform="scale(.015625)" d="m2206 1888q388-75 603-304 216-228 216-565 0-541-403-826-403-284-1147-284-250 0-514 44t-545 131v535q222-116 487-174 266-57 556-57 472 0 736 175t264 456q0 275-234 442t-662 167h-463v475h484q363 0 574 139t211 358q0 200-218 344-217 144-588 144-222 0-474-41-251-41-555-131v522q307 75 572 112 266 38 503 38 613 0 967-246 355-245 355-686 0-290-188-492-187-201-537-276z"/><path id="bv" transform="scale(.015625)" d="m1984 4856q-418-718-622-1422-203-703-203-1425 0-721 205-1429t620-1424h-500q-468 735-701 1444t-233 1409q0 697 231 1403 232 707 703 1444h500z"/><path id="bj" transform="scale(.015625)" d="m1181 2491q0-260 200-407 200-146 572-146h775v1103h-775q-372 0-572-144t-200-406zm-818-2491 1068 1534q-362 82-603 296-240 214-240 661 0 506 335 757 336 252 1015 252h1368v-3500h-578v1478h-715l-1032-1478h-618z"/><path id="bu" transform="scale(.015625)" d="m513 4856h500q468-737 701-1444 233-706 233-1403 0-700-233-1409t-701-1444h-500q415 716 620 1424t205 1429q0 722-205 1425-205 704-620 1422z"/></defs><use xlink:href="#ad"/><use x="70.996094" xlink:href="#k"/><use x="132.177734" xlink:href="#ac"/><use x="196.09375" xlink:href="#p"/><use x="261.083984" xlink:href="#ak"/><use x="320.166016" xlink:href="#c"/><use x="381.689453" xlink:href="#o"/><use x="436.669922" xlink:href="#r"/><use x="494.921875" xlink:href="#g"/><use x="553.857422" xlink:href="#k"/><use x="615.039062" xlink:href="#DejaVuSans-20"/><use x="646.826172" xlink:href="#v"/><use x="712.207031" xlink:href="#c"/><use x="773.730469" xlink:href="#q"/><use x="837.207031" xlink:href="#c"/><use x="898.730469" xlink:href="#w"/><use x="974.169922" xlink:href="#c"/><use x="1035.693359" xlink:href="#f"/><use x="1101.074219" xlink:href="#f"/><use x="1166.455078" xlink:href="#l"/><use x="1245.410156" xlink:href="#u"/><use x="1304.589844" xlink:href="#DejaVuSans-20"/><use x="1336.376953" xlink:href="#i"/><use x="1389.550781" xlink:href="#g"/><use x="1448.486328" xlink:href="#c"/><use x="1510.009766" xlink:href="#i"/><use x="1563.183594" xlink:href="#m"/><use x="1632.324219" xlink:href="#DejaVuSans-20"/><use x="1664.111328" xlink:href="#bv"/><use x="1703.125" xlink:href="#r"/><use x="1761.376953" xlink:href="#l"/><use x="1840.332031" xlink:href="#o"/><use x="1895.3125" xlink:href="#bj"/><use x="1955.46875" xlink:href="#ak"/><use x="2014.550781" xlink:href="#bu"/></g><path d="m81.374 564.9 8.5777-0.079649 1.4296 1.6342 1.4296-1.6513 25.733-0.038212 1.4296-0.11984 18.585-0.062528 1.4296-0.39055 8.5777-0.049377 1.4296-0.31984 4.2889-0.035482 15.726-0.12729 4.2889-0.070468 4.2889-0.009428 1.4296 0.38658 5.7185 0.054588 1.4296-0.22852 4.2889 0.021835 1.4296-0.12704 1.4296-0.001985 1.4296-0.5955 14.296 0.071957 1.4296-3.0877 4.2889-0.007195 1.4296-0.15781 30.022-0.2387 4.2889-0.27219 1.4296-0.73991 4.2889-0.020843 1.4296-0.28138 1.4296-0.004467 1.4296-0.24589 12.867-0.16773 1.4296-0.74264 8.5777-0.13151 1.4296-0.060543 1.4296-0.52305 24.304-0.19974 4.2889-0.054092 1.4296-0.14069 10.007-0.14019 1.4296-2.288 11.437-0.11215 2.8592-0.12059 1.4296-2.48e-4 1.4296-0.40767 2.8592-0.010173 1.4296-1.2148 1.4296-0.001985 1.4296-0.21116 4.2889-0.027046 4.2889-0.088829 1.4296-0.001489 1.4296-2.7917 7.1481-0.13002 1.4296-1.0411 4.2889-0.046648 1.4296-8.1477 4.2889-0.09801 4.4931-0.086596 1.2254-0.48434 23.078-0.20793 1.4296-0.11637 17.155-0.12257 5.7185-9.5191 50.037-0.21711 14.296-0.074438 1.4296-2.1262 41.459-0.25358 1.4296-1.7227 5.9227-0.14168 2.655-12.772 28.592-0.21264 1.4296-0.39254 1.4296-0.004466 1.4296-0.36375 20.015-0.13324 2.8592-0.12927 4.6973-0.058558 1.0212-0.22679 20.015-0.2181 7.1481-0.18585 1.4296 1.0225 12.867-0.049377 4.2889-0.30594 1.4296-8.2981 15.726-0.1124 1.4296-7.9793 11.437-0.13945 3.0635-2.1952 4.0846-0.061287 8.5777-0.19379 1.4296-13.021 4.2889-0.061288 2.8592 0.22083 1.4296-0.85058 7.1481-0.056077 1.6339-2.2237 15.522-0.12208 1.4296-0.3511 8.5777-0.17592 1.4296-0.16004 15.726-0.1923 1.4296-0.097514 2.8592-0.029031 5.9227-14.335 9.8031-0.10248 1.4296-0.57814 14.5-0.24763 1.2254-0.49849 3.0635-0.029279 1.2254-3.2055 7.3523-33.602 1.2254 4.4913 10.007-0.10794 1.4296-102.62 1.4296-59.193 7.1481-0.21463 1.6339-0.014888 11.233-10.058 10.007-0.13002 1.4296-0.52404 1.8381-0.036971 2.4508-0.16178 11.437-0.055084 3.0635-0.34539 18.381-0.16451 4.2889-0.29006 2.8592-164.94 2.8592-0.25185 28.592-0.31214 2.8592-0.34241 8.5777-0.15309 2.8592-0.894 2.8592-0.28758 5.7185-0.13002 21.444-0.45581 12.867-0.083123 25.937-0.41462 8.3735 0.013895 23.487-29.104h0.20423l7.7608-0.13473 17.155-0.16029 10.62-10.189 16.541-0.099251" clip-path="url(#d)" fill="none" stroke="#f00" stroke-dasharray="5.55,2.4" stroke-width="1.5"/><defs><path id="a" d="m0 1.5c0.3978 0 0.77937-0.15805 1.0607-0.43934 0.28129-0.28129 0.43934-0.66286 0.43934-1.0607s-0.15805-0.77937-0.43934-1.0607c-0.28129-0.28129-0.66286-0.43934-1.0607-0.43934s-0.77937 0.15805-1.0607 0.43934c-0.28129 0.28129-0.43934 0.66286-0.43934 1.0607s0.15805 0.77937 0.43934 1.0607c0.28129 0.28129 0.66286 0.43934 1.0607 0.43934z" stroke="#f00"/></defs><g clip-path="url(#d)" fill="#ff0000" stroke="#ff0000"><use x="81.373905" y="564.903836" xlink:href="#a"/><use x="84.233149" y="564.89937" xlink:href="#a"/><use x="88.522016" y="564.825428" xlink:href="#a"/><use x="89.951638" y="564.824187" xlink:href="#a"/><use x="91.38126" y="566.458349" xlink:href="#a"/><use x="92.810882" y="564.807067" xlink:href="#a"/><use x="94.240505" y="564.804833" xlink:href="#a"/><use x="95.670127" y="564.790442" xlink:href="#a"/><use x="97.099749" y="564.78945" xlink:href="#a"/><use x="98.529371" y="564.787465" xlink:href="#a"/><use x="99.958994" y="564.749253" xlink:href="#a"/><use x="105.677482" y="564.737839" xlink:href="#a"/><use x="109.966349" y="564.74305" xlink:href="#a"/><use x="114.255216" y="564.718982" xlink:href="#a"/><use x="115.684838" y="564.718982" xlink:href="#a"/><use x="118.544082" y="564.768855" xlink:href="#a"/><use x="119.973705" y="564.64901" xlink:href="#a"/><use x="123.037181" y="564.650499" xlink:href="#a"/><use x="127.121816" y="564.628167" xlink:href="#a"/><use x="128.551438" y="564.625686" xlink:href="#a"/><use x="132.840305" y="564.614272" xlink:href="#a"/><use x="134.269927" y="564.581768" xlink:href="#a"/><use x="135.699549" y="564.594174" xlink:href="#a"/><use x="137.129171" y="564.593926" xlink:href="#a"/><use x="138.558794" y="564.586482" xlink:href="#a"/><use x="139.988416" y="564.195931" xlink:href="#a"/><use x="141.418038" y="564.177569" xlink:href="#a"/><use x="142.84766" y="564.168637" xlink:href="#a"/><use x="145.706905" y="564.158712" xlink:href="#a"/><use x="147.136527" y="564.150772" xlink:href="#a"/><use x="148.566149" y="564.146554" xlink:href="#a"/><use x="149.995771" y="563.826718" xlink:href="#a"/><use x="151.425394" y="563.782304" xlink:href="#a"/><use x="152.855016" y="563.79868" xlink:href="#a"/><use x="154.284638" y="563.791236" xlink:href="#a"/><use x="155.71426" y="563.787018" xlink:href="#a"/><use x="158.573505" y="563.769649" xlink:href="#a"/><use x="160.003127" y="563.788259" xlink:href="#a"/><use x="161.432749" y="563.785529" xlink:href="#a"/><use x="162.862371" y="563.782056" xlink:href="#a"/><use x="164.291993" y="563.779822" xlink:href="#a"/><use x="165.721616" y="563.701911" xlink:href="#a"/><use x="167.151238" y="563.67412" xlink:href="#a"/><use x="168.58086" y="563.668662" xlink:href="#a"/><use x="170.010482" y="563.663947" xlink:href="#a"/><use x="171.440105" y="563.604893" xlink:href="#a"/><use x="172.869727" y="563.598194" xlink:href="#a"/><use x="174.299349" y="563.593479" xlink:href="#a"/><use x="175.728971" y="563.589757" xlink:href="#a"/><use x="177.158593" y="563.587772" xlink:href="#a"/><use x="178.588216" y="563.584051" xlink:href="#a"/><use x="180.017838" y="563.970632" xlink:href="#a"/><use x="181.44746" y="563.9947" xlink:href="#a"/><use x="182.877082" y="564.025716" xlink:href="#a"/><use x="184.306705" y="564.024227" xlink:href="#a"/><use x="185.736327" y="564.02522" xlink:href="#a"/><use x="187.165949" y="563.796695" xlink:href="#a"/><use x="190.025193" y="563.814064" xlink:href="#a"/><use x="191.454816" y="563.81853" xlink:href="#a"/><use x="192.884438" y="563.691489" xlink:href="#a"/><use x="194.31406" y="563.689504" xlink:href="#a"/><use x="195.743682" y="563.094" xlink:href="#a"/><use x="197.173305" y="563.107399" xlink:href="#a"/><use x="198.602927" y="563.086805" xlink:href="#a"/><use x="200.032549" y="563.106903" xlink:href="#a"/><use x="201.666403" y="563.094" xlink:href="#a"/><use x="202.891793" y="563.114099" xlink:href="#a"/><use x="204.321416" y="563.121294" xlink:href="#a"/><use x="205.751038" y="563.123279" xlink:href="#a"/><use x="207.18066" y="563.133453" xlink:href="#a"/><use x="208.610282" y="563.143626" xlink:href="#a"/><use x="210.039905" y="563.165957" xlink:href="#a"/><use x="211.469527" y="560.078269" xlink:href="#a"/><use x="212.899149" y="560.105067" xlink:href="#a"/><use x="214.328771" y="560.073555" xlink:href="#a"/><use x="215.758393" y="560.071074" xlink:href="#a"/><use x="217.188016" y="559.913265" xlink:href="#a"/><use x="218.617638" y="559.904829" xlink:href="#a"/><use x="220.04726" y="559.89813" xlink:href="#a"/><use x="221.476882" y="559.903836" xlink:href="#a"/><use x="222.906504" y="559.908551" xlink:href="#a"/><use x="224.540358" y="559.87158" xlink:href="#a"/><use x="225.765749" y="559.872821" xlink:href="#a"/><use x="227.195371" y="559.845775" xlink:href="#a"/><use x="228.624993" y="559.852722" xlink:href="#a"/><use x="230.054616" y="559.849745" xlink:href="#a"/><use x="231.484238" y="559.8557" xlink:href="#a"/><use x="232.91386" y="559.861655" xlink:href="#a"/><use x="234.343482" y="559.849993" xlink:href="#a"/><use x="235.773104" y="559.849249" xlink:href="#a"/><use x="237.202727" y="559.801112" xlink:href="#a"/><use x="238.632349" y="559.793172" xlink:href="#a"/><use x="240.061971" y="559.782254" xlink:href="#a"/><use x="241.491593" y="559.775059" xlink:href="#a"/><use x="242.921216" y="559.765878" xlink:href="#a"/><use x="244.350838" y="559.75372" xlink:href="#a"/><use x="245.78046" y="559.669357" xlink:href="#a"/><use x="247.210082" y="559.674567" xlink:href="#a"/><use x="248.639704" y="559.604596" xlink:href="#a"/><use x="250.069327" y="559.603851" xlink:href="#a"/><use x="251.498949" y="559.402373" xlink:href="#a"/><use x="252.928571" y="558.662459" xlink:href="#a"/><use x="254.358193" y="558.658985" xlink:href="#a"/><use x="255.787816" y="558.650301" xlink:href="#a"/><use x="257.217438" y="558.641616" xlink:href="#a"/><use x="258.64706" y="558.360241" xlink:href="#a"/><use x="260.076682" y="558.355774" xlink:href="#a"/><use x="261.506304" y="558.109881" xlink:href="#a"/><use x="262.935927" y="558.087053" xlink:href="#a"/><use x="264.365549" y="558.073903" xlink:href="#a"/><use x="265.795171" y="558.05306" xlink:href="#a"/><use x="267.224793" y="558.041646" xlink:href="#a"/><use x="268.654416" y="558.038669" xlink:href="#a"/><use x="270.084038" y="558.021052" xlink:href="#a"/><use x="272.943282" y="557.941899" xlink:href="#a"/><use x="274.372904" y="557.942147" xlink:href="#a"/><use x="275.802527" y="557.199504" xlink:href="#a"/><use x="277.232149" y="557.19082" xlink:href="#a"/><use x="278.661771" y="557.196031" xlink:href="#a"/><use x="280.091393" y="557.167" xlink:href="#a"/><use x="281.521016" y="557.165015" xlink:href="#a"/><use x="282.950638" y="557.079163" xlink:href="#a"/><use x="284.38026" y="557.067997" xlink:href="#a"/><use x="285.809882" y="557.007454" xlink:href="#a"/><use x="287.239504" y="556.484403" xlink:href="#a"/><use x="288.669127" y="556.478945" xlink:href="#a"/><use x="290.098749" y="556.46108" xlink:href="#a"/><use x="291.528371" y="556.46629" xlink:href="#a"/><use x="292.957993" y="556.475471" xlink:href="#a"/><use x="294.387615" y="556.477952" xlink:href="#a"/><use x="295.817238" y="556.46629" xlink:href="#a"/><use x="300.310336" y="556.418154" xlink:href="#a"/><use x="301.535727" y="556.410462" xlink:href="#a"/><use x="305.824593" y="556.351408" xlink:href="#a"/><use x="307.254215" y="556.338009" xlink:href="#a"/><use x="308.683838" y="556.30997" xlink:href="#a"/><use x="310.11346" y="556.306249" xlink:href="#a"/><use x="311.543082" y="556.284662" xlink:href="#a"/><use x="312.972704" y="556.271263" xlink:href="#a"/><use x="314.402327" y="556.235284" xlink:href="#a"/><use x="315.831949" y="556.23057" xlink:href="#a"/><use x="317.261571" y="556.089882" xlink:href="#a"/><use x="318.691193" y="556.075243" xlink:href="#a"/><use x="320.120815" y="556.063829" xlink:href="#a"/><use x="321.550438" y="556.037527" xlink:href="#a"/><use x="322.98006" y="556.013955" xlink:href="#a"/><use x="324.409682" y="556.007008" xlink:href="#a"/><use x="325.839304" y="556.006263" xlink:href="#a"/><use x="327.268927" y="555.949691" xlink:href="#a"/><use x="328.698549" y="553.661715" xlink:href="#a"/><use x="330.128171" y="553.653775" xlink:href="#a"/><use x="331.557793" y="553.646083" xlink:href="#a"/><use x="332.987415" y="553.652782" xlink:href="#a"/><use x="334.417038" y="553.650053" xlink:href="#a"/><use x="335.84666" y="553.629955" xlink:href="#a"/><use x="337.276282" y="553.622759" xlink:href="#a"/><use x="338.705904" y="553.610105" xlink:href="#a"/><use x="340.135527" y="553.549562" xlink:href="#a"/><use x="341.565149" y="553.449567" xlink:href="#a"/><use x="342.994771" y="553.428972" xlink:href="#a"/><use x="344.424393" y="553.428724" xlink:href="#a"/><use x="345.854015" y="553.021052" xlink:href="#a"/><use x="347.283638" y="553.011375" xlink:href="#a"/><use x="348.71326" y="553.010879" xlink:href="#a"/><use x="350.142882" y="551.796051" xlink:href="#a"/><use x="351.572504" y="551.794066" xlink:href="#a"/><use x="353.002126" y="551.58291" xlink:href="#a"/><use x="354.431749" y="551.587625" xlink:href="#a"/><use x="355.861371" y="551.584151" xlink:href="#a"/><use x="357.290993" y="551.555864" xlink:href="#a"/><use x="358.720615" y="551.490607" xlink:href="#a"/><use x="360.150238" y="551.488622" xlink:href="#a"/><use x="361.57986" y="551.467035" xlink:href="#a"/><use x="363.009482" y="551.465546" xlink:href="#a"/><use x="364.439104" y="548.673874" xlink:href="#a"/><use x="365.868726" y="548.630203" xlink:href="#a"/><use x="367.298349" y="548.619038" xlink:href="#a"/><use x="368.727971" y="548.587277" xlink:href="#a"/><use x="370.157593" y="548.563457" xlink:href="#a"/><use x="371.587215" y="548.543855" xlink:href="#a"/><use x="373.016838" y="547.502716" xlink:href="#a"/><use x="374.44646" y="547.47567" xlink:href="#a"/><use x="375.876082" y="547.468723" xlink:href="#a"/><use x="377.305704" y="547.456068" xlink:href="#a"/><use x="378.735326" y="539.308334" xlink:href="#a"/><use x="380.164949" y="539.307342" xlink:href="#a"/><use x="381.594571" y="539.242829" xlink:href="#a"/><use x="383.024193" y="539.210324" xlink:href="#a"/><use x="384.453815" y="539.148293" xlink:href="#a"/><use x="386.087669" y="539.140104" xlink:href="#a"/><use x="387.517292" y="539.123728" xlink:href="#a"/><use x="388.742682" y="538.639385" xlink:href="#a"/><use x="390.172304" y="538.627971" xlink:href="#a"/><use x="391.601926" y="538.620775" xlink:href="#a"/><use x="393.23578" y="538.616557" xlink:href="#a"/><use x="394.461171" y="538.613828" xlink:href="#a"/><use x="396.095025" y="538.564203" xlink:href="#a"/><use x="397.524647" y="538.557503" xlink:href="#a"/><use x="399.158501" y="538.533435" xlink:href="#a"/><use x="400.17966" y="538.530954" xlink:href="#a"/><use x="401.609282" y="538.495472" xlink:href="#a"/><use x="403.038904" y="538.488772" xlink:href="#a"/><use x="404.672758" y="538.477358" xlink:href="#a"/><use x="407.327771" y="538.446094" xlink:href="#a"/><use x="408.757393" y="538.441628" xlink:href="#a"/><use x="410.391247" y="538.429966" xlink:href="#a"/><use x="411.820869" y="538.431455" xlink:href="#a"/><use x="413.250491" y="538.315083" xlink:href="#a"/><use x="414.680114" y="538.313347" xlink:href="#a"/><use x="414.680114" y="538.312602" xlink:href="#a"/><use x="416.109736" y="538.312106" xlink:href="#a"/><use x="417.539358" y="538.304662" xlink:href="#a"/><use x="418.96898" y="538.301437" xlink:href="#a"/><use x="420.398603" y="538.240149" xlink:href="#a"/><use x="421.828225" y="538.220547" xlink:href="#a"/><use x="423.257847" y="538.217073" xlink:href="#a"/><use x="424.891701" y="538.221043" xlink:href="#a"/><use x="426.321323" y="538.214592" xlink:href="#a"/><use x="427.546714" y="538.207148" xlink:href="#a"/><use x="428.976336" y="538.190772" xlink:href="#a"/><use x="430.405958" y="538.192509" xlink:href="#a"/><use x="436.124447" y="528.673379" xlink:href="#a"/><use x="438.983691" y="528.655018" xlink:href="#a"/><use x="443.272558" y="528.634671" xlink:href="#a"/><use x="446.131803" y="528.624498" xlink:href="#a"/><use x="449.195279" y="528.610355" xlink:href="#a"/><use x="451.850291" y="528.598941" xlink:href="#a"/><use x="453.279914" y="528.590009" xlink:href="#a"/><use x="454.709536" y="528.582069" xlink:href="#a"/><use x="456.139158" y="528.580084" xlink:href="#a"/><use x="457.56878" y="528.53021" xlink:href="#a"/><use x="459.406866" y="528.512345" xlink:href="#a"/><use x="460.223793" y="528.502916" xlink:href="#a"/><use x="461.857647" y="528.498698" xlink:href="#a"/><use x="464.716891" y="528.485299" xlink:href="#a"/><use x="466.146514" y="528.486044" xlink:href="#a"/><use x="467.576136" y="528.48778" xlink:href="#a"/><use x="469.005758" y="528.484803" xlink:href="#a"/><use x="470.43538" y="528.480833" xlink:href="#a"/><use x="471.865002" y="528.476863" xlink:href="#a"/><use x="473.294625" y="528.472893" xlink:href="#a"/><use x="474.724247" y="528.4786" xlink:href="#a"/><use x="476.153869" y="528.47587" xlink:href="#a"/><use x="477.583491" y="528.471156" xlink:href="#a"/><use x="479.013114" y="528.466938" xlink:href="#a"/><use x="480.442736" y="528.465201" xlink:href="#a"/><use x="483.30198" y="528.462223" xlink:href="#a"/><use x="484.731602" y="528.463712" xlink:href="#a"/><use x="486.161225" y="528.456268" xlink:href="#a"/><use x="486.161225" y="528.456268" xlink:href="#a"/><use x="489.224701" y="528.444358" xlink:href="#a"/><use x="490.450091" y="528.439644" xlink:href="#a"/><use x="491.879714" y="528.445103" xlink:href="#a"/><use x="493.922031" y="528.434433" xlink:href="#a"/><use x="494.738958" y="528.431208" xlink:href="#a"/><use x="496.372812" y="528.408628" xlink:href="#a"/><use x="497.598202" y="528.407884" xlink:href="#a"/><use x="499.027825" y="528.392996" xlink:href="#a"/><use x="500.457447" y="528.38183" xlink:href="#a"/><use x="501.887069" y="526.255633" xlink:href="#a"/><use x="503.316691" y="526.247445" xlink:href="#a"/><use x="504.746314" y="526.235783" xlink:href="#a"/><use x="506.380167" y="526.217918" xlink:href="#a"/><use x="507.605558" y="526.216926" xlink:href="#a"/><use x="509.03518" y="526.220399" xlink:href="#a"/><use x="509.443644" y="526.220399" xlink:href="#a"/><use x="511.894425" y="526.216181" xlink:href="#a"/><use x="513.324047" y="526.20973" xlink:href="#a"/><use x="514.549437" y="526.205016" xlink:href="#a"/><use x="515.97906" y="526.19782" xlink:href="#a"/><use x="517.408682" y="526.191369" xlink:href="#a"/><use x="519.042536" y="526.18715" xlink:href="#a"/><use x="520.67639" y="526.182684" xlink:href="#a"/><use x="523.331402" y="526.176233" xlink:href="#a"/><use x="524.761025" y="526.173255" xlink:href="#a"/><use x="526.394879" y="526.171022" xlink:href="#a"/><use x="527.620269" y="526.104524" xlink:href="#a"/><use x="529.049891" y="526.098817" xlink:href="#a"/><use x="530.479513" y="526.092862" xlink:href="#a"/><use x="531.909136" y="526.095095" xlink:href="#a"/><use x="533.338758" y="526.092614" xlink:href="#a"/><use x="534.76838" y="526.083185" xlink:href="#a"/><use x="536.198002" y="526.078967" xlink:href="#a"/><use x="537.831856" y="526.073757" xlink:href="#a"/><use x="539.057247" y="526.034801" xlink:href="#a"/><use x="540.486869" y="526.029094" xlink:href="#a"/><use x="541.916491" y="526.022891" xlink:href="#a"/><use x="543.346113" y="526.002048" xlink:href="#a"/><use x="544.775736" y="524.279305" xlink:href="#a"/><use x="546.205358" y="524.26938" xlink:href="#a"/><use x="547.63498" y="524.261688" xlink:href="#a"/><use x="550.698456" y="524.137625" xlink:href="#a"/><use x="553.353469" y="511.366051" xlink:href="#a"/><use x="554.783091" y="511.359104" xlink:href="#a"/><use x="556.212713" y="511.354141" xlink:href="#a"/><use x="557.642336" y="511.347193" xlink:href="#a"/><use x="560.50158" y="511.312456" xlink:href="#a"/><use x="561.931202" y="511.299305" xlink:href="#a"/><use x="563.360825" y="511.284914" xlink:href="#a"/><use x="564.790447" y="511.251665" xlink:href="#a"/><use x="566.220069" y="511.242732" xlink:href="#a"/><use x="567.649691" y="511.236529" xlink:href="#a"/><use x="570.508936" y="511.225363" xlink:href="#a"/><use x="573.36818" y="511.212461" xlink:href="#a"/><use x="574.797802" y="511.209483" xlink:href="#a"/><use x="577.657047" y="511.166309" xlink:href="#a"/><use x="580.516291" y="511.158369" xlink:href="#a"/><use x="581.945913" y="511.153407" xlink:href="#a"/><use x="583.375536" y="510.76087" xlink:href="#a"/><use x="584.805158" y="510.756404" xlink:href="#a"/><use x="586.23478" y="510.39265" xlink:href="#a"/><use x="587.664402" y="510.385207" xlink:href="#a"/><use x="589.094024" y="510.382229" xlink:href="#a"/><use x="593.587123" y="510.358161" xlink:href="#a"/><use x="596.242136" y="510.350717" xlink:href="#a"/><use x="597.87599" y="510.343769" xlink:href="#a"/><use x="599.10138" y="510.312257" xlink:href="#a"/><use x="600.531002" y="510.306799" xlink:href="#a"/><use x="601.960624" y="510.302084" xlink:href="#a"/><use x="603.390247" y="510.31325" xlink:href="#a"/><use x="606.249491" y="510.259406" xlink:href="#a"/><use x="607.679113" y="510.142787" xlink:href="#a"/><use x="609.108736" y="510.130132" xlink:href="#a"/><use x="612.172212" y="510.102094" xlink:href="#a"/><use x="613.806066" y="510.071574" xlink:href="#a"/><use x="614.827224" y="509.844787" xlink:href="#a"/><use x="616.256847" y="509.835358" xlink:href="#a"/><use x="617.686469" y="509.826674" xlink:href="#a"/><use x="619.116091" y="509.797891" xlink:href="#a"/><use x="620.749945" y="509.786725" xlink:href="#a"/><use x="622.179567" y="509.78077" xlink:href="#a"/><use x="626.264202" y="509.745288" xlink:href="#a"/><use x="627.693824" y="509.728167" xlink:href="#a"/><use x="629.327678" y="509.689211" xlink:href="#a"/><use x="630.553069" y="509.653481" xlink:href="#a"/><use x="631.982691" y="509.638345" xlink:href="#a"/><use x="633.412313" y="509.63115" xlink:href="#a"/><use x="634.841936" y="509.626683" xlink:href="#a"/><use x="637.70118" y="509.53438" xlink:href="#a"/><use x="639.130802" y="509.52247" xlink:href="#a"/><use x="640.560424" y="509.450762" xlink:href="#a"/><use x="641.990047" y="509.440837" xlink:href="#a"/><use x="643.419669" y="510.463366" xlink:href="#a"/><use x="644.849291" y="510.446742" xlink:href="#a"/><use x="646.278913" y="510.49736" xlink:href="#a"/><use x="647.912767" y="510.486194" xlink:href="#a"/><use x="649.138158" y="510.478006" xlink:href="#a"/><use x="650.772012" y="510.468329" xlink:href="#a"/><use x="652.201634" y="510.457163" xlink:href="#a"/><use x="653.427024" y="510.443764" xlink:href="#a"/><use x="654.856647" y="510.426147" xlink:href="#a"/><use x="656.286269" y="510.413989" xlink:href="#a"/><use x="659.145513" y="510.142042" xlink:href="#a"/><use x="660.575135" y="510.108049" xlink:href="#a"/><use x="662.004758" y="501.80995" xlink:href="#a"/><use x="663.43438" y="501.798289" xlink:href="#a"/><use x="664.864002" y="501.785386" xlink:href="#a"/><use x="664.864002" y="501.785386" xlink:href="#a"/><use x="670.582491" y="501.753378" xlink:href="#a"/><use x="672.012113" y="501.744941" xlink:href="#a"/><use x="674.871358" y="501.71864" xlink:href="#a"/><use x="676.30098" y="501.711692" xlink:href="#a"/><use x="677.730602" y="501.697549" xlink:href="#a"/><use x="679.160224" y="493.718293" xlink:href="#a"/><use x="680.589847" y="493.712338" xlink:href="#a"/><use x="682.019469" y="493.705887" xlink:href="#a"/><use x="683.449091" y="493.699436" xlink:href="#a"/><use x="684.878713" y="493.691496" xlink:href="#a"/><use x="689.16758" y="493.591501" xlink:href="#a"/><use x="690.597202" y="493.578846" xlink:href="#a"/><use x="692.026824" y="492.590558" xlink:href="#a"/><use x="693.660678" y="491.38367" xlink:href="#a"/><use x="694.886069" y="491.377467" xlink:href="#a"/><use x="696.315691" y="491.370767" xlink:href="#a"/><use x="697.745313" y="491.322383" xlink:href="#a"/><use x="702.03418" y="491.175243" xlink:href="#a"/><use x="703.463802" y="491.168544" xlink:href="#a"/><use x="704.893424" y="491.138024" xlink:href="#a"/><use x="706.323047" y="491.128596" xlink:href="#a"/><use x="707.752669" y="478.107159" xlink:href="#a"/><use x="709.182291" y="478.099963" xlink:href="#a"/><use x="710.611913" y="478.076143" xlink:href="#a"/><use x="712.041535" y="478.045871" xlink:href="#a"/><use x="714.90078" y="478.266704" xlink:href="#a"/><use x="716.330402" y="477.416126" xlink:href="#a"/><use x="717.760024" y="477.399998" xlink:href="#a"/><use x="719.393878" y="477.395283" xlink:href="#a"/><use x="720.619269" y="477.386103" xlink:href="#a"/><use x="722.048891" y="477.369726" xlink:href="#a"/><use x="723.478513" y="477.360049" xlink:href="#a"/><use x="725.112367" y="475.136339" xlink:href="#a"/><use x="726.337758" y="475.127902" xlink:href="#a"/><use x="729.401234" y="475.119466" xlink:href="#a"/><use x="730.626624" y="475.111526" xlink:href="#a"/><use x="732.056246" y="475.105075" xlink:href="#a"/><use x="733.485869" y="475.097135" xlink:href="#a"/><use x="734.915491" y="475.088698" xlink:href="#a"/><use x="736.345113" y="475.026915" xlink:href="#a"/><use x="739.408589" y="475.019967" xlink:href="#a"/><use x="740.63398" y="475.01426" xlink:href="#a"/><use x="742.063602" y="474.663161" xlink:href="#a"/><use x="743.493224" y="474.646537" xlink:href="#a"/><use x="744.922846" y="474.637356" xlink:href="#a"/><use x="750.641335" y="474.487239" xlink:href="#a"/><use x="752.070958" y="474.327198" xlink:href="#a"/><use x="753.50058" y="474.31504" xlink:href="#a"/><use x="754.930202" y="474.299408" xlink:href="#a"/><use x="756.359824" y="474.29246" xlink:href="#a"/><use x="757.789446" y="474.261444" xlink:href="#a"/><use x="759.219069" y="474.247053" xlink:href="#a"/><use x="762.078313" y="474.193209" xlink:href="#a"/><use x="763.507935" y="474.185021" xlink:href="#a"/><use x="766.36718" y="474.154005" xlink:href="#a"/><use x="767.796802" y="474.1349" xlink:href="#a"/><use x="769.226424" y="474.037386" xlink:href="#a"/><use x="772.085669" y="474.008355" xlink:href="#a"/><use x="778.008389" y="459.673088" xlink:href="#a"/><use x="779.23378" y="459.654478" xlink:href="#a"/><use x="782.093024" y="459.618748" xlink:href="#a"/><use x="784.952269" y="459.594431" xlink:href="#a"/><use x="786.586123" y="459.584506" xlink:href="#a"/><use x="787.811513" y="459.570611" xlink:href="#a"/><use x="789.241135" y="458.992476" xlink:href="#a"/><use x="792.10038" y="458.955257" xlink:href="#a"/><use x="793.530002" y="458.939129" xlink:href="#a"/><use x="794.959624" y="458.84236" xlink:href="#a"/><use x="796.389246" y="458.825239" xlink:href="#a"/><use x="798.227332" y="458.805885" xlink:href="#a"/><use x="799.248491" y="458.786035" xlink:href="#a"/><use x="800.678113" y="458.76941" xlink:href="#a"/><use x="803.741589" y="458.744846" xlink:href="#a"/><use x="804.96698" y="458.24636" xlink:href="#a"/><use x="806.396602" y="458.241645" xlink:href="#a"/><use x="808.030456" y="458.217081" xlink:href="#a"/><use x="809.255846" y="455.011533" xlink:href="#a"/><use x="816.608189" y="421.409481" xlink:href="#a"/><use x="817.83358" y="425.900821" xlink:href="#a"/><use x="820.692824" y="425.880971" xlink:href="#a"/><use x="822.122446" y="425.875016" xlink:href="#a"/><use x="823.552069" y="425.862362" xlink:href="#a"/><use x="824.981691" y="425.844" xlink:href="#a"/><use x="826.411313" y="425.806781" xlink:href="#a"/><use x="827.840935" y="425.792886" xlink:href="#a"/><use x="829.270557" y="323.175407" xlink:href="#a"/><use x="830.70018" y="263.982569" xlink:href="#a"/><use x="834.989046" y="263.795977" xlink:href="#a"/><use x="836.418669" y="263.787789" xlink:href="#a"/><use x="837.848291" y="263.767939" xlink:href="#a"/><use x="839.482145" y="263.753051" xlink:href="#a"/><use x="839.482145" y="263.753051" xlink:href="#a"/><use x="850.714891" y="253.694991" xlink:href="#a"/><use x="852.144513" y="253.684073" xlink:href="#a"/><use x="853.574135" y="253.670922" xlink:href="#a"/><use x="853.574135" y="253.670922" xlink:href="#a"/><use x="855.003757" y="253.662982" xlink:href="#a"/><use x="856.43338" y="253.614101" xlink:href="#a"/><use x="860.722246" y="253.564972" xlink:href="#a"/><use x="862.151868" y="253.040929" xlink:href="#a"/><use x="863.989954" y="253.003958" xlink:href="#a"/><use x="866.440735" y="252.842179" xlink:href="#a"/><use x="870.933834" y="252.808434" xlink:href="#a"/><use x="872.159224" y="252.838706" xlink:href="#a"/><use x="875.018468" y="252.820096" xlink:href="#a"/><use x="877.877713" y="252.787095" xlink:href="#a"/><use x="880.941189" y="252.441703" xlink:href="#a"/><use x="882.16658" y="252.432026" xlink:href="#a"/><use x="882.16658" y="252.432026" xlink:href="#a"/><use x="885.025824" y="252.387612" xlink:href="#a"/><use x="886.455446" y="252.371731" xlink:href="#a"/><use x="887.885068" y="252.360566" xlink:href="#a"/><use x="889.314691" y="252.348656" xlink:href="#a"/><use x="893.603557" y="252.319129" xlink:href="#a"/><use x="895.03318" y="252.314166" xlink:href="#a"/><use x="897.892424" y="252.300767" xlink:href="#a"/><use x="899.322046" y="252.277195" xlink:href="#a"/><use x="903.610913" y="251.987135" xlink:href="#a"/><use x="906.470157" y="87.044715" xlink:href="#a"/><use x="909.329402" y="86.792867" xlink:href="#a"/><use x="915.047891" y="86.721902" xlink:href="#a"/><use x="917.907135" y="86.699075" xlink:href="#a"/><use x="920.766379" y="86.680713" xlink:href="#a"/><use x="926.484868" y="86.549206" xlink:href="#a"/><use x="929.344113" y="86.536304" xlink:href="#a"/><use x="932.203357" y="86.513724" xlink:href="#a"/><use x="935.062602" y="86.492385" xlink:href="#a"/><use x="937.921846" y="86.480723" xlink:href="#a"/><use x="940.781091" y="86.138309" xlink:href="#a"/><use x="943.844567" y="86.106797" xlink:href="#a"/><use x="946.499579" y="86.000102" xlink:href="#a"/><use x="949.358824" y="85.985215" xlink:href="#a"/><use x="952.218068" y="85.091214" xlink:href="#a"/><use x="955.077313" y="84.803636" xlink:href="#a"/><use x="957.936557" y="84.787755" xlink:href="#a"/><use x="960.795802" y="84.673617" xlink:href="#a"/><use x="966.514291" y="84.523501" xlink:href="#a"/><use x="969.373535" y="84.510846" xlink:href="#a"/><use x="975.092024" y="84.359737" xlink:href="#a"/><use x="977.951268" y="84.329962" xlink:href="#a"/><use x="982.240135" y="84.217809" xlink:href="#a"/><use x="983.669757" y="84.211357" xlink:href="#a"/><use x="986.733233" y="84.199199" xlink:href="#a"/><use x="989.388246" y="84.185056" xlink:href="#a"/><use x="995.106735" y="84.134686" xlink:href="#a"/><use x="1003.684468" y="84.005412" xlink:href="#a"/><use x="1006.543713" y="83.992013" xlink:href="#a"/><use x="1009.402957" y="83.922786" xlink:href="#a"/><use x="1012.262202" y="83.768451" xlink:href="#a"/><use x="1015.121446" y="83.735947" xlink:href="#a"/><use x="1021.044167" y="83.720067" xlink:href="#a"/><use x="1029.417668" y="83.733962" xlink:href="#a"/><use x="1052.904319" y="54.630446" xlink:href="#a"/><use x="1053.108551" y="54.630446" xlink:href="#a"/><use x="1058.010113" y="54.506383" xlink:href="#a"/><use x="1060.869357" y="54.495713" xlink:href="#a"/><use x="1063.728601" y="54.486532" xlink:href="#a"/><use x="1066.587846" y="54.397207" xlink:href="#a"/><use x="1075.165579" y="54.345845" xlink:href="#a"/><use x="1078.024824" y="54.335423" xlink:href="#a"/><use x="1088.644874" y="44.146848" xlink:href="#a"/><use x="1092.321046" y="44.12675" xlink:href="#a"/><use x="1095.18029" y="44.12005" xlink:href="#a"/><use x="1098.243766" y="44.056778" xlink:href="#a"/><use x="1103.962255" y="44.054297" xlink:href="#a"/><use x="1105.186095" y="44.047597" xlink:href="#a"/></g><path d="m61.359 598.79 135.81-0.50519 67.192-0.53595 87.615-0.5295 401.52-1.0029 134.38-0.73644 129.28-0.79971h88.022" clip-path="url(#d)" fill="none" stroke="#00f" stroke-dasharray="5.55,2.4" stroke-width="1.5"/><defs><path id="n" d="m0 3c0.79561 0 1.5587-0.3161 2.1213-0.87868 0.56258-0.56258 0.87868-1.3257 0.87868-2.1213s-0.3161-1.5587-0.87868-2.1213c-0.56258-0.56258-1.3257-0.87868-2.1213-0.87868s-1.5587 0.3161-2.1213 0.87868c-0.56258 0.56258-0.87868 1.3257-0.87868 2.1213s0.3161 1.5587 0.87868 2.1213c0.56258 0.56258 1.3257 0.87868 2.1213 0.87868z" stroke="#00f"/></defs><g clip-path="url(#d)" fill="#0000ff" stroke="#0000ff"><use x="61.359194" y="598.788256" xlink:href="#n"/><use x="197.173305" y="598.28307" xlink:href="#n"/><use x="264.365549" y="597.747116" xlink:href="#n"/><use x="351.980968" y="597.217614" xlink:href="#n"/><use x="753.50058" y="596.214686" xlink:href="#n"/><use x="887.885068" y="595.478246" xlink:href="#n"/><use x="1017.163763" y="594.678534" xlink:href="#n"/><use x="1105.186095" y="594.678534" xlink:href="#n"/></g><defs><path id="ao" d="m0-6-1.3471 4.1459h-4.3593l3.5267 2.5623-1.3471 4.1459 3.5267-2.5623 3.5267 2.5623-1.3471-4.1459 3.5267-2.5623h-4.3593z" stroke="#008000" stroke-linejoin="bevel"/></defs><g clip-path="url(#d)"><use x="991.634795" y="594.719972" fill="#008000" stroke="#008000" stroke-linejoin="bevel" xlink:href="#ao"/></g><defs><path id="ap" d="m0-6-1.3471 4.1459h-4.3593l3.5267 2.5623-1.3471 4.1459 3.5267-2.5623 3.5267 2.5623-1.3471-4.1459 3.5267-2.5623h-4.3593z" stroke="#000" stroke-linejoin="bevel"/></defs><g clip-path="url(#d)"><use x="1104.983414" y="578.327486" stroke="#000000" stroke-linejoin="bevel" xlink:href="#ap"/></g><path d="m69.12 609.12v-579.96" fill="none" stroke="#000" stroke-linecap="square" stroke-width=".8"/><path d="m1117.4 609.12v-579.96" fill="none" stroke="#000" stroke-linecap="square" stroke-width=".8"/><path d="m69.12 609.12h1048.3" fill="none" stroke="#000" stroke-linecap="square" stroke-width=".8"/><path d="m69.12 29.16h1048.3" fill="none" stroke="#000" stroke-linecap="square" stroke-width=".8"/><g transform="translate(102.12 23.16) scale(.16 -.16)"><defs><path id="am" transform="scale(.015625)" d="m684 794h660v-794h-660v794z"/><path id="br" transform="scale(.015625)" d="m1259 2228v-1709h1013q509 0 754 211 246 211 246 645 0 438-246 645-245 208-754 208h-1013zm0 1919v-1406h935q462 0 688 173 227 174 227 530 0 353-227 528-226 175-688 175h-935zm-631 519h1613q722 0 1112-300 391-300 391-853 0-429-200-682t-588-315q466-100 724-418 258-317 258-792 0-625-425-966-425-340-1210-340h-1675v4666z"/><path id="al" transform="scale(.015625)" d="m581 0v3500h2469v-459h-1891v-3041h-578z"/><path id="ai" transform="scale(.015625)" d="m1831 0-1781 4666h659l1479-3928 1481 3928h656l-1778-4666h-716z"/><path id="aj" transform="scale(.015625)" d="m3425 4513v-616q-359 172-678 256-319 85-616 85-515 0-795-200t-280-569q0-310 186-468 186-157 705-254l381-78q706-135 1042-474t336-907q0-679-455-1029-454-350-1332-350-331 0-705 75-373 75-773 222v650q384-215 753-325 369-109 725-109 540 0 834 212 294 213 294 607 0 343-211 537t-692 291l-385 75q-706 140-1022 440-315 300-315 835 0 619 436 975t1201 356q329 0 669-60 341-59 697-177z"/><path id="bh" transform="scale(.015625)" d="m403 4666h678l1160-1735 1165 1735h678l-1500-2241 1600-2425h-678l-1312 1984-1322-1984h-681l1665 2491-1453 2175z"/><path id="an" transform="scale(.015625)" d="m750 794h659v-538l-512-1e3h-403l256 1e3v538z"/><path id="bw" transform="scale(.015625)" d="m4653 2053q-272 0-427-231-154-231-154-644 0-406 154-639 155-233 427-233 266 0 420 233 155 233 155 639 0 410-155 642-154 233-420 233zm0 397q494 0 784-344 291-343 291-928 0-584-292-927-292-342-783-342-500 0-791 342-290 343-290 927 0 588 292 930t789 342zm-3225 1903q-269 0-424-233-154-232-154-639 0-412 153-644 153-231 425-231t426 231q155 232 155 644 0 403-156 637-156 235-425 235zm2822 397h500l-2919-4841h-500l2919 4841zm-2822 0q494 0 787-342 294-342 294-927 0-590-292-931t-789-341-786 342q-289 343-289 930 0 582 290 925 291 344 785 344z"/><path id="s" transform="scale(.015625)" d="m2194 1759q-697 0-966-159t-269-544q0-306 202-486 202-179 548-179 479 0 768 339t289 901v128h-572zm1147 238v-1997h-575v531q-197-318-491-470t-719-152q-537 0-855 302-317 302-317 808 0 590 395 890 396 300 1180 300h807v57q0 397-261 614t-733 217q-300 0-585-72-284-72-546-216v532q315 122 612 182 297 61 578 61 760 0 1135-394 375-393 375-1193z"/><path id="ax" transform="scale(.015625)" d="m4159 4666v-4666h-612v3903l-2069-3903h-850v4666h613v-3903l2068 3903h850z"/><path id="bk" transform="scale(.015625)" d="m3431 3097q-462 0-731-361t-269-989 267-989q268-361 733-361 460 0 728 362 269 363 269 988 0 622-269 986-268 364-728 364zm-1587-994q59 594 448 1037 389 444 1139 444t1178-488q429-487 429-1349 0-859-429-1349-428-489-1178-489-753 0-1164 472t-439 1247h-650v-1628h-575v3500h575v-1397h666z"/><path id="bl" transform="scale(.015625)" d="m2781 1038q0 281-205 428-204 147-598 147h-819v-1154h819q394 0 598 148 205 149 205 431zm-2200 2462h578v-1428h844q669 0 1030-255 361-254 361-779t-361-782q-361-256-1030-256h-1422v3500z"/></defs><use xlink:href="#ad"/><use x="70.996094" xlink:href="#k"/><use x="132.177734" xlink:href="#ac"/><use x="196.09375" xlink:href="#p"/><use x="261.083984" xlink:href="#ak"/><use x="320.166016" xlink:href="#c"/><use x="381.689453" xlink:href="#o"/><use x="436.669922" xlink:href="#r"/><use x="494.921875" xlink:href="#g"/><use x="553.857422" xlink:href="#k"/><use x="615.039062" xlink:href="#DejaVuSans-20"/><use x="646.826172" xlink:href="#v"/><use x="712.207031" xlink:href="#c"/><use x="773.730469" xlink:href="#q"/><use x="837.207031" xlink:href="#c"/><use x="898.730469" xlink:href="#w"/><use x="974.169922" xlink:href="#c"/><use x="1035.693359" xlink:href="#f"/><use x="1101.074219" xlink:href="#f"/><use x="1166.455078" xlink:href="#l"/><use x="1245.410156" xlink:href="#u"/><use x="1304.589844" xlink:href="#DejaVuSans-20"/><use x="1336.376953" xlink:href="#i"/><use x="1389.550781" xlink:href="#g"/><use x="1448.486328" xlink:href="#c"/><use x="1510.009766" xlink:href="#i"/><use x="1563.183594" xlink:href="#m"/><use x="1632.324219" xlink:href="#am"/><use x="1664.111328" xlink:href="#DejaVuSans-20"/><use x="1695.898438" xlink:href="#br"/><use x="1764.501953" xlink:href="#o"/><use x="1819.482422" xlink:href="#c"/><use x="1881.005859" xlink:href="#al"/><use x="1933.544922" xlink:href="#k"/><use x="1994.726562" xlink:href="#DejaVuSans-20"/><use x="2026.513672" xlink:href="#e"/><use x="2090.136719" xlink:href="#e"/><use x="2153.759766" xlink:href="#ae"/><use x="2217.382812" xlink:href="#ae"/><use x="2281.005859" xlink:href="#x"/><use x="2344.628906" xlink:href="#t"/><use x="2408.251953" xlink:href="#t"/><use x="2471.875" xlink:href="#DejaVuSans-20"/><use x="2503.662109" xlink:href="#i"/><use x="2556.835938" xlink:href="#g"/><use x="2615.771484" xlink:href="#c"/><use x="2677.294922" xlink:href="#i"/><use x="2730.46875" xlink:href="#m"/><use x="2799.609375" xlink:href="#DejaVuSans-20"/><use x="2831.396484" xlink:href="#g"/><use x="2890.332031" xlink:href="#DejaVuSans-20"/><use x="2922.119141" xlink:href="#ai"/><use x="2990.527344" xlink:href="#aj"/><use x="3054.003906" xlink:href="#bh"/><use x="3122.509766" xlink:href="#an"/><use x="3154.296875" xlink:href="#DejaVuSans-20"/><use x="3186.083984" xlink:href="#b"/><use x="3249.707031" xlink:href="#am"/><use x="3281.494141" xlink:href="#e"/><use x="3345.117188" xlink:href="#x"/><use x="3408.740234" xlink:href="#bw"/><use x="3503.759766" xlink:href="#DejaVuSans-20"/><use x="3535.546875" xlink:href="#v"/><use x="3600.927734" xlink:href="#c"/><use x="3662.451172" xlink:href="#q"/><use x="3725.927734" xlink:href="#c"/><use x="3787.451172" xlink:href="#w"/><use x="3862.890625" xlink:href="#c"/><use x="3924.414062" xlink:href="#f"/><use x="3989.794922" xlink:href="#f"/><use x="4055.175781" xlink:href="#l"/><use x="4134.130859" xlink:href="#u"/><use x="4193.310547" xlink:href="#DejaVuSans-20"/><use x="4225.097656" xlink:href="#i"/><use x="4278.271484" xlink:href="#g"/><use x="4337.207031" xlink:href="#c"/><use x="4398.730469" xlink:href="#i"/><use x="4451.904297" xlink:href="#m"/><use x="4521.044922" xlink:href="#DejaVuSans-20"/><use x="4552.832031" xlink:href="#p"/><use x="4617.822266" xlink:href="#o"/><use x="4672.802734" xlink:href="#o"/><use x="4727.783203" xlink:href="#ac"/><use x="4791.699219" xlink:href="#c"/><use x="4853.222656" xlink:href="#m"/><use x="4922.363281" xlink:href="#k"/><use x="4983.544922" xlink:href="#g"/><use x="5042.480469" xlink:href="#s"/><use x="5103.759766" xlink:href="#f"/><use x="5169.140625" xlink:href="#k"/><use x="5230.322266" xlink:href="#am"/><use x="5262.109375" xlink:href="#DejaVuSans-20"/><use x="5293.896484" xlink:href="#ax"/><use x="5368.701172" xlink:href="#bk"/><use x="5452.880859" xlink:href="#f"/><use x="5518.261719" xlink:href="#bl"/><use x="5577.197266" xlink:href="#DejaVuSans-20"/><use x="5608.984375" xlink:href="#e"/><use x="5672.607422" xlink:href="#b"/><use x="5736.230469" xlink:href="#e"/><use x="5799.853516" xlink:href="#x"/><use x="5863.476562" xlink:href="#DejaVuSans-20"/><use x="5895.263672" xlink:href="#al"/><use x="5947.802734" xlink:href="#k"/><use x="6008.984375" xlink:href="#m"/><use x="6078.125" xlink:href="#s"/></g><path d="m78.92 122.8h635.74q2.8 0 2.8-2.8v-81.036q0-2.8-2.8-2.8h-635.74q-2.8 0-2.8 2.8v81.036q0 2.8 2.8 2.8z" fill="#fff" opacity=".8" stroke="#ccc"/><path d="m81.72 47.498h14 14" fill="none" stroke="#f00" stroke-dasharray="5.55,2.4" stroke-width="1.5"/><use x="95.72" y="47.497813" fill="#ff0000" stroke="#ff0000" xlink:href="#a"/><g transform="translate(120.92 52.398) scale(.14 -.14)"><defs><path id="az" transform="scale(.015625)" d="m2188 4044-857-2322h1716l-859 2322zm-357 622h716l1778-4666h-656l-425 1197h-2103l-425-1197h-666l1781 4666z"/><path id="bi" transform="scale(.015625)" d="m2522 4238q-688 0-1093-513-404-512-404-1397 0-881 404-1394 405-512 1093-512 687 0 1089 512 402 513 402 1394 0 885-402 1397-402 513-1089 513zm0 512q981 0 1568-658 588-658 588-1764 0-1103-588-1761-587-658-1568-658-984 0-1574 656-589 657-589 1763t589 1764q590 658 1574 658z"/><path id="as" transform="scale(.015625)" d="m628 4666h631v-4666h-631v4666z"/><path id="ab" transform="scale(.015625)" d="m3513 2113v-2113h-575v2094q0 497-194 743-194 247-581 247-466 0-735-297-269-296-269-809v-1978h-578v3500h578v-544q207 316 486 472 280 156 646 156 603 0 912-373 310-373 310-1098z"/><path id="af" transform="scale(.015625)" d="m1172 4494v-994h1184v-447h-1184v-1900q0-428 117-550t477-122h590v-481h-590q-666 0-919 248-253 249-253 905v1900h-422v447h422v994h578z"/><path id="ah" transform="scale(.015625)" d="m3597 1894v-281h-2644q38-594 358-905t892-311q331 0 642 81t618 244v-544q-310-131-635-200t-659-69q-838 0-1327 487-489 488-489 1320 0 859 464 1363 464 505 1252 505 706 0 1117-455 411-454 411-1235zm-575 169q-6 471-264 752-258 282-683 282-481 0-770-272t-333-766l2050 4z"/><path id="ag" transform="scale(.015625)" d="m2631 2963q-97 56-211 82-114 27-251 27-488 0-749-317t-261-911v-1844h-578v3500h578v-544q182 319 472 473 291 155 707 155 59 0 131-8 72-7 159-23l3-590z"/><path id="aa" transform="scale(.015625)" d="m2194 1759q-697 0-966-159t-269-544q0-306 202-486 202-179 548-179 479 0 768 339t289 901v128h-572zm1147 238v-1997h-575v531q-197-318-491-470t-719-152q-537 0-855 302-317 302-317 808 0 590 395 890 396 300 1180 300h807v57q0 397-261 614t-733 217q-300 0-585-72-284-72-546-216v532q315 122 612 182 297 61 578 61 760 0 1135-394 375-393 375-1193z"/><path id="ar" transform="scale(.015625)" d="m603 3500h575v-3500h-575v3500zm0 1363h575v-729h-575v729z"/><path id="be" transform="scale(.015625)" d="m1959 3097q-462 0-731-361t-269-989 267-989q268-361 733-361 460 0 728 362 269 363 269 988 0 622-269 986-268 364-728 364zm0 487q750 0 1178-488 429-487 429-1349 0-859-429-1349-428-489-1178-489-753 0-1180 489-426 490-426 1349 0 862 426 1349 427 488 1180 488z"/><path id="aq" transform="scale(.015625)" d="m603 4863h575v-4863h-575v4863z"/><path id="bg" transform="scale(.015625)" d="m3116 1747q0 634-261 995t-717 361q-457 0-718-361t-261-995 261-995 718-361q456 0 717 361t261 995zm-1957 1222q182 312 458 463 277 152 661 152 638 0 1036-506 399-506 399-1331t-399-1332q-398-506-1036-506-384 0-661 152-276 152-458 464v-525h-578v4863h578v-1894z"/><path id="bf" transform="scale(.015625)" d="m2906 2969v1894h575v-4863h-575v525q-181-312-458-464-276-152-664-152-634 0-1033 506-398 507-398 1332t398 1331q399 506 1033 506 388 0 664-152 277-151 458-463zm-1959-1222q0-634 261-995t717-361 718 361q263 361 263 995t-263 995q-262 361-718 361t-717-361-261-995z"/><path id="bd" transform="scale(.015625)" d="m3513 3500-1266-1703 1331-1797h-678l-1019 1375-1018-1375h-679l1360 1831-1244 1669h678l928-1247 928 1247h679z"/></defs><use xlink:href="#az"/><use x="71.158203" xlink:href="#az"/><use x="133.191406" xlink:href="#ai"/><use x="201.599609" xlink:href="#aj"/><use x="265.076172" xlink:href="#bi"/><use x="343.787109" xlink:href="#DejaVuSans-20"/><use x="375.574219" xlink:href="#as"/><use x="405.066406" xlink:href="#ab"/><use x="468.445312" xlink:href="#af"/><use x="507.654297" xlink:href="#ah"/><use x="569.177734" xlink:href="#ag"/><use x="608.541016" xlink:href="#ab"/><use x="671.919922" xlink:href="#aa"/><use x="733.199219" xlink:href="#af"/><use x="772.408203" xlink:href="#ar"/><use x="800.191406" xlink:href="#be"/><use x="861.373047" xlink:href="#ab"/><use x="924.751953" xlink:href="#aa"/><use x="986.03125" xlink:href="#aq"/><use x="1013.814453" xlink:href="#DejaVuSans-20"/><use x="1045.601562" xlink:href="#ai"/><use x="1106.259766" xlink:href="#aa"/><use x="1167.539062" xlink:href="#ag"/><use x="1208.652344" xlink:href="#ar"/><use x="1236.435547" xlink:href="#aa"/><use x="1297.714844" xlink:href="#bg"/><use x="1361.191406" xlink:href="#aq"/><use x="1388.974609" xlink:href="#ah"/><use x="1450.498047" xlink:href="#DejaVuSans-20"/><use x="1482.285156" xlink:href="#aj"/><use x="1545.761719" xlink:href="#af"/><use x="1584.970703" xlink:href="#aa"/><use x="1646.25" xlink:href="#ag"/><use x="1687.363281" xlink:href="#DejaVuSans-20"/><use x="1719.150391" xlink:href="#as"/><use x="1748.642578" xlink:href="#ab"/><use x="1812.021484" xlink:href="#bf"/><use x="1875.498047" xlink:href="#ah"/><use x="1935.271484" xlink:href="#bd"/></g><path d="m81.72 68.286h14 14" fill="none" stroke="#00f" stroke-dasharray="5.55,2.4" stroke-width="1.5"/><use x="95.72" y="68.285625" fill="#0000ff" stroke="#0000ff" xlink:href="#n"/><g transform="translate(120.92 73.186) scale(.14 -.14)"><defs><path id="aw" transform="scale(.015625)" d="m2522 4238q-688 0-1093-513-404-512-404-1397 0-881 404-1394 405-512 1093-512 687 0 1089 512 402 513 402 1394 0 885-402 1397-402 513-1089 513zm0 512q981 0 1568-658 588-658 588-1764 0-1103-588-1761-587-658-1568-658-984 0-1574 656-589 657-589 1763t589 1764q590 658 1574 658z"/><path id="bo" transform="scale(.015625)" d="m1991 3584q750 0 1178-488 428-487 428-1349 0-859-428-1349-428-489-1178-489-753 0-1169 475t-438 1363l-18 716q-16 371-16 500 0 500 181 868 285 578 777 828t1317 257q381 3 550 56l159-456q-153-63-293-66l-782-53q-393-28-631-166-622-365-681-843l-22-175q406 371 1066 371zm0-487q-463 0-732-361-268-361-268-989t267-989 733-361q459 0 728 362 269 363 269 988 0 622-269 986t-728 364z"/><path id="bm" transform="scale(.015625)" d="m5275 0h-4694v3500h578v-3041h1479v3041h578v-3041h1481v3041h578v-3041h459v-1343h-459v884z"/><path id="bn" transform="scale(.015625)" d="m3578 3500v-3500h-572v2809l-1687-2809h-738v3500h572v-2803l1685 2803h740zm-2476 1333h369q34-234 185-352 152-117 424-117 269 0 419 116t190 353h369q-31-447-278-672t-700-225-700 225-278 672z"/><path id="av" transform="scale(.015625)" d="m4184 4666v-4666h-631v4134h-2294v-4134h-631v4666h3556z"/><path id="ay" transform="scale(.015625)" d="m1828 4750q769 0 1256-327 488-326 488-882 0-388-222-655t-631-370q453-97 707-404 255-306 255-756 0-718-555-1083-554-364-1298-364-381 0-825 103-444 104-581 191v650q478-278 742-345t652-67q587 0 912 225t325 690q0 413-289 645-289 233-898 233h-638v519h663q559 0 806 186t247 536q0 359-255 551-255 193-873 193-419 0-563-38-144-37-784-278v616q353 125 721 178 369 53 638 53z"/></defs><use xlink:href="#aw"/><use x="78.710938" xlink:href="#bo"/><use x="140.380859" xlink:href="#bm"/><use x="234.570312" xlink:href="#p"/><use x="299.560547" xlink:href="#bn"/><use x="364.550781" xlink:href="#DejaVuSans-20"/><use x="396.337891" xlink:href="#ad"/><use x="467.333984" xlink:href="#s"/><use x="528.613281" xlink:href="#r"/><use x="586.865234" xlink:href="#s"/><use x="648.144531" xlink:href="#ac"/><use x="712.060547" xlink:href="#k"/><use x="773.242188" xlink:href="#al"/><use x="825.78125" xlink:href="#DejaVuSans-20"/><use x="857.568359" xlink:href="#av"/><use x="932.763672" xlink:href="#c"/><use x="994.287109" xlink:href="#q"/><use x="1057.763672" xlink:href="#c"/><use x="1119.287109" xlink:href="#w"/><use x="1194.726562" xlink:href="#c"/><use x="1256.25" xlink:href="#f"/><use x="1321.630859" xlink:href="#f"/><use x="1387.011719" xlink:href="#l"/><use x="1465.966797" xlink:href="#u"/><use x="1525.146484" xlink:href="#DejaVuSans-20"/><use x="1556.933594" xlink:href="#ay"/><use x="1621.044922" xlink:href="#g"/><use x="1679.980469" xlink:href="#c"/><use x="1741.503906" xlink:href="#i"/><use x="1794.677734" xlink:href="#m"/></g><use x="95.72" y="88.835" fill="#008000" stroke="#008000" stroke-linejoin="bevel" xlink:href="#ao"/><g transform="translate(120.92 93.735) scale(.14 -.14)"><use xlink:href="#ax"/><use x="74.804688" xlink:href="#w"/><use x="150.244141" xlink:href="#c"/><use x="211.767578" xlink:href="#f"/><use x="277.148438" xlink:href="#k"/><use x="338.330078" xlink:href="#g"/><use x="397.265625" xlink:href="#s"/><use x="458.544922" xlink:href="#f"/><use x="523.925781" xlink:href="#f"/><use x="589.306641" xlink:href="#l"/><use x="668.261719" xlink:href="#c"/><use x="729.785156" xlink:href="#DejaVuSans-20"/><use x="761.572266" xlink:href="#v"/><use x="826.953125" xlink:href="#c"/><use x="888.476562" xlink:href="#q"/><use x="951.953125" xlink:href="#c"/><use x="1013.476562" xlink:href="#w"/><use x="1088.916016" xlink:href="#c"/><use x="1150.439453" xlink:href="#f"/><use x="1215.820312" xlink:href="#f"/><use x="1281.201172" xlink:href="#l"/><use x="1360.15625" xlink:href="#c"/><use x="1421.679688" xlink:href="#DejaVuSans-20"/><use x="1453.466797" xlink:href="#i"/><use x="1506.640625" xlink:href="#g"/><use x="1565.576172" xlink:href="#c"/><use x="1627.099609" xlink:href="#i"/><use x="1680.273438" xlink:href="#m"/><use x="1749.414062" xlink:href="#l"/><use x="1828.369141" xlink:href="#DejaVuSans-20"/><use x="1860.15625" xlink:href="#g"/><use x="1919.091797" xlink:href="#DejaVuSans-20"/><use x="1950.878906" xlink:href="#aw"/><use x="2029.589844" xlink:href="#ad"/><use x="2100.585938" xlink:href="#av"/><use x="2175.78125" xlink:href="#ay"/><use x="2239.892578" xlink:href="#an"/><use x="2271.679688" xlink:href="#DejaVuSans-20"/><use x="2303.466797" xlink:href="#t"/><use x="2367.089844" xlink:href="#bb"/><use x="2430.712891" xlink:href="#b"/><use x="2494.335938" xlink:href="#x"/><use x="2557.958984" xlink:href="#t"/><use x="2621.582031" xlink:href="#DejaVuSans-20"/><use x="2653.369141" xlink:href="#i"/><use x="2706.542969" xlink:href="#g"/><use x="2765.478516" xlink:href="#c"/><use x="2827.001953" xlink:href="#i"/><use x="2880.175781" xlink:href="#m"/></g><use x="95.72" y="109.384375" stroke="#000000" stroke-linejoin="bevel" xlink:href="#ap"/><g transform="translate(120.92 114.28) scale(.14 -.14)"><defs><path id="bp" transform="scale(.015625)" d="m-19 4666h3947v-532h-1656v-4134h-634v4134h-1657v532z"/><path id="at" transform="scale(.015625)" d="m3216 459h1481v3041h578v-3500h-4694v3500h578v-3041h1479v3041h578v-3041z"/><path id="au" transform="scale(.015625)" d="m581 3500h572v-1644l1622 1644h706l-1337-1353 1509-2147h-644l-1240 1766-616-625v-1141h-572v3500z"/><path id="ba" transform="scale(.015625)" d="m678 3150v569l4006-1453v-519l-4006-1453v569l3219 1140-3219 1147z"/></defs><use xlink:href="#bp"/><use x="61.083984" xlink:href="#q"/><use x="124.560547" xlink:href="#s"/><use x="185.839844" xlink:href="#f"/><use x="251.220703" xlink:href="#i"/><use x="304.394531" xlink:href="#p"/><use x="369.384766" xlink:href="#c"/><use x="430.908203" xlink:href="#f"/><use x="496.289062" xlink:href="#r"/><use x="554.541016" xlink:href="#l"/><use x="633.496094" xlink:href="#DejaVuSans-20"/><use x="665.283203" xlink:href="#p"/><use x="730.273438" xlink:href="#DejaVuSans-20"/><use x="762.060547" xlink:href="#g"/><use x="820.996094" xlink:href="#o"/><use x="875.976562" xlink:href="#v"/><use x="941.357422" xlink:href="#l"/><use x="1020.3125" xlink:href="#at"/><use x="1111.816406" xlink:href="#au"/><use x="1172.216797" xlink:href="#p"/><use x="1237.207031" xlink:href="#DejaVuSans-20"/><use x="1268.994141" xlink:href="#o"/><use x="1323.974609" xlink:href="#g"/><use x="1382.910156" xlink:href="#c"/><use x="1444.433594" xlink:href="#q"/><use x="1507.910156" xlink:href="#u"/><use x="1567.089844" xlink:href="#f"/><use x="1632.470703" xlink:href="#k"/><use x="1693.652344" xlink:href="#g"/><use x="1752.587891" xlink:href="#l"/><use x="1831.542969" xlink:href="#u"/><use x="1890.722656" xlink:href="#an"/><use x="1922.509766" xlink:href="#DejaVuSans-20"/><use x="1954.296875" xlink:href="#ba"/><use x="2038.085938" xlink:href="#h"/><use x="2101.708984" xlink:href="#e"/><use x="2165.332031" xlink:href="#h"/><use x="2228.955078" xlink:href="#ae"/><use x="2292.578125" xlink:href="#b"/><use x="2356.201172" xlink:href="#b"/><use x="2419.824219" xlink:href="#DejaVuSans-20"/><use x="2451.611328" xlink:href="#g"/><use x="2510.546875" xlink:href="#o"/><use x="2565.527344" xlink:href="#v"/><use x="2630.908203" xlink:href="#l"/><use x="2709.863281" xlink:href="#at"/><use x="2801.367188" xlink:href="#c"/><use x="2862.890625" xlink:href="#au"/><use x="2923.291016" xlink:href="#DejaVuSans-20"/><use x="2955.078125" xlink:href="#p"/><use x="3020.068359" xlink:href="#DejaVuSans-20"/><use x="3051.855469" xlink:href="#ba"/><use x="3135.644531" xlink:href="#h"/><use x="3199.267578" xlink:href="#e"/><use x="3262.890625" xlink:href="#bc"/><use x="3326.513672" xlink:href="#h"/><use x="3390.136719" xlink:href="#b"/><use x="3453.759766" xlink:href="#b"/><use x="3517.382812" xlink:href="#DejaVuSans-20"/><use x="3549.169922" xlink:href="#r"/><use x="3607.421875" xlink:href="#q"/><use x="3670.898438" xlink:href="#s"/><use x="3732.177734" xlink:href="#f"/><use x="3797.558594" xlink:href="#i"/><use x="3850.732422" xlink:href="#p"/><use x="3915.722656" xlink:href="#c"/><use x="3977.246094" xlink:href="#f"/><use x="4042.626953" xlink:href="#r"/><use x="4100.878906" xlink:href="#k"/><use x="4162.060547" xlink:href="#g"/></g><defs><clipPath id="d"><rect x="69.12" y="29.16" width="1048.3" height="579.96"/></clipPath></defs></svg>
