<?xml version="1.0" encoding="UTF-8"?>
<!DOCTYPE svg  PUBLIC '-//W3C//DTD SVG 1.1//EN'  'http://www.w3.org/Graphics/SVG/1.1/DTD/svg11.dtd'>
<svg width="1152pt" height="648pt" version="1.1" viewBox="0 0 1152 648" xmlns="http://www.w3.org/2000/svg" xmlns:xlink="http://www.w3.org/1999/xlink"><defs><style type="text/css">*{stroke-linejoin: round; stroke-linecap: butt}</style></defs><path d="m0 648h1152v-648h-1152z" fill="#fff"/><path d="m58.752 589.68h1076v-560.52h-1076z" fill="#fff"/><path d="m65.948 589.68h25.33v-1.7227h-25.33z" clip-path="url(#b)" fill="#1f77b4"/><path d="m94.733 589.68h25.33v-1.9394h-25.33z" clip-path="url(#b)" fill="#1f77b4"/><path d="m123.52 589.68h25.33v-2.0398h-25.33z" clip-path="url(#b)" fill="#1f77b4"/><path d="m152.3 589.68h25.33v-2.337h-25.33z" clip-path="url(#b)" fill="#1f77b4"/><path d="m181.09 589.68h25.33v-2.3714h-25.33z" clip-path="url(#b)" fill="#1f77b4"/><path d="m209.87 589.68h25.33v-2.4943h-25.33z" clip-path="url(#b)" fill="#1f77b4"/><path d="m238.66 589.68h25.33v-2.5431h-25.33z" clip-path="url(#b)" fill="#1f77b4"/><path d="m267.44 589.68h25.33v-2.596h-25.33z" clip-path="url(#b)" fill="#1f77b4"/><path d="m296.22 589.68h25.33v-2.9448h-25.33z" clip-path="url(#b)" fill="#1f77b4"/><path d="m325.01 589.68h25.33v-3.2539h-25.33z" clip-path="url(#b)" fill="#1f77b4"/><path d="m353.79 589.68h25.33v-4.4099h-25.33z" clip-path="url(#b)" fill="#1f77b4"/><path d="m382.58 589.68h25.33v-4.5737h-25.33z" clip-path="url(#b)" fill="#1f77b4"/><path d="m411.36 589.68h25.33v-4.6397h-25.33z" clip-path="url(#b)" fill="#1f77b4"/><path d="m440.15 589.68h25.33v-4.8102h-25.33z" clip-path="url(#b)" fill="#1f77b4"/><path d="m468.93 589.68h25.33v-5.184h-25.33z" clip-path="url(#b)" fill="#1f77b4"/><path d="m497.72 589.68h25.33v-5.2937h-25.33z" clip-path="url(#b)" fill="#1f77b4"/><path d="m526.5 589.68h25.33v-8.1988h-25.33z" clip-path="url(#b)" fill="#1f77b4"/><path d="m555.29 589.68h25.33v-13.848h-25.33z" clip-path="url(#b)" fill="#1f77b4"/><path d="m584.07 589.68h25.33v-14.504h-25.33z" clip-path="url(#b)" fill="#1f77b4"/><path d="m612.86 589.68h25.33v-20.708h-25.33z" clip-path="url(#b)" fill="#1f77b4"/><path d="m641.64 589.68h25.33v-33.992h-25.33z" clip-path="url(#b)" fill="#1f77b4"/><path d="m670.42 589.68h25.33v-36.06h-25.33z" clip-path="url(#b)" fill="#1f77b4"/><path d="m699.21 589.68h25.33v-38.669h-25.33z" clip-path="url(#b)" fill="#1f77b4"/><path d="m727.99 589.68h25.33v-52.63h-25.33z" clip-path="url(#b)" fill="#1f77b4"/><path d="m756.78 589.68h25.33v-53.061h-25.33z" clip-path="url(#b)" fill="#1f77b4"/><path d="m785.56 589.68h25.33v-105.16h-25.33z" clip-path="url(#b)" fill="#1f77b4"/><path d="m814.35 589.68h25.33v-108.92h-25.33z" clip-path="url(#b)" fill="#1f77b4"/><path d="m843.13 589.68h25.33v-114.87h-25.33z" clip-path="url(#b)" fill="#1f77b4"/><path d="m871.92 589.68h25.33v-124.65h-25.33z" clip-path="url(#b)" fill="#1f77b4"/><path d="m900.7 589.68h25.33v-129.66h-25.33z" clip-path="url(#b)" fill="#1f77b4"/><path d="m929.49 589.68h25.33v-131.13h-25.33z" clip-path="url(#b)" fill="#1f77b4"/><path d="m958.27 589.68h25.33v-134.34h-25.33z" clip-path="url(#b)" fill="#1f77b4"/><path d="m987.06 589.68h25.33v-157.62h-25.33z" clip-path="url(#b)" fill="#1f77b4"/><path d="m1015.8 589.68h25.33v-195.37h-25.33z" clip-path="url(#b)" fill="#1f77b4"/><path d="m1044.6 589.68h25.33v-432.29h-25.33z" clip-path="url(#b)" fill="#1f77b4"/><path d="m1073.4 589.68h25.33v-447.39h-25.33z" clip-path="url(#b)" fill="#1f77b4"/><path d="m1102.2 589.68h25.33v-533.83h-25.33z" clip-path="url(#b)" fill="#1f77b4"/><defs><path id="c" d="m0 0v3.5" stroke="#000" stroke-width=".8"/></defs><use x="78.613368" y="589.68" stroke="#000000" stroke-width=".8" xlink:href="#c"/><g transform="translate(73.692 615.8) rotate(-45) scale(.1 -.1)"><defs><path id="r" transform="scale(.015625)" d="m4122 4306v-665q-319 297-680 443-361 147-767 147-800 0-1225-489t-425-1414q0-922 425-1411t1225-489q406 0 767 147t680 444v-660q-331-225-702-338-370-112-782-112-1060 0-1670 648-609 649-609 1771 0 1125 609 1773 610 649 1670 649 418 0 788-111 371-111 696-333z"/><path id="l" transform="scale(.015625)" d="m3425 4513v-616q-359 172-678 256-319 85-616 85-515 0-795-200t-280-569q0-310 186-468 186-157 705-254l381-78q706-135 1042-474t336-907q0-679-455-1029-454-350-1332-350-331 0-705 75-373 75-773 222v650q384-215 753-325 369-109 725-109 540 0 834 212 294 213 294 607 0 343-211 537t-692 291l-385 75q-706 140-1022 440-315 300-315 835 0 619 436 975t1201 356q329 0 669-60 341-59 697-177z"/><path id="x" transform="scale(.015625)" d="m-19 4666h3947v-532h-1656v-4134h-634v4134h-1657v532z"/></defs><use xlink:href="#r"/><use x="69.824219" xlink:href="#l"/><use x="133.300781" xlink:href="#x"/></g><use x="107.397958" y="589.68" stroke="#000000" stroke-width=".8" xlink:href="#c"/><g transform="translate(101.71 617.32) rotate(-45) scale(.1 -.1)"><defs><path id="j" transform="scale(.015625)" d="m2841 2188q203-69 395-294t386-619l641-1275h-679l-596 1197q-232 469-449 622t-592 153h-688v-1972h-631v4666h1425q800 0 1194-335 394-334 394-1009 0-441-205-732-205-290-595-402zm-1582 1959v-1656h794q456 0 689 211t233 620-233 617-689 208h-794z"/><path id="af" transform="scale(.015625)" d="m1259 4147v-3628h763q966 0 1414 437 448 438 448 1382 0 937-448 1373t-1414 436h-763zm-631 519h1297q1356 0 1990-564 635-564 635-1764 0-1207-638-1773-637-565-1987-565h-1297v4666z"/></defs><use xlink:href="#j"/><use x="69.482422" xlink:href="#j"/><use x="138.964844" xlink:href="#af"/></g><use x="136.182549" y="589.68" stroke="#000000" stroke-width=".8" xlink:href="#c"/><g transform="translate(128.26 621.8) rotate(-45) scale(.1 -.1)"><defs><path id="au" transform="scale(.015625)" d="m3809 666v1253h-1031v519h1656v-2004q-365-259-806-392-440-133-940-133-1094 0-1712 639-617 640-617 1780 0 1144 617 1783 618 639 1712 639 456 0 867-113 411-112 758-331v-672q-350 297-744 447t-828 150q-857 0-1287-478-429-478-429-1425 0-944 429-1422 430-478 1287-478 334 0 596 58 263 58 472 180z"/><path id="u" transform="scale(.015625)" d="m2188 4044-857-2322h1716l-859 2322zm-357 622h716l1778-4666h-656l-425 1197h-2103l-425-1197h-666l1781 4666z"/></defs><use xlink:href="#au"/><use x="77.490234" xlink:href="#r"/><use x="147.314453" xlink:href="#u"/><use x="215.722656" xlink:href="#l"/></g><use x="164.96714" y="589.68" stroke="#000000" stroke-width=".8" xlink:href="#c"/><g transform="translate(151.72 632.46) rotate(-45) scale(.1 -.1)"><defs><path id="t" transform="scale(.015625)" d="m1259 2228v-1709h1013q509 0 754 211 246 211 246 645 0 438-246 645-245 208-754 208h-1013zm0 1919v-1406h935q462 0 688 173 227 174 227 530 0 353-227 528-226 175-688 175h-935zm-631 519h1613q722 0 1112-300 391-300 391-853 0-429-200-682t-588-315q466-100 724-418 258-317 258-792 0-625-425-966-425-340-1210-340h-1675v4666z"/><path id="aw" transform="scale(.015625)" d="m1625 4666h531l-1625-5260h-531l1625 5260z"/><path id="v" transform="scale(.015625)" d="m628 4666h631v-4135h2272v-531h-2903v4666z"/></defs><use xlink:href="#j"/><use x="69.482422" xlink:href="#j"/><use x="134.964844" xlink:href="#u"/><use x="203.373047" xlink:href="#t"/><use x="271.976562" xlink:href="#aw"/><use x="305.667969" xlink:href="#t"/><use x="374.271484" xlink:href="#v"/></g><use x="193.75173" y="589.68" stroke="#000000" stroke-width=".8" xlink:href="#c"/><g transform="translate(188.72 616.01) rotate(-45) scale(.1 -.1)"><use xlink:href="#l"/><use x="63.476562" xlink:href="#j"/><use x="128.958984" xlink:href="#u"/></g><use x="222.536321" y="589.68" stroke="#000000" stroke-width=".8" xlink:href="#c"/><g transform="translate(219.57 611.88) rotate(-45) scale(.1 -.1)"><use xlink:href="#j"/><use x="69.482422" xlink:href="#j"/></g><use x="251.320912" y="589.68" stroke="#000000" stroke-width=".8" xlink:href="#c"/><g transform="translate(246.03 616.54) rotate(-45) scale(.1 -.1)"><defs><path id="ab" transform="scale(.015625)" d="m1831 0-1781 4666h659l1479-3928 1481 3928h656l-1778-4666h-716z"/></defs><use xlink:href="#u"/><use x="66.658203" xlink:href="#r"/><use x="136.482422" xlink:href="#ab"/></g><use x="280.105502" y="589.68" stroke="#000000" stroke-width=".8" xlink:href="#c"/><g transform="translate(266.96 632.24) rotate(-45) scale(.1 -.1)"><defs><path id="ak" transform="scale(.015625)" d="m2522 4238q-688 0-1093-513-404-512-404-1397 0-881 404-1394 405-512 1093-512 687 0 1089 512 402 513 402 1394 0 885-402 1397-402 513-1089 513zm0 512q981 0 1568-658 588-658 588-1764 0-1103-588-1761-587-658-1568-658-984 0-1574 656-589 657-589 1763t589 1764q590 658 1574 658z"/></defs><use xlink:href="#x"/><use x="59.333984" xlink:href="#x"/><use x="120.417969" xlink:href="#l"/><use x="183.894531" xlink:href="#aw"/><use x="217.585938" xlink:href="#j"/><use x="287.068359" xlink:href="#ak"/><use x="365.779297" xlink:href="#x"/></g><use x="308.890093" y="589.68" stroke="#000000" stroke-width=".8" xlink:href="#c"/><g transform="translate(301.91 619.92) rotate(-45) scale(.1 -.1)"><defs><path id="aj" transform="scale(.015625)" d="m1259 4147v-1753h794q441 0 681 228 241 228 241 650 0 419-241 647-240 228-681 228h-794zm-631 519h1425q785 0 1186-355 402-355 402-1039 0-691-402-1044-401-353-1186-353h-794v-1875h-631v4666z"/><path id="ai" transform="scale(.015625)" d="m556 4666h635v-2835q0-750 271-1080 272-329 882-329 606 0 878 329 272 330 272 1080v2835h634v-2913q0-912-452-1378-451-466-1332-466-885 0-1337 466-451 466-451 1378v2913z"/></defs><use xlink:href="#aj"/><use x="60.302734" xlink:href="#ai"/><use x="133.496094" xlink:href="#v"/><use x="189.208984" xlink:href="#l"/></g><use x="337.674684" y="589.68" stroke="#000000" stroke-width=".8" xlink:href="#c"/><g transform="translate(334.62 612.07) rotate(-45) scale(.1 -.1)"><use xlink:href="#ai"/><use x="73.193359" xlink:href="#ab"/></g><use x="366.459274" y="589.68" stroke="#000000" stroke-width=".8" xlink:href="#c"/><g transform="translate(356.75 625.24) rotate(-45) scale(.1 -.1)"><defs><path id="q" transform="scale(.015625)" d="m628 4666h2950v-532h-2319v-1381h2222v-531h-2222v-1691h2375v-531h-3006v4666z"/><path id="aq" transform="scale(.015625)" d="m1344 4891v-6400h-531v6400h531z"/><path id="as" transform="scale(.015625)" d="m213 4666h637l981-3944 978 3944h710l981-3944 978 3944h641l-1172-4666h-794l-984 4050-994-4050h-794l-1168 4666z"/></defs><use xlink:href="#q"/><use x="63.183594" xlink:href="#t"/><use x="131.787109" xlink:href="#aq"/><use x="165.478516" xlink:href="#q"/><use x="228.662109" xlink:href="#as"/></g><use x="395.243865" y="589.68" stroke="#000000" stroke-width=".8" xlink:href="#c"/><g transform="translate(382.41 631.48) rotate(-45) scale(.1 -.1)"><defs><path id="al" transform="scale(.015625)" d="m628 4666h941l1190-3175 1197 3175h941v-4666h-616v4097l-1203-3200h-634l-1203 3200v-4097h-613v4666z"/><path id="at" transform="scale(.015625)" d="m628 4666h631v-4666h-631v4666z"/></defs><use xlink:href="#al"/><use x="86.279297" xlink:href="#at"/><use x="115.771484" xlink:href="#l"/><use x="179.248047" xlink:href="#r"/><use x="249.072266" xlink:href="#aq"/><use x="282.763672" xlink:href="#l"/><use x="346.240234" xlink:href="#j"/></g><use x="424.028456" y="589.68" stroke="#000000" stroke-width=".8" xlink:href="#c"/><g transform="translate(419.46 615.09) rotate(-45) scale(.1 -.1)"><use xlink:href="#v"/><use x="55.712891" xlink:href="#aj"/><use x="116.015625" xlink:href="#ab"/></g><use x="452.813047" y="589.68" stroke="#000000" stroke-width=".8" xlink:href="#c"/><g transform="translate(450.37 610.84) rotate(-45) scale(.1 -.1)"><use xlink:href="#v"/><use x="55.712891" xlink:href="#t"/></g><use x="481.597637" y="589.68" stroke="#000000" stroke-width=".8" xlink:href="#c"/><g transform="translate(473.99 621.17) rotate(-45) scale(.1 -.1)"><use xlink:href="#af"/><use x="77.001953" xlink:href="#r"/><use x="146.826172" xlink:href="#q"/><use x="210.009766" xlink:href="#aj"/></g><use x="510.382228" y="589.68" stroke="#000000" stroke-width=".8" xlink:href="#c"/><g transform="translate(505.21 616.31) rotate(-45) scale(.1 -.1)"><use xlink:href="#l"/><use x="63.476562" xlink:href="#j"/><use x="132.958984" xlink:href="#t"/></g><use x="539.166819" y="589.68" stroke="#000000" stroke-width=".8" xlink:href="#c"/><g transform="translate(533.93 616.43) rotate(-45) scale(.1 -.1)"><defs><path id="ar" transform="scale(.015625)" d="m-13 4666h679l1293-1919 1285 1919h678l-1650-2444v-2222h-634v2222l-1651 2444z"/></defs><use xlink:href="#ar"/><use x="61.083984" xlink:href="#l"/><use x="124.560547" xlink:href="#ak"/></g><use x="567.951409" y="589.68" stroke="#000000" stroke-width=".8" xlink:href="#c"/><g transform="translate(564.58 612.71) rotate(-45) scale(.1 -.1)"><use xlink:href="#ai"/><use x="73.193359" xlink:href="#au"/></g><use x="596.736" y="589.68" stroke="#000000" stroke-width=".8" xlink:href="#c"/><g transform="translate(588.64 622.14) rotate(-45) scale(.1 -.1)"><defs><path id="ay" transform="scale(.015625)" d="m628 4666h631v-1913h2294v1913h631v-4666h-631v2222h-2294v-2222h-631v4666z"/></defs><use xlink:href="#ay"/><use x="75.195312" xlink:href="#u"/><use x="143.603516" xlink:href="#af"/><use x="220.605469" xlink:href="#l"/></g><use x="625.520591" y="589.68" stroke="#000000" stroke-width=".8" xlink:href="#c"/><g transform="translate(617.88 621.24) rotate(-45) scale(.1 -.1)"><use xlink:href="#af"/><use x="77.001953" xlink:href="#l"/><use x="140.478516" xlink:href="#r"/><use x="210.302734" xlink:href="#x"/></g><use x="654.305181" y="589.68" stroke="#000000" stroke-width=".8" xlink:href="#c"/><g transform="translate(650.08 614.4) rotate(-45) scale(.1 -.1)"><use xlink:href="#q"/><use x="63.183594" xlink:href="#v"/><use x="118.896484" xlink:href="#v"/></g><use x="683.089772" y="589.68" stroke="#000000" stroke-width=".8" xlink:href="#c"/><g transform="translate(676.23 619.67) rotate(-45) scale(.1 -.1)"><use xlink:href="#al"/><use x="86.279297" xlink:href="#at"/><use x="115.771484" xlink:href="#l"/><use x="179.248047" xlink:href="#r"/></g><use x="711.874363" y="589.68" stroke="#000000" stroke-width=".8" xlink:href="#c"/><g transform="translate(709.17 611.37) rotate(-45) scale(.1 -.1)"><use xlink:href="#q"/><use x="63.183594" xlink:href="#t"/></g><use x="740.658953" y="589.68" stroke="#000000" stroke-width=".8" xlink:href="#c"/><g transform="translate(735.4 616.46) rotate(-45) scale(.1 -.1)"><use xlink:href="#j"/><use x="69.482422" xlink:href="#j"/><use x="133.964844" xlink:href="#r"/></g><use x="769.443544" y="589.68" stroke="#000000" stroke-width=".8" xlink:href="#c"/><g transform="translate(769.42 605.99) rotate(-45) scale(.1 -.1)"><use xlink:href="#v"/></g><use x="798.228135" y="589.68" stroke="#000000" stroke-width=".8" xlink:href="#c"/><g transform="translate(795.48 611.46) rotate(-45) scale(.1 -.1)"><use xlink:href="#j"/><use x="69.482422" xlink:href="#l"/></g><use x="827.012726" y="589.68" stroke="#000000" stroke-width=".8" xlink:href="#c"/><g transform="translate(825.91 608.15) rotate(-45) scale(.1 -.1)"><use xlink:href="#al"/></g><use x="855.797316" y="589.68" stroke="#000000" stroke-width=".8" xlink:href="#c"/><g transform="translate(853.36 610.83) rotate(-45) scale(.1 -.1)"><use xlink:href="#t"/><use x="63.103516" xlink:href="#ar"/></g><use x="884.581907" y="589.68" stroke="#000000" stroke-width=".8" xlink:href="#c"/><g transform="translate(881.83 611.46) rotate(-45) scale(.1 -.1)"><use xlink:href="#q"/><use x="63.183594" xlink:href="#r"/></g><use x="913.366498" y="589.68" stroke="#000000" stroke-width=".8" xlink:href="#c"/><g transform="translate(907.92 616.85) rotate(-45) scale(.1 -.1)"><use xlink:href="#j"/><use x="69.482422" xlink:href="#ak"/><use x="148.193359" xlink:href="#x"/></g><use x="942.151088" y="589.68" stroke="#000000" stroke-width=".8" xlink:href="#c"/><g transform="translate(934.49 621.29) rotate(-45) scale(.1 -.1)"><use xlink:href="#j"/><use x="69.482422" xlink:href="#j"/><use x="134.964844" xlink:href="#u"/><use x="203.373047" xlink:href="#t"/></g><use x="970.935679" y="589.68" stroke="#000000" stroke-width=".8" xlink:href="#c"/><g transform="translate(968.23 611.36) rotate(-45) scale(.1 -.1)"><use xlink:href="#q"/><use x="63.183594" xlink:href="#u"/></g><use x="999.72027" y="589.68" stroke="#000000" stroke-width=".8" xlink:href="#c"/><g transform="translate(994.73 615.94) rotate(-45) scale(.1 -.1)"><use xlink:href="#l"/><use x="63.476562" xlink:href="#j"/><use x="132.958984" xlink:href="#l"/></g><use x="1028.50486" y="589.68" stroke="#000000" stroke-width=".8" xlink:href="#c"/><g transform="translate(1023.4 616.19) rotate(-45) scale(.1 -.1)"><use xlink:href="#ab"/><use x="62.033203" xlink:href="#u"/><use x="130.441406" xlink:href="#j"/></g><use x="1057.289451" y="589.68" stroke="#000000" stroke-width=".8" xlink:href="#c"/><g transform="translate(1054.5 611.46) rotate(-45) scale(.1 -.1)"><use xlink:href="#l"/><use x="63.476562" xlink:href="#j"/></g><use x="1086.074042" y="589.68" stroke="#000000" stroke-width=".8" xlink:href="#c"/><g transform="translate(1085.8 606.52) rotate(-45) scale(.1 -.1)"><use xlink:href="#q"/></g><use x="1114.858632" y="589.68" stroke="#000000" stroke-width=".8" xlink:href="#c"/><g transform="translate(1111.1 613.51) rotate(-45) scale(.1 -.1)"><use xlink:href="#q"/><use x="63.183594" xlink:href="#as"/></g><g transform="translate(506.6 644.57) scale(.14 -.14)"><defs><path id="bh" transform="scale(.015625)" d="m-19 4666h3947v-532h-1656v-4134h-634v4134h-1657v532z"/><path id="y" transform="scale(.015625)" d="m3578 3500v-3500h-572v2809l-1687-2809h-738v3500h572v-2803l1685 2803h740z"/><path id="w" transform="scale(.015625)" d="m3603 3500v-3500h-578v3041h-1866v-3041h-578v3500h3022z"/><path id="ae" transform="scale(.015625)" d="m3907 3500h575v-3500h-575v3500zm288 84zm-1414-2546q0 281-205 428-204 147-598 147h-819v-1154h819q394 0 598 148 205 149 205 431zm-2200 2462h578v-1428h844q669 0 1030-255 361-254 361-779t-361-782q-361-256-1030-256h-1422v3500z"/><path id="g" transform="scale(.015625)" d="m3597 1894v-281h-2644q38-594 358-905t892-311q331 0 642 81t618 244v-544q-310-131-635-200t-659-69q-838 0-1327 487-489 488-489 1320 0 859 464 1363 464 505 1252 505 706 0 1117-455 411-454 411-1235zm-575 169q-6 471-264 752-258 282-683 282-481 0-770-272t-333-766l2050 4z"/><path id="ac" transform="scale(.015625)" d="m1159 525v-1856h-578v4831h578v-531q182 312 458 463 277 152 661 152 638 0 1036-506 399-506 399-1331t-399-1332q-398-506-1036-506-384 0-661 152-276 152-458 464zm1957 1222q0 634-261 995t-717 361q-457 0-718-361t-261-995 261-995 718-361q456 0 717 361t261 995z"/><path id="ah" transform="scale(.015625)" d="m581 3500h841l994-2344 997 2344h834v-3500h-578v2950l-966-2278h-575l-969 2278v-2950h-578v3500z"/><path id="s" transform="scale(.015625)" d="m581 3500h578v-1428h1866v1428h578v-3500h-578v1613h-1866v-1613h-578v3500z"/><path id="am" transform="scale(.015625)" d="m3513 3500-1266-1703 1331-1797h-678l-1019 1375-1018-1375h-679l1360 1831-1244 1669h678l928-1247 928 1247h679z"/><path id="z" transform="scale(.015625)" d="m2206 1888q388-75 603-304 216-228 216-565 0-541-403-826-403-284-1147-284-250 0-514 44t-545 131v535q222-116 487-174 266-57 556-57 472 0 736 175t264 456q0 275-234 442t-662 167h-463v475h484q363 0 574 139t211 358q0 200-218 344-217 144-588 144-222 0-474-41-251-41-555-131v522q307 75 572 112 266 38 503 38 613 0 967-246 355-245 355-686 0-290-188-492-187-201-537-276z"/><path id="aa" transform="scale(.015625)" d="m1156 1613v-1154h819q394 0 600 148 206 149 206 431 0 281-206 428t-600 147h-819zm0 1428v-969h757q325 0 531 129 206 130 206 362 0 231-206 354-206 124-531 124h-757zm-575 459h1369q616 0 947-225t331-641q0-321-169-511-168-189-500-235 397-75 616-313 219-237 219-594 0-468-361-725-361-256-1030-256h-1422v3500z"/><path id="ad" transform="scale(.015625)" d="m1384 459h1669v2582h-1209v-438q0-1287-369-1975l-91-169zm-834 0q284 125 409 391 307 659 307 1988v662h2365v-3041h460v-1343h-460v884h-2837v-884h-460v1343h216z"/></defs><use xlink:href="#bh"/><use x="61.083984" xlink:href="#y"/><use x="126.074219" xlink:href="#w"/><use x="191.455078" xlink:href="#ae"/><use x="270.410156" xlink:href="#DejaVuSans-20"/><use x="302.197266" xlink:href="#w"/><use x="367.578125" xlink:href="#g"/><use x="429.101562" xlink:href="#ac"/><use x="492.578125" xlink:href="#g"/><use x="554.101562" xlink:href="#ah"/><use x="629.541016" xlink:href="#g"/><use x="691.064453" xlink:href="#s"/><use x="756.445312" xlink:href="#s"/><use x="821.826172" xlink:href="#ae"/><use x="900.78125" xlink:href="#am"/><use x="959.960938" xlink:href="#DejaVuSans-20"/><use x="991.748047" xlink:href="#z"/><use x="1044.921875" xlink:href="#aa"/><use x="1103.857422" xlink:href="#g"/><use x="1165.380859" xlink:href="#z"/><use x="1218.554688" xlink:href="#ad"/></g><defs><path id="p" d="m0 0h-3.5" stroke="#000" stroke-width=".8"/></defs><use x="58.752" y="589.68" stroke="#000000" stroke-width=".8" xlink:href="#p"/><g transform="translate(45.39 593.48) scale(.1 -.1)"><defs><path id="a" transform="scale(.015625)" d="m2034 4250q-487 0-733-480-245-479-245-1442 0-959 245-1439 246-480 733-480 491 0 736 480 246 480 246 1439 0 963-246 1442-245 480-736 480zm0 500q785 0 1199-621 414-620 414-1801 0-1178-414-1799-414-620-1199-620-784 0-1198 620-414 621-414 1799 0 1181 414 1801 414 621 1198 621z"/></defs><use xlink:href="#a"/></g><use x="58.752" y="523.62437" stroke="#000000" stroke-width=".8" xlink:href="#p"/><g transform="translate(19.94 527.42) scale(.1 -.1)"><defs><path id="k" transform="scale(.015625)" d="m691 4666h2478v-532h-1900v-1143q137 47 274 70 138 23 276 23 781 0 1237-428 457-428 457-1159 0-753-469-1171-469-417-1322-417-294 0-599 50-304 50-629 150v635q281-153 581-228t634-75q541 0 856 284 316 284 316 772 0 487-316 771-315 285-856 285-253 0-505-56-251-56-513-175v2344z"/></defs><use xlink:href="#k"/><use x="63.623047" xlink:href="#a"/><use x="127.246094" xlink:href="#a"/><use x="190.869141" xlink:href="#a"/><use x="254.492188" xlink:href="#a"/></g><use x="58.752" y="457.568741" stroke="#000000" stroke-width=".8" xlink:href="#p"/><g transform="translate(13.577 461.37) scale(.1 -.1)"><defs><path id="e" transform="scale(.015625)" d="m794 531h1031v3560l-1122-225v575l1116 225h631v-4135h1031v-531h-2687v531z"/></defs><use xlink:href="#e"/><use x="63.623047" xlink:href="#a"/><use x="127.246094" xlink:href="#a"/><use x="190.869141" xlink:href="#a"/><use x="254.492188" xlink:href="#a"/><use x="318.115234" xlink:href="#a"/></g><use x="58.752" y="391.513111" stroke="#000000" stroke-width=".8" xlink:href="#p"/><g transform="translate(13.577 395.31) scale(.1 -.1)"><use xlink:href="#e"/><use x="63.623047" xlink:href="#k"/><use x="127.246094" xlink:href="#a"/><use x="190.869141" xlink:href="#a"/><use x="254.492188" xlink:href="#a"/><use x="318.115234" xlink:href="#a"/></g><use x="58.752" y="325.457481" stroke="#000000" stroke-width=".8" xlink:href="#p"/><g transform="translate(13.577 329.26) scale(.1 -.1)"><defs><path id="f" transform="scale(.015625)" d="m1228 531h2203v-531h-2962v531q359 372 979 998 621 627 780 809 303 340 423 576 121 236 121 464 0 372-261 606-261 235-680 235-297 0-627-103-329-103-704-313v638q381 153 712 231 332 78 607 78 725 0 1156-363 431-362 431-968 0-288-108-546-107-257-392-607-78-91-497-524-418-433-1181-1211z"/></defs><use xlink:href="#f"/><use x="63.623047" xlink:href="#a"/><use x="127.246094" xlink:href="#a"/><use x="190.869141" xlink:href="#a"/><use x="254.492188" xlink:href="#a"/><use x="318.115234" xlink:href="#a"/></g><use x="58.752" y="259.401851" stroke="#000000" stroke-width=".8" xlink:href="#p"/><g transform="translate(13.577 263.2) scale(.1 -.1)"><use xlink:href="#f"/><use x="63.623047" xlink:href="#k"/><use x="127.246094" xlink:href="#a"/><use x="190.869141" xlink:href="#a"/><use x="254.492188" xlink:href="#a"/><use x="318.115234" xlink:href="#a"/></g><use x="58.752" y="193.346222" stroke="#000000" stroke-width=".8" xlink:href="#p"/><g transform="translate(13.577 197.15) scale(.1 -.1)"><defs><path id="i" transform="scale(.015625)" d="m2597 2516q453-97 707-404 255-306 255-756 0-690-475-1069-475-378-1350-378-293 0-604 58t-642 174v609q262-153 574-231 313-78 654-78 593 0 904 234t311 681q0 413-289 645-289 233-804 233h-544v519h569q465 0 712 186t247 536q0 359-255 551-254 193-729 193-260 0-557-57-297-56-653-174v562q360 100 674 150t592 50q719 0 1137-327 419-326 419-882 0-388-222-655t-631-370z"/></defs><use xlink:href="#i"/><use x="63.623047" xlink:href="#a"/><use x="127.246094" xlink:href="#a"/><use x="190.869141" xlink:href="#a"/><use x="254.492188" xlink:href="#a"/><use x="318.115234" xlink:href="#a"/></g><use x="58.752" y="127.290592" stroke="#000000" stroke-width=".8" xlink:href="#p"/><g transform="translate(13.577 131.09) scale(.1 -.1)"><use xlink:href="#i"/><use x="63.623047" xlink:href="#k"/><use x="127.246094" xlink:href="#a"/><use x="190.869141" xlink:href="#a"/><use x="254.492188" xlink:href="#a"/><use x="318.115234" xlink:href="#a"/></g><use x="58.752" y="61.234962" stroke="#000000" stroke-width=".8" xlink:href="#p"/><g transform="translate(13.577 65.034) scale(.1 -.1)"><defs><path id="d" transform="scale(.015625)" d="m2419 4116-1594-2491h1594v2491zm-166 550h794v-3041h666v-525h-666v-1100h-628v1100h-2106v609l1940 2957z"/></defs><use xlink:href="#d"/><use x="63.623047" xlink:href="#a"/><use x="127.246094" xlink:href="#a"/><use x="190.869141" xlink:href="#a"/><use x="254.492188" xlink:href="#a"/><use x="318.115234" xlink:href="#a"/></g><g transform="translate(10.665 423.69) rotate(-90) scale(.14 -.14)"><defs><path id="bj" transform="scale(.015625)" d="m628 4666h631v-2307l2257 2307h809l-1803-1844 1897-2822h-688l-1618 2403-854-872v-1531h-631v4666z"/><path id="ag" transform="scale(.015625)" d="m1959 3097q-462 0-731-361t-269-989 267-989q268-361 733-361 460 0 728 362 269 363 269 988 0 622-269 986-268 364-728 364zm0 487q750 0 1178-488 429-487 429-1349 0-859-429-1349-428-489-1178-489-753 0-1180 489-426 490-426 1349 0 862 426 1349 427 488 1180 488z"/><path id="av" transform="scale(.015625)" d="m238 0v478q568 88 743 481 213 554 213 1969v572h2365v-3500h-575v3041h-1215v-347q0-1350-275-1956-294-647-1256-738z"/><path id="bc" transform="scale(.015625)" d="m2625 0v1472h-1072q-478 0-797 297-287 269-287 844v887h575v-834q0-366 162-550 166-185 491-185h928v1569h575v-3500h-575z"/><path id="ao" transform="scale(.015625)" d="m3122 3366v-538q-244 135-489 202t-495 67q-560 0-870-355-309-354-309-995t309-996q310-354 870-354 250 0 495 67t489 202v-532q-241-112-499-168-257-57-548-57-791 0-1257 497-465 497-465 1341 0 856 470 1346 471 491 1290 491 265 0 518-55 253-54 491-163z"/><path id="an" transform="scale(.015625)" d="m188 3500h3353v-459h-1394v-3041h-566v3041h-1393v459z"/></defs><use xlink:href="#bj"/><use x="70.996094" xlink:href="#ag"/><use x="132.177734" xlink:href="#av"/><use x="196.09375" xlink:href="#y"/><use x="261.083984" xlink:href="#bc"/><use x="320.166016" xlink:href="#g"/><use x="381.689453" xlink:href="#ao"/><use x="436.669922" xlink:href="#an"/><use x="494.921875" xlink:href="#aa"/><use x="553.857422" xlink:href="#ag"/><use x="615.039062" xlink:href="#DejaVuSans-20"/><use x="646.826172" xlink:href="#w"/><use x="712.207031" xlink:href="#g"/><use x="773.730469" xlink:href="#ac"/><use x="837.207031" xlink:href="#g"/><use x="898.730469" xlink:href="#ah"/><use x="974.169922" xlink:href="#g"/><use x="1035.693359" xlink:href="#s"/><use x="1101.074219" xlink:href="#s"/><use x="1166.455078" xlink:href="#ae"/><use x="1245.410156" xlink:href="#am"/><use x="1304.589844" xlink:href="#DejaVuSans-20"/><use x="1336.376953" xlink:href="#z"/><use x="1389.550781" xlink:href="#aa"/><use x="1448.486328" xlink:href="#g"/><use x="1510.009766" xlink:href="#z"/><use x="1563.183594" xlink:href="#ad"/></g><path d="m58.752 589.68v-560.52" fill="none" stroke="#000" stroke-linecap="square" stroke-width=".8"/><path d="m1134.7 589.68v-560.52" fill="none" stroke="#000" stroke-linecap="square" stroke-width=".8"/><path d="m58.752 589.68h1076" fill="none" stroke="#000" stroke-linecap="square" stroke-width=".8"/><path d="m58.752 29.16h1076" fill="none" stroke="#000" stroke-linecap="square" stroke-width=".8"/><g transform="translate(68.433 586.29) scale(.08 -.08)"><use xlink:href="#e"/><use x="63.623047" xlink:href="#i"/><use x="127.246094" xlink:href="#a"/><use x="190.869141" xlink:href="#d"/></g><g transform="translate(97.218 586.08) scale(.08 -.08)"><defs><path id="o" transform="scale(.015625)" d="m2113 2584q-425 0-674-291-248-290-248-796 0-503 248-796 249-292 674-292t673 292q248 293 248 796 0 506-248 796-248 291-673 291zm1253 1979v-575q-238 112-480 171-242 60-480 60-625 0-955-422-329-422-376-1275 184 272 462 417 279 145 613 145 703 0 1111-427 408-426 408-1160 0-719-425-1154-425-434-1131-434-810 0-1238 620-428 621-428 1799 0 1106 525 1764t1409 658q238 0 480-47t505-140z"/><path id="m" transform="scale(.015625)" d="m2034 2216q-450 0-708-241-257-241-257-662 0-422 257-663 258-241 708-241t709 242q260 243 260 662 0 421-258 662-257 241-711 241zm-631 268q-406 100-633 378-226 279-226 679 0 559 398 884 399 325 1092 325 697 0 1094-325t397-884q0-400-227-679-226-278-629-378 456-106 710-416 255-309 255-755 0-679-414-1042-414-362-1186-362-771 0-1186 362-414 363-414 1042 0 446 256 755 257 310 713 416zm-231 997q0-362 226-565 227-203 636-203 407 0 636 203 230 203 230 565 0 363-230 566-229 203-636 203-409 0-636-203-226-203-226-566z"/></defs><use xlink:href="#e"/><use x="63.623047" xlink:href="#d"/><use x="127.246094" xlink:href="#o"/><use x="190.869141" xlink:href="#m"/></g><g transform="translate(126 585.98) scale(.08 -.08)"><use xlink:href="#e"/><use x="63.623047" xlink:href="#k"/><use x="127.246094" xlink:href="#d"/><use x="190.869141" xlink:href="#d"/></g><g transform="translate(154.79 585.68) scale(.08 -.08)"><defs><path id="n" transform="scale(.015625)" d="m525 4666h3e3v-269l-1694-4397h-659l1594 4134h-2241v532z"/><path id="h" transform="scale(.015625)" d="m703 97v575q238-113 481-172 244-59 479-59 625 0 954 420 330 420 377 1277-181-269-460-413-278-144-615-144-700 0-1108 423-408 424-408 1159 0 718 425 1152 425 435 1131 435 810 0 1236-621 427-620 427-1801 0-1103-524-1761-523-658-1407-658-238 0-482 47-243 47-506 141zm1256 1978q425 0 673 290 249 291 249 798 0 503-249 795-248 292-673 292t-673-292-248-795q0-507 248-798 248-290 673-290z"/></defs><use xlink:href="#e"/><use x="63.623047" xlink:href="#n"/><use x="127.246094" xlink:href="#o"/><use x="190.869141" xlink:href="#h"/></g><g transform="translate(183.57 585.64) scale(.08 -.08)"><use xlink:href="#e"/><use x="63.623047" xlink:href="#n"/><use x="127.246094" xlink:href="#h"/><use x="190.869141" xlink:href="#k"/></g><g transform="translate(212.36 585.52) scale(.08 -.08)"><use xlink:href="#e"/><use x="63.623047" xlink:href="#m"/><use x="127.246094" xlink:href="#m"/><use x="190.869141" xlink:href="#m"/></g><g transform="translate(241.14 585.47) scale(.08 -.08)"><use xlink:href="#e"/><use x="63.623047" xlink:href="#h"/><use x="127.246094" xlink:href="#f"/><use x="190.869141" xlink:href="#k"/></g><g transform="translate(269.93 585.42) scale(.08 -.08)"><use xlink:href="#e"/><use x="63.623047" xlink:href="#h"/><use x="127.246094" xlink:href="#o"/><use x="190.869141" xlink:href="#k"/></g><g transform="translate(298.71 585.07) scale(.08 -.08)"><use xlink:href="#f"/><use x="63.623047" xlink:href="#f"/><use x="127.246094" xlink:href="#f"/><use x="190.869141" xlink:href="#h"/></g><g transform="translate(327.49 584.76) scale(.08 -.08)"><use xlink:href="#f"/><use x="63.623047" xlink:href="#d"/><use x="127.246094" xlink:href="#o"/><use x="190.869141" xlink:href="#i"/></g><g transform="translate(356.28 583.61) scale(.08 -.08)"><use xlink:href="#i"/><use x="63.623047" xlink:href="#i"/><use x="127.246094" xlink:href="#i"/><use x="190.869141" xlink:href="#m"/></g><g transform="translate(385.06 583.44) scale(.08 -.08)"><use xlink:href="#i"/><use x="63.623047" xlink:href="#d"/><use x="127.246094" xlink:href="#o"/><use x="190.869141" xlink:href="#f"/></g><g transform="translate(413.85 583.38) scale(.08 -.08)"><use xlink:href="#i"/><use x="63.623047" xlink:href="#k"/><use x="127.246094" xlink:href="#e"/><use x="190.869141" xlink:href="#f"/></g><g transform="translate(442.63 583.21) scale(.08 -.08)"><use xlink:href="#i"/><use x="63.623047" xlink:href="#o"/><use x="127.246094" xlink:href="#d"/><use x="190.869141" xlink:href="#e"/></g><g transform="translate(471.42 582.83) scale(.08 -.08)"><use xlink:href="#i"/><use x="63.623047" xlink:href="#h"/><use x="127.246094" xlink:href="#f"/><use x="190.869141" xlink:href="#d"/></g><g transform="translate(500.2 582.72) scale(.08 -.08)"><use xlink:href="#d"/><use x="63.623047" xlink:href="#a"/><use x="127.246094" xlink:href="#a"/><use x="190.869141" xlink:href="#n"/></g><g transform="translate(528.99 579.82) scale(.08 -.08)"><use xlink:href="#o"/><use x="63.623047" xlink:href="#f"/><use x="127.246094" xlink:href="#a"/><use x="190.869141" xlink:href="#o"/></g><g transform="translate(555.23 574.17) scale(.08 -.08)"><use xlink:href="#e"/><use x="63.623047" xlink:href="#a"/><use x="127.246094" xlink:href="#d"/><use x="190.869141" xlink:href="#m"/><use x="254.492188" xlink:href="#f"/></g><g transform="translate(584.01 573.51) scale(.08 -.08)"><use xlink:href="#e"/><use x="63.623047" xlink:href="#a"/><use x="127.246094" xlink:href="#h"/><use x="190.869141" xlink:href="#n"/><use x="254.492188" xlink:href="#h"/></g><g transform="translate(612.8 567.31) scale(.08 -.08)"><use xlink:href="#e"/><use x="63.623047" xlink:href="#k"/><use x="127.246094" xlink:href="#o"/><use x="190.869141" xlink:href="#n"/><use x="254.492188" xlink:href="#k"/></g><g transform="translate(641.58 554.02) scale(.08 -.08)"><use xlink:href="#f"/><use x="63.623047" xlink:href="#k"/><use x="127.246094" xlink:href="#n"/><use x="190.869141" xlink:href="#i"/><use x="254.492188" xlink:href="#a"/></g><g transform="translate(670.36 551.96) scale(.08 -.08)"><use xlink:href="#f"/><use x="63.623047" xlink:href="#n"/><use x="127.246094" xlink:href="#f"/><use x="190.869141" xlink:href="#h"/><use x="254.492188" xlink:href="#k"/></g><g transform="translate(699.15 549.35) scale(.08 -.08)"><use xlink:href="#f"/><use x="63.623047" xlink:href="#h"/><use x="127.246094" xlink:href="#f"/><use x="190.869141" xlink:href="#n"/><use x="254.492188" xlink:href="#a"/></g><g transform="translate(727.93 535.39) scale(.08 -.08)"><use xlink:href="#i"/><use x="63.623047" xlink:href="#h"/><use x="127.246094" xlink:href="#m"/><use x="190.869141" xlink:href="#i"/><use x="254.492188" xlink:href="#m"/></g><g transform="translate(756.72 534.96) scale(.08 -.08)"><use xlink:href="#d"/><use x="63.623047" xlink:href="#a"/><use x="127.246094" xlink:href="#e"/><use x="190.869141" xlink:href="#o"/><use x="254.492188" xlink:href="#d"/></g><g transform="translate(785.5 482.86) scale(.08 -.08)"><use xlink:href="#n"/><use x="63.623047" xlink:href="#h"/><use x="127.246094" xlink:href="#k"/><use x="190.869141" xlink:href="#h"/><use x="254.492188" xlink:href="#n"/></g><g transform="translate(814.29 479.1) scale(.08 -.08)"><use xlink:href="#m"/><use x="63.623047" xlink:href="#f"/><use x="127.246094" xlink:href="#d"/><use x="190.869141" xlink:href="#d"/><use x="254.492188" xlink:href="#o"/></g><g transform="translate(843.07 473.15) scale(.08 -.08)"><use xlink:href="#m"/><use x="63.623047" xlink:href="#o"/><use x="127.246094" xlink:href="#h"/><use x="190.869141" xlink:href="#d"/><use x="254.492188" xlink:href="#n"/></g><g transform="translate(871.86 463.37) scale(.08 -.08)"><use xlink:href="#h"/><use x="63.623047" xlink:href="#d"/><use x="127.246094" xlink:href="#i"/><use x="190.869141" xlink:href="#k"/><use x="254.492188" xlink:href="#a"/></g><g transform="translate(900.64 458.36) scale(.08 -.08)"><use xlink:href="#h"/><use x="63.623047" xlink:href="#m"/><use x="127.246094" xlink:href="#e"/><use x="190.869141" xlink:href="#d"/><use x="254.492188" xlink:href="#e"/></g><g transform="translate(929.43 456.89) scale(.08 -.08)"><use xlink:href="#h"/><use x="63.623047" xlink:href="#h"/><use x="127.246094" xlink:href="#f"/><use x="190.869141" xlink:href="#k"/><use x="254.492188" xlink:href="#d"/></g><g transform="translate(955.67 453.67) scale(.08 -.08)"><use xlink:href="#e"/><use x="63.623047" xlink:href="#a"/><use x="127.246094" xlink:href="#e"/><use x="190.869141" xlink:href="#o"/><use x="254.492188" xlink:href="#h"/><use x="318.115234" xlink:href="#a"/></g><g transform="translate(984.45 430.4) scale(.08 -.08)"><use xlink:href="#e"/><use x="63.623047" xlink:href="#e"/><use x="127.246094" xlink:href="#h"/><use x="190.869141" xlink:href="#i"/><use x="254.492188" xlink:href="#a"/><use x="318.115234" xlink:href="#m"/></g><g transform="translate(1013.2 392.64) scale(.08 -.08)"><use xlink:href="#e"/><use x="63.623047" xlink:href="#d"/><use x="127.246094" xlink:href="#n"/><use x="190.869141" xlink:href="#m"/><use x="254.492188" xlink:href="#m"/><use x="318.115234" xlink:href="#k"/></g><g transform="translate(1042 155.73) scale(.08 -.08)"><use xlink:href="#i"/><use x="63.623047" xlink:href="#f"/><use x="127.246094" xlink:href="#n"/><use x="190.869141" xlink:href="#f"/><use x="254.492188" xlink:href="#e"/><use x="318.115234" xlink:href="#d"/></g><g transform="translate(1070.8 140.62) scale(.08 -.08)"><use xlink:href="#i"/><use x="63.623047" xlink:href="#i"/><use x="127.246094" xlink:href="#m"/><use x="190.869141" xlink:href="#o"/><use x="254.492188" xlink:href="#d"/><use x="318.115234" xlink:href="#m"/></g><g transform="translate(1099.6 54.188) scale(.08 -.08)"><use xlink:href="#d"/><use x="63.623047" xlink:href="#a"/><use x="127.246094" xlink:href="#d"/><use x="190.869141" xlink:href="#a"/><use x="254.492188" xlink:href="#n"/><use x="318.115234" xlink:href="#k"/></g><g transform="translate(238.96 23.16) scale(.16 -.16)"><defs><path id="bi" transform="scale(.015625)" d="m1259 4147v-1753h794q441 0 681 228 241 228 241 650 0 419-241 647-240 228-681 228h-794zm-631 519h1425q785 0 1186-355 402-355 402-1039 0-691-402-1044-401-353-1186-353h-794v-1875h-631v4666z"/><path id="ap" transform="scale(.015625)" d="m2194 1759q-697 0-966-159t-269-544q0-306 202-486 202-179 548-179 479 0 768 339t289 901v128h-572zm1147 238v-1997h-575v531q-197-318-491-470t-719-152q-537 0-855 302-317 302-317 808 0 590 395 890 396 300 1180 300h807v57q0 397-261 614t-733 217q-300 0-585-72-284-72-546-216v532q315 122 612 182 297 61 578 61 760 0 1135-394 375-393 375-1193z"/><path id="be" transform="scale(.015625)" d="m581 3500h572v-1644l1622 1644h706l-1337-1353 1509-2147h-644l-1240 1766-616-625v-1141h-572v3500z"/><path id="bd" transform="scale(.015625)" d="m2059-325q-243-625-475-815-231-191-618-191h-460v481h338q237 0 368 113 132 112 291 531l103 262-1415 3444h609l1094-2737 1094 2737h609l-1538-3825z"/><path id="bb" transform="scale(.015625)" d="m5275 0h-4694v3500h578v-3041h1479v3041h578v-3041h1481v3041h578v-3041h459v-1343h-459v884z"/><path id="bf" transform="scale(.015625)" d="m3578 3500v-3500h-572v2809l-1687-2809h-738v3500h572v-2803l1685 2803h740zm-2476 1333h369q34-234 185-352 152-117 424-117 269 0 419 116t190 353h369q-31-447-278-672t-700-225-700 225-278 672z"/><path id="ax" transform="scale(.015625)" d="m403 4666h678l1160-1735 1165 1735h678l-1500-2241 1600-2425h-678l-1312 1984-1322-1984h-681l1665 2491-1453 2175z"/><path id="bl" transform="scale(.015625)" d="m684 794h660v-794h-660v794z"/><path id="bk" transform="scale(.015625)" d="m4159 4666v-4666h-612v3903l-2069-3903h-850v4666h613v-3903l2068 3903h850z"/><path id="az" transform="scale(.015625)" d="m3431 3097q-462 0-731-361t-269-989 267-989q268-361 733-361 460 0 728 362 269 363 269 988 0 622-269 986-268 364-728 364zm-1587-994q59 594 448 1037 389 444 1139 444t1178-488q429-487 429-1349 0-859-429-1349-428-489-1178-489-753 0-1164 472t-439 1247h-650v-1628h-575v3500h575v-1397h666z"/><path id="ba" transform="scale(.015625)" d="m2781 1038q0 281-205 428-204 147-598 147h-819v-1154h819q394 0 598 148 205 149 205 431zm-2200 2462h578v-1428h844q669 0 1030-255 361-254 361-779t-361-782q-361-256-1030-256h-1422v3500z"/><path id="bg" transform="scale(.015625)" d="m581 0v3500h2469v-459h-1891v-3041h-578z"/></defs><use xlink:href="#bi"/><use x="60.302734" xlink:href="#ap"/><use x="121.582031" xlink:href="#ao"/><use x="176.5625" xlink:href="#w"/><use x="241.943359" xlink:href="#ac"/><use x="305.419922" xlink:href="#g"/><use x="366.943359" xlink:href="#ad"/><use x="436.083984" xlink:href="#g"/><use x="497.607422" xlink:href="#av"/><use x="561.523438" xlink:href="#g"/><use x="623.046875" xlink:href="#s"/><use x="688.427734" xlink:href="#y"/><use x="753.417969" xlink:href="#g"/><use x="814.941406" xlink:href="#DejaVuSans-20"/><use x="846.728516" xlink:href="#w"/><use x="912.109375" xlink:href="#ag"/><use x="973.291016" xlink:href="#DejaVuSans-20"/><use x="1005.078125" xlink:href="#an"/><use x="1063.330078" xlink:href="#y"/><use x="1128.320312" xlink:href="#w"/><use x="1193.701172" xlink:href="#ap"/><use x="1254.980469" xlink:href="#ah"/><use x="1330.419922" xlink:href="#DejaVuSans-20"/><use x="1362.207031" xlink:href="#w"/><use x="1427.587891" xlink:href="#g"/><use x="1489.111328" xlink:href="#ac"/><use x="1552.587891" xlink:href="#g"/><use x="1614.111328" xlink:href="#ah"/><use x="1689.550781" xlink:href="#g"/><use x="1751.074219" xlink:href="#s"/><use x="1816.455078" xlink:href="#s"/><use x="1881.835938" xlink:href="#ae"/><use x="1960.791016" xlink:href="#am"/><use x="2019.970703" xlink:href="#DejaVuSans-20"/><use x="2051.757812" xlink:href="#z"/><use x="2104.931641" xlink:href="#aa"/><use x="2163.867188" xlink:href="#g"/><use x="2225.390625" xlink:href="#z"/><use x="2278.564453" xlink:href="#ad"/><use x="2347.705078" xlink:href="#DejaVuSans-20"/><use x="2379.492188" xlink:href="#aa"/><use x="2438.427734" xlink:href="#DejaVuSans-20"/><use x="2470.214844" xlink:href="#an"/><use x="2528.466797" xlink:href="#g"/><use x="2589.990234" xlink:href="#be"/><use x="2650.390625" xlink:href="#bd"/><use x="2709.570312" xlink:href="#bb"/><use x="2803.759766" xlink:href="#g"/><use x="2865.283203" xlink:href="#bf"/><use x="2930.273438" xlink:href="#DejaVuSans-20"/><use x="2962.060547" xlink:href="#aa"/><use x="3020.996094" xlink:href="#g"/><use x="3082.519531" xlink:href="#ac"/><use x="3145.996094" xlink:href="#ao"/><use x="3200.976562" xlink:href="#y"/><use x="3265.966797" xlink:href="#y"/><use x="3330.957031" xlink:href="#DejaVuSans-20"/><use x="3362.744141" xlink:href="#ab"/><use x="3431.152344" xlink:href="#l"/><use x="3494.628906" xlink:href="#ax"/><use x="3563.134766" xlink:href="#bl"/><use x="3594.921875" xlink:href="#DejaVuSans-20"/><use x="3626.708984" xlink:href="#bk"/><use x="3701.513672" xlink:href="#az"/><use x="3785.693359" xlink:href="#s"/><use x="3851.074219" xlink:href="#ba"/><use x="3910.009766" xlink:href="#DejaVuSans-20"/><use x="3941.796875" xlink:href="#f"/><use x="4005.419922" xlink:href="#a"/><use x="4069.042969" xlink:href="#f"/><use x="4132.666016" xlink:href="#i"/><use x="4196.289062" xlink:href="#DejaVuSans-20"/><use x="4228.076172" xlink:href="#bg"/><use x="4280.615234" xlink:href="#ag"/><use x="4341.796875" xlink:href="#ad"/><use x="4410.9375" xlink:href="#ap"/></g><defs><clipPath id="b"><rect x="58.752" y="29.16" width="1076" height="560.52"/></clipPath></defs></svg>
